<?xml version="1.0" encoding="UTF-8" standalone="no"?>
<!DOCTYPE svg PUBLIC "-//W3C//DTD SVG 1.1//EN"
 "http://www.w3.org/Graphics/SVG/1.1/DTD/svg11.dtd">
<!-- Generated by graphviz version 2.40.1 (20161225.0304)
 -->
<!-- Title: zp_comment Pages: 1 -->
<svg width="395pt" height="1872pt"
 viewBox="0.00 0.00 395.00 1872.00" xmlns="http://www.w3.org/2000/svg" xmlns:xlink="http://www.w3.org/1999/xlink">
<g id="graph0" class="graph" transform="scale(1 1) rotate(0) translate(4 1868)">
<title>zp_comment</title>
<polygon fill="#ffffff" stroke="transparent" points="-4,4 -4,-1868 391,-1868 391,4 -4,4"/>
<!-- zp_comment -->
<g id="node1" class="node">
<title>zp_comment</title>
<polygon fill="#efefef" stroke="transparent" points="46,-1402.5 46,-1437.5 290,-1437.5 290,-1402.5 46,-1402.5"/>
<polygon fill="none" stroke="#000000" points="46,-1402.5 46,-1437.5 290,-1437.5 290,-1402.5 46,-1402.5"/>
<text text-anchor="start" x="52.7072" y="-1415.3" font-family="Arial Bold" font-size="18.00" fill="#000000">zp_comment</text>
<text text-anchor="start" x="155.7248" y="-1415.3" font-family="Arial" font-size="14.00" fill="#000000">    </text>
<text text-anchor="start" x="189.9296" y="-1415.3" font-family="Arial" font-size="14.00" fill="#666666">[BASE TABLE]</text>
<polygon fill="none" stroke="#000000" points="46,-1372.5 46,-1402.5 290,-1402.5 290,-1372.5 46,-1372.5"/>
<text text-anchor="start" x="53" y="-1383.9" font-family="Arial" font-size="14.00" fill="#000000">id </text>
<text text-anchor="start" x="67.7798" y="-1383.9" font-family="Arial" font-size="14.00" fill="#666666">[int(11) unsigned]</text>
<polygon fill="none" stroke="#000000" points="46,-1342.5 46,-1372.5 290,-1372.5 290,-1342.5 46,-1342.5"/>
<text text-anchor="start" x="53" y="-1353.9" font-family="Arial" font-size="14.00" fill="#000000">module </text>
<text text-anchor="start" x="102.7882" y="-1353.9" font-family="Arial" font-size="14.00" fill="#666666">[varchar(200)]</text>
<polygon fill="none" stroke="#000000" points="46,-1312.5 46,-1342.5 290,-1342.5 290,-1312.5 46,-1312.5"/>
<text text-anchor="start" x="53" y="-1323.9" font-family="Arial" font-size="14.00" fill="#000000">userId </text>
<text text-anchor="start" x="95.7896" y="-1323.9" font-family="Arial" font-size="14.00" fill="#666666">[int(11)]</text>
<polygon fill="none" stroke="#000000" points="46,-1282.5 46,-1312.5 290,-1312.5 290,-1282.5 46,-1282.5"/>
<text text-anchor="start" x="53" y="-1293.9" font-family="Arial" font-size="14.00" fill="#000000">commentParent </text>
<text text-anchor="start" x="155.6858" y="-1293.9" font-family="Arial" font-size="14.00" fill="#666666">[int(11)]</text>
<polygon fill="none" stroke="#000000" points="46,-1252.5 46,-1282.5 290,-1282.5 290,-1252.5 46,-1252.5"/>
<text text-anchor="start" x="53" y="-1263.9" font-family="Arial" font-size="14.00" fill="#000000">date </text>
<text text-anchor="start" x="84.129" y="-1263.9" font-family="Arial" font-size="14.00" fill="#666666">[datetime]</text>
<polygon fill="none" stroke="#000000" points="46,-1222.5 46,-1252.5 290,-1252.5 290,-1222.5 46,-1222.5"/>
<text text-anchor="start" x="53" y="-1233.9" font-family="Arial" font-size="14.00" fill="#000000">moduleId </text>
<text text-anchor="start" x="114.4614" y="-1233.9" font-family="Arial" font-size="14.00" fill="#666666">[int(11)]</text>
<polygon fill="none" stroke="#000000" points="46,-1192.5 46,-1222.5 290,-1222.5 290,-1192.5 46,-1192.5"/>
<text text-anchor="start" x="53" y="-1203.9" font-family="Arial" font-size="14.00" fill="#000000">text </text>
<text text-anchor="start" x="79.4544" y="-1203.9" font-family="Arial" font-size="14.00" fill="#666666">[text]</text>
<polygon fill="none" stroke="#000000" points="46,-1162.5 46,-1192.5 290,-1192.5 290,-1162.5 46,-1162.5"/>
<text text-anchor="start" x="53" y="-1173.9" font-family="Arial" font-size="14.00" fill="#000000">status </text>
<text text-anchor="start" x="94.237" y="-1173.9" font-family="Arial" font-size="14.00" fill="#666666">[varchar(50)]</text>
<polygon fill="none" stroke="#000000" stroke-width="3" points="44.5,-1161.5 44.5,-1439.5 291.5,-1439.5 291.5,-1161.5 44.5,-1161.5"/>
</g>
<!-- zp_comment&#45;&gt;zp_comment -->
<g id="edge1" class="edge">
<title>zp_comment:commentParent&#45;&gt;zp_comment:id</title>
<path fill="none" stroke="#000000" stroke-dasharray="5,2" d="M169.1112,-1322.7477C176.9834,-1517.2032 176.6129,-1864 168,-1864 159.2373,-1864 159.0063,-1590.3553 167.3069,-1402.5611"/>
<polygon fill="#000000" stroke="#000000" points="169.1109,-1322.7368 173.1892,-1312.5575 168.902,-1317.7411 168.6931,-1312.7455 168.6931,-1312.7455 168.6931,-1312.7455 168.902,-1317.7411 164.1971,-1312.9335 169.1109,-1322.7368 169.1109,-1322.7368"/>
<text text-anchor="start" x="79.0176" y="-1322.7455" font-family="Arial" font-size="10.00" fill="#000000">Additional Relation</text>
</g>
<!-- zp_user -->
<g id="node2" class="node">
<title>zp_user</title>
<polygon fill="#efefef" stroke="transparent" points="55,-1002.5 55,-1037.5 281,-1037.5 281,-1002.5 55,-1002.5"/>
<polygon fill="none" stroke="#000000" points="55,-1002.5 55,-1037.5 281,-1037.5 281,-1002.5 55,-1002.5"/>
<text text-anchor="start" x="72.2075" y="-1015.3" font-family="Arial Bold" font-size="18.00" fill="#000000">zp_user</text>
<text text-anchor="start" x="136.2245" y="-1015.3" font-family="Arial" font-size="14.00" fill="#000000">    </text>
<text text-anchor="start" x="170.4293" y="-1015.3" font-family="Arial" font-size="14.00" fill="#666666">[BASE TABLE]</text>
<polygon fill="none" stroke="#000000" points="55,-972.5 55,-1002.5 281,-1002.5 281,-972.5 55,-972.5"/>
<text text-anchor="start" x="62" y="-983.9" font-family="Arial" font-size="14.00" fill="#000000">id    </text>
<text text-anchor="start" x="107.094" y="-983.9" font-family="Arial" font-size="14.00" fill="#666666">[int(11)]</text>
<polygon fill="none" stroke="#000000" points="55,-942.5 55,-972.5 281,-972.5 281,-942.5 55,-942.5"/>
<text text-anchor="start" x="62" y="-953.9" font-family="Arial" font-size="14.00" fill="#000000">username    </text>
<text text-anchor="start" x="158.439" y="-953.9" font-family="Arial" font-size="14.00" fill="#666666">[varchar(175)]</text>
<polygon fill="none" stroke="#000000" points="55,-912.5 55,-942.5 281,-942.5 281,-912.5 55,-912.5"/>
<text text-anchor="start" x="62" y="-923.9" font-family="Arial" font-size="14.00" fill="#000000">password    </text>
<text text-anchor="start" x="156.1024" y="-923.9" font-family="Arial" font-size="14.00" fill="#666666">[varchar(255)]</text>
<polygon fill="none" stroke="#000000" points="55,-882.5 55,-912.5 281,-912.5 281,-882.5 55,-882.5"/>
<text text-anchor="start" x="62" y="-893.9" font-family="Arial" font-size="14.00" fill="#000000">firstname    </text>
<text text-anchor="start" x="153.7616" y="-893.9" font-family="Arial" font-size="14.00" fill="#666666">[varchar(100)]</text>
<polygon fill="none" stroke="#000000" points="55,-852.5 55,-882.5 281,-882.5 281,-852.5 55,-852.5"/>
<text text-anchor="start" x="62" y="-863.9" font-family="Arial" font-size="14.00" fill="#000000">lastname    </text>
<text text-anchor="start" x="152.993" y="-863.9" font-family="Arial" font-size="14.00" fill="#666666">[varchar(100)]</text>
<polygon fill="none" stroke="#000000" points="55,-822.5 55,-852.5 281,-852.5 281,-822.5 55,-822.5"/>
<text text-anchor="start" x="62" y="-833.9" font-family="Arial" font-size="14.00" fill="#000000">phone    </text>
<text text-anchor="start" x="135.1178" y="-833.9" font-family="Arial" font-size="14.00" fill="#666666">[varchar(25)]</text>
<polygon fill="none" stroke="#000000" points="55,-792.5 55,-822.5 281,-822.5 281,-792.5 55,-792.5"/>
<text text-anchor="start" x="62" y="-803.9" font-family="Arial" font-size="14.00" fill="#000000">profileId    </text>
<text text-anchor="start" x="145.9902" y="-803.9" font-family="Arial" font-size="14.00" fill="#666666">[varchar(100)]</text>
<polygon fill="none" stroke="#000000" points="55,-762.5 55,-792.5 281,-792.5 281,-762.5 55,-762.5"/>
<text text-anchor="start" x="62" y="-773.9" font-family="Arial" font-size="14.00" fill="#000000">lastlogin    </text>
<text text-anchor="start" x="147.5456" y="-773.9" font-family="Arial" font-size="14.00" fill="#666666">[datetime]</text>
<polygon fill="none" stroke="#000000" points="55,-732.5 55,-762.5 281,-762.5 281,-732.5 55,-732.5"/>
<text text-anchor="start" x="62" y="-743.9" font-family="Arial" font-size="14.00" fill="#000000">status    </text>
<text text-anchor="start" x="133.5512" y="-743.9" font-family="Arial" font-size="14.00" fill="#666666">[varchar(1)]</text>
<polygon fill="none" stroke="#000000" points="55,-702.5 55,-732.5 281,-732.5 281,-702.5 55,-702.5"/>
<text text-anchor="start" x="62" y="-713.9" font-family="Arial" font-size="14.00" fill="#000000">expires    </text>
<text text-anchor="start" x="141.3198" y="-713.9" font-family="Arial" font-size="14.00" fill="#666666">[datetime]</text>
<polygon fill="none" stroke="#000000" points="55,-672.5 55,-702.5 281,-702.5 281,-672.5 55,-672.5"/>
<text text-anchor="start" x="62" y="-683.9" font-family="Arial" font-size="14.00" fill="#000000">role    </text>
<text text-anchor="start" x="119.5372" y="-683.9" font-family="Arial" font-size="14.00" fill="#666666">[varchar(200)]</text>
<polygon fill="none" stroke="#000000" points="55,-642.5 55,-672.5 281,-672.5 281,-642.5 55,-642.5"/>
<text text-anchor="start" x="62" y="-653.9" font-family="Arial" font-size="14.00" fill="#000000">session    </text>
<text text-anchor="start" x="143.6592" y="-653.9" font-family="Arial" font-size="14.00" fill="#666666">[varchar(100)]</text>
<polygon fill="none" stroke="#000000" points="55,-612.5 55,-642.5 281,-642.5 281,-612.5 55,-612.5"/>
<text text-anchor="start" x="62" y="-623.9" font-family="Arial" font-size="14.00" fill="#000000">sessiontime    </text>
<text text-anchor="start" x="170.0996" y="-623.9" font-family="Arial" font-size="14.00" fill="#666666">[varchar(50)]</text>
<polygon fill="none" stroke="#000000" points="55,-582.5 55,-612.5 281,-612.5 281,-582.5 55,-582.5"/>
<text text-anchor="start" x="62" y="-593.9" font-family="Arial" font-size="14.00" fill="#000000">wage    </text>
<text text-anchor="start" x="129.6592" y="-593.9" font-family="Arial" font-size="14.00" fill="#666666">[int(11)]</text>
<polygon fill="none" stroke="#000000" points="55,-552.5 55,-582.5 281,-582.5 281,-552.5 55,-552.5"/>
<text text-anchor="start" x="62" y="-563.9" font-family="Arial" font-size="14.00" fill="#000000">hours    </text>
<text text-anchor="start" x="131.2132" y="-563.9" font-family="Arial" font-size="14.00" fill="#666666">[int(11)]</text>
<polygon fill="none" stroke="#000000" points="55,-522.5 55,-552.5 281,-552.5 281,-522.5 55,-522.5"/>
<text text-anchor="start" x="62" y="-533.9" font-family="Arial" font-size="14.00" fill="#000000">description    </text>
<text text-anchor="start" x="163.8822" y="-533.9" font-family="Arial" font-size="14.00" fill="#666666">[text]</text>
<polygon fill="none" stroke="#000000" points="55,-492.5 55,-522.5 281,-522.5 281,-492.5 55,-492.5"/>
<text text-anchor="start" x="62" y="-503.9" font-family="Arial" font-size="14.00" fill="#000000">clientId    </text>
<text text-anchor="start" x="140.547" y="-503.9" font-family="Arial" font-size="14.00" fill="#666666">[int(11)]</text>
<polygon fill="none" stroke="#000000" points="55,-462.5 55,-492.5 281,-492.5 281,-462.5 55,-462.5"/>
<text text-anchor="start" x="62" y="-473.9" font-family="Arial" font-size="14.00" fill="#000000">notifications    </text>
<text text-anchor="start" x="170.1094" y="-473.9" font-family="Arial" font-size="14.00" fill="#666666">[int(2)]</text>
<polygon fill="none" stroke="#000000" points="55,-432.5 55,-462.5 281,-462.5 281,-432.5 55,-432.5"/>
<text text-anchor="start" x="62" y="-443.9" font-family="Arial" font-size="14.00" fill="#000000">pwReset    </text>
<text text-anchor="start" x="150.6564" y="-443.9" font-family="Arial" font-size="14.00" fill="#666666">[varchar(100)]</text>
<polygon fill="none" stroke="#000000" points="55,-402.5 55,-432.5 281,-432.5 281,-402.5 55,-402.5"/>
<text text-anchor="start" x="61.8261" y="-413.9" font-family="Arial" font-size="14.00" fill="#000000">pwResetExpiration    </text>
<text text-anchor="start" x="212.7139" y="-413.9" font-family="Arial" font-size="14.00" fill="#666666">[datetime]</text>
<polygon fill="none" stroke="#000000" points="55,-372.5 55,-402.5 281,-402.5 281,-372.5 55,-372.5"/>
<text text-anchor="start" x="62" y="-383.9" font-family="Arial" font-size="14.00" fill="#000000">pwResetCount    </text>
<text text-anchor="start" x="188.0014" y="-383.9" font-family="Arial" font-size="14.00" fill="#666666">[int(5)]</text>
<polygon fill="none" stroke="#000000" points="55,-342.5 55,-372.5 281,-372.5 281,-342.5 55,-342.5"/>
<text text-anchor="start" x="62" y="-353.9" font-family="Arial" font-size="14.00" fill="#000000">forcePwReset    </text>
<text text-anchor="start" x="183.3268" y="-353.9" font-family="Arial" font-size="14.00" fill="#666666">[tinyint(4)]</text>
<polygon fill="none" stroke="#000000" points="55,-312.5 55,-342.5 281,-342.5 281,-312.5 55,-312.5"/>
<text text-anchor="start" x="62" y="-323.9" font-family="Arial" font-size="14.00" fill="#000000">lastpwd_change    </text>
<text text-anchor="start" x="197.352" y="-323.9" font-family="Arial" font-size="14.00" fill="#666666">[datetime]</text>
<polygon fill="none" stroke="#000000" points="55,-282.5 55,-312.5 281,-312.5 281,-282.5 55,-282.5"/>
<text text-anchor="start" x="62" y="-293.9" font-family="Arial" font-size="14.00" fill="#000000">settings    </text>
<text text-anchor="start" x="144.4404" y="-293.9" font-family="Arial" font-size="14.00" fill="#666666">[text]</text>
<polygon fill="none" stroke="#000000" points="55,-252.5 55,-282.5 281,-282.5 281,-252.5 55,-252.5"/>
<text text-anchor="start" x="62" y="-263.9" font-family="Arial" font-size="14.00" fill="#000000">twoFAEnabled    </text>
<text text-anchor="start" x="187.23" y="-263.9" font-family="Arial" font-size="14.00" fill="#666666">[tinyint(1)]</text>
<polygon fill="none" stroke="#000000" points="55,-222.5 55,-252.5 281,-252.5 281,-222.5 55,-222.5"/>
<text text-anchor="start" x="62" y="-233.9" font-family="Arial" font-size="14.00" fill="#000000">twoFASecret    </text>
<text text-anchor="start" x="176.3268" y="-233.9" font-family="Arial" font-size="14.00" fill="#666666">[varchar(200)]</text>
<polygon fill="none" stroke="#000000" points="55,-192.5 55,-222.5 281,-222.5 281,-192.5 55,-192.5"/>
<text text-anchor="start" x="62" y="-203.9" font-family="Arial" font-size="14.00" fill="#000000">createdOn    </text>
<text text-anchor="start" x="161.5596" y="-203.9" font-family="Arial" font-size="14.00" fill="#666666">[datetime]</text>
<polygon fill="none" stroke="#000000" points="55,-162.5 55,-192.5 281,-192.5 281,-162.5 55,-162.5"/>
<text text-anchor="start" x="62" y="-173.9" font-family="Arial" font-size="14.00" fill="#000000">source    </text>
<text text-anchor="start" x="138.2132" y="-173.9" font-family="Arial" font-size="14.00" fill="#666666">[varchar(200)]</text>
<polygon fill="none" stroke="#000000" points="55,-132.5 55,-162.5 281,-162.5 281,-132.5 55,-132.5"/>
<text text-anchor="start" x="62" y="-143.9" font-family="Arial" font-size="14.00" fill="#000000">jobTitle    </text>
<text text-anchor="start" x="141.3156" y="-143.9" font-family="Arial" font-size="14.00" fill="#666666">[varchar(200)]</text>
<polygon fill="none" stroke="#000000" points="55,-102.5 55,-132.5 281,-132.5 281,-102.5 55,-102.5"/>
<text text-anchor="start" x="62" y="-113.9" font-family="Arial" font-size="14.00" fill="#000000">jobLevel    </text>
<text text-anchor="start" x="148.331" y="-113.9" font-family="Arial" font-size="14.00" fill="#666666">[varchar(50)]</text>
<polygon fill="none" stroke="#000000" points="55,-72.5 55,-102.5 281,-102.5 281,-72.5 55,-72.5"/>
<text text-anchor="start" x="62" y="-83.9" font-family="Arial" font-size="14.00" fill="#000000">department    </text>
<text text-anchor="start" x="167.0028" y="-83.9" font-family="Arial" font-size="14.00" fill="#666666">[varchar(200)]</text>
<polygon fill="none" stroke="#000000" points="55,-42.5 55,-72.5 281,-72.5 281,-42.5 55,-42.5"/>
<text text-anchor="start" x="62" y="-53.9" font-family="Arial" font-size="14.00" fill="#000000">modified    </text>
<text text-anchor="start" x="149.0996" y="-53.9" font-family="Arial" font-size="14.00" fill="#666666">[datetime]</text>
</g>
<!-- zp_comment&#45;&gt;zp_user -->
<g id="edge2" class="edge">
<title>zp_comment:userId&#45;&gt;zp_user:id</title>
<path fill="none" stroke="#000000" stroke-dasharray="5,2" d="M300.073,-1325.3288C364.592,-1296.3721 353.0391,-987.5 281,-987.5"/>
<polygon fill="#000000" stroke="#000000" points="299.7755,-1325.3929 289.0518,-1323.101 294.8878,-1326.4464 290,-1327.5 290,-1327.5 290,-1327.5 294.8878,-1326.4464 290.9482,-1331.899 299.7755,-1325.3929 299.7755,-1325.3929"/>
<text text-anchor="start" x="297.3245" y="-1337.5" font-family="Arial" font-size="10.00" fill="#000000">Additional Relation</text>
</g>
</g>
</svg>
