<?xml version="1.0" encoding="UTF-8" standalone="no"?>
<!DOCTYPE svg PUBLIC "-//W3C//DTD SVG 1.1//EN"
 "http://www.w3.org/Graphics/SVG/1.1/DTD/svg11.dtd">
<!-- Generated by graphviz version 2.40.1 (20161225.0304)
 -->
<!-- Title: zp_clients Pages: 1 -->
<svg width="658pt" height="1612pt"
 viewBox="0.00 0.00 657.50 1612.00" xmlns="http://www.w3.org/2000/svg" xmlns:xlink="http://www.w3.org/1999/xlink">
<g id="graph0" class="graph" transform="scale(1 1) rotate(0) translate(4 1608)">
<title>zp_clients</title>
<polygon fill="#ffffff" stroke="transparent" points="-4,4 -4,-1608 653.5,-1608 653.5,4 -4,4"/>
<!-- zp_clients -->
<g id="node1" class="node">
<title>zp_clients</title>
<polygon fill="#efefef" stroke="transparent" points="215.5,-405.5 215.5,-440.5 436.5,-440.5 436.5,-405.5 215.5,-405.5"/>
<polygon fill="none" stroke="#000000" points="215.5,-405.5 215.5,-440.5 436.5,-440.5 436.5,-405.5 215.5,-405.5"/>
<text text-anchor="start" x="222.2083" y="-418.3" font-family="Arial Bold" font-size="18.00" fill="#000000">zp_clients</text>
<text text-anchor="start" x="302.2237" y="-418.3" font-family="Arial" font-size="14.00" fill="#000000">    </text>
<text text-anchor="start" x="336.4285" y="-418.3" font-family="Arial" font-size="14.00" fill="#666666">[BASE TABLE]</text>
<polygon fill="none" stroke="#000000" points="215.5,-375.5 215.5,-405.5 436.5,-405.5 436.5,-375.5 215.5,-375.5"/>
<text text-anchor="start" x="222.5" y="-386.9" font-family="Arial" font-size="14.00" fill="#000000">id </text>
<text text-anchor="start" x="237.2798" y="-386.9" font-family="Arial" font-size="14.00" fill="#666666">[int(11)]</text>
<polygon fill="none" stroke="#000000" points="215.5,-345.5 215.5,-375.5 436.5,-375.5 436.5,-345.5 215.5,-345.5"/>
<text text-anchor="start" x="222.5" y="-356.9" font-family="Arial" font-size="14.00" fill="#000000">name </text>
<text text-anchor="start" x="261.399" y="-356.9" font-family="Arial" font-size="14.00" fill="#666666">[varchar(200)]</text>
<polygon fill="none" stroke="#000000" points="215.5,-315.5 215.5,-345.5 436.5,-345.5 436.5,-315.5 215.5,-315.5"/>
<text text-anchor="start" x="222.5" y="-326.9" font-family="Arial" font-size="14.00" fill="#000000">street </text>
<text text-anchor="start" x="261.3976" y="-326.9" font-family="Arial" font-size="14.00" fill="#666666">[varchar(200)]</text>
<polygon fill="none" stroke="#000000" points="215.5,-285.5 215.5,-315.5 436.5,-315.5 436.5,-285.5 215.5,-285.5"/>
<text text-anchor="start" x="222.5" y="-296.9" font-family="Arial" font-size="14.00" fill="#000000">zip </text>
<text text-anchor="start" x="244.2798" y="-296.9" font-family="Arial" font-size="14.00" fill="#666666">[int(10)]</text>
<polygon fill="none" stroke="#000000" points="215.5,-255.5 215.5,-285.5 436.5,-285.5 436.5,-255.5 215.5,-255.5"/>
<text text-anchor="start" x="222.5" y="-266.9" font-family="Arial" font-size="14.00" fill="#000000">city </text>
<text text-anchor="start" x="247.3878" y="-266.9" font-family="Arial" font-size="14.00" fill="#666666">[varchar(50)]</text>
<polygon fill="none" stroke="#000000" points="215.5,-225.5 215.5,-255.5 436.5,-255.5 436.5,-225.5 215.5,-225.5"/>
<text text-anchor="start" x="222.5" y="-236.9" font-family="Arial" font-size="14.00" fill="#000000">state </text>
<text text-anchor="start" x="256.737" y="-236.9" font-family="Arial" font-size="14.00" fill="#666666">[varchar(50)]</text>
<polygon fill="none" stroke="#000000" points="215.5,-195.5 215.5,-225.5 436.5,-225.5 436.5,-195.5 215.5,-195.5"/>
<text text-anchor="start" x="222.5" y="-206.9" font-family="Arial" font-size="14.00" fill="#000000">country </text>
<text text-anchor="start" x="272.2896" y="-206.9" font-family="Arial" font-size="14.00" fill="#666666">[varchar(50)]</text>
<polygon fill="none" stroke="#000000" points="215.5,-165.5 215.5,-195.5 436.5,-195.5 436.5,-165.5 215.5,-165.5"/>
<text text-anchor="start" x="222.5" y="-176.9" font-family="Arial" font-size="14.00" fill="#000000">phone </text>
<text text-anchor="start" x="265.3036" y="-176.9" font-family="Arial" font-size="14.00" fill="#666666">[varchar(50)]</text>
<polygon fill="none" stroke="#000000" points="215.5,-135.5 215.5,-165.5 436.5,-165.5 436.5,-135.5 215.5,-135.5"/>
<text text-anchor="start" x="222.5" y="-146.9" font-family="Arial" font-size="14.00" fill="#000000">internet </text>
<text text-anchor="start" x="273.0694" y="-146.9" font-family="Arial" font-size="14.00" fill="#666666">[varchar(200)]</text>
<polygon fill="none" stroke="#000000" points="215.5,-105.5 215.5,-135.5 436.5,-135.5 436.5,-105.5 215.5,-105.5"/>
<text text-anchor="start" x="222.5" y="-116.9" font-family="Arial" font-size="14.00" fill="#000000">published </text>
<text text-anchor="start" x="286.2994" y="-116.9" font-family="Arial" font-size="14.00" fill="#666666">[int(1)]</text>
<polygon fill="none" stroke="#000000" points="215.5,-75.5 215.5,-105.5 436.5,-105.5 436.5,-75.5 215.5,-75.5"/>
<text text-anchor="start" x="222.5" y="-86.9" font-family="Arial" font-size="14.00" fill="#000000">age </text>
<text text-anchor="start" x="249.7384" y="-86.9" font-family="Arial" font-size="14.00" fill="#666666">[int(3)]</text>
<polygon fill="none" stroke="#000000" points="215.5,-45.5 215.5,-75.5 436.5,-75.5 436.5,-45.5 215.5,-45.5"/>
<text text-anchor="start" x="222.5" y="-56.9" font-family="Arial" font-size="14.00" fill="#000000">email </text>
<text text-anchor="start" x="259.8296" y="-56.9" font-family="Arial" font-size="14.00" fill="#666666">[varchar(255)]</text>
<polygon fill="none" stroke="#000000" stroke-width="3" points="213.5,-44.5 213.5,-442.5 437.5,-442.5 437.5,-44.5 213.5,-44.5"/>
</g>
<!-- zp_projects -->
<g id="node2" class="node">
<title>zp_projects</title>
<polygon fill="#efefef" stroke="transparent" points="43.5,-1330.5 43.5,-1365.5 276.5,-1365.5 276.5,-1330.5 43.5,-1330.5"/>
<polygon fill="none" stroke="#000000" points="43.5,-1330.5 43.5,-1365.5 276.5,-1365.5 276.5,-1330.5 43.5,-1330.5"/>
<text text-anchor="start" x="50.2062" y="-1343.3" font-family="Arial Bold" font-size="18.00" fill="#000000">zp_projects</text>
<text text-anchor="start" x="142.2258" y="-1343.3" font-family="Arial" font-size="14.00" fill="#000000">    </text>
<text text-anchor="start" x="176.4306" y="-1343.3" font-family="Arial" font-size="14.00" fill="#666666">[BASE TABLE]</text>
<polygon fill="none" stroke="#000000" points="43.5,-1300.5 43.5,-1330.5 276.5,-1330.5 276.5,-1300.5 43.5,-1300.5"/>
<text text-anchor="start" x="50.5" y="-1311.9" font-family="Arial" font-size="14.00" fill="#000000">id    </text>
<text text-anchor="start" x="95.594" y="-1311.9" font-family="Arial" font-size="14.00" fill="#666666">[int(11)]</text>
<polygon fill="none" stroke="#000000" points="43.5,-1270.5 43.5,-1300.5 276.5,-1300.5 276.5,-1270.5 43.5,-1270.5"/>
<text text-anchor="start" x="50.5" y="-1281.9" font-family="Arial" font-size="14.00" fill="#000000">name    </text>
<text text-anchor="start" x="119.7132" y="-1281.9" font-family="Arial" font-size="14.00" fill="#666666">[varchar(100)]</text>
<polygon fill="none" stroke="#000000" points="43.5,-1240.5 43.5,-1270.5 276.5,-1270.5 276.5,-1240.5 43.5,-1240.5"/>
<text text-anchor="start" x="50.5" y="-1251.9" font-family="Arial" font-size="14.00" fill="#000000">clientId    </text>
<text text-anchor="start" x="129.047" y="-1251.9" font-family="Arial" font-size="14.00" fill="#666666">[int(100)]</text>
<polygon fill="none" stroke="#000000" points="43.5,-1210.5 43.5,-1240.5 276.5,-1240.5 276.5,-1210.5 43.5,-1210.5"/>
<text text-anchor="start" x="50.5" y="-1221.9" font-family="Arial" font-size="14.00" fill="#000000">details    </text>
<text text-anchor="start" x="125.1564" y="-1221.9" font-family="Arial" font-size="14.00" fill="#666666">[text]</text>
<polygon fill="none" stroke="#000000" points="43.5,-1180.5 43.5,-1210.5 276.5,-1210.5 276.5,-1180.5 43.5,-1180.5"/>
<text text-anchor="start" x="50.5" y="-1191.9" font-family="Arial" font-size="14.00" fill="#000000">state    </text>
<text text-anchor="start" x="115.0512" y="-1191.9" font-family="Arial" font-size="14.00" fill="#666666">[int(2)]</text>
<polygon fill="none" stroke="#000000" points="43.5,-1150.5 43.5,-1180.5 276.5,-1180.5 276.5,-1150.5 43.5,-1150.5"/>
<text text-anchor="start" x="50.5" y="-1161.9" font-family="Arial" font-size="14.00" fill="#000000">hourBudget    </text>
<text text-anchor="start" x="157.0708" y="-1161.9" font-family="Arial" font-size="14.00" fill="#666666">[varchar(255)]</text>
<polygon fill="none" stroke="#000000" points="43.5,-1120.5 43.5,-1150.5 276.5,-1150.5 276.5,-1120.5 43.5,-1120.5"/>
<text text-anchor="start" x="50.5" y="-1131.9" font-family="Arial" font-size="14.00" fill="#000000">dollarBudget    </text>
<text text-anchor="start" x="163.284" y="-1131.9" font-family="Arial" font-size="14.00" fill="#666666">[int(11)]</text>
<polygon fill="none" stroke="#000000" points="43.5,-1090.5 43.5,-1120.5 276.5,-1120.5 276.5,-1090.5 43.5,-1090.5"/>
<text text-anchor="start" x="50.5" y="-1101.9" font-family="Arial" font-size="14.00" fill="#000000">active    </text>
<text text-anchor="start" x="121.2672" y="-1101.9" font-family="Arial" font-size="14.00" fill="#666666">[int(11)]</text>
<polygon fill="none" stroke="#000000" points="43.5,-1060.5 43.5,-1090.5 276.5,-1090.5 276.5,-1060.5 43.5,-1060.5"/>
<text text-anchor="start" x="50.5" y="-1071.9" font-family="Arial" font-size="14.00" fill="#000000">menuType    </text>
<text text-anchor="start" x="150.831" y="-1071.9" font-family="Arial" font-size="14.00" fill="#666666">[mediumtext]</text>
<polygon fill="none" stroke="#000000" points="43.5,-1030.5 43.5,-1060.5 276.5,-1060.5 276.5,-1030.5 43.5,-1030.5"/>
<text text-anchor="start" x="50.5" y="-1041.9" font-family="Arial" font-size="14.00" fill="#000000">psettings    </text>
<text text-anchor="start" x="140.723" y="-1041.9" font-family="Arial" font-size="14.00" fill="#666666">[mediumtext]</text>
<polygon fill="none" stroke="#000000" points="43.5,-1000.5 43.5,-1030.5 276.5,-1030.5 276.5,-1000.5 43.5,-1000.5"/>
<text text-anchor="start" x="50.5" y="-1011.9" font-family="Arial" font-size="14.00" fill="#000000">parent    </text>
<text text-anchor="start" x="124.3864" y="-1011.9" font-family="Arial" font-size="14.00" fill="#666666">[int(11)]</text>
<polygon fill="none" stroke="#000000" points="43.5,-970.5 43.5,-1000.5 276.5,-1000.5 276.5,-970.5 43.5,-970.5"/>
<text text-anchor="start" x="50.5" y="-981.9" font-family="Arial" font-size="14.00" fill="#000000">type    </text>
<text text-anchor="start" x="111.1606" y="-981.9" font-family="Arial" font-size="14.00" fill="#666666">[varchar(45)]</text>
<polygon fill="none" stroke="#000000" points="43.5,-940.5 43.5,-970.5 276.5,-970.5 276.5,-940.5 43.5,-940.5"/>
<text text-anchor="start" x="50.5" y="-951.9" font-family="Arial" font-size="14.00" fill="#000000">start    </text>
<text text-anchor="start" x="111.9292" y="-951.9" font-family="Arial" font-size="14.00" fill="#666666">[datetime]</text>
<polygon fill="none" stroke="#000000" points="43.5,-910.5 43.5,-940.5 276.5,-940.5 276.5,-910.5 43.5,-910.5"/>
<text text-anchor="start" x="50.5" y="-921.9" font-family="Arial" font-size="14.00" fill="#000000">end    </text>
<text text-anchor="start" x="108.0526" y="-921.9" font-family="Arial" font-size="14.00" fill="#666666">[datetime]</text>
<polygon fill="none" stroke="#000000" points="43.5,-880.5 43.5,-910.5 276.5,-910.5 276.5,-880.5 43.5,-880.5"/>
<text text-anchor="start" x="50.5" y="-891.9" font-family="Arial" font-size="14.00" fill="#000000">created    </text>
<text text-anchor="start" x="131.3864" y="-891.9" font-family="Arial" font-size="14.00" fill="#666666">[datetime]</text>
<polygon fill="none" stroke="#000000" points="43.5,-850.5 43.5,-880.5 276.5,-880.5 276.5,-850.5 43.5,-850.5"/>
<text text-anchor="start" x="50.5" y="-861.9" font-family="Arial" font-size="14.00" fill="#000000">modified    </text>
<text text-anchor="start" x="137.5996" y="-861.9" font-family="Arial" font-size="14.00" fill="#666666">[datetime]</text>
<polygon fill="none" stroke="#000000" points="43.5,-820.5 43.5,-850.5 276.5,-850.5 276.5,-820.5 43.5,-820.5"/>
<text text-anchor="start" x="50.5" y="-831.9" font-family="Arial" font-size="14.00" fill="#000000">avatar    </text>
<text text-anchor="start" x="123.6038" y="-831.9" font-family="Arial" font-size="14.00" fill="#666666">[mediumtext]</text>
<polygon fill="none" stroke="#000000" points="43.5,-790.5 43.5,-820.5 276.5,-820.5 276.5,-790.5 43.5,-790.5"/>
<text text-anchor="start" x="50.5" y="-801.9" font-family="Arial" font-size="14.00" fill="#000000">cover    </text>
<text text-anchor="start" x="118.9306" y="-801.9" font-family="Arial" font-size="14.00" fill="#666666">[mediumtext]</text>
<polygon fill="none" stroke="#000000" points="43.5,-760.5 43.5,-790.5 276.5,-790.5 276.5,-760.5 43.5,-760.5"/>
<text text-anchor="start" x="50.5" y="-771.9" font-family="Arial" font-size="14.00" fill="#000000">sortIndex    </text>
<text text-anchor="start" x="142.277" y="-771.9" font-family="Arial" font-size="14.00" fill="#666666">[int(11)]</text>
</g>
<!-- zp_projects&#45;&gt;zp_clients -->
<g id="edge1" class="edge">
<title>zp_projects:clientId&#45;&gt;zp_clients:id</title>
<path fill="none" stroke="#000000" stroke-dasharray="5,2" d="M285.6009,-1251.0599C330.47,-1202.6648 283.7526,-773.8708 276.5,-718 257.4404,-571.173 67.4411,-390.5 215.5,-390.5"/>
<polygon fill="#000000" stroke="#000000" points="285.4874,-1251.1152 274.5268,-1251.4556 280.9937,-1253.3076 276.5,-1255.5 276.5,-1255.5 276.5,-1255.5 280.9937,-1253.3076 278.4732,-1259.5444 285.4874,-1251.1152 285.4874,-1251.1152"/>
<text text-anchor="start" x="283.8245" y="-1265.5" font-family="Arial" font-size="10.00" fill="#000000">Additional Relation</text>
</g>
<!-- zp_user -->
<g id="node3" class="node">
<title>zp_user</title>
<polygon fill="#efefef" stroke="transparent" points="380.5,-1525.5 380.5,-1560.5 606.5,-1560.5 606.5,-1525.5 380.5,-1525.5"/>
<polygon fill="none" stroke="#000000" points="380.5,-1525.5 380.5,-1560.5 606.5,-1560.5 606.5,-1525.5 380.5,-1525.5"/>
<text text-anchor="start" x="397.7075" y="-1538.3" font-family="Arial Bold" font-size="18.00" fill="#000000">zp_user</text>
<text text-anchor="start" x="461.7245" y="-1538.3" font-family="Arial" font-size="14.00" fill="#000000">    </text>
<text text-anchor="start" x="495.9293" y="-1538.3" font-family="Arial" font-size="14.00" fill="#666666">[BASE TABLE]</text>
<polygon fill="none" stroke="#000000" points="380.5,-1495.5 380.5,-1525.5 606.5,-1525.5 606.5,-1495.5 380.5,-1495.5"/>
<text text-anchor="start" x="387.5" y="-1506.9" font-family="Arial" font-size="14.00" fill="#000000">id    </text>
<text text-anchor="start" x="432.594" y="-1506.9" font-family="Arial" font-size="14.00" fill="#666666">[int(11)]</text>
<polygon fill="none" stroke="#000000" points="380.5,-1465.5 380.5,-1495.5 606.5,-1495.5 606.5,-1465.5 380.5,-1465.5"/>
<text text-anchor="start" x="387.5" y="-1476.9" font-family="Arial" font-size="14.00" fill="#000000">username    </text>
<text text-anchor="start" x="483.939" y="-1476.9" font-family="Arial" font-size="14.00" fill="#666666">[varchar(175)]</text>
<polygon fill="none" stroke="#000000" points="380.5,-1435.5 380.5,-1465.5 606.5,-1465.5 606.5,-1435.5 380.5,-1435.5"/>
<text text-anchor="start" x="387.5" y="-1446.9" font-family="Arial" font-size="14.00" fill="#000000">password    </text>
<text text-anchor="start" x="481.6024" y="-1446.9" font-family="Arial" font-size="14.00" fill="#666666">[varchar(255)]</text>
<polygon fill="none" stroke="#000000" points="380.5,-1405.5 380.5,-1435.5 606.5,-1435.5 606.5,-1405.5 380.5,-1405.5"/>
<text text-anchor="start" x="387.5" y="-1416.9" font-family="Arial" font-size="14.00" fill="#000000">firstname    </text>
<text text-anchor="start" x="479.2616" y="-1416.9" font-family="Arial" font-size="14.00" fill="#666666">[varchar(100)]</text>
<polygon fill="none" stroke="#000000" points="380.5,-1375.5 380.5,-1405.5 606.5,-1405.5 606.5,-1375.5 380.5,-1375.5"/>
<text text-anchor="start" x="387.5" y="-1386.9" font-family="Arial" font-size="14.00" fill="#000000">lastname    </text>
<text text-anchor="start" x="478.493" y="-1386.9" font-family="Arial" font-size="14.00" fill="#666666">[varchar(100)]</text>
<polygon fill="none" stroke="#000000" points="380.5,-1345.5 380.5,-1375.5 606.5,-1375.5 606.5,-1345.5 380.5,-1345.5"/>
<text text-anchor="start" x="387.5" y="-1356.9" font-family="Arial" font-size="14.00" fill="#000000">phone    </text>
<text text-anchor="start" x="460.6178" y="-1356.9" font-family="Arial" font-size="14.00" fill="#666666">[varchar(25)]</text>
<polygon fill="none" stroke="#000000" points="380.5,-1315.5 380.5,-1345.5 606.5,-1345.5 606.5,-1315.5 380.5,-1315.5"/>
<text text-anchor="start" x="387.5" y="-1326.9" font-family="Arial" font-size="14.00" fill="#000000">profileId    </text>
<text text-anchor="start" x="471.4902" y="-1326.9" font-family="Arial" font-size="14.00" fill="#666666">[varchar(100)]</text>
<polygon fill="none" stroke="#000000" points="380.5,-1285.5 380.5,-1315.5 606.5,-1315.5 606.5,-1285.5 380.5,-1285.5"/>
<text text-anchor="start" x="387.5" y="-1296.9" font-family="Arial" font-size="14.00" fill="#000000">lastlogin    </text>
<text text-anchor="start" x="473.0456" y="-1296.9" font-family="Arial" font-size="14.00" fill="#666666">[datetime]</text>
<polygon fill="none" stroke="#000000" points="380.5,-1255.5 380.5,-1285.5 606.5,-1285.5 606.5,-1255.5 380.5,-1255.5"/>
<text text-anchor="start" x="387.5" y="-1266.9" font-family="Arial" font-size="14.00" fill="#000000">status    </text>
<text text-anchor="start" x="459.0512" y="-1266.9" font-family="Arial" font-size="14.00" fill="#666666">[varchar(1)]</text>
<polygon fill="none" stroke="#000000" points="380.5,-1225.5 380.5,-1255.5 606.5,-1255.5 606.5,-1225.5 380.5,-1225.5"/>
<text text-anchor="start" x="387.5" y="-1236.9" font-family="Arial" font-size="14.00" fill="#000000">expires    </text>
<text text-anchor="start" x="466.8198" y="-1236.9" font-family="Arial" font-size="14.00" fill="#666666">[datetime]</text>
<polygon fill="none" stroke="#000000" points="380.5,-1195.5 380.5,-1225.5 606.5,-1225.5 606.5,-1195.5 380.5,-1195.5"/>
<text text-anchor="start" x="387.5" y="-1206.9" font-family="Arial" font-size="14.00" fill="#000000">role    </text>
<text text-anchor="start" x="445.0372" y="-1206.9" font-family="Arial" font-size="14.00" fill="#666666">[varchar(200)]</text>
<polygon fill="none" stroke="#000000" points="380.5,-1165.5 380.5,-1195.5 606.5,-1195.5 606.5,-1165.5 380.5,-1165.5"/>
<text text-anchor="start" x="387.5" y="-1176.9" font-family="Arial" font-size="14.00" fill="#000000">session    </text>
<text text-anchor="start" x="469.1592" y="-1176.9" font-family="Arial" font-size="14.00" fill="#666666">[varchar(100)]</text>
<polygon fill="none" stroke="#000000" points="380.5,-1135.5 380.5,-1165.5 606.5,-1165.5 606.5,-1135.5 380.5,-1135.5"/>
<text text-anchor="start" x="387.5" y="-1146.9" font-family="Arial" font-size="14.00" fill="#000000">sessiontime    </text>
<text text-anchor="start" x="495.5996" y="-1146.9" font-family="Arial" font-size="14.00" fill="#666666">[varchar(50)]</text>
<polygon fill="none" stroke="#000000" points="380.5,-1105.5 380.5,-1135.5 606.5,-1135.5 606.5,-1105.5 380.5,-1105.5"/>
<text text-anchor="start" x="387.5" y="-1116.9" font-family="Arial" font-size="14.00" fill="#000000">wage    </text>
<text text-anchor="start" x="455.1592" y="-1116.9" font-family="Arial" font-size="14.00" fill="#666666">[int(11)]</text>
<polygon fill="none" stroke="#000000" points="380.5,-1075.5 380.5,-1105.5 606.5,-1105.5 606.5,-1075.5 380.5,-1075.5"/>
<text text-anchor="start" x="387.5" y="-1086.9" font-family="Arial" font-size="14.00" fill="#000000">hours    </text>
<text text-anchor="start" x="456.7132" y="-1086.9" font-family="Arial" font-size="14.00" fill="#666666">[int(11)]</text>
<polygon fill="none" stroke="#000000" points="380.5,-1045.5 380.5,-1075.5 606.5,-1075.5 606.5,-1045.5 380.5,-1045.5"/>
<text text-anchor="start" x="387.5" y="-1056.9" font-family="Arial" font-size="14.00" fill="#000000">description    </text>
<text text-anchor="start" x="489.3822" y="-1056.9" font-family="Arial" font-size="14.00" fill="#666666">[text]</text>
<polygon fill="none" stroke="#000000" points="380.5,-1015.5 380.5,-1045.5 606.5,-1045.5 606.5,-1015.5 380.5,-1015.5"/>
<text text-anchor="start" x="387.5" y="-1026.9" font-family="Arial" font-size="14.00" fill="#000000">clientId    </text>
<text text-anchor="start" x="466.047" y="-1026.9" font-family="Arial" font-size="14.00" fill="#666666">[int(11)]</text>
<polygon fill="none" stroke="#000000" points="380.5,-985.5 380.5,-1015.5 606.5,-1015.5 606.5,-985.5 380.5,-985.5"/>
<text text-anchor="start" x="387.5" y="-996.9" font-family="Arial" font-size="14.00" fill="#000000">notifications    </text>
<text text-anchor="start" x="495.6094" y="-996.9" font-family="Arial" font-size="14.00" fill="#666666">[int(2)]</text>
<polygon fill="none" stroke="#000000" points="380.5,-955.5 380.5,-985.5 606.5,-985.5 606.5,-955.5 380.5,-955.5"/>
<text text-anchor="start" x="387.5" y="-966.9" font-family="Arial" font-size="14.00" fill="#000000">pwReset    </text>
<text text-anchor="start" x="476.1564" y="-966.9" font-family="Arial" font-size="14.00" fill="#666666">[varchar(100)]</text>
<polygon fill="none" stroke="#000000" points="380.5,-925.5 380.5,-955.5 606.5,-955.5 606.5,-925.5 380.5,-925.5"/>
<text text-anchor="start" x="387.3261" y="-936.9" font-family="Arial" font-size="14.00" fill="#000000">pwResetExpiration    </text>
<text text-anchor="start" x="538.2139" y="-936.9" font-family="Arial" font-size="14.00" fill="#666666">[datetime]</text>
<polygon fill="none" stroke="#000000" points="380.5,-895.5 380.5,-925.5 606.5,-925.5 606.5,-895.5 380.5,-895.5"/>
<text text-anchor="start" x="387.5" y="-906.9" font-family="Arial" font-size="14.00" fill="#000000">pwResetCount    </text>
<text text-anchor="start" x="513.5014" y="-906.9" font-family="Arial" font-size="14.00" fill="#666666">[int(5)]</text>
<polygon fill="none" stroke="#000000" points="380.5,-865.5 380.5,-895.5 606.5,-895.5 606.5,-865.5 380.5,-865.5"/>
<text text-anchor="start" x="387.5" y="-876.9" font-family="Arial" font-size="14.00" fill="#000000">forcePwReset    </text>
<text text-anchor="start" x="508.8268" y="-876.9" font-family="Arial" font-size="14.00" fill="#666666">[tinyint(4)]</text>
<polygon fill="none" stroke="#000000" points="380.5,-835.5 380.5,-865.5 606.5,-865.5 606.5,-835.5 380.5,-835.5"/>
<text text-anchor="start" x="387.5" y="-846.9" font-family="Arial" font-size="14.00" fill="#000000">lastpwd_change    </text>
<text text-anchor="start" x="522.852" y="-846.9" font-family="Arial" font-size="14.00" fill="#666666">[datetime]</text>
<polygon fill="none" stroke="#000000" points="380.5,-805.5 380.5,-835.5 606.5,-835.5 606.5,-805.5 380.5,-805.5"/>
<text text-anchor="start" x="387.5" y="-816.9" font-family="Arial" font-size="14.00" fill="#000000">settings    </text>
<text text-anchor="start" x="469.9404" y="-816.9" font-family="Arial" font-size="14.00" fill="#666666">[text]</text>
<polygon fill="none" stroke="#000000" points="380.5,-775.5 380.5,-805.5 606.5,-805.5 606.5,-775.5 380.5,-775.5"/>
<text text-anchor="start" x="387.5" y="-786.9" font-family="Arial" font-size="14.00" fill="#000000">twoFAEnabled    </text>
<text text-anchor="start" x="512.73" y="-786.9" font-family="Arial" font-size="14.00" fill="#666666">[tinyint(1)]</text>
<polygon fill="none" stroke="#000000" points="380.5,-745.5 380.5,-775.5 606.5,-775.5 606.5,-745.5 380.5,-745.5"/>
<text text-anchor="start" x="387.5" y="-756.9" font-family="Arial" font-size="14.00" fill="#000000">twoFASecret    </text>
<text text-anchor="start" x="501.8268" y="-756.9" font-family="Arial" font-size="14.00" fill="#666666">[varchar(200)]</text>
<polygon fill="none" stroke="#000000" points="380.5,-715.5 380.5,-745.5 606.5,-745.5 606.5,-715.5 380.5,-715.5"/>
<text text-anchor="start" x="387.5" y="-726.9" font-family="Arial" font-size="14.00" fill="#000000">createdOn    </text>
<text text-anchor="start" x="487.0596" y="-726.9" font-family="Arial" font-size="14.00" fill="#666666">[datetime]</text>
<polygon fill="none" stroke="#000000" points="380.5,-685.5 380.5,-715.5 606.5,-715.5 606.5,-685.5 380.5,-685.5"/>
<text text-anchor="start" x="387.5" y="-696.9" font-family="Arial" font-size="14.00" fill="#000000">source    </text>
<text text-anchor="start" x="463.7132" y="-696.9" font-family="Arial" font-size="14.00" fill="#666666">[varchar(200)]</text>
<polygon fill="none" stroke="#000000" points="380.5,-655.5 380.5,-685.5 606.5,-685.5 606.5,-655.5 380.5,-655.5"/>
<text text-anchor="start" x="387.5" y="-666.9" font-family="Arial" font-size="14.00" fill="#000000">jobTitle    </text>
<text text-anchor="start" x="466.8156" y="-666.9" font-family="Arial" font-size="14.00" fill="#666666">[varchar(200)]</text>
<polygon fill="none" stroke="#000000" points="380.5,-625.5 380.5,-655.5 606.5,-655.5 606.5,-625.5 380.5,-625.5"/>
<text text-anchor="start" x="387.5" y="-636.9" font-family="Arial" font-size="14.00" fill="#000000">jobLevel    </text>
<text text-anchor="start" x="473.831" y="-636.9" font-family="Arial" font-size="14.00" fill="#666666">[varchar(50)]</text>
<polygon fill="none" stroke="#000000" points="380.5,-595.5 380.5,-625.5 606.5,-625.5 606.5,-595.5 380.5,-595.5"/>
<text text-anchor="start" x="387.5" y="-606.9" font-family="Arial" font-size="14.00" fill="#000000">department    </text>
<text text-anchor="start" x="492.5028" y="-606.9" font-family="Arial" font-size="14.00" fill="#666666">[varchar(200)]</text>
<polygon fill="none" stroke="#000000" points="380.5,-565.5 380.5,-595.5 606.5,-595.5 606.5,-565.5 380.5,-565.5"/>
<text text-anchor="start" x="387.5" y="-576.9" font-family="Arial" font-size="14.00" fill="#000000">modified    </text>
<text text-anchor="start" x="474.5996" y="-576.9" font-family="Arial" font-size="14.00" fill="#666666">[datetime]</text>
</g>
<!-- zp_user&#45;&gt;zp_clients -->
<g id="edge2" class="edge">
<title>zp_user:clientId&#45;&gt;zp_clients:id</title>
<path fill="none" stroke="#000000" stroke-dasharray="5,2" d="M371.4534,-1025.957C327.5446,-978.2299 355.0624,-569.5932 380.5,-523 394.6783,-497.0301 422.3217,-512.9699 436.5,-487 457.0518,-449.3559 479.3889,-390.5 436.5,-390.5"/>
<polygon fill="#000000" stroke="#000000" points="371.5635,-1026.0122 378.4805,-1034.5214 376.0318,-1028.2561 380.5,-1030.5 380.5,-1030.5 380.5,-1030.5 376.0318,-1028.2561 382.5195,-1026.4786 371.5635,-1026.0122 371.5635,-1026.0122"/>
<text text-anchor="start" x="290.8245" y="-1040.5" font-family="Arial" font-size="10.00" fill="#000000">Additional Relation</text>
</g>
</g>
</svg>
