<?xml version="1.0" encoding="UTF-8" standalone="no"?>
<!DOCTYPE svg PUBLIC "-//W3C//DTD SVG 1.1//EN"
 "http://www.w3.org/Graphics/SVG/1.1/DTD/svg11.dtd">
<!-- Generated by graphviz version 2.40.1 (20161225.0304)
 -->
<!-- Title: zp_canvas Pages: 1 -->
<svg width="428pt" height="2309pt"
 viewBox="0.00 0.00 428.00 2309.00" xmlns="http://www.w3.org/2000/svg" xmlns:xlink="http://www.w3.org/1999/xlink">
<g id="graph0" class="graph" transform="scale(1 1) rotate(0) translate(4 2305)">
<title>zp_canvas</title>
<polygon fill="#ffffff" stroke="transparent" points="-4,4 -4,-2305 424,-2305 424,4 -4,4"/>
<!-- zp_canvas -->
<g id="node1" class="node">
<title>zp_canvas</title>
<polygon fill="#efefef" stroke="transparent" points="123,-982.5 123,-1017.5 350,-1017.5 350,-982.5 123,-982.5"/>
<polygon fill="none" stroke="#000000" points="123,-982.5 123,-1017.5 350,-1017.5 350,-982.5 123,-982.5"/>
<text text-anchor="start" x="129.7005" y="-995.3" font-family="Arial Bold" font-size="18.00" fill="#000000">zp_canvas</text>
<text text-anchor="start" x="215.7315" y="-995.3" font-family="Arial" font-size="14.00" fill="#000000">    </text>
<text text-anchor="start" x="249.9363" y="-995.3" font-family="Arial" font-size="14.00" fill="#666666">[BASE TABLE]</text>
<polygon fill="none" stroke="#000000" points="123,-952.5 123,-982.5 350,-982.5 350,-952.5 123,-952.5"/>
<text text-anchor="start" x="130" y="-963.9" font-family="Arial" font-size="14.00" fill="#000000">id </text>
<text text-anchor="start" x="144.7798" y="-963.9" font-family="Arial" font-size="14.00" fill="#666666">[int(11)]</text>
<polygon fill="none" stroke="#000000" points="123,-922.5 123,-952.5 350,-952.5 350,-922.5 123,-922.5"/>
<text text-anchor="start" x="130" y="-933.9" font-family="Arial" font-size="14.00" fill="#000000">title </text>
<text text-anchor="start" x="155.6676" y="-933.9" font-family="Arial" font-size="14.00" fill="#666666">[varchar(255)]</text>
<polygon fill="none" stroke="#000000" points="123,-892.5 123,-922.5 350,-922.5 350,-892.5 123,-892.5"/>
<text text-anchor="start" x="130" y="-903.9" font-family="Arial" font-size="14.00" fill="#000000">author </text>
<text text-anchor="start" x="173.5722" y="-903.9" font-family="Arial" font-size="14.00" fill="#666666">[int(10)]</text>
<polygon fill="none" stroke="#000000" points="123,-862.5 123,-892.5 350,-892.5 350,-862.5 123,-862.5"/>
<text text-anchor="start" x="130" y="-873.9" font-family="Arial" font-size="14.00" fill="#000000">created </text>
<text text-anchor="start" x="180.5722" y="-873.9" font-family="Arial" font-size="14.00" fill="#666666">[datetime]</text>
<polygon fill="none" stroke="#000000" points="123,-832.5 123,-862.5 350,-862.5 350,-832.5 123,-832.5"/>
<text text-anchor="start" x="130" y="-843.9" font-family="Arial" font-size="14.00" fill="#000000">projectId </text>
<text text-anchor="start" x="187.5694" y="-843.9" font-family="Arial" font-size="14.00" fill="#666666">[int(11)]</text>
<polygon fill="none" stroke="#000000" points="123,-802.5 123,-832.5 350,-832.5 350,-802.5 123,-802.5"/>
<text text-anchor="start" x="130" y="-813.9" font-family="Arial" font-size="14.00" fill="#000000">type </text>
<text text-anchor="start" x="160.3464" y="-813.9" font-family="Arial" font-size="14.00" fill="#666666">[varchar(45)]</text>
<polygon fill="none" stroke="#000000" points="123,-772.5 123,-802.5 350,-802.5 350,-772.5 123,-772.5"/>
<text text-anchor="start" x="130" y="-783.9" font-family="Arial" font-size="14.00" fill="#000000">description </text>
<text text-anchor="start" x="201.568" y="-783.9" font-family="Arial" font-size="14.00" fill="#666666">[text]</text>
<polygon fill="none" stroke="#000000" stroke-width="3" points="121,-771.5 121,-1019.5 351,-1019.5 351,-771.5 121,-771.5"/>
</g>
<!-- zp_projects -->
<g id="node3" class="node">
<title>zp_projects</title>
<polygon fill="#efefef" stroke="transparent" points="120,-612.5 120,-647.5 353,-647.5 353,-612.5 120,-612.5"/>
<polygon fill="none" stroke="#000000" points="120,-612.5 120,-647.5 353,-647.5 353,-612.5 120,-612.5"/>
<text text-anchor="start" x="126.7062" y="-625.3" font-family="Arial Bold" font-size="18.00" fill="#000000">zp_projects</text>
<text text-anchor="start" x="218.7258" y="-625.3" font-family="Arial" font-size="14.00" fill="#000000">    </text>
<text text-anchor="start" x="252.9306" y="-625.3" font-family="Arial" font-size="14.00" fill="#666666">[BASE TABLE]</text>
<polygon fill="none" stroke="#000000" points="120,-582.5 120,-612.5 353,-612.5 353,-582.5 120,-582.5"/>
<text text-anchor="start" x="127" y="-593.9" font-family="Arial" font-size="14.00" fill="#000000">id    </text>
<text text-anchor="start" x="172.094" y="-593.9" font-family="Arial" font-size="14.00" fill="#666666">[int(11)]</text>
<polygon fill="none" stroke="#000000" points="120,-552.5 120,-582.5 353,-582.5 353,-552.5 120,-552.5"/>
<text text-anchor="start" x="127" y="-563.9" font-family="Arial" font-size="14.00" fill="#000000">name    </text>
<text text-anchor="start" x="196.2132" y="-563.9" font-family="Arial" font-size="14.00" fill="#666666">[varchar(100)]</text>
<polygon fill="none" stroke="#000000" points="120,-522.5 120,-552.5 353,-552.5 353,-522.5 120,-522.5"/>
<text text-anchor="start" x="127" y="-533.9" font-family="Arial" font-size="14.00" fill="#000000">clientId    </text>
<text text-anchor="start" x="205.547" y="-533.9" font-family="Arial" font-size="14.00" fill="#666666">[int(100)]</text>
<polygon fill="none" stroke="#000000" points="120,-492.5 120,-522.5 353,-522.5 353,-492.5 120,-492.5"/>
<text text-anchor="start" x="127" y="-503.9" font-family="Arial" font-size="14.00" fill="#000000">details    </text>
<text text-anchor="start" x="201.6564" y="-503.9" font-family="Arial" font-size="14.00" fill="#666666">[text]</text>
<polygon fill="none" stroke="#000000" points="120,-462.5 120,-492.5 353,-492.5 353,-462.5 120,-462.5"/>
<text text-anchor="start" x="127" y="-473.9" font-family="Arial" font-size="14.00" fill="#000000">state    </text>
<text text-anchor="start" x="191.5512" y="-473.9" font-family="Arial" font-size="14.00" fill="#666666">[int(2)]</text>
<polygon fill="none" stroke="#000000" points="120,-432.5 120,-462.5 353,-462.5 353,-432.5 120,-432.5"/>
<text text-anchor="start" x="127" y="-443.9" font-family="Arial" font-size="14.00" fill="#000000">hourBudget    </text>
<text text-anchor="start" x="233.5708" y="-443.9" font-family="Arial" font-size="14.00" fill="#666666">[varchar(255)]</text>
<polygon fill="none" stroke="#000000" points="120,-402.5 120,-432.5 353,-432.5 353,-402.5 120,-402.5"/>
<text text-anchor="start" x="127" y="-413.9" font-family="Arial" font-size="14.00" fill="#000000">dollarBudget    </text>
<text text-anchor="start" x="239.784" y="-413.9" font-family="Arial" font-size="14.00" fill="#666666">[int(11)]</text>
<polygon fill="none" stroke="#000000" points="120,-372.5 120,-402.5 353,-402.5 353,-372.5 120,-372.5"/>
<text text-anchor="start" x="127" y="-383.9" font-family="Arial" font-size="14.00" fill="#000000">active    </text>
<text text-anchor="start" x="197.7672" y="-383.9" font-family="Arial" font-size="14.00" fill="#666666">[int(11)]</text>
<polygon fill="none" stroke="#000000" points="120,-342.5 120,-372.5 353,-372.5 353,-342.5 120,-342.5"/>
<text text-anchor="start" x="127" y="-353.9" font-family="Arial" font-size="14.00" fill="#000000">menuType    </text>
<text text-anchor="start" x="227.331" y="-353.9" font-family="Arial" font-size="14.00" fill="#666666">[mediumtext]</text>
<polygon fill="none" stroke="#000000" points="120,-312.5 120,-342.5 353,-342.5 353,-312.5 120,-312.5"/>
<text text-anchor="start" x="127" y="-323.9" font-family="Arial" font-size="14.00" fill="#000000">psettings    </text>
<text text-anchor="start" x="217.223" y="-323.9" font-family="Arial" font-size="14.00" fill="#666666">[mediumtext]</text>
<polygon fill="none" stroke="#000000" points="120,-282.5 120,-312.5 353,-312.5 353,-282.5 120,-282.5"/>
<text text-anchor="start" x="127" y="-293.9" font-family="Arial" font-size="14.00" fill="#000000">parent    </text>
<text text-anchor="start" x="200.8864" y="-293.9" font-family="Arial" font-size="14.00" fill="#666666">[int(11)]</text>
<polygon fill="none" stroke="#000000" points="120,-252.5 120,-282.5 353,-282.5 353,-252.5 120,-252.5"/>
<text text-anchor="start" x="127" y="-263.9" font-family="Arial" font-size="14.00" fill="#000000">type    </text>
<text text-anchor="start" x="187.6606" y="-263.9" font-family="Arial" font-size="14.00" fill="#666666">[varchar(45)]</text>
<polygon fill="none" stroke="#000000" points="120,-222.5 120,-252.5 353,-252.5 353,-222.5 120,-222.5"/>
<text text-anchor="start" x="127" y="-233.9" font-family="Arial" font-size="14.00" fill="#000000">start    </text>
<text text-anchor="start" x="188.4292" y="-233.9" font-family="Arial" font-size="14.00" fill="#666666">[datetime]</text>
<polygon fill="none" stroke="#000000" points="120,-192.5 120,-222.5 353,-222.5 353,-192.5 120,-192.5"/>
<text text-anchor="start" x="127" y="-203.9" font-family="Arial" font-size="14.00" fill="#000000">end    </text>
<text text-anchor="start" x="184.5526" y="-203.9" font-family="Arial" font-size="14.00" fill="#666666">[datetime]</text>
<polygon fill="none" stroke="#000000" points="120,-162.5 120,-192.5 353,-192.5 353,-162.5 120,-162.5"/>
<text text-anchor="start" x="127" y="-173.9" font-family="Arial" font-size="14.00" fill="#000000">created    </text>
<text text-anchor="start" x="207.8864" y="-173.9" font-family="Arial" font-size="14.00" fill="#666666">[datetime]</text>
<polygon fill="none" stroke="#000000" points="120,-132.5 120,-162.5 353,-162.5 353,-132.5 120,-132.5"/>
<text text-anchor="start" x="127" y="-143.9" font-family="Arial" font-size="14.00" fill="#000000">modified    </text>
<text text-anchor="start" x="214.0996" y="-143.9" font-family="Arial" font-size="14.00" fill="#666666">[datetime]</text>
<polygon fill="none" stroke="#000000" points="120,-102.5 120,-132.5 353,-132.5 353,-102.5 120,-102.5"/>
<text text-anchor="start" x="127" y="-113.9" font-family="Arial" font-size="14.00" fill="#000000">avatar    </text>
<text text-anchor="start" x="200.1038" y="-113.9" font-family="Arial" font-size="14.00" fill="#666666">[mediumtext]</text>
<polygon fill="none" stroke="#000000" points="120,-72.5 120,-102.5 353,-102.5 353,-72.5 120,-72.5"/>
<text text-anchor="start" x="127" y="-83.9" font-family="Arial" font-size="14.00" fill="#000000">cover    </text>
<text text-anchor="start" x="195.4306" y="-83.9" font-family="Arial" font-size="14.00" fill="#666666">[mediumtext]</text>
<polygon fill="none" stroke="#000000" points="120,-42.5 120,-72.5 353,-72.5 353,-42.5 120,-42.5"/>
<text text-anchor="start" x="127" y="-53.9" font-family="Arial" font-size="14.00" fill="#000000">sortIndex    </text>
<text text-anchor="start" x="218.777" y="-53.9" font-family="Arial" font-size="14.00" fill="#666666">[int(11)]</text>
</g>
<!-- zp_canvas&#45;&gt;zp_projects -->
<g id="edge2" class="edge">
<title>zp_canvas:projectId&#45;&gt;zp_projects:id</title>
<path fill="none" stroke="#000000" stroke-dasharray="5,2" d="M112.8995,-846.7828C11.8048,-832.1191 12.3534,-597.5 120,-597.5"/>
<polygon fill="#000000" stroke="#000000" points="113.0251,-846.7917 122.6812,-851.9887 118.0126,-847.1458 123,-847.5 123,-847.5 123,-847.5 118.0126,-847.1458 123.3188,-843.0113 113.0251,-846.7917 113.0251,-846.7917"/>
<text text-anchor="start" x="33.3245" y="-857.5" font-family="Arial" font-size="10.00" fill="#000000">Additional Relation</text>
</g>
<!-- zp_canvas_items -->
<g id="node2" class="node">
<title>zp_canvas_items</title>
<polygon fill="#efefef" stroke="transparent" points="97,-2222.5 97,-2257.5 377,-2257.5 377,-2222.5 97,-2222.5"/>
<polygon fill="none" stroke="#000000" points="97,-2222.5 97,-2257.5 377,-2257.5 377,-2222.5 97,-2222.5"/>
<text text-anchor="start" x="103.7" y="-2235.3" font-family="Arial Bold" font-size="18.00" fill="#000000">zp_canvas_items</text>
<text text-anchor="start" x="242.732" y="-2235.3" font-family="Arial" font-size="14.00" fill="#000000">    </text>
<text text-anchor="start" x="276.9368" y="-2235.3" font-family="Arial" font-size="14.00" fill="#666666">[BASE TABLE]</text>
<polygon fill="none" stroke="#000000" points="97,-2192.5 97,-2222.5 377,-2222.5 377,-2192.5 97,-2192.5"/>
<text text-anchor="start" x="104" y="-2203.9" font-family="Arial" font-size="14.00" fill="#000000">id    </text>
<text text-anchor="start" x="149.094" y="-2203.9" font-family="Arial" font-size="14.00" fill="#666666">[int(11)]</text>
<polygon fill="none" stroke="#000000" points="97,-2162.5 97,-2192.5 377,-2192.5 377,-2162.5 97,-2162.5"/>
<text text-anchor="start" x="104" y="-2173.9" font-family="Arial" font-size="14.00" fill="#000000">description    </text>
<text text-anchor="start" x="205.8822" y="-2173.9" font-family="Arial" font-size="14.00" fill="#666666">[mediumtext]</text>
<polygon fill="none" stroke="#000000" points="97,-2132.5 97,-2162.5 377,-2162.5 377,-2132.5 97,-2132.5"/>
<text text-anchor="start" x="104" y="-2143.9" font-family="Arial" font-size="14.00" fill="#000000">assumptions    </text>
<text text-anchor="start" x="216.7756" y="-2143.9" font-family="Arial" font-size="14.00" fill="#666666">[text]</text>
<polygon fill="none" stroke="#000000" points="97,-2102.5 97,-2132.5 377,-2132.5 377,-2102.5 97,-2102.5"/>
<text text-anchor="start" x="104" y="-2113.9" font-family="Arial" font-size="14.00" fill="#000000">data    </text>
<text text-anchor="start" x="165.4432" y="-2113.9" font-family="Arial" font-size="14.00" fill="#666666">[mediumtext]</text>
<polygon fill="none" stroke="#000000" points="97,-2072.5 97,-2102.5 377,-2102.5 377,-2072.5 97,-2072.5"/>
<text text-anchor="start" x="104" y="-2083.9" font-family="Arial" font-size="14.00" fill="#000000">conclusion    </text>
<text text-anchor="start" x="204.331" y="-2083.9" font-family="Arial" font-size="14.00" fill="#666666">[text]</text>
<polygon fill="none" stroke="#000000" points="97,-2042.5 97,-2072.5 377,-2072.5 377,-2042.5 97,-2042.5"/>
<text text-anchor="start" x="104" y="-2053.9" font-family="Arial" font-size="14.00" fill="#000000">box    </text>
<text text-anchor="start" x="160.77" y="-2053.9" font-family="Arial" font-size="14.00" fill="#666666">[varchar(255)]</text>
<polygon fill="none" stroke="#000000" points="97,-2012.5 97,-2042.5 377,-2042.5 377,-2012.5 97,-2012.5"/>
<text text-anchor="start" x="104" y="-2023.9" font-family="Arial" font-size="14.00" fill="#000000">author    </text>
<text text-anchor="start" x="177.8864" y="-2023.9" font-family="Arial" font-size="14.00" fill="#666666">[int(11)]</text>
<polygon fill="none" stroke="#000000" points="97,-1982.5 97,-2012.5 377,-2012.5 377,-1982.5 97,-1982.5"/>
<text text-anchor="start" x="104" y="-1993.9" font-family="Arial" font-size="14.00" fill="#000000">created    </text>
<text text-anchor="start" x="184.8864" y="-1993.9" font-family="Arial" font-size="14.00" fill="#666666">[datetime]</text>
<polygon fill="none" stroke="#000000" points="97,-1952.5 97,-1982.5 377,-1982.5 377,-1952.5 97,-1952.5"/>
<text text-anchor="start" x="104" y="-1963.9" font-family="Arial" font-size="14.00" fill="#000000">modified    </text>
<text text-anchor="start" x="191.0996" y="-1963.9" font-family="Arial" font-size="14.00" fill="#666666">[datetime]</text>
<polygon fill="none" stroke="#000000" points="97,-1922.5 97,-1952.5 377,-1952.5 377,-1922.5 97,-1922.5"/>
<text text-anchor="start" x="104" y="-1933.9" font-family="Arial" font-size="14.00" fill="#000000">canvasId    </text>
<text text-anchor="start" x="194.2258" y="-1933.9" font-family="Arial" font-size="14.00" fill="#666666">[int(11)]</text>
<polygon fill="none" stroke="#000000" points="97,-1892.5 97,-1922.5 377,-1922.5 377,-1892.5 97,-1892.5"/>
<text text-anchor="start" x="104" y="-1903.9" font-family="Arial" font-size="14.00" fill="#000000">sortindex    </text>
<text text-anchor="start" x="194.993" y="-1903.9" font-family="Arial" font-size="14.00" fill="#666666">[int(11)]</text>
<polygon fill="none" stroke="#000000" points="97,-1862.5 97,-1892.5 377,-1892.5 377,-1862.5 97,-1862.5"/>
<text text-anchor="start" x="104" y="-1873.9" font-family="Arial" font-size="14.00" fill="#000000">status    </text>
<text text-anchor="start" x="175.5512" y="-1873.9" font-family="Arial" font-size="14.00" fill="#666666">[varchar(255)]</text>
<polygon fill="none" stroke="#000000" points="97,-1832.5 97,-1862.5 377,-1862.5 377,-1832.5 97,-1832.5"/>
<text text-anchor="start" x="104" y="-1843.9" font-family="Arial" font-size="14.00" fill="#000000">relates    </text>
<text text-anchor="start" x="180.2104" y="-1843.9" font-family="Arial" font-size="14.00" fill="#666666">[varchar(255)]</text>
<polygon fill="none" stroke="#000000" points="97,-1802.5 97,-1832.5 377,-1832.5 377,-1802.5 97,-1802.5"/>
<text text-anchor="start" x="104" y="-1813.9" font-family="Arial" font-size="14.00" fill="#000000">milestoneId    </text>
<text text-anchor="start" x="209.7728" y="-1813.9" font-family="Arial" font-size="14.00" fill="#666666">[varchar(255)]</text>
<polygon fill="none" stroke="#000000" points="97,-1772.5 97,-1802.5 377,-1802.5 377,-1772.5 97,-1772.5"/>
<text text-anchor="start" x="104" y="-1783.9" font-family="Arial" font-size="14.00" fill="#000000">title    </text>
<text text-anchor="start" x="159.9818" y="-1783.9" font-family="Arial" font-size="14.00" fill="#666666">[varchar(255)]</text>
<polygon fill="none" stroke="#000000" points="97,-1742.5 97,-1772.5 377,-1772.5 377,-1742.5 97,-1742.5"/>
<text text-anchor="start" x="104" y="-1753.9" font-family="Arial" font-size="14.00" fill="#000000">parent    </text>
<text text-anchor="start" x="177.8864" y="-1753.9" font-family="Arial" font-size="14.00" fill="#666666">[int(11)]</text>
<polygon fill="none" stroke="#000000" points="97,-1712.5 97,-1742.5 377,-1742.5 377,-1712.5 97,-1712.5"/>
<text text-anchor="start" x="104" y="-1723.9" font-family="Arial" font-size="14.00" fill="#000000">featured    </text>
<text text-anchor="start" x="189.5596" y="-1723.9" font-family="Arial" font-size="14.00" fill="#666666">[int(11)]</text>
<polygon fill="none" stroke="#000000" points="97,-1682.5 97,-1712.5 377,-1712.5 377,-1682.5 97,-1682.5"/>
<text text-anchor="start" x="104" y="-1693.9" font-family="Arial" font-size="14.00" fill="#000000">tags    </text>
<text text-anchor="start" x="164.6606" y="-1693.9" font-family="Arial" font-size="14.00" fill="#666666">[text]</text>
<polygon fill="none" stroke="#000000" points="97,-1652.5 97,-1682.5 377,-1682.5 377,-1652.5 97,-1652.5"/>
<text text-anchor="start" x="104" y="-1663.9" font-family="Arial" font-size="14.00" fill="#000000">kpi    </text>
<text text-anchor="start" x="156.094" y="-1663.9" font-family="Arial" font-size="14.00" fill="#666666">[int(11)]</text>
<polygon fill="none" stroke="#000000" points="97,-1622.5 97,-1652.5 377,-1652.5 377,-1622.5 97,-1622.5"/>
<text text-anchor="start" x="104" y="-1633.9" font-family="Arial" font-size="14.00" fill="#000000">data1    </text>
<text text-anchor="start" x="173.2258" y="-1633.9" font-family="Arial" font-size="14.00" fill="#666666">[mediumtext]</text>
<polygon fill="none" stroke="#000000" points="97,-1592.5 97,-1622.5 377,-1622.5 377,-1592.5 97,-1592.5"/>
<text text-anchor="start" x="104" y="-1603.9" font-family="Arial" font-size="14.00" fill="#000000">data2    </text>
<text text-anchor="start" x="173.2258" y="-1603.9" font-family="Arial" font-size="14.00" fill="#666666">[mediumtext]</text>
<polygon fill="none" stroke="#000000" points="97,-1562.5 97,-1592.5 377,-1592.5 377,-1562.5 97,-1562.5"/>
<text text-anchor="start" x="104" y="-1573.9" font-family="Arial" font-size="14.00" fill="#000000">data3    </text>
<text text-anchor="start" x="173.2258" y="-1573.9" font-family="Arial" font-size="14.00" fill="#666666">[mediumtext]</text>
<polygon fill="none" stroke="#000000" points="97,-1532.5 97,-1562.5 377,-1562.5 377,-1532.5 97,-1532.5"/>
<text text-anchor="start" x="104" y="-1543.9" font-family="Arial" font-size="14.00" fill="#000000">data4    </text>
<text text-anchor="start" x="173.2258" y="-1543.9" font-family="Arial" font-size="14.00" fill="#666666">[mediumtext]</text>
<polygon fill="none" stroke="#000000" points="97,-1502.5 97,-1532.5 377,-1532.5 377,-1502.5 97,-1502.5"/>
<text text-anchor="start" x="104" y="-1513.9" font-family="Arial" font-size="14.00" fill="#000000">data5    </text>
<text text-anchor="start" x="173.2258" y="-1513.9" font-family="Arial" font-size="14.00" fill="#666666">[mediumtext]</text>
<polygon fill="none" stroke="#000000" points="97,-1472.5 97,-1502.5 377,-1502.5 377,-1472.5 97,-1472.5"/>
<text text-anchor="start" x="104" y="-1483.9" font-family="Arial" font-size="14.00" fill="#000000">startDate    </text>
<text text-anchor="start" x="194.9916" y="-1483.9" font-family="Arial" font-size="14.00" fill="#666666">[datetime]</text>
<polygon fill="none" stroke="#000000" points="97,-1442.5 97,-1472.5 377,-1472.5 377,-1442.5 97,-1442.5"/>
<text text-anchor="start" x="104" y="-1453.9" font-family="Arial" font-size="14.00" fill="#000000">endDate    </text>
<text text-anchor="start" x="191.115" y="-1453.9" font-family="Arial" font-size="14.00" fill="#666666">[datetime]</text>
<polygon fill="none" stroke="#000000" points="97,-1412.5 97,-1442.5 377,-1442.5 377,-1412.5 97,-1412.5"/>
<text text-anchor="start" x="104" y="-1423.9" font-family="Arial" font-size="14.00" fill="#000000">setting    </text>
<text text-anchor="start" x="179.4404" y="-1423.9" font-family="Arial" font-size="14.00" fill="#666666">[text]</text>
<polygon fill="none" stroke="#000000" points="97,-1382.5 97,-1412.5 377,-1412.5 377,-1382.5 97,-1382.5"/>
<text text-anchor="start" x="104" y="-1393.9" font-family="Arial" font-size="14.00" fill="#000000">metricType    </text>
<text text-anchor="start" x="207.4236" y="-1393.9" font-family="Arial" font-size="14.00" fill="#666666">[varchar(45)]</text>
<polygon fill="none" stroke="#000000" points="97,-1352.5 97,-1382.5 377,-1382.5 377,-1352.5 97,-1352.5"/>
<text text-anchor="start" x="104" y="-1363.9" font-family="Arial" font-size="14.00" fill="#000000">startValue    </text>
<text text-anchor="start" x="201.2202" y="-1363.9" font-family="Arial" font-size="14.00" fill="#666666">[double(10,2)]</text>
<polygon fill="none" stroke="#000000" points="97,-1322.5 97,-1352.5 377,-1352.5 377,-1322.5 97,-1322.5"/>
<text text-anchor="start" x="104" y="-1333.9" font-family="Arial" font-size="14.00" fill="#000000">currentValue    </text>
<text text-anchor="start" x="217.5554" y="-1333.9" font-family="Arial" font-size="14.00" fill="#666666">[double(10,2)]</text>
<polygon fill="none" stroke="#000000" points="97,-1292.5 97,-1322.5 377,-1322.5 377,-1292.5 97,-1292.5"/>
<text text-anchor="start" x="104" y="-1303.9" font-family="Arial" font-size="14.00" fill="#000000">endValue    </text>
<text text-anchor="start" x="197.3436" y="-1303.9" font-family="Arial" font-size="14.00" fill="#666666">[double(10,2)]</text>
<polygon fill="none" stroke="#000000" points="97,-1262.5 97,-1292.5 377,-1292.5 377,-1262.5 97,-1262.5"/>
<text text-anchor="start" x="104" y="-1273.9" font-family="Arial" font-size="14.00" fill="#000000">impact    </text>
<text text-anchor="start" x="179.4278" y="-1273.9" font-family="Arial" font-size="14.00" fill="#666666">[int(11)]</text>
<polygon fill="none" stroke="#000000" points="97,-1232.5 97,-1262.5 377,-1262.5 377,-1232.5 97,-1232.5"/>
<text text-anchor="start" x="104" y="-1243.9" font-family="Arial" font-size="14.00" fill="#000000">effort    </text>
<text text-anchor="start" x="170.1024" y="-1243.9" font-family="Arial" font-size="14.00" fill="#666666">[int(11)]</text>
<polygon fill="none" stroke="#000000" points="97,-1202.5 97,-1232.5 377,-1232.5 377,-1202.5 97,-1202.5"/>
<text text-anchor="start" x="104" y="-1213.9" font-family="Arial" font-size="14.00" fill="#000000">probability    </text>
<text text-anchor="start" x="201.9888" y="-1213.9" font-family="Arial" font-size="14.00" fill="#666666">[int(11)]</text>
<polygon fill="none" stroke="#000000" points="97,-1172.5 97,-1202.5 377,-1202.5 377,-1172.5 97,-1172.5"/>
<text text-anchor="start" x="104" y="-1183.9" font-family="Arial" font-size="14.00" fill="#000000">action    </text>
<text text-anchor="start" x="175.5498" y="-1183.9" font-family="Arial" font-size="14.00" fill="#666666">[text]</text>
<polygon fill="none" stroke="#000000" points="97,-1142.5 97,-1172.5 377,-1172.5 377,-1142.5 97,-1142.5"/>
<text text-anchor="start" x="104" y="-1153.9" font-family="Arial" font-size="14.00" fill="#000000">assignedTo    </text>
<text text-anchor="start" x="210.5596" y="-1153.9" font-family="Arial" font-size="14.00" fill="#666666">[int(11)]</text>
</g>
<!-- zp_canvas_items&#45;&gt;zp_canvas -->
<g id="edge1" class="edge">
<title>zp_canvas_items:canvasId&#45;&gt;zp_canvas:id</title>
<path fill="none" stroke="#000000" stroke-dasharray="5,2" d="M87.1523,-1934.4052C6.3642,-1881.5178 38.2737,-1167.6742 97,-1100 171.4396,-1014.2183 275.5604,-1149.7817 350,-1064 378.1098,-1031.6072 392.8889,-967.5 350,-967.5"/>
<polygon fill="#000000" stroke="#000000" points="87.46,-1934.5018 95.6508,-1941.793 92.23,-1936.0009 97,-1937.5 97,-1937.5 97,-1937.5 92.23,-1936.0009 98.3492,-1933.207 87.46,-1934.5018 87.46,-1934.5018"/>
<text text-anchor="start" x="7.3245" y="-1947.5" font-family="Arial" font-size="10.00" fill="#000000">Additional Relation</text>
</g>
</g>
</svg>
