<?xml version="1.0" encoding="UTF-8" standalone="no"?>
<!DOCTYPE svg PUBLIC "-//W3C//DTD SVG 1.1//EN"
 "http://www.w3.org/Graphics/SVG/1.1/DTD/svg11.dtd">
<!-- Generated by graphviz version 2.40.1 (20161225.0304)
 -->
<!-- Title: zp_canvas_items Pages: 1 -->
<svg width="431pt" height="1582pt"
 viewBox="0.00 0.00 431.00 1582.00" xmlns="http://www.w3.org/2000/svg" xmlns:xlink="http://www.w3.org/1999/xlink">
<g id="graph0" class="graph" transform="scale(1 1) rotate(0) translate(4 1578)">
<title>zp_canvas_items</title>
<polygon fill="#ffffff" stroke="transparent" points="-4,4 -4,-1578 427,-1578 427,4 -4,4"/>
<!-- zp_canvas_items -->
<g id="node1" class="node">
<title>zp_canvas_items</title>
<polygon fill="#efefef" stroke="transparent" points="97,-1492.5 97,-1527.5 377,-1527.5 377,-1492.5 97,-1492.5"/>
<polygon fill="none" stroke="#000000" points="97,-1492.5 97,-1527.5 377,-1527.5 377,-1492.5 97,-1492.5"/>
<text text-anchor="start" x="103.7" y="-1505.3" font-family="Arial Bold" font-size="18.00" fill="#000000">zp_canvas_items</text>
<text text-anchor="start" x="242.732" y="-1505.3" font-family="Arial" font-size="14.00" fill="#000000">    </text>
<text text-anchor="start" x="276.9368" y="-1505.3" font-family="Arial" font-size="14.00" fill="#666666">[BASE TABLE]</text>
<polygon fill="none" stroke="#000000" points="97,-1462.5 97,-1492.5 377,-1492.5 377,-1462.5 97,-1462.5"/>
<text text-anchor="start" x="104" y="-1473.9" font-family="Arial" font-size="14.00" fill="#000000">id </text>
<text text-anchor="start" x="118.7798" y="-1473.9" font-family="Arial" font-size="14.00" fill="#666666">[int(11)]</text>
<polygon fill="none" stroke="#000000" points="97,-1432.5 97,-1462.5 377,-1462.5 377,-1432.5 97,-1432.5"/>
<text text-anchor="start" x="104" y="-1443.9" font-family="Arial" font-size="14.00" fill="#000000">description </text>
<text text-anchor="start" x="175.568" y="-1443.9" font-family="Arial" font-size="14.00" fill="#666666">[mediumtext]</text>
<polygon fill="none" stroke="#000000" points="97,-1402.5 97,-1432.5 377,-1432.5 377,-1402.5 97,-1402.5"/>
<text text-anchor="start" x="104" y="-1413.9" font-family="Arial" font-size="14.00" fill="#000000">assumptions </text>
<text text-anchor="start" x="186.4614" y="-1413.9" font-family="Arial" font-size="14.00" fill="#666666">[text]</text>
<polygon fill="none" stroke="#000000" points="97,-1372.5 97,-1402.5 377,-1402.5 377,-1372.5 97,-1372.5"/>
<text text-anchor="start" x="104" y="-1383.9" font-family="Arial" font-size="14.00" fill="#000000">data </text>
<text text-anchor="start" x="135.129" y="-1383.9" font-family="Arial" font-size="14.00" fill="#666666">[mediumtext]</text>
<polygon fill="none" stroke="#000000" points="97,-1342.5 97,-1372.5 377,-1372.5 377,-1342.5 97,-1342.5"/>
<text text-anchor="start" x="104" y="-1353.9" font-family="Arial" font-size="14.00" fill="#000000">conclusion </text>
<text text-anchor="start" x="174.0168" y="-1353.9" font-family="Arial" font-size="14.00" fill="#666666">[text]</text>
<polygon fill="none" stroke="#000000" points="97,-1312.5 97,-1342.5 377,-1342.5 377,-1312.5 97,-1312.5"/>
<text text-anchor="start" x="104" y="-1323.9" font-family="Arial" font-size="14.00" fill="#000000">box </text>
<text text-anchor="start" x="130.4558" y="-1323.9" font-family="Arial" font-size="14.00" fill="#666666">[varchar(255)]</text>
<polygon fill="none" stroke="#000000" points="97,-1282.5 97,-1312.5 377,-1312.5 377,-1282.5 97,-1282.5"/>
<text text-anchor="start" x="104" y="-1293.9" font-family="Arial" font-size="14.00" fill="#000000">author </text>
<text text-anchor="start" x="147.5722" y="-1293.9" font-family="Arial" font-size="14.00" fill="#666666">[int(11)]</text>
<polygon fill="none" stroke="#000000" points="97,-1252.5 97,-1282.5 377,-1282.5 377,-1252.5 97,-1252.5"/>
<text text-anchor="start" x="104" y="-1263.9" font-family="Arial" font-size="14.00" fill="#000000">created </text>
<text text-anchor="start" x="154.5722" y="-1263.9" font-family="Arial" font-size="14.00" fill="#666666">[datetime]</text>
<polygon fill="none" stroke="#000000" points="97,-1222.5 97,-1252.5 377,-1252.5 377,-1222.5 97,-1222.5"/>
<text text-anchor="start" x="104" y="-1233.9" font-family="Arial" font-size="14.00" fill="#000000">modified </text>
<text text-anchor="start" x="160.7854" y="-1233.9" font-family="Arial" font-size="14.00" fill="#666666">[datetime]</text>
<polygon fill="none" stroke="#000000" points="97,-1192.5 97,-1222.5 377,-1222.5 377,-1192.5 97,-1192.5"/>
<text text-anchor="start" x="104" y="-1203.9" font-family="Arial" font-size="14.00" fill="#000000">canvasId </text>
<text text-anchor="start" x="163.9116" y="-1203.9" font-family="Arial" font-size="14.00" fill="#666666">[int(11)]</text>
<polygon fill="none" stroke="#000000" points="97,-1162.5 97,-1192.5 377,-1192.5 377,-1162.5 97,-1162.5"/>
<text text-anchor="start" x="104" y="-1173.9" font-family="Arial" font-size="14.00" fill="#000000">sortindex </text>
<text text-anchor="start" x="164.6788" y="-1173.9" font-family="Arial" font-size="14.00" fill="#666666">[int(11)]</text>
<polygon fill="none" stroke="#000000" points="97,-1132.5 97,-1162.5 377,-1162.5 377,-1132.5 97,-1132.5"/>
<text text-anchor="start" x="104" y="-1143.9" font-family="Arial" font-size="14.00" fill="#000000">status </text>
<text text-anchor="start" x="145.237" y="-1143.9" font-family="Arial" font-size="14.00" fill="#666666">[varchar(255)]</text>
<polygon fill="none" stroke="#000000" points="97,-1102.5 97,-1132.5 377,-1132.5 377,-1102.5 97,-1102.5"/>
<text text-anchor="start" x="104" y="-1113.9" font-family="Arial" font-size="14.00" fill="#000000">relates </text>
<text text-anchor="start" x="149.8962" y="-1113.9" font-family="Arial" font-size="14.00" fill="#666666">[varchar(255)]</text>
<polygon fill="none" stroke="#000000" points="97,-1072.5 97,-1102.5 377,-1102.5 377,-1072.5 97,-1072.5"/>
<text text-anchor="start" x="104" y="-1083.9" font-family="Arial" font-size="14.00" fill="#000000">milestoneId </text>
<text text-anchor="start" x="179.4586" y="-1083.9" font-family="Arial" font-size="14.00" fill="#666666">[varchar(255)]</text>
<polygon fill="none" stroke="#000000" points="97,-1042.5 97,-1072.5 377,-1072.5 377,-1042.5 97,-1042.5"/>
<text text-anchor="start" x="104" y="-1053.9" font-family="Arial" font-size="14.00" fill="#000000">title </text>
<text text-anchor="start" x="129.6676" y="-1053.9" font-family="Arial" font-size="14.00" fill="#666666">[varchar(255)]</text>
<polygon fill="none" stroke="#000000" points="97,-1012.5 97,-1042.5 377,-1042.5 377,-1012.5 97,-1012.5"/>
<text text-anchor="start" x="104" y="-1023.9" font-family="Arial" font-size="14.00" fill="#000000">parent </text>
<text text-anchor="start" x="147.5722" y="-1023.9" font-family="Arial" font-size="14.00" fill="#666666">[int(11)]</text>
<polygon fill="none" stroke="#000000" points="97,-982.5 97,-1012.5 377,-1012.5 377,-982.5 97,-982.5"/>
<text text-anchor="start" x="104" y="-993.9" font-family="Arial" font-size="14.00" fill="#000000">featured </text>
<text text-anchor="start" x="159.2454" y="-993.9" font-family="Arial" font-size="14.00" fill="#666666">[int(11)]</text>
<polygon fill="none" stroke="#000000" points="97,-952.5 97,-982.5 377,-982.5 377,-952.5 97,-952.5"/>
<text text-anchor="start" x="104" y="-963.9" font-family="Arial" font-size="14.00" fill="#000000">tags </text>
<text text-anchor="start" x="134.3464" y="-963.9" font-family="Arial" font-size="14.00" fill="#666666">[text]</text>
<polygon fill="none" stroke="#000000" points="97,-922.5 97,-952.5 377,-952.5 377,-922.5 97,-922.5"/>
<text text-anchor="start" x="104" y="-933.9" font-family="Arial" font-size="14.00" fill="#000000">kpi </text>
<text text-anchor="start" x="125.7798" y="-933.9" font-family="Arial" font-size="14.00" fill="#666666">[int(11)]</text>
<polygon fill="none" stroke="#000000" points="97,-892.5 97,-922.5 377,-922.5 377,-892.5 97,-892.5"/>
<text text-anchor="start" x="104" y="-903.9" font-family="Arial" font-size="14.00" fill="#000000">data1 </text>
<text text-anchor="start" x="142.9116" y="-903.9" font-family="Arial" font-size="14.00" fill="#666666">[mediumtext]</text>
<polygon fill="none" stroke="#000000" points="97,-862.5 97,-892.5 377,-892.5 377,-862.5 97,-862.5"/>
<text text-anchor="start" x="104" y="-873.9" font-family="Arial" font-size="14.00" fill="#000000">data2 </text>
<text text-anchor="start" x="142.9116" y="-873.9" font-family="Arial" font-size="14.00" fill="#666666">[mediumtext]</text>
<polygon fill="none" stroke="#000000" points="97,-832.5 97,-862.5 377,-862.5 377,-832.5 97,-832.5"/>
<text text-anchor="start" x="104" y="-843.9" font-family="Arial" font-size="14.00" fill="#000000">data3 </text>
<text text-anchor="start" x="142.9116" y="-843.9" font-family="Arial" font-size="14.00" fill="#666666">[mediumtext]</text>
<polygon fill="none" stroke="#000000" points="97,-802.5 97,-832.5 377,-832.5 377,-802.5 97,-802.5"/>
<text text-anchor="start" x="104" y="-813.9" font-family="Arial" font-size="14.00" fill="#000000">data4 </text>
<text text-anchor="start" x="142.9116" y="-813.9" font-family="Arial" font-size="14.00" fill="#666666">[mediumtext]</text>
<polygon fill="none" stroke="#000000" points="97,-772.5 97,-802.5 377,-802.5 377,-772.5 97,-772.5"/>
<text text-anchor="start" x="104" y="-783.9" font-family="Arial" font-size="14.00" fill="#000000">data5 </text>
<text text-anchor="start" x="142.9116" y="-783.9" font-family="Arial" font-size="14.00" fill="#666666">[mediumtext]</text>
<polygon fill="none" stroke="#000000" points="97,-742.5 97,-772.5 377,-772.5 377,-742.5 97,-742.5"/>
<text text-anchor="start" x="104" y="-753.9" font-family="Arial" font-size="14.00" fill="#000000">startDate </text>
<text text-anchor="start" x="164.6774" y="-753.9" font-family="Arial" font-size="14.00" fill="#666666">[datetime]</text>
<polygon fill="none" stroke="#000000" points="97,-712.5 97,-742.5 377,-742.5 377,-712.5 97,-712.5"/>
<text text-anchor="start" x="104" y="-723.9" font-family="Arial" font-size="14.00" fill="#000000">endDate </text>
<text text-anchor="start" x="160.8008" y="-723.9" font-family="Arial" font-size="14.00" fill="#666666">[datetime]</text>
<polygon fill="none" stroke="#000000" points="97,-682.5 97,-712.5 377,-712.5 377,-682.5 97,-682.5"/>
<text text-anchor="start" x="104" y="-693.9" font-family="Arial" font-size="14.00" fill="#000000">setting </text>
<text text-anchor="start" x="149.1262" y="-693.9" font-family="Arial" font-size="14.00" fill="#666666">[text]</text>
<polygon fill="none" stroke="#000000" points="97,-652.5 97,-682.5 377,-682.5 377,-652.5 97,-652.5"/>
<text text-anchor="start" x="104" y="-663.9" font-family="Arial" font-size="14.00" fill="#000000">metricType </text>
<text text-anchor="start" x="177.1094" y="-663.9" font-family="Arial" font-size="14.00" fill="#666666">[varchar(45)]</text>
<polygon fill="none" stroke="#000000" points="97,-622.5 97,-652.5 377,-652.5 377,-622.5 97,-622.5"/>
<text text-anchor="start" x="104" y="-633.9" font-family="Arial" font-size="14.00" fill="#000000">startValue </text>
<text text-anchor="start" x="170.906" y="-633.9" font-family="Arial" font-size="14.00" fill="#666666">[double(10,2)]</text>
<polygon fill="none" stroke="#000000" points="97,-592.5 97,-622.5 377,-622.5 377,-592.5 97,-592.5"/>
<text text-anchor="start" x="104" y="-603.9" font-family="Arial" font-size="14.00" fill="#000000">currentValue </text>
<text text-anchor="start" x="187.2412" y="-603.9" font-family="Arial" font-size="14.00" fill="#666666">[double(10,2)]</text>
<polygon fill="none" stroke="#000000" points="97,-562.5 97,-592.5 377,-592.5 377,-562.5 97,-562.5"/>
<text text-anchor="start" x="104" y="-573.9" font-family="Arial" font-size="14.00" fill="#000000">endValue </text>
<text text-anchor="start" x="167.0294" y="-573.9" font-family="Arial" font-size="14.00" fill="#666666">[double(10,2)]</text>
<polygon fill="none" stroke="#000000" points="97,-532.5 97,-562.5 377,-562.5 377,-532.5 97,-532.5"/>
<text text-anchor="start" x="104" y="-543.9" font-family="Arial" font-size="14.00" fill="#000000">impact </text>
<text text-anchor="start" x="149.1136" y="-543.9" font-family="Arial" font-size="14.00" fill="#666666">[int(11)]</text>
<polygon fill="none" stroke="#000000" points="97,-502.5 97,-532.5 377,-532.5 377,-502.5 97,-502.5"/>
<text text-anchor="start" x="104" y="-513.9" font-family="Arial" font-size="14.00" fill="#000000">effort </text>
<text text-anchor="start" x="139.7882" y="-513.9" font-family="Arial" font-size="14.00" fill="#666666">[int(11)]</text>
<polygon fill="none" stroke="#000000" points="97,-472.5 97,-502.5 377,-502.5 377,-472.5 97,-472.5"/>
<text text-anchor="start" x="104" y="-483.9" font-family="Arial" font-size="14.00" fill="#000000">probability </text>
<text text-anchor="start" x="171.6746" y="-483.9" font-family="Arial" font-size="14.00" fill="#666666">[int(11)]</text>
<polygon fill="none" stroke="#000000" points="97,-442.5 97,-472.5 377,-472.5 377,-442.5 97,-442.5"/>
<text text-anchor="start" x="104" y="-453.9" font-family="Arial" font-size="14.00" fill="#000000">action </text>
<text text-anchor="start" x="145.2356" y="-453.9" font-family="Arial" font-size="14.00" fill="#666666">[text]</text>
<polygon fill="none" stroke="#000000" points="97,-412.5 97,-442.5 377,-442.5 377,-412.5 97,-412.5"/>
<text text-anchor="start" x="104" y="-423.9" font-family="Arial" font-size="14.00" fill="#000000">assignedTo </text>
<text text-anchor="start" x="180.2454" y="-423.9" font-family="Arial" font-size="14.00" fill="#666666">[int(11)]</text>
<polygon fill="none" stroke="#000000" stroke-width="3" points="95.5,-411.5 95.5,-1529.5 378.5,-1529.5 378.5,-411.5 95.5,-411.5"/>
</g>
<!-- zp_canvas -->
<g id="node2" class="node">
<title>zp_canvas</title>
<polygon fill="#efefef" stroke="transparent" points="123,-252.5 123,-287.5 350,-287.5 350,-252.5 123,-252.5"/>
<polygon fill="none" stroke="#000000" points="123,-252.5 123,-287.5 350,-287.5 350,-252.5 123,-252.5"/>
<text text-anchor="start" x="129.7005" y="-265.3" font-family="Arial Bold" font-size="18.00" fill="#000000">zp_canvas</text>
<text text-anchor="start" x="215.7315" y="-265.3" font-family="Arial" font-size="14.00" fill="#000000">    </text>
<text text-anchor="start" x="249.9363" y="-265.3" font-family="Arial" font-size="14.00" fill="#666666">[BASE TABLE]</text>
<polygon fill="none" stroke="#000000" points="123,-222.5 123,-252.5 350,-252.5 350,-222.5 123,-222.5"/>
<text text-anchor="start" x="130" y="-233.9" font-family="Arial" font-size="14.00" fill="#000000">id    </text>
<text text-anchor="start" x="175.094" y="-233.9" font-family="Arial" font-size="14.00" fill="#666666">[int(11)]</text>
<polygon fill="none" stroke="#000000" points="123,-192.5 123,-222.5 350,-222.5 350,-192.5 123,-192.5"/>
<text text-anchor="start" x="130" y="-203.9" font-family="Arial" font-size="14.00" fill="#000000">title    </text>
<text text-anchor="start" x="185.9818" y="-203.9" font-family="Arial" font-size="14.00" fill="#666666">[varchar(255)]</text>
<polygon fill="none" stroke="#000000" points="123,-162.5 123,-192.5 350,-192.5 350,-162.5 123,-162.5"/>
<text text-anchor="start" x="130" y="-173.9" font-family="Arial" font-size="14.00" fill="#000000">author    </text>
<text text-anchor="start" x="203.8864" y="-173.9" font-family="Arial" font-size="14.00" fill="#666666">[int(10)]</text>
<polygon fill="none" stroke="#000000" points="123,-132.5 123,-162.5 350,-162.5 350,-132.5 123,-132.5"/>
<text text-anchor="start" x="130" y="-143.9" font-family="Arial" font-size="14.00" fill="#000000">created    </text>
<text text-anchor="start" x="210.8864" y="-143.9" font-family="Arial" font-size="14.00" fill="#666666">[datetime]</text>
<polygon fill="none" stroke="#000000" points="123,-102.5 123,-132.5 350,-132.5 350,-102.5 123,-102.5"/>
<text text-anchor="start" x="130" y="-113.9" font-family="Arial" font-size="14.00" fill="#000000">projectId    </text>
<text text-anchor="start" x="217.8836" y="-113.9" font-family="Arial" font-size="14.00" fill="#666666">[int(11)]</text>
<polygon fill="none" stroke="#000000" points="123,-72.5 123,-102.5 350,-102.5 350,-72.5 123,-72.5"/>
<text text-anchor="start" x="130" y="-83.9" font-family="Arial" font-size="14.00" fill="#000000">type    </text>
<text text-anchor="start" x="190.6606" y="-83.9" font-family="Arial" font-size="14.00" fill="#666666">[varchar(45)]</text>
<polygon fill="none" stroke="#000000" points="123,-42.5 123,-72.5 350,-72.5 350,-42.5 123,-42.5"/>
<text text-anchor="start" x="130" y="-53.9" font-family="Arial" font-size="14.00" fill="#000000">description    </text>
<text text-anchor="start" x="231.8822" y="-53.9" font-family="Arial" font-size="14.00" fill="#666666">[text]</text>
</g>
<!-- zp_canvas_items&#45;&gt;zp_canvas -->
<g id="edge1" class="edge">
<title>zp_canvas_items:canvasId&#45;&gt;zp_canvas:id</title>
<path fill="none" stroke="#000000" stroke-dasharray="5,2" d="M87.117,-1204.3941C6.0395,-1151.3173 38.0633,-434.9166 97,-367 171.4396,-281.2183 275.5604,-416.7817 350,-331 377.236,-299.6142 391.5556,-237.5 350,-237.5"/>
<polygon fill="#000000" stroke="#000000" points="87.46,-1204.5018 95.6508,-1211.793 92.23,-1206.0009 97,-1207.5 97,-1207.5 97,-1207.5 92.23,-1206.0009 98.3492,-1203.207 87.46,-1204.5018 87.46,-1204.5018"/>
<text text-anchor="start" x="7.3245" y="-1217.5" font-family="Arial" font-size="10.00" fill="#000000">Additional Relation</text>
</g>
</g>
</svg>
