<?xml version="1.0" encoding="UTF-8" standalone="no"?>
<!DOCTYPE svg PUBLIC "-//W3C//DTD SVG 1.1//EN"
 "http://www.w3.org/Graphics/SVG/1.1/DTD/svg11.dtd">
<!-- Generated by graphviz version 2.40.1 (20161225.0304)
 -->
<!-- Title: zp_file Pages: 1 -->
<svg width="575pt" height="1492pt"
 viewBox="0.00 0.00 575.00 1492.00" xmlns="http://www.w3.org/2000/svg" xmlns:xlink="http://www.w3.org/1999/xlink">
<g id="graph0" class="graph" transform="scale(1 1) rotate(0) translate(4 1488)">
<title>zp_file</title>
<polygon fill="#ffffff" stroke="transparent" points="-4,4 -4,-1488 571,-1488 571,4 -4,4"/>
<!-- zp_file -->
<g id="node1" class="node">
<title>zp_file</title>
<polygon fill="#efefef" stroke="transparent" points="46,-1402.5 46,-1437.5 470,-1437.5 470,-1402.5 46,-1402.5"/>
<polygon fill="none" stroke="#000000" points="46,-1402.5 46,-1437.5 470,-1437.5 470,-1402.5 46,-1402.5"/>
<text text-anchor="start" x="168.2114" y="-1415.3" font-family="Arial Bold" font-size="18.00" fill="#000000">zp_file</text>
<text text-anchor="start" x="220.2206" y="-1415.3" font-family="Arial" font-size="14.00" fill="#000000">    </text>
<text text-anchor="start" x="254.4254" y="-1415.3" font-family="Arial" font-size="14.00" fill="#666666">[BASE TABLE]</text>
<polygon fill="none" stroke="#000000" points="46,-1372.5 46,-1402.5 470,-1402.5 470,-1372.5 46,-1372.5"/>
<text text-anchor="start" x="53" y="-1383.9" font-family="Arial" font-size="14.00" fill="#000000">id </text>
<text text-anchor="start" x="67.7798" y="-1383.9" font-family="Arial" font-size="14.00" fill="#666666">[int(11) unsigned]</text>
<polygon fill="none" stroke="#000000" points="46,-1342.5 46,-1372.5 470,-1372.5 470,-1342.5 46,-1342.5"/>
<text text-anchor="start" x="52.7656" y="-1353.9" font-family="Arial" font-size="14.00" fill="#000000">module </text>
<text text-anchor="start" x="102.5538" y="-1353.9" font-family="Arial" font-size="14.00" fill="#666666">[enum(&#39;project&#39;,&#39;ticket&#39;,&#39;client&#39;,&#39;user&#39;,&#39;lead&#39;,&#39;export&#39;,&#39;private&#39;)]</text>
<polygon fill="none" stroke="#000000" points="46,-1312.5 46,-1342.5 470,-1342.5 470,-1312.5 46,-1312.5"/>
<text text-anchor="start" x="53" y="-1323.9" font-family="Arial" font-size="14.00" fill="#000000">moduleId </text>
<text text-anchor="start" x="114.4614" y="-1323.9" font-family="Arial" font-size="14.00" fill="#666666">[int(11)]</text>
<polygon fill="none" stroke="#000000" points="46,-1282.5 46,-1312.5 470,-1312.5 470,-1282.5 46,-1282.5"/>
<text text-anchor="start" x="53" y="-1293.9" font-family="Arial" font-size="14.00" fill="#000000">userId </text>
<text text-anchor="start" x="95.7896" y="-1293.9" font-family="Arial" font-size="14.00" fill="#666666">[int(11)]</text>
<polygon fill="none" stroke="#000000" points="46,-1252.5 46,-1282.5 470,-1282.5 470,-1252.5 46,-1252.5"/>
<text text-anchor="start" x="53" y="-1263.9" font-family="Arial" font-size="14.00" fill="#000000">extension </text>
<text text-anchor="start" x="116.8008" y="-1263.9" font-family="Arial" font-size="14.00" fill="#666666">[varchar(10)]</text>
<polygon fill="none" stroke="#000000" points="46,-1222.5 46,-1252.5 470,-1252.5 470,-1222.5 46,-1222.5"/>
<text text-anchor="start" x="53" y="-1233.9" font-family="Arial" font-size="14.00" fill="#000000">encName </text>
<text text-anchor="start" x="116.7882" y="-1233.9" font-family="Arial" font-size="14.00" fill="#666666">[varchar(255)]</text>
<polygon fill="none" stroke="#000000" points="46,-1192.5 46,-1222.5 470,-1222.5 470,-1192.5 46,-1192.5"/>
<text text-anchor="start" x="53" y="-1203.9" font-family="Arial" font-size="14.00" fill="#000000">realName </text>
<text text-anchor="start" x="117.5554" y="-1203.9" font-family="Arial" font-size="14.00" fill="#666666">[varchar(255)]</text>
<polygon fill="none" stroke="#000000" points="46,-1162.5 46,-1192.5 470,-1192.5 470,-1162.5 46,-1162.5"/>
<text text-anchor="start" x="53" y="-1173.9" font-family="Arial" font-size="14.00" fill="#000000">date </text>
<text text-anchor="start" x="84.129" y="-1173.9" font-family="Arial" font-size="14.00" fill="#666666">[datetime]</text>
<polygon fill="none" stroke="#000000" stroke-width="3" points="44.5,-1161.5 44.5,-1439.5 471.5,-1439.5 471.5,-1161.5 44.5,-1161.5"/>
</g>
<!-- zp_user -->
<g id="node2" class="node">
<title>zp_user</title>
<polygon fill="#efefef" stroke="transparent" points="145,-1002.5 145,-1037.5 371,-1037.5 371,-1002.5 145,-1002.5"/>
<polygon fill="none" stroke="#000000" points="145,-1002.5 145,-1037.5 371,-1037.5 371,-1002.5 145,-1002.5"/>
<text text-anchor="start" x="162.2075" y="-1015.3" font-family="Arial Bold" font-size="18.00" fill="#000000">zp_user</text>
<text text-anchor="start" x="226.2245" y="-1015.3" font-family="Arial" font-size="14.00" fill="#000000">    </text>
<text text-anchor="start" x="260.4293" y="-1015.3" font-family="Arial" font-size="14.00" fill="#666666">[BASE TABLE]</text>
<polygon fill="none" stroke="#000000" points="145,-972.5 145,-1002.5 371,-1002.5 371,-972.5 145,-972.5"/>
<text text-anchor="start" x="152" y="-983.9" font-family="Arial" font-size="14.00" fill="#000000">id    </text>
<text text-anchor="start" x="197.094" y="-983.9" font-family="Arial" font-size="14.00" fill="#666666">[int(11)]</text>
<polygon fill="none" stroke="#000000" points="145,-942.5 145,-972.5 371,-972.5 371,-942.5 145,-942.5"/>
<text text-anchor="start" x="152" y="-953.9" font-family="Arial" font-size="14.00" fill="#000000">username    </text>
<text text-anchor="start" x="248.439" y="-953.9" font-family="Arial" font-size="14.00" fill="#666666">[varchar(175)]</text>
<polygon fill="none" stroke="#000000" points="145,-912.5 145,-942.5 371,-942.5 371,-912.5 145,-912.5"/>
<text text-anchor="start" x="152" y="-923.9" font-family="Arial" font-size="14.00" fill="#000000">password    </text>
<text text-anchor="start" x="246.1024" y="-923.9" font-family="Arial" font-size="14.00" fill="#666666">[varchar(255)]</text>
<polygon fill="none" stroke="#000000" points="145,-882.5 145,-912.5 371,-912.5 371,-882.5 145,-882.5"/>
<text text-anchor="start" x="152" y="-893.9" font-family="Arial" font-size="14.00" fill="#000000">firstname    </text>
<text text-anchor="start" x="243.7616" y="-893.9" font-family="Arial" font-size="14.00" fill="#666666">[varchar(100)]</text>
<polygon fill="none" stroke="#000000" points="145,-852.5 145,-882.5 371,-882.5 371,-852.5 145,-852.5"/>
<text text-anchor="start" x="152" y="-863.9" font-family="Arial" font-size="14.00" fill="#000000">lastname    </text>
<text text-anchor="start" x="242.993" y="-863.9" font-family="Arial" font-size="14.00" fill="#666666">[varchar(100)]</text>
<polygon fill="none" stroke="#000000" points="145,-822.5 145,-852.5 371,-852.5 371,-822.5 145,-822.5"/>
<text text-anchor="start" x="152" y="-833.9" font-family="Arial" font-size="14.00" fill="#000000">phone    </text>
<text text-anchor="start" x="225.1178" y="-833.9" font-family="Arial" font-size="14.00" fill="#666666">[varchar(25)]</text>
<polygon fill="none" stroke="#000000" points="145,-792.5 145,-822.5 371,-822.5 371,-792.5 145,-792.5"/>
<text text-anchor="start" x="152" y="-803.9" font-family="Arial" font-size="14.00" fill="#000000">profileId    </text>
<text text-anchor="start" x="235.9902" y="-803.9" font-family="Arial" font-size="14.00" fill="#666666">[varchar(100)]</text>
<polygon fill="none" stroke="#000000" points="145,-762.5 145,-792.5 371,-792.5 371,-762.5 145,-762.5"/>
<text text-anchor="start" x="152" y="-773.9" font-family="Arial" font-size="14.00" fill="#000000">lastlogin    </text>
<text text-anchor="start" x="237.5456" y="-773.9" font-family="Arial" font-size="14.00" fill="#666666">[datetime]</text>
<polygon fill="none" stroke="#000000" points="145,-732.5 145,-762.5 371,-762.5 371,-732.5 145,-732.5"/>
<text text-anchor="start" x="152" y="-743.9" font-family="Arial" font-size="14.00" fill="#000000">status    </text>
<text text-anchor="start" x="223.5512" y="-743.9" font-family="Arial" font-size="14.00" fill="#666666">[varchar(1)]</text>
<polygon fill="none" stroke="#000000" points="145,-702.5 145,-732.5 371,-732.5 371,-702.5 145,-702.5"/>
<text text-anchor="start" x="152" y="-713.9" font-family="Arial" font-size="14.00" fill="#000000">expires    </text>
<text text-anchor="start" x="231.3198" y="-713.9" font-family="Arial" font-size="14.00" fill="#666666">[datetime]</text>
<polygon fill="none" stroke="#000000" points="145,-672.5 145,-702.5 371,-702.5 371,-672.5 145,-672.5"/>
<text text-anchor="start" x="152" y="-683.9" font-family="Arial" font-size="14.00" fill="#000000">role    </text>
<text text-anchor="start" x="209.5372" y="-683.9" font-family="Arial" font-size="14.00" fill="#666666">[varchar(200)]</text>
<polygon fill="none" stroke="#000000" points="145,-642.5 145,-672.5 371,-672.5 371,-642.5 145,-642.5"/>
<text text-anchor="start" x="152" y="-653.9" font-family="Arial" font-size="14.00" fill="#000000">session    </text>
<text text-anchor="start" x="233.6592" y="-653.9" font-family="Arial" font-size="14.00" fill="#666666">[varchar(100)]</text>
<polygon fill="none" stroke="#000000" points="145,-612.5 145,-642.5 371,-642.5 371,-612.5 145,-612.5"/>
<text text-anchor="start" x="152" y="-623.9" font-family="Arial" font-size="14.00" fill="#000000">sessiontime    </text>
<text text-anchor="start" x="260.0996" y="-623.9" font-family="Arial" font-size="14.00" fill="#666666">[varchar(50)]</text>
<polygon fill="none" stroke="#000000" points="145,-582.5 145,-612.5 371,-612.5 371,-582.5 145,-582.5"/>
<text text-anchor="start" x="152" y="-593.9" font-family="Arial" font-size="14.00" fill="#000000">wage    </text>
<text text-anchor="start" x="219.6592" y="-593.9" font-family="Arial" font-size="14.00" fill="#666666">[int(11)]</text>
<polygon fill="none" stroke="#000000" points="145,-552.5 145,-582.5 371,-582.5 371,-552.5 145,-552.5"/>
<text text-anchor="start" x="152" y="-563.9" font-family="Arial" font-size="14.00" fill="#000000">hours    </text>
<text text-anchor="start" x="221.2132" y="-563.9" font-family="Arial" font-size="14.00" fill="#666666">[int(11)]</text>
<polygon fill="none" stroke="#000000" points="145,-522.5 145,-552.5 371,-552.5 371,-522.5 145,-522.5"/>
<text text-anchor="start" x="152" y="-533.9" font-family="Arial" font-size="14.00" fill="#000000">description    </text>
<text text-anchor="start" x="253.8822" y="-533.9" font-family="Arial" font-size="14.00" fill="#666666">[text]</text>
<polygon fill="none" stroke="#000000" points="145,-492.5 145,-522.5 371,-522.5 371,-492.5 145,-492.5"/>
<text text-anchor="start" x="152" y="-503.9" font-family="Arial" font-size="14.00" fill="#000000">clientId    </text>
<text text-anchor="start" x="230.547" y="-503.9" font-family="Arial" font-size="14.00" fill="#666666">[int(11)]</text>
<polygon fill="none" stroke="#000000" points="145,-462.5 145,-492.5 371,-492.5 371,-462.5 145,-462.5"/>
<text text-anchor="start" x="152" y="-473.9" font-family="Arial" font-size="14.00" fill="#000000">notifications    </text>
<text text-anchor="start" x="260.1094" y="-473.9" font-family="Arial" font-size="14.00" fill="#666666">[int(2)]</text>
<polygon fill="none" stroke="#000000" points="145,-432.5 145,-462.5 371,-462.5 371,-432.5 145,-432.5"/>
<text text-anchor="start" x="152" y="-443.9" font-family="Arial" font-size="14.00" fill="#000000">pwReset    </text>
<text text-anchor="start" x="240.6564" y="-443.9" font-family="Arial" font-size="14.00" fill="#666666">[varchar(100)]</text>
<polygon fill="none" stroke="#000000" points="145,-402.5 145,-432.5 371,-432.5 371,-402.5 145,-402.5"/>
<text text-anchor="start" x="151.8261" y="-413.9" font-family="Arial" font-size="14.00" fill="#000000">pwResetExpiration    </text>
<text text-anchor="start" x="302.7139" y="-413.9" font-family="Arial" font-size="14.00" fill="#666666">[datetime]</text>
<polygon fill="none" stroke="#000000" points="145,-372.5 145,-402.5 371,-402.5 371,-372.5 145,-372.5"/>
<text text-anchor="start" x="152" y="-383.9" font-family="Arial" font-size="14.00" fill="#000000">pwResetCount    </text>
<text text-anchor="start" x="278.0014" y="-383.9" font-family="Arial" font-size="14.00" fill="#666666">[int(5)]</text>
<polygon fill="none" stroke="#000000" points="145,-342.5 145,-372.5 371,-372.5 371,-342.5 145,-342.5"/>
<text text-anchor="start" x="152" y="-353.9" font-family="Arial" font-size="14.00" fill="#000000">forcePwReset    </text>
<text text-anchor="start" x="273.3268" y="-353.9" font-family="Arial" font-size="14.00" fill="#666666">[tinyint(4)]</text>
<polygon fill="none" stroke="#000000" points="145,-312.5 145,-342.5 371,-342.5 371,-312.5 145,-312.5"/>
<text text-anchor="start" x="152" y="-323.9" font-family="Arial" font-size="14.00" fill="#000000">lastpwd_change    </text>
<text text-anchor="start" x="287.352" y="-323.9" font-family="Arial" font-size="14.00" fill="#666666">[datetime]</text>
<polygon fill="none" stroke="#000000" points="145,-282.5 145,-312.5 371,-312.5 371,-282.5 145,-282.5"/>
<text text-anchor="start" x="152" y="-293.9" font-family="Arial" font-size="14.00" fill="#000000">settings    </text>
<text text-anchor="start" x="234.4404" y="-293.9" font-family="Arial" font-size="14.00" fill="#666666">[text]</text>
<polygon fill="none" stroke="#000000" points="145,-252.5 145,-282.5 371,-282.5 371,-252.5 145,-252.5"/>
<text text-anchor="start" x="152" y="-263.9" font-family="Arial" font-size="14.00" fill="#000000">twoFAEnabled    </text>
<text text-anchor="start" x="277.23" y="-263.9" font-family="Arial" font-size="14.00" fill="#666666">[tinyint(1)]</text>
<polygon fill="none" stroke="#000000" points="145,-222.5 145,-252.5 371,-252.5 371,-222.5 145,-222.5"/>
<text text-anchor="start" x="152" y="-233.9" font-family="Arial" font-size="14.00" fill="#000000">twoFASecret    </text>
<text text-anchor="start" x="266.3268" y="-233.9" font-family="Arial" font-size="14.00" fill="#666666">[varchar(200)]</text>
<polygon fill="none" stroke="#000000" points="145,-192.5 145,-222.5 371,-222.5 371,-192.5 145,-192.5"/>
<text text-anchor="start" x="152" y="-203.9" font-family="Arial" font-size="14.00" fill="#000000">createdOn    </text>
<text text-anchor="start" x="251.5596" y="-203.9" font-family="Arial" font-size="14.00" fill="#666666">[datetime]</text>
<polygon fill="none" stroke="#000000" points="145,-162.5 145,-192.5 371,-192.5 371,-162.5 145,-162.5"/>
<text text-anchor="start" x="152" y="-173.9" font-family="Arial" font-size="14.00" fill="#000000">source    </text>
<text text-anchor="start" x="228.2132" y="-173.9" font-family="Arial" font-size="14.00" fill="#666666">[varchar(200)]</text>
<polygon fill="none" stroke="#000000" points="145,-132.5 145,-162.5 371,-162.5 371,-132.5 145,-132.5"/>
<text text-anchor="start" x="152" y="-143.9" font-family="Arial" font-size="14.00" fill="#000000">jobTitle    </text>
<text text-anchor="start" x="231.3156" y="-143.9" font-family="Arial" font-size="14.00" fill="#666666">[varchar(200)]</text>
<polygon fill="none" stroke="#000000" points="145,-102.5 145,-132.5 371,-132.5 371,-102.5 145,-102.5"/>
<text text-anchor="start" x="152" y="-113.9" font-family="Arial" font-size="14.00" fill="#000000">jobLevel    </text>
<text text-anchor="start" x="238.331" y="-113.9" font-family="Arial" font-size="14.00" fill="#666666">[varchar(50)]</text>
<polygon fill="none" stroke="#000000" points="145,-72.5 145,-102.5 371,-102.5 371,-72.5 145,-72.5"/>
<text text-anchor="start" x="152" y="-83.9" font-family="Arial" font-size="14.00" fill="#000000">department    </text>
<text text-anchor="start" x="257.0028" y="-83.9" font-family="Arial" font-size="14.00" fill="#666666">[varchar(200)]</text>
<polygon fill="none" stroke="#000000" points="145,-42.5 145,-72.5 371,-72.5 371,-42.5 145,-42.5"/>
<text text-anchor="start" x="152" y="-53.9" font-family="Arial" font-size="14.00" fill="#000000">modified    </text>
<text text-anchor="start" x="239.0996" y="-53.9" font-family="Arial" font-size="14.00" fill="#666666">[datetime]</text>
</g>
<!-- zp_file&#45;&gt;zp_user -->
<g id="edge1" class="edge">
<title>zp_file:userId&#45;&gt;zp_user:id</title>
<path fill="none" stroke="#000000" stroke-dasharray="5,2" d="M480.1605,-1296.9547C609.7719,-1282.5481 512.102,-987.5 371,-987.5"/>
<polygon fill="#000000" stroke="#000000" points="479.9856,-1296.964 469.7588,-1293.0065 474.9928,-1297.232 470,-1297.5 470,-1297.5 470,-1297.5 474.9928,-1297.232 470.2412,-1301.9935 479.9856,-1296.964 479.9856,-1296.964"/>
<text text-anchor="start" x="477.3245" y="-1307.5" font-family="Arial" font-size="10.00" fill="#000000">Additional Relation</text>
</g>
</g>
</svg>
