<?xml version="1.0" encoding="UTF-8" standalone="no"?>
<!DOCTYPE svg PUBLIC "-//W3C//DTD SVG 1.1//EN"
 "http://www.w3.org/Graphics/SVG/1.1/DTD/svg11.dtd">
<!-- Generated by graphviz version 2.40.1 (20161225.0304)
 -->
<!-- Title: zp_gcallinks Pages: 1 -->
<svg width="391pt" height="1402pt"
 viewBox="0.00 0.00 390.50 1402.00" xmlns="http://www.w3.org/2000/svg" xmlns:xlink="http://www.w3.org/1999/xlink">
<g id="graph0" class="graph" transform="scale(1 1) rotate(0) translate(4 1398)">
<title>zp_gcallinks</title>
<polygon fill="#ffffff" stroke="transparent" points="-4,4 -4,-1398 386.5,-1398 386.5,4 -4,4"/>
<!-- zp_gcallinks -->
<g id="node1" class="node">
<title>zp_gcallinks</title>
<polygon fill="#efefef" stroke="transparent" points="46.5,-1312.5 46.5,-1347.5 285.5,-1347.5 285.5,-1312.5 46.5,-1312.5"/>
<polygon fill="none" stroke="#000000" points="46.5,-1312.5 46.5,-1347.5 285.5,-1347.5 285.5,-1312.5 46.5,-1312.5"/>
<text text-anchor="start" x="53.2092" y="-1325.3" font-family="Arial Bold" font-size="18.00" fill="#000000">zp_gcallinks</text>
<text text-anchor="start" x="151.2228" y="-1325.3" font-family="Arial" font-size="14.00" fill="#000000">    </text>
<text text-anchor="start" x="185.4276" y="-1325.3" font-family="Arial" font-size="14.00" fill="#666666">[BASE TABLE]</text>
<polygon fill="none" stroke="#000000" points="46.5,-1282.5 46.5,-1312.5 285.5,-1312.5 285.5,-1282.5 46.5,-1282.5"/>
<text text-anchor="start" x="53.5" y="-1293.9" font-family="Arial" font-size="14.00" fill="#000000">id </text>
<text text-anchor="start" x="68.2798" y="-1293.9" font-family="Arial" font-size="14.00" fill="#666666">[int(11)]</text>
<polygon fill="none" stroke="#000000" points="46.5,-1252.5 46.5,-1282.5 285.5,-1282.5 285.5,-1252.5 46.5,-1252.5"/>
<text text-anchor="start" x="53.5" y="-1263.9" font-family="Arial" font-size="14.00" fill="#000000">userId </text>
<text text-anchor="start" x="96.2896" y="-1263.9" font-family="Arial" font-size="14.00" fill="#666666">[int(255)]</text>
<polygon fill="none" stroke="#000000" points="46.5,-1222.5 46.5,-1252.5 285.5,-1252.5 285.5,-1222.5 46.5,-1222.5"/>
<text text-anchor="start" x="53.5" y="-1233.9" font-family="Arial" font-size="14.00" fill="#000000">url </text>
<text text-anchor="start" x="72.9404" y="-1233.9" font-family="Arial" font-size="14.00" fill="#666666">[text]</text>
<polygon fill="none" stroke="#000000" points="46.5,-1192.5 46.5,-1222.5 285.5,-1222.5 285.5,-1192.5 46.5,-1192.5"/>
<text text-anchor="start" x="53.5" y="-1203.9" font-family="Arial" font-size="14.00" fill="#000000">name </text>
<text text-anchor="start" x="92.399" y="-1203.9" font-family="Arial" font-size="14.00" fill="#666666">[varchar(255)]</text>
<polygon fill="none" stroke="#000000" points="46.5,-1162.5 46.5,-1192.5 285.5,-1192.5 285.5,-1162.5 46.5,-1162.5"/>
<text text-anchor="start" x="53.5" y="-1173.9" font-family="Arial" font-size="14.00" fill="#000000">colorClass </text>
<text text-anchor="start" x="122.7188" y="-1173.9" font-family="Arial" font-size="14.00" fill="#666666">[varchar(100)]</text>
<polygon fill="none" stroke="#000000" stroke-width="3" points="44.5,-1161.5 44.5,-1349.5 286.5,-1349.5 286.5,-1161.5 44.5,-1161.5"/>
</g>
<!-- zp_user -->
<g id="node2" class="node">
<title>zp_user</title>
<polygon fill="#efefef" stroke="transparent" points="53.5,-1002.5 53.5,-1037.5 279.5,-1037.5 279.5,-1002.5 53.5,-1002.5"/>
<polygon fill="none" stroke="#000000" points="53.5,-1002.5 53.5,-1037.5 279.5,-1037.5 279.5,-1002.5 53.5,-1002.5"/>
<text text-anchor="start" x="70.7075" y="-1015.3" font-family="Arial Bold" font-size="18.00" fill="#000000">zp_user</text>
<text text-anchor="start" x="134.7245" y="-1015.3" font-family="Arial" font-size="14.00" fill="#000000">    </text>
<text text-anchor="start" x="168.9293" y="-1015.3" font-family="Arial" font-size="14.00" fill="#666666">[BASE TABLE]</text>
<polygon fill="none" stroke="#000000" points="53.5,-972.5 53.5,-1002.5 279.5,-1002.5 279.5,-972.5 53.5,-972.5"/>
<text text-anchor="start" x="60.5" y="-983.9" font-family="Arial" font-size="14.00" fill="#000000">id    </text>
<text text-anchor="start" x="105.594" y="-983.9" font-family="Arial" font-size="14.00" fill="#666666">[int(11)]</text>
<polygon fill="none" stroke="#000000" points="53.5,-942.5 53.5,-972.5 279.5,-972.5 279.5,-942.5 53.5,-942.5"/>
<text text-anchor="start" x="60.5" y="-953.9" font-family="Arial" font-size="14.00" fill="#000000">username    </text>
<text text-anchor="start" x="156.939" y="-953.9" font-family="Arial" font-size="14.00" fill="#666666">[varchar(175)]</text>
<polygon fill="none" stroke="#000000" points="53.5,-912.5 53.5,-942.5 279.5,-942.5 279.5,-912.5 53.5,-912.5"/>
<text text-anchor="start" x="60.5" y="-923.9" font-family="Arial" font-size="14.00" fill="#000000">password    </text>
<text text-anchor="start" x="154.6024" y="-923.9" font-family="Arial" font-size="14.00" fill="#666666">[varchar(255)]</text>
<polygon fill="none" stroke="#000000" points="53.5,-882.5 53.5,-912.5 279.5,-912.5 279.5,-882.5 53.5,-882.5"/>
<text text-anchor="start" x="60.5" y="-893.9" font-family="Arial" font-size="14.00" fill="#000000">firstname    </text>
<text text-anchor="start" x="152.2616" y="-893.9" font-family="Arial" font-size="14.00" fill="#666666">[varchar(100)]</text>
<polygon fill="none" stroke="#000000" points="53.5,-852.5 53.5,-882.5 279.5,-882.5 279.5,-852.5 53.5,-852.5"/>
<text text-anchor="start" x="60.5" y="-863.9" font-family="Arial" font-size="14.00" fill="#000000">lastname    </text>
<text text-anchor="start" x="151.493" y="-863.9" font-family="Arial" font-size="14.00" fill="#666666">[varchar(100)]</text>
<polygon fill="none" stroke="#000000" points="53.5,-822.5 53.5,-852.5 279.5,-852.5 279.5,-822.5 53.5,-822.5"/>
<text text-anchor="start" x="60.5" y="-833.9" font-family="Arial" font-size="14.00" fill="#000000">phone    </text>
<text text-anchor="start" x="133.6178" y="-833.9" font-family="Arial" font-size="14.00" fill="#666666">[varchar(25)]</text>
<polygon fill="none" stroke="#000000" points="53.5,-792.5 53.5,-822.5 279.5,-822.5 279.5,-792.5 53.5,-792.5"/>
<text text-anchor="start" x="60.5" y="-803.9" font-family="Arial" font-size="14.00" fill="#000000">profileId    </text>
<text text-anchor="start" x="144.4902" y="-803.9" font-family="Arial" font-size="14.00" fill="#666666">[varchar(100)]</text>
<polygon fill="none" stroke="#000000" points="53.5,-762.5 53.5,-792.5 279.5,-792.5 279.5,-762.5 53.5,-762.5"/>
<text text-anchor="start" x="60.5" y="-773.9" font-family="Arial" font-size="14.00" fill="#000000">lastlogin    </text>
<text text-anchor="start" x="146.0456" y="-773.9" font-family="Arial" font-size="14.00" fill="#666666">[datetime]</text>
<polygon fill="none" stroke="#000000" points="53.5,-732.5 53.5,-762.5 279.5,-762.5 279.5,-732.5 53.5,-732.5"/>
<text text-anchor="start" x="60.5" y="-743.9" font-family="Arial" font-size="14.00" fill="#000000">status    </text>
<text text-anchor="start" x="132.0512" y="-743.9" font-family="Arial" font-size="14.00" fill="#666666">[varchar(1)]</text>
<polygon fill="none" stroke="#000000" points="53.5,-702.5 53.5,-732.5 279.5,-732.5 279.5,-702.5 53.5,-702.5"/>
<text text-anchor="start" x="60.5" y="-713.9" font-family="Arial" font-size="14.00" fill="#000000">expires    </text>
<text text-anchor="start" x="139.8198" y="-713.9" font-family="Arial" font-size="14.00" fill="#666666">[datetime]</text>
<polygon fill="none" stroke="#000000" points="53.5,-672.5 53.5,-702.5 279.5,-702.5 279.5,-672.5 53.5,-672.5"/>
<text text-anchor="start" x="60.5" y="-683.9" font-family="Arial" font-size="14.00" fill="#000000">role    </text>
<text text-anchor="start" x="118.0372" y="-683.9" font-family="Arial" font-size="14.00" fill="#666666">[varchar(200)]</text>
<polygon fill="none" stroke="#000000" points="53.5,-642.5 53.5,-672.5 279.5,-672.5 279.5,-642.5 53.5,-642.5"/>
<text text-anchor="start" x="60.5" y="-653.9" font-family="Arial" font-size="14.00" fill="#000000">session    </text>
<text text-anchor="start" x="142.1592" y="-653.9" font-family="Arial" font-size="14.00" fill="#666666">[varchar(100)]</text>
<polygon fill="none" stroke="#000000" points="53.5,-612.5 53.5,-642.5 279.5,-642.5 279.5,-612.5 53.5,-612.5"/>
<text text-anchor="start" x="60.5" y="-623.9" font-family="Arial" font-size="14.00" fill="#000000">sessiontime    </text>
<text text-anchor="start" x="168.5996" y="-623.9" font-family="Arial" font-size="14.00" fill="#666666">[varchar(50)]</text>
<polygon fill="none" stroke="#000000" points="53.5,-582.5 53.5,-612.5 279.5,-612.5 279.5,-582.5 53.5,-582.5"/>
<text text-anchor="start" x="60.5" y="-593.9" font-family="Arial" font-size="14.00" fill="#000000">wage    </text>
<text text-anchor="start" x="128.1592" y="-593.9" font-family="Arial" font-size="14.00" fill="#666666">[int(11)]</text>
<polygon fill="none" stroke="#000000" points="53.5,-552.5 53.5,-582.5 279.5,-582.5 279.5,-552.5 53.5,-552.5"/>
<text text-anchor="start" x="60.5" y="-563.9" font-family="Arial" font-size="14.00" fill="#000000">hours    </text>
<text text-anchor="start" x="129.7132" y="-563.9" font-family="Arial" font-size="14.00" fill="#666666">[int(11)]</text>
<polygon fill="none" stroke="#000000" points="53.5,-522.5 53.5,-552.5 279.5,-552.5 279.5,-522.5 53.5,-522.5"/>
<text text-anchor="start" x="60.5" y="-533.9" font-family="Arial" font-size="14.00" fill="#000000">description    </text>
<text text-anchor="start" x="162.3822" y="-533.9" font-family="Arial" font-size="14.00" fill="#666666">[text]</text>
<polygon fill="none" stroke="#000000" points="53.5,-492.5 53.5,-522.5 279.5,-522.5 279.5,-492.5 53.5,-492.5"/>
<text text-anchor="start" x="60.5" y="-503.9" font-family="Arial" font-size="14.00" fill="#000000">clientId    </text>
<text text-anchor="start" x="139.047" y="-503.9" font-family="Arial" font-size="14.00" fill="#666666">[int(11)]</text>
<polygon fill="none" stroke="#000000" points="53.5,-462.5 53.5,-492.5 279.5,-492.5 279.5,-462.5 53.5,-462.5"/>
<text text-anchor="start" x="60.5" y="-473.9" font-family="Arial" font-size="14.00" fill="#000000">notifications    </text>
<text text-anchor="start" x="168.6094" y="-473.9" font-family="Arial" font-size="14.00" fill="#666666">[int(2)]</text>
<polygon fill="none" stroke="#000000" points="53.5,-432.5 53.5,-462.5 279.5,-462.5 279.5,-432.5 53.5,-432.5"/>
<text text-anchor="start" x="60.5" y="-443.9" font-family="Arial" font-size="14.00" fill="#000000">pwReset    </text>
<text text-anchor="start" x="149.1564" y="-443.9" font-family="Arial" font-size="14.00" fill="#666666">[varchar(100)]</text>
<polygon fill="none" stroke="#000000" points="53.5,-402.5 53.5,-432.5 279.5,-432.5 279.5,-402.5 53.5,-402.5"/>
<text text-anchor="start" x="60.3261" y="-413.9" font-family="Arial" font-size="14.00" fill="#000000">pwResetExpiration    </text>
<text text-anchor="start" x="211.2139" y="-413.9" font-family="Arial" font-size="14.00" fill="#666666">[datetime]</text>
<polygon fill="none" stroke="#000000" points="53.5,-372.5 53.5,-402.5 279.5,-402.5 279.5,-372.5 53.5,-372.5"/>
<text text-anchor="start" x="60.5" y="-383.9" font-family="Arial" font-size="14.00" fill="#000000">pwResetCount    </text>
<text text-anchor="start" x="186.5014" y="-383.9" font-family="Arial" font-size="14.00" fill="#666666">[int(5)]</text>
<polygon fill="none" stroke="#000000" points="53.5,-342.5 53.5,-372.5 279.5,-372.5 279.5,-342.5 53.5,-342.5"/>
<text text-anchor="start" x="60.5" y="-353.9" font-family="Arial" font-size="14.00" fill="#000000">forcePwReset    </text>
<text text-anchor="start" x="181.8268" y="-353.9" font-family="Arial" font-size="14.00" fill="#666666">[tinyint(4)]</text>
<polygon fill="none" stroke="#000000" points="53.5,-312.5 53.5,-342.5 279.5,-342.5 279.5,-312.5 53.5,-312.5"/>
<text text-anchor="start" x="60.5" y="-323.9" font-family="Arial" font-size="14.00" fill="#000000">lastpwd_change    </text>
<text text-anchor="start" x="195.852" y="-323.9" font-family="Arial" font-size="14.00" fill="#666666">[datetime]</text>
<polygon fill="none" stroke="#000000" points="53.5,-282.5 53.5,-312.5 279.5,-312.5 279.5,-282.5 53.5,-282.5"/>
<text text-anchor="start" x="60.5" y="-293.9" font-family="Arial" font-size="14.00" fill="#000000">settings    </text>
<text text-anchor="start" x="142.9404" y="-293.9" font-family="Arial" font-size="14.00" fill="#666666">[text]</text>
<polygon fill="none" stroke="#000000" points="53.5,-252.5 53.5,-282.5 279.5,-282.5 279.5,-252.5 53.5,-252.5"/>
<text text-anchor="start" x="60.5" y="-263.9" font-family="Arial" font-size="14.00" fill="#000000">twoFAEnabled    </text>
<text text-anchor="start" x="185.73" y="-263.9" font-family="Arial" font-size="14.00" fill="#666666">[tinyint(1)]</text>
<polygon fill="none" stroke="#000000" points="53.5,-222.5 53.5,-252.5 279.5,-252.5 279.5,-222.5 53.5,-222.5"/>
<text text-anchor="start" x="60.5" y="-233.9" font-family="Arial" font-size="14.00" fill="#000000">twoFASecret    </text>
<text text-anchor="start" x="174.8268" y="-233.9" font-family="Arial" font-size="14.00" fill="#666666">[varchar(200)]</text>
<polygon fill="none" stroke="#000000" points="53.5,-192.5 53.5,-222.5 279.5,-222.5 279.5,-192.5 53.5,-192.5"/>
<text text-anchor="start" x="60.5" y="-203.9" font-family="Arial" font-size="14.00" fill="#000000">createdOn    </text>
<text text-anchor="start" x="160.0596" y="-203.9" font-family="Arial" font-size="14.00" fill="#666666">[datetime]</text>
<polygon fill="none" stroke="#000000" points="53.5,-162.5 53.5,-192.5 279.5,-192.5 279.5,-162.5 53.5,-162.5"/>
<text text-anchor="start" x="60.5" y="-173.9" font-family="Arial" font-size="14.00" fill="#000000">source    </text>
<text text-anchor="start" x="136.7132" y="-173.9" font-family="Arial" font-size="14.00" fill="#666666">[varchar(200)]</text>
<polygon fill="none" stroke="#000000" points="53.5,-132.5 53.5,-162.5 279.5,-162.5 279.5,-132.5 53.5,-132.5"/>
<text text-anchor="start" x="60.5" y="-143.9" font-family="Arial" font-size="14.00" fill="#000000">jobTitle    </text>
<text text-anchor="start" x="139.8156" y="-143.9" font-family="Arial" font-size="14.00" fill="#666666">[varchar(200)]</text>
<polygon fill="none" stroke="#000000" points="53.5,-102.5 53.5,-132.5 279.5,-132.5 279.5,-102.5 53.5,-102.5"/>
<text text-anchor="start" x="60.5" y="-113.9" font-family="Arial" font-size="14.00" fill="#000000">jobLevel    </text>
<text text-anchor="start" x="146.831" y="-113.9" font-family="Arial" font-size="14.00" fill="#666666">[varchar(50)]</text>
<polygon fill="none" stroke="#000000" points="53.5,-72.5 53.5,-102.5 279.5,-102.5 279.5,-72.5 53.5,-72.5"/>
<text text-anchor="start" x="60.5" y="-83.9" font-family="Arial" font-size="14.00" fill="#000000">department    </text>
<text text-anchor="start" x="165.5028" y="-83.9" font-family="Arial" font-size="14.00" fill="#666666">[varchar(200)]</text>
<polygon fill="none" stroke="#000000" points="53.5,-42.5 53.5,-72.5 279.5,-72.5 279.5,-42.5 53.5,-42.5"/>
<text text-anchor="start" x="60.5" y="-53.9" font-family="Arial" font-size="14.00" fill="#000000">modified    </text>
<text text-anchor="start" x="147.5996" y="-53.9" font-family="Arial" font-size="14.00" fill="#666666">[datetime]</text>
</g>
<!-- zp_gcallinks&#45;&gt;zp_user -->
<g id="edge1" class="edge">
<title>zp_gcallinks:userId&#45;&gt;zp_user:id</title>
<path fill="none" stroke="#000000" stroke-dasharray="5,2" d="M295.6756,-1266.6297C349.7727,-1256.741 326.6405,-1165.0167 285.5,-1117 217.609,-1037.7617 121.391,-1160.2383 53.5,-1081 26.4623,-1049.4432 11.9444,-987.5 53.5,-987.5"/>
<polygon fill="#000000" stroke="#000000" points="295.4636,-1266.6478 285.1165,-1263.0164 290.4818,-1267.0739 285.5,-1267.5 285.5,-1267.5 285.5,-1267.5 290.4818,-1267.0739 285.8835,-1271.9836 295.4636,-1266.6478 295.4636,-1266.6478"/>
<text text-anchor="start" x="292.8245" y="-1277.5" font-family="Arial" font-size="10.00" fill="#000000">Additional Relation</text>
</g>
</g>
</svg>
