<?xml version="1.0" encoding="UTF-8" standalone="no"?>
<!DOCTYPE svg PUBLIC "-//W3C//DTD SVG 1.1//EN"
 "http://www.w3.org/Graphics/SVG/1.1/DTD/svg11.dtd">
<!-- Generated by graphviz version 2.40.1 (20161225.0304)
 -->
<!-- Title: zp_integration Pages: 1 -->
<svg width="354pt" height="495pt"
 viewBox="0.00 0.00 354.00 495.00" xmlns="http://www.w3.org/2000/svg" xmlns:xlink="http://www.w3.org/1999/xlink">
<g id="graph0" class="graph" transform="scale(1 1) rotate(0) translate(4 491)">
<title>zp_integration</title>
<polygon fill="#ffffff" stroke="transparent" points="-4,4 -4,-491 350,-491 350,4 -4,4"/>
<!-- zp_integration -->
<g id="node1" class="node">
<title>zp_integration</title>
<polygon fill="#efefef" stroke="transparent" points="46,-405.5 46,-440.5 300,-440.5 300,-405.5 46,-405.5"/>
<polygon fill="none" stroke="#000000" points="46,-405.5 46,-440.5 300,-440.5 300,-405.5 46,-405.5"/>
<text text-anchor="start" x="52.6987" y="-418.3" font-family="Arial Bold" font-size="18.00" fill="#000000">zp_integration</text>
<text text-anchor="start" x="165.7333" y="-418.3" font-family="Arial" font-size="14.00" fill="#000000">    </text>
<text text-anchor="start" x="199.9381" y="-418.3" font-family="Arial" font-size="14.00" fill="#666666">[BASE TABLE]</text>
<polygon fill="none" stroke="#000000" points="46,-375.5 46,-405.5 300,-405.5 300,-375.5 46,-375.5"/>
<text text-anchor="start" x="53" y="-386.9" font-family="Arial" font-size="14.00" fill="#000000">id </text>
<text text-anchor="start" x="67.7798" y="-386.9" font-family="Arial" font-size="14.00" fill="#666666">[int(11)]</text>
<polygon fill="none" stroke="#000000" points="46,-345.5 46,-375.5 300,-375.5 300,-345.5 46,-345.5"/>
<text text-anchor="start" x="53" y="-356.9" font-family="Arial" font-size="14.00" fill="#000000">providerId </text>
<text text-anchor="start" x="119.122" y="-356.9" font-family="Arial" font-size="14.00" fill="#666666">[varchar(45)]</text>
<polygon fill="none" stroke="#000000" points="46,-315.5 46,-345.5 300,-345.5 300,-315.5 46,-315.5"/>
<text text-anchor="start" x="53" y="-326.9" font-family="Arial" font-size="14.00" fill="#000000">method </text>
<text text-anchor="start" x="103.5722" y="-326.9" font-family="Arial" font-size="14.00" fill="#666666">[varchar(45)]</text>
<polygon fill="none" stroke="#000000" points="46,-285.5 46,-315.5 300,-315.5 300,-285.5 46,-285.5"/>
<text text-anchor="start" x="53" y="-296.9" font-family="Arial" font-size="14.00" fill="#000000">entity </text>
<text text-anchor="start" x="90.3436" y="-296.9" font-family="Arial" font-size="14.00" fill="#666666">[varchar(45)]</text>
<polygon fill="none" stroke="#000000" points="46,-255.5 46,-285.5 300,-285.5 300,-255.5 46,-255.5"/>
<text text-anchor="start" x="53" y="-266.9" font-family="Arial" font-size="14.00" fill="#000000">fields </text>
<text text-anchor="start" x="89.5596" y="-266.9" font-family="Arial" font-size="14.00" fill="#666666">[text]</text>
<polygon fill="none" stroke="#000000" points="46,-225.5 46,-255.5 300,-255.5 300,-225.5 46,-225.5"/>
<text text-anchor="start" x="53" y="-236.9" font-family="Arial" font-size="14.00" fill="#000000">schedule </text>
<text text-anchor="start" x="112.9102" y="-236.9" font-family="Arial" font-size="14.00" fill="#666666">[varchar(45)]</text>
<polygon fill="none" stroke="#000000" points="46,-195.5 46,-225.5 300,-225.5 300,-195.5 46,-195.5"/>
<text text-anchor="start" x="53" y="-206.9" font-family="Arial" font-size="14.00" fill="#000000">notes </text>
<text text-anchor="start" x="91.129" y="-206.9" font-family="Arial" font-size="14.00" fill="#666666">[varchar(45)]</text>
<polygon fill="none" stroke="#000000" points="46,-165.5 46,-195.5 300,-195.5 300,-165.5 46,-165.5"/>
<text text-anchor="start" x="53" y="-176.9" font-family="Arial" font-size="14.00" fill="#000000">auth </text>
<text text-anchor="start" x="84.129" y="-176.9" font-family="Arial" font-size="14.00" fill="#666666">[text]</text>
<polygon fill="none" stroke="#000000" points="46,-135.5 46,-165.5 300,-165.5 300,-135.5 46,-135.5"/>
<text text-anchor="start" x="53" y="-146.9" font-family="Arial" font-size="14.00" fill="#000000">meta </text>
<text text-anchor="start" x="88.007" y="-146.9" font-family="Arial" font-size="14.00" fill="#666666">[varchar(45)]</text>
<polygon fill="none" stroke="#000000" points="46,-105.5 46,-135.5 300,-135.5 300,-105.5 46,-105.5"/>
<text text-anchor="start" x="53" y="-116.9" font-family="Arial" font-size="14.00" fill="#000000">createdOn </text>
<text text-anchor="start" x="122.2454" y="-116.9" font-family="Arial" font-size="14.00" fill="#666666">[datetime]</text>
<polygon fill="none" stroke="#000000" points="46,-75.5 46,-105.5 300,-105.5 300,-75.5 46,-75.5"/>
<text text-anchor="start" x="53" y="-86.9" font-family="Arial" font-size="14.00" fill="#000000">createdBy </text>
<text text-anchor="start" x="119.9088" y="-86.9" font-family="Arial" font-size="14.00" fill="#666666">[int(11)]</text>
<polygon fill="none" stroke="#000000" points="46,-45.5 46,-75.5 300,-75.5 300,-45.5 46,-45.5"/>
<text text-anchor="start" x="53" y="-56.9" font-family="Arial" font-size="14.00" fill="#000000">lastSync </text>
<text text-anchor="start" x="109.7896" y="-56.9" font-family="Arial" font-size="14.00" fill="#666666">[varchar(45)]</text>
<polygon fill="none" stroke="#000000" stroke-width="3" points="44.5,-44.5 44.5,-442.5 301.5,-442.5 301.5,-44.5 44.5,-44.5"/>
</g>
</g>
</svg>
