<?xml version="1.0" encoding="UTF-8" standalone="no"?>
<!DOCTYPE svg PUBLIC "-//W3C//DTD SVG 1.1//EN"
 "http://www.w3.org/Graphics/SVG/1.1/DTD/svg11.dtd">
<!-- Generated by graphviz version 2.40.1 (20161225.0304)
 -->
<!-- Title: zp_notifications Pages: 1 -->
<svg width="417pt" height="1552pt"
 viewBox="0.00 0.00 416.50 1552.00" xmlns="http://www.w3.org/2000/svg" xmlns:xlink="http://www.w3.org/1999/xlink">
<g id="graph0" class="graph" transform="scale(1 1) rotate(0) translate(4 1548)">
<title>zp_notifications</title>
<polygon fill="#ffffff" stroke="transparent" points="-4,4 -4,-1548 412.5,-1548 412.5,4 -4,4"/>
<!-- zp_notifications -->
<g id="node1" class="node">
<title>zp_notifications</title>
<polygon fill="#efefef" stroke="transparent" points="46.5,-1462.5 46.5,-1497.5 311.5,-1497.5 311.5,-1462.5 46.5,-1462.5"/>
<polygon fill="none" stroke="#000000" points="46.5,-1462.5 46.5,-1497.5 311.5,-1497.5 311.5,-1462.5 46.5,-1462.5"/>
<text text-anchor="start" x="53.1997" y="-1475.3" font-family="Arial Bold" font-size="18.00" fill="#000000">zp_notifications</text>
<text text-anchor="start" x="177.2323" y="-1475.3" font-family="Arial" font-size="14.00" fill="#000000">    </text>
<text text-anchor="start" x="211.4371" y="-1475.3" font-family="Arial" font-size="14.00" fill="#666666">[BASE TABLE]</text>
<polygon fill="none" stroke="#000000" points="46.5,-1432.5 46.5,-1462.5 311.5,-1462.5 311.5,-1432.5 46.5,-1432.5"/>
<text text-anchor="start" x="53.5" y="-1443.9" font-family="Arial" font-size="14.00" fill="#000000">id </text>
<text text-anchor="start" x="68.2798" y="-1443.9" font-family="Arial" font-size="14.00" fill="#666666">[int(11)]</text>
<polygon fill="none" stroke="#000000" points="46.5,-1402.5 46.5,-1432.5 311.5,-1432.5 311.5,-1402.5 46.5,-1402.5"/>
<text text-anchor="start" x="53.5" y="-1413.9" font-family="Arial" font-size="14.00" fill="#000000">userId </text>
<text text-anchor="start" x="96.2896" y="-1413.9" font-family="Arial" font-size="14.00" fill="#666666">[int(11)]</text>
<polygon fill="none" stroke="#000000" points="46.5,-1372.5 46.5,-1402.5 311.5,-1402.5 311.5,-1372.5 46.5,-1372.5"/>
<text text-anchor="start" x="53.5" y="-1383.9" font-family="Arial" font-size="14.00" fill="#000000">read </text>
<text text-anchor="start" x="85.399" y="-1383.9" font-family="Arial" font-size="14.00" fill="#666666">[int(11)]</text>
<polygon fill="none" stroke="#000000" points="46.5,-1342.5 46.5,-1372.5 311.5,-1372.5 311.5,-1342.5 46.5,-1342.5"/>
<text text-anchor="start" x="53.5" y="-1353.9" font-family="Arial" font-size="14.00" fill="#000000">type </text>
<text text-anchor="start" x="83.8464" y="-1353.9" font-family="Arial" font-size="14.00" fill="#666666">[varchar(45)]</text>
<polygon fill="none" stroke="#000000" points="46.5,-1312.5 46.5,-1342.5 311.5,-1342.5 311.5,-1312.5 46.5,-1312.5"/>
<text text-anchor="start" x="53.5" y="-1323.9" font-family="Arial" font-size="14.00" fill="#000000">module </text>
<text text-anchor="start" x="103.2882" y="-1323.9" font-family="Arial" font-size="14.00" fill="#666666">[varchar(45)]</text>
<polygon fill="none" stroke="#000000" points="46.5,-1282.5 46.5,-1312.5 311.5,-1312.5 311.5,-1282.5 46.5,-1282.5"/>
<text text-anchor="start" x="53.5" y="-1293.9" font-family="Arial" font-size="14.00" fill="#000000">moduleId </text>
<text text-anchor="start" x="114.9614" y="-1293.9" font-family="Arial" font-size="14.00" fill="#666666">[int(11)]</text>
<polygon fill="none" stroke="#000000" points="46.5,-1252.5 46.5,-1282.5 311.5,-1282.5 311.5,-1252.5 46.5,-1252.5"/>
<text text-anchor="start" x="53.5" y="-1263.9" font-family="Arial" font-size="14.00" fill="#000000">datetime </text>
<text text-anchor="start" x="111.0694" y="-1263.9" font-family="Arial" font-size="14.00" fill="#666666">[datetime]</text>
<polygon fill="none" stroke="#000000" points="46.5,-1222.5 46.5,-1252.5 311.5,-1252.5 311.5,-1222.5 46.5,-1222.5"/>
<text text-anchor="start" x="53.5" y="-1233.9" font-family="Arial" font-size="14.00" fill="#000000">url </text>
<text text-anchor="start" x="72.9404" y="-1233.9" font-family="Arial" font-size="14.00" fill="#666666">[varchar(255)]</text>
<polygon fill="none" stroke="#000000" points="46.5,-1192.5 46.5,-1222.5 311.5,-1222.5 311.5,-1192.5 46.5,-1192.5"/>
<text text-anchor="start" x="53.5" y="-1203.9" font-family="Arial" font-size="14.00" fill="#000000">authorId </text>
<text text-anchor="start" x="108.7454" y="-1203.9" font-family="Arial" font-size="14.00" fill="#666666">[int(11)]</text>
<polygon fill="none" stroke="#000000" points="46.5,-1162.5 46.5,-1192.5 311.5,-1192.5 311.5,-1162.5 46.5,-1162.5"/>
<text text-anchor="start" x="53.5" y="-1173.9" font-family="Arial" font-size="14.00" fill="#000000">message </text>
<text text-anchor="start" x="114.1816" y="-1173.9" font-family="Arial" font-size="14.00" fill="#666666">[text]</text>
<polygon fill="none" stroke="#000000" stroke-width="3" points="44.5,-1161.5 44.5,-1499.5 312.5,-1499.5 312.5,-1161.5 44.5,-1161.5"/>
</g>
<!-- zp_user -->
<g id="node2" class="node">
<title>zp_user</title>
<polygon fill="#efefef" stroke="transparent" points="66.5,-1002.5 66.5,-1037.5 292.5,-1037.5 292.5,-1002.5 66.5,-1002.5"/>
<polygon fill="none" stroke="#000000" points="66.5,-1002.5 66.5,-1037.5 292.5,-1037.5 292.5,-1002.5 66.5,-1002.5"/>
<text text-anchor="start" x="83.7075" y="-1015.3" font-family="Arial Bold" font-size="18.00" fill="#000000">zp_user</text>
<text text-anchor="start" x="147.7245" y="-1015.3" font-family="Arial" font-size="14.00" fill="#000000">    </text>
<text text-anchor="start" x="181.9293" y="-1015.3" font-family="Arial" font-size="14.00" fill="#666666">[BASE TABLE]</text>
<polygon fill="none" stroke="#000000" points="66.5,-972.5 66.5,-1002.5 292.5,-1002.5 292.5,-972.5 66.5,-972.5"/>
<text text-anchor="start" x="73.5" y="-983.9" font-family="Arial" font-size="14.00" fill="#000000">id    </text>
<text text-anchor="start" x="118.594" y="-983.9" font-family="Arial" font-size="14.00" fill="#666666">[int(11)]</text>
<polygon fill="none" stroke="#000000" points="66.5,-942.5 66.5,-972.5 292.5,-972.5 292.5,-942.5 66.5,-942.5"/>
<text text-anchor="start" x="73.5" y="-953.9" font-family="Arial" font-size="14.00" fill="#000000">username    </text>
<text text-anchor="start" x="169.939" y="-953.9" font-family="Arial" font-size="14.00" fill="#666666">[varchar(175)]</text>
<polygon fill="none" stroke="#000000" points="66.5,-912.5 66.5,-942.5 292.5,-942.5 292.5,-912.5 66.5,-912.5"/>
<text text-anchor="start" x="73.5" y="-923.9" font-family="Arial" font-size="14.00" fill="#000000">password    </text>
<text text-anchor="start" x="167.6024" y="-923.9" font-family="Arial" font-size="14.00" fill="#666666">[varchar(255)]</text>
<polygon fill="none" stroke="#000000" points="66.5,-882.5 66.5,-912.5 292.5,-912.5 292.5,-882.5 66.5,-882.5"/>
<text text-anchor="start" x="73.5" y="-893.9" font-family="Arial" font-size="14.00" fill="#000000">firstname    </text>
<text text-anchor="start" x="165.2616" y="-893.9" font-family="Arial" font-size="14.00" fill="#666666">[varchar(100)]</text>
<polygon fill="none" stroke="#000000" points="66.5,-852.5 66.5,-882.5 292.5,-882.5 292.5,-852.5 66.5,-852.5"/>
<text text-anchor="start" x="73.5" y="-863.9" font-family="Arial" font-size="14.00" fill="#000000">lastname    </text>
<text text-anchor="start" x="164.493" y="-863.9" font-family="Arial" font-size="14.00" fill="#666666">[varchar(100)]</text>
<polygon fill="none" stroke="#000000" points="66.5,-822.5 66.5,-852.5 292.5,-852.5 292.5,-822.5 66.5,-822.5"/>
<text text-anchor="start" x="73.5" y="-833.9" font-family="Arial" font-size="14.00" fill="#000000">phone    </text>
<text text-anchor="start" x="146.6178" y="-833.9" font-family="Arial" font-size="14.00" fill="#666666">[varchar(25)]</text>
<polygon fill="none" stroke="#000000" points="66.5,-792.5 66.5,-822.5 292.5,-822.5 292.5,-792.5 66.5,-792.5"/>
<text text-anchor="start" x="73.5" y="-803.9" font-family="Arial" font-size="14.00" fill="#000000">profileId    </text>
<text text-anchor="start" x="157.4902" y="-803.9" font-family="Arial" font-size="14.00" fill="#666666">[varchar(100)]</text>
<polygon fill="none" stroke="#000000" points="66.5,-762.5 66.5,-792.5 292.5,-792.5 292.5,-762.5 66.5,-762.5"/>
<text text-anchor="start" x="73.5" y="-773.9" font-family="Arial" font-size="14.00" fill="#000000">lastlogin    </text>
<text text-anchor="start" x="159.0456" y="-773.9" font-family="Arial" font-size="14.00" fill="#666666">[datetime]</text>
<polygon fill="none" stroke="#000000" points="66.5,-732.5 66.5,-762.5 292.5,-762.5 292.5,-732.5 66.5,-732.5"/>
<text text-anchor="start" x="73.5" y="-743.9" font-family="Arial" font-size="14.00" fill="#000000">status    </text>
<text text-anchor="start" x="145.0512" y="-743.9" font-family="Arial" font-size="14.00" fill="#666666">[varchar(1)]</text>
<polygon fill="none" stroke="#000000" points="66.5,-702.5 66.5,-732.5 292.5,-732.5 292.5,-702.5 66.5,-702.5"/>
<text text-anchor="start" x="73.5" y="-713.9" font-family="Arial" font-size="14.00" fill="#000000">expires    </text>
<text text-anchor="start" x="152.8198" y="-713.9" font-family="Arial" font-size="14.00" fill="#666666">[datetime]</text>
<polygon fill="none" stroke="#000000" points="66.5,-672.5 66.5,-702.5 292.5,-702.5 292.5,-672.5 66.5,-672.5"/>
<text text-anchor="start" x="73.5" y="-683.9" font-family="Arial" font-size="14.00" fill="#000000">role    </text>
<text text-anchor="start" x="131.0372" y="-683.9" font-family="Arial" font-size="14.00" fill="#666666">[varchar(200)]</text>
<polygon fill="none" stroke="#000000" points="66.5,-642.5 66.5,-672.5 292.5,-672.5 292.5,-642.5 66.5,-642.5"/>
<text text-anchor="start" x="73.5" y="-653.9" font-family="Arial" font-size="14.00" fill="#000000">session    </text>
<text text-anchor="start" x="155.1592" y="-653.9" font-family="Arial" font-size="14.00" fill="#666666">[varchar(100)]</text>
<polygon fill="none" stroke="#000000" points="66.5,-612.5 66.5,-642.5 292.5,-642.5 292.5,-612.5 66.5,-612.5"/>
<text text-anchor="start" x="73.5" y="-623.9" font-family="Arial" font-size="14.00" fill="#000000">sessiontime    </text>
<text text-anchor="start" x="181.5996" y="-623.9" font-family="Arial" font-size="14.00" fill="#666666">[varchar(50)]</text>
<polygon fill="none" stroke="#000000" points="66.5,-582.5 66.5,-612.5 292.5,-612.5 292.5,-582.5 66.5,-582.5"/>
<text text-anchor="start" x="73.5" y="-593.9" font-family="Arial" font-size="14.00" fill="#000000">wage    </text>
<text text-anchor="start" x="141.1592" y="-593.9" font-family="Arial" font-size="14.00" fill="#666666">[int(11)]</text>
<polygon fill="none" stroke="#000000" points="66.5,-552.5 66.5,-582.5 292.5,-582.5 292.5,-552.5 66.5,-552.5"/>
<text text-anchor="start" x="73.5" y="-563.9" font-family="Arial" font-size="14.00" fill="#000000">hours    </text>
<text text-anchor="start" x="142.7132" y="-563.9" font-family="Arial" font-size="14.00" fill="#666666">[int(11)]</text>
<polygon fill="none" stroke="#000000" points="66.5,-522.5 66.5,-552.5 292.5,-552.5 292.5,-522.5 66.5,-522.5"/>
<text text-anchor="start" x="73.5" y="-533.9" font-family="Arial" font-size="14.00" fill="#000000">description    </text>
<text text-anchor="start" x="175.3822" y="-533.9" font-family="Arial" font-size="14.00" fill="#666666">[text]</text>
<polygon fill="none" stroke="#000000" points="66.5,-492.5 66.5,-522.5 292.5,-522.5 292.5,-492.5 66.5,-492.5"/>
<text text-anchor="start" x="73.5" y="-503.9" font-family="Arial" font-size="14.00" fill="#000000">clientId    </text>
<text text-anchor="start" x="152.047" y="-503.9" font-family="Arial" font-size="14.00" fill="#666666">[int(11)]</text>
<polygon fill="none" stroke="#000000" points="66.5,-462.5 66.5,-492.5 292.5,-492.5 292.5,-462.5 66.5,-462.5"/>
<text text-anchor="start" x="73.5" y="-473.9" font-family="Arial" font-size="14.00" fill="#000000">notifications    </text>
<text text-anchor="start" x="181.6094" y="-473.9" font-family="Arial" font-size="14.00" fill="#666666">[int(2)]</text>
<polygon fill="none" stroke="#000000" points="66.5,-432.5 66.5,-462.5 292.5,-462.5 292.5,-432.5 66.5,-432.5"/>
<text text-anchor="start" x="73.5" y="-443.9" font-family="Arial" font-size="14.00" fill="#000000">pwReset    </text>
<text text-anchor="start" x="162.1564" y="-443.9" font-family="Arial" font-size="14.00" fill="#666666">[varchar(100)]</text>
<polygon fill="none" stroke="#000000" points="66.5,-402.5 66.5,-432.5 292.5,-432.5 292.5,-402.5 66.5,-402.5"/>
<text text-anchor="start" x="73.3261" y="-413.9" font-family="Arial" font-size="14.00" fill="#000000">pwResetExpiration    </text>
<text text-anchor="start" x="224.2139" y="-413.9" font-family="Arial" font-size="14.00" fill="#666666">[datetime]</text>
<polygon fill="none" stroke="#000000" points="66.5,-372.5 66.5,-402.5 292.5,-402.5 292.5,-372.5 66.5,-372.5"/>
<text text-anchor="start" x="73.5" y="-383.9" font-family="Arial" font-size="14.00" fill="#000000">pwResetCount    </text>
<text text-anchor="start" x="199.5014" y="-383.9" font-family="Arial" font-size="14.00" fill="#666666">[int(5)]</text>
<polygon fill="none" stroke="#000000" points="66.5,-342.5 66.5,-372.5 292.5,-372.5 292.5,-342.5 66.5,-342.5"/>
<text text-anchor="start" x="73.5" y="-353.9" font-family="Arial" font-size="14.00" fill="#000000">forcePwReset    </text>
<text text-anchor="start" x="194.8268" y="-353.9" font-family="Arial" font-size="14.00" fill="#666666">[tinyint(4)]</text>
<polygon fill="none" stroke="#000000" points="66.5,-312.5 66.5,-342.5 292.5,-342.5 292.5,-312.5 66.5,-312.5"/>
<text text-anchor="start" x="73.5" y="-323.9" font-family="Arial" font-size="14.00" fill="#000000">lastpwd_change    </text>
<text text-anchor="start" x="208.852" y="-323.9" font-family="Arial" font-size="14.00" fill="#666666">[datetime]</text>
<polygon fill="none" stroke="#000000" points="66.5,-282.5 66.5,-312.5 292.5,-312.5 292.5,-282.5 66.5,-282.5"/>
<text text-anchor="start" x="73.5" y="-293.9" font-family="Arial" font-size="14.00" fill="#000000">settings    </text>
<text text-anchor="start" x="155.9404" y="-293.9" font-family="Arial" font-size="14.00" fill="#666666">[text]</text>
<polygon fill="none" stroke="#000000" points="66.5,-252.5 66.5,-282.5 292.5,-282.5 292.5,-252.5 66.5,-252.5"/>
<text text-anchor="start" x="73.5" y="-263.9" font-family="Arial" font-size="14.00" fill="#000000">twoFAEnabled    </text>
<text text-anchor="start" x="198.73" y="-263.9" font-family="Arial" font-size="14.00" fill="#666666">[tinyint(1)]</text>
<polygon fill="none" stroke="#000000" points="66.5,-222.5 66.5,-252.5 292.5,-252.5 292.5,-222.5 66.5,-222.5"/>
<text text-anchor="start" x="73.5" y="-233.9" font-family="Arial" font-size="14.00" fill="#000000">twoFASecret    </text>
<text text-anchor="start" x="187.8268" y="-233.9" font-family="Arial" font-size="14.00" fill="#666666">[varchar(200)]</text>
<polygon fill="none" stroke="#000000" points="66.5,-192.5 66.5,-222.5 292.5,-222.5 292.5,-192.5 66.5,-192.5"/>
<text text-anchor="start" x="73.5" y="-203.9" font-family="Arial" font-size="14.00" fill="#000000">createdOn    </text>
<text text-anchor="start" x="173.0596" y="-203.9" font-family="Arial" font-size="14.00" fill="#666666">[datetime]</text>
<polygon fill="none" stroke="#000000" points="66.5,-162.5 66.5,-192.5 292.5,-192.5 292.5,-162.5 66.5,-162.5"/>
<text text-anchor="start" x="73.5" y="-173.9" font-family="Arial" font-size="14.00" fill="#000000">source    </text>
<text text-anchor="start" x="149.7132" y="-173.9" font-family="Arial" font-size="14.00" fill="#666666">[varchar(200)]</text>
<polygon fill="none" stroke="#000000" points="66.5,-132.5 66.5,-162.5 292.5,-162.5 292.5,-132.5 66.5,-132.5"/>
<text text-anchor="start" x="73.5" y="-143.9" font-family="Arial" font-size="14.00" fill="#000000">jobTitle    </text>
<text text-anchor="start" x="152.8156" y="-143.9" font-family="Arial" font-size="14.00" fill="#666666">[varchar(200)]</text>
<polygon fill="none" stroke="#000000" points="66.5,-102.5 66.5,-132.5 292.5,-132.5 292.5,-102.5 66.5,-102.5"/>
<text text-anchor="start" x="73.5" y="-113.9" font-family="Arial" font-size="14.00" fill="#000000">jobLevel    </text>
<text text-anchor="start" x="159.831" y="-113.9" font-family="Arial" font-size="14.00" fill="#666666">[varchar(50)]</text>
<polygon fill="none" stroke="#000000" points="66.5,-72.5 66.5,-102.5 292.5,-102.5 292.5,-72.5 66.5,-72.5"/>
<text text-anchor="start" x="73.5" y="-83.9" font-family="Arial" font-size="14.00" fill="#000000">department    </text>
<text text-anchor="start" x="178.5028" y="-83.9" font-family="Arial" font-size="14.00" fill="#666666">[varchar(200)]</text>
<polygon fill="none" stroke="#000000" points="66.5,-42.5 66.5,-72.5 292.5,-72.5 292.5,-42.5 66.5,-42.5"/>
<text text-anchor="start" x="73.5" y="-53.9" font-family="Arial" font-size="14.00" fill="#000000">modified    </text>
<text text-anchor="start" x="160.5996" y="-53.9" font-family="Arial" font-size="14.00" fill="#666666">[datetime]</text>
</g>
<!-- zp_notifications&#45;&gt;zp_user -->
<g id="edge1" class="edge">
<title>zp_notifications:userId&#45;&gt;zp_user:id</title>
<path fill="none" stroke="#000000" stroke-dasharray="5,2" d="M321.3246,-1415.4805C375.7816,-1391.6911 352.85,-1164.87 311.5,-1117 239.5561,-1033.7122 138.4439,-1164.2878 66.5,-1081 39.3355,-1049.5523 24.9444,-987.5 66.5,-987.5"/>
<polygon fill="#000000" stroke="#000000" points="321.2952,-1415.4865 310.5939,-1413.0922 316.3976,-1416.4932 311.5,-1417.5 311.5,-1417.5 311.5,-1417.5 316.3976,-1416.4932 312.4061,-1421.9078 321.2952,-1415.4865 321.2952,-1415.4865"/>
<text text-anchor="start" x="318.8245" y="-1427.5" font-family="Arial" font-size="10.00" fill="#000000">Additional Relation</text>
</g>
</g>
</svg>
