<?xml version="1.0" encoding="UTF-8" standalone="no"?>
<!DOCTYPE svg PUBLIC "-//W3C//DTD SVG 1.1//EN"
 "http://www.w3.org/Graphics/SVG/1.1/DTD/svg11.dtd">
<!-- Generated by graphviz version 2.40.1 (20161225.0304)
 -->
<!-- Title: zp_punch_clock Pages: 1 -->
<svg width="421pt" height="1402pt"
 viewBox="0.00 0.00 421.00 1402.00" xmlns="http://www.w3.org/2000/svg" xmlns:xlink="http://www.w3.org/1999/xlink">
<g id="graph0" class="graph" transform="scale(1 1) rotate(0) translate(4 1398)">
<title>zp_punch_clock</title>
<polygon fill="#ffffff" stroke="transparent" points="-4,4 -4,-1398 417,-1398 417,4 -4,4"/>
<!-- zp_punch_clock -->
<g id="node1" class="node">
<title>zp_punch_clock</title>
<polygon fill="#efefef" stroke="transparent" points="46,-1312.5 46,-1347.5 316,-1347.5 316,-1312.5 46,-1312.5"/>
<polygon fill="none" stroke="#000000" points="46,-1312.5 46,-1347.5 316,-1347.5 316,-1312.5 46,-1312.5"/>
<text text-anchor="start" x="52.6941" y="-1325.3" font-family="Arial Bold" font-size="18.00" fill="#000000">zp_punch_clock</text>
<text text-anchor="start" x="181.7379" y="-1325.3" font-family="Arial" font-size="14.00" fill="#000000">    </text>
<text text-anchor="start" x="215.9427" y="-1325.3" font-family="Arial" font-size="14.00" fill="#666666">[BASE TABLE]</text>
<polygon fill="none" stroke="#000000" points="46,-1282.5 46,-1312.5 316,-1312.5 316,-1282.5 46,-1282.5"/>
<text text-anchor="start" x="53" y="-1293.9" font-family="Arial" font-size="14.00" fill="#000000">id </text>
<text text-anchor="start" x="67.7798" y="-1293.9" font-family="Arial" font-size="14.00" fill="#666666">[int(11) unsigned]</text>
<polygon fill="none" stroke="#000000" points="46,-1252.5 46,-1282.5 316,-1282.5 316,-1252.5 46,-1252.5"/>
<text text-anchor="start" x="53" y="-1263.9" font-family="Arial" font-size="14.00" fill="#000000">userId </text>
<text text-anchor="start" x="95.7896" y="-1263.9" font-family="Arial" font-size="14.00" fill="#666666">[int(11)]</text>
<polygon fill="none" stroke="#000000" points="46,-1222.5 46,-1252.5 316,-1252.5 316,-1222.5 46,-1222.5"/>
<text text-anchor="start" x="53" y="-1233.9" font-family="Arial" font-size="14.00" fill="#000000">minutes </text>
<text text-anchor="start" x="105.8962" y="-1233.9" font-family="Arial" font-size="14.00" fill="#666666">[int(11)]</text>
<polygon fill="none" stroke="#000000" points="46,-1192.5 46,-1222.5 316,-1222.5 316,-1192.5 46,-1192.5"/>
<text text-anchor="start" x="53" y="-1203.9" font-family="Arial" font-size="14.00" fill="#000000">hours </text>
<text text-anchor="start" x="91.899" y="-1203.9" font-family="Arial" font-size="14.00" fill="#666666">[int(11)]</text>
<polygon fill="none" stroke="#000000" points="46,-1162.5 46,-1192.5 316,-1192.5 316,-1162.5 46,-1162.5"/>
<text text-anchor="start" x="53" y="-1173.9" font-family="Arial" font-size="14.00" fill="#000000">punchIn </text>
<text text-anchor="start" x="106.6942" y="-1173.9" font-family="Arial" font-size="14.00" fill="#666666">[int(11)]</text>
<polygon fill="none" stroke="#000000" stroke-width="3" points="44.5,-1161.5 44.5,-1349.5 317.5,-1349.5 317.5,-1161.5 44.5,-1161.5"/>
</g>
<!-- zp_user -->
<g id="node2" class="node">
<title>zp_user</title>
<polygon fill="#efefef" stroke="transparent" points="68,-1002.5 68,-1037.5 294,-1037.5 294,-1002.5 68,-1002.5"/>
<polygon fill="none" stroke="#000000" points="68,-1002.5 68,-1037.5 294,-1037.5 294,-1002.5 68,-1002.5"/>
<text text-anchor="start" x="85.2075" y="-1015.3" font-family="Arial Bold" font-size="18.00" fill="#000000">zp_user</text>
<text text-anchor="start" x="149.2245" y="-1015.3" font-family="Arial" font-size="14.00" fill="#000000">    </text>
<text text-anchor="start" x="183.4293" y="-1015.3" font-family="Arial" font-size="14.00" fill="#666666">[BASE TABLE]</text>
<polygon fill="none" stroke="#000000" points="68,-972.5 68,-1002.5 294,-1002.5 294,-972.5 68,-972.5"/>
<text text-anchor="start" x="75" y="-983.9" font-family="Arial" font-size="14.00" fill="#000000">id    </text>
<text text-anchor="start" x="120.094" y="-983.9" font-family="Arial" font-size="14.00" fill="#666666">[int(11)]</text>
<polygon fill="none" stroke="#000000" points="68,-942.5 68,-972.5 294,-972.5 294,-942.5 68,-942.5"/>
<text text-anchor="start" x="75" y="-953.9" font-family="Arial" font-size="14.00" fill="#000000">username    </text>
<text text-anchor="start" x="171.439" y="-953.9" font-family="Arial" font-size="14.00" fill="#666666">[varchar(175)]</text>
<polygon fill="none" stroke="#000000" points="68,-912.5 68,-942.5 294,-942.5 294,-912.5 68,-912.5"/>
<text text-anchor="start" x="75" y="-923.9" font-family="Arial" font-size="14.00" fill="#000000">password    </text>
<text text-anchor="start" x="169.1024" y="-923.9" font-family="Arial" font-size="14.00" fill="#666666">[varchar(255)]</text>
<polygon fill="none" stroke="#000000" points="68,-882.5 68,-912.5 294,-912.5 294,-882.5 68,-882.5"/>
<text text-anchor="start" x="75" y="-893.9" font-family="Arial" font-size="14.00" fill="#000000">firstname    </text>
<text text-anchor="start" x="166.7616" y="-893.9" font-family="Arial" font-size="14.00" fill="#666666">[varchar(100)]</text>
<polygon fill="none" stroke="#000000" points="68,-852.5 68,-882.5 294,-882.5 294,-852.5 68,-852.5"/>
<text text-anchor="start" x="75" y="-863.9" font-family="Arial" font-size="14.00" fill="#000000">lastname    </text>
<text text-anchor="start" x="165.993" y="-863.9" font-family="Arial" font-size="14.00" fill="#666666">[varchar(100)]</text>
<polygon fill="none" stroke="#000000" points="68,-822.5 68,-852.5 294,-852.5 294,-822.5 68,-822.5"/>
<text text-anchor="start" x="75" y="-833.9" font-family="Arial" font-size="14.00" fill="#000000">phone    </text>
<text text-anchor="start" x="148.1178" y="-833.9" font-family="Arial" font-size="14.00" fill="#666666">[varchar(25)]</text>
<polygon fill="none" stroke="#000000" points="68,-792.5 68,-822.5 294,-822.5 294,-792.5 68,-792.5"/>
<text text-anchor="start" x="75" y="-803.9" font-family="Arial" font-size="14.00" fill="#000000">profileId    </text>
<text text-anchor="start" x="158.9902" y="-803.9" font-family="Arial" font-size="14.00" fill="#666666">[varchar(100)]</text>
<polygon fill="none" stroke="#000000" points="68,-762.5 68,-792.5 294,-792.5 294,-762.5 68,-762.5"/>
<text text-anchor="start" x="75" y="-773.9" font-family="Arial" font-size="14.00" fill="#000000">lastlogin    </text>
<text text-anchor="start" x="160.5456" y="-773.9" font-family="Arial" font-size="14.00" fill="#666666">[datetime]</text>
<polygon fill="none" stroke="#000000" points="68,-732.5 68,-762.5 294,-762.5 294,-732.5 68,-732.5"/>
<text text-anchor="start" x="75" y="-743.9" font-family="Arial" font-size="14.00" fill="#000000">status    </text>
<text text-anchor="start" x="146.5512" y="-743.9" font-family="Arial" font-size="14.00" fill="#666666">[varchar(1)]</text>
<polygon fill="none" stroke="#000000" points="68,-702.5 68,-732.5 294,-732.5 294,-702.5 68,-702.5"/>
<text text-anchor="start" x="75" y="-713.9" font-family="Arial" font-size="14.00" fill="#000000">expires    </text>
<text text-anchor="start" x="154.3198" y="-713.9" font-family="Arial" font-size="14.00" fill="#666666">[datetime]</text>
<polygon fill="none" stroke="#000000" points="68,-672.5 68,-702.5 294,-702.5 294,-672.5 68,-672.5"/>
<text text-anchor="start" x="75" y="-683.9" font-family="Arial" font-size="14.00" fill="#000000">role    </text>
<text text-anchor="start" x="132.5372" y="-683.9" font-family="Arial" font-size="14.00" fill="#666666">[varchar(200)]</text>
<polygon fill="none" stroke="#000000" points="68,-642.5 68,-672.5 294,-672.5 294,-642.5 68,-642.5"/>
<text text-anchor="start" x="75" y="-653.9" font-family="Arial" font-size="14.00" fill="#000000">session    </text>
<text text-anchor="start" x="156.6592" y="-653.9" font-family="Arial" font-size="14.00" fill="#666666">[varchar(100)]</text>
<polygon fill="none" stroke="#000000" points="68,-612.5 68,-642.5 294,-642.5 294,-612.5 68,-612.5"/>
<text text-anchor="start" x="75" y="-623.9" font-family="Arial" font-size="14.00" fill="#000000">sessiontime    </text>
<text text-anchor="start" x="183.0996" y="-623.9" font-family="Arial" font-size="14.00" fill="#666666">[varchar(50)]</text>
<polygon fill="none" stroke="#000000" points="68,-582.5 68,-612.5 294,-612.5 294,-582.5 68,-582.5"/>
<text text-anchor="start" x="75" y="-593.9" font-family="Arial" font-size="14.00" fill="#000000">wage    </text>
<text text-anchor="start" x="142.6592" y="-593.9" font-family="Arial" font-size="14.00" fill="#666666">[int(11)]</text>
<polygon fill="none" stroke="#000000" points="68,-552.5 68,-582.5 294,-582.5 294,-552.5 68,-552.5"/>
<text text-anchor="start" x="75" y="-563.9" font-family="Arial" font-size="14.00" fill="#000000">hours    </text>
<text text-anchor="start" x="144.2132" y="-563.9" font-family="Arial" font-size="14.00" fill="#666666">[int(11)]</text>
<polygon fill="none" stroke="#000000" points="68,-522.5 68,-552.5 294,-552.5 294,-522.5 68,-522.5"/>
<text text-anchor="start" x="75" y="-533.9" font-family="Arial" font-size="14.00" fill="#000000">description    </text>
<text text-anchor="start" x="176.8822" y="-533.9" font-family="Arial" font-size="14.00" fill="#666666">[text]</text>
<polygon fill="none" stroke="#000000" points="68,-492.5 68,-522.5 294,-522.5 294,-492.5 68,-492.5"/>
<text text-anchor="start" x="75" y="-503.9" font-family="Arial" font-size="14.00" fill="#000000">clientId    </text>
<text text-anchor="start" x="153.547" y="-503.9" font-family="Arial" font-size="14.00" fill="#666666">[int(11)]</text>
<polygon fill="none" stroke="#000000" points="68,-462.5 68,-492.5 294,-492.5 294,-462.5 68,-462.5"/>
<text text-anchor="start" x="75" y="-473.9" font-family="Arial" font-size="14.00" fill="#000000">notifications    </text>
<text text-anchor="start" x="183.1094" y="-473.9" font-family="Arial" font-size="14.00" fill="#666666">[int(2)]</text>
<polygon fill="none" stroke="#000000" points="68,-432.5 68,-462.5 294,-462.5 294,-432.5 68,-432.5"/>
<text text-anchor="start" x="75" y="-443.9" font-family="Arial" font-size="14.00" fill="#000000">pwReset    </text>
<text text-anchor="start" x="163.6564" y="-443.9" font-family="Arial" font-size="14.00" fill="#666666">[varchar(100)]</text>
<polygon fill="none" stroke="#000000" points="68,-402.5 68,-432.5 294,-432.5 294,-402.5 68,-402.5"/>
<text text-anchor="start" x="74.8261" y="-413.9" font-family="Arial" font-size="14.00" fill="#000000">pwResetExpiration    </text>
<text text-anchor="start" x="225.7139" y="-413.9" font-family="Arial" font-size="14.00" fill="#666666">[datetime]</text>
<polygon fill="none" stroke="#000000" points="68,-372.5 68,-402.5 294,-402.5 294,-372.5 68,-372.5"/>
<text text-anchor="start" x="75" y="-383.9" font-family="Arial" font-size="14.00" fill="#000000">pwResetCount    </text>
<text text-anchor="start" x="201.0014" y="-383.9" font-family="Arial" font-size="14.00" fill="#666666">[int(5)]</text>
<polygon fill="none" stroke="#000000" points="68,-342.5 68,-372.5 294,-372.5 294,-342.5 68,-342.5"/>
<text text-anchor="start" x="75" y="-353.9" font-family="Arial" font-size="14.00" fill="#000000">forcePwReset    </text>
<text text-anchor="start" x="196.3268" y="-353.9" font-family="Arial" font-size="14.00" fill="#666666">[tinyint(4)]</text>
<polygon fill="none" stroke="#000000" points="68,-312.5 68,-342.5 294,-342.5 294,-312.5 68,-312.5"/>
<text text-anchor="start" x="75" y="-323.9" font-family="Arial" font-size="14.00" fill="#000000">lastpwd_change    </text>
<text text-anchor="start" x="210.352" y="-323.9" font-family="Arial" font-size="14.00" fill="#666666">[datetime]</text>
<polygon fill="none" stroke="#000000" points="68,-282.5 68,-312.5 294,-312.5 294,-282.5 68,-282.5"/>
<text text-anchor="start" x="75" y="-293.9" font-family="Arial" font-size="14.00" fill="#000000">settings    </text>
<text text-anchor="start" x="157.4404" y="-293.9" font-family="Arial" font-size="14.00" fill="#666666">[text]</text>
<polygon fill="none" stroke="#000000" points="68,-252.5 68,-282.5 294,-282.5 294,-252.5 68,-252.5"/>
<text text-anchor="start" x="75" y="-263.9" font-family="Arial" font-size="14.00" fill="#000000">twoFAEnabled    </text>
<text text-anchor="start" x="200.23" y="-263.9" font-family="Arial" font-size="14.00" fill="#666666">[tinyint(1)]</text>
<polygon fill="none" stroke="#000000" points="68,-222.5 68,-252.5 294,-252.5 294,-222.5 68,-222.5"/>
<text text-anchor="start" x="75" y="-233.9" font-family="Arial" font-size="14.00" fill="#000000">twoFASecret    </text>
<text text-anchor="start" x="189.3268" y="-233.9" font-family="Arial" font-size="14.00" fill="#666666">[varchar(200)]</text>
<polygon fill="none" stroke="#000000" points="68,-192.5 68,-222.5 294,-222.5 294,-192.5 68,-192.5"/>
<text text-anchor="start" x="75" y="-203.9" font-family="Arial" font-size="14.00" fill="#000000">createdOn    </text>
<text text-anchor="start" x="174.5596" y="-203.9" font-family="Arial" font-size="14.00" fill="#666666">[datetime]</text>
<polygon fill="none" stroke="#000000" points="68,-162.5 68,-192.5 294,-192.5 294,-162.5 68,-162.5"/>
<text text-anchor="start" x="75" y="-173.9" font-family="Arial" font-size="14.00" fill="#000000">source    </text>
<text text-anchor="start" x="151.2132" y="-173.9" font-family="Arial" font-size="14.00" fill="#666666">[varchar(200)]</text>
<polygon fill="none" stroke="#000000" points="68,-132.5 68,-162.5 294,-162.5 294,-132.5 68,-132.5"/>
<text text-anchor="start" x="75" y="-143.9" font-family="Arial" font-size="14.00" fill="#000000">jobTitle    </text>
<text text-anchor="start" x="154.3156" y="-143.9" font-family="Arial" font-size="14.00" fill="#666666">[varchar(200)]</text>
<polygon fill="none" stroke="#000000" points="68,-102.5 68,-132.5 294,-132.5 294,-102.5 68,-102.5"/>
<text text-anchor="start" x="75" y="-113.9" font-family="Arial" font-size="14.00" fill="#000000">jobLevel    </text>
<text text-anchor="start" x="161.331" y="-113.9" font-family="Arial" font-size="14.00" fill="#666666">[varchar(50)]</text>
<polygon fill="none" stroke="#000000" points="68,-72.5 68,-102.5 294,-102.5 294,-72.5 68,-72.5"/>
<text text-anchor="start" x="75" y="-83.9" font-family="Arial" font-size="14.00" fill="#000000">department    </text>
<text text-anchor="start" x="180.0028" y="-83.9" font-family="Arial" font-size="14.00" fill="#666666">[varchar(200)]</text>
<polygon fill="none" stroke="#000000" points="68,-42.5 68,-72.5 294,-72.5 294,-42.5 68,-42.5"/>
<text text-anchor="start" x="75" y="-53.9" font-family="Arial" font-size="14.00" fill="#000000">modified    </text>
<text text-anchor="start" x="162.0996" y="-53.9" font-family="Arial" font-size="14.00" fill="#666666">[datetime]</text>
</g>
<!-- zp_punch_clock&#45;&gt;zp_user -->
<g id="edge1" class="edge">
<title>zp_punch_clock:userId&#45;&gt;zp_user:id</title>
<path fill="none" stroke="#000000" stroke-dasharray="5,2" d="M325.8011,-1264.9069C375.7921,-1236.6795 352.8788,-987.5 294,-987.5"/>
<polygon fill="#000000" stroke="#000000" points="325.6674,-1264.9422 314.849,-1263.1497 320.8337,-1266.2211 316,-1267.5 316,-1267.5 316,-1267.5 320.8337,-1266.2211 317.151,-1271.8503 325.6674,-1264.9422 325.6674,-1264.9422"/>
<text text-anchor="start" x="323.3245" y="-1277.5" font-family="Arial" font-size="10.00" fill="#000000">Additional Relation</text>
</g>
</g>
</svg>
