<?xml version="1.0" encoding="UTF-8" standalone="no"?>
<!DOCTYPE svg PUBLIC "-//W3C//DTD SVG 1.1//EN"
 "http://www.w3.org/Graphics/SVG/1.1/DTD/svg11.dtd">
<!-- Generated by graphviz version 2.40.1 (20161225.0304)
 -->
<!-- Title: zp_queue Pages: 1 -->
<svg width="658pt" height="1462pt"
 viewBox="0.00 0.00 657.50 1462.00" xmlns="http://www.w3.org/2000/svg" xmlns:xlink="http://www.w3.org/1999/xlink">
<g id="graph0" class="graph" transform="scale(1 1) rotate(0) translate(4 1458)">
<title>zp_queue</title>
<polygon fill="#ffffff" stroke="transparent" points="-4,4 -4,-1458 653.5,-1458 653.5,4 -4,4"/>
<!-- zp_queue -->
<g id="node1" class="node">
<title>zp_queue</title>
<polygon fill="#efefef" stroke="transparent" points="213,-1372.5 213,-1407.5 433,-1407.5 433,-1372.5 213,-1372.5"/>
<polygon fill="none" stroke="#000000" points="213,-1372.5 213,-1407.5 433,-1407.5 433,-1372.5 213,-1372.5"/>
<text text-anchor="start" x="219.6943" y="-1385.3" font-family="Arial Bold" font-size="18.00" fill="#000000">zp_queue</text>
<text text-anchor="start" x="298.7377" y="-1385.3" font-family="Arial" font-size="14.00" fill="#000000">    </text>
<text text-anchor="start" x="332.9425" y="-1385.3" font-family="Arial" font-size="14.00" fill="#666666">[BASE TABLE]</text>
<polygon fill="none" stroke="#000000" points="213,-1342.5 213,-1372.5 433,-1372.5 433,-1342.5 213,-1342.5"/>
<text text-anchor="start" x="220" y="-1353.9" font-family="Arial" font-size="14.00" fill="#000000">msghash </text>
<text text-anchor="start" x="280.6816" y="-1353.9" font-family="Arial" font-size="14.00" fill="#666666">[varchar(50)]</text>
<polygon fill="none" stroke="#000000" points="213,-1312.5 213,-1342.5 433,-1342.5 433,-1312.5 213,-1312.5"/>
<text text-anchor="start" x="220" y="-1323.9" font-family="Arial" font-size="14.00" fill="#000000">channel </text>
<text text-anchor="start" x="272.9102" y="-1323.9" font-family="Arial" font-size="14.00" fill="#666666">[varchar(255)]</text>
<polygon fill="none" stroke="#000000" points="213,-1282.5 213,-1312.5 433,-1312.5 433,-1282.5 213,-1282.5"/>
<text text-anchor="start" x="220" y="-1293.9" font-family="Arial" font-size="14.00" fill="#000000">userId </text>
<text text-anchor="start" x="262.7896" y="-1293.9" font-family="Arial" font-size="14.00" fill="#666666">[int(11)]</text>
<polygon fill="none" stroke="#000000" points="213,-1252.5 213,-1282.5 433,-1282.5 433,-1252.5 213,-1252.5"/>
<text text-anchor="start" x="220" y="-1263.9" font-family="Arial" font-size="14.00" fill="#000000">subject </text>
<text text-anchor="start" x="268.2356" y="-1263.9" font-family="Arial" font-size="14.00" fill="#666666">[varchar(255)]</text>
<polygon fill="none" stroke="#000000" points="213,-1222.5 213,-1252.5 433,-1252.5 433,-1222.5 213,-1222.5"/>
<text text-anchor="start" x="220" y="-1233.9" font-family="Arial" font-size="14.00" fill="#000000">message </text>
<text text-anchor="start" x="280.6816" y="-1233.9" font-family="Arial" font-size="14.00" fill="#666666">[text]</text>
<polygon fill="none" stroke="#000000" points="213,-1192.5 213,-1222.5 433,-1222.5 433,-1192.5 213,-1192.5"/>
<text text-anchor="start" x="220" y="-1203.9" font-family="Arial" font-size="14.00" fill="#000000">thedate </text>
<text text-anchor="start" x="270.5848" y="-1203.9" font-family="Arial" font-size="14.00" fill="#666666">[datetime]</text>
<polygon fill="none" stroke="#000000" points="213,-1162.5 213,-1192.5 433,-1192.5 433,-1162.5 213,-1162.5"/>
<text text-anchor="start" x="220" y="-1173.9" font-family="Arial" font-size="14.00" fill="#000000">projectId </text>
<text text-anchor="start" x="277.5694" y="-1173.9" font-family="Arial" font-size="14.00" fill="#666666">[int(11)]</text>
<polygon fill="none" stroke="#000000" stroke-width="3" points="211.5,-1161.5 211.5,-1409.5 434.5,-1409.5 434.5,-1161.5 211.5,-1161.5"/>
</g>
<!-- zp_user -->
<g id="node2" class="node">
<title>zp_user</title>
<polygon fill="#efefef" stroke="transparent" points="43,-1002.5 43,-1037.5 269,-1037.5 269,-1002.5 43,-1002.5"/>
<polygon fill="none" stroke="#000000" points="43,-1002.5 43,-1037.5 269,-1037.5 269,-1002.5 43,-1002.5"/>
<text text-anchor="start" x="60.2075" y="-1015.3" font-family="Arial Bold" font-size="18.00" fill="#000000">zp_user</text>
<text text-anchor="start" x="124.2245" y="-1015.3" font-family="Arial" font-size="14.00" fill="#000000">    </text>
<text text-anchor="start" x="158.4293" y="-1015.3" font-family="Arial" font-size="14.00" fill="#666666">[BASE TABLE]</text>
<polygon fill="none" stroke="#000000" points="43,-972.5 43,-1002.5 269,-1002.5 269,-972.5 43,-972.5"/>
<text text-anchor="start" x="50" y="-983.9" font-family="Arial" font-size="14.00" fill="#000000">id    </text>
<text text-anchor="start" x="95.094" y="-983.9" font-family="Arial" font-size="14.00" fill="#666666">[int(11)]</text>
<polygon fill="none" stroke="#000000" points="43,-942.5 43,-972.5 269,-972.5 269,-942.5 43,-942.5"/>
<text text-anchor="start" x="50" y="-953.9" font-family="Arial" font-size="14.00" fill="#000000">username    </text>
<text text-anchor="start" x="146.439" y="-953.9" font-family="Arial" font-size="14.00" fill="#666666">[varchar(175)]</text>
<polygon fill="none" stroke="#000000" points="43,-912.5 43,-942.5 269,-942.5 269,-912.5 43,-912.5"/>
<text text-anchor="start" x="50" y="-923.9" font-family="Arial" font-size="14.00" fill="#000000">password    </text>
<text text-anchor="start" x="144.1024" y="-923.9" font-family="Arial" font-size="14.00" fill="#666666">[varchar(255)]</text>
<polygon fill="none" stroke="#000000" points="43,-882.5 43,-912.5 269,-912.5 269,-882.5 43,-882.5"/>
<text text-anchor="start" x="50" y="-893.9" font-family="Arial" font-size="14.00" fill="#000000">firstname    </text>
<text text-anchor="start" x="141.7616" y="-893.9" font-family="Arial" font-size="14.00" fill="#666666">[varchar(100)]</text>
<polygon fill="none" stroke="#000000" points="43,-852.5 43,-882.5 269,-882.5 269,-852.5 43,-852.5"/>
<text text-anchor="start" x="50" y="-863.9" font-family="Arial" font-size="14.00" fill="#000000">lastname    </text>
<text text-anchor="start" x="140.993" y="-863.9" font-family="Arial" font-size="14.00" fill="#666666">[varchar(100)]</text>
<polygon fill="none" stroke="#000000" points="43,-822.5 43,-852.5 269,-852.5 269,-822.5 43,-822.5"/>
<text text-anchor="start" x="50" y="-833.9" font-family="Arial" font-size="14.00" fill="#000000">phone    </text>
<text text-anchor="start" x="123.1178" y="-833.9" font-family="Arial" font-size="14.00" fill="#666666">[varchar(25)]</text>
<polygon fill="none" stroke="#000000" points="43,-792.5 43,-822.5 269,-822.5 269,-792.5 43,-792.5"/>
<text text-anchor="start" x="50" y="-803.9" font-family="Arial" font-size="14.00" fill="#000000">profileId    </text>
<text text-anchor="start" x="133.9902" y="-803.9" font-family="Arial" font-size="14.00" fill="#666666">[varchar(100)]</text>
<polygon fill="none" stroke="#000000" points="43,-762.5 43,-792.5 269,-792.5 269,-762.5 43,-762.5"/>
<text text-anchor="start" x="50" y="-773.9" font-family="Arial" font-size="14.00" fill="#000000">lastlogin    </text>
<text text-anchor="start" x="135.5456" y="-773.9" font-family="Arial" font-size="14.00" fill="#666666">[datetime]</text>
<polygon fill="none" stroke="#000000" points="43,-732.5 43,-762.5 269,-762.5 269,-732.5 43,-732.5"/>
<text text-anchor="start" x="50" y="-743.9" font-family="Arial" font-size="14.00" fill="#000000">status    </text>
<text text-anchor="start" x="121.5512" y="-743.9" font-family="Arial" font-size="14.00" fill="#666666">[varchar(1)]</text>
<polygon fill="none" stroke="#000000" points="43,-702.5 43,-732.5 269,-732.5 269,-702.5 43,-702.5"/>
<text text-anchor="start" x="50" y="-713.9" font-family="Arial" font-size="14.00" fill="#000000">expires    </text>
<text text-anchor="start" x="129.3198" y="-713.9" font-family="Arial" font-size="14.00" fill="#666666">[datetime]</text>
<polygon fill="none" stroke="#000000" points="43,-672.5 43,-702.5 269,-702.5 269,-672.5 43,-672.5"/>
<text text-anchor="start" x="50" y="-683.9" font-family="Arial" font-size="14.00" fill="#000000">role    </text>
<text text-anchor="start" x="107.5372" y="-683.9" font-family="Arial" font-size="14.00" fill="#666666">[varchar(200)]</text>
<polygon fill="none" stroke="#000000" points="43,-642.5 43,-672.5 269,-672.5 269,-642.5 43,-642.5"/>
<text text-anchor="start" x="50" y="-653.9" font-family="Arial" font-size="14.00" fill="#000000">session    </text>
<text text-anchor="start" x="131.6592" y="-653.9" font-family="Arial" font-size="14.00" fill="#666666">[varchar(100)]</text>
<polygon fill="none" stroke="#000000" points="43,-612.5 43,-642.5 269,-642.5 269,-612.5 43,-612.5"/>
<text text-anchor="start" x="50" y="-623.9" font-family="Arial" font-size="14.00" fill="#000000">sessiontime    </text>
<text text-anchor="start" x="158.0996" y="-623.9" font-family="Arial" font-size="14.00" fill="#666666">[varchar(50)]</text>
<polygon fill="none" stroke="#000000" points="43,-582.5 43,-612.5 269,-612.5 269,-582.5 43,-582.5"/>
<text text-anchor="start" x="50" y="-593.9" font-family="Arial" font-size="14.00" fill="#000000">wage    </text>
<text text-anchor="start" x="117.6592" y="-593.9" font-family="Arial" font-size="14.00" fill="#666666">[int(11)]</text>
<polygon fill="none" stroke="#000000" points="43,-552.5 43,-582.5 269,-582.5 269,-552.5 43,-552.5"/>
<text text-anchor="start" x="50" y="-563.9" font-family="Arial" font-size="14.00" fill="#000000">hours    </text>
<text text-anchor="start" x="119.2132" y="-563.9" font-family="Arial" font-size="14.00" fill="#666666">[int(11)]</text>
<polygon fill="none" stroke="#000000" points="43,-522.5 43,-552.5 269,-552.5 269,-522.5 43,-522.5"/>
<text text-anchor="start" x="50" y="-533.9" font-family="Arial" font-size="14.00" fill="#000000">description    </text>
<text text-anchor="start" x="151.8822" y="-533.9" font-family="Arial" font-size="14.00" fill="#666666">[text]</text>
<polygon fill="none" stroke="#000000" points="43,-492.5 43,-522.5 269,-522.5 269,-492.5 43,-492.5"/>
<text text-anchor="start" x="50" y="-503.9" font-family="Arial" font-size="14.00" fill="#000000">clientId    </text>
<text text-anchor="start" x="128.547" y="-503.9" font-family="Arial" font-size="14.00" fill="#666666">[int(11)]</text>
<polygon fill="none" stroke="#000000" points="43,-462.5 43,-492.5 269,-492.5 269,-462.5 43,-462.5"/>
<text text-anchor="start" x="50" y="-473.9" font-family="Arial" font-size="14.00" fill="#000000">notifications    </text>
<text text-anchor="start" x="158.1094" y="-473.9" font-family="Arial" font-size="14.00" fill="#666666">[int(2)]</text>
<polygon fill="none" stroke="#000000" points="43,-432.5 43,-462.5 269,-462.5 269,-432.5 43,-432.5"/>
<text text-anchor="start" x="50" y="-443.9" font-family="Arial" font-size="14.00" fill="#000000">pwReset    </text>
<text text-anchor="start" x="138.6564" y="-443.9" font-family="Arial" font-size="14.00" fill="#666666">[varchar(100)]</text>
<polygon fill="none" stroke="#000000" points="43,-402.5 43,-432.5 269,-432.5 269,-402.5 43,-402.5"/>
<text text-anchor="start" x="49.8261" y="-413.9" font-family="Arial" font-size="14.00" fill="#000000">pwResetExpiration    </text>
<text text-anchor="start" x="200.7139" y="-413.9" font-family="Arial" font-size="14.00" fill="#666666">[datetime]</text>
<polygon fill="none" stroke="#000000" points="43,-372.5 43,-402.5 269,-402.5 269,-372.5 43,-372.5"/>
<text text-anchor="start" x="50" y="-383.9" font-family="Arial" font-size="14.00" fill="#000000">pwResetCount    </text>
<text text-anchor="start" x="176.0014" y="-383.9" font-family="Arial" font-size="14.00" fill="#666666">[int(5)]</text>
<polygon fill="none" stroke="#000000" points="43,-342.5 43,-372.5 269,-372.5 269,-342.5 43,-342.5"/>
<text text-anchor="start" x="50" y="-353.9" font-family="Arial" font-size="14.00" fill="#000000">forcePwReset    </text>
<text text-anchor="start" x="171.3268" y="-353.9" font-family="Arial" font-size="14.00" fill="#666666">[tinyint(4)]</text>
<polygon fill="none" stroke="#000000" points="43,-312.5 43,-342.5 269,-342.5 269,-312.5 43,-312.5"/>
<text text-anchor="start" x="50" y="-323.9" font-family="Arial" font-size="14.00" fill="#000000">lastpwd_change    </text>
<text text-anchor="start" x="185.352" y="-323.9" font-family="Arial" font-size="14.00" fill="#666666">[datetime]</text>
<polygon fill="none" stroke="#000000" points="43,-282.5 43,-312.5 269,-312.5 269,-282.5 43,-282.5"/>
<text text-anchor="start" x="50" y="-293.9" font-family="Arial" font-size="14.00" fill="#000000">settings    </text>
<text text-anchor="start" x="132.4404" y="-293.9" font-family="Arial" font-size="14.00" fill="#666666">[text]</text>
<polygon fill="none" stroke="#000000" points="43,-252.5 43,-282.5 269,-282.5 269,-252.5 43,-252.5"/>
<text text-anchor="start" x="50" y="-263.9" font-family="Arial" font-size="14.00" fill="#000000">twoFAEnabled    </text>
<text text-anchor="start" x="175.23" y="-263.9" font-family="Arial" font-size="14.00" fill="#666666">[tinyint(1)]</text>
<polygon fill="none" stroke="#000000" points="43,-222.5 43,-252.5 269,-252.5 269,-222.5 43,-222.5"/>
<text text-anchor="start" x="50" y="-233.9" font-family="Arial" font-size="14.00" fill="#000000">twoFASecret    </text>
<text text-anchor="start" x="164.3268" y="-233.9" font-family="Arial" font-size="14.00" fill="#666666">[varchar(200)]</text>
<polygon fill="none" stroke="#000000" points="43,-192.5 43,-222.5 269,-222.5 269,-192.5 43,-192.5"/>
<text text-anchor="start" x="50" y="-203.9" font-family="Arial" font-size="14.00" fill="#000000">createdOn    </text>
<text text-anchor="start" x="149.5596" y="-203.9" font-family="Arial" font-size="14.00" fill="#666666">[datetime]</text>
<polygon fill="none" stroke="#000000" points="43,-162.5 43,-192.5 269,-192.5 269,-162.5 43,-162.5"/>
<text text-anchor="start" x="50" y="-173.9" font-family="Arial" font-size="14.00" fill="#000000">source    </text>
<text text-anchor="start" x="126.2132" y="-173.9" font-family="Arial" font-size="14.00" fill="#666666">[varchar(200)]</text>
<polygon fill="none" stroke="#000000" points="43,-132.5 43,-162.5 269,-162.5 269,-132.5 43,-132.5"/>
<text text-anchor="start" x="50" y="-143.9" font-family="Arial" font-size="14.00" fill="#000000">jobTitle    </text>
<text text-anchor="start" x="129.3156" y="-143.9" font-family="Arial" font-size="14.00" fill="#666666">[varchar(200)]</text>
<polygon fill="none" stroke="#000000" points="43,-102.5 43,-132.5 269,-132.5 269,-102.5 43,-102.5"/>
<text text-anchor="start" x="50" y="-113.9" font-family="Arial" font-size="14.00" fill="#000000">jobLevel    </text>
<text text-anchor="start" x="136.331" y="-113.9" font-family="Arial" font-size="14.00" fill="#666666">[varchar(50)]</text>
<polygon fill="none" stroke="#000000" points="43,-72.5 43,-102.5 269,-102.5 269,-72.5 43,-72.5"/>
<text text-anchor="start" x="50" y="-83.9" font-family="Arial" font-size="14.00" fill="#000000">department    </text>
<text text-anchor="start" x="155.0028" y="-83.9" font-family="Arial" font-size="14.00" fill="#666666">[varchar(200)]</text>
<polygon fill="none" stroke="#000000" points="43,-42.5 43,-72.5 269,-72.5 269,-42.5 43,-42.5"/>
<text text-anchor="start" x="50" y="-53.9" font-family="Arial" font-size="14.00" fill="#000000">modified    </text>
<text text-anchor="start" x="137.0996" y="-53.9" font-family="Arial" font-size="14.00" fill="#666666">[datetime]</text>
</g>
<!-- zp_queue&#45;&gt;zp_user -->
<g id="edge1" class="edge">
<title>zp_queue:userId&#45;&gt;zp_user:id</title>
<path fill="none" stroke="#000000" stroke-dasharray="5,2" d="M202.9901,-1297.4546C-177.0425,-1293.9564 264.5092,-1089.2256 269,-1081 288.9129,-1044.5262 310.5556,-987.5 269,-987.5"/>
<polygon fill="#000000" stroke="#000000" points="203.0001,-1297.4546 212.9796,-1302 208.0001,-1297.4773 213,-1297.5 213,-1297.5 213,-1297.5 208.0001,-1297.4773 213.0204,-1293 203.0001,-1297.4546 203.0001,-1297.4546"/>
<text text-anchor="start" x="123.3245" y="-1307.5" font-family="Arial" font-size="10.00" fill="#000000">Additional Relation</text>
</g>
<!-- zp_projects -->
<g id="node3" class="node">
<title>zp_projects</title>
<polygon fill="#efefef" stroke="transparent" points="374,-807.5 374,-842.5 607,-842.5 607,-807.5 374,-807.5"/>
<polygon fill="none" stroke="#000000" points="374,-807.5 374,-842.5 607,-842.5 607,-807.5 374,-807.5"/>
<text text-anchor="start" x="380.7062" y="-820.3" font-family="Arial Bold" font-size="18.00" fill="#000000">zp_projects</text>
<text text-anchor="start" x="472.7258" y="-820.3" font-family="Arial" font-size="14.00" fill="#000000">    </text>
<text text-anchor="start" x="506.9306" y="-820.3" font-family="Arial" font-size="14.00" fill="#666666">[BASE TABLE]</text>
<polygon fill="none" stroke="#000000" points="374,-777.5 374,-807.5 607,-807.5 607,-777.5 374,-777.5"/>
<text text-anchor="start" x="381" y="-788.9" font-family="Arial" font-size="14.00" fill="#000000">id    </text>
<text text-anchor="start" x="426.094" y="-788.9" font-family="Arial" font-size="14.00" fill="#666666">[int(11)]</text>
<polygon fill="none" stroke="#000000" points="374,-747.5 374,-777.5 607,-777.5 607,-747.5 374,-747.5"/>
<text text-anchor="start" x="381" y="-758.9" font-family="Arial" font-size="14.00" fill="#000000">name    </text>
<text text-anchor="start" x="450.2132" y="-758.9" font-family="Arial" font-size="14.00" fill="#666666">[varchar(100)]</text>
<polygon fill="none" stroke="#000000" points="374,-717.5 374,-747.5 607,-747.5 607,-717.5 374,-717.5"/>
<text text-anchor="start" x="381" y="-728.9" font-family="Arial" font-size="14.00" fill="#000000">clientId    </text>
<text text-anchor="start" x="459.547" y="-728.9" font-family="Arial" font-size="14.00" fill="#666666">[int(100)]</text>
<polygon fill="none" stroke="#000000" points="374,-687.5 374,-717.5 607,-717.5 607,-687.5 374,-687.5"/>
<text text-anchor="start" x="381" y="-698.9" font-family="Arial" font-size="14.00" fill="#000000">details    </text>
<text text-anchor="start" x="455.6564" y="-698.9" font-family="Arial" font-size="14.00" fill="#666666">[text]</text>
<polygon fill="none" stroke="#000000" points="374,-657.5 374,-687.5 607,-687.5 607,-657.5 374,-657.5"/>
<text text-anchor="start" x="381" y="-668.9" font-family="Arial" font-size="14.00" fill="#000000">state    </text>
<text text-anchor="start" x="445.5512" y="-668.9" font-family="Arial" font-size="14.00" fill="#666666">[int(2)]</text>
<polygon fill="none" stroke="#000000" points="374,-627.5 374,-657.5 607,-657.5 607,-627.5 374,-627.5"/>
<text text-anchor="start" x="381" y="-638.9" font-family="Arial" font-size="14.00" fill="#000000">hourBudget    </text>
<text text-anchor="start" x="487.5708" y="-638.9" font-family="Arial" font-size="14.00" fill="#666666">[varchar(255)]</text>
<polygon fill="none" stroke="#000000" points="374,-597.5 374,-627.5 607,-627.5 607,-597.5 374,-597.5"/>
<text text-anchor="start" x="381" y="-608.9" font-family="Arial" font-size="14.00" fill="#000000">dollarBudget    </text>
<text text-anchor="start" x="493.784" y="-608.9" font-family="Arial" font-size="14.00" fill="#666666">[int(11)]</text>
<polygon fill="none" stroke="#000000" points="374,-567.5 374,-597.5 607,-597.5 607,-567.5 374,-567.5"/>
<text text-anchor="start" x="381" y="-578.9" font-family="Arial" font-size="14.00" fill="#000000">active    </text>
<text text-anchor="start" x="451.7672" y="-578.9" font-family="Arial" font-size="14.00" fill="#666666">[int(11)]</text>
<polygon fill="none" stroke="#000000" points="374,-537.5 374,-567.5 607,-567.5 607,-537.5 374,-537.5"/>
<text text-anchor="start" x="381" y="-548.9" font-family="Arial" font-size="14.00" fill="#000000">menuType    </text>
<text text-anchor="start" x="481.331" y="-548.9" font-family="Arial" font-size="14.00" fill="#666666">[mediumtext]</text>
<polygon fill="none" stroke="#000000" points="374,-507.5 374,-537.5 607,-537.5 607,-507.5 374,-507.5"/>
<text text-anchor="start" x="381" y="-518.9" font-family="Arial" font-size="14.00" fill="#000000">psettings    </text>
<text text-anchor="start" x="471.223" y="-518.9" font-family="Arial" font-size="14.00" fill="#666666">[mediumtext]</text>
<polygon fill="none" stroke="#000000" points="374,-477.5 374,-507.5 607,-507.5 607,-477.5 374,-477.5"/>
<text text-anchor="start" x="381" y="-488.9" font-family="Arial" font-size="14.00" fill="#000000">parent    </text>
<text text-anchor="start" x="454.8864" y="-488.9" font-family="Arial" font-size="14.00" fill="#666666">[int(11)]</text>
<polygon fill="none" stroke="#000000" points="374,-447.5 374,-477.5 607,-477.5 607,-447.5 374,-447.5"/>
<text text-anchor="start" x="381" y="-458.9" font-family="Arial" font-size="14.00" fill="#000000">type    </text>
<text text-anchor="start" x="441.6606" y="-458.9" font-family="Arial" font-size="14.00" fill="#666666">[varchar(45)]</text>
<polygon fill="none" stroke="#000000" points="374,-417.5 374,-447.5 607,-447.5 607,-417.5 374,-417.5"/>
<text text-anchor="start" x="381" y="-428.9" font-family="Arial" font-size="14.00" fill="#000000">start    </text>
<text text-anchor="start" x="442.4292" y="-428.9" font-family="Arial" font-size="14.00" fill="#666666">[datetime]</text>
<polygon fill="none" stroke="#000000" points="374,-387.5 374,-417.5 607,-417.5 607,-387.5 374,-387.5"/>
<text text-anchor="start" x="381" y="-398.9" font-family="Arial" font-size="14.00" fill="#000000">end    </text>
<text text-anchor="start" x="438.5526" y="-398.9" font-family="Arial" font-size="14.00" fill="#666666">[datetime]</text>
<polygon fill="none" stroke="#000000" points="374,-357.5 374,-387.5 607,-387.5 607,-357.5 374,-357.5"/>
<text text-anchor="start" x="381" y="-368.9" font-family="Arial" font-size="14.00" fill="#000000">created    </text>
<text text-anchor="start" x="461.8864" y="-368.9" font-family="Arial" font-size="14.00" fill="#666666">[datetime]</text>
<polygon fill="none" stroke="#000000" points="374,-327.5 374,-357.5 607,-357.5 607,-327.5 374,-327.5"/>
<text text-anchor="start" x="381" y="-338.9" font-family="Arial" font-size="14.00" fill="#000000">modified    </text>
<text text-anchor="start" x="468.0996" y="-338.9" font-family="Arial" font-size="14.00" fill="#666666">[datetime]</text>
<polygon fill="none" stroke="#000000" points="374,-297.5 374,-327.5 607,-327.5 607,-297.5 374,-297.5"/>
<text text-anchor="start" x="381" y="-308.9" font-family="Arial" font-size="14.00" fill="#000000">avatar    </text>
<text text-anchor="start" x="454.1038" y="-308.9" font-family="Arial" font-size="14.00" fill="#666666">[mediumtext]</text>
<polygon fill="none" stroke="#000000" points="374,-267.5 374,-297.5 607,-297.5 607,-267.5 374,-267.5"/>
<text text-anchor="start" x="381" y="-278.9" font-family="Arial" font-size="14.00" fill="#000000">cover    </text>
<text text-anchor="start" x="449.4306" y="-278.9" font-family="Arial" font-size="14.00" fill="#666666">[mediumtext]</text>
<polygon fill="none" stroke="#000000" points="374,-237.5 374,-267.5 607,-267.5 607,-237.5 374,-237.5"/>
<text text-anchor="start" x="381" y="-248.9" font-family="Arial" font-size="14.00" fill="#000000">sortIndex    </text>
<text text-anchor="start" x="472.777" y="-248.9" font-family="Arial" font-size="14.00" fill="#666666">[int(11)]</text>
</g>
<!-- zp_queue&#45;&gt;zp_projects -->
<g id="edge2" class="edge">
<title>zp_queue:projectId&#45;&gt;zp_projects:id</title>
<path fill="none" stroke="#000000" stroke-dasharray="5,2" d="M443.368,-1176.9745C588.9639,-1161.1347 204.6104,-792.5 374,-792.5"/>
<polygon fill="#000000" stroke="#000000" points="442.9872,-1176.9937 432.7722,-1173.0058 437.9936,-1177.2469 433,-1177.5 433,-1177.5 433,-1177.5 437.9936,-1177.2469 433.2278,-1181.9942 442.9872,-1176.9937 442.9872,-1176.9937"/>
<text text-anchor="start" x="440.3245" y="-1187.5" font-family="Arial" font-size="10.00" fill="#000000">Additional Relation</text>
</g>
</g>
</svg>
