<?xml version="1.0" encoding="UTF-8" standalone="no"?>
<!DOCTYPE svg PUBLIC "-//W3C//DTD SVG 1.1//EN"
 "http://www.w3.org/Graphics/SVG/1.1/DTD/svg11.dtd">
<!-- Generated by graphviz version 2.40.1 (20161225.0304)
 -->
<!-- Title: zp_reactions Pages: 1 -->
<svg width="395pt" height="1432pt"
 viewBox="0.00 0.00 394.50 1432.00" xmlns="http://www.w3.org/2000/svg" xmlns:xlink="http://www.w3.org/1999/xlink">
<g id="graph0" class="graph" transform="scale(1 1) rotate(0) translate(4 1428)">
<title>zp_reactions</title>
<polygon fill="#ffffff" stroke="transparent" points="-4,4 -4,-1428 390.5,-1428 390.5,4 -4,4"/>
<!-- zp_reactions -->
<g id="node1" class="node">
<title>zp_reactions</title>
<polygon fill="#efefef" stroke="transparent" points="46.5,-1342.5 46.5,-1377.5 289.5,-1377.5 289.5,-1342.5 46.5,-1342.5"/>
<polygon fill="none" stroke="#000000" points="46.5,-1342.5 46.5,-1377.5 289.5,-1377.5 289.5,-1342.5 46.5,-1342.5"/>
<text text-anchor="start" x="53.2031" y="-1355.3" font-family="Arial Bold" font-size="18.00" fill="#000000">zp_reactions</text>
<text text-anchor="start" x="155.2289" y="-1355.3" font-family="Arial" font-size="14.00" fill="#000000">    </text>
<text text-anchor="start" x="189.4337" y="-1355.3" font-family="Arial" font-size="14.00" fill="#666666">[BASE TABLE]</text>
<polygon fill="none" stroke="#000000" points="46.5,-1312.5 46.5,-1342.5 289.5,-1342.5 289.5,-1312.5 46.5,-1312.5"/>
<text text-anchor="start" x="53.5" y="-1323.9" font-family="Arial" font-size="14.00" fill="#000000">id </text>
<text text-anchor="start" x="68.2798" y="-1323.9" font-family="Arial" font-size="14.00" fill="#666666">[int(11)]</text>
<polygon fill="none" stroke="#000000" points="46.5,-1282.5 46.5,-1312.5 289.5,-1312.5 289.5,-1282.5 46.5,-1282.5"/>
<text text-anchor="start" x="53.5" y="-1293.9" font-family="Arial" font-size="14.00" fill="#000000">userId </text>
<text text-anchor="start" x="96.2896" y="-1293.9" font-family="Arial" font-size="14.00" fill="#666666">[int(11)]</text>
<polygon fill="none" stroke="#000000" points="46.5,-1252.5 46.5,-1282.5 289.5,-1282.5 289.5,-1252.5 46.5,-1252.5"/>
<text text-anchor="start" x="53.5" y="-1263.9" font-family="Arial" font-size="14.00" fill="#000000">moduleId </text>
<text text-anchor="start" x="114.9614" y="-1263.9" font-family="Arial" font-size="14.00" fill="#666666">[int(11)]</text>
<polygon fill="none" stroke="#000000" points="46.5,-1222.5 46.5,-1252.5 289.5,-1252.5 289.5,-1222.5 46.5,-1222.5"/>
<text text-anchor="start" x="53.5" y="-1233.9" font-family="Arial" font-size="14.00" fill="#000000">module </text>
<text text-anchor="start" x="103.2882" y="-1233.9" font-family="Arial" font-size="14.00" fill="#666666">[varchar(45)]</text>
<polygon fill="none" stroke="#000000" points="46.5,-1192.5 46.5,-1222.5 289.5,-1222.5 289.5,-1192.5 46.5,-1192.5"/>
<text text-anchor="start" x="53.5" y="-1203.9" font-family="Arial" font-size="14.00" fill="#000000">reaction </text>
<text text-anchor="start" x="107.1788" y="-1203.9" font-family="Arial" font-size="14.00" fill="#666666">[varchar(45)]</text>
<polygon fill="none" stroke="#000000" points="46.5,-1162.5 46.5,-1192.5 289.5,-1192.5 289.5,-1162.5 46.5,-1162.5"/>
<text text-anchor="start" x="53.5" y="-1173.9" font-family="Arial" font-size="14.00" fill="#000000">date </text>
<text text-anchor="start" x="84.629" y="-1173.9" font-family="Arial" font-size="14.00" fill="#666666">[datetime]</text>
<polygon fill="none" stroke="#000000" stroke-width="3" points="44.5,-1161.5 44.5,-1379.5 290.5,-1379.5 290.5,-1161.5 44.5,-1161.5"/>
</g>
<!-- zp_user -->
<g id="node2" class="node">
<title>zp_user</title>
<polygon fill="#efefef" stroke="transparent" points="55.5,-1002.5 55.5,-1037.5 281.5,-1037.5 281.5,-1002.5 55.5,-1002.5"/>
<polygon fill="none" stroke="#000000" points="55.5,-1002.5 55.5,-1037.5 281.5,-1037.5 281.5,-1002.5 55.5,-1002.5"/>
<text text-anchor="start" x="72.7075" y="-1015.3" font-family="Arial Bold" font-size="18.00" fill="#000000">zp_user</text>
<text text-anchor="start" x="136.7245" y="-1015.3" font-family="Arial" font-size="14.00" fill="#000000">    </text>
<text text-anchor="start" x="170.9293" y="-1015.3" font-family="Arial" font-size="14.00" fill="#666666">[BASE TABLE]</text>
<polygon fill="none" stroke="#000000" points="55.5,-972.5 55.5,-1002.5 281.5,-1002.5 281.5,-972.5 55.5,-972.5"/>
<text text-anchor="start" x="62.5" y="-983.9" font-family="Arial" font-size="14.00" fill="#000000">id    </text>
<text text-anchor="start" x="107.594" y="-983.9" font-family="Arial" font-size="14.00" fill="#666666">[int(11)]</text>
<polygon fill="none" stroke="#000000" points="55.5,-942.5 55.5,-972.5 281.5,-972.5 281.5,-942.5 55.5,-942.5"/>
<text text-anchor="start" x="62.5" y="-953.9" font-family="Arial" font-size="14.00" fill="#000000">username    </text>
<text text-anchor="start" x="158.939" y="-953.9" font-family="Arial" font-size="14.00" fill="#666666">[varchar(175)]</text>
<polygon fill="none" stroke="#000000" points="55.5,-912.5 55.5,-942.5 281.5,-942.5 281.5,-912.5 55.5,-912.5"/>
<text text-anchor="start" x="62.5" y="-923.9" font-family="Arial" font-size="14.00" fill="#000000">password    </text>
<text text-anchor="start" x="156.6024" y="-923.9" font-family="Arial" font-size="14.00" fill="#666666">[varchar(255)]</text>
<polygon fill="none" stroke="#000000" points="55.5,-882.5 55.5,-912.5 281.5,-912.5 281.5,-882.5 55.5,-882.5"/>
<text text-anchor="start" x="62.5" y="-893.9" font-family="Arial" font-size="14.00" fill="#000000">firstname    </text>
<text text-anchor="start" x="154.2616" y="-893.9" font-family="Arial" font-size="14.00" fill="#666666">[varchar(100)]</text>
<polygon fill="none" stroke="#000000" points="55.5,-852.5 55.5,-882.5 281.5,-882.5 281.5,-852.5 55.5,-852.5"/>
<text text-anchor="start" x="62.5" y="-863.9" font-family="Arial" font-size="14.00" fill="#000000">lastname    </text>
<text text-anchor="start" x="153.493" y="-863.9" font-family="Arial" font-size="14.00" fill="#666666">[varchar(100)]</text>
<polygon fill="none" stroke="#000000" points="55.5,-822.5 55.5,-852.5 281.5,-852.5 281.5,-822.5 55.5,-822.5"/>
<text text-anchor="start" x="62.5" y="-833.9" font-family="Arial" font-size="14.00" fill="#000000">phone    </text>
<text text-anchor="start" x="135.6178" y="-833.9" font-family="Arial" font-size="14.00" fill="#666666">[varchar(25)]</text>
<polygon fill="none" stroke="#000000" points="55.5,-792.5 55.5,-822.5 281.5,-822.5 281.5,-792.5 55.5,-792.5"/>
<text text-anchor="start" x="62.5" y="-803.9" font-family="Arial" font-size="14.00" fill="#000000">profileId    </text>
<text text-anchor="start" x="146.4902" y="-803.9" font-family="Arial" font-size="14.00" fill="#666666">[varchar(100)]</text>
<polygon fill="none" stroke="#000000" points="55.5,-762.5 55.5,-792.5 281.5,-792.5 281.5,-762.5 55.5,-762.5"/>
<text text-anchor="start" x="62.5" y="-773.9" font-family="Arial" font-size="14.00" fill="#000000">lastlogin    </text>
<text text-anchor="start" x="148.0456" y="-773.9" font-family="Arial" font-size="14.00" fill="#666666">[datetime]</text>
<polygon fill="none" stroke="#000000" points="55.5,-732.5 55.5,-762.5 281.5,-762.5 281.5,-732.5 55.5,-732.5"/>
<text text-anchor="start" x="62.5" y="-743.9" font-family="Arial" font-size="14.00" fill="#000000">status    </text>
<text text-anchor="start" x="134.0512" y="-743.9" font-family="Arial" font-size="14.00" fill="#666666">[varchar(1)]</text>
<polygon fill="none" stroke="#000000" points="55.5,-702.5 55.5,-732.5 281.5,-732.5 281.5,-702.5 55.5,-702.5"/>
<text text-anchor="start" x="62.5" y="-713.9" font-family="Arial" font-size="14.00" fill="#000000">expires    </text>
<text text-anchor="start" x="141.8198" y="-713.9" font-family="Arial" font-size="14.00" fill="#666666">[datetime]</text>
<polygon fill="none" stroke="#000000" points="55.5,-672.5 55.5,-702.5 281.5,-702.5 281.5,-672.5 55.5,-672.5"/>
<text text-anchor="start" x="62.5" y="-683.9" font-family="Arial" font-size="14.00" fill="#000000">role    </text>
<text text-anchor="start" x="120.0372" y="-683.9" font-family="Arial" font-size="14.00" fill="#666666">[varchar(200)]</text>
<polygon fill="none" stroke="#000000" points="55.5,-642.5 55.5,-672.5 281.5,-672.5 281.5,-642.5 55.5,-642.5"/>
<text text-anchor="start" x="62.5" y="-653.9" font-family="Arial" font-size="14.00" fill="#000000">session    </text>
<text text-anchor="start" x="144.1592" y="-653.9" font-family="Arial" font-size="14.00" fill="#666666">[varchar(100)]</text>
<polygon fill="none" stroke="#000000" points="55.5,-612.5 55.5,-642.5 281.5,-642.5 281.5,-612.5 55.5,-612.5"/>
<text text-anchor="start" x="62.5" y="-623.9" font-family="Arial" font-size="14.00" fill="#000000">sessiontime    </text>
<text text-anchor="start" x="170.5996" y="-623.9" font-family="Arial" font-size="14.00" fill="#666666">[varchar(50)]</text>
<polygon fill="none" stroke="#000000" points="55.5,-582.5 55.5,-612.5 281.5,-612.5 281.5,-582.5 55.5,-582.5"/>
<text text-anchor="start" x="62.5" y="-593.9" font-family="Arial" font-size="14.00" fill="#000000">wage    </text>
<text text-anchor="start" x="130.1592" y="-593.9" font-family="Arial" font-size="14.00" fill="#666666">[int(11)]</text>
<polygon fill="none" stroke="#000000" points="55.5,-552.5 55.5,-582.5 281.5,-582.5 281.5,-552.5 55.5,-552.5"/>
<text text-anchor="start" x="62.5" y="-563.9" font-family="Arial" font-size="14.00" fill="#000000">hours    </text>
<text text-anchor="start" x="131.7132" y="-563.9" font-family="Arial" font-size="14.00" fill="#666666">[int(11)]</text>
<polygon fill="none" stroke="#000000" points="55.5,-522.5 55.5,-552.5 281.5,-552.5 281.5,-522.5 55.5,-522.5"/>
<text text-anchor="start" x="62.5" y="-533.9" font-family="Arial" font-size="14.00" fill="#000000">description    </text>
<text text-anchor="start" x="164.3822" y="-533.9" font-family="Arial" font-size="14.00" fill="#666666">[text]</text>
<polygon fill="none" stroke="#000000" points="55.5,-492.5 55.5,-522.5 281.5,-522.5 281.5,-492.5 55.5,-492.5"/>
<text text-anchor="start" x="62.5" y="-503.9" font-family="Arial" font-size="14.00" fill="#000000">clientId    </text>
<text text-anchor="start" x="141.047" y="-503.9" font-family="Arial" font-size="14.00" fill="#666666">[int(11)]</text>
<polygon fill="none" stroke="#000000" points="55.5,-462.5 55.5,-492.5 281.5,-492.5 281.5,-462.5 55.5,-462.5"/>
<text text-anchor="start" x="62.5" y="-473.9" font-family="Arial" font-size="14.00" fill="#000000">notifications    </text>
<text text-anchor="start" x="170.6094" y="-473.9" font-family="Arial" font-size="14.00" fill="#666666">[int(2)]</text>
<polygon fill="none" stroke="#000000" points="55.5,-432.5 55.5,-462.5 281.5,-462.5 281.5,-432.5 55.5,-432.5"/>
<text text-anchor="start" x="62.5" y="-443.9" font-family="Arial" font-size="14.00" fill="#000000">pwReset    </text>
<text text-anchor="start" x="151.1564" y="-443.9" font-family="Arial" font-size="14.00" fill="#666666">[varchar(100)]</text>
<polygon fill="none" stroke="#000000" points="55.5,-402.5 55.5,-432.5 281.5,-432.5 281.5,-402.5 55.5,-402.5"/>
<text text-anchor="start" x="62.3261" y="-413.9" font-family="Arial" font-size="14.00" fill="#000000">pwResetExpiration    </text>
<text text-anchor="start" x="213.2139" y="-413.9" font-family="Arial" font-size="14.00" fill="#666666">[datetime]</text>
<polygon fill="none" stroke="#000000" points="55.5,-372.5 55.5,-402.5 281.5,-402.5 281.5,-372.5 55.5,-372.5"/>
<text text-anchor="start" x="62.5" y="-383.9" font-family="Arial" font-size="14.00" fill="#000000">pwResetCount    </text>
<text text-anchor="start" x="188.5014" y="-383.9" font-family="Arial" font-size="14.00" fill="#666666">[int(5)]</text>
<polygon fill="none" stroke="#000000" points="55.5,-342.5 55.5,-372.5 281.5,-372.5 281.5,-342.5 55.5,-342.5"/>
<text text-anchor="start" x="62.5" y="-353.9" font-family="Arial" font-size="14.00" fill="#000000">forcePwReset    </text>
<text text-anchor="start" x="183.8268" y="-353.9" font-family="Arial" font-size="14.00" fill="#666666">[tinyint(4)]</text>
<polygon fill="none" stroke="#000000" points="55.5,-312.5 55.5,-342.5 281.5,-342.5 281.5,-312.5 55.5,-312.5"/>
<text text-anchor="start" x="62.5" y="-323.9" font-family="Arial" font-size="14.00" fill="#000000">lastpwd_change    </text>
<text text-anchor="start" x="197.852" y="-323.9" font-family="Arial" font-size="14.00" fill="#666666">[datetime]</text>
<polygon fill="none" stroke="#000000" points="55.5,-282.5 55.5,-312.5 281.5,-312.5 281.5,-282.5 55.5,-282.5"/>
<text text-anchor="start" x="62.5" y="-293.9" font-family="Arial" font-size="14.00" fill="#000000">settings    </text>
<text text-anchor="start" x="144.9404" y="-293.9" font-family="Arial" font-size="14.00" fill="#666666">[text]</text>
<polygon fill="none" stroke="#000000" points="55.5,-252.5 55.5,-282.5 281.5,-282.5 281.5,-252.5 55.5,-252.5"/>
<text text-anchor="start" x="62.5" y="-263.9" font-family="Arial" font-size="14.00" fill="#000000">twoFAEnabled    </text>
<text text-anchor="start" x="187.73" y="-263.9" font-family="Arial" font-size="14.00" fill="#666666">[tinyint(1)]</text>
<polygon fill="none" stroke="#000000" points="55.5,-222.5 55.5,-252.5 281.5,-252.5 281.5,-222.5 55.5,-222.5"/>
<text text-anchor="start" x="62.5" y="-233.9" font-family="Arial" font-size="14.00" fill="#000000">twoFASecret    </text>
<text text-anchor="start" x="176.8268" y="-233.9" font-family="Arial" font-size="14.00" fill="#666666">[varchar(200)]</text>
<polygon fill="none" stroke="#000000" points="55.5,-192.5 55.5,-222.5 281.5,-222.5 281.5,-192.5 55.5,-192.5"/>
<text text-anchor="start" x="62.5" y="-203.9" font-family="Arial" font-size="14.00" fill="#000000">createdOn    </text>
<text text-anchor="start" x="162.0596" y="-203.9" font-family="Arial" font-size="14.00" fill="#666666">[datetime]</text>
<polygon fill="none" stroke="#000000" points="55.5,-162.5 55.5,-192.5 281.5,-192.5 281.5,-162.5 55.5,-162.5"/>
<text text-anchor="start" x="62.5" y="-173.9" font-family="Arial" font-size="14.00" fill="#000000">source    </text>
<text text-anchor="start" x="138.7132" y="-173.9" font-family="Arial" font-size="14.00" fill="#666666">[varchar(200)]</text>
<polygon fill="none" stroke="#000000" points="55.5,-132.5 55.5,-162.5 281.5,-162.5 281.5,-132.5 55.5,-132.5"/>
<text text-anchor="start" x="62.5" y="-143.9" font-family="Arial" font-size="14.00" fill="#000000">jobTitle    </text>
<text text-anchor="start" x="141.8156" y="-143.9" font-family="Arial" font-size="14.00" fill="#666666">[varchar(200)]</text>
<polygon fill="none" stroke="#000000" points="55.5,-102.5 55.5,-132.5 281.5,-132.5 281.5,-102.5 55.5,-102.5"/>
<text text-anchor="start" x="62.5" y="-113.9" font-family="Arial" font-size="14.00" fill="#000000">jobLevel    </text>
<text text-anchor="start" x="148.831" y="-113.9" font-family="Arial" font-size="14.00" fill="#666666">[varchar(50)]</text>
<polygon fill="none" stroke="#000000" points="55.5,-72.5 55.5,-102.5 281.5,-102.5 281.5,-72.5 55.5,-72.5"/>
<text text-anchor="start" x="62.5" y="-83.9" font-family="Arial" font-size="14.00" fill="#000000">department    </text>
<text text-anchor="start" x="167.5028" y="-83.9" font-family="Arial" font-size="14.00" fill="#666666">[varchar(200)]</text>
<polygon fill="none" stroke="#000000" points="55.5,-42.5 55.5,-72.5 281.5,-72.5 281.5,-42.5 55.5,-42.5"/>
<text text-anchor="start" x="62.5" y="-53.9" font-family="Arial" font-size="14.00" fill="#000000">modified    </text>
<text text-anchor="start" x="149.5996" y="-53.9" font-family="Arial" font-size="14.00" fill="#666666">[datetime]</text>
</g>
<!-- zp_reactions&#45;&gt;zp_user -->
<g id="edge1" class="edge">
<title>zp_reactions:userId&#45;&gt;zp_user:id</title>
<path fill="none" stroke="#000000" stroke-dasharray="5,2" d="M299.6637,-1296.792C367.1588,-1286.8719 339.3887,-1175.1508 289.5,-1117 220.9857,-1037.1389 124.0143,-1160.8611 55.5,-1081 28.4419,-1049.4608 13.9444,-987.5 55.5,-987.5"/>
<polygon fill="#000000" stroke="#000000" points="299.4758,-1296.805 289.1873,-1293.0109 294.4879,-1297.1525 289.5,-1297.5 289.5,-1297.5 289.5,-1297.5 294.4879,-1297.1525 289.8127,-1301.9891 299.4758,-1296.805 299.4758,-1296.805"/>
<text text-anchor="start" x="296.8245" y="-1307.5" font-family="Arial" font-size="10.00" fill="#000000">Additional Relation</text>
</g>
</g>
</svg>
