<?xml version="1.0" encoding="UTF-8" standalone="no"?>
<!DOCTYPE svg PUBLIC "-//W3C//DTD SVG 1.1//EN"
 "http://www.w3.org/Graphics/SVG/1.1/DTD/svg11.dtd">
<!-- Generated by graphviz version 2.40.1 (20161225.0304)
 -->
<!-- Title: zp_read Pages: 1 -->
<svg width="322pt" height="1372pt"
 viewBox="0.00 0.00 321.50 1372.00" xmlns="http://www.w3.org/2000/svg" xmlns:xlink="http://www.w3.org/1999/xlink">
<g id="graph0" class="graph" transform="scale(1 1) rotate(0) translate(4 1368)">
<title>zp_read</title>
<polygon fill="#ffffff" stroke="transparent" points="-4,4 -4,-1368 317.5,-1368 317.5,4 -4,4"/>
<!-- zp_read -->
<g id="node1" class="node">
<title>zp_read</title>
<polygon fill="#efefef" stroke="transparent" points="46.5,-1282.5 46.5,-1317.5 267.5,-1317.5 267.5,-1282.5 46.5,-1282.5"/>
<polygon fill="none" stroke="#000000" points="46.5,-1282.5 46.5,-1317.5 267.5,-1317.5 267.5,-1282.5 46.5,-1282.5"/>
<text text-anchor="start" x="60.7044" y="-1295.3" font-family="Arial Bold" font-size="18.00" fill="#000000">zp_read</text>
<text text-anchor="start" x="125.7276" y="-1295.3" font-family="Arial" font-size="14.00" fill="#000000">    </text>
<text text-anchor="start" x="159.9324" y="-1295.3" font-family="Arial" font-size="14.00" fill="#666666">[BASE TABLE]</text>
<polygon fill="none" stroke="#000000" points="46.5,-1252.5 46.5,-1282.5 267.5,-1282.5 267.5,-1252.5 46.5,-1252.5"/>
<text text-anchor="start" x="53.5" y="-1263.9" font-family="Arial" font-size="14.00" fill="#000000">id </text>
<text text-anchor="start" x="68.2798" y="-1263.9" font-family="Arial" font-size="14.00" fill="#666666">[int(11) unsigned]</text>
<polygon fill="none" stroke="#000000" points="46.5,-1222.5 46.5,-1252.5 267.5,-1252.5 267.5,-1222.5 46.5,-1222.5"/>
<text text-anchor="start" x="53.1893" y="-1233.9" font-family="Arial" font-size="14.00" fill="#000000">module </text>
<text text-anchor="start" x="102.9775" y="-1233.9" font-family="Arial" font-size="14.00" fill="#666666">[enum(&#39;ticket&#39;,&#39;message&#39;)]</text>
<polygon fill="none" stroke="#000000" points="46.5,-1192.5 46.5,-1222.5 267.5,-1222.5 267.5,-1192.5 46.5,-1192.5"/>
<text text-anchor="start" x="53.5" y="-1203.9" font-family="Arial" font-size="14.00" fill="#000000">moduleId </text>
<text text-anchor="start" x="114.9614" y="-1203.9" font-family="Arial" font-size="14.00" fill="#666666">[int(11)]</text>
<polygon fill="none" stroke="#000000" points="46.5,-1162.5 46.5,-1192.5 267.5,-1192.5 267.5,-1162.5 46.5,-1162.5"/>
<text text-anchor="start" x="53.5" y="-1173.9" font-family="Arial" font-size="14.00" fill="#000000">userId </text>
<text text-anchor="start" x="96.2896" y="-1173.9" font-family="Arial" font-size="14.00" fill="#666666">[int(11)]</text>
<polygon fill="none" stroke="#000000" stroke-width="3" points="44.5,-1161.5 44.5,-1319.5 268.5,-1319.5 268.5,-1161.5 44.5,-1161.5"/>
</g>
<!-- zp_user -->
<g id="node2" class="node">
<title>zp_user</title>
<polygon fill="#efefef" stroke="transparent" points="44.5,-1002.5 44.5,-1037.5 270.5,-1037.5 270.5,-1002.5 44.5,-1002.5"/>
<polygon fill="none" stroke="#000000" points="44.5,-1002.5 44.5,-1037.5 270.5,-1037.5 270.5,-1002.5 44.5,-1002.5"/>
<text text-anchor="start" x="61.7075" y="-1015.3" font-family="Arial Bold" font-size="18.00" fill="#000000">zp_user</text>
<text text-anchor="start" x="125.7245" y="-1015.3" font-family="Arial" font-size="14.00" fill="#000000">    </text>
<text text-anchor="start" x="159.9293" y="-1015.3" font-family="Arial" font-size="14.00" fill="#666666">[BASE TABLE]</text>
<polygon fill="none" stroke="#000000" points="44.5,-972.5 44.5,-1002.5 270.5,-1002.5 270.5,-972.5 44.5,-972.5"/>
<text text-anchor="start" x="51.5" y="-983.9" font-family="Arial" font-size="14.00" fill="#000000">id    </text>
<text text-anchor="start" x="96.594" y="-983.9" font-family="Arial" font-size="14.00" fill="#666666">[int(11)]</text>
<polygon fill="none" stroke="#000000" points="44.5,-942.5 44.5,-972.5 270.5,-972.5 270.5,-942.5 44.5,-942.5"/>
<text text-anchor="start" x="51.5" y="-953.9" font-family="Arial" font-size="14.00" fill="#000000">username    </text>
<text text-anchor="start" x="147.939" y="-953.9" font-family="Arial" font-size="14.00" fill="#666666">[varchar(175)]</text>
<polygon fill="none" stroke="#000000" points="44.5,-912.5 44.5,-942.5 270.5,-942.5 270.5,-912.5 44.5,-912.5"/>
<text text-anchor="start" x="51.5" y="-923.9" font-family="Arial" font-size="14.00" fill="#000000">password    </text>
<text text-anchor="start" x="145.6024" y="-923.9" font-family="Arial" font-size="14.00" fill="#666666">[varchar(255)]</text>
<polygon fill="none" stroke="#000000" points="44.5,-882.5 44.5,-912.5 270.5,-912.5 270.5,-882.5 44.5,-882.5"/>
<text text-anchor="start" x="51.5" y="-893.9" font-family="Arial" font-size="14.00" fill="#000000">firstname    </text>
<text text-anchor="start" x="143.2616" y="-893.9" font-family="Arial" font-size="14.00" fill="#666666">[varchar(100)]</text>
<polygon fill="none" stroke="#000000" points="44.5,-852.5 44.5,-882.5 270.5,-882.5 270.5,-852.5 44.5,-852.5"/>
<text text-anchor="start" x="51.5" y="-863.9" font-family="Arial" font-size="14.00" fill="#000000">lastname    </text>
<text text-anchor="start" x="142.493" y="-863.9" font-family="Arial" font-size="14.00" fill="#666666">[varchar(100)]</text>
<polygon fill="none" stroke="#000000" points="44.5,-822.5 44.5,-852.5 270.5,-852.5 270.5,-822.5 44.5,-822.5"/>
<text text-anchor="start" x="51.5" y="-833.9" font-family="Arial" font-size="14.00" fill="#000000">phone    </text>
<text text-anchor="start" x="124.6178" y="-833.9" font-family="Arial" font-size="14.00" fill="#666666">[varchar(25)]</text>
<polygon fill="none" stroke="#000000" points="44.5,-792.5 44.5,-822.5 270.5,-822.5 270.5,-792.5 44.5,-792.5"/>
<text text-anchor="start" x="51.5" y="-803.9" font-family="Arial" font-size="14.00" fill="#000000">profileId    </text>
<text text-anchor="start" x="135.4902" y="-803.9" font-family="Arial" font-size="14.00" fill="#666666">[varchar(100)]</text>
<polygon fill="none" stroke="#000000" points="44.5,-762.5 44.5,-792.5 270.5,-792.5 270.5,-762.5 44.5,-762.5"/>
<text text-anchor="start" x="51.5" y="-773.9" font-family="Arial" font-size="14.00" fill="#000000">lastlogin    </text>
<text text-anchor="start" x="137.0456" y="-773.9" font-family="Arial" font-size="14.00" fill="#666666">[datetime]</text>
<polygon fill="none" stroke="#000000" points="44.5,-732.5 44.5,-762.5 270.5,-762.5 270.5,-732.5 44.5,-732.5"/>
<text text-anchor="start" x="51.5" y="-743.9" font-family="Arial" font-size="14.00" fill="#000000">status    </text>
<text text-anchor="start" x="123.0512" y="-743.9" font-family="Arial" font-size="14.00" fill="#666666">[varchar(1)]</text>
<polygon fill="none" stroke="#000000" points="44.5,-702.5 44.5,-732.5 270.5,-732.5 270.5,-702.5 44.5,-702.5"/>
<text text-anchor="start" x="51.5" y="-713.9" font-family="Arial" font-size="14.00" fill="#000000">expires    </text>
<text text-anchor="start" x="130.8198" y="-713.9" font-family="Arial" font-size="14.00" fill="#666666">[datetime]</text>
<polygon fill="none" stroke="#000000" points="44.5,-672.5 44.5,-702.5 270.5,-702.5 270.5,-672.5 44.5,-672.5"/>
<text text-anchor="start" x="51.5" y="-683.9" font-family="Arial" font-size="14.00" fill="#000000">role    </text>
<text text-anchor="start" x="109.0372" y="-683.9" font-family="Arial" font-size="14.00" fill="#666666">[varchar(200)]</text>
<polygon fill="none" stroke="#000000" points="44.5,-642.5 44.5,-672.5 270.5,-672.5 270.5,-642.5 44.5,-642.5"/>
<text text-anchor="start" x="51.5" y="-653.9" font-family="Arial" font-size="14.00" fill="#000000">session    </text>
<text text-anchor="start" x="133.1592" y="-653.9" font-family="Arial" font-size="14.00" fill="#666666">[varchar(100)]</text>
<polygon fill="none" stroke="#000000" points="44.5,-612.5 44.5,-642.5 270.5,-642.5 270.5,-612.5 44.5,-612.5"/>
<text text-anchor="start" x="51.5" y="-623.9" font-family="Arial" font-size="14.00" fill="#000000">sessiontime    </text>
<text text-anchor="start" x="159.5996" y="-623.9" font-family="Arial" font-size="14.00" fill="#666666">[varchar(50)]</text>
<polygon fill="none" stroke="#000000" points="44.5,-582.5 44.5,-612.5 270.5,-612.5 270.5,-582.5 44.5,-582.5"/>
<text text-anchor="start" x="51.5" y="-593.9" font-family="Arial" font-size="14.00" fill="#000000">wage    </text>
<text text-anchor="start" x="119.1592" y="-593.9" font-family="Arial" font-size="14.00" fill="#666666">[int(11)]</text>
<polygon fill="none" stroke="#000000" points="44.5,-552.5 44.5,-582.5 270.5,-582.5 270.5,-552.5 44.5,-552.5"/>
<text text-anchor="start" x="51.5" y="-563.9" font-family="Arial" font-size="14.00" fill="#000000">hours    </text>
<text text-anchor="start" x="120.7132" y="-563.9" font-family="Arial" font-size="14.00" fill="#666666">[int(11)]</text>
<polygon fill="none" stroke="#000000" points="44.5,-522.5 44.5,-552.5 270.5,-552.5 270.5,-522.5 44.5,-522.5"/>
<text text-anchor="start" x="51.5" y="-533.9" font-family="Arial" font-size="14.00" fill="#000000">description    </text>
<text text-anchor="start" x="153.3822" y="-533.9" font-family="Arial" font-size="14.00" fill="#666666">[text]</text>
<polygon fill="none" stroke="#000000" points="44.5,-492.5 44.5,-522.5 270.5,-522.5 270.5,-492.5 44.5,-492.5"/>
<text text-anchor="start" x="51.5" y="-503.9" font-family="Arial" font-size="14.00" fill="#000000">clientId    </text>
<text text-anchor="start" x="130.047" y="-503.9" font-family="Arial" font-size="14.00" fill="#666666">[int(11)]</text>
<polygon fill="none" stroke="#000000" points="44.5,-462.5 44.5,-492.5 270.5,-492.5 270.5,-462.5 44.5,-462.5"/>
<text text-anchor="start" x="51.5" y="-473.9" font-family="Arial" font-size="14.00" fill="#000000">notifications    </text>
<text text-anchor="start" x="159.6094" y="-473.9" font-family="Arial" font-size="14.00" fill="#666666">[int(2)]</text>
<polygon fill="none" stroke="#000000" points="44.5,-432.5 44.5,-462.5 270.5,-462.5 270.5,-432.5 44.5,-432.5"/>
<text text-anchor="start" x="51.5" y="-443.9" font-family="Arial" font-size="14.00" fill="#000000">pwReset    </text>
<text text-anchor="start" x="140.1564" y="-443.9" font-family="Arial" font-size="14.00" fill="#666666">[varchar(100)]</text>
<polygon fill="none" stroke="#000000" points="44.5,-402.5 44.5,-432.5 270.5,-432.5 270.5,-402.5 44.5,-402.5"/>
<text text-anchor="start" x="51.3261" y="-413.9" font-family="Arial" font-size="14.00" fill="#000000">pwResetExpiration    </text>
<text text-anchor="start" x="202.2139" y="-413.9" font-family="Arial" font-size="14.00" fill="#666666">[datetime]</text>
<polygon fill="none" stroke="#000000" points="44.5,-372.5 44.5,-402.5 270.5,-402.5 270.5,-372.5 44.5,-372.5"/>
<text text-anchor="start" x="51.5" y="-383.9" font-family="Arial" font-size="14.00" fill="#000000">pwResetCount    </text>
<text text-anchor="start" x="177.5014" y="-383.9" font-family="Arial" font-size="14.00" fill="#666666">[int(5)]</text>
<polygon fill="none" stroke="#000000" points="44.5,-342.5 44.5,-372.5 270.5,-372.5 270.5,-342.5 44.5,-342.5"/>
<text text-anchor="start" x="51.5" y="-353.9" font-family="Arial" font-size="14.00" fill="#000000">forcePwReset    </text>
<text text-anchor="start" x="172.8268" y="-353.9" font-family="Arial" font-size="14.00" fill="#666666">[tinyint(4)]</text>
<polygon fill="none" stroke="#000000" points="44.5,-312.5 44.5,-342.5 270.5,-342.5 270.5,-312.5 44.5,-312.5"/>
<text text-anchor="start" x="51.5" y="-323.9" font-family="Arial" font-size="14.00" fill="#000000">lastpwd_change    </text>
<text text-anchor="start" x="186.852" y="-323.9" font-family="Arial" font-size="14.00" fill="#666666">[datetime]</text>
<polygon fill="none" stroke="#000000" points="44.5,-282.5 44.5,-312.5 270.5,-312.5 270.5,-282.5 44.5,-282.5"/>
<text text-anchor="start" x="51.5" y="-293.9" font-family="Arial" font-size="14.00" fill="#000000">settings    </text>
<text text-anchor="start" x="133.9404" y="-293.9" font-family="Arial" font-size="14.00" fill="#666666">[text]</text>
<polygon fill="none" stroke="#000000" points="44.5,-252.5 44.5,-282.5 270.5,-282.5 270.5,-252.5 44.5,-252.5"/>
<text text-anchor="start" x="51.5" y="-263.9" font-family="Arial" font-size="14.00" fill="#000000">twoFAEnabled    </text>
<text text-anchor="start" x="176.73" y="-263.9" font-family="Arial" font-size="14.00" fill="#666666">[tinyint(1)]</text>
<polygon fill="none" stroke="#000000" points="44.5,-222.5 44.5,-252.5 270.5,-252.5 270.5,-222.5 44.5,-222.5"/>
<text text-anchor="start" x="51.5" y="-233.9" font-family="Arial" font-size="14.00" fill="#000000">twoFASecret    </text>
<text text-anchor="start" x="165.8268" y="-233.9" font-family="Arial" font-size="14.00" fill="#666666">[varchar(200)]</text>
<polygon fill="none" stroke="#000000" points="44.5,-192.5 44.5,-222.5 270.5,-222.5 270.5,-192.5 44.5,-192.5"/>
<text text-anchor="start" x="51.5" y="-203.9" font-family="Arial" font-size="14.00" fill="#000000">createdOn    </text>
<text text-anchor="start" x="151.0596" y="-203.9" font-family="Arial" font-size="14.00" fill="#666666">[datetime]</text>
<polygon fill="none" stroke="#000000" points="44.5,-162.5 44.5,-192.5 270.5,-192.5 270.5,-162.5 44.5,-162.5"/>
<text text-anchor="start" x="51.5" y="-173.9" font-family="Arial" font-size="14.00" fill="#000000">source    </text>
<text text-anchor="start" x="127.7132" y="-173.9" font-family="Arial" font-size="14.00" fill="#666666">[varchar(200)]</text>
<polygon fill="none" stroke="#000000" points="44.5,-132.5 44.5,-162.5 270.5,-162.5 270.5,-132.5 44.5,-132.5"/>
<text text-anchor="start" x="51.5" y="-143.9" font-family="Arial" font-size="14.00" fill="#000000">jobTitle    </text>
<text text-anchor="start" x="130.8156" y="-143.9" font-family="Arial" font-size="14.00" fill="#666666">[varchar(200)]</text>
<polygon fill="none" stroke="#000000" points="44.5,-102.5 44.5,-132.5 270.5,-132.5 270.5,-102.5 44.5,-102.5"/>
<text text-anchor="start" x="51.5" y="-113.9" font-family="Arial" font-size="14.00" fill="#000000">jobLevel    </text>
<text text-anchor="start" x="137.831" y="-113.9" font-family="Arial" font-size="14.00" fill="#666666">[varchar(50)]</text>
<polygon fill="none" stroke="#000000" points="44.5,-72.5 44.5,-102.5 270.5,-102.5 270.5,-72.5 44.5,-72.5"/>
<text text-anchor="start" x="51.5" y="-83.9" font-family="Arial" font-size="14.00" fill="#000000">department    </text>
<text text-anchor="start" x="156.5028" y="-83.9" font-family="Arial" font-size="14.00" fill="#666666">[varchar(200)]</text>
<polygon fill="none" stroke="#000000" points="44.5,-42.5 44.5,-72.5 270.5,-72.5 270.5,-42.5 44.5,-42.5"/>
<text text-anchor="start" x="51.5" y="-53.9" font-family="Arial" font-size="14.00" fill="#000000">modified    </text>
<text text-anchor="start" x="138.5996" y="-53.9" font-family="Arial" font-size="14.00" fill="#666666">[datetime]</text>
</g>
<!-- zp_read&#45;&gt;zp_user -->
<g id="edge1" class="edge">
<title>zp_read:userId&#45;&gt;zp_user:id</title>
<path fill="none" stroke="#000000" stroke-dasharray="5,2" d="M156.5989,-1152.2826C147.4396,-1104.5501 71,-1132.7862 44.5,-1081 25.5698,-1044.0066 2.9444,-987.5 44.5,-987.5"/>
<polygon fill="#000000" stroke="#000000" points="156.6213,-1152.5387 153.0174,-1162.8954 157.0607,-1157.5193 157.5,-1162.5 157.5,-1162.5 157.5,-1162.5 157.0607,-1157.5193 161.9826,-1162.1046 156.6213,-1152.5387 156.6213,-1152.5387"/>
<text text-anchor="start" x="140.5745" y="-1146.5" font-family="Arial" font-size="10.00" fill="#000000">Additional Relation</text>
</g>
</g>
</svg>
