<?xml version="1.0" encoding="UTF-8" standalone="no"?>
<!DOCTYPE svg PUBLIC "-//W3C//DTD SVG 1.1//EN"
 "http://www.w3.org/Graphics/SVG/1.1/DTD/svg11.dtd">
<!-- Generated by graphviz version 2.40.1 (20161225.0304)
 -->
<!-- Title: zp_sprints Pages: 1 -->
<svg width="439pt" height="2039pt"
 viewBox="0.00 0.00 438.50 2039.00" xmlns="http://www.w3.org/2000/svg" xmlns:xlink="http://www.w3.org/1999/xlink">
<g id="graph0" class="graph" transform="scale(1 1) rotate(0) translate(4 2035)">
<title>zp_sprints</title>
<polygon fill="#ffffff" stroke="transparent" points="-4,4 -4,-2035 434.5,-2035 434.5,4 -4,4"/>
<!-- zp_sprints -->
<g id="node1" class="node">
<title>zp_sprints</title>
<polygon fill="#efefef" stroke="transparent" points="131,-922.5 131,-957.5 354,-957.5 354,-922.5 131,-922.5"/>
<polygon fill="none" stroke="#000000" points="131,-922.5 131,-957.5 354,-957.5 354,-922.5 131,-922.5"/>
<text text-anchor="start" x="137.7093" y="-935.3" font-family="Arial Bold" font-size="18.00" fill="#000000">zp_sprints</text>
<text text-anchor="start" x="219.7227" y="-935.3" font-family="Arial" font-size="14.00" fill="#000000">    </text>
<text text-anchor="start" x="253.9275" y="-935.3" font-family="Arial" font-size="14.00" fill="#666666">[BASE TABLE]</text>
<polygon fill="none" stroke="#000000" points="131,-892.5 131,-922.5 354,-922.5 354,-892.5 131,-892.5"/>
<text text-anchor="start" x="138" y="-903.9" font-family="Arial" font-size="14.00" fill="#000000">id </text>
<text text-anchor="start" x="152.7798" y="-903.9" font-family="Arial" font-size="14.00" fill="#666666">[int(11)]</text>
<polygon fill="none" stroke="#000000" points="131,-862.5 131,-892.5 354,-892.5 354,-862.5 131,-862.5"/>
<text text-anchor="start" x="138" y="-873.9" font-family="Arial" font-size="14.00" fill="#000000">projectId </text>
<text text-anchor="start" x="195.5694" y="-873.9" font-family="Arial" font-size="14.00" fill="#666666">[int(11)]</text>
<polygon fill="none" stroke="#000000" points="131,-832.5 131,-862.5 354,-862.5 354,-832.5 131,-832.5"/>
<text text-anchor="start" x="138" y="-843.9" font-family="Arial" font-size="14.00" fill="#000000">name </text>
<text text-anchor="start" x="176.899" y="-843.9" font-family="Arial" font-size="14.00" fill="#666666">[varchar(45)]</text>
<polygon fill="none" stroke="#000000" points="131,-802.5 131,-832.5 354,-832.5 354,-802.5 131,-802.5"/>
<text text-anchor="start" x="138" y="-813.9" font-family="Arial" font-size="14.00" fill="#000000">startDate </text>
<text text-anchor="start" x="198.6774" y="-813.9" font-family="Arial" font-size="14.00" fill="#666666">[datetime]</text>
<polygon fill="none" stroke="#000000" points="131,-772.5 131,-802.5 354,-802.5 354,-772.5 131,-772.5"/>
<text text-anchor="start" x="138" y="-783.9" font-family="Arial" font-size="14.00" fill="#000000">endDate </text>
<text text-anchor="start" x="194.8008" y="-783.9" font-family="Arial" font-size="14.00" fill="#666666">[datetime]</text>
<polygon fill="none" stroke="#000000" stroke-width="3" points="129,-771.5 129,-959.5 355,-959.5 355,-771.5 129,-771.5"/>
</g>
<!-- zp_projects -->
<g id="node3" class="node">
<title>zp_projects</title>
<polygon fill="#efefef" stroke="transparent" points="126,-612.5 126,-647.5 359,-647.5 359,-612.5 126,-612.5"/>
<polygon fill="none" stroke="#000000" points="126,-612.5 126,-647.5 359,-647.5 359,-612.5 126,-612.5"/>
<text text-anchor="start" x="132.7062" y="-625.3" font-family="Arial Bold" font-size="18.00" fill="#000000">zp_projects</text>
<text text-anchor="start" x="224.7258" y="-625.3" font-family="Arial" font-size="14.00" fill="#000000">    </text>
<text text-anchor="start" x="258.9306" y="-625.3" font-family="Arial" font-size="14.00" fill="#666666">[BASE TABLE]</text>
<polygon fill="none" stroke="#000000" points="126,-582.5 126,-612.5 359,-612.5 359,-582.5 126,-582.5"/>
<text text-anchor="start" x="133" y="-593.9" font-family="Arial" font-size="14.00" fill="#000000">id    </text>
<text text-anchor="start" x="178.094" y="-593.9" font-family="Arial" font-size="14.00" fill="#666666">[int(11)]</text>
<polygon fill="none" stroke="#000000" points="126,-552.5 126,-582.5 359,-582.5 359,-552.5 126,-552.5"/>
<text text-anchor="start" x="133" y="-563.9" font-family="Arial" font-size="14.00" fill="#000000">name    </text>
<text text-anchor="start" x="202.2132" y="-563.9" font-family="Arial" font-size="14.00" fill="#666666">[varchar(100)]</text>
<polygon fill="none" stroke="#000000" points="126,-522.5 126,-552.5 359,-552.5 359,-522.5 126,-522.5"/>
<text text-anchor="start" x="133" y="-533.9" font-family="Arial" font-size="14.00" fill="#000000">clientId    </text>
<text text-anchor="start" x="211.547" y="-533.9" font-family="Arial" font-size="14.00" fill="#666666">[int(100)]</text>
<polygon fill="none" stroke="#000000" points="126,-492.5 126,-522.5 359,-522.5 359,-492.5 126,-492.5"/>
<text text-anchor="start" x="133" y="-503.9" font-family="Arial" font-size="14.00" fill="#000000">details    </text>
<text text-anchor="start" x="207.6564" y="-503.9" font-family="Arial" font-size="14.00" fill="#666666">[text]</text>
<polygon fill="none" stroke="#000000" points="126,-462.5 126,-492.5 359,-492.5 359,-462.5 126,-462.5"/>
<text text-anchor="start" x="133" y="-473.9" font-family="Arial" font-size="14.00" fill="#000000">state    </text>
<text text-anchor="start" x="197.5512" y="-473.9" font-family="Arial" font-size="14.00" fill="#666666">[int(2)]</text>
<polygon fill="none" stroke="#000000" points="126,-432.5 126,-462.5 359,-462.5 359,-432.5 126,-432.5"/>
<text text-anchor="start" x="133" y="-443.9" font-family="Arial" font-size="14.00" fill="#000000">hourBudget    </text>
<text text-anchor="start" x="239.5708" y="-443.9" font-family="Arial" font-size="14.00" fill="#666666">[varchar(255)]</text>
<polygon fill="none" stroke="#000000" points="126,-402.5 126,-432.5 359,-432.5 359,-402.5 126,-402.5"/>
<text text-anchor="start" x="133" y="-413.9" font-family="Arial" font-size="14.00" fill="#000000">dollarBudget    </text>
<text text-anchor="start" x="245.784" y="-413.9" font-family="Arial" font-size="14.00" fill="#666666">[int(11)]</text>
<polygon fill="none" stroke="#000000" points="126,-372.5 126,-402.5 359,-402.5 359,-372.5 126,-372.5"/>
<text text-anchor="start" x="133" y="-383.9" font-family="Arial" font-size="14.00" fill="#000000">active    </text>
<text text-anchor="start" x="203.7672" y="-383.9" font-family="Arial" font-size="14.00" fill="#666666">[int(11)]</text>
<polygon fill="none" stroke="#000000" points="126,-342.5 126,-372.5 359,-372.5 359,-342.5 126,-342.5"/>
<text text-anchor="start" x="133" y="-353.9" font-family="Arial" font-size="14.00" fill="#000000">menuType    </text>
<text text-anchor="start" x="233.331" y="-353.9" font-family="Arial" font-size="14.00" fill="#666666">[mediumtext]</text>
<polygon fill="none" stroke="#000000" points="126,-312.5 126,-342.5 359,-342.5 359,-312.5 126,-312.5"/>
<text text-anchor="start" x="133" y="-323.9" font-family="Arial" font-size="14.00" fill="#000000">psettings    </text>
<text text-anchor="start" x="223.223" y="-323.9" font-family="Arial" font-size="14.00" fill="#666666">[mediumtext]</text>
<polygon fill="none" stroke="#000000" points="126,-282.5 126,-312.5 359,-312.5 359,-282.5 126,-282.5"/>
<text text-anchor="start" x="133" y="-293.9" font-family="Arial" font-size="14.00" fill="#000000">parent    </text>
<text text-anchor="start" x="206.8864" y="-293.9" font-family="Arial" font-size="14.00" fill="#666666">[int(11)]</text>
<polygon fill="none" stroke="#000000" points="126,-252.5 126,-282.5 359,-282.5 359,-252.5 126,-252.5"/>
<text text-anchor="start" x="133" y="-263.9" font-family="Arial" font-size="14.00" fill="#000000">type    </text>
<text text-anchor="start" x="193.6606" y="-263.9" font-family="Arial" font-size="14.00" fill="#666666">[varchar(45)]</text>
<polygon fill="none" stroke="#000000" points="126,-222.5 126,-252.5 359,-252.5 359,-222.5 126,-222.5"/>
<text text-anchor="start" x="133" y="-233.9" font-family="Arial" font-size="14.00" fill="#000000">start    </text>
<text text-anchor="start" x="194.4292" y="-233.9" font-family="Arial" font-size="14.00" fill="#666666">[datetime]</text>
<polygon fill="none" stroke="#000000" points="126,-192.5 126,-222.5 359,-222.5 359,-192.5 126,-192.5"/>
<text text-anchor="start" x="133" y="-203.9" font-family="Arial" font-size="14.00" fill="#000000">end    </text>
<text text-anchor="start" x="190.5526" y="-203.9" font-family="Arial" font-size="14.00" fill="#666666">[datetime]</text>
<polygon fill="none" stroke="#000000" points="126,-162.5 126,-192.5 359,-192.5 359,-162.5 126,-162.5"/>
<text text-anchor="start" x="133" y="-173.9" font-family="Arial" font-size="14.00" fill="#000000">created    </text>
<text text-anchor="start" x="213.8864" y="-173.9" font-family="Arial" font-size="14.00" fill="#666666">[datetime]</text>
<polygon fill="none" stroke="#000000" points="126,-132.5 126,-162.5 359,-162.5 359,-132.5 126,-132.5"/>
<text text-anchor="start" x="133" y="-143.9" font-family="Arial" font-size="14.00" fill="#000000">modified    </text>
<text text-anchor="start" x="220.0996" y="-143.9" font-family="Arial" font-size="14.00" fill="#666666">[datetime]</text>
<polygon fill="none" stroke="#000000" points="126,-102.5 126,-132.5 359,-132.5 359,-102.5 126,-102.5"/>
<text text-anchor="start" x="133" y="-113.9" font-family="Arial" font-size="14.00" fill="#000000">avatar    </text>
<text text-anchor="start" x="206.1038" y="-113.9" font-family="Arial" font-size="14.00" fill="#666666">[mediumtext]</text>
<polygon fill="none" stroke="#000000" points="126,-72.5 126,-102.5 359,-102.5 359,-72.5 126,-72.5"/>
<text text-anchor="start" x="133" y="-83.9" font-family="Arial" font-size="14.00" fill="#000000">cover    </text>
<text text-anchor="start" x="201.4306" y="-83.9" font-family="Arial" font-size="14.00" fill="#666666">[mediumtext]</text>
<polygon fill="none" stroke="#000000" points="126,-42.5 126,-72.5 359,-72.5 359,-42.5 126,-42.5"/>
<text text-anchor="start" x="133" y="-53.9" font-family="Arial" font-size="14.00" fill="#000000">sortIndex    </text>
<text text-anchor="start" x="224.777" y="-53.9" font-family="Arial" font-size="14.00" fill="#666666">[int(11)]</text>
</g>
<!-- zp_sprints&#45;&gt;zp_projects -->
<g id="edge2" class="edge">
<title>zp_sprints:projectId&#45;&gt;zp_projects:id</title>
<path fill="none" stroke="#000000" stroke-dasharray="5,2" d="M120.7131,-876.839C6.3563,-861.8652 5.0606,-597.5 126,-597.5"/>
<polygon fill="#000000" stroke="#000000" points="121.0206,-876.8587 130.7114,-881.9907 126.0103,-877.1793 131,-877.5 131,-877.5 131,-877.5 126.0103,-877.1793 131.2886,-873.0093 121.0206,-876.8587 121.0206,-876.8587"/>
<text text-anchor="start" x="41.3245" y="-887.5" font-family="Arial" font-size="10.00" fill="#000000">Additional Relation</text>
</g>
<!-- zp_stats -->
<g id="node2" class="node">
<title>zp_stats</title>
<polygon fill="#efefef" stroke="transparent" points="97,-1952.5 97,-1987.5 388,-1987.5 388,-1952.5 97,-1952.5"/>
<polygon fill="none" stroke="#000000" points="97,-1952.5 97,-1987.5 388,-1987.5 388,-1952.5 97,-1952.5"/>
<text text-anchor="start" x="145.2045" y="-1965.3" font-family="Arial Bold" font-size="18.00" fill="#000000">zp_stats</text>
<text text-anchor="start" x="212.2275" y="-1965.3" font-family="Arial" font-size="14.00" fill="#000000">    </text>
<text text-anchor="start" x="246.4323" y="-1965.3" font-family="Arial" font-size="14.00" fill="#666666">[BASE TABLE]</text>
<polygon fill="none" stroke="#000000" points="97,-1922.5 97,-1952.5 388,-1952.5 388,-1922.5 97,-1922.5"/>
<text text-anchor="start" x="104" y="-1933.9" font-family="Arial" font-size="14.00" fill="#000000">sprintId    </text>
<text text-anchor="start" x="184.101" y="-1933.9" font-family="Arial" font-size="14.00" fill="#666666">[int(11)]</text>
<polygon fill="none" stroke="#000000" points="97,-1892.5 97,-1922.5 388,-1922.5 388,-1892.5 97,-1892.5"/>
<text text-anchor="start" x="104" y="-1903.9" font-family="Arial" font-size="14.00" fill="#000000">projectId    </text>
<text text-anchor="start" x="191.8836" y="-1903.9" font-family="Arial" font-size="14.00" fill="#666666">[int(11)]</text>
<polygon fill="none" stroke="#000000" points="97,-1862.5 97,-1892.5 388,-1892.5 388,-1862.5 97,-1862.5"/>
<text text-anchor="start" x="104" y="-1873.9" font-family="Arial" font-size="14.00" fill="#000000">date    </text>
<text text-anchor="start" x="165.4432" y="-1873.9" font-family="Arial" font-size="14.00" fill="#666666">[datetime]</text>
<polygon fill="none" stroke="#000000" points="97,-1832.5 97,-1862.5 388,-1862.5 388,-1832.5 97,-1832.5"/>
<text text-anchor="start" x="104" y="-1843.9" font-family="Arial" font-size="14.00" fill="#000000">sum_todos    </text>
<text text-anchor="start" x="206.669" y="-1843.9" font-family="Arial" font-size="14.00" fill="#666666">[int(11)]</text>
<polygon fill="none" stroke="#000000" points="97,-1802.5 97,-1832.5 388,-1832.5 388,-1802.5 97,-1802.5"/>
<text text-anchor="start" x="104" y="-1813.9" font-family="Arial" font-size="14.00" fill="#000000">sum_open_todos    </text>
<text text-anchor="start" x="245.582" y="-1813.9" font-family="Arial" font-size="14.00" fill="#666666">[int(11)]</text>
<polygon fill="none" stroke="#000000" points="97,-1772.5 97,-1802.5 388,-1802.5 388,-1772.5 97,-1772.5"/>
<text text-anchor="start" x="104" y="-1783.9" font-family="Arial" font-size="14.00" fill="#000000">sum_progres_todos    </text>
<text text-anchor="start" x="261.9032" y="-1783.9" font-family="Arial" font-size="14.00" fill="#666666">[int(11)]</text>
<polygon fill="none" stroke="#000000" points="97,-1742.5 97,-1772.5 388,-1772.5 388,-1742.5 97,-1742.5"/>
<text text-anchor="start" x="104" y="-1753.9" font-family="Arial" font-size="14.00" fill="#000000">sum_closed_todos    </text>
<text text-anchor="start" x="254.906" y="-1753.9" font-family="Arial" font-size="14.00" fill="#666666">[int(11)]</text>
<polygon fill="none" stroke="#000000" points="97,-1712.5 97,-1742.5 388,-1742.5 388,-1712.5 97,-1712.5"/>
<text text-anchor="start" x="104" y="-1723.9" font-family="Arial" font-size="14.00" fill="#000000">sum_planned_hours    </text>
<text text-anchor="start" x="265.0238" y="-1723.9" font-family="Arial" font-size="14.00" fill="#666666">[float]</text>
<polygon fill="none" stroke="#000000" points="97,-1682.5 97,-1712.5 388,-1712.5 388,-1682.5 97,-1682.5"/>
<text text-anchor="start" x="104" y="-1693.9" font-family="Arial" font-size="14.00" fill="#000000">sum_estremaining_hours    </text>
<text text-anchor="start" x="295.3422" y="-1693.9" font-family="Arial" font-size="14.00" fill="#666666">[float]</text>
<polygon fill="none" stroke="#000000" points="97,-1652.5 97,-1682.5 388,-1682.5 388,-1652.5 97,-1652.5"/>
<text text-anchor="start" x="104" y="-1663.9" font-family="Arial" font-size="14.00" fill="#000000">sum_logged_hours    </text>
<text text-anchor="start" x="257.2412" y="-1663.9" font-family="Arial" font-size="14.00" fill="#666666">[float]</text>
<polygon fill="none" stroke="#000000" points="97,-1622.5 97,-1652.5 388,-1652.5 388,-1622.5 97,-1622.5"/>
<text text-anchor="start" x="104" y="-1633.9" font-family="Arial" font-size="14.00" fill="#000000">sum_points    </text>
<text text-anchor="start" x="209.7756" y="-1633.9" font-family="Arial" font-size="14.00" fill="#666666">[int(11)]</text>
<polygon fill="none" stroke="#000000" points="97,-1592.5 97,-1622.5 388,-1622.5 388,-1592.5 97,-1592.5"/>
<text text-anchor="start" x="104" y="-1603.9" font-family="Arial" font-size="14.00" fill="#000000">sum_points_done    </text>
<text text-anchor="start" x="248.6886" y="-1603.9" font-family="Arial" font-size="14.00" fill="#666666">[int(11)]</text>
<polygon fill="none" stroke="#000000" points="97,-1562.5 97,-1592.5 388,-1592.5 388,-1562.5 97,-1562.5"/>
<text text-anchor="start" x="104" y="-1573.9" font-family="Arial" font-size="14.00" fill="#000000">sum_points_progress    </text>
<text text-anchor="start" x="272.0098" y="-1573.9" font-family="Arial" font-size="14.00" fill="#666666">[int(11)]</text>
<polygon fill="none" stroke="#000000" points="97,-1532.5 97,-1562.5 388,-1562.5 388,-1532.5 97,-1532.5"/>
<text text-anchor="start" x="104" y="-1543.9" font-family="Arial" font-size="14.00" fill="#000000">sum_points_open    </text>
<text text-anchor="start" x="248.6886" y="-1543.9" font-family="Arial" font-size="14.00" fill="#666666">[int(11)]</text>
<polygon fill="none" stroke="#000000" points="97,-1502.5 97,-1532.5 388,-1532.5 388,-1502.5 97,-1502.5"/>
<text text-anchor="start" x="104" y="-1513.9" font-family="Arial" font-size="14.00" fill="#000000">sum_todos_xs    </text>
<text text-anchor="start" x="228.4516" y="-1513.9" font-family="Arial" font-size="14.00" fill="#666666">[int(11)]</text>
<polygon fill="none" stroke="#000000" points="97,-1472.5 97,-1502.5 388,-1502.5 388,-1472.5 97,-1472.5"/>
<text text-anchor="start" x="104" y="-1483.9" font-family="Arial" font-size="14.00" fill="#000000">sum_todos_s    </text>
<text text-anchor="start" x="221.4516" y="-1483.9" font-family="Arial" font-size="14.00" fill="#666666">[int(11)]</text>
<polygon fill="none" stroke="#000000" points="97,-1442.5 97,-1472.5 388,-1472.5 388,-1442.5 97,-1442.5"/>
<text text-anchor="start" x="104" y="-1453.9" font-family="Arial" font-size="14.00" fill="#000000">sum_todos_m    </text>
<text text-anchor="start" x="226.1122" y="-1453.9" font-family="Arial" font-size="14.00" fill="#666666">[int(11)]</text>
<polygon fill="none" stroke="#000000" points="97,-1412.5 97,-1442.5 388,-1442.5 388,-1412.5 97,-1412.5"/>
<text text-anchor="start" x="104" y="-1423.9" font-family="Arial" font-size="14.00" fill="#000000">sum_todos_l    </text>
<text text-anchor="start" x="217.5582" y="-1423.9" font-family="Arial" font-size="14.00" fill="#666666">[int(11)]</text>
<polygon fill="none" stroke="#000000" points="97,-1382.5 97,-1412.5 388,-1412.5 388,-1382.5 97,-1382.5"/>
<text text-anchor="start" x="104" y="-1393.9" font-family="Arial" font-size="14.00" fill="#000000">sum_todos_xl    </text>
<text text-anchor="start" x="224.5582" y="-1393.9" font-family="Arial" font-size="14.00" fill="#666666">[int(11)]</text>
<polygon fill="none" stroke="#000000" points="97,-1352.5 97,-1382.5 388,-1382.5 388,-1352.5 97,-1352.5"/>
<text text-anchor="start" x="104" y="-1363.9" font-family="Arial" font-size="14.00" fill="#000000">sum_todos_xxl    </text>
<text text-anchor="start" x="231.5582" y="-1363.9" font-family="Arial" font-size="14.00" fill="#666666">[int(11)]</text>
<polygon fill="none" stroke="#000000" points="97,-1322.5 97,-1352.5 388,-1352.5 388,-1322.5 97,-1322.5"/>
<text text-anchor="start" x="104" y="-1333.9" font-family="Arial" font-size="14.00" fill="#000000">sum_todos_none    </text>
<text text-anchor="start" x="245.582" y="-1333.9" font-family="Arial" font-size="14.00" fill="#666666">[int(11)]</text>
<polygon fill="none" stroke="#000000" points="97,-1292.5 97,-1322.5 388,-1322.5 388,-1292.5 97,-1292.5"/>
<text text-anchor="start" x="104" y="-1303.9" font-family="Arial" font-size="14.00" fill="#000000">tickets    </text>
<text text-anchor="start" x="177.8752" y="-1303.9" font-family="Arial" font-size="14.00" fill="#666666">[text]</text>
<polygon fill="none" stroke="#000000" points="97,-1262.5 97,-1292.5 388,-1292.5 388,-1262.5 97,-1262.5"/>
<text text-anchor="start" x="104" y="-1273.9" font-family="Arial" font-size="14.00" fill="#000000">daily_avg_hours_booked_todo    </text>
<text text-anchor="start" x="328.8386" y="-1273.9" font-family="Arial" font-size="14.00" fill="#666666">[float]</text>
<polygon fill="none" stroke="#000000" points="97,-1232.5 97,-1262.5 388,-1262.5 388,-1232.5 97,-1232.5"/>
<text text-anchor="start" x="104" y="-1243.9" font-family="Arial" font-size="14.00" fill="#000000">daily_avg_hours_booked_point    </text>
<text text-anchor="start" x="331.9452" y="-1243.9" font-family="Arial" font-size="14.00" fill="#666666">[float]</text>
<polygon fill="none" stroke="#000000" points="97,-1202.5 97,-1232.5 388,-1232.5 388,-1202.5 97,-1202.5"/>
<text text-anchor="start" x="104" y="-1213.9" font-family="Arial" font-size="14.00" fill="#000000">daily_avg_hours_planned_todo    </text>
<text text-anchor="start" x="332.7278" y="-1213.9" font-family="Arial" font-size="14.00" fill="#666666">[float]</text>
<polygon fill="none" stroke="#000000" points="97,-1172.5 97,-1202.5 388,-1202.5 388,-1172.5 97,-1172.5"/>
<text text-anchor="start" x="104" y="-1183.9" font-family="Arial" font-size="14.00" fill="#000000">daily_avg_hours_planned_point    </text>
<text text-anchor="start" x="335.8344" y="-1183.9" font-family="Arial" font-size="14.00" fill="#666666">[float]</text>
<polygon fill="none" stroke="#000000" points="97,-1142.5 97,-1172.5 388,-1172.5 388,-1142.5 97,-1142.5"/>
<text text-anchor="start" x="103.6431" y="-1153.9" font-family="Arial" font-size="14.00" fill="#000000">daily_avg_hours_remaining_point    </text>
<text text-anchor="start" x="347.1227" y="-1153.9" font-family="Arial" font-size="14.00" fill="#666666">[float]</text>
<polygon fill="none" stroke="#000000" points="97,-1112.5 97,-1142.5 388,-1142.5 388,-1112.5 97,-1112.5"/>
<text text-anchor="start" x="104" y="-1123.9" font-family="Arial" font-size="14.00" fill="#000000">daily_avg_hours_remaining_todo    </text>
<text text-anchor="start" x="344.373" y="-1123.9" font-family="Arial" font-size="14.00" fill="#666666">[float]</text>
<polygon fill="none" stroke="#000000" points="97,-1082.5 97,-1112.5 388,-1112.5 388,-1082.5 97,-1082.5"/>
<text text-anchor="start" x="104" y="-1093.9" font-family="Arial" font-size="14.00" fill="#000000">sum_teammembers    </text>
<text text-anchor="start" x="261.8766" y="-1093.9" font-family="Arial" font-size="14.00" fill="#666666">[int(11)]</text>
</g>
<!-- zp_stats&#45;&gt;zp_sprints -->
<g id="edge1" class="edge">
<title>zp_stats:sprintId&#45;&gt;zp_sprints:id</title>
<path fill="none" stroke="#000000" stroke-dasharray="5,2" d="M87.3166,-1934.8996C-15.4455,-1878.0325 19.8479,-907.5 131,-907.5"/>
<polygon fill="#000000" stroke="#000000" points="87.3422,-1934.9064 95.8329,-1941.846 92.1711,-1936.2032 97,-1937.5 97,-1937.5 97,-1937.5 92.1711,-1936.2032 98.1671,-1933.154 87.3422,-1934.9064 87.3422,-1934.9064"/>
<text text-anchor="start" x="7.3245" y="-1947.5" font-family="Arial" font-size="10.00" fill="#000000">Additional Relation</text>
</g>
</g>
</svg>
