<?xml version="1.0" encoding="UTF-8" standalone="no"?>
<!DOCTYPE svg PUBLIC "-//W3C//DTD SVG 1.1//EN"
 "http://www.w3.org/Graphics/SVG/1.1/DTD/svg11.dtd">
<!-- Generated by graphviz version 2.40.1 (20161225.0304)
 -->
<!-- Title: zp_stats Pages: 1 -->
<svg width="656pt" height="1732pt"
 viewBox="0.00 0.00 655.87 1732.00" xmlns="http://www.w3.org/2000/svg" xmlns:xlink="http://www.w3.org/1999/xlink">
<g id="graph0" class="graph" transform="scale(1 1) rotate(0) translate(4 1728)">
<title>zp_stats</title>
<polygon fill="#ffffff" stroke="transparent" points="-4,4 -4,-1728 651.8704,-1728 651.8704,4 -4,4"/>
<!-- zp_stats -->
<g id="node1" class="node">
<title>zp_stats</title>
<polygon fill="#efefef" stroke="transparent" points="192.3704,-1642.5 192.3704,-1677.5 453.3704,-1677.5 453.3704,-1642.5 192.3704,-1642.5"/>
<polygon fill="none" stroke="#000000" points="192.3704,-1642.5 192.3704,-1677.5 453.3704,-1677.5 453.3704,-1642.5 192.3704,-1642.5"/>
<text text-anchor="start" x="225.5749" y="-1655.3" font-family="Arial Bold" font-size="18.00" fill="#000000">zp_stats</text>
<text text-anchor="start" x="292.5979" y="-1655.3" font-family="Arial" font-size="14.00" fill="#000000">    </text>
<text text-anchor="start" x="326.8027" y="-1655.3" font-family="Arial" font-size="14.00" fill="#666666">[BASE TABLE]</text>
<polygon fill="none" stroke="#000000" points="192.3704,-1612.5 192.3704,-1642.5 453.3704,-1642.5 453.3704,-1612.5 192.3704,-1612.5"/>
<text text-anchor="start" x="199.3704" y="-1623.9" font-family="Arial" font-size="14.00" fill="#000000">sprintId </text>
<text text-anchor="start" x="249.1572" y="-1623.9" font-family="Arial" font-size="14.00" fill="#666666">[int(11)]</text>
<polygon fill="none" stroke="#000000" points="192.3704,-1582.5 192.3704,-1612.5 453.3704,-1612.5 453.3704,-1582.5 192.3704,-1582.5"/>
<text text-anchor="start" x="199.3704" y="-1593.9" font-family="Arial" font-size="14.00" fill="#000000">projectId </text>
<text text-anchor="start" x="256.9398" y="-1593.9" font-family="Arial" font-size="14.00" fill="#666666">[int(11)]</text>
<polygon fill="none" stroke="#000000" points="192.3704,-1552.5 192.3704,-1582.5 453.3704,-1582.5 453.3704,-1552.5 192.3704,-1552.5"/>
<text text-anchor="start" x="199.3704" y="-1563.9" font-family="Arial" font-size="14.00" fill="#000000">date </text>
<text text-anchor="start" x="230.4994" y="-1563.9" font-family="Arial" font-size="14.00" fill="#666666">[datetime]</text>
<polygon fill="none" stroke="#000000" points="192.3704,-1522.5 192.3704,-1552.5 453.3704,-1552.5 453.3704,-1522.5 192.3704,-1522.5"/>
<text text-anchor="start" x="199.3704" y="-1533.9" font-family="Arial" font-size="14.00" fill="#000000">sum_todos </text>
<text text-anchor="start" x="271.7252" y="-1533.9" font-family="Arial" font-size="14.00" fill="#666666">[int(11)]</text>
<polygon fill="none" stroke="#000000" points="192.3704,-1492.5 192.3704,-1522.5 453.3704,-1522.5 453.3704,-1492.5 192.3704,-1492.5"/>
<text text-anchor="start" x="199.3704" y="-1503.9" font-family="Arial" font-size="14.00" fill="#000000">sum_open_todos </text>
<text text-anchor="start" x="310.6382" y="-1503.9" font-family="Arial" font-size="14.00" fill="#666666">[int(11)]</text>
<polygon fill="none" stroke="#000000" points="192.3704,-1462.5 192.3704,-1492.5 453.3704,-1492.5 453.3704,-1462.5 192.3704,-1462.5"/>
<text text-anchor="start" x="199.3704" y="-1473.9" font-family="Arial" font-size="14.00" fill="#000000">sum_progres_todos </text>
<text text-anchor="start" x="326.9594" y="-1473.9" font-family="Arial" font-size="14.00" fill="#666666">[int(11)]</text>
<polygon fill="none" stroke="#000000" points="192.3704,-1432.5 192.3704,-1462.5 453.3704,-1462.5 453.3704,-1432.5 192.3704,-1432.5"/>
<text text-anchor="start" x="199.3704" y="-1443.9" font-family="Arial" font-size="14.00" fill="#000000">sum_closed_todos </text>
<text text-anchor="start" x="319.9622" y="-1443.9" font-family="Arial" font-size="14.00" fill="#666666">[int(11)]</text>
<polygon fill="none" stroke="#000000" points="192.3704,-1402.5 192.3704,-1432.5 453.3704,-1432.5 453.3704,-1402.5 192.3704,-1402.5"/>
<text text-anchor="start" x="199.3704" y="-1413.9" font-family="Arial" font-size="14.00" fill="#000000">sum_planned_hours </text>
<text text-anchor="start" x="330.08" y="-1413.9" font-family="Arial" font-size="14.00" fill="#666666">[float]</text>
<polygon fill="none" stroke="#000000" points="192.3704,-1372.5 192.3704,-1402.5 453.3704,-1402.5 453.3704,-1372.5 192.3704,-1372.5"/>
<text text-anchor="start" x="199.3704" y="-1383.9" font-family="Arial" font-size="14.00" fill="#000000">sum_estremaining_hours </text>
<text text-anchor="start" x="360.3984" y="-1383.9" font-family="Arial" font-size="14.00" fill="#666666">[float]</text>
<polygon fill="none" stroke="#000000" points="192.3704,-1342.5 192.3704,-1372.5 453.3704,-1372.5 453.3704,-1342.5 192.3704,-1342.5"/>
<text text-anchor="start" x="199.3704" y="-1353.9" font-family="Arial" font-size="14.00" fill="#000000">sum_logged_hours </text>
<text text-anchor="start" x="322.2974" y="-1353.9" font-family="Arial" font-size="14.00" fill="#666666">[float]</text>
<polygon fill="none" stroke="#000000" points="192.3704,-1312.5 192.3704,-1342.5 453.3704,-1342.5 453.3704,-1312.5 192.3704,-1312.5"/>
<text text-anchor="start" x="199.3704" y="-1323.9" font-family="Arial" font-size="14.00" fill="#000000">sum_points </text>
<text text-anchor="start" x="274.8318" y="-1323.9" font-family="Arial" font-size="14.00" fill="#666666">[int(11)]</text>
<polygon fill="none" stroke="#000000" points="192.3704,-1282.5 192.3704,-1312.5 453.3704,-1312.5 453.3704,-1282.5 192.3704,-1282.5"/>
<text text-anchor="start" x="199.3704" y="-1293.9" font-family="Arial" font-size="14.00" fill="#000000">sum_points_done </text>
<text text-anchor="start" x="313.7448" y="-1293.9" font-family="Arial" font-size="14.00" fill="#666666">[int(11)]</text>
<polygon fill="none" stroke="#000000" points="192.3704,-1252.5 192.3704,-1282.5 453.3704,-1282.5 453.3704,-1252.5 192.3704,-1252.5"/>
<text text-anchor="start" x="199.3704" y="-1263.9" font-family="Arial" font-size="14.00" fill="#000000">sum_points_progress </text>
<text text-anchor="start" x="337.066" y="-1263.9" font-family="Arial" font-size="14.00" fill="#666666">[int(11)]</text>
<polygon fill="none" stroke="#000000" points="192.3704,-1222.5 192.3704,-1252.5 453.3704,-1252.5 453.3704,-1222.5 192.3704,-1222.5"/>
<text text-anchor="start" x="199.3704" y="-1233.9" font-family="Arial" font-size="14.00" fill="#000000">sum_points_open </text>
<text text-anchor="start" x="313.7448" y="-1233.9" font-family="Arial" font-size="14.00" fill="#666666">[int(11)]</text>
<polygon fill="none" stroke="#000000" points="192.3704,-1192.5 192.3704,-1222.5 453.3704,-1222.5 453.3704,-1192.5 192.3704,-1192.5"/>
<text text-anchor="start" x="199.3704" y="-1203.9" font-family="Arial" font-size="14.00" fill="#000000">sum_todos_xs </text>
<text text-anchor="start" x="293.5078" y="-1203.9" font-family="Arial" font-size="14.00" fill="#666666">[int(11)]</text>
<polygon fill="none" stroke="#000000" points="192.3704,-1162.5 192.3704,-1192.5 453.3704,-1192.5 453.3704,-1162.5 192.3704,-1162.5"/>
<text text-anchor="start" x="199.3704" y="-1173.9" font-family="Arial" font-size="14.00" fill="#000000">sum_todos_s </text>
<text text-anchor="start" x="286.5078" y="-1173.9" font-family="Arial" font-size="14.00" fill="#666666">[int(11)]</text>
<polygon fill="none" stroke="#000000" points="192.3704,-1132.5 192.3704,-1162.5 453.3704,-1162.5 453.3704,-1132.5 192.3704,-1132.5"/>
<text text-anchor="start" x="199.3704" y="-1143.9" font-family="Arial" font-size="14.00" fill="#000000">sum_todos_m </text>
<text text-anchor="start" x="291.1684" y="-1143.9" font-family="Arial" font-size="14.00" fill="#666666">[int(11)]</text>
<polygon fill="none" stroke="#000000" points="192.3704,-1102.5 192.3704,-1132.5 453.3704,-1132.5 453.3704,-1102.5 192.3704,-1102.5"/>
<text text-anchor="start" x="199.3704" y="-1113.9" font-family="Arial" font-size="14.00" fill="#000000">sum_todos_l </text>
<text text-anchor="start" x="282.6144" y="-1113.9" font-family="Arial" font-size="14.00" fill="#666666">[int(11)]</text>
<polygon fill="none" stroke="#000000" points="192.3704,-1072.5 192.3704,-1102.5 453.3704,-1102.5 453.3704,-1072.5 192.3704,-1072.5"/>
<text text-anchor="start" x="199.3704" y="-1083.9" font-family="Arial" font-size="14.00" fill="#000000">sum_todos_xl </text>
<text text-anchor="start" x="289.6144" y="-1083.9" font-family="Arial" font-size="14.00" fill="#666666">[int(11)]</text>
<polygon fill="none" stroke="#000000" points="192.3704,-1042.5 192.3704,-1072.5 453.3704,-1072.5 453.3704,-1042.5 192.3704,-1042.5"/>
<text text-anchor="start" x="199.3704" y="-1053.9" font-family="Arial" font-size="14.00" fill="#000000">sum_todos_xxl </text>
<text text-anchor="start" x="296.6144" y="-1053.9" font-family="Arial" font-size="14.00" fill="#666666">[int(11)]</text>
<polygon fill="none" stroke="#000000" points="192.3704,-1012.5 192.3704,-1042.5 453.3704,-1042.5 453.3704,-1012.5 192.3704,-1012.5"/>
<text text-anchor="start" x="199.3704" y="-1023.9" font-family="Arial" font-size="14.00" fill="#000000">sum_todos_none </text>
<text text-anchor="start" x="310.6382" y="-1023.9" font-family="Arial" font-size="14.00" fill="#666666">[int(11)]</text>
<polygon fill="none" stroke="#000000" points="192.3704,-982.5 192.3704,-1012.5 453.3704,-1012.5 453.3704,-982.5 192.3704,-982.5"/>
<text text-anchor="start" x="199.3704" y="-993.9" font-family="Arial" font-size="14.00" fill="#000000">tickets </text>
<text text-anchor="start" x="242.9314" y="-993.9" font-family="Arial" font-size="14.00" fill="#666666">[text]</text>
<polygon fill="none" stroke="#000000" points="192.3704,-952.5 192.3704,-982.5 453.3704,-982.5 453.3704,-952.5 192.3704,-952.5"/>
<text text-anchor="start" x="199.3704" y="-963.9" font-family="Arial" font-size="14.00" fill="#000000">daily_avg_hours_booked_todo </text>
<text text-anchor="start" x="393.8948" y="-963.9" font-family="Arial" font-size="14.00" fill="#666666">[float]</text>
<polygon fill="none" stroke="#000000" points="192.3704,-922.5 192.3704,-952.5 453.3704,-952.5 453.3704,-922.5 192.3704,-922.5"/>
<text text-anchor="start" x="199.3704" y="-933.9" font-family="Arial" font-size="14.00" fill="#000000">daily_avg_hours_booked_point </text>
<text text-anchor="start" x="397.0014" y="-933.9" font-family="Arial" font-size="14.00" fill="#666666">[float]</text>
<polygon fill="none" stroke="#000000" points="192.3704,-892.5 192.3704,-922.5 453.3704,-922.5 453.3704,-892.5 192.3704,-892.5"/>
<text text-anchor="start" x="199.3704" y="-903.9" font-family="Arial" font-size="14.00" fill="#000000">daily_avg_hours_planned_todo </text>
<text text-anchor="start" x="397.784" y="-903.9" font-family="Arial" font-size="14.00" fill="#666666">[float]</text>
<polygon fill="none" stroke="#000000" points="192.3704,-862.5 192.3704,-892.5 453.3704,-892.5 453.3704,-862.5 192.3704,-862.5"/>
<text text-anchor="start" x="199.3704" y="-873.9" font-family="Arial" font-size="14.00" fill="#000000">daily_avg_hours_planned_point </text>
<text text-anchor="start" x="400.8906" y="-873.9" font-family="Arial" font-size="14.00" fill="#666666">[float]</text>
<polygon fill="none" stroke="#000000" points="192.3704,-832.5 192.3704,-862.5 453.3704,-862.5 453.3704,-832.5 192.3704,-832.5"/>
<text text-anchor="start" x="199.1706" y="-843.9" font-family="Arial" font-size="14.00" fill="#000000">daily_avg_hours_remaining_point </text>
<text text-anchor="start" x="412.336" y="-843.9" font-family="Arial" font-size="14.00" fill="#666666">[float]</text>
<polygon fill="none" stroke="#000000" points="192.3704,-802.5 192.3704,-832.5 453.3704,-832.5 453.3704,-802.5 192.3704,-802.5"/>
<text text-anchor="start" x="199.3704" y="-813.9" font-family="Arial" font-size="14.00" fill="#000000">daily_avg_hours_remaining_todo </text>
<text text-anchor="start" x="409.4292" y="-813.9" font-family="Arial" font-size="14.00" fill="#666666">[float]</text>
<polygon fill="none" stroke="#000000" points="192.3704,-772.5 192.3704,-802.5 453.3704,-802.5 453.3704,-772.5 192.3704,-772.5"/>
<text text-anchor="start" x="199.3704" y="-783.9" font-family="Arial" font-size="14.00" fill="#000000">sum_teammembers </text>
<text text-anchor="start" x="326.9328" y="-783.9" font-family="Arial" font-size="14.00" fill="#666666">[int(11)]</text>
<polygon fill="none" stroke="#000000" stroke-width="3" points="190.3704,-771.5 190.3704,-1679.5 454.3704,-1679.5 454.3704,-771.5 190.3704,-771.5"/>
</g>
<!-- zp_sprints -->
<g id="node2" class="node">
<title>zp_sprints</title>
<polygon fill="#efefef" stroke="transparent" points="45.3704,-402.5 45.3704,-437.5 268.3704,-437.5 268.3704,-402.5 45.3704,-402.5"/>
<polygon fill="none" stroke="#000000" points="45.3704,-402.5 45.3704,-437.5 268.3704,-437.5 268.3704,-402.5 45.3704,-402.5"/>
<text text-anchor="start" x="52.0797" y="-415.3" font-family="Arial Bold" font-size="18.00" fill="#000000">zp_sprints</text>
<text text-anchor="start" x="134.0931" y="-415.3" font-family="Arial" font-size="14.00" fill="#000000">    </text>
<text text-anchor="start" x="168.2979" y="-415.3" font-family="Arial" font-size="14.00" fill="#666666">[BASE TABLE]</text>
<polygon fill="none" stroke="#000000" points="45.3704,-372.5 45.3704,-402.5 268.3704,-402.5 268.3704,-372.5 45.3704,-372.5"/>
<text text-anchor="start" x="52.3704" y="-383.9" font-family="Arial" font-size="14.00" fill="#000000">id    </text>
<text text-anchor="start" x="97.4644" y="-383.9" font-family="Arial" font-size="14.00" fill="#666666">[int(11)]</text>
<polygon fill="none" stroke="#000000" points="45.3704,-342.5 45.3704,-372.5 268.3704,-372.5 268.3704,-342.5 45.3704,-342.5"/>
<text text-anchor="start" x="52.3704" y="-353.9" font-family="Arial" font-size="14.00" fill="#000000">projectId    </text>
<text text-anchor="start" x="140.254" y="-353.9" font-family="Arial" font-size="14.00" fill="#666666">[int(11)]</text>
<polygon fill="none" stroke="#000000" points="45.3704,-312.5 45.3704,-342.5 268.3704,-342.5 268.3704,-312.5 45.3704,-312.5"/>
<text text-anchor="start" x="52.3704" y="-323.9" font-family="Arial" font-size="14.00" fill="#000000">name    </text>
<text text-anchor="start" x="121.5836" y="-323.9" font-family="Arial" font-size="14.00" fill="#666666">[varchar(45)]</text>
<polygon fill="none" stroke="#000000" points="45.3704,-282.5 45.3704,-312.5 268.3704,-312.5 268.3704,-282.5 45.3704,-282.5"/>
<text text-anchor="start" x="52.3704" y="-293.9" font-family="Arial" font-size="14.00" fill="#000000">startDate    </text>
<text text-anchor="start" x="143.362" y="-293.9" font-family="Arial" font-size="14.00" fill="#666666">[datetime]</text>
<polygon fill="none" stroke="#000000" points="45.3704,-252.5 45.3704,-282.5 268.3704,-282.5 268.3704,-252.5 45.3704,-252.5"/>
<text text-anchor="start" x="52.3704" y="-263.9" font-family="Arial" font-size="14.00" fill="#000000">endDate    </text>
<text text-anchor="start" x="139.4854" y="-263.9" font-family="Arial" font-size="14.00" fill="#666666">[datetime]</text>
</g>
<!-- zp_stats&#45;&gt;zp_sprints -->
<g id="edge1" class="edge">
<title>zp_stats:sprintId&#45;&gt;zp_sprints:id</title>
<path fill="none" stroke="#000000" stroke-dasharray="5,2" d="M182.2725,-1627.3898C-202.0534,-1618.8817 133.1434,-1119.3573 192.3704,-727 203.91,-650.5544 345.6821,-387.5 268.3704,-387.5"/>
<polygon fill="#000000" stroke="#000000" points="182.371,-1627.3908 192.3213,-1631.9997 187.3707,-1627.4454 192.3704,-1627.5 192.3704,-1627.5 192.3704,-1627.5 187.3707,-1627.4454 192.4196,-1623.0003 182.371,-1627.3908 182.371,-1627.3908"/>
<text text-anchor="start" x="102.6949" y="-1637.5" font-family="Arial" font-size="10.00" fill="#000000">Additional Relation</text>
</g>
<!-- zp_projects -->
<g id="node3" class="node">
<title>zp_projects</title>
<polygon fill="#efefef" stroke="transparent" points="372.3704,-612.5 372.3704,-647.5 605.3704,-647.5 605.3704,-612.5 372.3704,-612.5"/>
<polygon fill="none" stroke="#000000" points="372.3704,-612.5 372.3704,-647.5 605.3704,-647.5 605.3704,-612.5 372.3704,-612.5"/>
<text text-anchor="start" x="379.0766" y="-625.3" font-family="Arial Bold" font-size="18.00" fill="#000000">zp_projects</text>
<text text-anchor="start" x="471.0962" y="-625.3" font-family="Arial" font-size="14.00" fill="#000000">    </text>
<text text-anchor="start" x="505.301" y="-625.3" font-family="Arial" font-size="14.00" fill="#666666">[BASE TABLE]</text>
<polygon fill="none" stroke="#000000" points="372.3704,-582.5 372.3704,-612.5 605.3704,-612.5 605.3704,-582.5 372.3704,-582.5"/>
<text text-anchor="start" x="379.3704" y="-593.9" font-family="Arial" font-size="14.00" fill="#000000">id    </text>
<text text-anchor="start" x="424.4644" y="-593.9" font-family="Arial" font-size="14.00" fill="#666666">[int(11)]</text>
<polygon fill="none" stroke="#000000" points="372.3704,-552.5 372.3704,-582.5 605.3704,-582.5 605.3704,-552.5 372.3704,-552.5"/>
<text text-anchor="start" x="379.3704" y="-563.9" font-family="Arial" font-size="14.00" fill="#000000">name    </text>
<text text-anchor="start" x="448.5836" y="-563.9" font-family="Arial" font-size="14.00" fill="#666666">[varchar(100)]</text>
<polygon fill="none" stroke="#000000" points="372.3704,-522.5 372.3704,-552.5 605.3704,-552.5 605.3704,-522.5 372.3704,-522.5"/>
<text text-anchor="start" x="379.3704" y="-533.9" font-family="Arial" font-size="14.00" fill="#000000">clientId    </text>
<text text-anchor="start" x="457.9174" y="-533.9" font-family="Arial" font-size="14.00" fill="#666666">[int(100)]</text>
<polygon fill="none" stroke="#000000" points="372.3704,-492.5 372.3704,-522.5 605.3704,-522.5 605.3704,-492.5 372.3704,-492.5"/>
<text text-anchor="start" x="379.3704" y="-503.9" font-family="Arial" font-size="14.00" fill="#000000">details    </text>
<text text-anchor="start" x="454.0268" y="-503.9" font-family="Arial" font-size="14.00" fill="#666666">[text]</text>
<polygon fill="none" stroke="#000000" points="372.3704,-462.5 372.3704,-492.5 605.3704,-492.5 605.3704,-462.5 372.3704,-462.5"/>
<text text-anchor="start" x="379.3704" y="-473.9" font-family="Arial" font-size="14.00" fill="#000000">state    </text>
<text text-anchor="start" x="443.9216" y="-473.9" font-family="Arial" font-size="14.00" fill="#666666">[int(2)]</text>
<polygon fill="none" stroke="#000000" points="372.3704,-432.5 372.3704,-462.5 605.3704,-462.5 605.3704,-432.5 372.3704,-432.5"/>
<text text-anchor="start" x="379.3704" y="-443.9" font-family="Arial" font-size="14.00" fill="#000000">hourBudget    </text>
<text text-anchor="start" x="485.9412" y="-443.9" font-family="Arial" font-size="14.00" fill="#666666">[varchar(255)]</text>
<polygon fill="none" stroke="#000000" points="372.3704,-402.5 372.3704,-432.5 605.3704,-432.5 605.3704,-402.5 372.3704,-402.5"/>
<text text-anchor="start" x="379.3704" y="-413.9" font-family="Arial" font-size="14.00" fill="#000000">dollarBudget    </text>
<text text-anchor="start" x="492.1544" y="-413.9" font-family="Arial" font-size="14.00" fill="#666666">[int(11)]</text>
<polygon fill="none" stroke="#000000" points="372.3704,-372.5 372.3704,-402.5 605.3704,-402.5 605.3704,-372.5 372.3704,-372.5"/>
<text text-anchor="start" x="379.3704" y="-383.9" font-family="Arial" font-size="14.00" fill="#000000">active    </text>
<text text-anchor="start" x="450.1376" y="-383.9" font-family="Arial" font-size="14.00" fill="#666666">[int(11)]</text>
<polygon fill="none" stroke="#000000" points="372.3704,-342.5 372.3704,-372.5 605.3704,-372.5 605.3704,-342.5 372.3704,-342.5"/>
<text text-anchor="start" x="379.3704" y="-353.9" font-family="Arial" font-size="14.00" fill="#000000">menuType    </text>
<text text-anchor="start" x="479.7014" y="-353.9" font-family="Arial" font-size="14.00" fill="#666666">[mediumtext]</text>
<polygon fill="none" stroke="#000000" points="372.3704,-312.5 372.3704,-342.5 605.3704,-342.5 605.3704,-312.5 372.3704,-312.5"/>
<text text-anchor="start" x="379.3704" y="-323.9" font-family="Arial" font-size="14.00" fill="#000000">psettings    </text>
<text text-anchor="start" x="469.5934" y="-323.9" font-family="Arial" font-size="14.00" fill="#666666">[mediumtext]</text>
<polygon fill="none" stroke="#000000" points="372.3704,-282.5 372.3704,-312.5 605.3704,-312.5 605.3704,-282.5 372.3704,-282.5"/>
<text text-anchor="start" x="379.3704" y="-293.9" font-family="Arial" font-size="14.00" fill="#000000">parent    </text>
<text text-anchor="start" x="453.2568" y="-293.9" font-family="Arial" font-size="14.00" fill="#666666">[int(11)]</text>
<polygon fill="none" stroke="#000000" points="372.3704,-252.5 372.3704,-282.5 605.3704,-282.5 605.3704,-252.5 372.3704,-252.5"/>
<text text-anchor="start" x="379.3704" y="-263.9" font-family="Arial" font-size="14.00" fill="#000000">type    </text>
<text text-anchor="start" x="440.031" y="-263.9" font-family="Arial" font-size="14.00" fill="#666666">[varchar(45)]</text>
<polygon fill="none" stroke="#000000" points="372.3704,-222.5 372.3704,-252.5 605.3704,-252.5 605.3704,-222.5 372.3704,-222.5"/>
<text text-anchor="start" x="379.3704" y="-233.9" font-family="Arial" font-size="14.00" fill="#000000">start    </text>
<text text-anchor="start" x="440.7996" y="-233.9" font-family="Arial" font-size="14.00" fill="#666666">[datetime]</text>
<polygon fill="none" stroke="#000000" points="372.3704,-192.5 372.3704,-222.5 605.3704,-222.5 605.3704,-192.5 372.3704,-192.5"/>
<text text-anchor="start" x="379.3704" y="-203.9" font-family="Arial" font-size="14.00" fill="#000000">end    </text>
<text text-anchor="start" x="436.923" y="-203.9" font-family="Arial" font-size="14.00" fill="#666666">[datetime]</text>
<polygon fill="none" stroke="#000000" points="372.3704,-162.5 372.3704,-192.5 605.3704,-192.5 605.3704,-162.5 372.3704,-162.5"/>
<text text-anchor="start" x="379.3704" y="-173.9" font-family="Arial" font-size="14.00" fill="#000000">created    </text>
<text text-anchor="start" x="460.2568" y="-173.9" font-family="Arial" font-size="14.00" fill="#666666">[datetime]</text>
<polygon fill="none" stroke="#000000" points="372.3704,-132.5 372.3704,-162.5 605.3704,-162.5 605.3704,-132.5 372.3704,-132.5"/>
<text text-anchor="start" x="379.3704" y="-143.9" font-family="Arial" font-size="14.00" fill="#000000">modified    </text>
<text text-anchor="start" x="466.47" y="-143.9" font-family="Arial" font-size="14.00" fill="#666666">[datetime]</text>
<polygon fill="none" stroke="#000000" points="372.3704,-102.5 372.3704,-132.5 605.3704,-132.5 605.3704,-102.5 372.3704,-102.5"/>
<text text-anchor="start" x="379.3704" y="-113.9" font-family="Arial" font-size="14.00" fill="#000000">avatar    </text>
<text text-anchor="start" x="452.4742" y="-113.9" font-family="Arial" font-size="14.00" fill="#666666">[mediumtext]</text>
<polygon fill="none" stroke="#000000" points="372.3704,-72.5 372.3704,-102.5 605.3704,-102.5 605.3704,-72.5 372.3704,-72.5"/>
<text text-anchor="start" x="379.3704" y="-83.9" font-family="Arial" font-size="14.00" fill="#000000">cover    </text>
<text text-anchor="start" x="447.801" y="-83.9" font-family="Arial" font-size="14.00" fill="#666666">[mediumtext]</text>
<polygon fill="none" stroke="#000000" points="372.3704,-42.5 372.3704,-72.5 605.3704,-72.5 605.3704,-42.5 372.3704,-42.5"/>
<text text-anchor="start" x="379.3704" y="-53.9" font-family="Arial" font-size="14.00" fill="#000000">sortIndex    </text>
<text text-anchor="start" x="471.1474" y="-53.9" font-family="Arial" font-size="14.00" fill="#666666">[int(11)]</text>
</g>
<!-- zp_stats&#45;&gt;zp_projects -->
<g id="edge2" class="edge">
<title>zp_stats:projectId&#45;&gt;zp_projects:id</title>
<path fill="none" stroke="#000000" stroke-dasharray="5,2" d="M463.5809,-1596.8138C643.6283,-1572.0854 556.8766,-886.2713 453.3704,-727 431.9033,-693.9672 393.8376,-724.0328 372.3704,-691 349.7263,-656.156 330.8149,-597.5 372.3704,-597.5"/>
<polygon fill="#000000" stroke="#000000" points="463.3479,-1596.8294 453.0687,-1593.0101 458.3592,-1597.1647 453.3704,-1597.5 453.3704,-1597.5 453.3704,-1597.5 458.3592,-1597.1647 453.6722,-1601.9899 463.3479,-1596.8294 463.3479,-1596.8294"/>
<text text-anchor="start" x="460.6949" y="-1607.5" font-family="Arial" font-size="10.00" fill="#000000">Additional Relation</text>
</g>
</g>
</svg>
