<?xml version="1.0" encoding="UTF-8" standalone="no"?>
<!DOCTYPE svg PUBLIC "-//W3C//DTD SVG 1.1//EN"
 "http://www.w3.org/Graphics/SVG/1.1/DTD/svg11.dtd">
<!-- Generated by graphviz version 2.40.1 (20161225.0304)
 -->
<!-- Title: zp_tickets Pages: 1 -->
<svg width="664pt" height="2689pt"
 viewBox="0.00 0.00 664.04 2689.00" xmlns="http://www.w3.org/2000/svg" xmlns:xlink="http://www.w3.org/1999/xlink">
<g id="graph0" class="graph" transform="scale(1 1) rotate(0) translate(4 2685)">
<title>zp_tickets</title>
<polygon fill="#ffffff" stroke="transparent" points="-4,4 -4,-2685 660.0412,-2685 660.0412,4 -4,4"/>
<!-- zp_tickets -->
<g id="node1" class="node">
<title>zp_tickets</title>
<polygon fill="#efefef" stroke="transparent" points="222.0412,-2212.5 222.0412,-2247.5 443.0412,-2247.5 443.0412,-2212.5 222.0412,-2212.5"/>
<polygon fill="none" stroke="#000000" points="222.0412,-2212.5 222.0412,-2247.5 443.0412,-2247.5 443.0412,-2212.5 222.0412,-2212.5"/>
<text text-anchor="start" x="228.7486" y="-2225.3" font-family="Arial Bold" font-size="18.00" fill="#000000">zp_tickets</text>
<text text-anchor="start" x="308.7658" y="-2225.3" font-family="Arial" font-size="14.00" fill="#000000">    </text>
<text text-anchor="start" x="342.9706" y="-2225.3" font-family="Arial" font-size="14.00" fill="#666666">[BASE TABLE]</text>
<polygon fill="none" stroke="#000000" points="222.0412,-2182.5 222.0412,-2212.5 443.0412,-2212.5 443.0412,-2182.5 222.0412,-2182.5"/>
<text text-anchor="start" x="229.0412" y="-2193.9" font-family="Arial" font-size="14.00" fill="#000000">id </text>
<text text-anchor="start" x="243.821" y="-2193.9" font-family="Arial" font-size="14.00" fill="#666666">[int(11)]</text>
<polygon fill="none" stroke="#000000" points="222.0412,-2152.5 222.0412,-2182.5 443.0412,-2182.5 443.0412,-2152.5 222.0412,-2152.5"/>
<text text-anchor="start" x="229.0412" y="-2163.9" font-family="Arial" font-size="14.00" fill="#000000">projectId </text>
<text text-anchor="start" x="286.6106" y="-2163.9" font-family="Arial" font-size="14.00" fill="#666666">[int(11)]</text>
<polygon fill="none" stroke="#000000" points="222.0412,-2122.5 222.0412,-2152.5 443.0412,-2152.5 443.0412,-2122.5 222.0412,-2122.5"/>
<text text-anchor="start" x="229.0412" y="-2133.9" font-family="Arial" font-size="14.00" fill="#000000">headline </text>
<text text-anchor="start" x="285.8406" y="-2133.9" font-family="Arial" font-size="14.00" fill="#666666">[varchar(255)]</text>
<polygon fill="none" stroke="#000000" points="222.0412,-2092.5 222.0412,-2122.5 443.0412,-2122.5 443.0412,-2092.5 222.0412,-2092.5"/>
<text text-anchor="start" x="229.0412" y="-2103.9" font-family="Arial" font-size="14.00" fill="#000000">description </text>
<text text-anchor="start" x="300.6092" y="-2103.9" font-family="Arial" font-size="14.00" fill="#666666">[text]</text>
<polygon fill="none" stroke="#000000" points="222.0412,-2062.5 222.0412,-2092.5 443.0412,-2092.5 443.0412,-2062.5 222.0412,-2062.5"/>
<text text-anchor="start" x="229.0412" y="-2073.9" font-family="Arial" font-size="14.00" fill="#000000">acceptanceCriteria </text>
<text text-anchor="start" x="349.6148" y="-2073.9" font-family="Arial" font-size="14.00" fill="#666666">[text]</text>
<polygon fill="none" stroke="#000000" points="222.0412,-2032.5 222.0412,-2062.5 443.0412,-2062.5 443.0412,-2032.5 222.0412,-2032.5"/>
<text text-anchor="start" x="229.0412" y="-2043.9" font-family="Arial" font-size="14.00" fill="#000000">date </text>
<text text-anchor="start" x="260.1702" y="-2043.9" font-family="Arial" font-size="14.00" fill="#666666">[datetime]</text>
<polygon fill="none" stroke="#000000" points="222.0412,-2002.5 222.0412,-2032.5 443.0412,-2032.5 443.0412,-2002.5 222.0412,-2002.5"/>
<text text-anchor="start" x="229.0412" y="-2013.9" font-family="Arial" font-size="14.00" fill="#000000">dateToFinish </text>
<text text-anchor="start" x="313.8364" y="-2013.9" font-family="Arial" font-size="14.00" fill="#666666">[datetime]</text>
<polygon fill="none" stroke="#000000" points="222.0412,-1972.5 222.0412,-2002.5 443.0412,-2002.5 443.0412,-1972.5 222.0412,-1972.5"/>
<text text-anchor="start" x="229.0412" y="-1983.9" font-family="Arial" font-size="14.00" fill="#000000">priority </text>
<text text-anchor="start" x="274.922" y="-1983.9" font-family="Arial" font-size="14.00" fill="#666666">[varchar(60)]</text>
<polygon fill="none" stroke="#000000" points="222.0412,-1942.5 222.0412,-1972.5 443.0412,-1972.5 443.0412,-1942.5 222.0412,-1942.5"/>
<text text-anchor="start" x="229.0412" y="-1953.9" font-family="Arial" font-size="14.00" fill="#000000">status </text>
<text text-anchor="start" x="270.2782" y="-1953.9" font-family="Arial" font-size="14.00" fill="#666666">[int(2)]</text>
<polygon fill="none" stroke="#000000" points="222.0412,-1912.5 222.0412,-1942.5 443.0412,-1942.5 443.0412,-1912.5 222.0412,-1912.5"/>
<text text-anchor="start" x="229.0412" y="-1923.9" font-family="Arial" font-size="14.00" fill="#000000">userId </text>
<text text-anchor="start" x="271.8308" y="-1923.9" font-family="Arial" font-size="14.00" fill="#666666">[int(11)]</text>
<polygon fill="none" stroke="#000000" points="222.0412,-1882.5 222.0412,-1912.5 443.0412,-1912.5 443.0412,-1882.5 222.0412,-1882.5"/>
<text text-anchor="start" x="229.0412" y="-1893.9" font-family="Arial" font-size="14.00" fill="#000000">os </text>
<text text-anchor="start" x="247.7144" y="-1893.9" font-family="Arial" font-size="14.00" fill="#666666">[varchar(30)]</text>
<polygon fill="none" stroke="#000000" points="222.0412,-1852.5 222.0412,-1882.5 443.0412,-1882.5 443.0412,-1852.5 222.0412,-1852.5"/>
<text text-anchor="start" x="229.0412" y="-1863.9" font-family="Arial" font-size="14.00" fill="#000000">browser </text>
<text text-anchor="start" x="282.7074" y="-1863.9" font-family="Arial" font-size="14.00" fill="#666666">[varchar(30)]</text>
<polygon fill="none" stroke="#000000" points="222.0412,-1822.5 222.0412,-1852.5 443.0412,-1852.5 443.0412,-1822.5 222.0412,-1822.5"/>
<text text-anchor="start" x="229.0412" y="-1833.9" font-family="Arial" font-size="14.00" fill="#000000">resolution </text>
<text text-anchor="start" x="293.6092" y="-1833.9" font-family="Arial" font-size="14.00" fill="#666666">[varchar(30)]</text>
<polygon fill="none" stroke="#000000" points="222.0412,-1792.5 222.0412,-1822.5 443.0412,-1822.5 443.0412,-1792.5 222.0412,-1792.5"/>
<text text-anchor="start" x="229.0412" y="-1803.9" font-family="Arial" font-size="14.00" fill="#000000">component </text>
<text text-anchor="start" x="302.1786" y="-1803.9" font-family="Arial" font-size="14.00" fill="#666666">[varchar(100)]</text>
<polygon fill="none" stroke="#000000" points="222.0412,-1762.5 222.0412,-1792.5 443.0412,-1792.5 443.0412,-1762.5 222.0412,-1762.5"/>
<text text-anchor="start" x="229.0412" y="-1773.9" font-family="Arial" font-size="14.00" fill="#000000">version </text>
<text text-anchor="start" x="278.0468" y="-1773.9" font-family="Arial" font-size="14.00" fill="#666666">[varchar(20)]</text>
<polygon fill="none" stroke="#000000" points="222.0412,-1732.5 222.0412,-1762.5 443.0412,-1762.5 443.0412,-1732.5 222.0412,-1732.5"/>
<text text-anchor="start" x="229.0412" y="-1743.9" font-family="Arial" font-size="14.00" fill="#000000">url </text>
<text text-anchor="start" x="248.4816" y="-1743.9" font-family="Arial" font-size="14.00" fill="#666666">[varchar(100)]</text>
<polygon fill="none" stroke="#000000" points="222.0412,-1702.5 222.0412,-1732.5 443.0412,-1732.5 443.0412,-1702.5 222.0412,-1702.5"/>
<text text-anchor="start" x="229.0412" y="-1713.9" font-family="Arial" font-size="14.00" fill="#000000">dependingTicketId </text>
<text text-anchor="start" x="347.3048" y="-1713.9" font-family="Arial" font-size="14.00" fill="#666666">[int(100)]</text>
<polygon fill="none" stroke="#000000" points="222.0412,-1672.5 222.0412,-1702.5 443.0412,-1702.5 443.0412,-1672.5 222.0412,-1672.5"/>
<text text-anchor="start" x="229.0412" y="-1683.9" font-family="Arial" font-size="14.00" fill="#000000">editFrom </text>
<text text-anchor="start" x="288.1506" y="-1683.9" font-family="Arial" font-size="14.00" fill="#666666">[datetime]</text>
<polygon fill="none" stroke="#000000" points="222.0412,-1642.5 222.0412,-1672.5 443.0412,-1672.5 443.0412,-1642.5 222.0412,-1642.5"/>
<text text-anchor="start" x="229.0412" y="-1653.9" font-family="Arial" font-size="14.00" fill="#000000">editTo </text>
<text text-anchor="start" x="271.8294" y="-1653.9" font-family="Arial" font-size="14.00" fill="#666666">[datetime]</text>
<polygon fill="none" stroke="#000000" points="222.0412,-1612.5 222.0412,-1642.5 443.0412,-1642.5 443.0412,-1612.5 222.0412,-1612.5"/>
<text text-anchor="start" x="229.0412" y="-1623.9" font-family="Arial" font-size="14.00" fill="#000000">editorId </text>
<text text-anchor="start" x="279.6106" y="-1623.9" font-family="Arial" font-size="14.00" fill="#666666">[varchar(75)]</text>
<polygon fill="none" stroke="#000000" points="222.0412,-1582.5 222.0412,-1612.5 443.0412,-1612.5 443.0412,-1582.5 222.0412,-1582.5"/>
<text text-anchor="start" x="229.0412" y="-1593.9" font-family="Arial" font-size="14.00" fill="#000000">planHours </text>
<text text-anchor="start" x="296.7186" y="-1593.9" font-family="Arial" font-size="14.00" fill="#666666">[float]</text>
<polygon fill="none" stroke="#000000" points="222.0412,-1552.5 222.0412,-1582.5 443.0412,-1582.5 443.0412,-1552.5 222.0412,-1552.5"/>
<text text-anchor="start" x="229.0412" y="-1563.9" font-family="Arial" font-size="14.00" fill="#000000">hourRemaining </text>
<text text-anchor="start" x="327.8336" y="-1563.9" font-family="Arial" font-size="14.00" fill="#666666">[float]</text>
<polygon fill="none" stroke="#000000" points="222.0412,-1522.5 222.0412,-1552.5 443.0412,-1552.5 443.0412,-1522.5 222.0412,-1522.5"/>
<text text-anchor="start" x="229.0412" y="-1533.9" font-family="Arial" font-size="14.00" fill="#000000">type </text>
<text text-anchor="start" x="259.3876" y="-1533.9" font-family="Arial" font-size="14.00" fill="#666666">[varchar(255)]</text>
<polygon fill="none" stroke="#000000" points="222.0412,-1492.5 222.0412,-1522.5 443.0412,-1522.5 443.0412,-1492.5 222.0412,-1492.5"/>
<text text-anchor="start" x="229.0412" y="-1503.9" font-family="Arial" font-size="14.00" fill="#000000">production </text>
<text text-anchor="start" x="298.2852" y="-1503.9" font-family="Arial" font-size="14.00" fill="#666666">[int(1)]</text>
<polygon fill="none" stroke="#000000" points="222.0412,-1462.5 222.0412,-1492.5 443.0412,-1492.5 443.0412,-1462.5 222.0412,-1462.5"/>
<text text-anchor="start" x="229.0412" y="-1473.9" font-family="Arial" font-size="14.00" fill="#000000">staging </text>
<text text-anchor="start" x="278.0594" y="-1473.9" font-family="Arial" font-size="14.00" fill="#666666">[int(1)]</text>
<polygon fill="none" stroke="#000000" points="222.0412,-1432.5 222.0412,-1462.5 443.0412,-1462.5 443.0412,-1432.5 222.0412,-1432.5"/>
<text text-anchor="start" x="229.0412" y="-1443.9" font-family="Arial" font-size="14.00" fill="#000000">storypoints </text>
<text text-anchor="start" x="300.6106" y="-1443.9" font-family="Arial" font-size="14.00" fill="#666666">[float]</text>
<polygon fill="none" stroke="#000000" points="222.0412,-1402.5 222.0412,-1432.5 443.0412,-1432.5 443.0412,-1402.5 222.0412,-1402.5"/>
<text text-anchor="start" x="229.0412" y="-1413.9" font-family="Arial" font-size="14.00" fill="#000000">sprint </text>
<text text-anchor="start" x="267.1548" y="-1413.9" font-family="Arial" font-size="14.00" fill="#666666">[int(100)]</text>
<polygon fill="none" stroke="#000000" points="222.0412,-1372.5 222.0412,-1402.5 443.0412,-1402.5 443.0412,-1372.5 222.0412,-1372.5"/>
<text text-anchor="start" x="229.0412" y="-1383.9" font-family="Arial" font-size="14.00" fill="#000000">sortindex </text>
<text text-anchor="start" x="289.72" y="-1383.9" font-family="Arial" font-size="14.00" fill="#666666">[bigint(20)]</text>
<polygon fill="none" stroke="#000000" points="222.0412,-1342.5 222.0412,-1372.5 443.0412,-1372.5 443.0412,-1342.5 222.0412,-1342.5"/>
<text text-anchor="start" x="229.0412" y="-1353.9" font-family="Arial" font-size="14.00" fill="#000000">kanbanSortIndex </text>
<text text-anchor="start" x="338.7536" y="-1353.9" font-family="Arial" font-size="14.00" fill="#666666">[bigint(20)]</text>
<polygon fill="none" stroke="#000000" points="222.0412,-1312.5 222.0412,-1342.5 443.0412,-1342.5 443.0412,-1312.5 222.0412,-1312.5"/>
<text text-anchor="start" x="229.0412" y="-1323.9" font-family="Arial" font-size="14.00" fill="#000000">tags </text>
<text text-anchor="start" x="259.3876" y="-1323.9" font-family="Arial" font-size="14.00" fill="#666666">[varchar(255)]</text>
<polygon fill="none" stroke="#000000" points="222.0412,-1282.5 222.0412,-1312.5 443.0412,-1312.5 443.0412,-1282.5 222.0412,-1282.5"/>
<text text-anchor="start" x="229.0412" y="-1293.9" font-family="Arial" font-size="14.00" fill="#000000">milestoneid </text>
<text text-anchor="start" x="303.7158" y="-1293.9" font-family="Arial" font-size="14.00" fill="#666666">[int(11)]</text>
<polygon fill="none" stroke="#000000" points="222.0412,-1252.5 222.0412,-1282.5 443.0412,-1282.5 443.0412,-1252.5 222.0412,-1252.5"/>
<text text-anchor="start" x="229.0412" y="-1263.9" font-family="Arial" font-size="14.00" fill="#000000">leancanvasitemid </text>
<text text-anchor="start" x="341.0636" y="-1263.9" font-family="Arial" font-size="14.00" fill="#666666">[int(11)]</text>
<polygon fill="none" stroke="#000000" points="222.0412,-1222.5 222.0412,-1252.5 443.0412,-1252.5 443.0412,-1222.5 222.0412,-1222.5"/>
<text text-anchor="start" x="229.0412" y="-1233.9" font-family="Arial" font-size="14.00" fill="#000000">retrospectiveid </text>
<text text-anchor="start" x="323.943" y="-1233.9" font-family="Arial" font-size="14.00" fill="#666666">[int(11)]</text>
<polygon fill="none" stroke="#000000" points="222.0412,-1192.5 222.0412,-1222.5 443.0412,-1222.5 443.0412,-1192.5 222.0412,-1192.5"/>
<text text-anchor="start" x="229.0412" y="-1203.9" font-family="Arial" font-size="14.00" fill="#000000">ideaid </text>
<text text-anchor="start" x="270.2754" y="-1203.9" font-family="Arial" font-size="14.00" fill="#666666">[int(11)]</text>
<polygon fill="none" stroke="#000000" points="222.0412,-1162.5 222.0412,-1192.5 443.0412,-1192.5 443.0412,-1162.5 222.0412,-1162.5"/>
<text text-anchor="start" x="229.0412" y="-1173.9" font-family="Arial" font-size="14.00" fill="#000000">zp_ticketscol </text>
<text text-anchor="start" x="313.0566" y="-1173.9" font-family="Arial" font-size="14.00" fill="#666666">[varchar(45)]</text>
<polygon fill="none" stroke="#000000" stroke-width="3" points="220.0412,-1161.5 220.0412,-2249.5 444.0412,-2249.5 444.0412,-1161.5 220.0412,-1161.5"/>
</g>
<!-- zp_tickets&#45;&gt;zp_tickets -->
<g id="edge2" class="edge">
<title>zp_tickets:dependingTicketId&#45;&gt;zp_tickets:id</title>
<path fill="none" stroke="#000000" stroke-dasharray="5,2" d="M333.7178,-1743.1938C342.0353,-2075.0786 341.8097,-2681 333.0412,-2681 324.2434,-2681 324.0457,-2434.4597 332.4484,-2212.7407"/>
<polygon fill="#000000" stroke="#000000" points="333.712,-1742.9647 337.955,-1732.853 333.5842,-1737.9663 333.4565,-1732.9679 333.4565,-1732.9679 333.4565,-1732.9679 333.5842,-1737.9663 328.958,-1733.0829 333.712,-1742.9647 333.712,-1742.9647"/>
<text text-anchor="start" x="243.781" y="-1742.9679" font-family="Arial" font-size="10.00" fill="#000000">Additional Relation</text>
</g>
<!-- zp_projects -->
<g id="node3" class="node">
<title>zp_projects</title>
<polygon fill="#efefef" stroke="transparent" points="50.0412,-807.5 50.0412,-842.5 283.0412,-842.5 283.0412,-807.5 50.0412,-807.5"/>
<polygon fill="none" stroke="#000000" points="50.0412,-807.5 50.0412,-842.5 283.0412,-842.5 283.0412,-807.5 50.0412,-807.5"/>
<text text-anchor="start" x="56.7474" y="-820.3" font-family="Arial Bold" font-size="18.00" fill="#000000">zp_projects</text>
<text text-anchor="start" x="148.767" y="-820.3" font-family="Arial" font-size="14.00" fill="#000000">    </text>
<text text-anchor="start" x="182.9718" y="-820.3" font-family="Arial" font-size="14.00" fill="#666666">[BASE TABLE]</text>
<polygon fill="none" stroke="#000000" points="50.0412,-777.5 50.0412,-807.5 283.0412,-807.5 283.0412,-777.5 50.0412,-777.5"/>
<text text-anchor="start" x="57.0412" y="-788.9" font-family="Arial" font-size="14.00" fill="#000000">id    </text>
<text text-anchor="start" x="102.1352" y="-788.9" font-family="Arial" font-size="14.00" fill="#666666">[int(11)]</text>
<polygon fill="none" stroke="#000000" points="50.0412,-747.5 50.0412,-777.5 283.0412,-777.5 283.0412,-747.5 50.0412,-747.5"/>
<text text-anchor="start" x="57.0412" y="-758.9" font-family="Arial" font-size="14.00" fill="#000000">name    </text>
<text text-anchor="start" x="126.2544" y="-758.9" font-family="Arial" font-size="14.00" fill="#666666">[varchar(100)]</text>
<polygon fill="none" stroke="#000000" points="50.0412,-717.5 50.0412,-747.5 283.0412,-747.5 283.0412,-717.5 50.0412,-717.5"/>
<text text-anchor="start" x="57.0412" y="-728.9" font-family="Arial" font-size="14.00" fill="#000000">clientId    </text>
<text text-anchor="start" x="135.5882" y="-728.9" font-family="Arial" font-size="14.00" fill="#666666">[int(100)]</text>
<polygon fill="none" stroke="#000000" points="50.0412,-687.5 50.0412,-717.5 283.0412,-717.5 283.0412,-687.5 50.0412,-687.5"/>
<text text-anchor="start" x="57.0412" y="-698.9" font-family="Arial" font-size="14.00" fill="#000000">details    </text>
<text text-anchor="start" x="131.6976" y="-698.9" font-family="Arial" font-size="14.00" fill="#666666">[text]</text>
<polygon fill="none" stroke="#000000" points="50.0412,-657.5 50.0412,-687.5 283.0412,-687.5 283.0412,-657.5 50.0412,-657.5"/>
<text text-anchor="start" x="57.0412" y="-668.9" font-family="Arial" font-size="14.00" fill="#000000">state    </text>
<text text-anchor="start" x="121.5924" y="-668.9" font-family="Arial" font-size="14.00" fill="#666666">[int(2)]</text>
<polygon fill="none" stroke="#000000" points="50.0412,-627.5 50.0412,-657.5 283.0412,-657.5 283.0412,-627.5 50.0412,-627.5"/>
<text text-anchor="start" x="57.0412" y="-638.9" font-family="Arial" font-size="14.00" fill="#000000">hourBudget    </text>
<text text-anchor="start" x="163.612" y="-638.9" font-family="Arial" font-size="14.00" fill="#666666">[varchar(255)]</text>
<polygon fill="none" stroke="#000000" points="50.0412,-597.5 50.0412,-627.5 283.0412,-627.5 283.0412,-597.5 50.0412,-597.5"/>
<text text-anchor="start" x="57.0412" y="-608.9" font-family="Arial" font-size="14.00" fill="#000000">dollarBudget    </text>
<text text-anchor="start" x="169.8252" y="-608.9" font-family="Arial" font-size="14.00" fill="#666666">[int(11)]</text>
<polygon fill="none" stroke="#000000" points="50.0412,-567.5 50.0412,-597.5 283.0412,-597.5 283.0412,-567.5 50.0412,-567.5"/>
<text text-anchor="start" x="57.0412" y="-578.9" font-family="Arial" font-size="14.00" fill="#000000">active    </text>
<text text-anchor="start" x="127.8084" y="-578.9" font-family="Arial" font-size="14.00" fill="#666666">[int(11)]</text>
<polygon fill="none" stroke="#000000" points="50.0412,-537.5 50.0412,-567.5 283.0412,-567.5 283.0412,-537.5 50.0412,-537.5"/>
<text text-anchor="start" x="57.0412" y="-548.9" font-family="Arial" font-size="14.00" fill="#000000">menuType    </text>
<text text-anchor="start" x="157.3722" y="-548.9" font-family="Arial" font-size="14.00" fill="#666666">[mediumtext]</text>
<polygon fill="none" stroke="#000000" points="50.0412,-507.5 50.0412,-537.5 283.0412,-537.5 283.0412,-507.5 50.0412,-507.5"/>
<text text-anchor="start" x="57.0412" y="-518.9" font-family="Arial" font-size="14.00" fill="#000000">psettings    </text>
<text text-anchor="start" x="147.2642" y="-518.9" font-family="Arial" font-size="14.00" fill="#666666">[mediumtext]</text>
<polygon fill="none" stroke="#000000" points="50.0412,-477.5 50.0412,-507.5 283.0412,-507.5 283.0412,-477.5 50.0412,-477.5"/>
<text text-anchor="start" x="57.0412" y="-488.9" font-family="Arial" font-size="14.00" fill="#000000">parent    </text>
<text text-anchor="start" x="130.9276" y="-488.9" font-family="Arial" font-size="14.00" fill="#666666">[int(11)]</text>
<polygon fill="none" stroke="#000000" points="50.0412,-447.5 50.0412,-477.5 283.0412,-477.5 283.0412,-447.5 50.0412,-447.5"/>
<text text-anchor="start" x="57.0412" y="-458.9" font-family="Arial" font-size="14.00" fill="#000000">type    </text>
<text text-anchor="start" x="117.7018" y="-458.9" font-family="Arial" font-size="14.00" fill="#666666">[varchar(45)]</text>
<polygon fill="none" stroke="#000000" points="50.0412,-417.5 50.0412,-447.5 283.0412,-447.5 283.0412,-417.5 50.0412,-417.5"/>
<text text-anchor="start" x="57.0412" y="-428.9" font-family="Arial" font-size="14.00" fill="#000000">start    </text>
<text text-anchor="start" x="118.4704" y="-428.9" font-family="Arial" font-size="14.00" fill="#666666">[datetime]</text>
<polygon fill="none" stroke="#000000" points="50.0412,-387.5 50.0412,-417.5 283.0412,-417.5 283.0412,-387.5 50.0412,-387.5"/>
<text text-anchor="start" x="57.0412" y="-398.9" font-family="Arial" font-size="14.00" fill="#000000">end    </text>
<text text-anchor="start" x="114.5938" y="-398.9" font-family="Arial" font-size="14.00" fill="#666666">[datetime]</text>
<polygon fill="none" stroke="#000000" points="50.0412,-357.5 50.0412,-387.5 283.0412,-387.5 283.0412,-357.5 50.0412,-357.5"/>
<text text-anchor="start" x="57.0412" y="-368.9" font-family="Arial" font-size="14.00" fill="#000000">created    </text>
<text text-anchor="start" x="137.9276" y="-368.9" font-family="Arial" font-size="14.00" fill="#666666">[datetime]</text>
<polygon fill="none" stroke="#000000" points="50.0412,-327.5 50.0412,-357.5 283.0412,-357.5 283.0412,-327.5 50.0412,-327.5"/>
<text text-anchor="start" x="57.0412" y="-338.9" font-family="Arial" font-size="14.00" fill="#000000">modified    </text>
<text text-anchor="start" x="144.1408" y="-338.9" font-family="Arial" font-size="14.00" fill="#666666">[datetime]</text>
<polygon fill="none" stroke="#000000" points="50.0412,-297.5 50.0412,-327.5 283.0412,-327.5 283.0412,-297.5 50.0412,-297.5"/>
<text text-anchor="start" x="57.0412" y="-308.9" font-family="Arial" font-size="14.00" fill="#000000">avatar    </text>
<text text-anchor="start" x="130.145" y="-308.9" font-family="Arial" font-size="14.00" fill="#666666">[mediumtext]</text>
<polygon fill="none" stroke="#000000" points="50.0412,-267.5 50.0412,-297.5 283.0412,-297.5 283.0412,-267.5 50.0412,-267.5"/>
<text text-anchor="start" x="57.0412" y="-278.9" font-family="Arial" font-size="14.00" fill="#000000">cover    </text>
<text text-anchor="start" x="125.4718" y="-278.9" font-family="Arial" font-size="14.00" fill="#666666">[mediumtext]</text>
<polygon fill="none" stroke="#000000" points="50.0412,-237.5 50.0412,-267.5 283.0412,-267.5 283.0412,-237.5 50.0412,-237.5"/>
<text text-anchor="start" x="57.0412" y="-248.9" font-family="Arial" font-size="14.00" fill="#000000">sortIndex    </text>
<text text-anchor="start" x="148.8182" y="-248.9" font-family="Arial" font-size="14.00" fill="#666666">[int(11)]</text>
</g>
<!-- zp_tickets&#45;&gt;zp_projects -->
<g id="edge3" class="edge">
<title>zp_tickets:projectId&#45;&gt;zp_projects:id</title>
<path fill="none" stroke="#000000" stroke-dasharray="5,2" d="M211.9225,-2167.4057C-238.9075,-2158.9008 162.3789,-1576.6131 222.0412,-1117 231.4866,-1044.2363 356.4154,-792.5 283.0412,-792.5"/>
<polygon fill="#000000" stroke="#000000" points="212.0416,-2167.4067 221.9992,-2171.9998 217.0414,-2167.4534 222.0412,-2167.5 222.0412,-2167.5 222.0412,-2167.5 217.0414,-2167.4534 222.0832,-2163.0002 212.0416,-2167.4067 212.0416,-2167.4067"/>
<text text-anchor="start" x="132.3657" y="-2177.5" font-family="Arial" font-size="10.00" fill="#000000">Additional Relation</text>
</g>
<!-- zp_user -->
<g id="node4" class="node">
<title>zp_user</title>
<polygon fill="#efefef" stroke="transparent" points="387.0412,-1002.5 387.0412,-1037.5 613.0412,-1037.5 613.0412,-1002.5 387.0412,-1002.5"/>
<polygon fill="none" stroke="#000000" points="387.0412,-1002.5 387.0412,-1037.5 613.0412,-1037.5 613.0412,-1002.5 387.0412,-1002.5"/>
<text text-anchor="start" x="404.2487" y="-1015.3" font-family="Arial Bold" font-size="18.00" fill="#000000">zp_user</text>
<text text-anchor="start" x="468.2657" y="-1015.3" font-family="Arial" font-size="14.00" fill="#000000">    </text>
<text text-anchor="start" x="502.4705" y="-1015.3" font-family="Arial" font-size="14.00" fill="#666666">[BASE TABLE]</text>
<polygon fill="none" stroke="#000000" points="387.0412,-972.5 387.0412,-1002.5 613.0412,-1002.5 613.0412,-972.5 387.0412,-972.5"/>
<text text-anchor="start" x="394.0412" y="-983.9" font-family="Arial" font-size="14.00" fill="#000000">id    </text>
<text text-anchor="start" x="439.1352" y="-983.9" font-family="Arial" font-size="14.00" fill="#666666">[int(11)]</text>
<polygon fill="none" stroke="#000000" points="387.0412,-942.5 387.0412,-972.5 613.0412,-972.5 613.0412,-942.5 387.0412,-942.5"/>
<text text-anchor="start" x="394.0412" y="-953.9" font-family="Arial" font-size="14.00" fill="#000000">username    </text>
<text text-anchor="start" x="490.4802" y="-953.9" font-family="Arial" font-size="14.00" fill="#666666">[varchar(175)]</text>
<polygon fill="none" stroke="#000000" points="387.0412,-912.5 387.0412,-942.5 613.0412,-942.5 613.0412,-912.5 387.0412,-912.5"/>
<text text-anchor="start" x="394.0412" y="-923.9" font-family="Arial" font-size="14.00" fill="#000000">password    </text>
<text text-anchor="start" x="488.1436" y="-923.9" font-family="Arial" font-size="14.00" fill="#666666">[varchar(255)]</text>
<polygon fill="none" stroke="#000000" points="387.0412,-882.5 387.0412,-912.5 613.0412,-912.5 613.0412,-882.5 387.0412,-882.5"/>
<text text-anchor="start" x="394.0412" y="-893.9" font-family="Arial" font-size="14.00" fill="#000000">firstname    </text>
<text text-anchor="start" x="485.8028" y="-893.9" font-family="Arial" font-size="14.00" fill="#666666">[varchar(100)]</text>
<polygon fill="none" stroke="#000000" points="387.0412,-852.5 387.0412,-882.5 613.0412,-882.5 613.0412,-852.5 387.0412,-852.5"/>
<text text-anchor="start" x="394.0412" y="-863.9" font-family="Arial" font-size="14.00" fill="#000000">lastname    </text>
<text text-anchor="start" x="485.0342" y="-863.9" font-family="Arial" font-size="14.00" fill="#666666">[varchar(100)]</text>
<polygon fill="none" stroke="#000000" points="387.0412,-822.5 387.0412,-852.5 613.0412,-852.5 613.0412,-822.5 387.0412,-822.5"/>
<text text-anchor="start" x="394.0412" y="-833.9" font-family="Arial" font-size="14.00" fill="#000000">phone    </text>
<text text-anchor="start" x="467.159" y="-833.9" font-family="Arial" font-size="14.00" fill="#666666">[varchar(25)]</text>
<polygon fill="none" stroke="#000000" points="387.0412,-792.5 387.0412,-822.5 613.0412,-822.5 613.0412,-792.5 387.0412,-792.5"/>
<text text-anchor="start" x="394.0412" y="-803.9" font-family="Arial" font-size="14.00" fill="#000000">profileId    </text>
<text text-anchor="start" x="478.0314" y="-803.9" font-family="Arial" font-size="14.00" fill="#666666">[varchar(100)]</text>
<polygon fill="none" stroke="#000000" points="387.0412,-762.5 387.0412,-792.5 613.0412,-792.5 613.0412,-762.5 387.0412,-762.5"/>
<text text-anchor="start" x="394.0412" y="-773.9" font-family="Arial" font-size="14.00" fill="#000000">lastlogin    </text>
<text text-anchor="start" x="479.5868" y="-773.9" font-family="Arial" font-size="14.00" fill="#666666">[datetime]</text>
<polygon fill="none" stroke="#000000" points="387.0412,-732.5 387.0412,-762.5 613.0412,-762.5 613.0412,-732.5 387.0412,-732.5"/>
<text text-anchor="start" x="394.0412" y="-743.9" font-family="Arial" font-size="14.00" fill="#000000">status    </text>
<text text-anchor="start" x="465.5924" y="-743.9" font-family="Arial" font-size="14.00" fill="#666666">[varchar(1)]</text>
<polygon fill="none" stroke="#000000" points="387.0412,-702.5 387.0412,-732.5 613.0412,-732.5 613.0412,-702.5 387.0412,-702.5"/>
<text text-anchor="start" x="394.0412" y="-713.9" font-family="Arial" font-size="14.00" fill="#000000">expires    </text>
<text text-anchor="start" x="473.361" y="-713.9" font-family="Arial" font-size="14.00" fill="#666666">[datetime]</text>
<polygon fill="none" stroke="#000000" points="387.0412,-672.5 387.0412,-702.5 613.0412,-702.5 613.0412,-672.5 387.0412,-672.5"/>
<text text-anchor="start" x="394.0412" y="-683.9" font-family="Arial" font-size="14.00" fill="#000000">role    </text>
<text text-anchor="start" x="451.5784" y="-683.9" font-family="Arial" font-size="14.00" fill="#666666">[varchar(200)]</text>
<polygon fill="none" stroke="#000000" points="387.0412,-642.5 387.0412,-672.5 613.0412,-672.5 613.0412,-642.5 387.0412,-642.5"/>
<text text-anchor="start" x="394.0412" y="-653.9" font-family="Arial" font-size="14.00" fill="#000000">session    </text>
<text text-anchor="start" x="475.7004" y="-653.9" font-family="Arial" font-size="14.00" fill="#666666">[varchar(100)]</text>
<polygon fill="none" stroke="#000000" points="387.0412,-612.5 387.0412,-642.5 613.0412,-642.5 613.0412,-612.5 387.0412,-612.5"/>
<text text-anchor="start" x="394.0412" y="-623.9" font-family="Arial" font-size="14.00" fill="#000000">sessiontime    </text>
<text text-anchor="start" x="502.1408" y="-623.9" font-family="Arial" font-size="14.00" fill="#666666">[varchar(50)]</text>
<polygon fill="none" stroke="#000000" points="387.0412,-582.5 387.0412,-612.5 613.0412,-612.5 613.0412,-582.5 387.0412,-582.5"/>
<text text-anchor="start" x="394.0412" y="-593.9" font-family="Arial" font-size="14.00" fill="#000000">wage    </text>
<text text-anchor="start" x="461.7004" y="-593.9" font-family="Arial" font-size="14.00" fill="#666666">[int(11)]</text>
<polygon fill="none" stroke="#000000" points="387.0412,-552.5 387.0412,-582.5 613.0412,-582.5 613.0412,-552.5 387.0412,-552.5"/>
<text text-anchor="start" x="394.0412" y="-563.9" font-family="Arial" font-size="14.00" fill="#000000">hours    </text>
<text text-anchor="start" x="463.2544" y="-563.9" font-family="Arial" font-size="14.00" fill="#666666">[int(11)]</text>
<polygon fill="none" stroke="#000000" points="387.0412,-522.5 387.0412,-552.5 613.0412,-552.5 613.0412,-522.5 387.0412,-522.5"/>
<text text-anchor="start" x="394.0412" y="-533.9" font-family="Arial" font-size="14.00" fill="#000000">description    </text>
<text text-anchor="start" x="495.9234" y="-533.9" font-family="Arial" font-size="14.00" fill="#666666">[text]</text>
<polygon fill="none" stroke="#000000" points="387.0412,-492.5 387.0412,-522.5 613.0412,-522.5 613.0412,-492.5 387.0412,-492.5"/>
<text text-anchor="start" x="394.0412" y="-503.9" font-family="Arial" font-size="14.00" fill="#000000">clientId    </text>
<text text-anchor="start" x="472.5882" y="-503.9" font-family="Arial" font-size="14.00" fill="#666666">[int(11)]</text>
<polygon fill="none" stroke="#000000" points="387.0412,-462.5 387.0412,-492.5 613.0412,-492.5 613.0412,-462.5 387.0412,-462.5"/>
<text text-anchor="start" x="394.0412" y="-473.9" font-family="Arial" font-size="14.00" fill="#000000">notifications    </text>
<text text-anchor="start" x="502.1506" y="-473.9" font-family="Arial" font-size="14.00" fill="#666666">[int(2)]</text>
<polygon fill="none" stroke="#000000" points="387.0412,-432.5 387.0412,-462.5 613.0412,-462.5 613.0412,-432.5 387.0412,-432.5"/>
<text text-anchor="start" x="394.0412" y="-443.9" font-family="Arial" font-size="14.00" fill="#000000">pwReset    </text>
<text text-anchor="start" x="482.6976" y="-443.9" font-family="Arial" font-size="14.00" fill="#666666">[varchar(100)]</text>
<polygon fill="none" stroke="#000000" points="387.0412,-402.5 387.0412,-432.5 613.0412,-432.5 613.0412,-402.5 387.0412,-402.5"/>
<text text-anchor="start" x="393.8673" y="-413.9" font-family="Arial" font-size="14.00" fill="#000000">pwResetExpiration    </text>
<text text-anchor="start" x="544.7551" y="-413.9" font-family="Arial" font-size="14.00" fill="#666666">[datetime]</text>
<polygon fill="none" stroke="#000000" points="387.0412,-372.5 387.0412,-402.5 613.0412,-402.5 613.0412,-372.5 387.0412,-372.5"/>
<text text-anchor="start" x="394.0412" y="-383.9" font-family="Arial" font-size="14.00" fill="#000000">pwResetCount    </text>
<text text-anchor="start" x="520.0426" y="-383.9" font-family="Arial" font-size="14.00" fill="#666666">[int(5)]</text>
<polygon fill="none" stroke="#000000" points="387.0412,-342.5 387.0412,-372.5 613.0412,-372.5 613.0412,-342.5 387.0412,-342.5"/>
<text text-anchor="start" x="394.0412" y="-353.9" font-family="Arial" font-size="14.00" fill="#000000">forcePwReset    </text>
<text text-anchor="start" x="515.368" y="-353.9" font-family="Arial" font-size="14.00" fill="#666666">[tinyint(4)]</text>
<polygon fill="none" stroke="#000000" points="387.0412,-312.5 387.0412,-342.5 613.0412,-342.5 613.0412,-312.5 387.0412,-312.5"/>
<text text-anchor="start" x="394.0412" y="-323.9" font-family="Arial" font-size="14.00" fill="#000000">lastpwd_change    </text>
<text text-anchor="start" x="529.3932" y="-323.9" font-family="Arial" font-size="14.00" fill="#666666">[datetime]</text>
<polygon fill="none" stroke="#000000" points="387.0412,-282.5 387.0412,-312.5 613.0412,-312.5 613.0412,-282.5 387.0412,-282.5"/>
<text text-anchor="start" x="394.0412" y="-293.9" font-family="Arial" font-size="14.00" fill="#000000">settings    </text>
<text text-anchor="start" x="476.4816" y="-293.9" font-family="Arial" font-size="14.00" fill="#666666">[text]</text>
<polygon fill="none" stroke="#000000" points="387.0412,-252.5 387.0412,-282.5 613.0412,-282.5 613.0412,-252.5 387.0412,-252.5"/>
<text text-anchor="start" x="394.0412" y="-263.9" font-family="Arial" font-size="14.00" fill="#000000">twoFAEnabled    </text>
<text text-anchor="start" x="519.2712" y="-263.9" font-family="Arial" font-size="14.00" fill="#666666">[tinyint(1)]</text>
<polygon fill="none" stroke="#000000" points="387.0412,-222.5 387.0412,-252.5 613.0412,-252.5 613.0412,-222.5 387.0412,-222.5"/>
<text text-anchor="start" x="394.0412" y="-233.9" font-family="Arial" font-size="14.00" fill="#000000">twoFASecret    </text>
<text text-anchor="start" x="508.368" y="-233.9" font-family="Arial" font-size="14.00" fill="#666666">[varchar(200)]</text>
<polygon fill="none" stroke="#000000" points="387.0412,-192.5 387.0412,-222.5 613.0412,-222.5 613.0412,-192.5 387.0412,-192.5"/>
<text text-anchor="start" x="394.0412" y="-203.9" font-family="Arial" font-size="14.00" fill="#000000">createdOn    </text>
<text text-anchor="start" x="493.6008" y="-203.9" font-family="Arial" font-size="14.00" fill="#666666">[datetime]</text>
<polygon fill="none" stroke="#000000" points="387.0412,-162.5 387.0412,-192.5 613.0412,-192.5 613.0412,-162.5 387.0412,-162.5"/>
<text text-anchor="start" x="394.0412" y="-173.9" font-family="Arial" font-size="14.00" fill="#000000">source    </text>
<text text-anchor="start" x="470.2544" y="-173.9" font-family="Arial" font-size="14.00" fill="#666666">[varchar(200)]</text>
<polygon fill="none" stroke="#000000" points="387.0412,-132.5 387.0412,-162.5 613.0412,-162.5 613.0412,-132.5 387.0412,-132.5"/>
<text text-anchor="start" x="394.0412" y="-143.9" font-family="Arial" font-size="14.00" fill="#000000">jobTitle    </text>
<text text-anchor="start" x="473.3568" y="-143.9" font-family="Arial" font-size="14.00" fill="#666666">[varchar(200)]</text>
<polygon fill="none" stroke="#000000" points="387.0412,-102.5 387.0412,-132.5 613.0412,-132.5 613.0412,-102.5 387.0412,-102.5"/>
<text text-anchor="start" x="394.0412" y="-113.9" font-family="Arial" font-size="14.00" fill="#000000">jobLevel    </text>
<text text-anchor="start" x="480.3722" y="-113.9" font-family="Arial" font-size="14.00" fill="#666666">[varchar(50)]</text>
<polygon fill="none" stroke="#000000" points="387.0412,-72.5 387.0412,-102.5 613.0412,-102.5 613.0412,-72.5 387.0412,-72.5"/>
<text text-anchor="start" x="394.0412" y="-83.9" font-family="Arial" font-size="14.00" fill="#000000">department    </text>
<text text-anchor="start" x="499.044" y="-83.9" font-family="Arial" font-size="14.00" fill="#666666">[varchar(200)]</text>
<polygon fill="none" stroke="#000000" points="387.0412,-42.5 387.0412,-72.5 613.0412,-72.5 613.0412,-42.5 387.0412,-42.5"/>
<text text-anchor="start" x="394.0412" y="-53.9" font-family="Arial" font-size="14.00" fill="#000000">modified    </text>
<text text-anchor="start" x="481.1408" y="-53.9" font-family="Arial" font-size="14.00" fill="#666666">[datetime]</text>
</g>
<!-- zp_tickets&#45;&gt;zp_user -->
<g id="edge4" class="edge">
<title>zp_tickets:userId&#45;&gt;zp_user:id</title>
<path fill="none" stroke="#000000" stroke-dasharray="5,2" d="M453.1822,-1927.3661C799.6922,-1918.1027 614.0119,-1430.161 443.0412,-1117 428.8629,-1091.0301 401.2195,-1106.9699 387.0412,-1081 367.1283,-1044.5262 345.4857,-987.5 387.0412,-987.5"/>
<polygon fill="#000000" stroke="#000000" points="453.0403,-1927.3679 442.9818,-1923.0004 448.0408,-1927.434 443.0412,-1927.5 443.0412,-1927.5 443.0412,-1927.5 448.0408,-1927.434 443.1006,-1931.9996 453.0403,-1927.3679 453.0403,-1927.3679"/>
<text text-anchor="start" x="450.3657" y="-1937.5" font-family="Arial" font-size="10.00" fill="#000000">Additional Relation</text>
</g>
<!-- zp_tickethistory -->
<g id="node2" class="node">
<title>zp_tickethistory</title>
<polygon fill="#efefef" stroke="transparent" points="200.0412,-2552.5 200.0412,-2587.5 465.0412,-2587.5 465.0412,-2552.5 200.0412,-2552.5"/>
<polygon fill="none" stroke="#000000" points="200.0412,-2552.5 200.0412,-2587.5 465.0412,-2587.5 465.0412,-2552.5 200.0412,-2552.5"/>
<text text-anchor="start" x="206.7481" y="-2565.3" font-family="Arial Bold" font-size="18.00" fill="#000000">zp_tickethistory</text>
<text text-anchor="start" x="330.7663" y="-2565.3" font-family="Arial" font-size="14.00" fill="#000000">    </text>
<text text-anchor="start" x="364.9711" y="-2565.3" font-family="Arial" font-size="14.00" fill="#666666">[BASE TABLE]</text>
<polygon fill="none" stroke="#000000" points="200.0412,-2522.5 200.0412,-2552.5 465.0412,-2552.5 465.0412,-2522.5 200.0412,-2522.5"/>
<text text-anchor="start" x="207.0412" y="-2533.9" font-family="Arial" font-size="14.00" fill="#000000">id    </text>
<text text-anchor="start" x="252.1352" y="-2533.9" font-family="Arial" font-size="14.00" fill="#666666">[int(11) unsigned]</text>
<polygon fill="none" stroke="#000000" points="200.0412,-2492.5 200.0412,-2522.5 465.0412,-2522.5 465.0412,-2492.5 200.0412,-2492.5"/>
<text text-anchor="start" x="207.0412" y="-2503.9" font-family="Arial" font-size="14.00" fill="#000000">userId    </text>
<text text-anchor="start" x="280.145" y="-2503.9" font-family="Arial" font-size="14.00" fill="#666666">[int(11)]</text>
<polygon fill="none" stroke="#000000" points="200.0412,-2462.5 200.0412,-2492.5 465.0412,-2492.5 465.0412,-2462.5 200.0412,-2462.5"/>
<text text-anchor="start" x="207.0412" y="-2473.9" font-family="Arial" font-size="14.00" fill="#000000">ticketId    </text>
<text text-anchor="start" x="285.5896" y="-2473.9" font-family="Arial" font-size="14.00" fill="#666666">[int(11)]</text>
<polygon fill="none" stroke="#000000" points="200.0412,-2432.5 200.0412,-2462.5 465.0412,-2462.5 465.0412,-2432.5 200.0412,-2432.5"/>
<text text-anchor="start" x="207.0412" y="-2443.9" font-family="Arial" font-size="14.00" fill="#000000">changeType    </text>
<text text-anchor="start" x="318.2768" y="-2443.9" font-family="Arial" font-size="14.00" fill="#666666">[varchar(255)]</text>
<polygon fill="none" stroke="#000000" points="200.0412,-2402.5 200.0412,-2432.5 465.0412,-2432.5 465.0412,-2402.5 200.0412,-2402.5"/>
<text text-anchor="start" x="207.0412" y="-2413.9" font-family="Arial" font-size="14.00" fill="#000000">changeValue    </text>
<text text-anchor="start" x="322.95" y="-2413.9" font-family="Arial" font-size="14.00" fill="#666666">[varchar(150)]</text>
<polygon fill="none" stroke="#000000" points="200.0412,-2372.5 200.0412,-2402.5 465.0412,-2402.5 465.0412,-2372.5 200.0412,-2372.5"/>
<text text-anchor="start" x="207.0412" y="-2383.9" font-family="Arial" font-size="14.00" fill="#000000">dateModified    </text>
<text text-anchor="start" x="321.3792" y="-2383.9" font-family="Arial" font-size="14.00" fill="#666666">[datetime]</text>
</g>
<!-- zp_tickethistory&#45;&gt;zp_tickets -->
<g id="edge1" class="edge">
<title>zp_tickethistory:ticketId&#45;&gt;zp_tickets:id</title>
<path fill="none" stroke="#000000" stroke-dasharray="5,2" d="M189.788,-2476.839C76.5418,-2461.8652 100.7484,-2197.5 222.0412,-2197.5"/>
<polygon fill="#000000" stroke="#000000" points="190.0619,-2476.8566 199.7517,-2481.9907 195.0516,-2477.1783 200.0412,-2477.5 200.0412,-2477.5 200.0412,-2477.5 195.0516,-2477.1783 200.3308,-2473.0093 190.0619,-2476.8566 190.0619,-2476.8566"/>
<text text-anchor="start" x="110.3657" y="-2487.5" font-family="Arial" font-size="10.00" fill="#000000">Additional Relation</text>
</g>
</g>
</svg>
