<?xml version="1.0" encoding="UTF-8" standalone="no"?>
<!DOCTYPE svg PUBLIC "-//W3C//DTD SVG 1.1//EN"
 "http://www.w3.org/Graphics/SVG/1.1/DTD/svg11.dtd">
<!-- Generated by graphviz version 2.40.1 (20161225.0304)
 -->
<!-- Title: zp_tickethistory Pages: 1 -->
<svg width="646pt" height="1522pt"
 viewBox="0.00 0.00 645.50 1522.00" xmlns="http://www.w3.org/2000/svg" xmlns:xlink="http://www.w3.org/1999/xlink">
<g id="graph0" class="graph" transform="scale(1 1) rotate(0) translate(4 1518)">
<title>zp_tickethistory</title>
<polygon fill="#ffffff" stroke="transparent" points="-4,4 -4,-1518 641.5,-1518 641.5,4 -4,4"/>
<!-- zp_tickethistory -->
<g id="node1" class="node">
<title>zp_tickethistory</title>
<polygon fill="#efefef" stroke="transparent" points="187,-1432.5 187,-1467.5 452,-1467.5 452,-1432.5 187,-1432.5"/>
<polygon fill="none" stroke="#000000" points="187,-1432.5 187,-1467.5 452,-1467.5 452,-1432.5 187,-1432.5"/>
<text text-anchor="start" x="193.7069" y="-1445.3" font-family="Arial Bold" font-size="18.00" fill="#000000">zp_tickethistory</text>
<text text-anchor="start" x="317.7251" y="-1445.3" font-family="Arial" font-size="14.00" fill="#000000">    </text>
<text text-anchor="start" x="351.9299" y="-1445.3" font-family="Arial" font-size="14.00" fill="#666666">[BASE TABLE]</text>
<polygon fill="none" stroke="#000000" points="187,-1402.5 187,-1432.5 452,-1432.5 452,-1402.5 187,-1402.5"/>
<text text-anchor="start" x="194" y="-1413.9" font-family="Arial" font-size="14.00" fill="#000000">id </text>
<text text-anchor="start" x="208.7798" y="-1413.9" font-family="Arial" font-size="14.00" fill="#666666">[int(11) unsigned]</text>
<polygon fill="none" stroke="#000000" points="187,-1372.5 187,-1402.5 452,-1402.5 452,-1372.5 187,-1372.5"/>
<text text-anchor="start" x="194" y="-1383.9" font-family="Arial" font-size="14.00" fill="#000000">userId </text>
<text text-anchor="start" x="236.7896" y="-1383.9" font-family="Arial" font-size="14.00" fill="#666666">[int(11)]</text>
<polygon fill="none" stroke="#000000" points="187,-1342.5 187,-1372.5 452,-1372.5 452,-1342.5 187,-1342.5"/>
<text text-anchor="start" x="194" y="-1353.9" font-family="Arial" font-size="14.00" fill="#000000">ticketId </text>
<text text-anchor="start" x="242.2342" y="-1353.9" font-family="Arial" font-size="14.00" fill="#666666">[int(11)]</text>
<polygon fill="none" stroke="#000000" points="187,-1312.5 187,-1342.5 452,-1342.5 452,-1312.5 187,-1312.5"/>
<text text-anchor="start" x="194" y="-1323.9" font-family="Arial" font-size="14.00" fill="#000000">changeType </text>
<text text-anchor="start" x="274.9214" y="-1323.9" font-family="Arial" font-size="14.00" fill="#666666">[varchar(255)]</text>
<polygon fill="none" stroke="#000000" points="187,-1282.5 187,-1312.5 452,-1312.5 452,-1282.5 187,-1282.5"/>
<text text-anchor="start" x="194" y="-1293.9" font-family="Arial" font-size="14.00" fill="#000000">changeValue </text>
<text text-anchor="start" x="279.5946" y="-1293.9" font-family="Arial" font-size="14.00" fill="#666666">[varchar(150)]</text>
<polygon fill="none" stroke="#000000" points="187,-1252.5 187,-1282.5 452,-1282.5 452,-1252.5 187,-1252.5"/>
<text text-anchor="start" x="194" y="-1263.9" font-family="Arial" font-size="14.00" fill="#000000">dateModified </text>
<text text-anchor="start" x="278.0238" y="-1263.9" font-family="Arial" font-size="14.00" fill="#666666">[datetime]</text>
<polygon fill="none" stroke="#000000" stroke-width="3" points="185,-1251.5 185,-1469.5 453,-1469.5 453,-1251.5 185,-1251.5"/>
</g>
<!-- zp_user -->
<g id="node2" class="node">
<title>zp_user</title>
<polygon fill="#efefef" stroke="transparent" points="43,-1047.5 43,-1082.5 269,-1082.5 269,-1047.5 43,-1047.5"/>
<polygon fill="none" stroke="#000000" points="43,-1047.5 43,-1082.5 269,-1082.5 269,-1047.5 43,-1047.5"/>
<text text-anchor="start" x="60.2075" y="-1060.3" font-family="Arial Bold" font-size="18.00" fill="#000000">zp_user</text>
<text text-anchor="start" x="124.2245" y="-1060.3" font-family="Arial" font-size="14.00" fill="#000000">    </text>
<text text-anchor="start" x="158.4293" y="-1060.3" font-family="Arial" font-size="14.00" fill="#666666">[BASE TABLE]</text>
<polygon fill="none" stroke="#000000" points="43,-1017.5 43,-1047.5 269,-1047.5 269,-1017.5 43,-1017.5"/>
<text text-anchor="start" x="50" y="-1028.9" font-family="Arial" font-size="14.00" fill="#000000">id    </text>
<text text-anchor="start" x="95.094" y="-1028.9" font-family="Arial" font-size="14.00" fill="#666666">[int(11)]</text>
<polygon fill="none" stroke="#000000" points="43,-987.5 43,-1017.5 269,-1017.5 269,-987.5 43,-987.5"/>
<text text-anchor="start" x="50" y="-998.9" font-family="Arial" font-size="14.00" fill="#000000">username    </text>
<text text-anchor="start" x="146.439" y="-998.9" font-family="Arial" font-size="14.00" fill="#666666">[varchar(175)]</text>
<polygon fill="none" stroke="#000000" points="43,-957.5 43,-987.5 269,-987.5 269,-957.5 43,-957.5"/>
<text text-anchor="start" x="50" y="-968.9" font-family="Arial" font-size="14.00" fill="#000000">password    </text>
<text text-anchor="start" x="144.1024" y="-968.9" font-family="Arial" font-size="14.00" fill="#666666">[varchar(255)]</text>
<polygon fill="none" stroke="#000000" points="43,-927.5 43,-957.5 269,-957.5 269,-927.5 43,-927.5"/>
<text text-anchor="start" x="50" y="-938.9" font-family="Arial" font-size="14.00" fill="#000000">firstname    </text>
<text text-anchor="start" x="141.7616" y="-938.9" font-family="Arial" font-size="14.00" fill="#666666">[varchar(100)]</text>
<polygon fill="none" stroke="#000000" points="43,-897.5 43,-927.5 269,-927.5 269,-897.5 43,-897.5"/>
<text text-anchor="start" x="50" y="-908.9" font-family="Arial" font-size="14.00" fill="#000000">lastname    </text>
<text text-anchor="start" x="140.993" y="-908.9" font-family="Arial" font-size="14.00" fill="#666666">[varchar(100)]</text>
<polygon fill="none" stroke="#000000" points="43,-867.5 43,-897.5 269,-897.5 269,-867.5 43,-867.5"/>
<text text-anchor="start" x="50" y="-878.9" font-family="Arial" font-size="14.00" fill="#000000">phone    </text>
<text text-anchor="start" x="123.1178" y="-878.9" font-family="Arial" font-size="14.00" fill="#666666">[varchar(25)]</text>
<polygon fill="none" stroke="#000000" points="43,-837.5 43,-867.5 269,-867.5 269,-837.5 43,-837.5"/>
<text text-anchor="start" x="50" y="-848.9" font-family="Arial" font-size="14.00" fill="#000000">profileId    </text>
<text text-anchor="start" x="133.9902" y="-848.9" font-family="Arial" font-size="14.00" fill="#666666">[varchar(100)]</text>
<polygon fill="none" stroke="#000000" points="43,-807.5 43,-837.5 269,-837.5 269,-807.5 43,-807.5"/>
<text text-anchor="start" x="50" y="-818.9" font-family="Arial" font-size="14.00" fill="#000000">lastlogin    </text>
<text text-anchor="start" x="135.5456" y="-818.9" font-family="Arial" font-size="14.00" fill="#666666">[datetime]</text>
<polygon fill="none" stroke="#000000" points="43,-777.5 43,-807.5 269,-807.5 269,-777.5 43,-777.5"/>
<text text-anchor="start" x="50" y="-788.9" font-family="Arial" font-size="14.00" fill="#000000">status    </text>
<text text-anchor="start" x="121.5512" y="-788.9" font-family="Arial" font-size="14.00" fill="#666666">[varchar(1)]</text>
<polygon fill="none" stroke="#000000" points="43,-747.5 43,-777.5 269,-777.5 269,-747.5 43,-747.5"/>
<text text-anchor="start" x="50" y="-758.9" font-family="Arial" font-size="14.00" fill="#000000">expires    </text>
<text text-anchor="start" x="129.3198" y="-758.9" font-family="Arial" font-size="14.00" fill="#666666">[datetime]</text>
<polygon fill="none" stroke="#000000" points="43,-717.5 43,-747.5 269,-747.5 269,-717.5 43,-717.5"/>
<text text-anchor="start" x="50" y="-728.9" font-family="Arial" font-size="14.00" fill="#000000">role    </text>
<text text-anchor="start" x="107.5372" y="-728.9" font-family="Arial" font-size="14.00" fill="#666666">[varchar(200)]</text>
<polygon fill="none" stroke="#000000" points="43,-687.5 43,-717.5 269,-717.5 269,-687.5 43,-687.5"/>
<text text-anchor="start" x="50" y="-698.9" font-family="Arial" font-size="14.00" fill="#000000">session    </text>
<text text-anchor="start" x="131.6592" y="-698.9" font-family="Arial" font-size="14.00" fill="#666666">[varchar(100)]</text>
<polygon fill="none" stroke="#000000" points="43,-657.5 43,-687.5 269,-687.5 269,-657.5 43,-657.5"/>
<text text-anchor="start" x="50" y="-668.9" font-family="Arial" font-size="14.00" fill="#000000">sessiontime    </text>
<text text-anchor="start" x="158.0996" y="-668.9" font-family="Arial" font-size="14.00" fill="#666666">[varchar(50)]</text>
<polygon fill="none" stroke="#000000" points="43,-627.5 43,-657.5 269,-657.5 269,-627.5 43,-627.5"/>
<text text-anchor="start" x="50" y="-638.9" font-family="Arial" font-size="14.00" fill="#000000">wage    </text>
<text text-anchor="start" x="117.6592" y="-638.9" font-family="Arial" font-size="14.00" fill="#666666">[int(11)]</text>
<polygon fill="none" stroke="#000000" points="43,-597.5 43,-627.5 269,-627.5 269,-597.5 43,-597.5"/>
<text text-anchor="start" x="50" y="-608.9" font-family="Arial" font-size="14.00" fill="#000000">hours    </text>
<text text-anchor="start" x="119.2132" y="-608.9" font-family="Arial" font-size="14.00" fill="#666666">[int(11)]</text>
<polygon fill="none" stroke="#000000" points="43,-567.5 43,-597.5 269,-597.5 269,-567.5 43,-567.5"/>
<text text-anchor="start" x="50" y="-578.9" font-family="Arial" font-size="14.00" fill="#000000">description    </text>
<text text-anchor="start" x="151.8822" y="-578.9" font-family="Arial" font-size="14.00" fill="#666666">[text]</text>
<polygon fill="none" stroke="#000000" points="43,-537.5 43,-567.5 269,-567.5 269,-537.5 43,-537.5"/>
<text text-anchor="start" x="50" y="-548.9" font-family="Arial" font-size="14.00" fill="#000000">clientId    </text>
<text text-anchor="start" x="128.547" y="-548.9" font-family="Arial" font-size="14.00" fill="#666666">[int(11)]</text>
<polygon fill="none" stroke="#000000" points="43,-507.5 43,-537.5 269,-537.5 269,-507.5 43,-507.5"/>
<text text-anchor="start" x="50" y="-518.9" font-family="Arial" font-size="14.00" fill="#000000">notifications    </text>
<text text-anchor="start" x="158.1094" y="-518.9" font-family="Arial" font-size="14.00" fill="#666666">[int(2)]</text>
<polygon fill="none" stroke="#000000" points="43,-477.5 43,-507.5 269,-507.5 269,-477.5 43,-477.5"/>
<text text-anchor="start" x="50" y="-488.9" font-family="Arial" font-size="14.00" fill="#000000">pwReset    </text>
<text text-anchor="start" x="138.6564" y="-488.9" font-family="Arial" font-size="14.00" fill="#666666">[varchar(100)]</text>
<polygon fill="none" stroke="#000000" points="43,-447.5 43,-477.5 269,-477.5 269,-447.5 43,-447.5"/>
<text text-anchor="start" x="49.8261" y="-458.9" font-family="Arial" font-size="14.00" fill="#000000">pwResetExpiration    </text>
<text text-anchor="start" x="200.7139" y="-458.9" font-family="Arial" font-size="14.00" fill="#666666">[datetime]</text>
<polygon fill="none" stroke="#000000" points="43,-417.5 43,-447.5 269,-447.5 269,-417.5 43,-417.5"/>
<text text-anchor="start" x="50" y="-428.9" font-family="Arial" font-size="14.00" fill="#000000">pwResetCount    </text>
<text text-anchor="start" x="176.0014" y="-428.9" font-family="Arial" font-size="14.00" fill="#666666">[int(5)]</text>
<polygon fill="none" stroke="#000000" points="43,-387.5 43,-417.5 269,-417.5 269,-387.5 43,-387.5"/>
<text text-anchor="start" x="50" y="-398.9" font-family="Arial" font-size="14.00" fill="#000000">forcePwReset    </text>
<text text-anchor="start" x="171.3268" y="-398.9" font-family="Arial" font-size="14.00" fill="#666666">[tinyint(4)]</text>
<polygon fill="none" stroke="#000000" points="43,-357.5 43,-387.5 269,-387.5 269,-357.5 43,-357.5"/>
<text text-anchor="start" x="50" y="-368.9" font-family="Arial" font-size="14.00" fill="#000000">lastpwd_change    </text>
<text text-anchor="start" x="185.352" y="-368.9" font-family="Arial" font-size="14.00" fill="#666666">[datetime]</text>
<polygon fill="none" stroke="#000000" points="43,-327.5 43,-357.5 269,-357.5 269,-327.5 43,-327.5"/>
<text text-anchor="start" x="50" y="-338.9" font-family="Arial" font-size="14.00" fill="#000000">settings    </text>
<text text-anchor="start" x="132.4404" y="-338.9" font-family="Arial" font-size="14.00" fill="#666666">[text]</text>
<polygon fill="none" stroke="#000000" points="43,-297.5 43,-327.5 269,-327.5 269,-297.5 43,-297.5"/>
<text text-anchor="start" x="50" y="-308.9" font-family="Arial" font-size="14.00" fill="#000000">twoFAEnabled    </text>
<text text-anchor="start" x="175.23" y="-308.9" font-family="Arial" font-size="14.00" fill="#666666">[tinyint(1)]</text>
<polygon fill="none" stroke="#000000" points="43,-267.5 43,-297.5 269,-297.5 269,-267.5 43,-267.5"/>
<text text-anchor="start" x="50" y="-278.9" font-family="Arial" font-size="14.00" fill="#000000">twoFASecret    </text>
<text text-anchor="start" x="164.3268" y="-278.9" font-family="Arial" font-size="14.00" fill="#666666">[varchar(200)]</text>
<polygon fill="none" stroke="#000000" points="43,-237.5 43,-267.5 269,-267.5 269,-237.5 43,-237.5"/>
<text text-anchor="start" x="50" y="-248.9" font-family="Arial" font-size="14.00" fill="#000000">createdOn    </text>
<text text-anchor="start" x="149.5596" y="-248.9" font-family="Arial" font-size="14.00" fill="#666666">[datetime]</text>
<polygon fill="none" stroke="#000000" points="43,-207.5 43,-237.5 269,-237.5 269,-207.5 43,-207.5"/>
<text text-anchor="start" x="50" y="-218.9" font-family="Arial" font-size="14.00" fill="#000000">source    </text>
<text text-anchor="start" x="126.2132" y="-218.9" font-family="Arial" font-size="14.00" fill="#666666">[varchar(200)]</text>
<polygon fill="none" stroke="#000000" points="43,-177.5 43,-207.5 269,-207.5 269,-177.5 43,-177.5"/>
<text text-anchor="start" x="50" y="-188.9" font-family="Arial" font-size="14.00" fill="#000000">jobTitle    </text>
<text text-anchor="start" x="129.3156" y="-188.9" font-family="Arial" font-size="14.00" fill="#666666">[varchar(200)]</text>
<polygon fill="none" stroke="#000000" points="43,-147.5 43,-177.5 269,-177.5 269,-147.5 43,-147.5"/>
<text text-anchor="start" x="50" y="-158.9" font-family="Arial" font-size="14.00" fill="#000000">jobLevel    </text>
<text text-anchor="start" x="136.331" y="-158.9" font-family="Arial" font-size="14.00" fill="#666666">[varchar(50)]</text>
<polygon fill="none" stroke="#000000" points="43,-117.5 43,-147.5 269,-147.5 269,-117.5 43,-117.5"/>
<text text-anchor="start" x="50" y="-128.9" font-family="Arial" font-size="14.00" fill="#000000">department    </text>
<text text-anchor="start" x="155.0028" y="-128.9" font-family="Arial" font-size="14.00" fill="#666666">[varchar(200)]</text>
<polygon fill="none" stroke="#000000" points="43,-87.5 43,-117.5 269,-117.5 269,-87.5 43,-87.5"/>
<text text-anchor="start" x="50" y="-98.9" font-family="Arial" font-size="14.00" fill="#000000">modified    </text>
<text text-anchor="start" x="137.0996" y="-98.9" font-family="Arial" font-size="14.00" fill="#666666">[datetime]</text>
</g>
<!-- zp_tickethistory&#45;&gt;zp_user -->
<g id="edge1" class="edge">
<title>zp_tickethistory:userId&#45;&gt;zp_user:id</title>
<path fill="none" stroke="#000000" stroke-dasharray="5,2" d="M176.8256,-1387.3851C-79.2231,-1381.4544 259.9183,-1147.7363 269,-1126 285.0203,-1087.6566 310.5556,-1032.5 269,-1032.5"/>
<polygon fill="#000000" stroke="#000000" points="177.0006,-1387.387 186.9492,-1391.9997 182.0003,-1387.4435 187,-1387.5 187,-1387.5 187,-1387.5 182.0003,-1387.4435 187.0508,-1383.0003 177.0006,-1387.387 177.0006,-1387.387"/>
<text text-anchor="start" x="97.3245" y="-1397.5" font-family="Arial" font-size="10.00" fill="#000000">Additional Relation</text>
</g>
<!-- zp_tickets -->
<g id="node3" class="node">
<title>zp_tickets</title>
<polygon fill="#efefef" stroke="transparent" points="374,-1092.5 374,-1127.5 595,-1127.5 595,-1092.5 374,-1092.5"/>
<polygon fill="none" stroke="#000000" points="374,-1092.5 374,-1127.5 595,-1127.5 595,-1092.5 374,-1092.5"/>
<text text-anchor="start" x="380.7074" y="-1105.3" font-family="Arial Bold" font-size="18.00" fill="#000000">zp_tickets</text>
<text text-anchor="start" x="460.7246" y="-1105.3" font-family="Arial" font-size="14.00" fill="#000000">    </text>
<text text-anchor="start" x="494.9294" y="-1105.3" font-family="Arial" font-size="14.00" fill="#666666">[BASE TABLE]</text>
<polygon fill="none" stroke="#000000" points="374,-1062.5 374,-1092.5 595,-1092.5 595,-1062.5 374,-1062.5"/>
<text text-anchor="start" x="381" y="-1073.9" font-family="Arial" font-size="14.00" fill="#000000">id    </text>
<text text-anchor="start" x="426.094" y="-1073.9" font-family="Arial" font-size="14.00" fill="#666666">[int(11)]</text>
<polygon fill="none" stroke="#000000" points="374,-1032.5 374,-1062.5 595,-1062.5 595,-1032.5 374,-1032.5"/>
<text text-anchor="start" x="381" y="-1043.9" font-family="Arial" font-size="14.00" fill="#000000">projectId    </text>
<text text-anchor="start" x="468.8836" y="-1043.9" font-family="Arial" font-size="14.00" fill="#666666">[int(11)]</text>
<polygon fill="none" stroke="#000000" points="374,-1002.5 374,-1032.5 595,-1032.5 595,-1002.5 374,-1002.5"/>
<text text-anchor="start" x="381" y="-1013.9" font-family="Arial" font-size="14.00" fill="#000000">headline    </text>
<text text-anchor="start" x="468.1136" y="-1013.9" font-family="Arial" font-size="14.00" fill="#666666">[varchar(255)]</text>
<polygon fill="none" stroke="#000000" points="374,-972.5 374,-1002.5 595,-1002.5 595,-972.5 374,-972.5"/>
<text text-anchor="start" x="381" y="-983.9" font-family="Arial" font-size="14.00" fill="#000000">description    </text>
<text text-anchor="start" x="482.8822" y="-983.9" font-family="Arial" font-size="14.00" fill="#666666">[text]</text>
<polygon fill="none" stroke="#000000" points="374,-942.5 374,-972.5 595,-972.5 595,-942.5 374,-942.5"/>
<text text-anchor="start" x="381" y="-953.9" font-family="Arial" font-size="14.00" fill="#000000">acceptanceCriteria    </text>
<text text-anchor="start" x="531.8878" y="-953.9" font-family="Arial" font-size="14.00" fill="#666666">[text]</text>
<polygon fill="none" stroke="#000000" points="374,-912.5 374,-942.5 595,-942.5 595,-912.5 374,-912.5"/>
<text text-anchor="start" x="381" y="-923.9" font-family="Arial" font-size="14.00" fill="#000000">date    </text>
<text text-anchor="start" x="442.4432" y="-923.9" font-family="Arial" font-size="14.00" fill="#666666">[datetime]</text>
<polygon fill="none" stroke="#000000" points="374,-882.5 374,-912.5 595,-912.5 595,-882.5 374,-882.5"/>
<text text-anchor="start" x="381" y="-893.9" font-family="Arial" font-size="14.00" fill="#000000">dateToFinish    </text>
<text text-anchor="start" x="496.1094" y="-893.9" font-family="Arial" font-size="14.00" fill="#666666">[datetime]</text>
<polygon fill="none" stroke="#000000" points="374,-852.5 374,-882.5 595,-882.5 595,-852.5 374,-852.5"/>
<text text-anchor="start" x="381" y="-863.9" font-family="Arial" font-size="14.00" fill="#000000">priority    </text>
<text text-anchor="start" x="457.195" y="-863.9" font-family="Arial" font-size="14.00" fill="#666666">[varchar(60)]</text>
<polygon fill="none" stroke="#000000" points="374,-822.5 374,-852.5 595,-852.5 595,-822.5 374,-822.5"/>
<text text-anchor="start" x="381" y="-833.9" font-family="Arial" font-size="14.00" fill="#000000">status    </text>
<text text-anchor="start" x="452.5512" y="-833.9" font-family="Arial" font-size="14.00" fill="#666666">[int(2)]</text>
<polygon fill="none" stroke="#000000" points="374,-792.5 374,-822.5 595,-822.5 595,-792.5 374,-792.5"/>
<text text-anchor="start" x="381" y="-803.9" font-family="Arial" font-size="14.00" fill="#000000">userId    </text>
<text text-anchor="start" x="454.1038" y="-803.9" font-family="Arial" font-size="14.00" fill="#666666">[int(11)]</text>
<polygon fill="none" stroke="#000000" points="374,-762.5 374,-792.5 595,-792.5 595,-762.5 374,-762.5"/>
<text text-anchor="start" x="381" y="-773.9" font-family="Arial" font-size="14.00" fill="#000000">os    </text>
<text text-anchor="start" x="429.9874" y="-773.9" font-family="Arial" font-size="14.00" fill="#666666">[varchar(30)]</text>
<polygon fill="none" stroke="#000000" points="374,-732.5 374,-762.5 595,-762.5 595,-732.5 374,-732.5"/>
<text text-anchor="start" x="381" y="-743.9" font-family="Arial" font-size="14.00" fill="#000000">browser    </text>
<text text-anchor="start" x="464.9804" y="-743.9" font-family="Arial" font-size="14.00" fill="#666666">[varchar(30)]</text>
<polygon fill="none" stroke="#000000" points="374,-702.5 374,-732.5 595,-732.5 595,-702.5 374,-702.5"/>
<text text-anchor="start" x="381" y="-713.9" font-family="Arial" font-size="14.00" fill="#000000">resolution    </text>
<text text-anchor="start" x="475.8822" y="-713.9" font-family="Arial" font-size="14.00" fill="#666666">[varchar(30)]</text>
<polygon fill="none" stroke="#000000" points="374,-672.5 374,-702.5 595,-702.5 595,-672.5 374,-672.5"/>
<text text-anchor="start" x="381" y="-683.9" font-family="Arial" font-size="14.00" fill="#000000">component    </text>
<text text-anchor="start" x="484.4516" y="-683.9" font-family="Arial" font-size="14.00" fill="#666666">[varchar(100)]</text>
<polygon fill="none" stroke="#000000" points="374,-642.5 374,-672.5 595,-672.5 595,-642.5 374,-642.5"/>
<text text-anchor="start" x="381" y="-653.9" font-family="Arial" font-size="14.00" fill="#000000">version    </text>
<text text-anchor="start" x="460.3198" y="-653.9" font-family="Arial" font-size="14.00" fill="#666666">[varchar(20)]</text>
<polygon fill="none" stroke="#000000" points="374,-612.5 374,-642.5 595,-642.5 595,-612.5 374,-612.5"/>
<text text-anchor="start" x="381" y="-623.9" font-family="Arial" font-size="14.00" fill="#000000">url    </text>
<text text-anchor="start" x="430.7546" y="-623.9" font-family="Arial" font-size="14.00" fill="#666666">[varchar(100)]</text>
<polygon fill="none" stroke="#000000" points="374,-582.5 374,-612.5 595,-612.5 595,-582.5 374,-582.5"/>
<text text-anchor="start" x="381" y="-593.9" font-family="Arial" font-size="14.00" fill="#000000">dependingTicketId    </text>
<text text-anchor="start" x="529.5778" y="-593.9" font-family="Arial" font-size="14.00" fill="#666666">[int(100)]</text>
<polygon fill="none" stroke="#000000" points="374,-552.5 374,-582.5 595,-582.5 595,-552.5 374,-552.5"/>
<text text-anchor="start" x="381" y="-563.9" font-family="Arial" font-size="14.00" fill="#000000">editFrom    </text>
<text text-anchor="start" x="470.4236" y="-563.9" font-family="Arial" font-size="14.00" fill="#666666">[datetime]</text>
<polygon fill="none" stroke="#000000" points="374,-522.5 374,-552.5 595,-552.5 595,-522.5 374,-522.5"/>
<text text-anchor="start" x="381" y="-533.9" font-family="Arial" font-size="14.00" fill="#000000">editTo    </text>
<text text-anchor="start" x="454.1024" y="-533.9" font-family="Arial" font-size="14.00" fill="#666666">[datetime]</text>
<polygon fill="none" stroke="#000000" points="374,-492.5 374,-522.5 595,-522.5 595,-492.5 374,-492.5"/>
<text text-anchor="start" x="381" y="-503.9" font-family="Arial" font-size="14.00" fill="#000000">editorId    </text>
<text text-anchor="start" x="461.8836" y="-503.9" font-family="Arial" font-size="14.00" fill="#666666">[varchar(75)]</text>
<polygon fill="none" stroke="#000000" points="374,-462.5 374,-492.5 595,-492.5 595,-462.5 374,-462.5"/>
<text text-anchor="start" x="381" y="-473.9" font-family="Arial" font-size="14.00" fill="#000000">planHours    </text>
<text text-anchor="start" x="478.9916" y="-473.9" font-family="Arial" font-size="14.00" fill="#666666">[float]</text>
<polygon fill="none" stroke="#000000" points="374,-432.5 374,-462.5 595,-462.5 595,-432.5 374,-432.5"/>
<text text-anchor="start" x="381" y="-443.9" font-family="Arial" font-size="14.00" fill="#000000">hourRemaining    </text>
<text text-anchor="start" x="510.1066" y="-443.9" font-family="Arial" font-size="14.00" fill="#666666">[float]</text>
<polygon fill="none" stroke="#000000" points="374,-402.5 374,-432.5 595,-432.5 595,-402.5 374,-402.5"/>
<text text-anchor="start" x="381" y="-413.9" font-family="Arial" font-size="14.00" fill="#000000">type    </text>
<text text-anchor="start" x="441.6606" y="-413.9" font-family="Arial" font-size="14.00" fill="#666666">[varchar(255)]</text>
<polygon fill="none" stroke="#000000" points="374,-372.5 374,-402.5 595,-402.5 595,-372.5 374,-372.5"/>
<text text-anchor="start" x="381" y="-383.9" font-family="Arial" font-size="14.00" fill="#000000">production    </text>
<text text-anchor="start" x="480.5582" y="-383.9" font-family="Arial" font-size="14.00" fill="#666666">[int(1)]</text>
<polygon fill="none" stroke="#000000" points="374,-342.5 374,-372.5 595,-372.5 595,-342.5 374,-342.5"/>
<text text-anchor="start" x="381" y="-353.9" font-family="Arial" font-size="14.00" fill="#000000">staging    </text>
<text text-anchor="start" x="460.3324" y="-353.9" font-family="Arial" font-size="14.00" fill="#666666">[int(1)]</text>
<polygon fill="none" stroke="#000000" points="374,-312.5 374,-342.5 595,-342.5 595,-312.5 374,-312.5"/>
<text text-anchor="start" x="381" y="-323.9" font-family="Arial" font-size="14.00" fill="#000000">storypoints    </text>
<text text-anchor="start" x="482.8836" y="-323.9" font-family="Arial" font-size="14.00" fill="#666666">[float]</text>
<polygon fill="none" stroke="#000000" points="374,-282.5 374,-312.5 595,-312.5 595,-282.5 374,-282.5"/>
<text text-anchor="start" x="381" y="-293.9" font-family="Arial" font-size="14.00" fill="#000000">sprint    </text>
<text text-anchor="start" x="449.4278" y="-293.9" font-family="Arial" font-size="14.00" fill="#666666">[int(100)]</text>
<polygon fill="none" stroke="#000000" points="374,-252.5 374,-282.5 595,-282.5 595,-252.5 374,-252.5"/>
<text text-anchor="start" x="381" y="-263.9" font-family="Arial" font-size="14.00" fill="#000000">sortindex    </text>
<text text-anchor="start" x="471.993" y="-263.9" font-family="Arial" font-size="14.00" fill="#666666">[bigint(20)]</text>
<polygon fill="none" stroke="#000000" points="374,-222.5 374,-252.5 595,-252.5 595,-222.5 374,-222.5"/>
<text text-anchor="start" x="381" y="-233.9" font-family="Arial" font-size="14.00" fill="#000000">kanbanSortIndex    </text>
<text text-anchor="start" x="521.0266" y="-233.9" font-family="Arial" font-size="14.00" fill="#666666">[bigint(20)]</text>
<polygon fill="none" stroke="#000000" points="374,-192.5 374,-222.5 595,-222.5 595,-192.5 374,-192.5"/>
<text text-anchor="start" x="381" y="-203.9" font-family="Arial" font-size="14.00" fill="#000000">tags    </text>
<text text-anchor="start" x="441.6606" y="-203.9" font-family="Arial" font-size="14.00" fill="#666666">[varchar(255)]</text>
<polygon fill="none" stroke="#000000" points="374,-162.5 374,-192.5 595,-192.5 595,-162.5 374,-162.5"/>
<text text-anchor="start" x="381" y="-173.9" font-family="Arial" font-size="14.00" fill="#000000">milestoneid    </text>
<text text-anchor="start" x="485.9888" y="-173.9" font-family="Arial" font-size="14.00" fill="#666666">[int(11)]</text>
<polygon fill="none" stroke="#000000" points="374,-132.5 374,-162.5 595,-162.5 595,-132.5 374,-132.5"/>
<text text-anchor="start" x="381" y="-143.9" font-family="Arial" font-size="14.00" fill="#000000">leancanvasitemid    </text>
<text text-anchor="start" x="523.3366" y="-143.9" font-family="Arial" font-size="14.00" fill="#666666">[int(11)]</text>
<polygon fill="none" stroke="#000000" points="374,-102.5 374,-132.5 595,-132.5 595,-102.5 374,-102.5"/>
<text text-anchor="start" x="381" y="-113.9" font-family="Arial" font-size="14.00" fill="#000000">retrospectiveid    </text>
<text text-anchor="start" x="506.216" y="-113.9" font-family="Arial" font-size="14.00" fill="#666666">[int(11)]</text>
<polygon fill="none" stroke="#000000" points="374,-72.5 374,-102.5 595,-102.5 595,-72.5 374,-72.5"/>
<text text-anchor="start" x="381" y="-83.9" font-family="Arial" font-size="14.00" fill="#000000">ideaid    </text>
<text text-anchor="start" x="452.5484" y="-83.9" font-family="Arial" font-size="14.00" fill="#666666">[int(11)]</text>
<polygon fill="none" stroke="#000000" points="374,-42.5 374,-72.5 595,-72.5 595,-42.5 374,-42.5"/>
<text text-anchor="start" x="381" y="-53.9" font-family="Arial" font-size="14.00" fill="#000000">zp_ticketscol    </text>
<text text-anchor="start" x="495.3296" y="-53.9" font-family="Arial" font-size="14.00" fill="#666666">[varchar(45)]</text>
</g>
<!-- zp_tickethistory&#45;&gt;zp_tickets -->
<g id="edge2" class="edge">
<title>zp_tickethistory:ticketId&#45;&gt;zp_tickets:id</title>
<path fill="none" stroke="#000000" stroke-dasharray="5,2" d="M462.1123,-1356.6768C515.5003,-1347.3147 486.0785,-1260.2616 452,-1207 431.4223,-1174.8389 394.5777,-1203.1611 374,-1171 351.6035,-1135.9963 332.4444,-1077.5 374,-1077.5"/>
<polygon fill="#000000" stroke="#000000" points="461.967,-1356.6885 451.6348,-1353.0148 456.9835,-1357.0943 452,-1357.5 452,-1357.5 452,-1357.5 456.9835,-1357.0943 452.3652,-1361.9852 461.967,-1356.6885 461.967,-1356.6885"/>
<text text-anchor="start" x="459.3245" y="-1367.5" font-family="Arial" font-size="10.00" fill="#000000">Additional Relation</text>
</g>
</g>
</svg>
