<?xml version="1.0" encoding="UTF-8" standalone="no"?>
<!DOCTYPE svg PUBLIC "-//W3C//DTD SVG 1.1//EN"
 "http://www.w3.org/Graphics/SVG/1.1/DTD/svg11.dtd">
<!-- Generated by graphviz version 2.40.1 (20161225.0304)
 -->
<!-- Title: zp_timesheets Pages: 1 -->
<svg width="409pt" height="1672pt"
 viewBox="0.00 0.00 408.50 1672.00" xmlns="http://www.w3.org/2000/svg" xmlns:xlink="http://www.w3.org/1999/xlink">
<g id="graph0" class="graph" transform="scale(1 1) rotate(0) translate(4 1668)">
<title>zp_timesheets</title>
<polygon fill="#ffffff" stroke="transparent" points="-4,4 -4,-1668 404.5,-1668 404.5,4 -4,4"/>
<!-- zp_timesheets -->
<g id="node1" class="node">
<title>zp_timesheets</title>
<polygon fill="#efefef" stroke="transparent" points="46.5,-1582.5 46.5,-1617.5 303.5,-1617.5 303.5,-1582.5 46.5,-1582.5"/>
<polygon fill="none" stroke="#000000" points="46.5,-1582.5 46.5,-1617.5 303.5,-1617.5 303.5,-1582.5 46.5,-1582.5"/>
<text text-anchor="start" x="53.202" y="-1595.3" font-family="Arial Bold" font-size="18.00" fill="#000000">zp_timesheets</text>
<text text-anchor="start" x="169.23" y="-1595.3" font-family="Arial" font-size="14.00" fill="#000000">    </text>
<text text-anchor="start" x="203.4348" y="-1595.3" font-family="Arial" font-size="14.00" fill="#666666">[BASE TABLE]</text>
<polygon fill="none" stroke="#000000" points="46.5,-1552.5 46.5,-1582.5 303.5,-1582.5 303.5,-1552.5 46.5,-1552.5"/>
<text text-anchor="start" x="53.5" y="-1563.9" font-family="Arial" font-size="14.00" fill="#000000">id </text>
<text text-anchor="start" x="68.2798" y="-1563.9" font-family="Arial" font-size="14.00" fill="#666666">[int(255)]</text>
<polygon fill="none" stroke="#000000" points="46.5,-1522.5 46.5,-1552.5 303.5,-1552.5 303.5,-1522.5 46.5,-1522.5"/>
<text text-anchor="start" x="53.5" y="-1533.9" font-family="Arial" font-size="14.00" fill="#000000">userId </text>
<text text-anchor="start" x="96.2896" y="-1533.9" font-family="Arial" font-size="14.00" fill="#666666">[int(11)]</text>
<polygon fill="none" stroke="#000000" points="46.5,-1492.5 46.5,-1522.5 303.5,-1522.5 303.5,-1492.5 46.5,-1492.5"/>
<text text-anchor="start" x="53.5" y="-1503.9" font-family="Arial" font-size="14.00" fill="#000000">ticketId </text>
<text text-anchor="start" x="101.7342" y="-1503.9" font-family="Arial" font-size="14.00" fill="#666666">[int(11)]</text>
<polygon fill="none" stroke="#000000" points="46.5,-1462.5 46.5,-1492.5 303.5,-1492.5 303.5,-1462.5 46.5,-1462.5"/>
<text text-anchor="start" x="53.5" y="-1473.9" font-family="Arial" font-size="14.00" fill="#000000">workDate </text>
<text text-anchor="start" x="116.5028" y="-1473.9" font-family="Arial" font-size="14.00" fill="#666666">[datetime]</text>
<polygon fill="none" stroke="#000000" points="46.5,-1432.5 46.5,-1462.5 303.5,-1462.5 303.5,-1432.5 46.5,-1432.5"/>
<text text-anchor="start" x="53.5" y="-1443.9" font-family="Arial" font-size="14.00" fill="#000000">hours </text>
<text text-anchor="start" x="92.399" y="-1443.9" font-family="Arial" font-size="14.00" fill="#666666">[float]</text>
<polygon fill="none" stroke="#000000" points="46.5,-1402.5 46.5,-1432.5 303.5,-1432.5 303.5,-1402.5 46.5,-1402.5"/>
<text text-anchor="start" x="53.5" y="-1413.9" font-family="Arial" font-size="14.00" fill="#000000">description </text>
<text text-anchor="start" x="125.068" y="-1413.9" font-family="Arial" font-size="14.00" fill="#666666">[text]</text>
<polygon fill="none" stroke="#000000" points="46.5,-1372.5 46.5,-1402.5 303.5,-1402.5 303.5,-1372.5 46.5,-1372.5"/>
<text text-anchor="start" x="53.5" y="-1383.9" font-family="Arial" font-size="14.00" fill="#000000">kind </text>
<text text-anchor="start" x="83.0624" y="-1383.9" font-family="Arial" font-size="14.00" fill="#666666">[varchar(175)]</text>
<polygon fill="none" stroke="#000000" points="46.5,-1342.5 46.5,-1372.5 303.5,-1372.5 303.5,-1342.5 46.5,-1342.5"/>
<text text-anchor="start" x="53.5" y="-1353.9" font-family="Arial" font-size="14.00" fill="#000000">invoicedEmpl </text>
<text text-anchor="start" x="140.6206" y="-1353.9" font-family="Arial" font-size="14.00" fill="#666666">[int(2)]</text>
<polygon fill="none" stroke="#000000" points="46.5,-1312.5 46.5,-1342.5 303.5,-1342.5 303.5,-1312.5 46.5,-1312.5"/>
<text text-anchor="start" x="53.5" y="-1323.9" font-family="Arial" font-size="14.00" fill="#000000">invoicedComp </text>
<text text-anchor="start" x="146.0666" y="-1323.9" font-family="Arial" font-size="14.00" fill="#666666">[int(2)]</text>
<polygon fill="none" stroke="#000000" points="46.5,-1282.5 46.5,-1312.5 303.5,-1312.5 303.5,-1282.5 46.5,-1282.5"/>
<text text-anchor="start" x="53.5" y="-1293.9" font-family="Arial" font-size="14.00" fill="#000000">invoicedEmplDate </text>
<text text-anchor="start" x="170.183" y="-1293.9" font-family="Arial" font-size="14.00" fill="#666666">[datetime]</text>
<polygon fill="none" stroke="#000000" points="46.5,-1252.5 46.5,-1282.5 303.5,-1282.5 303.5,-1252.5 46.5,-1252.5"/>
<text text-anchor="start" x="53.5" y="-1263.9" font-family="Arial" font-size="14.00" fill="#000000">invoicedCompDate </text>
<text text-anchor="start" x="175.629" y="-1263.9" font-family="Arial" font-size="14.00" fill="#666666">[datetime]</text>
<polygon fill="none" stroke="#000000" points="46.5,-1222.5 46.5,-1252.5 303.5,-1252.5 303.5,-1222.5 46.5,-1222.5"/>
<text text-anchor="start" x="53.5" y="-1233.9" font-family="Arial" font-size="14.00" fill="#000000">rate </text>
<text text-anchor="start" x="81.507" y="-1233.9" font-family="Arial" font-size="14.00" fill="#666666">[varchar(255)]</text>
<polygon fill="none" stroke="#000000" points="46.5,-1192.5 46.5,-1222.5 303.5,-1222.5 303.5,-1192.5 46.5,-1192.5"/>
<text text-anchor="start" x="53.5" y="-1203.9" font-family="Arial" font-size="14.00" fill="#000000">paid </text>
<text text-anchor="start" x="83.845" y="-1203.9" font-family="Arial" font-size="14.00" fill="#666666">[int(2)]</text>
<polygon fill="none" stroke="#000000" points="46.5,-1162.5 46.5,-1192.5 303.5,-1192.5 303.5,-1162.5 46.5,-1162.5"/>
<text text-anchor="start" x="53.5" y="-1173.9" font-family="Arial" font-size="14.00" fill="#000000">paidDate </text>
<text text-anchor="start" x="113.4074" y="-1173.9" font-family="Arial" font-size="14.00" fill="#666666">[datetime]</text>
<polygon fill="none" stroke="#000000" stroke-width="3" points="44.5,-1161.5 44.5,-1619.5 304.5,-1619.5 304.5,-1161.5 44.5,-1161.5"/>
</g>
<!-- zp_user -->
<g id="node2" class="node">
<title>zp_user</title>
<polygon fill="#efefef" stroke="transparent" points="62.5,-1002.5 62.5,-1037.5 288.5,-1037.5 288.5,-1002.5 62.5,-1002.5"/>
<polygon fill="none" stroke="#000000" points="62.5,-1002.5 62.5,-1037.5 288.5,-1037.5 288.5,-1002.5 62.5,-1002.5"/>
<text text-anchor="start" x="79.7075" y="-1015.3" font-family="Arial Bold" font-size="18.00" fill="#000000">zp_user</text>
<text text-anchor="start" x="143.7245" y="-1015.3" font-family="Arial" font-size="14.00" fill="#000000">    </text>
<text text-anchor="start" x="177.9293" y="-1015.3" font-family="Arial" font-size="14.00" fill="#666666">[BASE TABLE]</text>
<polygon fill="none" stroke="#000000" points="62.5,-972.5 62.5,-1002.5 288.5,-1002.5 288.5,-972.5 62.5,-972.5"/>
<text text-anchor="start" x="69.5" y="-983.9" font-family="Arial" font-size="14.00" fill="#000000">id    </text>
<text text-anchor="start" x="114.594" y="-983.9" font-family="Arial" font-size="14.00" fill="#666666">[int(11)]</text>
<polygon fill="none" stroke="#000000" points="62.5,-942.5 62.5,-972.5 288.5,-972.5 288.5,-942.5 62.5,-942.5"/>
<text text-anchor="start" x="69.5" y="-953.9" font-family="Arial" font-size="14.00" fill="#000000">username    </text>
<text text-anchor="start" x="165.939" y="-953.9" font-family="Arial" font-size="14.00" fill="#666666">[varchar(175)]</text>
<polygon fill="none" stroke="#000000" points="62.5,-912.5 62.5,-942.5 288.5,-942.5 288.5,-912.5 62.5,-912.5"/>
<text text-anchor="start" x="69.5" y="-923.9" font-family="Arial" font-size="14.00" fill="#000000">password    </text>
<text text-anchor="start" x="163.6024" y="-923.9" font-family="Arial" font-size="14.00" fill="#666666">[varchar(255)]</text>
<polygon fill="none" stroke="#000000" points="62.5,-882.5 62.5,-912.5 288.5,-912.5 288.5,-882.5 62.5,-882.5"/>
<text text-anchor="start" x="69.5" y="-893.9" font-family="Arial" font-size="14.00" fill="#000000">firstname    </text>
<text text-anchor="start" x="161.2616" y="-893.9" font-family="Arial" font-size="14.00" fill="#666666">[varchar(100)]</text>
<polygon fill="none" stroke="#000000" points="62.5,-852.5 62.5,-882.5 288.5,-882.5 288.5,-852.5 62.5,-852.5"/>
<text text-anchor="start" x="69.5" y="-863.9" font-family="Arial" font-size="14.00" fill="#000000">lastname    </text>
<text text-anchor="start" x="160.493" y="-863.9" font-family="Arial" font-size="14.00" fill="#666666">[varchar(100)]</text>
<polygon fill="none" stroke="#000000" points="62.5,-822.5 62.5,-852.5 288.5,-852.5 288.5,-822.5 62.5,-822.5"/>
<text text-anchor="start" x="69.5" y="-833.9" font-family="Arial" font-size="14.00" fill="#000000">phone    </text>
<text text-anchor="start" x="142.6178" y="-833.9" font-family="Arial" font-size="14.00" fill="#666666">[varchar(25)]</text>
<polygon fill="none" stroke="#000000" points="62.5,-792.5 62.5,-822.5 288.5,-822.5 288.5,-792.5 62.5,-792.5"/>
<text text-anchor="start" x="69.5" y="-803.9" font-family="Arial" font-size="14.00" fill="#000000">profileId    </text>
<text text-anchor="start" x="153.4902" y="-803.9" font-family="Arial" font-size="14.00" fill="#666666">[varchar(100)]</text>
<polygon fill="none" stroke="#000000" points="62.5,-762.5 62.5,-792.5 288.5,-792.5 288.5,-762.5 62.5,-762.5"/>
<text text-anchor="start" x="69.5" y="-773.9" font-family="Arial" font-size="14.00" fill="#000000">lastlogin    </text>
<text text-anchor="start" x="155.0456" y="-773.9" font-family="Arial" font-size="14.00" fill="#666666">[datetime]</text>
<polygon fill="none" stroke="#000000" points="62.5,-732.5 62.5,-762.5 288.5,-762.5 288.5,-732.5 62.5,-732.5"/>
<text text-anchor="start" x="69.5" y="-743.9" font-family="Arial" font-size="14.00" fill="#000000">status    </text>
<text text-anchor="start" x="141.0512" y="-743.9" font-family="Arial" font-size="14.00" fill="#666666">[varchar(1)]</text>
<polygon fill="none" stroke="#000000" points="62.5,-702.5 62.5,-732.5 288.5,-732.5 288.5,-702.5 62.5,-702.5"/>
<text text-anchor="start" x="69.5" y="-713.9" font-family="Arial" font-size="14.00" fill="#000000">expires    </text>
<text text-anchor="start" x="148.8198" y="-713.9" font-family="Arial" font-size="14.00" fill="#666666">[datetime]</text>
<polygon fill="none" stroke="#000000" points="62.5,-672.5 62.5,-702.5 288.5,-702.5 288.5,-672.5 62.5,-672.5"/>
<text text-anchor="start" x="69.5" y="-683.9" font-family="Arial" font-size="14.00" fill="#000000">role    </text>
<text text-anchor="start" x="127.0372" y="-683.9" font-family="Arial" font-size="14.00" fill="#666666">[varchar(200)]</text>
<polygon fill="none" stroke="#000000" points="62.5,-642.5 62.5,-672.5 288.5,-672.5 288.5,-642.5 62.5,-642.5"/>
<text text-anchor="start" x="69.5" y="-653.9" font-family="Arial" font-size="14.00" fill="#000000">session    </text>
<text text-anchor="start" x="151.1592" y="-653.9" font-family="Arial" font-size="14.00" fill="#666666">[varchar(100)]</text>
<polygon fill="none" stroke="#000000" points="62.5,-612.5 62.5,-642.5 288.5,-642.5 288.5,-612.5 62.5,-612.5"/>
<text text-anchor="start" x="69.5" y="-623.9" font-family="Arial" font-size="14.00" fill="#000000">sessiontime    </text>
<text text-anchor="start" x="177.5996" y="-623.9" font-family="Arial" font-size="14.00" fill="#666666">[varchar(50)]</text>
<polygon fill="none" stroke="#000000" points="62.5,-582.5 62.5,-612.5 288.5,-612.5 288.5,-582.5 62.5,-582.5"/>
<text text-anchor="start" x="69.5" y="-593.9" font-family="Arial" font-size="14.00" fill="#000000">wage    </text>
<text text-anchor="start" x="137.1592" y="-593.9" font-family="Arial" font-size="14.00" fill="#666666">[int(11)]</text>
<polygon fill="none" stroke="#000000" points="62.5,-552.5 62.5,-582.5 288.5,-582.5 288.5,-552.5 62.5,-552.5"/>
<text text-anchor="start" x="69.5" y="-563.9" font-family="Arial" font-size="14.00" fill="#000000">hours    </text>
<text text-anchor="start" x="138.7132" y="-563.9" font-family="Arial" font-size="14.00" fill="#666666">[int(11)]</text>
<polygon fill="none" stroke="#000000" points="62.5,-522.5 62.5,-552.5 288.5,-552.5 288.5,-522.5 62.5,-522.5"/>
<text text-anchor="start" x="69.5" y="-533.9" font-family="Arial" font-size="14.00" fill="#000000">description    </text>
<text text-anchor="start" x="171.3822" y="-533.9" font-family="Arial" font-size="14.00" fill="#666666">[text]</text>
<polygon fill="none" stroke="#000000" points="62.5,-492.5 62.5,-522.5 288.5,-522.5 288.5,-492.5 62.5,-492.5"/>
<text text-anchor="start" x="69.5" y="-503.9" font-family="Arial" font-size="14.00" fill="#000000">clientId    </text>
<text text-anchor="start" x="148.047" y="-503.9" font-family="Arial" font-size="14.00" fill="#666666">[int(11)]</text>
<polygon fill="none" stroke="#000000" points="62.5,-462.5 62.5,-492.5 288.5,-492.5 288.5,-462.5 62.5,-462.5"/>
<text text-anchor="start" x="69.5" y="-473.9" font-family="Arial" font-size="14.00" fill="#000000">notifications    </text>
<text text-anchor="start" x="177.6094" y="-473.9" font-family="Arial" font-size="14.00" fill="#666666">[int(2)]</text>
<polygon fill="none" stroke="#000000" points="62.5,-432.5 62.5,-462.5 288.5,-462.5 288.5,-432.5 62.5,-432.5"/>
<text text-anchor="start" x="69.5" y="-443.9" font-family="Arial" font-size="14.00" fill="#000000">pwReset    </text>
<text text-anchor="start" x="158.1564" y="-443.9" font-family="Arial" font-size="14.00" fill="#666666">[varchar(100)]</text>
<polygon fill="none" stroke="#000000" points="62.5,-402.5 62.5,-432.5 288.5,-432.5 288.5,-402.5 62.5,-402.5"/>
<text text-anchor="start" x="69.3261" y="-413.9" font-family="Arial" font-size="14.00" fill="#000000">pwResetExpiration    </text>
<text text-anchor="start" x="220.2139" y="-413.9" font-family="Arial" font-size="14.00" fill="#666666">[datetime]</text>
<polygon fill="none" stroke="#000000" points="62.5,-372.5 62.5,-402.5 288.5,-402.5 288.5,-372.5 62.5,-372.5"/>
<text text-anchor="start" x="69.5" y="-383.9" font-family="Arial" font-size="14.00" fill="#000000">pwResetCount    </text>
<text text-anchor="start" x="195.5014" y="-383.9" font-family="Arial" font-size="14.00" fill="#666666">[int(5)]</text>
<polygon fill="none" stroke="#000000" points="62.5,-342.5 62.5,-372.5 288.5,-372.5 288.5,-342.5 62.5,-342.5"/>
<text text-anchor="start" x="69.5" y="-353.9" font-family="Arial" font-size="14.00" fill="#000000">forcePwReset    </text>
<text text-anchor="start" x="190.8268" y="-353.9" font-family="Arial" font-size="14.00" fill="#666666">[tinyint(4)]</text>
<polygon fill="none" stroke="#000000" points="62.5,-312.5 62.5,-342.5 288.5,-342.5 288.5,-312.5 62.5,-312.5"/>
<text text-anchor="start" x="69.5" y="-323.9" font-family="Arial" font-size="14.00" fill="#000000">lastpwd_change    </text>
<text text-anchor="start" x="204.852" y="-323.9" font-family="Arial" font-size="14.00" fill="#666666">[datetime]</text>
<polygon fill="none" stroke="#000000" points="62.5,-282.5 62.5,-312.5 288.5,-312.5 288.5,-282.5 62.5,-282.5"/>
<text text-anchor="start" x="69.5" y="-293.9" font-family="Arial" font-size="14.00" fill="#000000">settings    </text>
<text text-anchor="start" x="151.9404" y="-293.9" font-family="Arial" font-size="14.00" fill="#666666">[text]</text>
<polygon fill="none" stroke="#000000" points="62.5,-252.5 62.5,-282.5 288.5,-282.5 288.5,-252.5 62.5,-252.5"/>
<text text-anchor="start" x="69.5" y="-263.9" font-family="Arial" font-size="14.00" fill="#000000">twoFAEnabled    </text>
<text text-anchor="start" x="194.73" y="-263.9" font-family="Arial" font-size="14.00" fill="#666666">[tinyint(1)]</text>
<polygon fill="none" stroke="#000000" points="62.5,-222.5 62.5,-252.5 288.5,-252.5 288.5,-222.5 62.5,-222.5"/>
<text text-anchor="start" x="69.5" y="-233.9" font-family="Arial" font-size="14.00" fill="#000000">twoFASecret    </text>
<text text-anchor="start" x="183.8268" y="-233.9" font-family="Arial" font-size="14.00" fill="#666666">[varchar(200)]</text>
<polygon fill="none" stroke="#000000" points="62.5,-192.5 62.5,-222.5 288.5,-222.5 288.5,-192.5 62.5,-192.5"/>
<text text-anchor="start" x="69.5" y="-203.9" font-family="Arial" font-size="14.00" fill="#000000">createdOn    </text>
<text text-anchor="start" x="169.0596" y="-203.9" font-family="Arial" font-size="14.00" fill="#666666">[datetime]</text>
<polygon fill="none" stroke="#000000" points="62.5,-162.5 62.5,-192.5 288.5,-192.5 288.5,-162.5 62.5,-162.5"/>
<text text-anchor="start" x="69.5" y="-173.9" font-family="Arial" font-size="14.00" fill="#000000">source    </text>
<text text-anchor="start" x="145.7132" y="-173.9" font-family="Arial" font-size="14.00" fill="#666666">[varchar(200)]</text>
<polygon fill="none" stroke="#000000" points="62.5,-132.5 62.5,-162.5 288.5,-162.5 288.5,-132.5 62.5,-132.5"/>
<text text-anchor="start" x="69.5" y="-143.9" font-family="Arial" font-size="14.00" fill="#000000">jobTitle    </text>
<text text-anchor="start" x="148.8156" y="-143.9" font-family="Arial" font-size="14.00" fill="#666666">[varchar(200)]</text>
<polygon fill="none" stroke="#000000" points="62.5,-102.5 62.5,-132.5 288.5,-132.5 288.5,-102.5 62.5,-102.5"/>
<text text-anchor="start" x="69.5" y="-113.9" font-family="Arial" font-size="14.00" fill="#000000">jobLevel    </text>
<text text-anchor="start" x="155.831" y="-113.9" font-family="Arial" font-size="14.00" fill="#666666">[varchar(50)]</text>
<polygon fill="none" stroke="#000000" points="62.5,-72.5 62.5,-102.5 288.5,-102.5 288.5,-72.5 62.5,-72.5"/>
<text text-anchor="start" x="69.5" y="-83.9" font-family="Arial" font-size="14.00" fill="#000000">department    </text>
<text text-anchor="start" x="174.5028" y="-83.9" font-family="Arial" font-size="14.00" fill="#666666">[varchar(200)]</text>
<polygon fill="none" stroke="#000000" points="62.5,-42.5 62.5,-72.5 288.5,-72.5 288.5,-42.5 62.5,-42.5"/>
<text text-anchor="start" x="69.5" y="-53.9" font-family="Arial" font-size="14.00" fill="#000000">modified    </text>
<text text-anchor="start" x="156.5996" y="-53.9" font-family="Arial" font-size="14.00" fill="#666666">[datetime]</text>
</g>
<!-- zp_timesheets&#45;&gt;zp_user -->
<g id="edge1" class="edge">
<title>zp_timesheets:userId&#45;&gt;zp_user:id</title>
<path fill="none" stroke="#000000" stroke-dasharray="5,2" d="M313.88,-1535.9366C394.3661,-1510.6044 362.1165,-1185.0229 303.5,-1117 232.8035,-1034.9586 133.1965,-1163.0414 62.5,-1081 35.3731,-1049.5199 20.9444,-987.5 62.5,-987.5"/>
<polygon fill="#000000" stroke="#000000" points="313.3885,-1536.0106 302.8298,-1533.0502 308.4442,-1536.7553 303.5,-1537.5 303.5,-1537.5 303.5,-1537.5 308.4442,-1536.7553 304.1702,-1541.9498 313.3885,-1536.0106 313.3885,-1536.0106"/>
<text text-anchor="start" x="310.8245" y="-1547.5" font-family="Arial" font-size="10.00" fill="#000000">Additional Relation</text>
</g>
</g>
</svg>
