<?xml version="1.0" encoding="UTF-8" standalone="no"?>
<!DOCTYPE svg PUBLIC "-//W3C//DTD SVG 1.1//EN"
 "http://www.w3.org/Graphics/SVG/1.1/DTD/svg11.dtd">
<!-- Generated by graphviz version 2.40.1 (20161225.0304)
 -->
<!-- Title: Authors Pages: 1 -->
<svg width="814pt" height="922pt"
 viewBox="0.00 0.00 814.00 922.00" xmlns="http://www.w3.org/2000/svg" xmlns:xlink="http://www.w3.org/1999/xlink">
<g id="graph0" class="graph" transform="scale(1 1) rotate(0) translate(4 918)">
<title>Authors</title>
<polygon fill="#ffffff" stroke="transparent" points="-4,4 -4,-918 810,-918 810,4 -4,4"/>
<!-- Authors -->
<g id="node1" class="node">
<title>Authors</title>
<polygon fill="#efefef" stroke="transparent" points="391,-832.5 391,-867.5 564,-867.5 564,-832.5 391,-832.5"/>
<polygon fill="none" stroke="#000000" points="391,-832.5 391,-867.5 564,-867.5 564,-832.5 391,-832.5"/>
<text text-anchor="start" x="397.8645" y="-845.3" font-family="Arial Bold" font-size="18.00" fill="#000000">Authors</text>
<text text-anchor="start" x="459.8817" y="-845.3" font-family="Arial" font-size="14.00" fill="#000000"> </text>
<text text-anchor="start" x="463.7723" y="-845.3" font-family="Arial" font-size="14.00" fill="#666666">[BASE TABLE]</text>
<polygon fill="none" stroke="#000000" points="391,-802.5 391,-832.5 564,-832.5 564,-802.5 391,-802.5"/>
<text text-anchor="start" x="398" y="-813.9" font-family="Arial" font-size="14.00" fill="#000000">id </text>
<text text-anchor="start" x="412.7798" y="-813.9" font-family="Arial" font-size="14.00" fill="#666666">[int(11)]</text>
<polygon fill="none" stroke="#000000" points="391,-772.5 391,-802.5 564,-802.5 564,-772.5 391,-772.5"/>
<text text-anchor="start" x="398" y="-783.9" font-family="Arial" font-size="14.00" fill="#000000">color </text>
<text text-anchor="start" x="432.223" y="-783.9" font-family="Arial" font-size="14.00" fill="#666666">[varchar(255)]</text>
<polygon fill="none" stroke="#000000" points="391,-742.5 391,-772.5 564,-772.5 564,-742.5 391,-742.5"/>
<text text-anchor="start" x="398" y="-753.9" font-family="Arial" font-size="14.00" fill="#000000">noteId </text>
<text text-anchor="start" x="440.8022" y="-753.9" font-family="Arial" font-size="14.00" fill="#666666">[char(36)]</text>
<polygon fill="none" stroke="#000000" points="391,-712.5 391,-742.5 564,-742.5 564,-712.5 391,-712.5"/>
<text text-anchor="start" x="398" y="-723.9" font-family="Arial" font-size="14.00" fill="#000000">userId </text>
<text text-anchor="start" x="440.7896" y="-723.9" font-family="Arial" font-size="14.00" fill="#666666">[char(36)]</text>
<polygon fill="none" stroke="#000000" points="391,-682.5 391,-712.5 564,-712.5 564,-682.5 391,-682.5"/>
<text text-anchor="start" x="398" y="-693.9" font-family="Arial" font-size="14.00" fill="#000000">createdAt </text>
<text text-anchor="start" x="461.7994" y="-693.9" font-family="Arial" font-size="14.00" fill="#666666">[datetime]</text>
<polygon fill="none" stroke="#000000" points="391,-652.5 391,-682.5 564,-682.5 564,-652.5 391,-652.5"/>
<text text-anchor="start" x="398" y="-663.9" font-family="Arial" font-size="14.00" fill="#000000">updatedAt </text>
<text text-anchor="start" x="465.704" y="-663.9" font-family="Arial" font-size="14.00" fill="#666666">[datetime]</text>
<polygon fill="none" stroke="#000000" stroke-width="3" points="389,-651.5 389,-869.5 565,-869.5 565,-651.5 389,-651.5"/>
</g>
<!-- Notes -->
<g id="node2" class="node">
<title>Notes</title>
<polygon fill="#efefef" stroke="transparent" points="43,-492.5 43,-527.5 501,-527.5 501,-492.5 43,-492.5"/>
<polygon fill="none" stroke="#000000" points="43,-492.5 43,-527.5 501,-527.5 501,-492.5 43,-492.5"/>
<text text-anchor="start" x="199.8687" y="-505.3" font-family="Arial Bold" font-size="18.00" fill="#000000">Notes</text>
<text text-anchor="start" x="246.8775" y="-505.3" font-family="Arial" font-size="14.00" fill="#000000"> </text>
<text text-anchor="start" x="250.7681" y="-505.3" font-family="Arial" font-size="14.00" fill="#666666">[BASE TABLE]</text>
<polygon fill="none" stroke="#000000" points="43,-462.5 43,-492.5 501,-492.5 501,-462.5 43,-462.5"/>
<text text-anchor="start" x="50" y="-473.9" font-family="Arial" font-size="14.00" fill="#000000">id </text>
<text text-anchor="start" x="64.7798" y="-473.9" font-family="Arial" font-size="14.00" fill="#666666">[char(36)]</text>
<polygon fill="none" stroke="#000000" points="43,-432.5 43,-462.5 501,-462.5 501,-432.5 43,-432.5"/>
<text text-anchor="start" x="50" y="-443.9" font-family="Arial" font-size="14.00" fill="#000000">ownerId </text>
<text text-anchor="start" x="103.6788" y="-443.9" font-family="Arial" font-size="14.00" fill="#666666">[char(36)]</text>
<polygon fill="none" stroke="#000000" points="43,-402.5 43,-432.5 501,-432.5 501,-402.5 43,-402.5"/>
<text text-anchor="start" x="50" y="-413.9" font-family="Arial" font-size="14.00" fill="#000000">content </text>
<text text-anchor="start" x="99.8022" y="-413.9" font-family="Arial" font-size="14.00" fill="#666666">[longtext]</text>
<polygon fill="none" stroke="#000000" points="43,-372.5 43,-402.5 501,-402.5 501,-372.5 43,-372.5"/>
<text text-anchor="start" x="50" y="-383.9" font-family="Arial" font-size="14.00" fill="#000000">title </text>
<text text-anchor="start" x="75.6676" y="-383.9" font-family="Arial" font-size="14.00" fill="#666666">[text]</text>
<polygon fill="none" stroke="#000000" points="43,-342.5 43,-372.5 501,-372.5 501,-342.5 43,-342.5"/>
<text text-anchor="start" x="50" y="-353.9" font-family="Arial" font-size="14.00" fill="#000000">createdAt </text>
<text text-anchor="start" x="113.7994" y="-353.9" font-family="Arial" font-size="14.00" fill="#666666">[datetime]</text>
<polygon fill="none" stroke="#000000" points="43,-312.5 43,-342.5 501,-342.5 501,-312.5 43,-312.5"/>
<text text-anchor="start" x="50" y="-323.9" font-family="Arial" font-size="14.00" fill="#000000">updatedAt </text>
<text text-anchor="start" x="117.704" y="-323.9" font-family="Arial" font-size="14.00" fill="#666666">[datetime]</text>
<polygon fill="none" stroke="#000000" points="43,-282.5 43,-312.5 501,-312.5 501,-282.5 43,-282.5"/>
<text text-anchor="start" x="50" y="-293.9" font-family="Arial" font-size="14.00" fill="#000000">shortid </text>
<text text-anchor="start" x="95.8962" y="-293.9" font-family="Arial" font-size="14.00" fill="#666666">[varchar(255)]</text>
<polygon fill="none" stroke="#000000" points="43,-252.5 43,-282.5 501,-282.5 501,-252.5 43,-252.5"/>
<text text-anchor="start" x="49.6394" y="-263.9" font-family="Arial" font-size="14.00" fill="#000000">permission </text>
<text text-anchor="start" x="121.1948" y="-263.9" font-family="Arial" font-size="14.00" fill="#666666">[enum(&#39;freely&#39;,&#39;editable&#39;,&#39;limited&#39;,&#39;locked&#39;,&#39;protected&#39;,&#39;private&#39;)]</text>
<polygon fill="none" stroke="#000000" points="43,-222.5 43,-252.5 501,-252.5 501,-222.5 43,-222.5"/>
<text text-anchor="start" x="50" y="-233.9" font-family="Arial" font-size="14.00" fill="#000000">viewcount </text>
<text text-anchor="start" x="116.1248" y="-233.9" font-family="Arial" font-size="14.00" fill="#666666">[int(11)]</text>
<polygon fill="none" stroke="#000000" points="43,-192.5 43,-222.5 501,-222.5 501,-192.5 43,-192.5"/>
<text text-anchor="start" x="50" y="-203.9" font-family="Arial" font-size="14.00" fill="#000000">lastchangeuserId </text>
<text text-anchor="start" x="160.4824" y="-203.9" font-family="Arial" font-size="14.00" fill="#666666">[char(36)]</text>
<polygon fill="none" stroke="#000000" points="43,-162.5 43,-192.5 501,-192.5 501,-162.5 43,-162.5"/>
<text text-anchor="start" x="50" y="-173.9" font-family="Arial" font-size="14.00" fill="#000000">lastchangeAt </text>
<text text-anchor="start" x="134.8106" y="-173.9" font-family="Arial" font-size="14.00" fill="#666666">[datetime]</text>
<polygon fill="none" stroke="#000000" points="43,-132.5 43,-162.5 501,-162.5 501,-132.5 43,-132.5"/>
<text text-anchor="start" x="50" y="-143.9" font-family="Arial" font-size="14.00" fill="#000000">alias </text>
<text text-anchor="start" x="82.669" y="-143.9" font-family="Arial" font-size="14.00" fill="#666666">[varchar(255)]</text>
<polygon fill="none" stroke="#000000" points="43,-102.5 43,-132.5 501,-132.5 501,-102.5 43,-102.5"/>
<text text-anchor="start" x="50" y="-113.9" font-family="Arial" font-size="14.00" fill="#000000">savedAt </text>
<text text-anchor="start" x="104.4656" y="-113.9" font-family="Arial" font-size="14.00" fill="#666666">[datetime]</text>
<polygon fill="none" stroke="#000000" points="43,-72.5 43,-102.5 501,-102.5 501,-72.5 43,-72.5"/>
<text text-anchor="start" x="50" y="-83.9" font-family="Arial" font-size="14.00" fill="#000000">authorship </text>
<text text-anchor="start" x="119.244" y="-83.9" font-family="Arial" font-size="14.00" fill="#666666">[longtext]</text>
<polygon fill="none" stroke="#000000" points="43,-42.5 43,-72.5 501,-72.5 501,-42.5 43,-42.5"/>
<text text-anchor="start" x="50" y="-53.9" font-family="Arial" font-size="14.00" fill="#000000">deletedAt </text>
<text text-anchor="start" x="113.028" y="-53.9" font-family="Arial" font-size="14.00" fill="#666666">[datetime]</text>
</g>
<!-- Authors&#45;&gt;Notes -->
<g id="edge1" class="edge">
<title>Authors:noteId&#45;&gt;Notes:id</title>
<path fill="none" stroke="#000000" d="M380.8605,-756.6582C327.1679,-747.0886 353.8882,-658.1944 391,-607 421.1917,-565.3516 470.8083,-612.6484 501,-571 525.39,-537.3549 542.5556,-477.5 501,-477.5"/>
<polygon fill="#000000" stroke="#000000" points="381.0343,-756.6726 390.6277,-761.9846 386.0171,-757.0863 391,-757.5 391,-757.5 391,-757.5 386.0171,-757.0863 391.3723,-753.0154 381.0343,-756.6726 381.0343,-756.6726"/>
<text text-anchor="start" x="161.6055" y="-767.5" font-family="Arial" font-size="10.00" fill="#000000">FOREIGN KEY (noteId) REFERENCES Notes (id)</text>
</g>
<!-- Users -->
<g id="node3" class="node">
<title>Users</title>
<polygon fill="#efefef" stroke="transparent" points="605,-432.5 605,-467.5 763,-467.5 763,-432.5 605,-432.5"/>
<polygon fill="none" stroke="#000000" points="605,-432.5 605,-467.5 763,-467.5 763,-432.5 605,-432.5"/>
<text text-anchor="start" x="611.8768" y="-445.3" font-family="Arial Bold" font-size="18.00" fill="#000000">Users</text>
<text text-anchor="start" x="658.8694" y="-445.3" font-family="Arial" font-size="14.00" fill="#000000"> </text>
<text text-anchor="start" x="662.76" y="-445.3" font-family="Arial" font-size="14.00" fill="#666666">[BASE TABLE]</text>
<polygon fill="none" stroke="#000000" points="605,-402.5 605,-432.5 763,-432.5 763,-402.5 605,-402.5"/>
<text text-anchor="start" x="612" y="-413.9" font-family="Arial" font-size="14.00" fill="#000000">id </text>
<text text-anchor="start" x="626.7798" y="-413.9" font-family="Arial" font-size="14.00" fill="#666666">[char(36)]</text>
<polygon fill="none" stroke="#000000" points="605,-372.5 605,-402.5 763,-402.5 763,-372.5 605,-372.5"/>
<text text-anchor="start" x="612" y="-383.9" font-family="Arial" font-size="14.00" fill="#000000">profileid </text>
<text text-anchor="start" x="664.892" y="-383.9" font-family="Arial" font-size="14.00" fill="#666666">[varchar(255)]</text>
<polygon fill="none" stroke="#000000" points="605,-342.5 605,-372.5 763,-372.5 763,-342.5 605,-342.5"/>
<text text-anchor="start" x="612" y="-353.9" font-family="Arial" font-size="14.00" fill="#000000">profile </text>
<text text-anchor="start" x="654.0028" y="-353.9" font-family="Arial" font-size="14.00" fill="#666666">[text]</text>
<polygon fill="none" stroke="#000000" points="605,-312.5 605,-342.5 763,-342.5 763,-312.5 605,-312.5"/>
<text text-anchor="start" x="612" y="-323.9" font-family="Arial" font-size="14.00" fill="#000000">history </text>
<text text-anchor="start" x="657.1136" y="-323.9" font-family="Arial" font-size="14.00" fill="#666666">[longtext]</text>
<polygon fill="none" stroke="#000000" points="605,-282.5 605,-312.5 763,-312.5 763,-282.5 605,-282.5"/>
<text text-anchor="start" x="612" y="-293.9" font-family="Arial" font-size="14.00" fill="#000000">createdAt </text>
<text text-anchor="start" x="675.7994" y="-293.9" font-family="Arial" font-size="14.00" fill="#666666">[datetime]</text>
<polygon fill="none" stroke="#000000" points="605,-252.5 605,-282.5 763,-282.5 763,-252.5 605,-252.5"/>
<text text-anchor="start" x="612" y="-263.9" font-family="Arial" font-size="14.00" fill="#000000">updatedAt </text>
<text text-anchor="start" x="679.704" y="-263.9" font-family="Arial" font-size="14.00" fill="#666666">[datetime]</text>
<polygon fill="none" stroke="#000000" points="605,-222.5 605,-252.5 763,-252.5 763,-222.5 605,-222.5"/>
<text text-anchor="start" x="612" y="-233.9" font-family="Arial" font-size="14.00" fill="#000000">accessToken </text>
<text text-anchor="start" x="698.3562" y="-233.9" font-family="Arial" font-size="14.00" fill="#666666">[text]</text>
<polygon fill="none" stroke="#000000" points="605,-192.5 605,-222.5 763,-222.5 763,-192.5 605,-192.5"/>
<text text-anchor="start" x="612" y="-203.9" font-family="Arial" font-size="14.00" fill="#000000">refreshToken </text>
<text text-anchor="start" x="698.3506" y="-203.9" font-family="Arial" font-size="14.00" fill="#666666">[text]</text>
<polygon fill="none" stroke="#000000" points="605,-162.5 605,-192.5 763,-192.5 763,-162.5 605,-162.5"/>
<text text-anchor="start" x="612" y="-173.9" font-family="Arial" font-size="14.00" fill="#000000">email </text>
<text text-anchor="start" x="649.3296" y="-173.9" font-family="Arial" font-size="14.00" fill="#666666">[text]</text>
<polygon fill="none" stroke="#000000" points="605,-132.5 605,-162.5 763,-162.5 763,-132.5 605,-132.5"/>
<text text-anchor="start" x="612" y="-143.9" font-family="Arial" font-size="14.00" fill="#000000">password </text>
<text text-anchor="start" x="675.7882" y="-143.9" font-family="Arial" font-size="14.00" fill="#666666">[text]</text>
<polygon fill="none" stroke="#000000" points="605,-102.5 605,-132.5 763,-132.5 763,-102.5 605,-102.5"/>
<text text-anchor="start" x="612" y="-113.9" font-family="Arial" font-size="14.00" fill="#000000">deleteToken </text>
<text text-anchor="start" x="692.9186" y="-113.9" font-family="Arial" font-size="14.00" fill="#666666">[char(36)]</text>
</g>
<!-- Authors&#45;&gt;Users -->
<g id="edge2" class="edge">
<title>Authors:userId&#45;&gt;Users:id</title>
<path fill="none" stroke="#000000" d="M574.223,-726.8648C690.7432,-711.3679 469.6869,-417.5 605,-417.5"/>
<polygon fill="#000000" stroke="#000000" points="573.9808,-726.8798 563.7209,-723.0087 568.9904,-727.1899 564,-727.5 564,-727.5 564,-727.5 568.9904,-727.1899 564.2791,-731.9913 573.9808,-726.8798 573.9808,-726.8798"/>
<text text-anchor="start" x="570.6145" y="-737.5" font-family="Arial" font-size="10.00" fill="#000000">FOREIGN KEY (userId) REFERENCES Users (id)</text>
</g>
</g>
</svg>
