<?xml version="1.0" encoding="UTF-8" standalone="no"?>
<!DOCTYPE svg PUBLIC "-//W3C//DTD SVG 1.1//EN"
 "http://www.w3.org/Graphics/SVG/1.1/DTD/svg11.dtd">
<!-- Generated by graphviz version 2.40.1 (20161225.0304)
 -->
<!-- Title: Notes Pages: 1 -->
<svg width="773pt" height="1499pt"
 viewBox="0.00 0.00 773.00 1499.00" xmlns="http://www.w3.org/2000/svg" xmlns:xlink="http://www.w3.org/1999/xlink">
<g id="graph0" class="graph" transform="scale(1 1) rotate(0) translate(4 1495)">
<title>Notes</title>
<polygon fill="#ffffff" stroke="transparent" points="-4,4 -4,-1495 769,-1495 769,4 -4,4"/>
<!-- Notes -->
<g id="node1" class="node">
<title>Notes</title>
<polygon fill="#efefef" stroke="transparent" points="63,-982.5 63,-1017.5 521,-1017.5 521,-982.5 63,-982.5"/>
<polygon fill="none" stroke="#000000" points="63,-982.5 63,-1017.5 521,-1017.5 521,-982.5 63,-982.5"/>
<text text-anchor="start" x="219.8687" y="-995.3" font-family="Arial Bold" font-size="18.00" fill="#000000">Notes</text>
<text text-anchor="start" x="266.8775" y="-995.3" font-family="Arial" font-size="14.00" fill="#000000"> </text>
<text text-anchor="start" x="270.7681" y="-995.3" font-family="Arial" font-size="14.00" fill="#666666">[BASE TABLE]</text>
<polygon fill="none" stroke="#000000" points="63,-952.5 63,-982.5 521,-982.5 521,-952.5 63,-952.5"/>
<text text-anchor="start" x="70" y="-963.9" font-family="Arial" font-size="14.00" fill="#000000">id </text>
<text text-anchor="start" x="84.7798" y="-963.9" font-family="Arial" font-size="14.00" fill="#666666">[char(36)]</text>
<polygon fill="none" stroke="#000000" points="63,-922.5 63,-952.5 521,-952.5 521,-922.5 63,-922.5"/>
<text text-anchor="start" x="70" y="-933.9" font-family="Arial" font-size="14.00" fill="#000000">ownerId </text>
<text text-anchor="start" x="123.6788" y="-933.9" font-family="Arial" font-size="14.00" fill="#666666">[char(36)]</text>
<polygon fill="none" stroke="#000000" points="63,-892.5 63,-922.5 521,-922.5 521,-892.5 63,-892.5"/>
<text text-anchor="start" x="70" y="-903.9" font-family="Arial" font-size="14.00" fill="#000000">content </text>
<text text-anchor="start" x="119.8022" y="-903.9" font-family="Arial" font-size="14.00" fill="#666666">[longtext]</text>
<polygon fill="none" stroke="#000000" points="63,-862.5 63,-892.5 521,-892.5 521,-862.5 63,-862.5"/>
<text text-anchor="start" x="70" y="-873.9" font-family="Arial" font-size="14.00" fill="#000000">title </text>
<text text-anchor="start" x="95.6676" y="-873.9" font-family="Arial" font-size="14.00" fill="#666666">[text]</text>
<polygon fill="none" stroke="#000000" points="63,-832.5 63,-862.5 521,-862.5 521,-832.5 63,-832.5"/>
<text text-anchor="start" x="70" y="-843.9" font-family="Arial" font-size="14.00" fill="#000000">createdAt </text>
<text text-anchor="start" x="133.7994" y="-843.9" font-family="Arial" font-size="14.00" fill="#666666">[datetime]</text>
<polygon fill="none" stroke="#000000" points="63,-802.5 63,-832.5 521,-832.5 521,-802.5 63,-802.5"/>
<text text-anchor="start" x="70" y="-813.9" font-family="Arial" font-size="14.00" fill="#000000">updatedAt </text>
<text text-anchor="start" x="137.704" y="-813.9" font-family="Arial" font-size="14.00" fill="#666666">[datetime]</text>
<polygon fill="none" stroke="#000000" points="63,-772.5 63,-802.5 521,-802.5 521,-772.5 63,-772.5"/>
<text text-anchor="start" x="70" y="-783.9" font-family="Arial" font-size="14.00" fill="#000000">shortid </text>
<text text-anchor="start" x="115.8962" y="-783.9" font-family="Arial" font-size="14.00" fill="#666666">[varchar(255)]</text>
<polygon fill="none" stroke="#000000" points="63,-742.5 63,-772.5 521,-772.5 521,-742.5 63,-742.5"/>
<text text-anchor="start" x="69.6394" y="-753.9" font-family="Arial" font-size="14.00" fill="#000000">permission </text>
<text text-anchor="start" x="141.1948" y="-753.9" font-family="Arial" font-size="14.00" fill="#666666">[enum(&#39;freely&#39;,&#39;editable&#39;,&#39;limited&#39;,&#39;locked&#39;,&#39;protected&#39;,&#39;private&#39;)]</text>
<polygon fill="none" stroke="#000000" points="63,-712.5 63,-742.5 521,-742.5 521,-712.5 63,-712.5"/>
<text text-anchor="start" x="70" y="-723.9" font-family="Arial" font-size="14.00" fill="#000000">viewcount </text>
<text text-anchor="start" x="136.1248" y="-723.9" font-family="Arial" font-size="14.00" fill="#666666">[int(11)]</text>
<polygon fill="none" stroke="#000000" points="63,-682.5 63,-712.5 521,-712.5 521,-682.5 63,-682.5"/>
<text text-anchor="start" x="70" y="-693.9" font-family="Arial" font-size="14.00" fill="#000000">lastchangeuserId </text>
<text text-anchor="start" x="180.4824" y="-693.9" font-family="Arial" font-size="14.00" fill="#666666">[char(36)]</text>
<polygon fill="none" stroke="#000000" points="63,-652.5 63,-682.5 521,-682.5 521,-652.5 63,-652.5"/>
<text text-anchor="start" x="70" y="-663.9" font-family="Arial" font-size="14.00" fill="#000000">lastchangeAt </text>
<text text-anchor="start" x="154.8106" y="-663.9" font-family="Arial" font-size="14.00" fill="#666666">[datetime]</text>
<polygon fill="none" stroke="#000000" points="63,-622.5 63,-652.5 521,-652.5 521,-622.5 63,-622.5"/>
<text text-anchor="start" x="70" y="-633.9" font-family="Arial" font-size="14.00" fill="#000000">alias </text>
<text text-anchor="start" x="102.669" y="-633.9" font-family="Arial" font-size="14.00" fill="#666666">[varchar(255)]</text>
<polygon fill="none" stroke="#000000" points="63,-592.5 63,-622.5 521,-622.5 521,-592.5 63,-592.5"/>
<text text-anchor="start" x="70" y="-603.9" font-family="Arial" font-size="14.00" fill="#000000">savedAt </text>
<text text-anchor="start" x="124.4656" y="-603.9" font-family="Arial" font-size="14.00" fill="#666666">[datetime]</text>
<polygon fill="none" stroke="#000000" points="63,-562.5 63,-592.5 521,-592.5 521,-562.5 63,-562.5"/>
<text text-anchor="start" x="70" y="-573.9" font-family="Arial" font-size="14.00" fill="#000000">authorship </text>
<text text-anchor="start" x="139.244" y="-573.9" font-family="Arial" font-size="14.00" fill="#666666">[longtext]</text>
<polygon fill="none" stroke="#000000" points="63,-532.5 63,-562.5 521,-562.5 521,-532.5 63,-532.5"/>
<text text-anchor="start" x="70" y="-543.9" font-family="Arial" font-size="14.00" fill="#000000">deletedAt </text>
<text text-anchor="start" x="133.028" y="-543.9" font-family="Arial" font-size="14.00" fill="#666666">[datetime]</text>
<polygon fill="none" stroke="#000000" stroke-width="3" points="61.5,-531.5 61.5,-1019.5 522.5,-1019.5 522.5,-531.5 61.5,-531.5"/>
</g>
<!-- Users -->
<g id="node4" class="node">
<title>Users</title>
<polygon fill="#efefef" stroke="transparent" points="213,-372.5 213,-407.5 371,-407.5 371,-372.5 213,-372.5"/>
<polygon fill="none" stroke="#000000" points="213,-372.5 213,-407.5 371,-407.5 371,-372.5 213,-372.5"/>
<text text-anchor="start" x="219.8768" y="-385.3" font-family="Arial Bold" font-size="18.00" fill="#000000">Users</text>
<text text-anchor="start" x="266.8694" y="-385.3" font-family="Arial" font-size="14.00" fill="#000000"> </text>
<text text-anchor="start" x="270.76" y="-385.3" font-family="Arial" font-size="14.00" fill="#666666">[BASE TABLE]</text>
<polygon fill="none" stroke="#000000" points="213,-342.5 213,-372.5 371,-372.5 371,-342.5 213,-342.5"/>
<text text-anchor="start" x="220" y="-353.9" font-family="Arial" font-size="14.00" fill="#000000">id </text>
<text text-anchor="start" x="234.7798" y="-353.9" font-family="Arial" font-size="14.00" fill="#666666">[char(36)]</text>
<polygon fill="none" stroke="#000000" points="213,-312.5 213,-342.5 371,-342.5 371,-312.5 213,-312.5"/>
<text text-anchor="start" x="220" y="-323.9" font-family="Arial" font-size="14.00" fill="#000000">profileid </text>
<text text-anchor="start" x="272.892" y="-323.9" font-family="Arial" font-size="14.00" fill="#666666">[varchar(255)]</text>
<polygon fill="none" stroke="#000000" points="213,-282.5 213,-312.5 371,-312.5 371,-282.5 213,-282.5"/>
<text text-anchor="start" x="220" y="-293.9" font-family="Arial" font-size="14.00" fill="#000000">profile </text>
<text text-anchor="start" x="262.0028" y="-293.9" font-family="Arial" font-size="14.00" fill="#666666">[text]</text>
<polygon fill="none" stroke="#000000" points="213,-252.5 213,-282.5 371,-282.5 371,-252.5 213,-252.5"/>
<text text-anchor="start" x="220" y="-263.9" font-family="Arial" font-size="14.00" fill="#000000">history </text>
<text text-anchor="start" x="265.1136" y="-263.9" font-family="Arial" font-size="14.00" fill="#666666">[longtext]</text>
<polygon fill="none" stroke="#000000" points="213,-222.5 213,-252.5 371,-252.5 371,-222.5 213,-222.5"/>
<text text-anchor="start" x="220" y="-233.9" font-family="Arial" font-size="14.00" fill="#000000">createdAt </text>
<text text-anchor="start" x="283.7994" y="-233.9" font-family="Arial" font-size="14.00" fill="#666666">[datetime]</text>
<polygon fill="none" stroke="#000000" points="213,-192.5 213,-222.5 371,-222.5 371,-192.5 213,-192.5"/>
<text text-anchor="start" x="220" y="-203.9" font-family="Arial" font-size="14.00" fill="#000000">updatedAt </text>
<text text-anchor="start" x="287.704" y="-203.9" font-family="Arial" font-size="14.00" fill="#666666">[datetime]</text>
<polygon fill="none" stroke="#000000" points="213,-162.5 213,-192.5 371,-192.5 371,-162.5 213,-162.5"/>
<text text-anchor="start" x="220" y="-173.9" font-family="Arial" font-size="14.00" fill="#000000">accessToken </text>
<text text-anchor="start" x="306.3562" y="-173.9" font-family="Arial" font-size="14.00" fill="#666666">[text]</text>
<polygon fill="none" stroke="#000000" points="213,-132.5 213,-162.5 371,-162.5 371,-132.5 213,-132.5"/>
<text text-anchor="start" x="220" y="-143.9" font-family="Arial" font-size="14.00" fill="#000000">refreshToken </text>
<text text-anchor="start" x="306.3506" y="-143.9" font-family="Arial" font-size="14.00" fill="#666666">[text]</text>
<polygon fill="none" stroke="#000000" points="213,-102.5 213,-132.5 371,-132.5 371,-102.5 213,-102.5"/>
<text text-anchor="start" x="220" y="-113.9" font-family="Arial" font-size="14.00" fill="#000000">email </text>
<text text-anchor="start" x="257.3296" y="-113.9" font-family="Arial" font-size="14.00" fill="#666666">[text]</text>
<polygon fill="none" stroke="#000000" points="213,-72.5 213,-102.5 371,-102.5 371,-72.5 213,-72.5"/>
<text text-anchor="start" x="220" y="-83.9" font-family="Arial" font-size="14.00" fill="#000000">password </text>
<text text-anchor="start" x="283.7882" y="-83.9" font-family="Arial" font-size="14.00" fill="#666666">[text]</text>
<polygon fill="none" stroke="#000000" points="213,-42.5 213,-72.5 371,-72.5 371,-42.5 213,-42.5"/>
<text text-anchor="start" x="220" y="-53.9" font-family="Arial" font-size="14.00" fill="#000000">deleteToken </text>
<text text-anchor="start" x="300.9186" y="-53.9" font-family="Arial" font-size="14.00" fill="#666666">[char(36)]</text>
</g>
<!-- Notes&#45;&gt;Users -->
<g id="edge3" class="edge">
<title>Notes:ownerId&#45;&gt;Users:id</title>
<path fill="none" stroke="#000000" d="M530.9783,-936.1944C617.0227,-912.5563 561.2053,-574.8264 521,-487 484.3399,-406.918 459.0743,-357.5 371,-357.5"/>
<polygon fill="#000000" stroke="#000000" points="530.9155,-936.2025 520.4161,-933.038 525.9577,-936.8513 521,-937.5 521,-937.5 521,-937.5 525.9577,-936.8513 521.5839,-941.962 530.9155,-936.2025 530.9155,-936.2025"/>
<text text-anchor="start" x="527.7255" y="-947.5" font-family="Arial" font-size="10.00" fill="#000000">FOREIGN KEY (ownerId) REFERENCES Users (id)</text>
</g>
<!-- Authors -->
<g id="node2" class="node">
<title>Authors</title>
<polygon fill="#efefef" stroke="transparent" points="63,-1367.5 63,-1402.5 236,-1402.5 236,-1367.5 63,-1367.5"/>
<polygon fill="none" stroke="#000000" points="63,-1367.5 63,-1402.5 236,-1402.5 236,-1367.5 63,-1367.5"/>
<text text-anchor="start" x="69.8645" y="-1380.3" font-family="Arial Bold" font-size="18.00" fill="#000000">Authors</text>
<text text-anchor="start" x="131.8817" y="-1380.3" font-family="Arial" font-size="14.00" fill="#000000"> </text>
<text text-anchor="start" x="135.7723" y="-1380.3" font-family="Arial" font-size="14.00" fill="#666666">[BASE TABLE]</text>
<polygon fill="none" stroke="#000000" points="63,-1337.5 63,-1367.5 236,-1367.5 236,-1337.5 63,-1337.5"/>
<text text-anchor="start" x="70" y="-1348.9" font-family="Arial" font-size="14.00" fill="#000000">id </text>
<text text-anchor="start" x="84.7798" y="-1348.9" font-family="Arial" font-size="14.00" fill="#666666">[int(11)]</text>
<polygon fill="none" stroke="#000000" points="63,-1307.5 63,-1337.5 236,-1337.5 236,-1307.5 63,-1307.5"/>
<text text-anchor="start" x="70" y="-1318.9" font-family="Arial" font-size="14.00" fill="#000000">color </text>
<text text-anchor="start" x="104.223" y="-1318.9" font-family="Arial" font-size="14.00" fill="#666666">[varchar(255)]</text>
<polygon fill="none" stroke="#000000" points="63,-1277.5 63,-1307.5 236,-1307.5 236,-1277.5 63,-1277.5"/>
<text text-anchor="start" x="70" y="-1288.9" font-family="Arial" font-size="14.00" fill="#000000">noteId </text>
<text text-anchor="start" x="112.8022" y="-1288.9" font-family="Arial" font-size="14.00" fill="#666666">[char(36)]</text>
<polygon fill="none" stroke="#000000" points="63,-1247.5 63,-1277.5 236,-1277.5 236,-1247.5 63,-1247.5"/>
<text text-anchor="start" x="70" y="-1258.9" font-family="Arial" font-size="14.00" fill="#000000">userId </text>
<text text-anchor="start" x="112.7896" y="-1258.9" font-family="Arial" font-size="14.00" fill="#666666">[char(36)]</text>
<polygon fill="none" stroke="#000000" points="63,-1217.5 63,-1247.5 236,-1247.5 236,-1217.5 63,-1217.5"/>
<text text-anchor="start" x="70" y="-1228.9" font-family="Arial" font-size="14.00" fill="#000000">createdAt </text>
<text text-anchor="start" x="133.7994" y="-1228.9" font-family="Arial" font-size="14.00" fill="#666666">[datetime]</text>
<polygon fill="none" stroke="#000000" points="63,-1187.5 63,-1217.5 236,-1217.5 236,-1187.5 63,-1187.5"/>
<text text-anchor="start" x="70" y="-1198.9" font-family="Arial" font-size="14.00" fill="#000000">updatedAt </text>
<text text-anchor="start" x="137.704" y="-1198.9" font-family="Arial" font-size="14.00" fill="#666666">[datetime]</text>
</g>
<!-- Authors&#45;&gt;Notes -->
<g id="edge1" class="edge">
<title>Authors:noteId&#45;&gt;Notes:id</title>
<path fill="none" stroke="#000000" d="M246.2326,-1291.6362C298.0991,-1282.1756 269.1872,-1197.1833 236,-1145 190.4395,-1073.3611 108.5605,-1135.6389 63,-1064 39.984,-1027.8099 20.1111,-967.5 63,-967.5"/>
<polygon fill="#000000" stroke="#000000" points="245.9646,-1291.6588 235.6214,-1288.0159 240.9823,-1292.0794 236,-1292.5 236,-1292.5 236,-1292.5 240.9823,-1292.0794 236.3786,-1296.9841 245.9646,-1291.6588 245.9646,-1291.6588"/>
<text text-anchor="start" x="6.6055" y="-1302.5" font-family="Arial" font-size="10.00" fill="#000000">FOREIGN KEY (noteId) REFERENCES Notes (id)</text>
</g>
<!-- Revisions -->
<g id="node3" class="node">
<title>Revisions</title>
<polygon fill="#efefef" stroke="transparent" points="340,-1412.5 340,-1447.5 529,-1447.5 529,-1412.5 340,-1412.5"/>
<polygon fill="none" stroke="#000000" points="340,-1412.5 340,-1447.5 529,-1447.5 529,-1412.5 340,-1412.5"/>
<text text-anchor="start" x="346.8725" y="-1425.3" font-family="Arial Bold" font-size="18.00" fill="#000000">Revisions</text>
<text text-anchor="start" x="424.8737" y="-1425.3" font-family="Arial" font-size="14.00" fill="#000000"> </text>
<text text-anchor="start" x="428.7643" y="-1425.3" font-family="Arial" font-size="14.00" fill="#666666">[BASE TABLE]</text>
<polygon fill="none" stroke="#000000" points="340,-1382.5 340,-1412.5 529,-1412.5 529,-1382.5 340,-1382.5"/>
<text text-anchor="start" x="347" y="-1393.9" font-family="Arial" font-size="14.00" fill="#000000">id </text>
<text text-anchor="start" x="361.7798" y="-1393.9" font-family="Arial" font-size="14.00" fill="#666666">[char(36)]</text>
<polygon fill="none" stroke="#000000" points="340,-1352.5 340,-1382.5 529,-1382.5 529,-1352.5 340,-1352.5"/>
<text text-anchor="start" x="347" y="-1363.9" font-family="Arial" font-size="14.00" fill="#000000">noteId </text>
<text text-anchor="start" x="389.8022" y="-1363.9" font-family="Arial" font-size="14.00" fill="#666666">[char(36)]</text>
<polygon fill="none" stroke="#000000" points="340,-1322.5 340,-1352.5 529,-1352.5 529,-1322.5 340,-1322.5"/>
<text text-anchor="start" x="347" y="-1333.9" font-family="Arial" font-size="14.00" fill="#000000">patch </text>
<text text-anchor="start" x="385.129" y="-1333.9" font-family="Arial" font-size="14.00" fill="#666666">[longtext]</text>
<polygon fill="none" stroke="#000000" points="340,-1292.5 340,-1322.5 529,-1322.5 529,-1292.5 340,-1292.5"/>
<text text-anchor="start" x="347" y="-1303.9" font-family="Arial" font-size="14.00" fill="#000000">lastContent </text>
<text text-anchor="start" x="421.6886" y="-1303.9" font-family="Arial" font-size="14.00" fill="#666666">[longtext]</text>
<polygon fill="none" stroke="#000000" points="340,-1262.5 340,-1292.5 529,-1292.5 529,-1262.5 340,-1262.5"/>
<text text-anchor="start" x="347" y="-1273.9" font-family="Arial" font-size="14.00" fill="#000000">content </text>
<text text-anchor="start" x="396.8022" y="-1273.9" font-family="Arial" font-size="14.00" fill="#666666">[longtext]</text>
<polygon fill="none" stroke="#000000" points="340,-1232.5 340,-1262.5 529,-1262.5 529,-1232.5 340,-1232.5"/>
<text text-anchor="start" x="347" y="-1243.9" font-family="Arial" font-size="14.00" fill="#000000">length </text>
<text text-anchor="start" x="389.0182" y="-1243.9" font-family="Arial" font-size="14.00" fill="#666666">[int(11)]</text>
<polygon fill="none" stroke="#000000" points="340,-1202.5 340,-1232.5 529,-1232.5 529,-1202.5 340,-1202.5"/>
<text text-anchor="start" x="347" y="-1213.9" font-family="Arial" font-size="14.00" fill="#000000">createdAt </text>
<text text-anchor="start" x="410.7994" y="-1213.9" font-family="Arial" font-size="14.00" fill="#666666">[datetime]</text>
<polygon fill="none" stroke="#000000" points="340,-1172.5 340,-1202.5 529,-1202.5 529,-1172.5 340,-1172.5"/>
<text text-anchor="start" x="347" y="-1183.9" font-family="Arial" font-size="14.00" fill="#000000">updatedAt </text>
<text text-anchor="start" x="414.704" y="-1183.9" font-family="Arial" font-size="14.00" fill="#666666">[datetime]</text>
<polygon fill="none" stroke="#000000" points="340,-1142.5 340,-1172.5 529,-1172.5 529,-1142.5 340,-1142.5"/>
<text text-anchor="start" x="347" y="-1153.9" font-family="Arial" font-size="14.00" fill="#000000">authorship </text>
<text text-anchor="start" x="416.244" y="-1153.9" font-family="Arial" font-size="14.00" fill="#666666">[longtext]</text>
</g>
<!-- Revisions&#45;&gt;Notes -->
<g id="edge2" class="edge">
<title>Revisions:noteId&#45;&gt;Notes:id</title>
<path fill="none" stroke="#000000" d="M330.0808,-1365.1516C283.2459,-1341.3155 304.5718,-1143.1687 340,-1100 392.0336,-1036.598 468.9664,-1127.402 521,-1064 548.2087,-1030.8467 563.8889,-967.5 521,-967.5"/>
<polygon fill="#000000" stroke="#000000" points="330.269,-1365.1961 338.9632,-1371.879 335.1345,-1366.348 340,-1367.5 340,-1367.5 340,-1367.5 335.1345,-1366.348 341.0368,-1363.121 330.269,-1365.1961 330.269,-1365.1961"/>
<text text-anchor="start" x="287.6055" y="-1351.5" font-family="Arial" font-size="10.00" fill="#000000">FOREIGN KEY (noteId) REFERENCES Notes (id)</text>
</g>
</g>
</svg>
