<?xml version="1.0" encoding="UTF-8" standalone="no"?>
<!DOCTYPE svg PUBLIC "-//W3C//DTD SVG 1.1//EN"
 "http://www.w3.org/Graphics/SVG/1.1/DTD/svg11.dtd">
<!-- Generated by graphviz version 2.40.1 (20161225.0304)
 -->
<!-- Title: Revisions Pages: 1 -->
<svg width="610pt" height="1012pt"
 viewBox="0.00 0.00 610.00 1012.00" xmlns="http://www.w3.org/2000/svg" xmlns:xlink="http://www.w3.org/1999/xlink">
<g id="graph0" class="graph" transform="scale(1 1) rotate(0) translate(4 1008)">
<title>Revisions</title>
<polygon fill="#ffffff" stroke="transparent" points="-4,4 -4,-1008 606,-1008 606,4 -4,4"/>
<!-- Revisions -->
<g id="node1" class="node">
<title>Revisions</title>
<polygon fill="#efefef" stroke="transparent" points="177,-922.5 177,-957.5 366,-957.5 366,-922.5 177,-922.5"/>
<polygon fill="none" stroke="#000000" points="177,-922.5 177,-957.5 366,-957.5 366,-922.5 177,-922.5"/>
<text text-anchor="start" x="183.8725" y="-935.3" font-family="Arial Bold" font-size="18.00" fill="#000000">Revisions</text>
<text text-anchor="start" x="261.8737" y="-935.3" font-family="Arial" font-size="14.00" fill="#000000"> </text>
<text text-anchor="start" x="265.7643" y="-935.3" font-family="Arial" font-size="14.00" fill="#666666">[BASE TABLE]</text>
<polygon fill="none" stroke="#000000" points="177,-892.5 177,-922.5 366,-922.5 366,-892.5 177,-892.5"/>
<text text-anchor="start" x="184" y="-903.9" font-family="Arial" font-size="14.00" fill="#000000">id </text>
<text text-anchor="start" x="198.7798" y="-903.9" font-family="Arial" font-size="14.00" fill="#666666">[char(36)]</text>
<polygon fill="none" stroke="#000000" points="177,-862.5 177,-892.5 366,-892.5 366,-862.5 177,-862.5"/>
<text text-anchor="start" x="184" y="-873.9" font-family="Arial" font-size="14.00" fill="#000000">noteId </text>
<text text-anchor="start" x="226.8022" y="-873.9" font-family="Arial" font-size="14.00" fill="#666666">[char(36)]</text>
<polygon fill="none" stroke="#000000" points="177,-832.5 177,-862.5 366,-862.5 366,-832.5 177,-832.5"/>
<text text-anchor="start" x="184" y="-843.9" font-family="Arial" font-size="14.00" fill="#000000">patch </text>
<text text-anchor="start" x="222.129" y="-843.9" font-family="Arial" font-size="14.00" fill="#666666">[longtext]</text>
<polygon fill="none" stroke="#000000" points="177,-802.5 177,-832.5 366,-832.5 366,-802.5 177,-802.5"/>
<text text-anchor="start" x="184" y="-813.9" font-family="Arial" font-size="14.00" fill="#000000">lastContent </text>
<text text-anchor="start" x="258.6886" y="-813.9" font-family="Arial" font-size="14.00" fill="#666666">[longtext]</text>
<polygon fill="none" stroke="#000000" points="177,-772.5 177,-802.5 366,-802.5 366,-772.5 177,-772.5"/>
<text text-anchor="start" x="184" y="-783.9" font-family="Arial" font-size="14.00" fill="#000000">content </text>
<text text-anchor="start" x="233.8022" y="-783.9" font-family="Arial" font-size="14.00" fill="#666666">[longtext]</text>
<polygon fill="none" stroke="#000000" points="177,-742.5 177,-772.5 366,-772.5 366,-742.5 177,-742.5"/>
<text text-anchor="start" x="184" y="-753.9" font-family="Arial" font-size="14.00" fill="#000000">length </text>
<text text-anchor="start" x="226.0182" y="-753.9" font-family="Arial" font-size="14.00" fill="#666666">[int(11)]</text>
<polygon fill="none" stroke="#000000" points="177,-712.5 177,-742.5 366,-742.5 366,-712.5 177,-712.5"/>
<text text-anchor="start" x="184" y="-723.9" font-family="Arial" font-size="14.00" fill="#000000">createdAt </text>
<text text-anchor="start" x="247.7994" y="-723.9" font-family="Arial" font-size="14.00" fill="#666666">[datetime]</text>
<polygon fill="none" stroke="#000000" points="177,-682.5 177,-712.5 366,-712.5 366,-682.5 177,-682.5"/>
<text text-anchor="start" x="184" y="-693.9" font-family="Arial" font-size="14.00" fill="#000000">updatedAt </text>
<text text-anchor="start" x="251.704" y="-693.9" font-family="Arial" font-size="14.00" fill="#666666">[datetime]</text>
<polygon fill="none" stroke="#000000" points="177,-652.5 177,-682.5 366,-682.5 366,-652.5 177,-652.5"/>
<text text-anchor="start" x="184" y="-663.9" font-family="Arial" font-size="14.00" fill="#000000">authorship </text>
<text text-anchor="start" x="253.244" y="-663.9" font-family="Arial" font-size="14.00" fill="#666666">[longtext]</text>
<polygon fill="none" stroke="#000000" stroke-width="3" points="175,-651.5 175,-959.5 367,-959.5 367,-651.5 175,-651.5"/>
</g>
<!-- Notes -->
<g id="node2" class="node">
<title>Notes</title>
<polygon fill="#efefef" stroke="transparent" points="43,-492.5 43,-527.5 501,-527.5 501,-492.5 43,-492.5"/>
<polygon fill="none" stroke="#000000" points="43,-492.5 43,-527.5 501,-527.5 501,-492.5 43,-492.5"/>
<text text-anchor="start" x="199.8687" y="-505.3" font-family="Arial Bold" font-size="18.00" fill="#000000">Notes</text>
<text text-anchor="start" x="246.8775" y="-505.3" font-family="Arial" font-size="14.00" fill="#000000"> </text>
<text text-anchor="start" x="250.7681" y="-505.3" font-family="Arial" font-size="14.00" fill="#666666">[BASE TABLE]</text>
<polygon fill="none" stroke="#000000" points="43,-462.5 43,-492.5 501,-492.5 501,-462.5 43,-462.5"/>
<text text-anchor="start" x="50" y="-473.9" font-family="Arial" font-size="14.00" fill="#000000">id </text>
<text text-anchor="start" x="64.7798" y="-473.9" font-family="Arial" font-size="14.00" fill="#666666">[char(36)]</text>
<polygon fill="none" stroke="#000000" points="43,-432.5 43,-462.5 501,-462.5 501,-432.5 43,-432.5"/>
<text text-anchor="start" x="50" y="-443.9" font-family="Arial" font-size="14.00" fill="#000000">ownerId </text>
<text text-anchor="start" x="103.6788" y="-443.9" font-family="Arial" font-size="14.00" fill="#666666">[char(36)]</text>
<polygon fill="none" stroke="#000000" points="43,-402.5 43,-432.5 501,-432.5 501,-402.5 43,-402.5"/>
<text text-anchor="start" x="50" y="-413.9" font-family="Arial" font-size="14.00" fill="#000000">content </text>
<text text-anchor="start" x="99.8022" y="-413.9" font-family="Arial" font-size="14.00" fill="#666666">[longtext]</text>
<polygon fill="none" stroke="#000000" points="43,-372.5 43,-402.5 501,-402.5 501,-372.5 43,-372.5"/>
<text text-anchor="start" x="50" y="-383.9" font-family="Arial" font-size="14.00" fill="#000000">title </text>
<text text-anchor="start" x="75.6676" y="-383.9" font-family="Arial" font-size="14.00" fill="#666666">[text]</text>
<polygon fill="none" stroke="#000000" points="43,-342.5 43,-372.5 501,-372.5 501,-342.5 43,-342.5"/>
<text text-anchor="start" x="50" y="-353.9" font-family="Arial" font-size="14.00" fill="#000000">createdAt </text>
<text text-anchor="start" x="113.7994" y="-353.9" font-family="Arial" font-size="14.00" fill="#666666">[datetime]</text>
<polygon fill="none" stroke="#000000" points="43,-312.5 43,-342.5 501,-342.5 501,-312.5 43,-312.5"/>
<text text-anchor="start" x="50" y="-323.9" font-family="Arial" font-size="14.00" fill="#000000">updatedAt </text>
<text text-anchor="start" x="117.704" y="-323.9" font-family="Arial" font-size="14.00" fill="#666666">[datetime]</text>
<polygon fill="none" stroke="#000000" points="43,-282.5 43,-312.5 501,-312.5 501,-282.5 43,-282.5"/>
<text text-anchor="start" x="50" y="-293.9" font-family="Arial" font-size="14.00" fill="#000000">shortid </text>
<text text-anchor="start" x="95.8962" y="-293.9" font-family="Arial" font-size="14.00" fill="#666666">[varchar(255)]</text>
<polygon fill="none" stroke="#000000" points="43,-252.5 43,-282.5 501,-282.5 501,-252.5 43,-252.5"/>
<text text-anchor="start" x="49.6394" y="-263.9" font-family="Arial" font-size="14.00" fill="#000000">permission </text>
<text text-anchor="start" x="121.1948" y="-263.9" font-family="Arial" font-size="14.00" fill="#666666">[enum(&#39;freely&#39;,&#39;editable&#39;,&#39;limited&#39;,&#39;locked&#39;,&#39;protected&#39;,&#39;private&#39;)]</text>
<polygon fill="none" stroke="#000000" points="43,-222.5 43,-252.5 501,-252.5 501,-222.5 43,-222.5"/>
<text text-anchor="start" x="50" y="-233.9" font-family="Arial" font-size="14.00" fill="#000000">viewcount </text>
<text text-anchor="start" x="116.1248" y="-233.9" font-family="Arial" font-size="14.00" fill="#666666">[int(11)]</text>
<polygon fill="none" stroke="#000000" points="43,-192.5 43,-222.5 501,-222.5 501,-192.5 43,-192.5"/>
<text text-anchor="start" x="50" y="-203.9" font-family="Arial" font-size="14.00" fill="#000000">lastchangeuserId </text>
<text text-anchor="start" x="160.4824" y="-203.9" font-family="Arial" font-size="14.00" fill="#666666">[char(36)]</text>
<polygon fill="none" stroke="#000000" points="43,-162.5 43,-192.5 501,-192.5 501,-162.5 43,-162.5"/>
<text text-anchor="start" x="50" y="-173.9" font-family="Arial" font-size="14.00" fill="#000000">lastchangeAt </text>
<text text-anchor="start" x="134.8106" y="-173.9" font-family="Arial" font-size="14.00" fill="#666666">[datetime]</text>
<polygon fill="none" stroke="#000000" points="43,-132.5 43,-162.5 501,-162.5 501,-132.5 43,-132.5"/>
<text text-anchor="start" x="50" y="-143.9" font-family="Arial" font-size="14.00" fill="#000000">alias </text>
<text text-anchor="start" x="82.669" y="-143.9" font-family="Arial" font-size="14.00" fill="#666666">[varchar(255)]</text>
<polygon fill="none" stroke="#000000" points="43,-102.5 43,-132.5 501,-132.5 501,-102.5 43,-102.5"/>
<text text-anchor="start" x="50" y="-113.9" font-family="Arial" font-size="14.00" fill="#000000">savedAt </text>
<text text-anchor="start" x="104.4656" y="-113.9" font-family="Arial" font-size="14.00" fill="#666666">[datetime]</text>
<polygon fill="none" stroke="#000000" points="43,-72.5 43,-102.5 501,-102.5 501,-72.5 43,-72.5"/>
<text text-anchor="start" x="50" y="-83.9" font-family="Arial" font-size="14.00" fill="#000000">authorship </text>
<text text-anchor="start" x="119.244" y="-83.9" font-family="Arial" font-size="14.00" fill="#666666">[longtext]</text>
<polygon fill="none" stroke="#000000" points="43,-42.5 43,-72.5 501,-72.5 501,-42.5 43,-42.5"/>
<text text-anchor="start" x="50" y="-53.9" font-family="Arial" font-size="14.00" fill="#000000">deletedAt </text>
<text text-anchor="start" x="113.028" y="-53.9" font-family="Arial" font-size="14.00" fill="#666666">[datetime]</text>
</g>
<!-- Revisions&#45;&gt;Notes -->
<g id="edge1" class="edge">
<title>Revisions:noteId&#45;&gt;Notes:id</title>
<path fill="none" stroke="#000000" d="M376.1567,-877.041C483.8406,-866.9784 443.815,-693.9697 366,-607 269.6852,-499.354 139.3148,-678.646 43,-571 15.291,-540.0311 1.4444,-477.5 43,-477.5"/>
<polygon fill="#000000" stroke="#000000" points="375.9898,-877.0485 365.7968,-873.0046 370.9949,-877.2742 366,-877.5 366,-877.5 366,-877.5 370.9949,-877.2742 366.2032,-881.9954 375.9898,-877.0485 375.9898,-877.0485"/>
<text text-anchor="start" x="372.6055" y="-887.5" font-family="Arial" font-size="10.00" fill="#000000">FOREIGN KEY (noteId) REFERENCES Notes (id)</text>
</g>
</g>
</svg>
