<?xml version="1.0" encoding="UTF-8" standalone="no"?>
<!DOCTYPE svg PUBLIC "-//W3C//DTD SVG 1.1//EN"
 "http://www.w3.org/Graphics/SVG/1.1/DTD/svg11.dtd">
<!-- Generated by graphviz version 2.40.1 (20161225.0304)
 -->
<!-- Title: Redmine Database Schema Pages: 1 -->
<svg width="1251pt" height="1493pt"
 viewBox="0.00 0.00 1250.50 1493.00" xmlns="http://www.w3.org/2000/svg" xmlns:xlink="http://www.w3.org/1999/xlink">
<g id="graph0" class="graph" transform="scale(1 1) rotate(0) translate(4 1489)">
<title>Redmine Database Schema</title>
<polygon fill="#ffffff" stroke="transparent" points="-4,4 -4,-1489 1246.5,-1489 1246.5,4 -4,4"/>
<!-- Authors -->
<g id="node1" class="node">
<title>Authors</title>
<polygon fill="#efefef" stroke="transparent" points="477,-1361.5 477,-1396.5 650,-1396.5 650,-1361.5 477,-1361.5"/>
<polygon fill="none" stroke="#000000" points="477,-1361.5 477,-1396.5 650,-1396.5 650,-1361.5 477,-1361.5"/>
<text text-anchor="start" x="483.8645" y="-1374.3" font-family="Arial Bold" font-size="18.00" fill="#000000">Authors</text>
<text text-anchor="start" x="545.8817" y="-1374.3" font-family="Arial" font-size="14.00" fill="#000000"> </text>
<text text-anchor="start" x="549.7723" y="-1374.3" font-family="Arial" font-size="14.00" fill="#666666">[BASE TABLE]</text>
<polygon fill="none" stroke="#000000" points="477,-1331.5 477,-1361.5 650,-1361.5 650,-1331.5 477,-1331.5"/>
<text text-anchor="start" x="484" y="-1342.9" font-family="Arial" font-size="14.00" fill="#000000">id </text>
<text text-anchor="start" x="498.7798" y="-1342.9" font-family="Arial" font-size="14.00" fill="#666666">[int(11)]</text>
<polygon fill="none" stroke="#000000" points="477,-1301.5 477,-1331.5 650,-1331.5 650,-1301.5 477,-1301.5"/>
<text text-anchor="start" x="484" y="-1312.9" font-family="Arial" font-size="14.00" fill="#000000">color </text>
<text text-anchor="start" x="518.223" y="-1312.9" font-family="Arial" font-size="14.00" fill="#666666">[varchar(255)]</text>
<polygon fill="none" stroke="#000000" points="477,-1271.5 477,-1301.5 650,-1301.5 650,-1271.5 477,-1271.5"/>
<text text-anchor="start" x="484" y="-1282.9" font-family="Arial" font-size="14.00" fill="#000000">noteId </text>
<text text-anchor="start" x="526.8022" y="-1282.9" font-family="Arial" font-size="14.00" fill="#666666">[char(36)]</text>
<polygon fill="none" stroke="#000000" points="477,-1241.5 477,-1271.5 650,-1271.5 650,-1241.5 477,-1241.5"/>
<text text-anchor="start" x="484" y="-1252.9" font-family="Arial" font-size="14.00" fill="#000000">userId </text>
<text text-anchor="start" x="526.7896" y="-1252.9" font-family="Arial" font-size="14.00" fill="#666666">[char(36)]</text>
<polygon fill="none" stroke="#000000" points="477,-1211.5 477,-1241.5 650,-1241.5 650,-1211.5 477,-1211.5"/>
<text text-anchor="start" x="484" y="-1222.9" font-family="Arial" font-size="14.00" fill="#000000">createdAt </text>
<text text-anchor="start" x="547.7994" y="-1222.9" font-family="Arial" font-size="14.00" fill="#666666">[datetime]</text>
<polygon fill="none" stroke="#000000" points="477,-1181.5 477,-1211.5 650,-1211.5 650,-1181.5 477,-1181.5"/>
<text text-anchor="start" x="484" y="-1192.9" font-family="Arial" font-size="14.00" fill="#000000">updatedAt </text>
<text text-anchor="start" x="551.704" y="-1192.9" font-family="Arial" font-size="14.00" fill="#666666">[datetime]</text>
</g>
<!-- Notes -->
<g id="node2" class="node">
<title>Notes</title>
<polygon fill="#efefef" stroke="transparent" points="43,-979.5 43,-1014.5 501,-1014.5 501,-979.5 43,-979.5"/>
<polygon fill="none" stroke="#000000" points="43,-979.5 43,-1014.5 501,-1014.5 501,-979.5 43,-979.5"/>
<text text-anchor="start" x="199.8687" y="-992.3" font-family="Arial Bold" font-size="18.00" fill="#000000">Notes</text>
<text text-anchor="start" x="246.8775" y="-992.3" font-family="Arial" font-size="14.00" fill="#000000"> </text>
<text text-anchor="start" x="250.7681" y="-992.3" font-family="Arial" font-size="14.00" fill="#666666">[BASE TABLE]</text>
<polygon fill="none" stroke="#000000" points="43,-949.5 43,-979.5 501,-979.5 501,-949.5 43,-949.5"/>
<text text-anchor="start" x="50" y="-960.9" font-family="Arial" font-size="14.00" fill="#000000">id </text>
<text text-anchor="start" x="64.7798" y="-960.9" font-family="Arial" font-size="14.00" fill="#666666">[char(36)]</text>
<polygon fill="none" stroke="#000000" points="43,-919.5 43,-949.5 501,-949.5 501,-919.5 43,-919.5"/>
<text text-anchor="start" x="50" y="-930.9" font-family="Arial" font-size="14.00" fill="#000000">ownerId </text>
<text text-anchor="start" x="103.6788" y="-930.9" font-family="Arial" font-size="14.00" fill="#666666">[char(36)]</text>
<polygon fill="none" stroke="#000000" points="43,-889.5 43,-919.5 501,-919.5 501,-889.5 43,-889.5"/>
<text text-anchor="start" x="50" y="-900.9" font-family="Arial" font-size="14.00" fill="#000000">content </text>
<text text-anchor="start" x="99.8022" y="-900.9" font-family="Arial" font-size="14.00" fill="#666666">[longtext]</text>
<polygon fill="none" stroke="#000000" points="43,-859.5 43,-889.5 501,-889.5 501,-859.5 43,-859.5"/>
<text text-anchor="start" x="50" y="-870.9" font-family="Arial" font-size="14.00" fill="#000000">title </text>
<text text-anchor="start" x="75.6676" y="-870.9" font-family="Arial" font-size="14.00" fill="#666666">[text]</text>
<polygon fill="none" stroke="#000000" points="43,-829.5 43,-859.5 501,-859.5 501,-829.5 43,-829.5"/>
<text text-anchor="start" x="50" y="-840.9" font-family="Arial" font-size="14.00" fill="#000000">createdAt </text>
<text text-anchor="start" x="113.7994" y="-840.9" font-family="Arial" font-size="14.00" fill="#666666">[datetime]</text>
<polygon fill="none" stroke="#000000" points="43,-799.5 43,-829.5 501,-829.5 501,-799.5 43,-799.5"/>
<text text-anchor="start" x="50" y="-810.9" font-family="Arial" font-size="14.00" fill="#000000">updatedAt </text>
<text text-anchor="start" x="117.704" y="-810.9" font-family="Arial" font-size="14.00" fill="#666666">[datetime]</text>
<polygon fill="none" stroke="#000000" points="43,-769.5 43,-799.5 501,-799.5 501,-769.5 43,-769.5"/>
<text text-anchor="start" x="50" y="-780.9" font-family="Arial" font-size="14.00" fill="#000000">shortid </text>
<text text-anchor="start" x="95.8962" y="-780.9" font-family="Arial" font-size="14.00" fill="#666666">[varchar(255)]</text>
<polygon fill="none" stroke="#000000" points="43,-739.5 43,-769.5 501,-769.5 501,-739.5 43,-739.5"/>
<text text-anchor="start" x="49.6394" y="-750.9" font-family="Arial" font-size="14.00" fill="#000000">permission </text>
<text text-anchor="start" x="121.1948" y="-750.9" font-family="Arial" font-size="14.00" fill="#666666">[enum(&#39;freely&#39;,&#39;editable&#39;,&#39;limited&#39;,&#39;locked&#39;,&#39;protected&#39;,&#39;private&#39;)]</text>
<polygon fill="none" stroke="#000000" points="43,-709.5 43,-739.5 501,-739.5 501,-709.5 43,-709.5"/>
<text text-anchor="start" x="50" y="-720.9" font-family="Arial" font-size="14.00" fill="#000000">viewcount </text>
<text text-anchor="start" x="116.1248" y="-720.9" font-family="Arial" font-size="14.00" fill="#666666">[int(11)]</text>
<polygon fill="none" stroke="#000000" points="43,-679.5 43,-709.5 501,-709.5 501,-679.5 43,-679.5"/>
<text text-anchor="start" x="50" y="-690.9" font-family="Arial" font-size="14.00" fill="#000000">lastchangeuserId </text>
<text text-anchor="start" x="160.4824" y="-690.9" font-family="Arial" font-size="14.00" fill="#666666">[char(36)]</text>
<polygon fill="none" stroke="#000000" points="43,-649.5 43,-679.5 501,-679.5 501,-649.5 43,-649.5"/>
<text text-anchor="start" x="50" y="-660.9" font-family="Arial" font-size="14.00" fill="#000000">lastchangeAt </text>
<text text-anchor="start" x="134.8106" y="-660.9" font-family="Arial" font-size="14.00" fill="#666666">[datetime]</text>
<polygon fill="none" stroke="#000000" points="43,-619.5 43,-649.5 501,-649.5 501,-619.5 43,-619.5"/>
<text text-anchor="start" x="50" y="-630.9" font-family="Arial" font-size="14.00" fill="#000000">alias </text>
<text text-anchor="start" x="82.669" y="-630.9" font-family="Arial" font-size="14.00" fill="#666666">[varchar(255)]</text>
<polygon fill="none" stroke="#000000" points="43,-589.5 43,-619.5 501,-619.5 501,-589.5 43,-589.5"/>
<text text-anchor="start" x="50" y="-600.9" font-family="Arial" font-size="14.00" fill="#000000">savedAt </text>
<text text-anchor="start" x="104.4656" y="-600.9" font-family="Arial" font-size="14.00" fill="#666666">[datetime]</text>
<polygon fill="none" stroke="#000000" points="43,-559.5 43,-589.5 501,-589.5 501,-559.5 43,-559.5"/>
<text text-anchor="start" x="50" y="-570.9" font-family="Arial" font-size="14.00" fill="#000000">authorship </text>
<text text-anchor="start" x="119.244" y="-570.9" font-family="Arial" font-size="14.00" fill="#666666">[longtext]</text>
<polygon fill="none" stroke="#000000" points="43,-529.5 43,-559.5 501,-559.5 501,-529.5 43,-529.5"/>
<text text-anchor="start" x="50" y="-540.9" font-family="Arial" font-size="14.00" fill="#000000">deletedAt </text>
<text text-anchor="start" x="113.028" y="-540.9" font-family="Arial" font-size="14.00" fill="#666666">[datetime]</text>
</g>
<!-- Authors&#45;&gt;Notes -->
<g id="edge1" class="edge">
<title>Authors:noteId&#45;&gt;Notes:id</title>
<path fill="none" stroke="#000000" d="M467.0086,-1286.0341C382.603,-1277.5718 486.8588,-1155.5041 501,-1058 506.9645,-1016.8747 542.5556,-964.5 501,-964.5"/>
<polygon fill="#000000" stroke="#000000" points="467.0109,-1286.0342 476.7904,-1290.9951 472.0054,-1286.2671 477,-1286.5 477,-1286.5 477,-1286.5 472.0054,-1286.2671 477.2096,-1282.0049 467.0109,-1286.0342 467.0109,-1286.0342"/>
<text text-anchor="start" x="306.6055" y="-1270.5" font-family="Arial" font-size="10.00" fill="#000000">FOREIGN KEY (noteId) REFERENCES Notes (id)</text>
</g>
<!-- Users -->
<g id="node6" class="node">
<title>Users</title>
<polygon fill="#efefef" stroke="transparent" points="343,-372.5 343,-407.5 501,-407.5 501,-372.5 343,-372.5"/>
<polygon fill="none" stroke="#000000" points="343,-372.5 343,-407.5 501,-407.5 501,-372.5 343,-372.5"/>
<text text-anchor="start" x="349.8768" y="-385.3" font-family="Arial Bold" font-size="18.00" fill="#000000">Users</text>
<text text-anchor="start" x="396.8694" y="-385.3" font-family="Arial" font-size="14.00" fill="#000000"> </text>
<text text-anchor="start" x="400.76" y="-385.3" font-family="Arial" font-size="14.00" fill="#666666">[BASE TABLE]</text>
<polygon fill="none" stroke="#000000" points="343,-342.5 343,-372.5 501,-372.5 501,-342.5 343,-342.5"/>
<text text-anchor="start" x="350" y="-353.9" font-family="Arial" font-size="14.00" fill="#000000">id </text>
<text text-anchor="start" x="364.7798" y="-353.9" font-family="Arial" font-size="14.00" fill="#666666">[char(36)]</text>
<polygon fill="none" stroke="#000000" points="343,-312.5 343,-342.5 501,-342.5 501,-312.5 343,-312.5"/>
<text text-anchor="start" x="350" y="-323.9" font-family="Arial" font-size="14.00" fill="#000000">profileid </text>
<text text-anchor="start" x="402.892" y="-323.9" font-family="Arial" font-size="14.00" fill="#666666">[varchar(255)]</text>
<polygon fill="none" stroke="#000000" points="343,-282.5 343,-312.5 501,-312.5 501,-282.5 343,-282.5"/>
<text text-anchor="start" x="350" y="-293.9" font-family="Arial" font-size="14.00" fill="#000000">profile </text>
<text text-anchor="start" x="392.0028" y="-293.9" font-family="Arial" font-size="14.00" fill="#666666">[text]</text>
<polygon fill="none" stroke="#000000" points="343,-252.5 343,-282.5 501,-282.5 501,-252.5 343,-252.5"/>
<text text-anchor="start" x="350" y="-263.9" font-family="Arial" font-size="14.00" fill="#000000">history </text>
<text text-anchor="start" x="395.1136" y="-263.9" font-family="Arial" font-size="14.00" fill="#666666">[longtext]</text>
<polygon fill="none" stroke="#000000" points="343,-222.5 343,-252.5 501,-252.5 501,-222.5 343,-222.5"/>
<text text-anchor="start" x="350" y="-233.9" font-family="Arial" font-size="14.00" fill="#000000">createdAt </text>
<text text-anchor="start" x="413.7994" y="-233.9" font-family="Arial" font-size="14.00" fill="#666666">[datetime]</text>
<polygon fill="none" stroke="#000000" points="343,-192.5 343,-222.5 501,-222.5 501,-192.5 343,-192.5"/>
<text text-anchor="start" x="350" y="-203.9" font-family="Arial" font-size="14.00" fill="#000000">updatedAt </text>
<text text-anchor="start" x="417.704" y="-203.9" font-family="Arial" font-size="14.00" fill="#666666">[datetime]</text>
<polygon fill="none" stroke="#000000" points="343,-162.5 343,-192.5 501,-192.5 501,-162.5 343,-162.5"/>
<text text-anchor="start" x="350" y="-173.9" font-family="Arial" font-size="14.00" fill="#000000">accessToken </text>
<text text-anchor="start" x="436.3562" y="-173.9" font-family="Arial" font-size="14.00" fill="#666666">[text]</text>
<polygon fill="none" stroke="#000000" points="343,-132.5 343,-162.5 501,-162.5 501,-132.5 343,-132.5"/>
<text text-anchor="start" x="350" y="-143.9" font-family="Arial" font-size="14.00" fill="#000000">refreshToken </text>
<text text-anchor="start" x="436.3506" y="-143.9" font-family="Arial" font-size="14.00" fill="#666666">[text]</text>
<polygon fill="none" stroke="#000000" points="343,-102.5 343,-132.5 501,-132.5 501,-102.5 343,-102.5"/>
<text text-anchor="start" x="350" y="-113.9" font-family="Arial" font-size="14.00" fill="#000000">email </text>
<text text-anchor="start" x="387.3296" y="-113.9" font-family="Arial" font-size="14.00" fill="#666666">[text]</text>
<polygon fill="none" stroke="#000000" points="343,-72.5 343,-102.5 501,-102.5 501,-72.5 343,-72.5"/>
<text text-anchor="start" x="350" y="-83.9" font-family="Arial" font-size="14.00" fill="#000000">password </text>
<text text-anchor="start" x="413.7882" y="-83.9" font-family="Arial" font-size="14.00" fill="#666666">[text]</text>
<polygon fill="none" stroke="#000000" points="343,-42.5 343,-72.5 501,-72.5 501,-42.5 343,-42.5"/>
<text text-anchor="start" x="350" y="-53.9" font-family="Arial" font-size="14.00" fill="#000000">deleteToken </text>
<text text-anchor="start" x="430.9186" y="-53.9" font-family="Arial" font-size="14.00" fill="#666666">[char(36)]</text>
</g>
<!-- Authors&#45;&gt;Users -->
<g id="edge2" class="edge">
<title>Authors:userId&#45;&gt;Users:id</title>
<path fill="none" stroke="#000000" d="M659.7639,-1253.2447C740.834,-1194.4002 598.6919,-357.5 501,-357.5"/>
<polygon fill="#000000" stroke="#000000" points="659.4867,-1253.3371 648.5767,-1252.231 654.7433,-1254.9186 650,-1256.5 650,-1256.5 650,-1256.5 654.7433,-1254.9186 651.4233,-1260.769 659.4867,-1253.3371 659.4867,-1253.3371"/>
<text text-anchor="start" x="420.6145" y="-1240.5" font-family="Arial" font-size="10.00" fill="#000000">FOREIGN KEY (userId) REFERENCES Users (id)</text>
</g>
<!-- Notes&#45;&gt;Users -->
<g id="edge3" class="edge">
<title>Notes:ownerId&#45;&gt;Users:id</title>
<path fill="none" stroke="#000000" d="M509.7764,-929.6158C548.2588,-883.3609 530.01,-523.3634 501,-487 456.0845,-430.6994 387.9155,-507.3006 343,-451 317.0844,-418.5154 301.4444,-357.5 343,-357.5"/>
<polygon fill="#000000" stroke="#000000" points="509.738,-929.6371 498.8117,-930.5679 505.369,-932.0686 501,-934.5 501,-934.5 501,-934.5 505.369,-932.0686 503.1883,-938.4321 509.738,-929.6371 509.738,-929.6371"/>
<text text-anchor="start" x="507.7255" y="-944.5" font-family="Arial" font-size="10.00" fill="#000000">FOREIGN KEY (ownerId) REFERENCES Users (id)</text>
</g>
<!-- Revisions -->
<g id="node3" class="node">
<title>Revisions</title>
<polygon fill="#efefef" stroke="transparent" points="177,-1406.5 177,-1441.5 366,-1441.5 366,-1406.5 177,-1406.5"/>
<polygon fill="none" stroke="#000000" points="177,-1406.5 177,-1441.5 366,-1441.5 366,-1406.5 177,-1406.5"/>
<text text-anchor="start" x="183.8725" y="-1419.3" font-family="Arial Bold" font-size="18.00" fill="#000000">Revisions</text>
<text text-anchor="start" x="261.8737" y="-1419.3" font-family="Arial" font-size="14.00" fill="#000000"> </text>
<text text-anchor="start" x="265.7643" y="-1419.3" font-family="Arial" font-size="14.00" fill="#666666">[BASE TABLE]</text>
<polygon fill="none" stroke="#000000" points="177,-1376.5 177,-1406.5 366,-1406.5 366,-1376.5 177,-1376.5"/>
<text text-anchor="start" x="184" y="-1387.9" font-family="Arial" font-size="14.00" fill="#000000">id </text>
<text text-anchor="start" x="198.7798" y="-1387.9" font-family="Arial" font-size="14.00" fill="#666666">[char(36)]</text>
<polygon fill="none" stroke="#000000" points="177,-1346.5 177,-1376.5 366,-1376.5 366,-1346.5 177,-1346.5"/>
<text text-anchor="start" x="184" y="-1357.9" font-family="Arial" font-size="14.00" fill="#000000">noteId </text>
<text text-anchor="start" x="226.8022" y="-1357.9" font-family="Arial" font-size="14.00" fill="#666666">[char(36)]</text>
<polygon fill="none" stroke="#000000" points="177,-1316.5 177,-1346.5 366,-1346.5 366,-1316.5 177,-1316.5"/>
<text text-anchor="start" x="184" y="-1327.9" font-family="Arial" font-size="14.00" fill="#000000">patch </text>
<text text-anchor="start" x="222.129" y="-1327.9" font-family="Arial" font-size="14.00" fill="#666666">[longtext]</text>
<polygon fill="none" stroke="#000000" points="177,-1286.5 177,-1316.5 366,-1316.5 366,-1286.5 177,-1286.5"/>
<text text-anchor="start" x="184" y="-1297.9" font-family="Arial" font-size="14.00" fill="#000000">lastContent </text>
<text text-anchor="start" x="258.6886" y="-1297.9" font-family="Arial" font-size="14.00" fill="#666666">[longtext]</text>
<polygon fill="none" stroke="#000000" points="177,-1256.5 177,-1286.5 366,-1286.5 366,-1256.5 177,-1256.5"/>
<text text-anchor="start" x="184" y="-1267.9" font-family="Arial" font-size="14.00" fill="#000000">content </text>
<text text-anchor="start" x="233.8022" y="-1267.9" font-family="Arial" font-size="14.00" fill="#666666">[longtext]</text>
<polygon fill="none" stroke="#000000" points="177,-1226.5 177,-1256.5 366,-1256.5 366,-1226.5 177,-1226.5"/>
<text text-anchor="start" x="184" y="-1237.9" font-family="Arial" font-size="14.00" fill="#000000">length </text>
<text text-anchor="start" x="226.0182" y="-1237.9" font-family="Arial" font-size="14.00" fill="#666666">[int(11)]</text>
<polygon fill="none" stroke="#000000" points="177,-1196.5 177,-1226.5 366,-1226.5 366,-1196.5 177,-1196.5"/>
<text text-anchor="start" x="184" y="-1207.9" font-family="Arial" font-size="14.00" fill="#000000">createdAt </text>
<text text-anchor="start" x="247.7994" y="-1207.9" font-family="Arial" font-size="14.00" fill="#666666">[datetime]</text>
<polygon fill="none" stroke="#000000" points="177,-1166.5 177,-1196.5 366,-1196.5 366,-1166.5 177,-1166.5"/>
<text text-anchor="start" x="184" y="-1177.9" font-family="Arial" font-size="14.00" fill="#000000">updatedAt </text>
<text text-anchor="start" x="251.704" y="-1177.9" font-family="Arial" font-size="14.00" fill="#666666">[datetime]</text>
<polygon fill="none" stroke="#000000" points="177,-1136.5 177,-1166.5 366,-1166.5 366,-1136.5 177,-1136.5"/>
<text text-anchor="start" x="184" y="-1147.9" font-family="Arial" font-size="14.00" fill="#000000">authorship </text>
<text text-anchor="start" x="253.244" y="-1147.9" font-family="Arial" font-size="14.00" fill="#666666">[longtext]</text>
</g>
<!-- Revisions&#45;&gt;Notes -->
<g id="edge4" class="edge">
<title>Revisions:noteId&#45;&gt;Notes:id</title>
<path fill="none" stroke="#000000" d="M375.9391,-1359.1346C422.9732,-1335.1278 403.2373,-1135.6182 366,-1094 269.6852,-986.354 139.3148,-1165.646 43,-1058 15.291,-1027.0311 1.4444,-964.5 43,-964.5"/>
<polygon fill="#000000" stroke="#000000" points="375.7283,-1359.1847 364.9581,-1357.1223 370.8641,-1360.3423 366,-1361.5 366,-1361.5 366,-1361.5 370.8641,-1360.3423 367.0419,-1365.8777 375.7283,-1359.1847 375.7283,-1359.1847"/>
<text text-anchor="start" x="372.6055" y="-1371.5" font-family="Arial" font-size="10.00" fill="#000000">FOREIGN KEY (noteId) REFERENCES Notes (id)</text>
</g>
<!-- Sessions -->
<g id="node4" class="node">
<title>Sessions</title>
<polygon fill="#efefef" stroke="transparent" points="754,-1346.5 754,-1381.5 938,-1381.5 938,-1346.5 754,-1346.5"/>
<polygon fill="none" stroke="#000000" points="754,-1346.5 754,-1381.5 938,-1381.5 938,-1346.5 754,-1346.5"/>
<text text-anchor="start" x="760.8646" y="-1359.3" font-family="Arial Bold" font-size="18.00" fill="#000000">Sessions</text>
<text text-anchor="start" x="833.8816" y="-1359.3" font-family="Arial" font-size="14.00" fill="#000000"> </text>
<text text-anchor="start" x="837.7722" y="-1359.3" font-family="Arial" font-size="14.00" fill="#666666">[BASE TABLE]</text>
<polygon fill="none" stroke="#000000" points="754,-1316.5 754,-1346.5 938,-1346.5 938,-1316.5 754,-1316.5"/>
<text text-anchor="start" x="761" y="-1327.9" font-family="Arial" font-size="14.00" fill="#000000">sid </text>
<text text-anchor="start" x="782.7798" y="-1327.9" font-family="Arial" font-size="14.00" fill="#666666">[varchar(36)]</text>
<polygon fill="none" stroke="#000000" points="754,-1286.5 754,-1316.5 938,-1316.5 938,-1286.5 754,-1286.5"/>
<text text-anchor="start" x="761" y="-1297.9" font-family="Arial" font-size="14.00" fill="#000000">expires </text>
<text text-anchor="start" x="810.0056" y="-1297.9" font-family="Arial" font-size="14.00" fill="#666666">[datetime]</text>
<polygon fill="none" stroke="#000000" points="754,-1256.5 754,-1286.5 938,-1286.5 938,-1256.5 754,-1256.5"/>
<text text-anchor="start" x="761" y="-1267.9" font-family="Arial" font-size="14.00" fill="#000000">data </text>
<text text-anchor="start" x="792.129" y="-1267.9" font-family="Arial" font-size="14.00" fill="#666666">[text]</text>
<polygon fill="none" stroke="#000000" points="754,-1226.5 754,-1256.5 938,-1256.5 938,-1226.5 754,-1226.5"/>
<text text-anchor="start" x="761" y="-1237.9" font-family="Arial" font-size="14.00" fill="#000000">createdAt </text>
<text text-anchor="start" x="824.7994" y="-1237.9" font-family="Arial" font-size="14.00" fill="#666666">[datetime]</text>
<polygon fill="none" stroke="#000000" points="754,-1196.5 754,-1226.5 938,-1226.5 938,-1196.5 754,-1196.5"/>
<text text-anchor="start" x="761" y="-1207.9" font-family="Arial" font-size="14.00" fill="#000000">updatedAt </text>
<text text-anchor="start" x="828.704" y="-1207.9" font-family="Arial" font-size="14.00" fill="#666666">[datetime]</text>
</g>
<!-- Temp -->
<g id="node5" class="node">
<title>Temp</title>
<polygon fill="#efefef" stroke="transparent" points="1043,-1331.5 1043,-1366.5 1200,-1366.5 1200,-1331.5 1043,-1331.5"/>
<polygon fill="none" stroke="#000000" points="1043,-1331.5 1043,-1366.5 1200,-1366.5 1200,-1331.5 1043,-1331.5"/>
<text text-anchor="start" x="1049.8727" y="-1344.3" font-family="Arial Bold" font-size="18.00" fill="#000000">Temp</text>
<text text-anchor="start" x="1095.8735" y="-1344.3" font-family="Arial" font-size="14.00" fill="#000000"> </text>
<text text-anchor="start" x="1099.7641" y="-1344.3" font-family="Arial" font-size="14.00" fill="#666666">[BASE TABLE]</text>
<polygon fill="none" stroke="#000000" points="1043,-1301.5 1043,-1331.5 1200,-1331.5 1200,-1301.5 1043,-1301.5"/>
<text text-anchor="start" x="1050" y="-1312.9" font-family="Arial" font-size="14.00" fill="#000000">id </text>
<text text-anchor="start" x="1064.7798" y="-1312.9" font-family="Arial" font-size="14.00" fill="#666666">[varchar(255)]</text>
<polygon fill="none" stroke="#000000" points="1043,-1271.5 1043,-1301.5 1200,-1301.5 1200,-1271.5 1043,-1271.5"/>
<text text-anchor="start" x="1050" y="-1282.9" font-family="Arial" font-size="14.00" fill="#000000">date </text>
<text text-anchor="start" x="1081.129" y="-1282.9" font-family="Arial" font-size="14.00" fill="#666666">[text]</text>
<polygon fill="none" stroke="#000000" points="1043,-1241.5 1043,-1271.5 1200,-1271.5 1200,-1241.5 1043,-1241.5"/>
<text text-anchor="start" x="1050" y="-1252.9" font-family="Arial" font-size="14.00" fill="#000000">createdAt </text>
<text text-anchor="start" x="1113.7994" y="-1252.9" font-family="Arial" font-size="14.00" fill="#666666">[datetime]</text>
<polygon fill="none" stroke="#000000" points="1043,-1211.5 1043,-1241.5 1200,-1241.5 1200,-1211.5 1043,-1211.5"/>
<text text-anchor="start" x="1050" y="-1222.9" font-family="Arial" font-size="14.00" fill="#000000">updatedAt </text>
<text text-anchor="start" x="1117.704" y="-1222.9" font-family="Arial" font-size="14.00" fill="#666666">[datetime]</text>
</g>
</g>
</svg>
