<?xml version="1.0" encoding="UTF-8" standalone="no"?>
<!DOCTYPE svg PUBLIC "-//W3C//DTD SVG 1.1//EN"
 "http://www.w3.org/Graphics/SVG/1.1/DTD/svg11.dtd">
<!-- Generated by graphviz version 2.40.1 (20161225.0304)
 -->
<!-- Title: Users Pages: 1 -->
<svg width="849pt" height="1072pt"
 viewBox="0.00 0.00 849.00 1072.00" xmlns="http://www.w3.org/2000/svg" xmlns:xlink="http://www.w3.org/1999/xlink">
<g id="graph0" class="graph" transform="scale(1 1) rotate(0) translate(4 1068)">
<title>Users</title>
<polygon fill="#ffffff" stroke="transparent" points="-4,4 -4,-1068 845,-1068 845,4 -4,4"/>
<!-- Users -->
<g id="node1" class="node">
<title>Users</title>
<polygon fill="#efefef" stroke="transparent" points="280,-375.5 280,-410.5 438,-410.5 438,-375.5 280,-375.5"/>
<polygon fill="none" stroke="#000000" points="280,-375.5 280,-410.5 438,-410.5 438,-375.5 280,-375.5"/>
<text text-anchor="start" x="286.8768" y="-388.3" font-family="Arial Bold" font-size="18.00" fill="#000000">Users</text>
<text text-anchor="start" x="333.8694" y="-388.3" font-family="Arial" font-size="14.00" fill="#000000"> </text>
<text text-anchor="start" x="337.76" y="-388.3" font-family="Arial" font-size="14.00" fill="#666666">[BASE TABLE]</text>
<polygon fill="none" stroke="#000000" points="280,-345.5 280,-375.5 438,-375.5 438,-345.5 280,-345.5"/>
<text text-anchor="start" x="287" y="-356.9" font-family="Arial" font-size="14.00" fill="#000000">id </text>
<text text-anchor="start" x="301.7798" y="-356.9" font-family="Arial" font-size="14.00" fill="#666666">[char(36)]</text>
<polygon fill="none" stroke="#000000" points="280,-315.5 280,-345.5 438,-345.5 438,-315.5 280,-315.5"/>
<text text-anchor="start" x="287" y="-326.9" font-family="Arial" font-size="14.00" fill="#000000">profileid </text>
<text text-anchor="start" x="339.892" y="-326.9" font-family="Arial" font-size="14.00" fill="#666666">[varchar(255)]</text>
<polygon fill="none" stroke="#000000" points="280,-285.5 280,-315.5 438,-315.5 438,-285.5 280,-285.5"/>
<text text-anchor="start" x="287" y="-296.9" font-family="Arial" font-size="14.00" fill="#000000">profile </text>
<text text-anchor="start" x="329.0028" y="-296.9" font-family="Arial" font-size="14.00" fill="#666666">[text]</text>
<polygon fill="none" stroke="#000000" points="280,-255.5 280,-285.5 438,-285.5 438,-255.5 280,-255.5"/>
<text text-anchor="start" x="287" y="-266.9" font-family="Arial" font-size="14.00" fill="#000000">history </text>
<text text-anchor="start" x="332.1136" y="-266.9" font-family="Arial" font-size="14.00" fill="#666666">[longtext]</text>
<polygon fill="none" stroke="#000000" points="280,-225.5 280,-255.5 438,-255.5 438,-225.5 280,-225.5"/>
<text text-anchor="start" x="287" y="-236.9" font-family="Arial" font-size="14.00" fill="#000000">createdAt </text>
<text text-anchor="start" x="350.7994" y="-236.9" font-family="Arial" font-size="14.00" fill="#666666">[datetime]</text>
<polygon fill="none" stroke="#000000" points="280,-195.5 280,-225.5 438,-225.5 438,-195.5 280,-195.5"/>
<text text-anchor="start" x="287" y="-206.9" font-family="Arial" font-size="14.00" fill="#000000">updatedAt </text>
<text text-anchor="start" x="354.704" y="-206.9" font-family="Arial" font-size="14.00" fill="#666666">[datetime]</text>
<polygon fill="none" stroke="#000000" points="280,-165.5 280,-195.5 438,-195.5 438,-165.5 280,-165.5"/>
<text text-anchor="start" x="287" y="-176.9" font-family="Arial" font-size="14.00" fill="#000000">accessToken </text>
<text text-anchor="start" x="373.3562" y="-176.9" font-family="Arial" font-size="14.00" fill="#666666">[text]</text>
<polygon fill="none" stroke="#000000" points="280,-135.5 280,-165.5 438,-165.5 438,-135.5 280,-135.5"/>
<text text-anchor="start" x="287" y="-146.9" font-family="Arial" font-size="14.00" fill="#000000">refreshToken </text>
<text text-anchor="start" x="373.3506" y="-146.9" font-family="Arial" font-size="14.00" fill="#666666">[text]</text>
<polygon fill="none" stroke="#000000" points="280,-105.5 280,-135.5 438,-135.5 438,-105.5 280,-105.5"/>
<text text-anchor="start" x="287" y="-116.9" font-family="Arial" font-size="14.00" fill="#000000">email </text>
<text text-anchor="start" x="324.3296" y="-116.9" font-family="Arial" font-size="14.00" fill="#666666">[text]</text>
<polygon fill="none" stroke="#000000" points="280,-75.5 280,-105.5 438,-105.5 438,-75.5 280,-75.5"/>
<text text-anchor="start" x="287" y="-86.9" font-family="Arial" font-size="14.00" fill="#000000">password </text>
<text text-anchor="start" x="350.7882" y="-86.9" font-family="Arial" font-size="14.00" fill="#666666">[text]</text>
<polygon fill="none" stroke="#000000" points="280,-45.5 280,-75.5 438,-75.5 438,-45.5 280,-45.5"/>
<text text-anchor="start" x="287" y="-56.9" font-family="Arial" font-size="14.00" fill="#000000">deleteToken </text>
<text text-anchor="start" x="367.9186" y="-56.9" font-family="Arial" font-size="14.00" fill="#666666">[char(36)]</text>
<polygon fill="none" stroke="#000000" stroke-width="3" points="278.5,-44.5 278.5,-412.5 439.5,-412.5 439.5,-44.5 278.5,-44.5"/>
</g>
<!-- Authors -->
<g id="node2" class="node">
<title>Authors</title>
<polygon fill="#efefef" stroke="transparent" points="63,-850.5 63,-885.5 236,-885.5 236,-850.5 63,-850.5"/>
<polygon fill="none" stroke="#000000" points="63,-850.5 63,-885.5 236,-885.5 236,-850.5 63,-850.5"/>
<text text-anchor="start" x="69.8645" y="-863.3" font-family="Arial Bold" font-size="18.00" fill="#000000">Authors</text>
<text text-anchor="start" x="131.8817" y="-863.3" font-family="Arial" font-size="14.00" fill="#000000"> </text>
<text text-anchor="start" x="135.7723" y="-863.3" font-family="Arial" font-size="14.00" fill="#666666">[BASE TABLE]</text>
<polygon fill="none" stroke="#000000" points="63,-820.5 63,-850.5 236,-850.5 236,-820.5 63,-820.5"/>
<text text-anchor="start" x="70" y="-831.9" font-family="Arial" font-size="14.00" fill="#000000">id </text>
<text text-anchor="start" x="84.7798" y="-831.9" font-family="Arial" font-size="14.00" fill="#666666">[int(11)]</text>
<polygon fill="none" stroke="#000000" points="63,-790.5 63,-820.5 236,-820.5 236,-790.5 63,-790.5"/>
<text text-anchor="start" x="70" y="-801.9" font-family="Arial" font-size="14.00" fill="#000000">color </text>
<text text-anchor="start" x="104.223" y="-801.9" font-family="Arial" font-size="14.00" fill="#666666">[varchar(255)]</text>
<polygon fill="none" stroke="#000000" points="63,-760.5 63,-790.5 236,-790.5 236,-760.5 63,-760.5"/>
<text text-anchor="start" x="70" y="-771.9" font-family="Arial" font-size="14.00" fill="#000000">noteId </text>
<text text-anchor="start" x="112.8022" y="-771.9" font-family="Arial" font-size="14.00" fill="#666666">[char(36)]</text>
<polygon fill="none" stroke="#000000" points="63,-730.5 63,-760.5 236,-760.5 236,-730.5 63,-730.5"/>
<text text-anchor="start" x="70" y="-741.9" font-family="Arial" font-size="14.00" fill="#000000">userId </text>
<text text-anchor="start" x="112.7896" y="-741.9" font-family="Arial" font-size="14.00" fill="#666666">[char(36)]</text>
<polygon fill="none" stroke="#000000" points="63,-700.5 63,-730.5 236,-730.5 236,-700.5 63,-700.5"/>
<text text-anchor="start" x="70" y="-711.9" font-family="Arial" font-size="14.00" fill="#000000">createdAt </text>
<text text-anchor="start" x="133.7994" y="-711.9" font-family="Arial" font-size="14.00" fill="#666666">[datetime]</text>
<polygon fill="none" stroke="#000000" points="63,-670.5 63,-700.5 236,-700.5 236,-670.5 63,-670.5"/>
<text text-anchor="start" x="70" y="-681.9" font-family="Arial" font-size="14.00" fill="#000000">updatedAt </text>
<text text-anchor="start" x="137.704" y="-681.9" font-family="Arial" font-size="14.00" fill="#666666">[datetime]</text>
</g>
<!-- Authors&#45;&gt;Users -->
<g id="edge1" class="edge">
<title>Authors:userId&#45;&gt;Users:id</title>
<path fill="none" stroke="#000000" d="M245.9472,-743.4286C311.4889,-713.1249 197.5877,-360.5 280,-360.5"/>
<polygon fill="#000000" stroke="#000000" points="245.79,-743.4613 235.0826,-741.0945 240.895,-744.4806 236,-745.5 236,-745.5 236,-745.5 240.895,-744.4806 236.9174,-749.9055 245.79,-743.4613 245.79,-743.4613"/>
<text text-anchor="start" x="6.6145" y="-755.5" font-family="Arial" font-size="10.00" fill="#000000">FOREIGN KEY (userId) REFERENCES Users (id)</text>
</g>
<!-- Notes -->
<g id="node3" class="node">
<title>Notes</title>
<polygon fill="#efefef" stroke="transparent" points="340,-985.5 340,-1020.5 798,-1020.5 798,-985.5 340,-985.5"/>
<polygon fill="none" stroke="#000000" points="340,-985.5 340,-1020.5 798,-1020.5 798,-985.5 340,-985.5"/>
<text text-anchor="start" x="496.8687" y="-998.3" font-family="Arial Bold" font-size="18.00" fill="#000000">Notes</text>
<text text-anchor="start" x="543.8775" y="-998.3" font-family="Arial" font-size="14.00" fill="#000000"> </text>
<text text-anchor="start" x="547.7681" y="-998.3" font-family="Arial" font-size="14.00" fill="#666666">[BASE TABLE]</text>
<polygon fill="none" stroke="#000000" points="340,-955.5 340,-985.5 798,-985.5 798,-955.5 340,-955.5"/>
<text text-anchor="start" x="347" y="-966.9" font-family="Arial" font-size="14.00" fill="#000000">id </text>
<text text-anchor="start" x="361.7798" y="-966.9" font-family="Arial" font-size="14.00" fill="#666666">[char(36)]</text>
<polygon fill="none" stroke="#000000" points="340,-925.5 340,-955.5 798,-955.5 798,-925.5 340,-925.5"/>
<text text-anchor="start" x="347" y="-936.9" font-family="Arial" font-size="14.00" fill="#000000">ownerId </text>
<text text-anchor="start" x="400.6788" y="-936.9" font-family="Arial" font-size="14.00" fill="#666666">[char(36)]</text>
<polygon fill="none" stroke="#000000" points="340,-895.5 340,-925.5 798,-925.5 798,-895.5 340,-895.5"/>
<text text-anchor="start" x="347" y="-906.9" font-family="Arial" font-size="14.00" fill="#000000">content </text>
<text text-anchor="start" x="396.8022" y="-906.9" font-family="Arial" font-size="14.00" fill="#666666">[longtext]</text>
<polygon fill="none" stroke="#000000" points="340,-865.5 340,-895.5 798,-895.5 798,-865.5 340,-865.5"/>
<text text-anchor="start" x="347" y="-876.9" font-family="Arial" font-size="14.00" fill="#000000">title </text>
<text text-anchor="start" x="372.6676" y="-876.9" font-family="Arial" font-size="14.00" fill="#666666">[text]</text>
<polygon fill="none" stroke="#000000" points="340,-835.5 340,-865.5 798,-865.5 798,-835.5 340,-835.5"/>
<text text-anchor="start" x="347" y="-846.9" font-family="Arial" font-size="14.00" fill="#000000">createdAt </text>
<text text-anchor="start" x="410.7994" y="-846.9" font-family="Arial" font-size="14.00" fill="#666666">[datetime]</text>
<polygon fill="none" stroke="#000000" points="340,-805.5 340,-835.5 798,-835.5 798,-805.5 340,-805.5"/>
<text text-anchor="start" x="347" y="-816.9" font-family="Arial" font-size="14.00" fill="#000000">updatedAt </text>
<text text-anchor="start" x="414.704" y="-816.9" font-family="Arial" font-size="14.00" fill="#666666">[datetime]</text>
<polygon fill="none" stroke="#000000" points="340,-775.5 340,-805.5 798,-805.5 798,-775.5 340,-775.5"/>
<text text-anchor="start" x="347" y="-786.9" font-family="Arial" font-size="14.00" fill="#000000">shortid </text>
<text text-anchor="start" x="392.8962" y="-786.9" font-family="Arial" font-size="14.00" fill="#666666">[varchar(255)]</text>
<polygon fill="none" stroke="#000000" points="340,-745.5 340,-775.5 798,-775.5 798,-745.5 340,-745.5"/>
<text text-anchor="start" x="346.6394" y="-756.9" font-family="Arial" font-size="14.00" fill="#000000">permission </text>
<text text-anchor="start" x="418.1948" y="-756.9" font-family="Arial" font-size="14.00" fill="#666666">[enum(&#39;freely&#39;,&#39;editable&#39;,&#39;limited&#39;,&#39;locked&#39;,&#39;protected&#39;,&#39;private&#39;)]</text>
<polygon fill="none" stroke="#000000" points="340,-715.5 340,-745.5 798,-745.5 798,-715.5 340,-715.5"/>
<text text-anchor="start" x="347" y="-726.9" font-family="Arial" font-size="14.00" fill="#000000">viewcount </text>
<text text-anchor="start" x="413.1248" y="-726.9" font-family="Arial" font-size="14.00" fill="#666666">[int(11)]</text>
<polygon fill="none" stroke="#000000" points="340,-685.5 340,-715.5 798,-715.5 798,-685.5 340,-685.5"/>
<text text-anchor="start" x="347" y="-696.9" font-family="Arial" font-size="14.00" fill="#000000">lastchangeuserId </text>
<text text-anchor="start" x="457.4824" y="-696.9" font-family="Arial" font-size="14.00" fill="#666666">[char(36)]</text>
<polygon fill="none" stroke="#000000" points="340,-655.5 340,-685.5 798,-685.5 798,-655.5 340,-655.5"/>
<text text-anchor="start" x="347" y="-666.9" font-family="Arial" font-size="14.00" fill="#000000">lastchangeAt </text>
<text text-anchor="start" x="431.8106" y="-666.9" font-family="Arial" font-size="14.00" fill="#666666">[datetime]</text>
<polygon fill="none" stroke="#000000" points="340,-625.5 340,-655.5 798,-655.5 798,-625.5 340,-625.5"/>
<text text-anchor="start" x="347" y="-636.9" font-family="Arial" font-size="14.00" fill="#000000">alias </text>
<text text-anchor="start" x="379.669" y="-636.9" font-family="Arial" font-size="14.00" fill="#666666">[varchar(255)]</text>
<polygon fill="none" stroke="#000000" points="340,-595.5 340,-625.5 798,-625.5 798,-595.5 340,-595.5"/>
<text text-anchor="start" x="347" y="-606.9" font-family="Arial" font-size="14.00" fill="#000000">savedAt </text>
<text text-anchor="start" x="401.4656" y="-606.9" font-family="Arial" font-size="14.00" fill="#666666">[datetime]</text>
<polygon fill="none" stroke="#000000" points="340,-565.5 340,-595.5 798,-595.5 798,-565.5 340,-565.5"/>
<text text-anchor="start" x="347" y="-576.9" font-family="Arial" font-size="14.00" fill="#000000">authorship </text>
<text text-anchor="start" x="416.244" y="-576.9" font-family="Arial" font-size="14.00" fill="#666666">[longtext]</text>
<polygon fill="none" stroke="#000000" points="340,-535.5 340,-565.5 798,-565.5 798,-535.5 340,-535.5"/>
<text text-anchor="start" x="347" y="-546.9" font-family="Arial" font-size="14.00" fill="#000000">deletedAt </text>
<text text-anchor="start" x="410.028" y="-546.9" font-family="Arial" font-size="14.00" fill="#666666">[datetime]</text>
</g>
<!-- Notes&#45;&gt;Users -->
<g id="edge2" class="edge">
<title>Notes:ownerId&#45;&gt;Users:id</title>
<path fill="none" stroke="#000000" d="M331.2533,-935.638C293.0487,-889.5905 313.3755,-531.1446 340,-493 366.5581,-454.9506 411.4419,-495.0494 438,-457 462.5477,-421.8309 480.8889,-360.5 438,-360.5"/>
<polygon fill="#000000" stroke="#000000" points="331.2596,-935.6414 337.8136,-944.4332 335.6298,-938.0707 340,-940.5 340,-940.5 340,-940.5 335.6298,-938.0707 342.1864,-936.5668 331.2596,-935.6414 331.2596,-935.6414"/>
<text text-anchor="start" x="102.7255" y="-950.5" font-family="Arial" font-size="10.00" fill="#000000">FOREIGN KEY (ownerId) REFERENCES Users (id)</text>
</g>
</g>
</svg>
