<?xml version="1.0" encoding="UTF-8" standalone="no"?>
<!DOCTYPE svg PUBLIC "-//W3C//DTD SVG 1.1//EN"
 "http://www.w3.org/Graphics/SVG/1.1/DTD/svg11.dtd">
<!-- Generated by graphviz version 2.40.1 (20161225.0304)
 -->
<!-- Title: global_note_template_projects Pages: 1 -->
<svg width="700pt" height="843pt"
 viewBox="0.00 0.00 699.50 843.00" xmlns="http://www.w3.org/2000/svg" xmlns:xlink="http://www.w3.org/1999/xlink">
<g id="graph0" class="graph" transform="scale(1 1) rotate(0) translate(4 839)">
<title>global_note_template_projects</title>
<polygon fill="#ffffff" stroke="transparent" points="-4,4 -4,-839 695.5,-839 695.5,4 -4,4"/>
<!-- global_note_template_projects -->
<g id="node1" class="node">
<title>global_note_template_projects</title>
<polygon fill="#efefef" stroke="transparent" points="189,-753.5 189,-788.5 545,-788.5 545,-753.5 189,-753.5"/>
<polygon fill="none" stroke="#000000" points="189,-753.5 189,-788.5 545,-788.5 545,-753.5 189,-753.5"/>
<text text-anchor="start" x="195.8354" y="-766.3" font-family="Arial Bold" font-size="18.00" fill="#000000">global_note_template_projects</text>
<text text-anchor="start" x="440.9108" y="-766.3" font-family="Arial" font-size="14.00" fill="#000000"> </text>
<text text-anchor="start" x="444.8014" y="-766.3" font-family="Arial" font-size="14.00" fill="#666666">[BASE TABLE]</text>
<polygon fill="none" stroke="#000000" points="189,-723.5 189,-753.5 545,-753.5 545,-723.5 189,-723.5"/>
<text text-anchor="start" x="196" y="-734.9" font-family="Arial" font-size="14.00" fill="#000000">global_note_template_id </text>
<text text-anchor="start" x="352.3884" y="-734.9" font-family="Arial" font-size="14.00" fill="#666666">[bigint(20)]</text>
<polygon fill="none" stroke="#000000" points="189,-693.5 189,-723.5 545,-723.5 545,-693.5 189,-693.5"/>
<text text-anchor="start" x="196" y="-704.9" font-family="Arial" font-size="14.00" fill="#000000">project_id </text>
<text text-anchor="start" x="260.568" y="-704.9" font-family="Arial" font-size="14.00" fill="#666666">[bigint(20)]</text>
<polygon fill="none" stroke="#000000" stroke-width="3" points="187.5,-692.5 187.5,-790.5 546.5,-790.5 546.5,-692.5 187.5,-692.5"/>
</g>
<!-- global_note_templates -->
<g id="node2" class="node">
<title>global_note_templates</title>
<polygon fill="#efefef" stroke="transparent" points="43,-453 43,-488 335,-488 335,-453 43,-453"/>
<polygon fill="none" stroke="#000000" points="43,-453 43,-488 335,-488 335,-453 43,-453"/>
<text text-anchor="start" x="49.8421" y="-465.8" font-family="Arial Bold" font-size="18.00" fill="#000000">global_note_templates</text>
<text text-anchor="start" x="230.9041" y="-465.8" font-family="Arial" font-size="14.00" fill="#000000"> </text>
<text text-anchor="start" x="234.7947" y="-465.8" font-family="Arial" font-size="14.00" fill="#666666">[BASE TABLE]</text>
<polygon fill="none" stroke="#000000" points="43,-423 43,-453 335,-453 335,-423 43,-423"/>
<text text-anchor="start" x="50" y="-434.4" font-family="Arial" font-size="14.00" fill="#000000">id </text>
<text text-anchor="start" x="64.7798" y="-434.4" font-family="Arial" font-size="14.00" fill="#666666">[bigint(20)]</text>
<polygon fill="none" stroke="#000000" points="43,-393 43,-423 335,-423 335,-393 43,-393"/>
<text text-anchor="start" x="50" y="-404.4" font-family="Arial" font-size="14.00" fill="#000000">name </text>
<text text-anchor="start" x="88.899" y="-404.4" font-family="Arial" font-size="14.00" fill="#666666">[varchar(255)]</text>
<polygon fill="none" stroke="#000000" points="43,-363 43,-393 335,-393 335,-363 43,-363"/>
<text text-anchor="start" x="50" y="-374.4" font-family="Arial" font-size="14.00" fill="#000000">description </text>
<text text-anchor="start" x="121.568" y="-374.4" font-family="Arial" font-size="14.00" fill="#666666">[text]</text>
<polygon fill="none" stroke="#000000" points="43,-333 43,-363 335,-363 335,-333 43,-333"/>
<text text-anchor="start" x="50" y="-344.4" font-family="Arial" font-size="14.00" fill="#000000">memo </text>
<text text-anchor="start" x="92.777" y="-344.4" font-family="Arial" font-size="14.00" fill="#666666">[varchar(255)]</text>
<polygon fill="none" stroke="#000000" points="43,-303 43,-333 335,-333 335,-303 43,-303"/>
<text text-anchor="start" x="50" y="-314.4" font-family="Arial" font-size="14.00" fill="#000000">tracker_id </text>
<text text-anchor="start" x="115.3394" y="-314.4" font-family="Arial" font-size="14.00" fill="#666666">[int(11)]</text>
<polygon fill="none" stroke="#000000" points="43,-273 43,-303 335,-303 335,-273 43,-273"/>
<text text-anchor="start" x="50" y="-284.4" font-family="Arial" font-size="14.00" fill="#000000">author_id </text>
<text text-anchor="start" x="112.244" y="-284.4" font-family="Arial" font-size="14.00" fill="#666666">[int(11)]</text>
<polygon fill="none" stroke="#000000" points="43,-243 43,-273 335,-273 335,-243 43,-243"/>
<text text-anchor="start" x="50" y="-254.4" font-family="Arial" font-size="14.00" fill="#000000">enabled </text>
<text text-anchor="start" x="103.6928" y="-254.4" font-family="Arial" font-size="14.00" fill="#666666">[tinyint(1)]</text>
<polygon fill="none" stroke="#000000" points="43,-213 43,-243 335,-243 335,-213 43,-213"/>
<text text-anchor="start" x="50" y="-224.4" font-family="Arial" font-size="14.00" fill="#000000">position </text>
<text text-anchor="start" x="102.1248" y="-224.4" font-family="Arial" font-size="14.00" fill="#666666">[int(11)]</text>
<polygon fill="none" stroke="#000000" points="43,-183 43,-213 335,-213 335,-183 43,-183"/>
<text text-anchor="start" x="50" y="-194.4" font-family="Arial" font-size="14.00" fill="#000000">visibility </text>
<text text-anchor="start" x="102.0968" y="-194.4" font-family="Arial" font-size="14.00" fill="#666666">[int(11)]</text>
<polygon fill="none" stroke="#000000" points="43,-153 43,-183 335,-183 335,-153 43,-153"/>
<text text-anchor="start" x="50" y="-164.4" font-family="Arial" font-size="14.00" fill="#000000">created_at </text>
<text text-anchor="start" x="120.028" y="-164.4" font-family="Arial" font-size="14.00" fill="#666666">[datetime]</text>
<polygon fill="none" stroke="#000000" points="43,-123 43,-153 335,-153 335,-123 43,-123"/>
<text text-anchor="start" x="50" y="-134.4" font-family="Arial" font-size="14.00" fill="#000000">updated_at </text>
<text text-anchor="start" x="123.9326" y="-134.4" font-family="Arial" font-size="14.00" fill="#666666">[datetime]</text>
</g>
<!-- global_note_template_projects&#45;&gt;global_note_templates -->
<g id="edge1" class="edge">
<title>global_note_template_projects:global_note_template_id&#45;&gt;global_note_templates:id</title>
<path fill="none" stroke="#000000" stroke-dasharray="5,2" d="M178.9549,-737.015C153.1753,-728.0745 173.2572,-680.7023 189,-648 225.0081,-573.2008 298.9919,-606.2992 335,-531.5 353.0249,-494.0571 376.5556,-438 335,-438"/>
<polygon fill="#000000" stroke="#000000" points="179.1075,-737.0374 188.3418,-742.9516 184.0538,-737.7687 189,-738.5 189,-738.5 189,-738.5 184.0538,-737.7687 189.6582,-734.0484 179.1075,-737.0374 179.1075,-737.0374"/>
<text text-anchor="start" x="103.268" y="-748.5" font-family="Arial" font-size="10.00" fill="#000000">Detected Relation</text>
</g>
<!-- projects -->
<g id="node3" class="node">
<title>projects</title>
<polygon fill="#efefef" stroke="transparent" points="440,-523 440,-569 649,-569 649,-523 440,-523"/>
<polygon fill="none" stroke="#000000" points="440,-523 440,-569 649,-569 649,-523 440,-523"/>
<text text-anchor="start" x="464.3695" y="-546.8" font-family="Arial Bold" font-size="18.00" fill="#000000">projects</text>
<text text-anchor="start" x="527.3767" y="-546.8" font-family="Arial" font-size="14.00" fill="#000000"> </text>
<text text-anchor="start" x="531.2673" y="-546.8" font-family="Arial" font-size="14.00" fill="#666666">[BASE TABLE]</text>
<text text-anchor="start" x="502.1269" y="-532.4" font-family="Arial" font-size="14.00" fill="#333333">プロジェクト</text>
<polygon fill="none" stroke="#000000" points="440,-493 440,-523 649,-523 649,-493 440,-493"/>
<text text-anchor="start" x="447" y="-504.4" font-family="Arial" font-size="14.00" fill="#000000">id </text>
<text text-anchor="start" x="461.7798" y="-504.4" font-family="Arial" font-size="14.00" fill="#666666">[int(11)]</text>
<polygon fill="none" stroke="#000000" points="440,-463 440,-493 649,-493 649,-463 440,-463"/>
<text text-anchor="start" x="447" y="-474.4" font-family="Arial" font-size="14.00" fill="#000000">name </text>
<text text-anchor="start" x="485.899" y="-474.4" font-family="Arial" font-size="14.00" fill="#666666">[varchar(255)]</text>
<polygon fill="none" stroke="#000000" points="440,-433 440,-463 649,-463 649,-433 440,-433"/>
<text text-anchor="start" x="447" y="-444.4" font-family="Arial" font-size="14.00" fill="#000000">description </text>
<text text-anchor="start" x="518.568" y="-444.4" font-family="Arial" font-size="14.00" fill="#666666">[text]</text>
<polygon fill="none" stroke="#000000" points="440,-403 440,-433 649,-433 649,-403 440,-403"/>
<text text-anchor="start" x="447" y="-414.4" font-family="Arial" font-size="14.00" fill="#000000">homepage </text>
<text text-anchor="start" x="517.0294" y="-414.4" font-family="Arial" font-size="14.00" fill="#666666">[varchar(255)]</text>
<polygon fill="none" stroke="#000000" points="440,-373 440,-403 649,-403 649,-373 440,-373"/>
<text text-anchor="start" x="447" y="-384.4" font-family="Arial" font-size="14.00" fill="#000000">is_public </text>
<text text-anchor="start" x="505.3408" y="-384.4" font-family="Arial" font-size="14.00" fill="#666666">[tinyint(1)]</text>
<polygon fill="none" stroke="#000000" points="440,-343 440,-373 649,-373 649,-343 440,-343"/>
<text text-anchor="start" x="447" y="-354.4" font-family="Arial" font-size="14.00" fill="#000000">parent_id </text>
<text text-anchor="start" x="509.244" y="-354.4" font-family="Arial" font-size="14.00" fill="#666666">[int(11)]</text>
<polygon fill="none" stroke="#000000" points="440,-313 440,-343 649,-343 649,-313 440,-313"/>
<text text-anchor="start" x="447" y="-324.4" font-family="Arial" font-size="14.00" fill="#000000">created_on </text>
<text text-anchor="start" x="520.92" y="-324.4" font-family="Arial" font-size="14.00" fill="#666666">[timestamp]</text>
<polygon fill="none" stroke="#000000" points="440,-283 440,-313 649,-313 649,-283 440,-283"/>
<text text-anchor="start" x="447" y="-294.4" font-family="Arial" font-size="14.00" fill="#000000">updated_on </text>
<text text-anchor="start" x="524.8246" y="-294.4" font-family="Arial" font-size="14.00" fill="#666666">[timestamp]</text>
<polygon fill="none" stroke="#000000" points="440,-253 440,-283 649,-283 649,-253 440,-253"/>
<text text-anchor="start" x="447" y="-264.4" font-family="Arial" font-size="14.00" fill="#000000">identifier </text>
<text text-anchor="start" x="503.7826" y="-264.4" font-family="Arial" font-size="14.00" fill="#666666">[varchar(255)]</text>
<polygon fill="none" stroke="#000000" points="440,-223 440,-253 649,-253 649,-223 440,-223"/>
<text text-anchor="start" x="447" y="-234.4" font-family="Arial" font-size="14.00" fill="#000000">status </text>
<text text-anchor="start" x="488.237" y="-234.4" font-family="Arial" font-size="14.00" fill="#666666">[int(11)]</text>
<polygon fill="none" stroke="#000000" points="440,-193 440,-223 649,-223 649,-193 440,-193"/>
<text text-anchor="start" x="447" y="-204.4" font-family="Arial" font-size="14.00" fill="#000000">lft </text>
<text text-anchor="start" x="461.7784" y="-204.4" font-family="Arial" font-size="14.00" fill="#666666">[int(11)]</text>
<polygon fill="none" stroke="#000000" points="440,-163 440,-193 649,-193 649,-163 440,-163"/>
<text text-anchor="start" x="447" y="-174.4" font-family="Arial" font-size="14.00" fill="#000000">rgt </text>
<text text-anchor="start" x="467.2244" y="-174.4" font-family="Arial" font-size="14.00" fill="#666666">[int(11)]</text>
<polygon fill="none" stroke="#000000" points="440,-133 440,-163 649,-163 649,-133 440,-133"/>
<text text-anchor="start" x="447" y="-144.4" font-family="Arial" font-size="14.00" fill="#000000">inherit_members </text>
<text text-anchor="start" x="555.115" y="-144.4" font-family="Arial" font-size="14.00" fill="#666666">[tinyint(1)]</text>
<polygon fill="none" stroke="#000000" points="440,-103 440,-133 649,-133 649,-103 440,-103"/>
<text text-anchor="start" x="447" y="-114.4" font-family="Arial" font-size="14.00" fill="#000000">default_version_id </text>
<text text-anchor="start" x="564.4782" y="-114.4" font-family="Arial" font-size="14.00" fill="#666666">[int(11)]</text>
<polygon fill="none" stroke="#000000" points="440,-73 440,-103 649,-103 649,-73 440,-73"/>
<text text-anchor="start" x="446.857" y="-84.4" font-family="Arial" font-size="14.00" fill="#000000">default_assigned_to_id </text>
<text text-anchor="start" x="594.6956" y="-84.4" font-family="Arial" font-size="14.00" fill="#666666">[int(11)]</text>
<polygon fill="none" stroke="#000000" points="440,-43 440,-73 649,-73 649,-43 440,-43"/>
<text text-anchor="start" x="446.8633" y="-54.4" font-family="Arial" font-size="14.00" fill="#000000">default_issue_query_id </text>
<text text-anchor="start" x="594.6893" y="-54.4" font-family="Arial" font-size="14.00" fill="#666666">[int(11)]</text>
</g>
<!-- global_note_template_projects&#45;&gt;projects -->
<g id="edge2" class="edge">
<title>global_note_template_projects:project_id&#45;&gt;projects:id</title>
<path fill="none" stroke="#000000" stroke-dasharray="5,2" d="M554.9389,-705.8826C568.2635,-696.84 558.1868,-666.4616 545,-648 516.3256,-607.8558 468.6744,-652.1442 440,-612 413.1339,-574.3874 393.7778,-508 440,-508"/>
<polygon fill="#000000" stroke="#000000" points="554.6703,-705.9533 543.854,-704.1484 549.8351,-707.2266 545,-708.5 545,-708.5 545,-708.5 549.8351,-707.2266 546.146,-712.8516 554.6703,-705.9533 554.6703,-705.9533"/>
<text text-anchor="start" x="552.268" y="-718.5" font-family="Arial" font-size="10.00" fill="#000000">Detected Relation</text>
</g>
</g>
</svg>
