<?xml version="1.0" encoding="UTF-8" standalone="no"?>
<!DOCTYPE svg PUBLIC "-//W3C//DTD SVG 1.1//EN"
 "http://www.w3.org/Graphics/SVG/1.1/DTD/svg11.dtd">
<!-- Generated by graphviz version 2.40.1 (20161225.0304)
 -->
<!-- Title: global_issue_templates_projects Pages: 1 -->
<svg width="706pt" height="843pt"
 viewBox="0.00 0.00 706.00 843.00" xmlns="http://www.w3.org/2000/svg" xmlns:xlink="http://www.w3.org/1999/xlink">
<g id="graph0" class="graph" transform="scale(1 1) rotate(0) translate(4 839)">
<title>global_issue_templates_projects</title>
<polygon fill="#ffffff" stroke="transparent" points="-4,4 -4,-839 702,-839 702,4 -4,4"/>
<!-- global_issue_templates_projects -->
<g id="node1" class="node">
<title>global_issue_templates_projects</title>
<polygon fill="#efefef" stroke="transparent" points="141.5,-753.5 141.5,-788.5 513.5,-788.5 513.5,-753.5 141.5,-753.5"/>
<polygon fill="none" stroke="#000000" points="141.5,-753.5 141.5,-788.5 513.5,-788.5 513.5,-753.5 141.5,-753.5"/>
<text text-anchor="start" x="148.3425" y="-766.3" font-family="Arial Bold" font-size="18.00" fill="#000000">global_issue_templates_projects</text>
<text text-anchor="start" x="409.4037" y="-766.3" font-family="Arial" font-size="14.00" fill="#000000"> </text>
<text text-anchor="start" x="413.2943" y="-766.3" font-family="Arial" font-size="14.00" fill="#666666">[BASE TABLE]</text>
<polygon fill="none" stroke="#000000" points="141.5,-723.5 141.5,-753.5 513.5,-753.5 513.5,-723.5 141.5,-723.5"/>
<text text-anchor="start" x="148.5" y="-734.9" font-family="Arial" font-size="14.00" fill="#000000">project_id </text>
<text text-anchor="start" x="213.068" y="-734.9" font-family="Arial" font-size="14.00" fill="#666666">[int(11)]</text>
<polygon fill="none" stroke="#000000" points="141.5,-693.5 141.5,-723.5 513.5,-723.5 513.5,-693.5 141.5,-693.5"/>
<text text-anchor="start" x="148.5" y="-704.9" font-family="Arial" font-size="14.00" fill="#000000">global_issue_template_id </text>
<text text-anchor="start" x="310.3218" y="-704.9" font-family="Arial" font-size="14.00" fill="#666666">[int(11)]</text>
<polygon fill="none" stroke="#000000" stroke-width="3" points="140,-692.5 140,-790.5 515,-790.5 515,-692.5 140,-692.5"/>
</g>
<!-- projects -->
<g id="node2" class="node">
<title>projects</title>
<polygon fill="#efefef" stroke="transparent" points="43.5,-523 43.5,-569 252.5,-569 252.5,-523 43.5,-523"/>
<polygon fill="none" stroke="#000000" points="43.5,-523 43.5,-569 252.5,-569 252.5,-523 43.5,-523"/>
<text text-anchor="start" x="67.8695" y="-546.8" font-family="Arial Bold" font-size="18.00" fill="#000000">projects</text>
<text text-anchor="start" x="130.8767" y="-546.8" font-family="Arial" font-size="14.00" fill="#000000"> </text>
<text text-anchor="start" x="134.7673" y="-546.8" font-family="Arial" font-size="14.00" fill="#666666">[BASE TABLE]</text>
<text text-anchor="start" x="105.6269" y="-532.4" font-family="Arial" font-size="14.00" fill="#333333">プロジェクト</text>
<polygon fill="none" stroke="#000000" points="43.5,-493 43.5,-523 252.5,-523 252.5,-493 43.5,-493"/>
<text text-anchor="start" x="50.5" y="-504.4" font-family="Arial" font-size="14.00" fill="#000000">id </text>
<text text-anchor="start" x="65.2798" y="-504.4" font-family="Arial" font-size="14.00" fill="#666666">[int(11)]</text>
<polygon fill="none" stroke="#000000" points="43.5,-463 43.5,-493 252.5,-493 252.5,-463 43.5,-463"/>
<text text-anchor="start" x="50.5" y="-474.4" font-family="Arial" font-size="14.00" fill="#000000">name </text>
<text text-anchor="start" x="89.399" y="-474.4" font-family="Arial" font-size="14.00" fill="#666666">[varchar(255)]</text>
<polygon fill="none" stroke="#000000" points="43.5,-433 43.5,-463 252.5,-463 252.5,-433 43.5,-433"/>
<text text-anchor="start" x="50.5" y="-444.4" font-family="Arial" font-size="14.00" fill="#000000">description </text>
<text text-anchor="start" x="122.068" y="-444.4" font-family="Arial" font-size="14.00" fill="#666666">[text]</text>
<polygon fill="none" stroke="#000000" points="43.5,-403 43.5,-433 252.5,-433 252.5,-403 43.5,-403"/>
<text text-anchor="start" x="50.5" y="-414.4" font-family="Arial" font-size="14.00" fill="#000000">homepage </text>
<text text-anchor="start" x="120.5294" y="-414.4" font-family="Arial" font-size="14.00" fill="#666666">[varchar(255)]</text>
<polygon fill="none" stroke="#000000" points="43.5,-373 43.5,-403 252.5,-403 252.5,-373 43.5,-373"/>
<text text-anchor="start" x="50.5" y="-384.4" font-family="Arial" font-size="14.00" fill="#000000">is_public </text>
<text text-anchor="start" x="108.8408" y="-384.4" font-family="Arial" font-size="14.00" fill="#666666">[tinyint(1)]</text>
<polygon fill="none" stroke="#000000" points="43.5,-343 43.5,-373 252.5,-373 252.5,-343 43.5,-343"/>
<text text-anchor="start" x="50.5" y="-354.4" font-family="Arial" font-size="14.00" fill="#000000">parent_id </text>
<text text-anchor="start" x="112.744" y="-354.4" font-family="Arial" font-size="14.00" fill="#666666">[int(11)]</text>
<polygon fill="none" stroke="#000000" points="43.5,-313 43.5,-343 252.5,-343 252.5,-313 43.5,-313"/>
<text text-anchor="start" x="50.5" y="-324.4" font-family="Arial" font-size="14.00" fill="#000000">created_on </text>
<text text-anchor="start" x="124.42" y="-324.4" font-family="Arial" font-size="14.00" fill="#666666">[timestamp]</text>
<polygon fill="none" stroke="#000000" points="43.5,-283 43.5,-313 252.5,-313 252.5,-283 43.5,-283"/>
<text text-anchor="start" x="50.5" y="-294.4" font-family="Arial" font-size="14.00" fill="#000000">updated_on </text>
<text text-anchor="start" x="128.3246" y="-294.4" font-family="Arial" font-size="14.00" fill="#666666">[timestamp]</text>
<polygon fill="none" stroke="#000000" points="43.5,-253 43.5,-283 252.5,-283 252.5,-253 43.5,-253"/>
<text text-anchor="start" x="50.5" y="-264.4" font-family="Arial" font-size="14.00" fill="#000000">identifier </text>
<text text-anchor="start" x="107.2826" y="-264.4" font-family="Arial" font-size="14.00" fill="#666666">[varchar(255)]</text>
<polygon fill="none" stroke="#000000" points="43.5,-223 43.5,-253 252.5,-253 252.5,-223 43.5,-223"/>
<text text-anchor="start" x="50.5" y="-234.4" font-family="Arial" font-size="14.00" fill="#000000">status </text>
<text text-anchor="start" x="91.737" y="-234.4" font-family="Arial" font-size="14.00" fill="#666666">[int(11)]</text>
<polygon fill="none" stroke="#000000" points="43.5,-193 43.5,-223 252.5,-223 252.5,-193 43.5,-193"/>
<text text-anchor="start" x="50.5" y="-204.4" font-family="Arial" font-size="14.00" fill="#000000">lft </text>
<text text-anchor="start" x="65.2784" y="-204.4" font-family="Arial" font-size="14.00" fill="#666666">[int(11)]</text>
<polygon fill="none" stroke="#000000" points="43.5,-163 43.5,-193 252.5,-193 252.5,-163 43.5,-163"/>
<text text-anchor="start" x="50.5" y="-174.4" font-family="Arial" font-size="14.00" fill="#000000">rgt </text>
<text text-anchor="start" x="70.7244" y="-174.4" font-family="Arial" font-size="14.00" fill="#666666">[int(11)]</text>
<polygon fill="none" stroke="#000000" points="43.5,-133 43.5,-163 252.5,-163 252.5,-133 43.5,-133"/>
<text text-anchor="start" x="50.5" y="-144.4" font-family="Arial" font-size="14.00" fill="#000000">inherit_members </text>
<text text-anchor="start" x="158.615" y="-144.4" font-family="Arial" font-size="14.00" fill="#666666">[tinyint(1)]</text>
<polygon fill="none" stroke="#000000" points="43.5,-103 43.5,-133 252.5,-133 252.5,-103 43.5,-103"/>
<text text-anchor="start" x="50.5" y="-114.4" font-family="Arial" font-size="14.00" fill="#000000">default_version_id </text>
<text text-anchor="start" x="167.9782" y="-114.4" font-family="Arial" font-size="14.00" fill="#666666">[int(11)]</text>
<polygon fill="none" stroke="#000000" points="43.5,-73 43.5,-103 252.5,-103 252.5,-73 43.5,-73"/>
<text text-anchor="start" x="50.357" y="-84.4" font-family="Arial" font-size="14.00" fill="#000000">default_assigned_to_id </text>
<text text-anchor="start" x="198.1956" y="-84.4" font-family="Arial" font-size="14.00" fill="#666666">[int(11)]</text>
<polygon fill="none" stroke="#000000" points="43.5,-43 43.5,-73 252.5,-73 252.5,-43 43.5,-43"/>
<text text-anchor="start" x="50.3633" y="-54.4" font-family="Arial" font-size="14.00" fill="#000000">default_issue_query_id </text>
<text text-anchor="start" x="198.1893" y="-54.4" font-family="Arial" font-size="14.00" fill="#666666">[int(11)]</text>
</g>
<!-- global_issue_templates_projects&#45;&gt;projects -->
<g id="edge1" class="edge">
<title>global_issue_templates_projects:project_id&#45;&gt;projects:id</title>
<path fill="none" stroke="#000000" stroke-dasharray="5,2" d="M131.2947,-736.9193C104.5819,-727.4211 120.1589,-677.3569 141.5,-648 171.9956,-606.0501 222.0044,-653.9499 252.5,-612 279.6788,-574.6128 298.7222,-508 252.5,-508"/>
<polygon fill="#000000" stroke="#000000" points="131.6178,-736.9692 140.8111,-742.947 136.5589,-737.7346 141.5,-738.5 141.5,-738.5 141.5,-738.5 136.5589,-737.7346 142.1889,-734.053 131.6178,-736.9692 131.6178,-736.9692"/>
<text text-anchor="start" x="55.768" y="-748.5" font-family="Arial" font-size="10.00" fill="#000000">Detected Relation</text>
</g>
<!-- global_issue_templates -->
<g id="node3" class="node">
<title>global_issue_templates</title>
<polygon fill="#efefef" stroke="transparent" points="356.5,-528 356.5,-563 655.5,-563 655.5,-528 356.5,-528"/>
<polygon fill="none" stroke="#000000" points="356.5,-528 356.5,-563 655.5,-563 655.5,-528 356.5,-528"/>
<text text-anchor="start" x="363.3492" y="-540.8" font-family="Arial Bold" font-size="18.00" fill="#000000">global_issue_templates</text>
<text text-anchor="start" x="551.397" y="-540.8" font-family="Arial" font-size="14.00" fill="#000000"> </text>
<text text-anchor="start" x="555.2876" y="-540.8" font-family="Arial" font-size="14.00" fill="#666666">[BASE TABLE]</text>
<polygon fill="none" stroke="#000000" points="356.5,-498 356.5,-528 655.5,-528 655.5,-498 356.5,-498"/>
<text text-anchor="start" x="363.5" y="-509.4" font-family="Arial" font-size="14.00" fill="#000000">id </text>
<text text-anchor="start" x="378.2798" y="-509.4" font-family="Arial" font-size="14.00" fill="#666666">[int(11)]</text>
<polygon fill="none" stroke="#000000" points="356.5,-468 356.5,-498 655.5,-498 655.5,-468 356.5,-468"/>
<text text-anchor="start" x="363.5" y="-479.4" font-family="Arial" font-size="14.00" fill="#000000">title </text>
<text text-anchor="start" x="389.1676" y="-479.4" font-family="Arial" font-size="14.00" fill="#666666">[varchar(255)]</text>
<polygon fill="none" stroke="#000000" points="356.5,-438 356.5,-468 655.5,-468 655.5,-438 356.5,-438"/>
<text text-anchor="start" x="363.5" y="-449.4" font-family="Arial" font-size="14.00" fill="#000000">issue_title </text>
<text text-anchor="start" x="429.622" y="-449.4" font-family="Arial" font-size="14.00" fill="#666666">[varchar(255)]</text>
<polygon fill="none" stroke="#000000" points="356.5,-408 356.5,-438 655.5,-438 655.5,-408 356.5,-408"/>
<text text-anchor="start" x="363.5" y="-419.4" font-family="Arial" font-size="14.00" fill="#000000">tracker_id </text>
<text text-anchor="start" x="428.8394" y="-419.4" font-family="Arial" font-size="14.00" fill="#666666">[int(11)]</text>
<polygon fill="none" stroke="#000000" points="356.5,-378 356.5,-408 655.5,-408 655.5,-378 356.5,-378"/>
<text text-anchor="start" x="363.5" y="-389.4" font-family="Arial" font-size="14.00" fill="#000000">author_id </text>
<text text-anchor="start" x="425.744" y="-389.4" font-family="Arial" font-size="14.00" fill="#666666">[int(11)]</text>
<polygon fill="none" stroke="#000000" points="356.5,-348 356.5,-378 655.5,-378 655.5,-348 356.5,-348"/>
<text text-anchor="start" x="363.5" y="-359.4" font-family="Arial" font-size="14.00" fill="#000000">note </text>
<text text-anchor="start" x="394.629" y="-359.4" font-family="Arial" font-size="14.00" fill="#666666">[varchar(255)]</text>
<polygon fill="none" stroke="#000000" points="356.5,-318 356.5,-348 655.5,-348 655.5,-318 356.5,-318"/>
<text text-anchor="start" x="363.5" y="-329.4" font-family="Arial" font-size="14.00" fill="#000000">description </text>
<text text-anchor="start" x="435.068" y="-329.4" font-family="Arial" font-size="14.00" fill="#666666">[text]</text>
<polygon fill="none" stroke="#000000" points="356.5,-288 356.5,-318 655.5,-318 655.5,-288 356.5,-288"/>
<text text-anchor="start" x="363.5" y="-299.4" font-family="Arial" font-size="14.00" fill="#000000">enabled </text>
<text text-anchor="start" x="417.1928" y="-299.4" font-family="Arial" font-size="14.00" fill="#666666">[tinyint(1)]</text>
<polygon fill="none" stroke="#000000" points="356.5,-258 356.5,-288 655.5,-288 655.5,-258 356.5,-258"/>
<text text-anchor="start" x="363.5" y="-269.4" font-family="Arial" font-size="14.00" fill="#000000">position </text>
<text text-anchor="start" x="415.6248" y="-269.4" font-family="Arial" font-size="14.00" fill="#666666">[int(11)]</text>
<polygon fill="none" stroke="#000000" points="356.5,-228 356.5,-258 655.5,-258 655.5,-228 356.5,-228"/>
<text text-anchor="start" x="363.5" y="-239.4" font-family="Arial" font-size="14.00" fill="#000000">created_on </text>
<text text-anchor="start" x="437.42" y="-239.4" font-family="Arial" font-size="14.00" fill="#666666">[timestamp]</text>
<polygon fill="none" stroke="#000000" points="356.5,-198 356.5,-228 655.5,-228 655.5,-198 356.5,-198"/>
<text text-anchor="start" x="363.5" y="-209.4" font-family="Arial" font-size="14.00" fill="#000000">updated_on </text>
<text text-anchor="start" x="441.3246" y="-209.4" font-family="Arial" font-size="14.00" fill="#666666">[timestamp]</text>
<polygon fill="none" stroke="#000000" points="356.5,-168 356.5,-198 655.5,-198 655.5,-168 356.5,-168"/>
<text text-anchor="start" x="363.5" y="-179.4" font-family="Arial" font-size="14.00" fill="#000000">checklist_json </text>
<text text-anchor="start" x="454.514" y="-179.4" font-family="Arial" font-size="14.00" fill="#666666">[text]</text>
<polygon fill="none" stroke="#000000" points="356.5,-138 356.5,-168 655.5,-168 655.5,-138 356.5,-138"/>
<text text-anchor="start" x="363.5" y="-149.4" font-family="Arial" font-size="14.00" fill="#000000">is_default </text>
<text text-anchor="start" x="427.298" y="-149.4" font-family="Arial" font-size="14.00" fill="#666666">[tinyint(1)]</text>
<polygon fill="none" stroke="#000000" points="356.5,-108 356.5,-138 655.5,-138 655.5,-108 356.5,-108"/>
<text text-anchor="start" x="363.5" y="-119.4" font-family="Arial" font-size="14.00" fill="#000000">related_link </text>
<text text-anchor="start" x="438.9572" y="-119.4" font-family="Arial" font-size="14.00" fill="#666666">[text]</text>
<polygon fill="none" stroke="#000000" points="356.5,-78 356.5,-108 655.5,-108 655.5,-78 356.5,-78"/>
<text text-anchor="start" x="363.5" y="-89.4" font-family="Arial" font-size="14.00" fill="#000000">link_title </text>
<text text-anchor="start" x="417.946" y="-89.4" font-family="Arial" font-size="14.00" fill="#666666">[text]</text>
<polygon fill="none" stroke="#000000" points="356.5,-48 356.5,-78 655.5,-78 655.5,-48 356.5,-48"/>
<text text-anchor="start" x="363.5" y="-59.4" font-family="Arial" font-size="14.00" fill="#000000">builtin_fields_json </text>
<text text-anchor="start" x="477.8548" y="-59.4" font-family="Arial" font-size="14.00" fill="#666666">[text]</text>
</g>
<!-- global_issue_templates_projects&#45;&gt;global_issue_templates -->
<g id="edge2" class="edge">
<title>global_issue_templates_projects:global_issue_template_id&#45;&gt;global_issue_templates:id</title>
<path fill="none" stroke="#000000" stroke-dasharray="5,2" d="M523.4869,-705.847C536.9681,-696.6883 527.3417,-665.9758 513.5,-648 469.4664,-590.8145 400.5336,-663.6855 356.5,-606.5 331.1469,-573.5745 314.9444,-513 356.5,-513"/>
<polygon fill="#000000" stroke="#000000" points="523.1648,-705.9325 512.3446,-704.1508 518.3324,-707.2163 513.5,-708.5 513.5,-708.5 513.5,-708.5 518.3324,-707.2163 514.6554,-712.8492 523.1648,-705.9325 523.1648,-705.9325"/>
<text text-anchor="start" x="520.768" y="-718.5" font-family="Arial" font-size="10.00" fill="#000000">Detected Relation</text>
</g>
</g>
</svg>
