<?xml version="1.0" encoding="UTF-8" standalone="no"?>
<!DOCTYPE svg PUBLIC "-//W3C//DTD SVG 1.1//EN"
 "http://www.w3.org/Graphics/SVG/1.1/DTD/svg11.dtd">
<!-- Generated by graphviz version 2.40.1 (20161225.0304)
 -->
<!-- Title: global_note_visible_roles Pages: 1 -->
<svg width="413pt" height="285pt"
 viewBox="0.00 0.00 413.00 285.00" xmlns="http://www.w3.org/2000/svg" xmlns:xlink="http://www.w3.org/1999/xlink">
<g id="graph0" class="graph" transform="scale(1 1) rotate(0) translate(4 281)">
<title>global_note_visible_roles</title>
<polygon fill="#ffffff" stroke="transparent" points="-4,4 -4,-281 409,-281 409,4 -4,4"/>
<!-- global_note_visible_roles -->
<g id="node1" class="node">
<title>global_note_visible_roles</title>
<polygon fill="#efefef" stroke="transparent" points="46.5,-195.5 46.5,-230.5 359.5,-230.5 359.5,-195.5 46.5,-195.5"/>
<polygon fill="none" stroke="#000000" points="46.5,-195.5 46.5,-230.5 359.5,-230.5 359.5,-195.5 46.5,-195.5"/>
<text text-anchor="start" x="53.3499" y="-208.3" font-family="Arial Bold" font-size="18.00" fill="#000000">global_note_visible_roles</text>
<text text-anchor="start" x="255.3963" y="-208.3" font-family="Arial" font-size="14.00" fill="#000000"> </text>
<text text-anchor="start" x="259.2869" y="-208.3" font-family="Arial" font-size="14.00" fill="#666666">[BASE TABLE]</text>
<polygon fill="none" stroke="#000000" points="46.5,-165.5 46.5,-195.5 359.5,-195.5 359.5,-165.5 46.5,-165.5"/>
<text text-anchor="start" x="53.5" y="-176.9" font-family="Arial" font-size="14.00" fill="#000000">id </text>
<text text-anchor="start" x="68.2798" y="-176.9" font-family="Arial" font-size="14.00" fill="#666666">[bigint(20)]</text>
<polygon fill="none" stroke="#000000" points="46.5,-135.5 46.5,-165.5 359.5,-165.5 359.5,-135.5 46.5,-135.5"/>
<text text-anchor="start" x="53.5" y="-146.9" font-family="Arial" font-size="14.00" fill="#000000">global_note_template_id </text>
<text text-anchor="start" x="209.8884" y="-146.9" font-family="Arial" font-size="14.00" fill="#666666">[int(11)]</text>
<polygon fill="none" stroke="#000000" points="46.5,-105.5 46.5,-135.5 359.5,-135.5 359.5,-105.5 46.5,-105.5"/>
<text text-anchor="start" x="53.5" y="-116.9" font-family="Arial" font-size="14.00" fill="#000000">role_id </text>
<text text-anchor="start" x="99.3948" y="-116.9" font-family="Arial" font-size="14.00" fill="#666666">[int(11)]</text>
<polygon fill="none" stroke="#000000" points="46.5,-75.5 46.5,-105.5 359.5,-105.5 359.5,-75.5 46.5,-75.5"/>
<text text-anchor="start" x="53.5" y="-86.9" font-family="Arial" font-size="14.00" fill="#000000">created_at </text>
<text text-anchor="start" x="123.528" y="-86.9" font-family="Arial" font-size="14.00" fill="#666666">[datetime]</text>
<polygon fill="none" stroke="#000000" points="46.5,-45.5 46.5,-75.5 359.5,-75.5 359.5,-45.5 46.5,-45.5"/>
<text text-anchor="start" x="53.5" y="-56.9" font-family="Arial" font-size="14.00" fill="#000000">updated_at </text>
<text text-anchor="start" x="127.4326" y="-56.9" font-family="Arial" font-size="14.00" fill="#666666">[datetime]</text>
<polygon fill="none" stroke="#000000" stroke-width="3" points="44.5,-44.5 44.5,-232.5 360.5,-232.5 360.5,-44.5 44.5,-44.5"/>
</g>
</g>
</svg>
