<?xml version="1.0" encoding="UTF-8" standalone="no"?>
<!DOCTYPE svg PUBLIC "-//W3C//DTD SVG 1.1//EN"
 "http://www.w3.org/Graphics/SVG/1.1/DTD/svg11.dtd">
<!-- Generated by graphviz version 2.40.1 (20161225.0304)
 -->
<!-- Title: global_note_templates Pages: 1 -->
<svg width="868pt" height="1150pt"
 viewBox="0.00 0.00 867.50 1150.00" xmlns="http://www.w3.org/2000/svg" xmlns:xlink="http://www.w3.org/1999/xlink">
<g id="graph0" class="graph" transform="scale(1 1) rotate(0) translate(4 1146)">
<title>global_note_templates</title>
<polygon fill="#ffffff" stroke="transparent" points="-4,4 -4,-1146 863.5,-1146 863.5,4 -4,4"/>
<!-- global_note_templates -->
<g id="node1" class="node">
<title>global_note_templates</title>
<polygon fill="#efefef" stroke="transparent" points="295,-753.5 295,-788.5 587,-788.5 587,-753.5 295,-753.5"/>
<polygon fill="none" stroke="#000000" points="295,-753.5 295,-788.5 587,-788.5 587,-753.5 295,-753.5"/>
<text text-anchor="start" x="301.8421" y="-766.3" font-family="Arial Bold" font-size="18.00" fill="#000000">global_note_templates</text>
<text text-anchor="start" x="482.9041" y="-766.3" font-family="Arial" font-size="14.00" fill="#000000"> </text>
<text text-anchor="start" x="486.7947" y="-766.3" font-family="Arial" font-size="14.00" fill="#666666">[BASE TABLE]</text>
<polygon fill="none" stroke="#000000" points="295,-723.5 295,-753.5 587,-753.5 587,-723.5 295,-723.5"/>
<text text-anchor="start" x="302" y="-734.9" font-family="Arial" font-size="14.00" fill="#000000">id </text>
<text text-anchor="start" x="316.7798" y="-734.9" font-family="Arial" font-size="14.00" fill="#666666">[bigint(20)]</text>
<polygon fill="none" stroke="#000000" points="295,-693.5 295,-723.5 587,-723.5 587,-693.5 295,-693.5"/>
<text text-anchor="start" x="302" y="-704.9" font-family="Arial" font-size="14.00" fill="#000000">name </text>
<text text-anchor="start" x="340.899" y="-704.9" font-family="Arial" font-size="14.00" fill="#666666">[varchar(255)]</text>
<polygon fill="none" stroke="#000000" points="295,-663.5 295,-693.5 587,-693.5 587,-663.5 295,-663.5"/>
<text text-anchor="start" x="302" y="-674.9" font-family="Arial" font-size="14.00" fill="#000000">description </text>
<text text-anchor="start" x="373.568" y="-674.9" font-family="Arial" font-size="14.00" fill="#666666">[text]</text>
<polygon fill="none" stroke="#000000" points="295,-633.5 295,-663.5 587,-663.5 587,-633.5 295,-633.5"/>
<text text-anchor="start" x="302" y="-644.9" font-family="Arial" font-size="14.00" fill="#000000">memo </text>
<text text-anchor="start" x="344.777" y="-644.9" font-family="Arial" font-size="14.00" fill="#666666">[varchar(255)]</text>
<polygon fill="none" stroke="#000000" points="295,-603.5 295,-633.5 587,-633.5 587,-603.5 295,-603.5"/>
<text text-anchor="start" x="302" y="-614.9" font-family="Arial" font-size="14.00" fill="#000000">tracker_id </text>
<text text-anchor="start" x="367.3394" y="-614.9" font-family="Arial" font-size="14.00" fill="#666666">[int(11)]</text>
<polygon fill="none" stroke="#000000" points="295,-573.5 295,-603.5 587,-603.5 587,-573.5 295,-573.5"/>
<text text-anchor="start" x="302" y="-584.9" font-family="Arial" font-size="14.00" fill="#000000">author_id </text>
<text text-anchor="start" x="364.244" y="-584.9" font-family="Arial" font-size="14.00" fill="#666666">[int(11)]</text>
<polygon fill="none" stroke="#000000" points="295,-543.5 295,-573.5 587,-573.5 587,-543.5 295,-543.5"/>
<text text-anchor="start" x="302" y="-554.9" font-family="Arial" font-size="14.00" fill="#000000">enabled </text>
<text text-anchor="start" x="355.6928" y="-554.9" font-family="Arial" font-size="14.00" fill="#666666">[tinyint(1)]</text>
<polygon fill="none" stroke="#000000" points="295,-513.5 295,-543.5 587,-543.5 587,-513.5 295,-513.5"/>
<text text-anchor="start" x="302" y="-524.9" font-family="Arial" font-size="14.00" fill="#000000">position </text>
<text text-anchor="start" x="354.1248" y="-524.9" font-family="Arial" font-size="14.00" fill="#666666">[int(11)]</text>
<polygon fill="none" stroke="#000000" points="295,-483.5 295,-513.5 587,-513.5 587,-483.5 295,-483.5"/>
<text text-anchor="start" x="302" y="-494.9" font-family="Arial" font-size="14.00" fill="#000000">visibility </text>
<text text-anchor="start" x="354.0968" y="-494.9" font-family="Arial" font-size="14.00" fill="#666666">[int(11)]</text>
<polygon fill="none" stroke="#000000" points="295,-453.5 295,-483.5 587,-483.5 587,-453.5 295,-453.5"/>
<text text-anchor="start" x="302" y="-464.9" font-family="Arial" font-size="14.00" fill="#000000">created_at </text>
<text text-anchor="start" x="372.028" y="-464.9" font-family="Arial" font-size="14.00" fill="#666666">[datetime]</text>
<polygon fill="none" stroke="#000000" points="295,-423.5 295,-453.5 587,-453.5 587,-423.5 295,-423.5"/>
<text text-anchor="start" x="302" y="-434.9" font-family="Arial" font-size="14.00" fill="#000000">updated_at </text>
<text text-anchor="start" x="375.9326" y="-434.9" font-family="Arial" font-size="14.00" fill="#666666">[datetime]</text>
<polygon fill="none" stroke="#000000" stroke-width="3" points="293.5,-422.5 293.5,-790.5 588.5,-790.5 588.5,-422.5 293.5,-422.5"/>
</g>
<!-- trackers -->
<g id="node4" class="node">
<title>trackers</title>
<polygon fill="#efefef" stroke="transparent" points="353,-253 353,-299 528,-299 528,-253 353,-253"/>
<polygon fill="none" stroke="#000000" points="353,-253 353,-299 528,-299 528,-253 353,-253"/>
<text text-anchor="start" x="359.8736" y="-276.8" font-family="Arial Bold" font-size="18.00" fill="#000000">trackers</text>
<text text-anchor="start" x="423.8726" y="-276.8" font-family="Arial" font-size="14.00" fill="#000000"> </text>
<text text-anchor="start" x="427.7632" y="-276.8" font-family="Arial" font-size="14.00" fill="#666666">[BASE TABLE]</text>
<text text-anchor="start" x="401.7088" y="-262.4" font-family="Arial" font-size="14.00" fill="#333333">トラッカー</text>
<polygon fill="none" stroke="#000000" points="353,-223 353,-253 528,-253 528,-223 353,-223"/>
<text text-anchor="start" x="360" y="-234.4" font-family="Arial" font-size="14.00" fill="#000000">id </text>
<text text-anchor="start" x="374.7798" y="-234.4" font-family="Arial" font-size="14.00" fill="#666666">[int(11)]</text>
<polygon fill="none" stroke="#000000" points="353,-193 353,-223 528,-223 528,-193 353,-193"/>
<text text-anchor="start" x="360" y="-204.4" font-family="Arial" font-size="14.00" fill="#000000">name </text>
<text text-anchor="start" x="398.899" y="-204.4" font-family="Arial" font-size="14.00" fill="#666666">[varchar(30)]</text>
<polygon fill="none" stroke="#000000" points="353,-163 353,-193 528,-193 528,-163 353,-163"/>
<text text-anchor="start" x="360" y="-174.4" font-family="Arial" font-size="14.00" fill="#000000">description </text>
<text text-anchor="start" x="431.568" y="-174.4" font-family="Arial" font-size="14.00" fill="#666666">[varchar(255)]</text>
<polygon fill="none" stroke="#000000" points="353,-133 353,-163 528,-163 528,-133 353,-133"/>
<text text-anchor="start" x="360" y="-144.4" font-family="Arial" font-size="14.00" fill="#000000">position </text>
<text text-anchor="start" x="412.1248" y="-144.4" font-family="Arial" font-size="14.00" fill="#666666">[int(11)]</text>
<polygon fill="none" stroke="#000000" points="353,-103 353,-133 528,-133 528,-103 353,-103"/>
<text text-anchor="start" x="360" y="-114.4" font-family="Arial" font-size="14.00" fill="#000000">is_in_roadmap </text>
<text text-anchor="start" x="455.6858" y="-114.4" font-family="Arial" font-size="14.00" fill="#666666">[tinyint(1)]</text>
<polygon fill="none" stroke="#000000" points="353,-73 353,-103 528,-103 528,-73 353,-73"/>
<text text-anchor="start" x="360" y="-84.4" font-family="Arial" font-size="14.00" fill="#000000">fields_bits </text>
<text text-anchor="start" x="426.122" y="-84.4" font-family="Arial" font-size="14.00" fill="#666666">[int(11)]</text>
<polygon fill="none" stroke="#000000" points="353,-43 353,-73 528,-73 528,-43 353,-43"/>
<text text-anchor="start" x="360" y="-54.4" font-family="Arial" font-size="14.00" fill="#000000">default_status_id </text>
<text text-anchor="start" x="469.7096" y="-54.4" font-family="Arial" font-size="14.00" fill="#666666">[int(11)]</text>
</g>
<!-- global_note_templates&#45;&gt;trackers -->
<g id="edge3" class="edge">
<title>global_note_templates:tracker_id&#45;&gt;trackers:id</title>
<path fill="none" stroke="#000000" stroke-dasharray="5,2" d="M284.8257,-617.9817C190.6247,-608.0042 227.7375,-456.4531 295,-378 363.2027,-298.4503 459.7973,-421.5497 528,-342 558.0854,-306.9092 574.2222,-238 528,-238"/>
<polygon fill="#000000" stroke="#000000" points="285.013,-617.9911 294.771,-622.9942 290.0065,-618.2456 295,-618.5 295,-618.5 295,-618.5 290.0065,-618.2456 295.229,-614.0058 285.013,-617.9911 285.013,-617.9911"/>
<text text-anchor="start" x="209.268" y="-628.5" font-family="Arial" font-size="10.00" fill="#000000">Detected Relation</text>
</g>
<!-- global_note_template_projects -->
<g id="node2" class="node">
<title>global_note_template_projects</title>
<polygon fill="#efefef" stroke="transparent" points="43,-1018.5 43,-1053.5 399,-1053.5 399,-1018.5 43,-1018.5"/>
<polygon fill="none" stroke="#000000" points="43,-1018.5 43,-1053.5 399,-1053.5 399,-1018.5 43,-1018.5"/>
<text text-anchor="start" x="49.8354" y="-1031.3" font-family="Arial Bold" font-size="18.00" fill="#000000">global_note_template_projects</text>
<text text-anchor="start" x="294.9108" y="-1031.3" font-family="Arial" font-size="14.00" fill="#000000"> </text>
<text text-anchor="start" x="298.8014" y="-1031.3" font-family="Arial" font-size="14.00" fill="#666666">[BASE TABLE]</text>
<polygon fill="none" stroke="#000000" points="43,-988.5 43,-1018.5 399,-1018.5 399,-988.5 43,-988.5"/>
<text text-anchor="start" x="50" y="-999.9" font-family="Arial" font-size="14.00" fill="#000000">global_note_template_id </text>
<text text-anchor="start" x="206.3884" y="-999.9" font-family="Arial" font-size="14.00" fill="#666666">[bigint(20)]</text>
<polygon fill="none" stroke="#000000" points="43,-958.5 43,-988.5 399,-988.5 399,-958.5 43,-958.5"/>
<text text-anchor="start" x="50" y="-969.9" font-family="Arial" font-size="14.00" fill="#000000">project_id </text>
<text text-anchor="start" x="114.568" y="-969.9" font-family="Arial" font-size="14.00" fill="#666666">[bigint(20)]</text>
</g>
<!-- global_note_template_projects&#45;&gt;global_note_templates -->
<g id="edge1" class="edge">
<title>global_note_template_projects:global_note_template_id&#45;&gt;global_note_templates:id</title>
<path fill="none" stroke="#000000" stroke-dasharray="5,2" d="M409.0391,-1001.9471C433.5067,-993.0055 414.3402,-947.3916 399,-916 373.277,-863.3614 320.723,-887.6386 295,-835 276.1695,-796.466 252.1111,-738.5 295,-738.5"/>
<polygon fill="#000000" stroke="#000000" points="408.8825,-1001.9712 398.312,-999.0529 403.9412,-1002.7356 399,-1003.5 399,-1003.5 399,-1003.5 403.9412,-1002.7356 399.688,-1007.9471 408.8825,-1001.9712 408.8825,-1001.9712"/>
<text text-anchor="start" x="406.268" y="-1013.5" font-family="Arial" font-size="10.00" fill="#000000">Detected Relation</text>
</g>
<!-- global_note_visible_roles -->
<g id="node3" class="node">
<title>global_note_visible_roles</title>
<polygon fill="#efefef" stroke="transparent" points="504,-1063.5 504,-1098.5 817,-1098.5 817,-1063.5 504,-1063.5"/>
<polygon fill="none" stroke="#000000" points="504,-1063.5 504,-1098.5 817,-1098.5 817,-1063.5 504,-1063.5"/>
<text text-anchor="start" x="510.8499" y="-1076.3" font-family="Arial Bold" font-size="18.00" fill="#000000">global_note_visible_roles</text>
<text text-anchor="start" x="712.8963" y="-1076.3" font-family="Arial" font-size="14.00" fill="#000000"> </text>
<text text-anchor="start" x="716.7869" y="-1076.3" font-family="Arial" font-size="14.00" fill="#666666">[BASE TABLE]</text>
<polygon fill="none" stroke="#000000" points="504,-1033.5 504,-1063.5 817,-1063.5 817,-1033.5 504,-1033.5"/>
<text text-anchor="start" x="511" y="-1044.9" font-family="Arial" font-size="14.00" fill="#000000">id </text>
<text text-anchor="start" x="525.7798" y="-1044.9" font-family="Arial" font-size="14.00" fill="#666666">[bigint(20)]</text>
<polygon fill="none" stroke="#000000" points="504,-1003.5 504,-1033.5 817,-1033.5 817,-1003.5 504,-1003.5"/>
<text text-anchor="start" x="511" y="-1014.9" font-family="Arial" font-size="14.00" fill="#000000">global_note_template_id </text>
<text text-anchor="start" x="667.3884" y="-1014.9" font-family="Arial" font-size="14.00" fill="#666666">[int(11)]</text>
<polygon fill="none" stroke="#000000" points="504,-973.5 504,-1003.5 817,-1003.5 817,-973.5 504,-973.5"/>
<text text-anchor="start" x="511" y="-984.9" font-family="Arial" font-size="14.00" fill="#000000">role_id </text>
<text text-anchor="start" x="556.8948" y="-984.9" font-family="Arial" font-size="14.00" fill="#666666">[int(11)]</text>
<polygon fill="none" stroke="#000000" points="504,-943.5 504,-973.5 817,-973.5 817,-943.5 504,-943.5"/>
<text text-anchor="start" x="511" y="-954.9" font-family="Arial" font-size="14.00" fill="#000000">created_at </text>
<text text-anchor="start" x="581.028" y="-954.9" font-family="Arial" font-size="14.00" fill="#666666">[datetime]</text>
<polygon fill="none" stroke="#000000" points="504,-913.5 504,-943.5 817,-943.5 817,-913.5 504,-913.5"/>
<text text-anchor="start" x="511" y="-924.9" font-family="Arial" font-size="14.00" fill="#000000">updated_at </text>
<text text-anchor="start" x="584.9326" y="-924.9" font-family="Arial" font-size="14.00" fill="#666666">[datetime]</text>
</g>
<!-- global_note_visible_roles&#45;&gt;global_note_templates -->
<g id="edge2" class="edge">
<title>global_note_visible_roles:global_note_template_id&#45;&gt;global_note_templates:id</title>
<path fill="none" stroke="#000000" stroke-dasharray="5,2" d="M493.7602,-1017.6316C441.8166,-1008.1212 470.0688,-922.7026 504,-871 526.0617,-837.3835 564.9383,-868.6165 587,-835 610.5319,-799.1433 629.8889,-738.5 587,-738.5"/>
<polygon fill="#000000" stroke="#000000" points="494.0358,-1017.6549 503.6197,-1022.9839 499.0179,-1018.0774 504,-1018.5 504,-1018.5 504,-1018.5 499.0179,-1018.0774 504.3803,-1014.0161 494.0358,-1017.6549 494.0358,-1017.6549"/>
<text text-anchor="start" x="511.268" y="-1028.5" font-family="Arial" font-size="10.00" fill="#000000">Detected Relation</text>
</g>
</g>
</svg>
