<?xml version="1.0" encoding="UTF-8" standalone="no"?>
<!DOCTYPE svg PUBLIC "-//W3C//DTD SVG 1.1//EN"
 "http://www.w3.org/Graphics/SVG/1.1/DTD/svg11.dtd">
<!-- Generated by graphviz version 2.40.1 (20161225.0304)
 -->
<!-- Title: global_issue_templates Pages: 1 -->
<svg width="480pt" height="1210pt"
 viewBox="0.00 0.00 480.00 1210.00" xmlns="http://www.w3.org/2000/svg" xmlns:xlink="http://www.w3.org/1999/xlink">
<g id="graph0" class="graph" transform="scale(1 1) rotate(0) translate(4 1206)">
<title>global_issue_templates</title>
<polygon fill="#ffffff" stroke="transparent" points="-4,4 -4,-1206 476,-1206 476,4 -4,4"/>
<!-- global_issue_templates -->
<g id="node1" class="node">
<title>global_issue_templates</title>
<polygon fill="#efefef" stroke="transparent" points="93,-903.5 93,-938.5 392,-938.5 392,-903.5 93,-903.5"/>
<polygon fill="none" stroke="#000000" points="93,-903.5 93,-938.5 392,-938.5 392,-903.5 93,-903.5"/>
<text text-anchor="start" x="99.8492" y="-916.3" font-family="Arial Bold" font-size="18.00" fill="#000000">global_issue_templates</text>
<text text-anchor="start" x="287.897" y="-916.3" font-family="Arial" font-size="14.00" fill="#000000"> </text>
<text text-anchor="start" x="291.7876" y="-916.3" font-family="Arial" font-size="14.00" fill="#666666">[BASE TABLE]</text>
<polygon fill="none" stroke="#000000" points="93,-873.5 93,-903.5 392,-903.5 392,-873.5 93,-873.5"/>
<text text-anchor="start" x="100" y="-884.9" font-family="Arial" font-size="14.00" fill="#000000">id </text>
<text text-anchor="start" x="114.7798" y="-884.9" font-family="Arial" font-size="14.00" fill="#666666">[int(11)]</text>
<polygon fill="none" stroke="#000000" points="93,-843.5 93,-873.5 392,-873.5 392,-843.5 93,-843.5"/>
<text text-anchor="start" x="100" y="-854.9" font-family="Arial" font-size="14.00" fill="#000000">title </text>
<text text-anchor="start" x="125.6676" y="-854.9" font-family="Arial" font-size="14.00" fill="#666666">[varchar(255)]</text>
<polygon fill="none" stroke="#000000" points="93,-813.5 93,-843.5 392,-843.5 392,-813.5 93,-813.5"/>
<text text-anchor="start" x="100" y="-824.9" font-family="Arial" font-size="14.00" fill="#000000">issue_title </text>
<text text-anchor="start" x="166.122" y="-824.9" font-family="Arial" font-size="14.00" fill="#666666">[varchar(255)]</text>
<polygon fill="none" stroke="#000000" points="93,-783.5 93,-813.5 392,-813.5 392,-783.5 93,-783.5"/>
<text text-anchor="start" x="100" y="-794.9" font-family="Arial" font-size="14.00" fill="#000000">tracker_id </text>
<text text-anchor="start" x="165.3394" y="-794.9" font-family="Arial" font-size="14.00" fill="#666666">[int(11)]</text>
<polygon fill="none" stroke="#000000" points="93,-753.5 93,-783.5 392,-783.5 392,-753.5 93,-753.5"/>
<text text-anchor="start" x="100" y="-764.9" font-family="Arial" font-size="14.00" fill="#000000">author_id </text>
<text text-anchor="start" x="162.244" y="-764.9" font-family="Arial" font-size="14.00" fill="#666666">[int(11)]</text>
<polygon fill="none" stroke="#000000" points="93,-723.5 93,-753.5 392,-753.5 392,-723.5 93,-723.5"/>
<text text-anchor="start" x="100" y="-734.9" font-family="Arial" font-size="14.00" fill="#000000">note </text>
<text text-anchor="start" x="131.129" y="-734.9" font-family="Arial" font-size="14.00" fill="#666666">[varchar(255)]</text>
<polygon fill="none" stroke="#000000" points="93,-693.5 93,-723.5 392,-723.5 392,-693.5 93,-693.5"/>
<text text-anchor="start" x="100" y="-704.9" font-family="Arial" font-size="14.00" fill="#000000">description </text>
<text text-anchor="start" x="171.568" y="-704.9" font-family="Arial" font-size="14.00" fill="#666666">[text]</text>
<polygon fill="none" stroke="#000000" points="93,-663.5 93,-693.5 392,-693.5 392,-663.5 93,-663.5"/>
<text text-anchor="start" x="100" y="-674.9" font-family="Arial" font-size="14.00" fill="#000000">enabled </text>
<text text-anchor="start" x="153.6928" y="-674.9" font-family="Arial" font-size="14.00" fill="#666666">[tinyint(1)]</text>
<polygon fill="none" stroke="#000000" points="93,-633.5 93,-663.5 392,-663.5 392,-633.5 93,-633.5"/>
<text text-anchor="start" x="100" y="-644.9" font-family="Arial" font-size="14.00" fill="#000000">position </text>
<text text-anchor="start" x="152.1248" y="-644.9" font-family="Arial" font-size="14.00" fill="#666666">[int(11)]</text>
<polygon fill="none" stroke="#000000" points="93,-603.5 93,-633.5 392,-633.5 392,-603.5 93,-603.5"/>
<text text-anchor="start" x="100" y="-614.9" font-family="Arial" font-size="14.00" fill="#000000">created_on </text>
<text text-anchor="start" x="173.92" y="-614.9" font-family="Arial" font-size="14.00" fill="#666666">[timestamp]</text>
<polygon fill="none" stroke="#000000" points="93,-573.5 93,-603.5 392,-603.5 392,-573.5 93,-573.5"/>
<text text-anchor="start" x="100" y="-584.9" font-family="Arial" font-size="14.00" fill="#000000">updated_on </text>
<text text-anchor="start" x="177.8246" y="-584.9" font-family="Arial" font-size="14.00" fill="#666666">[timestamp]</text>
<polygon fill="none" stroke="#000000" points="93,-543.5 93,-573.5 392,-573.5 392,-543.5 93,-543.5"/>
<text text-anchor="start" x="100" y="-554.9" font-family="Arial" font-size="14.00" fill="#000000">checklist_json </text>
<text text-anchor="start" x="191.014" y="-554.9" font-family="Arial" font-size="14.00" fill="#666666">[text]</text>
<polygon fill="none" stroke="#000000" points="93,-513.5 93,-543.5 392,-543.5 392,-513.5 93,-513.5"/>
<text text-anchor="start" x="100" y="-524.9" font-family="Arial" font-size="14.00" fill="#000000">is_default </text>
<text text-anchor="start" x="163.798" y="-524.9" font-family="Arial" font-size="14.00" fill="#666666">[tinyint(1)]</text>
<polygon fill="none" stroke="#000000" points="93,-483.5 93,-513.5 392,-513.5 392,-483.5 93,-483.5"/>
<text text-anchor="start" x="100" y="-494.9" font-family="Arial" font-size="14.00" fill="#000000">related_link </text>
<text text-anchor="start" x="175.4572" y="-494.9" font-family="Arial" font-size="14.00" fill="#666666">[text]</text>
<polygon fill="none" stroke="#000000" points="93,-453.5 93,-483.5 392,-483.5 392,-453.5 93,-453.5"/>
<text text-anchor="start" x="100" y="-464.9" font-family="Arial" font-size="14.00" fill="#000000">link_title </text>
<text text-anchor="start" x="154.446" y="-464.9" font-family="Arial" font-size="14.00" fill="#666666">[text]</text>
<polygon fill="none" stroke="#000000" points="93,-423.5 93,-453.5 392,-453.5 392,-423.5 93,-423.5"/>
<text text-anchor="start" x="100" y="-434.9" font-family="Arial" font-size="14.00" fill="#000000">builtin_fields_json </text>
<text text-anchor="start" x="214.3548" y="-434.9" font-family="Arial" font-size="14.00" fill="#666666">[text]</text>
<polygon fill="none" stroke="#000000" stroke-width="3" points="91,-422.5 91,-940.5 393,-940.5 393,-422.5 91,-422.5"/>
</g>
<!-- trackers -->
<g id="node3" class="node">
<title>trackers</title>
<polygon fill="#efefef" stroke="transparent" points="155,-253 155,-299 330,-299 330,-253 155,-253"/>
<polygon fill="none" stroke="#000000" points="155,-253 155,-299 330,-299 330,-253 155,-253"/>
<text text-anchor="start" x="161.8736" y="-276.8" font-family="Arial Bold" font-size="18.00" fill="#000000">trackers</text>
<text text-anchor="start" x="225.8726" y="-276.8" font-family="Arial" font-size="14.00" fill="#000000"> </text>
<text text-anchor="start" x="229.7632" y="-276.8" font-family="Arial" font-size="14.00" fill="#666666">[BASE TABLE]</text>
<text text-anchor="start" x="203.7088" y="-262.4" font-family="Arial" font-size="14.00" fill="#333333">トラッカー</text>
<polygon fill="none" stroke="#000000" points="155,-223 155,-253 330,-253 330,-223 155,-223"/>
<text text-anchor="start" x="162" y="-234.4" font-family="Arial" font-size="14.00" fill="#000000">id </text>
<text text-anchor="start" x="176.7798" y="-234.4" font-family="Arial" font-size="14.00" fill="#666666">[int(11)]</text>
<polygon fill="none" stroke="#000000" points="155,-193 155,-223 330,-223 330,-193 155,-193"/>
<text text-anchor="start" x="162" y="-204.4" font-family="Arial" font-size="14.00" fill="#000000">name </text>
<text text-anchor="start" x="200.899" y="-204.4" font-family="Arial" font-size="14.00" fill="#666666">[varchar(30)]</text>
<polygon fill="none" stroke="#000000" points="155,-163 155,-193 330,-193 330,-163 155,-163"/>
<text text-anchor="start" x="162" y="-174.4" font-family="Arial" font-size="14.00" fill="#000000">description </text>
<text text-anchor="start" x="233.568" y="-174.4" font-family="Arial" font-size="14.00" fill="#666666">[varchar(255)]</text>
<polygon fill="none" stroke="#000000" points="155,-133 155,-163 330,-163 330,-133 155,-133"/>
<text text-anchor="start" x="162" y="-144.4" font-family="Arial" font-size="14.00" fill="#000000">position </text>
<text text-anchor="start" x="214.1248" y="-144.4" font-family="Arial" font-size="14.00" fill="#666666">[int(11)]</text>
<polygon fill="none" stroke="#000000" points="155,-103 155,-133 330,-133 330,-103 155,-103"/>
<text text-anchor="start" x="162" y="-114.4" font-family="Arial" font-size="14.00" fill="#000000">is_in_roadmap </text>
<text text-anchor="start" x="257.6858" y="-114.4" font-family="Arial" font-size="14.00" fill="#666666">[tinyint(1)]</text>
<polygon fill="none" stroke="#000000" points="155,-73 155,-103 330,-103 330,-73 155,-73"/>
<text text-anchor="start" x="162" y="-84.4" font-family="Arial" font-size="14.00" fill="#000000">fields_bits </text>
<text text-anchor="start" x="228.122" y="-84.4" font-family="Arial" font-size="14.00" fill="#666666">[int(11)]</text>
<polygon fill="none" stroke="#000000" points="155,-43 155,-73 330,-73 330,-43 155,-43"/>
<text text-anchor="start" x="162" y="-54.4" font-family="Arial" font-size="14.00" fill="#000000">default_status_id </text>
<text text-anchor="start" x="271.7096" y="-54.4" font-family="Arial" font-size="14.00" fill="#666666">[int(11)]</text>
</g>
<!-- global_issue_templates&#45;&gt;trackers -->
<g id="edge2" class="edge">
<title>global_issue_templates:tracker_id&#45;&gt;trackers:id</title>
<path fill="none" stroke="#000000" stroke-dasharray="5,2" d="M82.801,-797.1768C-28.7528,-767.2025 33.2337,-238 155,-238"/>
<polygon fill="#000000" stroke="#000000" points="83.0831,-797.2133 92.421,-802.9626 88.0416,-797.8567 93,-798.5 93,-798.5 93,-798.5 88.0416,-797.8567 93.579,-794.0374 83.0831,-797.2133 83.0831,-797.2133"/>
<text text-anchor="start" x="7.268" y="-808.5" font-family="Arial" font-size="10.00" fill="#000000">Detected Relation</text>
</g>
<!-- global_issue_templates_projects -->
<g id="node2" class="node">
<title>global_issue_templates_projects</title>
<polygon fill="#efefef" stroke="transparent" points="57,-1123.5 57,-1158.5 429,-1158.5 429,-1123.5 57,-1123.5"/>
<polygon fill="none" stroke="#000000" points="57,-1123.5 57,-1158.5 429,-1158.5 429,-1123.5 57,-1123.5"/>
<text text-anchor="start" x="63.8425" y="-1136.3" font-family="Arial Bold" font-size="18.00" fill="#000000">global_issue_templates_projects</text>
<text text-anchor="start" x="324.9037" y="-1136.3" font-family="Arial" font-size="14.00" fill="#000000"> </text>
<text text-anchor="start" x="328.7943" y="-1136.3" font-family="Arial" font-size="14.00" fill="#666666">[BASE TABLE]</text>
<polygon fill="none" stroke="#000000" points="57,-1093.5 57,-1123.5 429,-1123.5 429,-1093.5 57,-1093.5"/>
<text text-anchor="start" x="64" y="-1104.9" font-family="Arial" font-size="14.00" fill="#000000">project_id </text>
<text text-anchor="start" x="128.568" y="-1104.9" font-family="Arial" font-size="14.00" fill="#666666">[int(11)]</text>
<polygon fill="none" stroke="#000000" points="57,-1063.5 57,-1093.5 429,-1093.5 429,-1063.5 57,-1063.5"/>
<text text-anchor="start" x="64" y="-1074.9" font-family="Arial" font-size="14.00" fill="#000000">global_issue_template_id </text>
<text text-anchor="start" x="225.8218" y="-1074.9" font-family="Arial" font-size="14.00" fill="#666666">[int(11)]</text>
</g>
<!-- global_issue_templates_projects&#45;&gt;global_issue_templates -->
<g id="edge1" class="edge">
<title>global_issue_templates_projects:global_issue_template_id&#45;&gt;global_issue_templates:id</title>
<path fill="none" stroke="#000000" stroke-dasharray="5,2" d="M243.7679,-1053.473C253.6033,-994.2545 355.2156,-1045.957 392,-985 414.1592,-948.2791 434.8889,-888.5 392,-888.5"/>
<polygon fill="#000000" stroke="#000000" points="243.7637,-1053.5292 238.5131,-1063.1563 243.3819,-1058.5146 243,-1063.5 243,-1063.5 243,-1063.5 243.3819,-1058.5146 247.4869,-1063.8437 243.7637,-1053.5292 243.7637,-1053.5292"/>
<text text-anchor="start" x="227.018" y="-1047.5" font-family="Arial" font-size="10.00" fill="#000000">Detected Relation</text>
</g>
</g>
</svg>
