<?xml version="1.0" encoding="UTF-8" standalone="no"?>
<!DOCTYPE svg PUBLIC "-//W3C//DTD SVG 1.1//EN"
 "http://www.w3.org/Graphics/SVG/1.1/DTD/svg11.dtd">
<!-- Generated by graphviz version 2.40.1 (20161225.0304)
 -->
<!-- Title: global_note_visible_roles Pages: 1 -->
<svg width="1012pt" height="783pt"
 viewBox="0.00 0.00 1011.50 783.00" xmlns="http://www.w3.org/2000/svg" xmlns:xlink="http://www.w3.org/1999/xlink">
<g id="graph0" class="graph" transform="scale(1 1) rotate(0) translate(4 779)">
<title>global_note_visible_roles</title>
<polygon fill="#ffffff" stroke="transparent" points="-4,4 -4,-779 1007.5,-779 1007.5,4 -4,4"/>
<!-- global_note_visible_roles -->
<g id="node1" class="node">
<title>global_note_visible_roles</title>
<polygon fill="#efefef" stroke="transparent" points="288,-693.5 288,-728.5 601,-728.5 601,-693.5 288,-693.5"/>
<polygon fill="none" stroke="#000000" points="288,-693.5 288,-728.5 601,-728.5 601,-693.5 288,-693.5"/>
<text text-anchor="start" x="294.8499" y="-706.3" font-family="Arial Bold" font-size="18.00" fill="#000000">global_note_visible_roles</text>
<text text-anchor="start" x="496.8963" y="-706.3" font-family="Arial" font-size="14.00" fill="#000000"> </text>
<text text-anchor="start" x="500.7869" y="-706.3" font-family="Arial" font-size="14.00" fill="#666666">[BASE TABLE]</text>
<polygon fill="none" stroke="#000000" points="288,-663.5 288,-693.5 601,-693.5 601,-663.5 288,-663.5"/>
<text text-anchor="start" x="295" y="-674.9" font-family="Arial" font-size="14.00" fill="#000000">id </text>
<text text-anchor="start" x="309.7798" y="-674.9" font-family="Arial" font-size="14.00" fill="#666666">[bigint(20)]</text>
<polygon fill="none" stroke="#000000" points="288,-633.5 288,-663.5 601,-663.5 601,-633.5 288,-633.5"/>
<text text-anchor="start" x="295" y="-644.9" font-family="Arial" font-size="14.00" fill="#000000">global_note_template_id </text>
<text text-anchor="start" x="451.3884" y="-644.9" font-family="Arial" font-size="14.00" fill="#666666">[int(11)]</text>
<polygon fill="none" stroke="#000000" points="288,-603.5 288,-633.5 601,-633.5 601,-603.5 288,-603.5"/>
<text text-anchor="start" x="295" y="-614.9" font-family="Arial" font-size="14.00" fill="#000000">role_id </text>
<text text-anchor="start" x="340.8948" y="-614.9" font-family="Arial" font-size="14.00" fill="#666666">[int(11)]</text>
<polygon fill="none" stroke="#000000" points="288,-573.5 288,-603.5 601,-603.5 601,-573.5 288,-573.5"/>
<text text-anchor="start" x="295" y="-584.9" font-family="Arial" font-size="14.00" fill="#000000">created_at </text>
<text text-anchor="start" x="365.028" y="-584.9" font-family="Arial" font-size="14.00" fill="#666666">[datetime]</text>
<polygon fill="none" stroke="#000000" points="288,-543.5 288,-573.5 601,-573.5 601,-543.5 288,-543.5"/>
<text text-anchor="start" x="295" y="-554.9" font-family="Arial" font-size="14.00" fill="#000000">updated_at </text>
<text text-anchor="start" x="368.9326" y="-554.9" font-family="Arial" font-size="14.00" fill="#666666">[datetime]</text>
<polygon fill="none" stroke="#000000" stroke-width="3" points="286,-542.5 286,-730.5 602,-730.5 602,-542.5 286,-542.5"/>
</g>
<!-- global_note_templates -->
<g id="node2" class="node">
<title>global_note_templates</title>
<polygon fill="#efefef" stroke="transparent" points="43,-378 43,-413 335,-413 335,-378 43,-378"/>
<polygon fill="none" stroke="#000000" points="43,-378 43,-413 335,-413 335,-378 43,-378"/>
<text text-anchor="start" x="49.8421" y="-390.8" font-family="Arial Bold" font-size="18.00" fill="#000000">global_note_templates</text>
<text text-anchor="start" x="230.9041" y="-390.8" font-family="Arial" font-size="14.00" fill="#000000"> </text>
<text text-anchor="start" x="234.7947" y="-390.8" font-family="Arial" font-size="14.00" fill="#666666">[BASE TABLE]</text>
<polygon fill="none" stroke="#000000" points="43,-348 43,-378 335,-378 335,-348 43,-348"/>
<text text-anchor="start" x="50" y="-359.4" font-family="Arial" font-size="14.00" fill="#000000">id </text>
<text text-anchor="start" x="64.7798" y="-359.4" font-family="Arial" font-size="14.00" fill="#666666">[bigint(20)]</text>
<polygon fill="none" stroke="#000000" points="43,-318 43,-348 335,-348 335,-318 43,-318"/>
<text text-anchor="start" x="50" y="-329.4" font-family="Arial" font-size="14.00" fill="#000000">name </text>
<text text-anchor="start" x="88.899" y="-329.4" font-family="Arial" font-size="14.00" fill="#666666">[varchar(255)]</text>
<polygon fill="none" stroke="#000000" points="43,-288 43,-318 335,-318 335,-288 43,-288"/>
<text text-anchor="start" x="50" y="-299.4" font-family="Arial" font-size="14.00" fill="#000000">description </text>
<text text-anchor="start" x="121.568" y="-299.4" font-family="Arial" font-size="14.00" fill="#666666">[text]</text>
<polygon fill="none" stroke="#000000" points="43,-258 43,-288 335,-288 335,-258 43,-258"/>
<text text-anchor="start" x="50" y="-269.4" font-family="Arial" font-size="14.00" fill="#000000">memo </text>
<text text-anchor="start" x="92.777" y="-269.4" font-family="Arial" font-size="14.00" fill="#666666">[varchar(255)]</text>
<polygon fill="none" stroke="#000000" points="43,-228 43,-258 335,-258 335,-228 43,-228"/>
<text text-anchor="start" x="50" y="-239.4" font-family="Arial" font-size="14.00" fill="#000000">tracker_id </text>
<text text-anchor="start" x="115.3394" y="-239.4" font-family="Arial" font-size="14.00" fill="#666666">[int(11)]</text>
<polygon fill="none" stroke="#000000" points="43,-198 43,-228 335,-228 335,-198 43,-198"/>
<text text-anchor="start" x="50" y="-209.4" font-family="Arial" font-size="14.00" fill="#000000">author_id </text>
<text text-anchor="start" x="112.244" y="-209.4" font-family="Arial" font-size="14.00" fill="#666666">[int(11)]</text>
<polygon fill="none" stroke="#000000" points="43,-168 43,-198 335,-198 335,-168 43,-168"/>
<text text-anchor="start" x="50" y="-179.4" font-family="Arial" font-size="14.00" fill="#000000">enabled </text>
<text text-anchor="start" x="103.6928" y="-179.4" font-family="Arial" font-size="14.00" fill="#666666">[tinyint(1)]</text>
<polygon fill="none" stroke="#000000" points="43,-138 43,-168 335,-168 335,-138 43,-138"/>
<text text-anchor="start" x="50" y="-149.4" font-family="Arial" font-size="14.00" fill="#000000">position </text>
<text text-anchor="start" x="102.1248" y="-149.4" font-family="Arial" font-size="14.00" fill="#666666">[int(11)]</text>
<polygon fill="none" stroke="#000000" points="43,-108 43,-138 335,-138 335,-108 43,-108"/>
<text text-anchor="start" x="50" y="-119.4" font-family="Arial" font-size="14.00" fill="#000000">visibility </text>
<text text-anchor="start" x="102.0968" y="-119.4" font-family="Arial" font-size="14.00" fill="#666666">[int(11)]</text>
<polygon fill="none" stroke="#000000" points="43,-78 43,-108 335,-108 335,-78 43,-78"/>
<text text-anchor="start" x="50" y="-89.4" font-family="Arial" font-size="14.00" fill="#000000">created_at </text>
<text text-anchor="start" x="120.028" y="-89.4" font-family="Arial" font-size="14.00" fill="#666666">[datetime]</text>
<polygon fill="none" stroke="#000000" points="43,-48 43,-78 335,-78 335,-48 43,-48"/>
<text text-anchor="start" x="50" y="-59.4" font-family="Arial" font-size="14.00" fill="#000000">updated_at </text>
<text text-anchor="start" x="123.9326" y="-59.4" font-family="Arial" font-size="14.00" fill="#666666">[datetime]</text>
</g>
<!-- global_note_visible_roles&#45;&gt;global_note_templates -->
<g id="edge1" class="edge">
<title>global_note_visible_roles:global_note_template_id&#45;&gt;global_note_templates:id</title>
<path fill="none" stroke="#000000" stroke-dasharray="5,2" d="M277.9602,-647.7161C225.3835,-638.7934 262.0016,-555.6388 288,-498 299.4578,-472.598 323.5422,-481.902 335,-456.5 352.0862,-418.6196 376.5556,-363 335,-363"/>
<polygon fill="#000000" stroke="#000000" points="278.0303,-647.7214 287.6497,-652.9863 283.0152,-648.1107 288,-648.5 288,-648.5 288,-648.5 283.0152,-648.1107 288.3503,-644.0137 278.0303,-647.7214 278.0303,-647.7214"/>
<text text-anchor="start" x="202.268" y="-658.5" font-family="Arial" font-size="10.00" fill="#000000">Detected Relation</text>
</g>
<!-- roles -->
<g id="node3" class="node">
<title>roles</title>
<polygon fill="#efefef" stroke="transparent" points="440,-373 440,-419 961,-419 961,-373 440,-373"/>
<polygon fill="none" stroke="#000000" points="440,-373 440,-419 961,-419 961,-373 440,-373"/>
<text text-anchor="start" x="632.3737" y="-396.8" font-family="Arial Bold" font-size="18.00" fill="#000000">roles</text>
<text text-anchor="start" x="671.3725" y="-396.8" font-family="Arial" font-size="14.00" fill="#000000"> </text>
<text text-anchor="start" x="675.2631" y="-396.8" font-family="Arial" font-size="14.00" fill="#666666">[BASE TABLE]</text>
<text text-anchor="start" x="673.6746" y="-382.4" font-family="Arial" font-size="14.00" fill="#333333">ロール</text>
<polygon fill="none" stroke="#000000" points="440,-343 440,-373 961,-373 961,-343 440,-343"/>
<text text-anchor="start" x="447" y="-354.4" font-family="Arial" font-size="14.00" fill="#000000">id </text>
<text text-anchor="start" x="461.7798" y="-354.4" font-family="Arial" font-size="14.00" fill="#666666">[int(11)]</text>
<polygon fill="none" stroke="#000000" points="440,-313 440,-343 961,-343 961,-313 440,-313"/>
<text text-anchor="start" x="447" y="-324.4" font-family="Arial" font-size="14.00" fill="#000000">name </text>
<text text-anchor="start" x="485.899" y="-324.4" font-family="Arial" font-size="14.00" fill="#666666">[varchar(255)]</text>
<text text-anchor="start" x="573.0182" y="-324.4" font-family="Arial" font-size="14.00" fill="#000000"> 名称</text>
<polygon fill="none" stroke="#000000" points="440,-283 440,-313 961,-313 961,-283 440,-283"/>
<text text-anchor="start" x="447" y="-294.4" font-family="Arial" font-size="14.00" fill="#000000">position </text>
<text text-anchor="start" x="499.1248" y="-294.4" font-family="Arial" font-size="14.00" fill="#666666">[int(11)]</text>
<text text-anchor="start" x="546.5722" y="-294.4" font-family="Arial" font-size="14.00" fill="#000000"> 並び順</text>
<polygon fill="none" stroke="#000000" points="440,-253 440,-283 961,-283 961,-253 440,-253"/>
<text text-anchor="start" x="446.6933" y="-264.4" font-family="Arial" font-size="14.00" fill="#000000">assignable </text>
<text text-anchor="start" x="517.4927" y="-264.4" font-family="Arial" font-size="14.00" fill="#666666">[tinyint(1)]</text>
<text text-anchor="start" x="578.9373" y="-264.4" font-family="Arial" font-size="14.00" fill="#000000"> このロールのユーザーにチケットを割り当て可能</text>
<polygon fill="none" stroke="#000000" points="440,-223 440,-253 961,-253 961,-223 440,-223"/>
<text text-anchor="start" x="447" y="-234.4" font-family="Arial" font-size="14.00" fill="#000000">builtin </text>
<text text-anchor="start" x="487.4488" y="-234.4" font-family="Arial" font-size="14.00" fill="#666666">[int(11)]</text>
<text text-anchor="start" x="534.8962" y="-234.4" font-family="Arial" font-size="14.00" fill="#000000"> 1:非メンバー 2:匿名ユーザー 0:それ以外 </text>
<polygon fill="none" stroke="#000000" points="440,-193 440,-223 961,-223 961,-193 440,-193"/>
<text text-anchor="start" x="447" y="-204.4" font-family="Arial" font-size="14.00" fill="#000000">permissions </text>
<text text-anchor="start" x="525.5554" y="-204.4" font-family="Arial" font-size="14.00" fill="#666666">[text]</text>
<text text-anchor="start" x="555.9004" y="-204.4" font-family="Arial" font-size="14.00" fill="#000000"> 権限</text>
<polygon fill="none" stroke="#000000" points="440,-163 440,-193 961,-193 961,-163 440,-163"/>
<text text-anchor="start" x="447" y="-174.4" font-family="Arial" font-size="14.00" fill="#000000">issues_visibility </text>
<text text-anchor="start" x="546.5512" y="-174.4" font-family="Arial" font-size="14.00" fill="#666666">[varchar(30)]</text>
<text text-anchor="start" x="625.8878" y="-174.4" font-family="Arial" font-size="14.00" fill="#000000"> 表示できるチケット</text>
<polygon fill="none" stroke="#000000" points="440,-133 440,-163 961,-163 961,-133 440,-133"/>
<text text-anchor="start" x="447" y="-144.4" font-family="Arial" font-size="14.00" fill="#000000">users_visibility </text>
<text text-anchor="start" x="541.1052" y="-144.4" font-family="Arial" font-size="14.00" fill="#666666">[varchar(30)]</text>
<text text-anchor="start" x="620.4418" y="-144.4" font-family="Arial" font-size="14.00" fill="#000000"> 表示できるユーザー</text>
<polygon fill="none" stroke="#000000" points="440,-103 440,-133 961,-133 961,-103 440,-103"/>
<text text-anchor="start" x="447" y="-114.4" font-family="Arial" font-size="14.00" fill="#000000">time_entries_visibility </text>
<text text-anchor="start" x="583.108" y="-114.4" font-family="Arial" font-size="14.00" fill="#666666">[varchar(30)]</text>
<text text-anchor="start" x="662.4446" y="-114.4" font-family="Arial" font-size="14.00" fill="#000000"> 表示できる作業時間</text>
<polygon fill="none" stroke="#000000" points="440,-73 440,-103 961,-103 961,-73 440,-73"/>
<text text-anchor="start" x="447" y="-84.4" font-family="Arial" font-size="14.00" fill="#000000">all_roles_managed </text>
<text text-anchor="start" x="569.1402" y="-84.4" font-family="Arial" font-size="14.00" fill="#666666">[tinyint(1)]</text>
<text text-anchor="start" x="630.5848" y="-84.4" font-family="Arial" font-size="14.00" fill="#000000"> メンバーの管理(すべてのロール)</text>
<polygon fill="none" stroke="#000000" points="440,-43 440,-73 961,-73 961,-43 440,-43"/>
<text text-anchor="start" x="447" y="-54.4" font-family="Arial" font-size="14.00" fill="#000000">settings </text>
<text text-anchor="start" x="499.1262" y="-54.4" font-family="Arial" font-size="14.00" fill="#666666">[text]</text>
</g>
<!-- global_note_visible_roles&#45;&gt;roles -->
<g id="edge2" class="edge">
<title>global_note_visible_roles:role_id&#45;&gt;roles:id</title>
<path fill="none" stroke="#000000" stroke-dasharray="5,2" d="M610.9701,-617.4336C651.7487,-607.9124 632.1948,-536.9403 601,-498 555.1577,-440.7752 485.8423,-519.2248 440,-462 411.1012,-425.9257 393.7778,-358 440,-358"/>
<polygon fill="#000000" stroke="#000000" points="610.9433,-617.4364 600.5214,-614.0255 605.9716,-617.9682 601,-618.5 601,-618.5 601,-618.5 605.9716,-617.9682 601.4786,-622.9745 610.9433,-617.4364 610.9433,-617.4364"/>
<text text-anchor="start" x="608.268" y="-628.5" font-family="Arial" font-size="10.00" fill="#000000">Detected Relation</text>
</g>
</g>
</svg>
