<?xml version="1.0" encoding="UTF-8" standalone="no"?>
<!DOCTYPE svg PUBLIC "-//W3C//DTD SVG 1.1//EN"
 "http://www.w3.org/Graphics/SVG/1.1/DTD/svg11.dtd">
<!-- Generated by graphviz version 2.40.1 (20161225.0304)
 -->
<!-- Title: issue_template_settings Pages: 1 -->
<svg width="451pt" height="963pt"
 viewBox="0.00 0.00 451.00 963.00" xmlns="http://www.w3.org/2000/svg" xmlns:xlink="http://www.w3.org/1999/xlink">
<g id="graph0" class="graph" transform="scale(1 1) rotate(0) translate(4 959)">
<title>issue_template_settings</title>
<polygon fill="#ffffff" stroke="transparent" points="-4,4 -4,-959 447,-959 447,4 -4,4"/>
<!-- issue_template_settings -->
<g id="node1" class="node">
<title>issue_template_settings</title>
<polygon fill="#efefef" stroke="transparent" points="93,-873.5 93,-908.5 397,-908.5 397,-873.5 93,-873.5"/>
<polygon fill="none" stroke="#000000" points="93,-873.5 93,-908.5 397,-908.5 397,-873.5 93,-873.5"/>
<text text-anchor="start" x="99.8472" y="-886.3" font-family="Arial Bold" font-size="18.00" fill="#000000">issue_template_settings</text>
<text text-anchor="start" x="292.899" y="-886.3" font-family="Arial" font-size="14.00" fill="#000000"> </text>
<text text-anchor="start" x="296.7896" y="-886.3" font-family="Arial" font-size="14.00" fill="#666666">[BASE TABLE]</text>
<polygon fill="none" stroke="#000000" points="93,-843.5 93,-873.5 397,-873.5 397,-843.5 93,-843.5"/>
<text text-anchor="start" x="100" y="-854.9" font-family="Arial" font-size="14.00" fill="#000000">id </text>
<text text-anchor="start" x="114.7798" y="-854.9" font-family="Arial" font-size="14.00" fill="#666666">[int(11)]</text>
<polygon fill="none" stroke="#000000" points="93,-813.5 93,-843.5 397,-843.5 397,-813.5 93,-813.5"/>
<text text-anchor="start" x="100" y="-824.9" font-family="Arial" font-size="14.00" fill="#000000">project_id </text>
<text text-anchor="start" x="164.568" y="-824.9" font-family="Arial" font-size="14.00" fill="#666666">[int(11)]</text>
<polygon fill="none" stroke="#000000" points="93,-783.5 93,-813.5 397,-813.5 397,-783.5 93,-783.5"/>
<text text-anchor="start" x="100" y="-794.9" font-family="Arial" font-size="14.00" fill="#000000">help_message </text>
<text text-anchor="start" x="194.9186" y="-794.9" font-family="Arial" font-size="14.00" fill="#666666">[text]</text>
<polygon fill="none" stroke="#000000" points="93,-753.5 93,-783.5 397,-783.5 397,-753.5 93,-753.5"/>
<text text-anchor="start" x="100" y="-764.9" font-family="Arial" font-size="14.00" fill="#000000">enabled </text>
<text text-anchor="start" x="153.6928" y="-764.9" font-family="Arial" font-size="14.00" fill="#666666">[tinyint(1)]</text>
<polygon fill="none" stroke="#000000" points="93,-723.5 93,-753.5 397,-753.5 397,-723.5 93,-723.5"/>
<text text-anchor="start" x="100" y="-734.9" font-family="Arial" font-size="14.00" fill="#000000">should_replaced </text>
<text text-anchor="start" x="206.5904" y="-734.9" font-family="Arial" font-size="14.00" fill="#666666">[tinyint(1)]</text>
<polygon fill="none" stroke="#000000" points="93,-693.5 93,-723.5 397,-723.5 397,-693.5 93,-693.5"/>
<text text-anchor="start" x="100" y="-704.9" font-family="Arial" font-size="14.00" fill="#000000">inherit_templates </text>
<text text-anchor="start" x="210.4642" y="-704.9" font-family="Arial" font-size="14.00" fill="#666666">[tinyint(1)]</text>
<polygon fill="none" stroke="#000000" stroke-width="3" points="91.5,-692.5 91.5,-910.5 398.5,-910.5 398.5,-692.5 91.5,-692.5"/>
</g>
<!-- projects -->
<g id="node2" class="node">
<title>projects</title>
<polygon fill="#efefef" stroke="transparent" points="140,-523 140,-569 349,-569 349,-523 140,-523"/>
<polygon fill="none" stroke="#000000" points="140,-523 140,-569 349,-569 349,-523 140,-523"/>
<text text-anchor="start" x="164.3695" y="-546.8" font-family="Arial Bold" font-size="18.00" fill="#000000">projects</text>
<text text-anchor="start" x="227.3767" y="-546.8" font-family="Arial" font-size="14.00" fill="#000000"> </text>
<text text-anchor="start" x="231.2673" y="-546.8" font-family="Arial" font-size="14.00" fill="#666666">[BASE TABLE]</text>
<text text-anchor="start" x="202.1269" y="-532.4" font-family="Arial" font-size="14.00" fill="#333333">プロジェクト</text>
<polygon fill="none" stroke="#000000" points="140,-493 140,-523 349,-523 349,-493 140,-493"/>
<text text-anchor="start" x="147" y="-504.4" font-family="Arial" font-size="14.00" fill="#000000">id </text>
<text text-anchor="start" x="161.7798" y="-504.4" font-family="Arial" font-size="14.00" fill="#666666">[int(11)]</text>
<polygon fill="none" stroke="#000000" points="140,-463 140,-493 349,-493 349,-463 140,-463"/>
<text text-anchor="start" x="147" y="-474.4" font-family="Arial" font-size="14.00" fill="#000000">name </text>
<text text-anchor="start" x="185.899" y="-474.4" font-family="Arial" font-size="14.00" fill="#666666">[varchar(255)]</text>
<polygon fill="none" stroke="#000000" points="140,-433 140,-463 349,-463 349,-433 140,-433"/>
<text text-anchor="start" x="147" y="-444.4" font-family="Arial" font-size="14.00" fill="#000000">description </text>
<text text-anchor="start" x="218.568" y="-444.4" font-family="Arial" font-size="14.00" fill="#666666">[text]</text>
<polygon fill="none" stroke="#000000" points="140,-403 140,-433 349,-433 349,-403 140,-403"/>
<text text-anchor="start" x="147" y="-414.4" font-family="Arial" font-size="14.00" fill="#000000">homepage </text>
<text text-anchor="start" x="217.0294" y="-414.4" font-family="Arial" font-size="14.00" fill="#666666">[varchar(255)]</text>
<polygon fill="none" stroke="#000000" points="140,-373 140,-403 349,-403 349,-373 140,-373"/>
<text text-anchor="start" x="147" y="-384.4" font-family="Arial" font-size="14.00" fill="#000000">is_public </text>
<text text-anchor="start" x="205.3408" y="-384.4" font-family="Arial" font-size="14.00" fill="#666666">[tinyint(1)]</text>
<polygon fill="none" stroke="#000000" points="140,-343 140,-373 349,-373 349,-343 140,-343"/>
<text text-anchor="start" x="147" y="-354.4" font-family="Arial" font-size="14.00" fill="#000000">parent_id </text>
<text text-anchor="start" x="209.244" y="-354.4" font-family="Arial" font-size="14.00" fill="#666666">[int(11)]</text>
<polygon fill="none" stroke="#000000" points="140,-313 140,-343 349,-343 349,-313 140,-313"/>
<text text-anchor="start" x="147" y="-324.4" font-family="Arial" font-size="14.00" fill="#000000">created_on </text>
<text text-anchor="start" x="220.92" y="-324.4" font-family="Arial" font-size="14.00" fill="#666666">[timestamp]</text>
<polygon fill="none" stroke="#000000" points="140,-283 140,-313 349,-313 349,-283 140,-283"/>
<text text-anchor="start" x="147" y="-294.4" font-family="Arial" font-size="14.00" fill="#000000">updated_on </text>
<text text-anchor="start" x="224.8246" y="-294.4" font-family="Arial" font-size="14.00" fill="#666666">[timestamp]</text>
<polygon fill="none" stroke="#000000" points="140,-253 140,-283 349,-283 349,-253 140,-253"/>
<text text-anchor="start" x="147" y="-264.4" font-family="Arial" font-size="14.00" fill="#000000">identifier </text>
<text text-anchor="start" x="203.7826" y="-264.4" font-family="Arial" font-size="14.00" fill="#666666">[varchar(255)]</text>
<polygon fill="none" stroke="#000000" points="140,-223 140,-253 349,-253 349,-223 140,-223"/>
<text text-anchor="start" x="147" y="-234.4" font-family="Arial" font-size="14.00" fill="#000000">status </text>
<text text-anchor="start" x="188.237" y="-234.4" font-family="Arial" font-size="14.00" fill="#666666">[int(11)]</text>
<polygon fill="none" stroke="#000000" points="140,-193 140,-223 349,-223 349,-193 140,-193"/>
<text text-anchor="start" x="147" y="-204.4" font-family="Arial" font-size="14.00" fill="#000000">lft </text>
<text text-anchor="start" x="161.7784" y="-204.4" font-family="Arial" font-size="14.00" fill="#666666">[int(11)]</text>
<polygon fill="none" stroke="#000000" points="140,-163 140,-193 349,-193 349,-163 140,-163"/>
<text text-anchor="start" x="147" y="-174.4" font-family="Arial" font-size="14.00" fill="#000000">rgt </text>
<text text-anchor="start" x="167.2244" y="-174.4" font-family="Arial" font-size="14.00" fill="#666666">[int(11)]</text>
<polygon fill="none" stroke="#000000" points="140,-133 140,-163 349,-163 349,-133 140,-133"/>
<text text-anchor="start" x="147" y="-144.4" font-family="Arial" font-size="14.00" fill="#000000">inherit_members </text>
<text text-anchor="start" x="255.115" y="-144.4" font-family="Arial" font-size="14.00" fill="#666666">[tinyint(1)]</text>
<polygon fill="none" stroke="#000000" points="140,-103 140,-133 349,-133 349,-103 140,-103"/>
<text text-anchor="start" x="147" y="-114.4" font-family="Arial" font-size="14.00" fill="#000000">default_version_id </text>
<text text-anchor="start" x="264.4782" y="-114.4" font-family="Arial" font-size="14.00" fill="#666666">[int(11)]</text>
<polygon fill="none" stroke="#000000" points="140,-73 140,-103 349,-103 349,-73 140,-73"/>
<text text-anchor="start" x="146.857" y="-84.4" font-family="Arial" font-size="14.00" fill="#000000">default_assigned_to_id </text>
<text text-anchor="start" x="294.6956" y="-84.4" font-family="Arial" font-size="14.00" fill="#666666">[int(11)]</text>
<polygon fill="none" stroke="#000000" points="140,-43 140,-73 349,-73 349,-43 140,-43"/>
<text text-anchor="start" x="146.8633" y="-54.4" font-family="Arial" font-size="14.00" fill="#000000">default_issue_query_id </text>
<text text-anchor="start" x="294.6893" y="-54.4" font-family="Arial" font-size="14.00" fill="#666666">[int(11)]</text>
</g>
<!-- issue_template_settings&#45;&gt;projects -->
<g id="edge1" class="edge">
<title>issue_template_settings:project_id&#45;&gt;projects:id</title>
<path fill="none" stroke="#000000" stroke-dasharray="5,2" d="M82.834,-827.7901C15.3075,-817.8428 42.7361,-705.8268 93,-648 168.3758,-561.2828 273.6242,-698.7172 349,-612 379.3231,-577.1144 395.2222,-508 349,-508"/>
<polygon fill="#000000" stroke="#000000" points="83.0243,-827.8033 92.6865,-832.9891 88.0121,-828.1516 93,-828.5 93,-828.5 93,-828.5 88.0121,-828.1516 93.3135,-824.0109 83.0243,-827.8033 83.0243,-827.8033"/>
<text text-anchor="start" x="7.268" y="-838.5" font-family="Arial" font-size="10.00" fill="#000000">Detected Relation</text>
</g>
</g>
</svg>
