<?xml version="1.0" encoding="UTF-8" standalone="no"?>
<!DOCTYPE svg PUBLIC "-//W3C//DTD SVG 1.1//EN"
 "http://www.w3.org/Graphics/SVG/1.1/DTD/svg11.dtd">
<!-- Generated by graphviz version 2.40.1 (20161225.0304)
 -->
<!-- Title: issue_templates Pages: 1 -->
<svg width="582pt" height="1323pt"
 viewBox="0.00 0.00 582.00 1323.00" xmlns="http://www.w3.org/2000/svg" xmlns:xlink="http://www.w3.org/1999/xlink">
<g id="graph0" class="graph" transform="scale(1 1) rotate(0) translate(4 1319)">
<title>issue_templates</title>
<polygon fill="#ffffff" stroke="transparent" points="-4,4 -4,-1319 578,-1319 578,4 -4,4"/>
<!-- issue_templates -->
<g id="node1" class="node">
<title>issue_templates</title>
<polygon fill="#efefef" stroke="transparent" points="175.5,-1233.5 175.5,-1268.5 416.5,-1268.5 416.5,-1233.5 175.5,-1233.5"/>
<polygon fill="none" stroke="#000000" points="175.5,-1233.5 175.5,-1268.5 416.5,-1268.5 416.5,-1233.5 175.5,-1233.5"/>
<text text-anchor="start" x="182.3589" y="-1246.3" font-family="Arial Bold" font-size="18.00" fill="#000000">issue_templates</text>
<text text-anchor="start" x="312.3873" y="-1246.3" font-family="Arial" font-size="14.00" fill="#000000"> </text>
<text text-anchor="start" x="316.2779" y="-1246.3" font-family="Arial" font-size="14.00" fill="#666666">[BASE TABLE]</text>
<polygon fill="none" stroke="#000000" points="175.5,-1203.5 175.5,-1233.5 416.5,-1233.5 416.5,-1203.5 175.5,-1203.5"/>
<text text-anchor="start" x="182.5" y="-1214.9" font-family="Arial" font-size="14.00" fill="#000000">id </text>
<text text-anchor="start" x="197.2798" y="-1214.9" font-family="Arial" font-size="14.00" fill="#666666">[int(11)]</text>
<polygon fill="none" stroke="#000000" points="175.5,-1173.5 175.5,-1203.5 416.5,-1203.5 416.5,-1173.5 175.5,-1173.5"/>
<text text-anchor="start" x="182.5" y="-1184.9" font-family="Arial" font-size="14.00" fill="#000000">title </text>
<text text-anchor="start" x="208.1676" y="-1184.9" font-family="Arial" font-size="14.00" fill="#666666">[varchar(255)]</text>
<polygon fill="none" stroke="#000000" points="175.5,-1143.5 175.5,-1173.5 416.5,-1173.5 416.5,-1143.5 175.5,-1143.5"/>
<text text-anchor="start" x="182.5" y="-1154.9" font-family="Arial" font-size="14.00" fill="#000000">project_id </text>
<text text-anchor="start" x="247.068" y="-1154.9" font-family="Arial" font-size="14.00" fill="#666666">[int(11)]</text>
<polygon fill="none" stroke="#000000" points="175.5,-1113.5 175.5,-1143.5 416.5,-1143.5 416.5,-1113.5 175.5,-1113.5"/>
<text text-anchor="start" x="182.5" y="-1124.9" font-family="Arial" font-size="14.00" fill="#000000">tracker_id </text>
<text text-anchor="start" x="247.8394" y="-1124.9" font-family="Arial" font-size="14.00" fill="#666666">[int(11)]</text>
<polygon fill="none" stroke="#000000" points="175.5,-1083.5 175.5,-1113.5 416.5,-1113.5 416.5,-1083.5 175.5,-1083.5"/>
<text text-anchor="start" x="182.5" y="-1094.9" font-family="Arial" font-size="14.00" fill="#000000">author_id </text>
<text text-anchor="start" x="244.744" y="-1094.9" font-family="Arial" font-size="14.00" fill="#666666">[int(11)]</text>
<polygon fill="none" stroke="#000000" points="175.5,-1053.5 175.5,-1083.5 416.5,-1083.5 416.5,-1053.5 175.5,-1053.5"/>
<text text-anchor="start" x="182.5" y="-1064.9" font-family="Arial" font-size="14.00" fill="#000000">note </text>
<text text-anchor="start" x="213.629" y="-1064.9" font-family="Arial" font-size="14.00" fill="#666666">[varchar(255)]</text>
<polygon fill="none" stroke="#000000" points="175.5,-1023.5 175.5,-1053.5 416.5,-1053.5 416.5,-1023.5 175.5,-1023.5"/>
<text text-anchor="start" x="182.5" y="-1034.9" font-family="Arial" font-size="14.00" fill="#000000">description </text>
<text text-anchor="start" x="254.068" y="-1034.9" font-family="Arial" font-size="14.00" fill="#666666">[text]</text>
<polygon fill="none" stroke="#000000" points="175.5,-993.5 175.5,-1023.5 416.5,-1023.5 416.5,-993.5 175.5,-993.5"/>
<text text-anchor="start" x="182.5" y="-1004.9" font-family="Arial" font-size="14.00" fill="#000000">enabled </text>
<text text-anchor="start" x="236.1928" y="-1004.9" font-family="Arial" font-size="14.00" fill="#666666">[tinyint(1)]</text>
<polygon fill="none" stroke="#000000" points="175.5,-963.5 175.5,-993.5 416.5,-993.5 416.5,-963.5 175.5,-963.5"/>
<text text-anchor="start" x="182.5" y="-974.9" font-family="Arial" font-size="14.00" fill="#000000">created_on </text>
<text text-anchor="start" x="256.42" y="-974.9" font-family="Arial" font-size="14.00" fill="#666666">[timestamp]</text>
<polygon fill="none" stroke="#000000" points="175.5,-933.5 175.5,-963.5 416.5,-963.5 416.5,-933.5 175.5,-933.5"/>
<text text-anchor="start" x="182.5" y="-944.9" font-family="Arial" font-size="14.00" fill="#000000">updated_on </text>
<text text-anchor="start" x="260.3246" y="-944.9" font-family="Arial" font-size="14.00" fill="#666666">[timestamp]</text>
<polygon fill="none" stroke="#000000" points="175.5,-903.5 175.5,-933.5 416.5,-933.5 416.5,-903.5 175.5,-903.5"/>
<text text-anchor="start" x="182.5" y="-914.9" font-family="Arial" font-size="14.00" fill="#000000">issue_title </text>
<text text-anchor="start" x="248.622" y="-914.9" font-family="Arial" font-size="14.00" fill="#666666">[varchar(255)]</text>
<polygon fill="none" stroke="#000000" points="175.5,-873.5 175.5,-903.5 416.5,-903.5 416.5,-873.5 175.5,-873.5"/>
<text text-anchor="start" x="182.5" y="-884.9" font-family="Arial" font-size="14.00" fill="#000000">position </text>
<text text-anchor="start" x="234.6248" y="-884.9" font-family="Arial" font-size="14.00" fill="#666666">[int(11)]</text>
<polygon fill="none" stroke="#000000" points="175.5,-843.5 175.5,-873.5 416.5,-873.5 416.5,-843.5 175.5,-843.5"/>
<text text-anchor="start" x="182.5" y="-854.9" font-family="Arial" font-size="14.00" fill="#000000">is_default </text>
<text text-anchor="start" x="246.298" y="-854.9" font-family="Arial" font-size="14.00" fill="#666666">[tinyint(1)]</text>
<polygon fill="none" stroke="#000000" points="175.5,-813.5 175.5,-843.5 416.5,-843.5 416.5,-813.5 175.5,-813.5"/>
<text text-anchor="start" x="182.5" y="-824.9" font-family="Arial" font-size="14.00" fill="#000000">enabled_sharing </text>
<text text-anchor="start" x="289.873" y="-824.9" font-family="Arial" font-size="14.00" fill="#666666">[tinyint(1)]</text>
<polygon fill="none" stroke="#000000" points="175.5,-783.5 175.5,-813.5 416.5,-813.5 416.5,-783.5 175.5,-783.5"/>
<text text-anchor="start" x="182.5" y="-794.9" font-family="Arial" font-size="14.00" fill="#000000">checklist_json </text>
<text text-anchor="start" x="273.514" y="-794.9" font-family="Arial" font-size="14.00" fill="#666666">[text]</text>
<polygon fill="none" stroke="#000000" points="175.5,-753.5 175.5,-783.5 416.5,-783.5 416.5,-753.5 175.5,-753.5"/>
<text text-anchor="start" x="182.5" y="-764.9" font-family="Arial" font-size="14.00" fill="#000000">related_link </text>
<text text-anchor="start" x="257.9572" y="-764.9" font-family="Arial" font-size="14.00" fill="#666666">[text]</text>
<polygon fill="none" stroke="#000000" points="175.5,-723.5 175.5,-753.5 416.5,-753.5 416.5,-723.5 175.5,-723.5"/>
<text text-anchor="start" x="182.5" y="-734.9" font-family="Arial" font-size="14.00" fill="#000000">link_title </text>
<text text-anchor="start" x="236.946" y="-734.9" font-family="Arial" font-size="14.00" fill="#666666">[text]</text>
<polygon fill="none" stroke="#000000" points="175.5,-693.5 175.5,-723.5 416.5,-723.5 416.5,-693.5 175.5,-693.5"/>
<text text-anchor="start" x="182.5" y="-704.9" font-family="Arial" font-size="14.00" fill="#000000">builtin_fields_json </text>
<text text-anchor="start" x="296.8548" y="-704.9" font-family="Arial" font-size="14.00" fill="#666666">[text]</text>
<polygon fill="none" stroke="#000000" stroke-width="3" points="173.5,-692.5 173.5,-1270.5 417.5,-1270.5 417.5,-692.5 173.5,-692.5"/>
</g>
<!-- projects -->
<g id="node2" class="node">
<title>projects</title>
<polygon fill="#efefef" stroke="transparent" points="43.5,-523 43.5,-569 252.5,-569 252.5,-523 43.5,-523"/>
<polygon fill="none" stroke="#000000" points="43.5,-523 43.5,-569 252.5,-569 252.5,-523 43.5,-523"/>
<text text-anchor="start" x="67.8695" y="-546.8" font-family="Arial Bold" font-size="18.00" fill="#000000">projects</text>
<text text-anchor="start" x="130.8767" y="-546.8" font-family="Arial" font-size="14.00" fill="#000000"> </text>
<text text-anchor="start" x="134.7673" y="-546.8" font-family="Arial" font-size="14.00" fill="#666666">[BASE TABLE]</text>
<text text-anchor="start" x="105.6269" y="-532.4" font-family="Arial" font-size="14.00" fill="#333333">プロジェクト</text>
<polygon fill="none" stroke="#000000" points="43.5,-493 43.5,-523 252.5,-523 252.5,-493 43.5,-493"/>
<text text-anchor="start" x="50.5" y="-504.4" font-family="Arial" font-size="14.00" fill="#000000">id </text>
<text text-anchor="start" x="65.2798" y="-504.4" font-family="Arial" font-size="14.00" fill="#666666">[int(11)]</text>
<polygon fill="none" stroke="#000000" points="43.5,-463 43.5,-493 252.5,-493 252.5,-463 43.5,-463"/>
<text text-anchor="start" x="50.5" y="-474.4" font-family="Arial" font-size="14.00" fill="#000000">name </text>
<text text-anchor="start" x="89.399" y="-474.4" font-family="Arial" font-size="14.00" fill="#666666">[varchar(255)]</text>
<polygon fill="none" stroke="#000000" points="43.5,-433 43.5,-463 252.5,-463 252.5,-433 43.5,-433"/>
<text text-anchor="start" x="50.5" y="-444.4" font-family="Arial" font-size="14.00" fill="#000000">description </text>
<text text-anchor="start" x="122.068" y="-444.4" font-family="Arial" font-size="14.00" fill="#666666">[text]</text>
<polygon fill="none" stroke="#000000" points="43.5,-403 43.5,-433 252.5,-433 252.5,-403 43.5,-403"/>
<text text-anchor="start" x="50.5" y="-414.4" font-family="Arial" font-size="14.00" fill="#000000">homepage </text>
<text text-anchor="start" x="120.5294" y="-414.4" font-family="Arial" font-size="14.00" fill="#666666">[varchar(255)]</text>
<polygon fill="none" stroke="#000000" points="43.5,-373 43.5,-403 252.5,-403 252.5,-373 43.5,-373"/>
<text text-anchor="start" x="50.5" y="-384.4" font-family="Arial" font-size="14.00" fill="#000000">is_public </text>
<text text-anchor="start" x="108.8408" y="-384.4" font-family="Arial" font-size="14.00" fill="#666666">[tinyint(1)]</text>
<polygon fill="none" stroke="#000000" points="43.5,-343 43.5,-373 252.5,-373 252.5,-343 43.5,-343"/>
<text text-anchor="start" x="50.5" y="-354.4" font-family="Arial" font-size="14.00" fill="#000000">parent_id </text>
<text text-anchor="start" x="112.744" y="-354.4" font-family="Arial" font-size="14.00" fill="#666666">[int(11)]</text>
<polygon fill="none" stroke="#000000" points="43.5,-313 43.5,-343 252.5,-343 252.5,-313 43.5,-313"/>
<text text-anchor="start" x="50.5" y="-324.4" font-family="Arial" font-size="14.00" fill="#000000">created_on </text>
<text text-anchor="start" x="124.42" y="-324.4" font-family="Arial" font-size="14.00" fill="#666666">[timestamp]</text>
<polygon fill="none" stroke="#000000" points="43.5,-283 43.5,-313 252.5,-313 252.5,-283 43.5,-283"/>
<text text-anchor="start" x="50.5" y="-294.4" font-family="Arial" font-size="14.00" fill="#000000">updated_on </text>
<text text-anchor="start" x="128.3246" y="-294.4" font-family="Arial" font-size="14.00" fill="#666666">[timestamp]</text>
<polygon fill="none" stroke="#000000" points="43.5,-253 43.5,-283 252.5,-283 252.5,-253 43.5,-253"/>
<text text-anchor="start" x="50.5" y="-264.4" font-family="Arial" font-size="14.00" fill="#000000">identifier </text>
<text text-anchor="start" x="107.2826" y="-264.4" font-family="Arial" font-size="14.00" fill="#666666">[varchar(255)]</text>
<polygon fill="none" stroke="#000000" points="43.5,-223 43.5,-253 252.5,-253 252.5,-223 43.5,-223"/>
<text text-anchor="start" x="50.5" y="-234.4" font-family="Arial" font-size="14.00" fill="#000000">status </text>
<text text-anchor="start" x="91.737" y="-234.4" font-family="Arial" font-size="14.00" fill="#666666">[int(11)]</text>
<polygon fill="none" stroke="#000000" points="43.5,-193 43.5,-223 252.5,-223 252.5,-193 43.5,-193"/>
<text text-anchor="start" x="50.5" y="-204.4" font-family="Arial" font-size="14.00" fill="#000000">lft </text>
<text text-anchor="start" x="65.2784" y="-204.4" font-family="Arial" font-size="14.00" fill="#666666">[int(11)]</text>
<polygon fill="none" stroke="#000000" points="43.5,-163 43.5,-193 252.5,-193 252.5,-163 43.5,-163"/>
<text text-anchor="start" x="50.5" y="-174.4" font-family="Arial" font-size="14.00" fill="#000000">rgt </text>
<text text-anchor="start" x="70.7244" y="-174.4" font-family="Arial" font-size="14.00" fill="#666666">[int(11)]</text>
<polygon fill="none" stroke="#000000" points="43.5,-133 43.5,-163 252.5,-163 252.5,-133 43.5,-133"/>
<text text-anchor="start" x="50.5" y="-144.4" font-family="Arial" font-size="14.00" fill="#000000">inherit_members </text>
<text text-anchor="start" x="158.615" y="-144.4" font-family="Arial" font-size="14.00" fill="#666666">[tinyint(1)]</text>
<polygon fill="none" stroke="#000000" points="43.5,-103 43.5,-133 252.5,-133 252.5,-103 43.5,-103"/>
<text text-anchor="start" x="50.5" y="-114.4" font-family="Arial" font-size="14.00" fill="#000000">default_version_id </text>
<text text-anchor="start" x="167.9782" y="-114.4" font-family="Arial" font-size="14.00" fill="#666666">[int(11)]</text>
<polygon fill="none" stroke="#000000" points="43.5,-73 43.5,-103 252.5,-103 252.5,-73 43.5,-73"/>
<text text-anchor="start" x="50.357" y="-84.4" font-family="Arial" font-size="14.00" fill="#000000">default_assigned_to_id </text>
<text text-anchor="start" x="198.1956" y="-84.4" font-family="Arial" font-size="14.00" fill="#666666">[int(11)]</text>
<polygon fill="none" stroke="#000000" points="43.5,-43 43.5,-73 252.5,-73 252.5,-43 43.5,-43"/>
<text text-anchor="start" x="50.3633" y="-54.4" font-family="Arial" font-size="14.00" fill="#000000">default_issue_query_id </text>
<text text-anchor="start" x="198.1893" y="-54.4" font-family="Arial" font-size="14.00" fill="#666666">[int(11)]</text>
</g>
<!-- issue_templates&#45;&gt;projects -->
<g id="edge1" class="edge">
<title>issue_templates:project_id&#45;&gt;projects:id</title>
<path fill="none" stroke="#000000" stroke-dasharray="5,2" d="M165.424,-1158.2822C-48.204,-1148.8695 55.5327,-836.52 175.5,-648 195.782,-616.1283 232.218,-643.8717 252.5,-612 277.3156,-573.0041 298.7222,-508 252.5,-508"/>
<polygon fill="#000000" stroke="#000000" points="165.5023,-1158.2838 175.4027,-1162.9989 170.5012,-1158.3919 175.5,-1158.5 175.5,-1158.5 175.5,-1158.5 170.5012,-1158.3919 175.5973,-1154.0011 165.5023,-1158.2838 165.5023,-1158.2838"/>
<text text-anchor="start" x="89.768" y="-1168.5" font-family="Arial" font-size="10.00" fill="#000000">Detected Relation</text>
</g>
<!-- trackers -->
<g id="node3" class="node">
<title>trackers</title>
<polygon fill="#efefef" stroke="transparent" points="356.5,-388 356.5,-434 531.5,-434 531.5,-388 356.5,-388"/>
<polygon fill="none" stroke="#000000" points="356.5,-388 356.5,-434 531.5,-434 531.5,-388 356.5,-388"/>
<text text-anchor="start" x="363.3736" y="-411.8" font-family="Arial Bold" font-size="18.00" fill="#000000">trackers</text>
<text text-anchor="start" x="427.3726" y="-411.8" font-family="Arial" font-size="14.00" fill="#000000"> </text>
<text text-anchor="start" x="431.2632" y="-411.8" font-family="Arial" font-size="14.00" fill="#666666">[BASE TABLE]</text>
<text text-anchor="start" x="405.2088" y="-397.4" font-family="Arial" font-size="14.00" fill="#333333">トラッカー</text>
<polygon fill="none" stroke="#000000" points="356.5,-358 356.5,-388 531.5,-388 531.5,-358 356.5,-358"/>
<text text-anchor="start" x="363.5" y="-369.4" font-family="Arial" font-size="14.00" fill="#000000">id </text>
<text text-anchor="start" x="378.2798" y="-369.4" font-family="Arial" font-size="14.00" fill="#666666">[int(11)]</text>
<polygon fill="none" stroke="#000000" points="356.5,-328 356.5,-358 531.5,-358 531.5,-328 356.5,-328"/>
<text text-anchor="start" x="363.5" y="-339.4" font-family="Arial" font-size="14.00" fill="#000000">name </text>
<text text-anchor="start" x="402.399" y="-339.4" font-family="Arial" font-size="14.00" fill="#666666">[varchar(30)]</text>
<polygon fill="none" stroke="#000000" points="356.5,-298 356.5,-328 531.5,-328 531.5,-298 356.5,-298"/>
<text text-anchor="start" x="363.5" y="-309.4" font-family="Arial" font-size="14.00" fill="#000000">description </text>
<text text-anchor="start" x="435.068" y="-309.4" font-family="Arial" font-size="14.00" fill="#666666">[varchar(255)]</text>
<polygon fill="none" stroke="#000000" points="356.5,-268 356.5,-298 531.5,-298 531.5,-268 356.5,-268"/>
<text text-anchor="start" x="363.5" y="-279.4" font-family="Arial" font-size="14.00" fill="#000000">position </text>
<text text-anchor="start" x="415.6248" y="-279.4" font-family="Arial" font-size="14.00" fill="#666666">[int(11)]</text>
<polygon fill="none" stroke="#000000" points="356.5,-238 356.5,-268 531.5,-268 531.5,-238 356.5,-238"/>
<text text-anchor="start" x="363.5" y="-249.4" font-family="Arial" font-size="14.00" fill="#000000">is_in_roadmap </text>
<text text-anchor="start" x="459.1858" y="-249.4" font-family="Arial" font-size="14.00" fill="#666666">[tinyint(1)]</text>
<polygon fill="none" stroke="#000000" points="356.5,-208 356.5,-238 531.5,-238 531.5,-208 356.5,-208"/>
<text text-anchor="start" x="363.5" y="-219.4" font-family="Arial" font-size="14.00" fill="#000000">fields_bits </text>
<text text-anchor="start" x="429.622" y="-219.4" font-family="Arial" font-size="14.00" fill="#666666">[int(11)]</text>
<polygon fill="none" stroke="#000000" points="356.5,-178 356.5,-208 531.5,-208 531.5,-178 356.5,-178"/>
<text text-anchor="start" x="363.5" y="-189.4" font-family="Arial" font-size="14.00" fill="#000000">default_status_id </text>
<text text-anchor="start" x="473.2096" y="-189.4" font-family="Arial" font-size="14.00" fill="#666666">[int(11)]</text>
</g>
<!-- issue_templates&#45;&gt;trackers -->
<g id="edge2" class="edge">
<title>issue_templates:tracker_id&#45;&gt;trackers:id</title>
<path fill="none" stroke="#000000" stroke-dasharray="5,2" d="M426.5207,-1128.2911C624.3659,-1119.815 451.7842,-855.1307 416.5,-648 402.9746,-568.6012 370.0254,-556.3988 356.5,-477 348.738,-431.4342 310.2778,-373 356.5,-373"/>
<polygon fill="#000000" stroke="#000000" points="426.4978,-1128.2915 416.4062,-1124.001 421.4989,-1128.3957 416.5,-1128.5 416.5,-1128.5 416.5,-1128.5 421.4989,-1128.3957 416.5938,-1132.999 426.4978,-1128.2915 426.4978,-1128.2915"/>
<text text-anchor="start" x="423.768" y="-1138.5" font-family="Arial" font-size="10.00" fill="#000000">Detected Relation</text>
</g>
</g>
</svg>
