<?xml version="1.0" encoding="UTF-8" standalone="no"?>
<!DOCTYPE svg PUBLIC "-//W3C//DTD SVG 1.1//EN"
 "http://www.w3.org/Graphics/SVG/1.1/DTD/svg11.dtd">
<!-- Generated by graphviz version 2.40.1 (20161225.0304)
 -->
<!-- Title: note_visible_roles Pages: 1 -->
<svg width="954pt" height="802pt"
 viewBox="0.00 0.00 953.50 802.00" xmlns="http://www.w3.org/2000/svg" xmlns:xlink="http://www.w3.org/1999/xlink">
<g id="graph0" class="graph" transform="scale(1 1) rotate(0) translate(4 798)">
<title>note_visible_roles</title>
<polygon fill="#ffffff" stroke="transparent" points="-4,4 -4,-798 949.5,-798 949.5,4 -4,4"/>
<!-- note_visible_roles -->
<g id="node1" class="node">
<title>note_visible_roles</title>
<polygon fill="#efefef" stroke="transparent" points="273,-712.5 273,-747.5 528,-747.5 528,-712.5 273,-712.5"/>
<polygon fill="none" stroke="#000000" points="273,-712.5 273,-747.5 528,-747.5 528,-712.5 273,-712.5"/>
<text text-anchor="start" x="279.8596" y="-725.3" font-family="Arial Bold" font-size="18.00" fill="#000000">note_visible_roles</text>
<text text-anchor="start" x="423.8866" y="-725.3" font-family="Arial" font-size="14.00" fill="#000000"> </text>
<text text-anchor="start" x="427.7772" y="-725.3" font-family="Arial" font-size="14.00" fill="#666666">[BASE TABLE]</text>
<polygon fill="none" stroke="#000000" points="273,-682.5 273,-712.5 528,-712.5 528,-682.5 273,-682.5"/>
<text text-anchor="start" x="280" y="-693.9" font-family="Arial" font-size="14.00" fill="#000000">id </text>
<text text-anchor="start" x="294.7798" y="-693.9" font-family="Arial" font-size="14.00" fill="#666666">[bigint(20)]</text>
<polygon fill="none" stroke="#000000" points="273,-652.5 273,-682.5 528,-682.5 528,-652.5 273,-652.5"/>
<text text-anchor="start" x="280" y="-663.9" font-family="Arial" font-size="14.00" fill="#000000">note_template_id </text>
<text text-anchor="start" x="391.2622" y="-663.9" font-family="Arial" font-size="14.00" fill="#666666">[int(11)]</text>
<polygon fill="none" stroke="#000000" points="273,-622.5 273,-652.5 528,-652.5 528,-622.5 273,-622.5"/>
<text text-anchor="start" x="280" y="-633.9" font-family="Arial" font-size="14.00" fill="#000000">role_id </text>
<text text-anchor="start" x="325.8948" y="-633.9" font-family="Arial" font-size="14.00" fill="#666666">[int(11)]</text>
<polygon fill="none" stroke="#000000" points="273,-592.5 273,-622.5 528,-622.5 528,-592.5 273,-592.5"/>
<text text-anchor="start" x="280" y="-603.9" font-family="Arial" font-size="14.00" fill="#000000">created_at </text>
<text text-anchor="start" x="350.028" y="-603.9" font-family="Arial" font-size="14.00" fill="#666666">[datetime]</text>
<polygon fill="none" stroke="#000000" points="273,-562.5 273,-592.5 528,-592.5 528,-562.5 273,-562.5"/>
<text text-anchor="start" x="280" y="-573.9" font-family="Arial" font-size="14.00" fill="#000000">updated_at </text>
<text text-anchor="start" x="353.9326" y="-573.9" font-family="Arial" font-size="14.00" fill="#666666">[datetime]</text>
<polygon fill="none" stroke="#000000" stroke-width="3" points="271,-561.5 271,-749.5 529,-749.5 529,-561.5 271,-561.5"/>
</g>
<!-- note_templates -->
<g id="node2" class="node">
<title>note_templates</title>
<polygon fill="#efefef" stroke="transparent" points="43,-402.5 43,-437.5 277,-437.5 277,-402.5 43,-402.5"/>
<polygon fill="none" stroke="#000000" points="43,-402.5 43,-437.5 277,-437.5 277,-402.5 43,-402.5"/>
<text text-anchor="start" x="49.8518" y="-415.3" font-family="Arial Bold" font-size="18.00" fill="#000000">note_templates</text>
<text text-anchor="start" x="172.8944" y="-415.3" font-family="Arial" font-size="14.00" fill="#000000"> </text>
<text text-anchor="start" x="176.785" y="-415.3" font-family="Arial" font-size="14.00" fill="#666666">[BASE TABLE]</text>
<polygon fill="none" stroke="#000000" points="43,-372.5 43,-402.5 277,-402.5 277,-372.5 43,-372.5"/>
<text text-anchor="start" x="50" y="-383.9" font-family="Arial" font-size="14.00" fill="#000000">id </text>
<text text-anchor="start" x="64.7798" y="-383.9" font-family="Arial" font-size="14.00" fill="#666666">[bigint(20)]</text>
<polygon fill="none" stroke="#000000" points="43,-342.5 43,-372.5 277,-372.5 277,-342.5 43,-342.5"/>
<text text-anchor="start" x="50" y="-353.9" font-family="Arial" font-size="14.00" fill="#000000">name </text>
<text text-anchor="start" x="88.899" y="-353.9" font-family="Arial" font-size="14.00" fill="#666666">[varchar(255)]</text>
<polygon fill="none" stroke="#000000" points="43,-312.5 43,-342.5 277,-342.5 277,-312.5 43,-312.5"/>
<text text-anchor="start" x="50" y="-323.9" font-family="Arial" font-size="14.00" fill="#000000">description </text>
<text text-anchor="start" x="121.568" y="-323.9" font-family="Arial" font-size="14.00" fill="#666666">[text]</text>
<polygon fill="none" stroke="#000000" points="43,-282.5 43,-312.5 277,-312.5 277,-282.5 43,-282.5"/>
<text text-anchor="start" x="50" y="-293.9" font-family="Arial" font-size="14.00" fill="#000000">memo </text>
<text text-anchor="start" x="92.777" y="-293.9" font-family="Arial" font-size="14.00" fill="#666666">[varchar(255)]</text>
<polygon fill="none" stroke="#000000" points="43,-252.5 43,-282.5 277,-282.5 277,-252.5 43,-252.5"/>
<text text-anchor="start" x="50" y="-263.9" font-family="Arial" font-size="14.00" fill="#000000">project_id </text>
<text text-anchor="start" x="114.568" y="-263.9" font-family="Arial" font-size="14.00" fill="#666666">[int(11)]</text>
<polygon fill="none" stroke="#000000" points="43,-222.5 43,-252.5 277,-252.5 277,-222.5 43,-222.5"/>
<text text-anchor="start" x="50" y="-233.9" font-family="Arial" font-size="14.00" fill="#000000">tracker_id </text>
<text text-anchor="start" x="115.3394" y="-233.9" font-family="Arial" font-size="14.00" fill="#666666">[int(11)]</text>
<polygon fill="none" stroke="#000000" points="43,-192.5 43,-222.5 277,-222.5 277,-192.5 43,-192.5"/>
<text text-anchor="start" x="50" y="-203.9" font-family="Arial" font-size="14.00" fill="#000000">author_id </text>
<text text-anchor="start" x="112.244" y="-203.9" font-family="Arial" font-size="14.00" fill="#666666">[int(11)]</text>
<polygon fill="none" stroke="#000000" points="43,-162.5 43,-192.5 277,-192.5 277,-162.5 43,-162.5"/>
<text text-anchor="start" x="50" y="-173.9" font-family="Arial" font-size="14.00" fill="#000000">enabled </text>
<text text-anchor="start" x="103.6928" y="-173.9" font-family="Arial" font-size="14.00" fill="#666666">[tinyint(1)]</text>
<polygon fill="none" stroke="#000000" points="43,-132.5 43,-162.5 277,-162.5 277,-132.5 43,-132.5"/>
<text text-anchor="start" x="50" y="-143.9" font-family="Arial" font-size="14.00" fill="#000000">position </text>
<text text-anchor="start" x="102.1248" y="-143.9" font-family="Arial" font-size="14.00" fill="#666666">[int(11)]</text>
<polygon fill="none" stroke="#000000" points="43,-102.5 43,-132.5 277,-132.5 277,-102.5 43,-102.5"/>
<text text-anchor="start" x="50" y="-113.9" font-family="Arial" font-size="14.00" fill="#000000">created_at </text>
<text text-anchor="start" x="120.028" y="-113.9" font-family="Arial" font-size="14.00" fill="#666666">[datetime]</text>
<polygon fill="none" stroke="#000000" points="43,-72.5 43,-102.5 277,-102.5 277,-72.5 43,-72.5"/>
<text text-anchor="start" x="50" y="-83.9" font-family="Arial" font-size="14.00" fill="#000000">updated_at </text>
<text text-anchor="start" x="123.9326" y="-83.9" font-family="Arial" font-size="14.00" fill="#666666">[datetime]</text>
<polygon fill="none" stroke="#000000" points="43,-42.5 43,-72.5 277,-72.5 277,-42.5 43,-42.5"/>
<text text-anchor="start" x="50" y="-53.9" font-family="Arial" font-size="14.00" fill="#000000">visibility </text>
<text text-anchor="start" x="102.0968" y="-53.9" font-family="Arial" font-size="14.00" fill="#666666">[int(11)]</text>
</g>
<!-- note_visible_roles&#45;&gt;note_templates -->
<g id="edge1" class="edge">
<title>note_visible_roles:note_template_id&#45;&gt;note_templates:id</title>
<path fill="none" stroke="#000000" stroke-dasharray="5,2" d="M262.8051,-666.8834C197.3314,-658.2238 272.6211,-560.0624 277,-481 279.298,-439.508 318.5556,-387.5 277,-387.5"/>
<polygon fill="#000000" stroke="#000000" points="263.0182,-666.8962 272.7283,-671.9918 268.0091,-667.1981 273,-667.5 273,-667.5 273,-667.5 268.0091,-667.1981 273.2717,-663.0082 263.0182,-666.8962 263.0182,-666.8962"/>
<text text-anchor="start" x="187.268" y="-677.5" font-family="Arial" font-size="10.00" fill="#000000">Detected Relation</text>
</g>
<!-- roles -->
<g id="node3" class="node">
<title>roles</title>
<polygon fill="#efefef" stroke="transparent" points="382,-382.5 382,-428.5 903,-428.5 903,-382.5 382,-382.5"/>
<polygon fill="none" stroke="#000000" points="382,-382.5 382,-428.5 903,-428.5 903,-382.5 382,-382.5"/>
<text text-anchor="start" x="574.3737" y="-406.3" font-family="Arial Bold" font-size="18.00" fill="#000000">roles</text>
<text text-anchor="start" x="613.3725" y="-406.3" font-family="Arial" font-size="14.00" fill="#000000"> </text>
<text text-anchor="start" x="617.2631" y="-406.3" font-family="Arial" font-size="14.00" fill="#666666">[BASE TABLE]</text>
<text text-anchor="start" x="615.6746" y="-391.9" font-family="Arial" font-size="14.00" fill="#333333">ロール</text>
<polygon fill="none" stroke="#000000" points="382,-352.5 382,-382.5 903,-382.5 903,-352.5 382,-352.5"/>
<text text-anchor="start" x="389" y="-363.9" font-family="Arial" font-size="14.00" fill="#000000">id </text>
<text text-anchor="start" x="403.7798" y="-363.9" font-family="Arial" font-size="14.00" fill="#666666">[int(11)]</text>
<polygon fill="none" stroke="#000000" points="382,-322.5 382,-352.5 903,-352.5 903,-322.5 382,-322.5"/>
<text text-anchor="start" x="389" y="-333.9" font-family="Arial" font-size="14.00" fill="#000000">name </text>
<text text-anchor="start" x="427.899" y="-333.9" font-family="Arial" font-size="14.00" fill="#666666">[varchar(255)]</text>
<text text-anchor="start" x="515.0182" y="-333.9" font-family="Arial" font-size="14.00" fill="#000000"> 名称</text>
<polygon fill="none" stroke="#000000" points="382,-292.5 382,-322.5 903,-322.5 903,-292.5 382,-292.5"/>
<text text-anchor="start" x="389" y="-303.9" font-family="Arial" font-size="14.00" fill="#000000">position </text>
<text text-anchor="start" x="441.1248" y="-303.9" font-family="Arial" font-size="14.00" fill="#666666">[int(11)]</text>
<text text-anchor="start" x="488.5722" y="-303.9" font-family="Arial" font-size="14.00" fill="#000000"> 並び順</text>
<polygon fill="none" stroke="#000000" points="382,-262.5 382,-292.5 903,-292.5 903,-262.5 382,-262.5"/>
<text text-anchor="start" x="388.6933" y="-273.9" font-family="Arial" font-size="14.00" fill="#000000">assignable </text>
<text text-anchor="start" x="459.4927" y="-273.9" font-family="Arial" font-size="14.00" fill="#666666">[tinyint(1)]</text>
<text text-anchor="start" x="520.9373" y="-273.9" font-family="Arial" font-size="14.00" fill="#000000"> このロールのユーザーにチケットを割り当て可能</text>
<polygon fill="none" stroke="#000000" points="382,-232.5 382,-262.5 903,-262.5 903,-232.5 382,-232.5"/>
<text text-anchor="start" x="389" y="-243.9" font-family="Arial" font-size="14.00" fill="#000000">builtin </text>
<text text-anchor="start" x="429.4488" y="-243.9" font-family="Arial" font-size="14.00" fill="#666666">[int(11)]</text>
<text text-anchor="start" x="476.8962" y="-243.9" font-family="Arial" font-size="14.00" fill="#000000"> 1:非メンバー 2:匿名ユーザー 0:それ以外 </text>
<polygon fill="none" stroke="#000000" points="382,-202.5 382,-232.5 903,-232.5 903,-202.5 382,-202.5"/>
<text text-anchor="start" x="389" y="-213.9" font-family="Arial" font-size="14.00" fill="#000000">permissions </text>
<text text-anchor="start" x="467.5554" y="-213.9" font-family="Arial" font-size="14.00" fill="#666666">[text]</text>
<text text-anchor="start" x="497.9004" y="-213.9" font-family="Arial" font-size="14.00" fill="#000000"> 権限</text>
<polygon fill="none" stroke="#000000" points="382,-172.5 382,-202.5 903,-202.5 903,-172.5 382,-172.5"/>
<text text-anchor="start" x="389" y="-183.9" font-family="Arial" font-size="14.00" fill="#000000">issues_visibility </text>
<text text-anchor="start" x="488.5512" y="-183.9" font-family="Arial" font-size="14.00" fill="#666666">[varchar(30)]</text>
<text text-anchor="start" x="567.8878" y="-183.9" font-family="Arial" font-size="14.00" fill="#000000"> 表示できるチケット</text>
<polygon fill="none" stroke="#000000" points="382,-142.5 382,-172.5 903,-172.5 903,-142.5 382,-142.5"/>
<text text-anchor="start" x="389" y="-153.9" font-family="Arial" font-size="14.00" fill="#000000">users_visibility </text>
<text text-anchor="start" x="483.1052" y="-153.9" font-family="Arial" font-size="14.00" fill="#666666">[varchar(30)]</text>
<text text-anchor="start" x="562.4418" y="-153.9" font-family="Arial" font-size="14.00" fill="#000000"> 表示できるユーザー</text>
<polygon fill="none" stroke="#000000" points="382,-112.5 382,-142.5 903,-142.5 903,-112.5 382,-112.5"/>
<text text-anchor="start" x="389" y="-123.9" font-family="Arial" font-size="14.00" fill="#000000">time_entries_visibility </text>
<text text-anchor="start" x="525.108" y="-123.9" font-family="Arial" font-size="14.00" fill="#666666">[varchar(30)]</text>
<text text-anchor="start" x="604.4446" y="-123.9" font-family="Arial" font-size="14.00" fill="#000000"> 表示できる作業時間</text>
<polygon fill="none" stroke="#000000" points="382,-82.5 382,-112.5 903,-112.5 903,-82.5 382,-82.5"/>
<text text-anchor="start" x="389" y="-93.9" font-family="Arial" font-size="14.00" fill="#000000">all_roles_managed </text>
<text text-anchor="start" x="511.1402" y="-93.9" font-family="Arial" font-size="14.00" fill="#666666">[tinyint(1)]</text>
<text text-anchor="start" x="572.5848" y="-93.9" font-family="Arial" font-size="14.00" fill="#000000"> メンバーの管理(すべてのロール)</text>
<polygon fill="none" stroke="#000000" points="382,-52.5 382,-82.5 903,-82.5 903,-52.5 382,-52.5"/>
<text text-anchor="start" x="389" y="-63.9" font-family="Arial" font-size="14.00" fill="#000000">settings </text>
<text text-anchor="start" x="441.1262" y="-63.9" font-family="Arial" font-size="14.00" fill="#666666">[text]</text>
</g>
<!-- note_visible_roles&#45;&gt;roles -->
<g id="edge2" class="edge">
<title>note_visible_roles:role_id&#45;&gt;roles:id</title>
<path fill="none" stroke="#000000" stroke-dasharray="5,2" d="M537.9473,-636.4511C578.5265,-627.0829 557.57,-557.188 528,-517 487.7193,-462.2554 422.2807,-526.2446 382,-471.5 354.6064,-434.2699 335.7778,-367.5 382,-367.5"/>
<polygon fill="#000000" stroke="#000000" points="537.9449,-636.4513 527.5281,-633.0248 532.9724,-636.9756 528,-637.5 528,-637.5 528,-637.5 532.9724,-636.9756 528.4719,-641.9752 537.9449,-636.4513 537.9449,-636.4513"/>
<text text-anchor="start" x="535.268" y="-647.5" font-family="Arial" font-size="10.00" fill="#000000">Detected Relation</text>
</g>
</g>
</svg>
