<?xml version="1.0" encoding="UTF-8" standalone="no"?>
<!DOCTYPE svg PUBLIC "-//W3C//DTD SVG 1.1//EN"
 "http://www.w3.org/Graphics/SVG/1.1/DTD/svg11.dtd">
<!-- Generated by graphviz version 2.40.1 (20161225.0304)
 -->
<!-- Title: note_templates Pages: 1 -->
<svg width="582pt" height="1450pt"
 viewBox="0.00 0.00 582.00 1450.00" xmlns="http://www.w3.org/2000/svg" xmlns:xlink="http://www.w3.org/1999/xlink">
<g id="graph0" class="graph" transform="scale(1 1) rotate(0) translate(4 1446)">
<title>note_templates</title>
<polygon fill="#ffffff" stroke="transparent" points="-4,4 -4,-1446 578,-1446 578,4 -4,4"/>
<!-- note_templates -->
<g id="node1" class="node">
<title>note_templates</title>
<polygon fill="#efefef" stroke="transparent" points="179.5,-1053.5 179.5,-1088.5 413.5,-1088.5 413.5,-1053.5 179.5,-1053.5"/>
<polygon fill="none" stroke="#000000" points="179.5,-1053.5 179.5,-1088.5 413.5,-1088.5 413.5,-1053.5 179.5,-1053.5"/>
<text text-anchor="start" x="186.3518" y="-1066.3" font-family="Arial Bold" font-size="18.00" fill="#000000">note_templates</text>
<text text-anchor="start" x="309.3944" y="-1066.3" font-family="Arial" font-size="14.00" fill="#000000"> </text>
<text text-anchor="start" x="313.285" y="-1066.3" font-family="Arial" font-size="14.00" fill="#666666">[BASE TABLE]</text>
<polygon fill="none" stroke="#000000" points="179.5,-1023.5 179.5,-1053.5 413.5,-1053.5 413.5,-1023.5 179.5,-1023.5"/>
<text text-anchor="start" x="186.5" y="-1034.9" font-family="Arial" font-size="14.00" fill="#000000">id </text>
<text text-anchor="start" x="201.2798" y="-1034.9" font-family="Arial" font-size="14.00" fill="#666666">[bigint(20)]</text>
<polygon fill="none" stroke="#000000" points="179.5,-993.5 179.5,-1023.5 413.5,-1023.5 413.5,-993.5 179.5,-993.5"/>
<text text-anchor="start" x="186.5" y="-1004.9" font-family="Arial" font-size="14.00" fill="#000000">name </text>
<text text-anchor="start" x="225.399" y="-1004.9" font-family="Arial" font-size="14.00" fill="#666666">[varchar(255)]</text>
<polygon fill="none" stroke="#000000" points="179.5,-963.5 179.5,-993.5 413.5,-993.5 413.5,-963.5 179.5,-963.5"/>
<text text-anchor="start" x="186.5" y="-974.9" font-family="Arial" font-size="14.00" fill="#000000">description </text>
<text text-anchor="start" x="258.068" y="-974.9" font-family="Arial" font-size="14.00" fill="#666666">[text]</text>
<polygon fill="none" stroke="#000000" points="179.5,-933.5 179.5,-963.5 413.5,-963.5 413.5,-933.5 179.5,-933.5"/>
<text text-anchor="start" x="186.5" y="-944.9" font-family="Arial" font-size="14.00" fill="#000000">memo </text>
<text text-anchor="start" x="229.277" y="-944.9" font-family="Arial" font-size="14.00" fill="#666666">[varchar(255)]</text>
<polygon fill="none" stroke="#000000" points="179.5,-903.5 179.5,-933.5 413.5,-933.5 413.5,-903.5 179.5,-903.5"/>
<text text-anchor="start" x="186.5" y="-914.9" font-family="Arial" font-size="14.00" fill="#000000">project_id </text>
<text text-anchor="start" x="251.068" y="-914.9" font-family="Arial" font-size="14.00" fill="#666666">[int(11)]</text>
<polygon fill="none" stroke="#000000" points="179.5,-873.5 179.5,-903.5 413.5,-903.5 413.5,-873.5 179.5,-873.5"/>
<text text-anchor="start" x="186.5" y="-884.9" font-family="Arial" font-size="14.00" fill="#000000">tracker_id </text>
<text text-anchor="start" x="251.8394" y="-884.9" font-family="Arial" font-size="14.00" fill="#666666">[int(11)]</text>
<polygon fill="none" stroke="#000000" points="179.5,-843.5 179.5,-873.5 413.5,-873.5 413.5,-843.5 179.5,-843.5"/>
<text text-anchor="start" x="186.5" y="-854.9" font-family="Arial" font-size="14.00" fill="#000000">author_id </text>
<text text-anchor="start" x="248.744" y="-854.9" font-family="Arial" font-size="14.00" fill="#666666">[int(11)]</text>
<polygon fill="none" stroke="#000000" points="179.5,-813.5 179.5,-843.5 413.5,-843.5 413.5,-813.5 179.5,-813.5"/>
<text text-anchor="start" x="186.5" y="-824.9" font-family="Arial" font-size="14.00" fill="#000000">enabled </text>
<text text-anchor="start" x="240.1928" y="-824.9" font-family="Arial" font-size="14.00" fill="#666666">[tinyint(1)]</text>
<polygon fill="none" stroke="#000000" points="179.5,-783.5 179.5,-813.5 413.5,-813.5 413.5,-783.5 179.5,-783.5"/>
<text text-anchor="start" x="186.5" y="-794.9" font-family="Arial" font-size="14.00" fill="#000000">position </text>
<text text-anchor="start" x="238.6248" y="-794.9" font-family="Arial" font-size="14.00" fill="#666666">[int(11)]</text>
<polygon fill="none" stroke="#000000" points="179.5,-753.5 179.5,-783.5 413.5,-783.5 413.5,-753.5 179.5,-753.5"/>
<text text-anchor="start" x="186.5" y="-764.9" font-family="Arial" font-size="14.00" fill="#000000">created_at </text>
<text text-anchor="start" x="256.528" y="-764.9" font-family="Arial" font-size="14.00" fill="#666666">[datetime]</text>
<polygon fill="none" stroke="#000000" points="179.5,-723.5 179.5,-753.5 413.5,-753.5 413.5,-723.5 179.5,-723.5"/>
<text text-anchor="start" x="186.5" y="-734.9" font-family="Arial" font-size="14.00" fill="#000000">updated_at </text>
<text text-anchor="start" x="260.4326" y="-734.9" font-family="Arial" font-size="14.00" fill="#666666">[datetime]</text>
<polygon fill="none" stroke="#000000" points="179.5,-693.5 179.5,-723.5 413.5,-723.5 413.5,-693.5 179.5,-693.5"/>
<text text-anchor="start" x="186.5" y="-704.9" font-family="Arial" font-size="14.00" fill="#000000">visibility </text>
<text text-anchor="start" x="238.5968" y="-704.9" font-family="Arial" font-size="14.00" fill="#666666">[int(11)]</text>
<polygon fill="none" stroke="#000000" stroke-width="3" points="178,-692.5 178,-1090.5 415,-1090.5 415,-692.5 178,-692.5"/>
</g>
<!-- projects -->
<g id="node3" class="node">
<title>projects</title>
<polygon fill="#efefef" stroke="transparent" points="43.5,-523 43.5,-569 252.5,-569 252.5,-523 43.5,-523"/>
<polygon fill="none" stroke="#000000" points="43.5,-523 43.5,-569 252.5,-569 252.5,-523 43.5,-523"/>
<text text-anchor="start" x="67.8695" y="-546.8" font-family="Arial Bold" font-size="18.00" fill="#000000">projects</text>
<text text-anchor="start" x="130.8767" y="-546.8" font-family="Arial" font-size="14.00" fill="#000000"> </text>
<text text-anchor="start" x="134.7673" y="-546.8" font-family="Arial" font-size="14.00" fill="#666666">[BASE TABLE]</text>
<text text-anchor="start" x="105.6269" y="-532.4" font-family="Arial" font-size="14.00" fill="#333333">プロジェクト</text>
<polygon fill="none" stroke="#000000" points="43.5,-493 43.5,-523 252.5,-523 252.5,-493 43.5,-493"/>
<text text-anchor="start" x="50.5" y="-504.4" font-family="Arial" font-size="14.00" fill="#000000">id </text>
<text text-anchor="start" x="65.2798" y="-504.4" font-family="Arial" font-size="14.00" fill="#666666">[int(11)]</text>
<polygon fill="none" stroke="#000000" points="43.5,-463 43.5,-493 252.5,-493 252.5,-463 43.5,-463"/>
<text text-anchor="start" x="50.5" y="-474.4" font-family="Arial" font-size="14.00" fill="#000000">name </text>
<text text-anchor="start" x="89.399" y="-474.4" font-family="Arial" font-size="14.00" fill="#666666">[varchar(255)]</text>
<polygon fill="none" stroke="#000000" points="43.5,-433 43.5,-463 252.5,-463 252.5,-433 43.5,-433"/>
<text text-anchor="start" x="50.5" y="-444.4" font-family="Arial" font-size="14.00" fill="#000000">description </text>
<text text-anchor="start" x="122.068" y="-444.4" font-family="Arial" font-size="14.00" fill="#666666">[text]</text>
<polygon fill="none" stroke="#000000" points="43.5,-403 43.5,-433 252.5,-433 252.5,-403 43.5,-403"/>
<text text-anchor="start" x="50.5" y="-414.4" font-family="Arial" font-size="14.00" fill="#000000">homepage </text>
<text text-anchor="start" x="120.5294" y="-414.4" font-family="Arial" font-size="14.00" fill="#666666">[varchar(255)]</text>
<polygon fill="none" stroke="#000000" points="43.5,-373 43.5,-403 252.5,-403 252.5,-373 43.5,-373"/>
<text text-anchor="start" x="50.5" y="-384.4" font-family="Arial" font-size="14.00" fill="#000000">is_public </text>
<text text-anchor="start" x="108.8408" y="-384.4" font-family="Arial" font-size="14.00" fill="#666666">[tinyint(1)]</text>
<polygon fill="none" stroke="#000000" points="43.5,-343 43.5,-373 252.5,-373 252.5,-343 43.5,-343"/>
<text text-anchor="start" x="50.5" y="-354.4" font-family="Arial" font-size="14.00" fill="#000000">parent_id </text>
<text text-anchor="start" x="112.744" y="-354.4" font-family="Arial" font-size="14.00" fill="#666666">[int(11)]</text>
<polygon fill="none" stroke="#000000" points="43.5,-313 43.5,-343 252.5,-343 252.5,-313 43.5,-313"/>
<text text-anchor="start" x="50.5" y="-324.4" font-family="Arial" font-size="14.00" fill="#000000">created_on </text>
<text text-anchor="start" x="124.42" y="-324.4" font-family="Arial" font-size="14.00" fill="#666666">[timestamp]</text>
<polygon fill="none" stroke="#000000" points="43.5,-283 43.5,-313 252.5,-313 252.5,-283 43.5,-283"/>
<text text-anchor="start" x="50.5" y="-294.4" font-family="Arial" font-size="14.00" fill="#000000">updated_on </text>
<text text-anchor="start" x="128.3246" y="-294.4" font-family="Arial" font-size="14.00" fill="#666666">[timestamp]</text>
<polygon fill="none" stroke="#000000" points="43.5,-253 43.5,-283 252.5,-283 252.5,-253 43.5,-253"/>
<text text-anchor="start" x="50.5" y="-264.4" font-family="Arial" font-size="14.00" fill="#000000">identifier </text>
<text text-anchor="start" x="107.2826" y="-264.4" font-family="Arial" font-size="14.00" fill="#666666">[varchar(255)]</text>
<polygon fill="none" stroke="#000000" points="43.5,-223 43.5,-253 252.5,-253 252.5,-223 43.5,-223"/>
<text text-anchor="start" x="50.5" y="-234.4" font-family="Arial" font-size="14.00" fill="#000000">status </text>
<text text-anchor="start" x="91.737" y="-234.4" font-family="Arial" font-size="14.00" fill="#666666">[int(11)]</text>
<polygon fill="none" stroke="#000000" points="43.5,-193 43.5,-223 252.5,-223 252.5,-193 43.5,-193"/>
<text text-anchor="start" x="50.5" y="-204.4" font-family="Arial" font-size="14.00" fill="#000000">lft </text>
<text text-anchor="start" x="65.2784" y="-204.4" font-family="Arial" font-size="14.00" fill="#666666">[int(11)]</text>
<polygon fill="none" stroke="#000000" points="43.5,-163 43.5,-193 252.5,-193 252.5,-163 43.5,-163"/>
<text text-anchor="start" x="50.5" y="-174.4" font-family="Arial" font-size="14.00" fill="#000000">rgt </text>
<text text-anchor="start" x="70.7244" y="-174.4" font-family="Arial" font-size="14.00" fill="#666666">[int(11)]</text>
<polygon fill="none" stroke="#000000" points="43.5,-133 43.5,-163 252.5,-163 252.5,-133 43.5,-133"/>
<text text-anchor="start" x="50.5" y="-144.4" font-family="Arial" font-size="14.00" fill="#000000">inherit_members </text>
<text text-anchor="start" x="158.615" y="-144.4" font-family="Arial" font-size="14.00" fill="#666666">[tinyint(1)]</text>
<polygon fill="none" stroke="#000000" points="43.5,-103 43.5,-133 252.5,-133 252.5,-103 43.5,-103"/>
<text text-anchor="start" x="50.5" y="-114.4" font-family="Arial" font-size="14.00" fill="#000000">default_version_id </text>
<text text-anchor="start" x="167.9782" y="-114.4" font-family="Arial" font-size="14.00" fill="#666666">[int(11)]</text>
<polygon fill="none" stroke="#000000" points="43.5,-73 43.5,-103 252.5,-103 252.5,-73 43.5,-73"/>
<text text-anchor="start" x="50.357" y="-84.4" font-family="Arial" font-size="14.00" fill="#000000">default_assigned_to_id </text>
<text text-anchor="start" x="198.1956" y="-84.4" font-family="Arial" font-size="14.00" fill="#666666">[int(11)]</text>
<polygon fill="none" stroke="#000000" points="43.5,-43 43.5,-73 252.5,-73 252.5,-43 43.5,-43"/>
<text text-anchor="start" x="50.3633" y="-54.4" font-family="Arial" font-size="14.00" fill="#000000">default_issue_query_id </text>
<text text-anchor="start" x="198.1893" y="-54.4" font-family="Arial" font-size="14.00" fill="#666666">[int(11)]</text>
</g>
<!-- note_templates&#45;&gt;projects -->
<g id="edge2" class="edge">
<title>note_templates:project_id&#45;&gt;projects:id</title>
<path fill="none" stroke="#000000" stroke-dasharray="5,2" d="M169.385,-918.0723C62.608,-908.6893 117.8746,-747.1021 179.5,-648 198.6029,-617.2799 233.3971,-642.7201 252.5,-612 276.9084,-572.7479 298.7222,-508 252.5,-508"/>
<polygon fill="#000000" stroke="#000000" points="169.5089,-918.0774 179.3098,-922.996 174.5045,-918.2887 179.5,-918.5 179.5,-918.5 179.5,-918.5 174.5045,-918.2887 179.6902,-914.004 169.5089,-918.0774 169.5089,-918.0774"/>
<text text-anchor="start" x="93.768" y="-928.5" font-family="Arial" font-size="10.00" fill="#000000">Detected Relation</text>
</g>
<!-- trackers -->
<g id="node4" class="node">
<title>trackers</title>
<polygon fill="#efefef" stroke="transparent" points="356.5,-388 356.5,-434 531.5,-434 531.5,-388 356.5,-388"/>
<polygon fill="none" stroke="#000000" points="356.5,-388 356.5,-434 531.5,-434 531.5,-388 356.5,-388"/>
<text text-anchor="start" x="363.3736" y="-411.8" font-family="Arial Bold" font-size="18.00" fill="#000000">trackers</text>
<text text-anchor="start" x="427.3726" y="-411.8" font-family="Arial" font-size="14.00" fill="#000000"> </text>
<text text-anchor="start" x="431.2632" y="-411.8" font-family="Arial" font-size="14.00" fill="#666666">[BASE TABLE]</text>
<text text-anchor="start" x="405.2088" y="-397.4" font-family="Arial" font-size="14.00" fill="#333333">トラッカー</text>
<polygon fill="none" stroke="#000000" points="356.5,-358 356.5,-388 531.5,-388 531.5,-358 356.5,-358"/>
<text text-anchor="start" x="363.5" y="-369.4" font-family="Arial" font-size="14.00" fill="#000000">id </text>
<text text-anchor="start" x="378.2798" y="-369.4" font-family="Arial" font-size="14.00" fill="#666666">[int(11)]</text>
<polygon fill="none" stroke="#000000" points="356.5,-328 356.5,-358 531.5,-358 531.5,-328 356.5,-328"/>
<text text-anchor="start" x="363.5" y="-339.4" font-family="Arial" font-size="14.00" fill="#000000">name </text>
<text text-anchor="start" x="402.399" y="-339.4" font-family="Arial" font-size="14.00" fill="#666666">[varchar(30)]</text>
<polygon fill="none" stroke="#000000" points="356.5,-298 356.5,-328 531.5,-328 531.5,-298 356.5,-298"/>
<text text-anchor="start" x="363.5" y="-309.4" font-family="Arial" font-size="14.00" fill="#000000">description </text>
<text text-anchor="start" x="435.068" y="-309.4" font-family="Arial" font-size="14.00" fill="#666666">[varchar(255)]</text>
<polygon fill="none" stroke="#000000" points="356.5,-268 356.5,-298 531.5,-298 531.5,-268 356.5,-268"/>
<text text-anchor="start" x="363.5" y="-279.4" font-family="Arial" font-size="14.00" fill="#000000">position </text>
<text text-anchor="start" x="415.6248" y="-279.4" font-family="Arial" font-size="14.00" fill="#666666">[int(11)]</text>
<polygon fill="none" stroke="#000000" points="356.5,-238 356.5,-268 531.5,-268 531.5,-238 356.5,-238"/>
<text text-anchor="start" x="363.5" y="-249.4" font-family="Arial" font-size="14.00" fill="#000000">is_in_roadmap </text>
<text text-anchor="start" x="459.1858" y="-249.4" font-family="Arial" font-size="14.00" fill="#666666">[tinyint(1)]</text>
<polygon fill="none" stroke="#000000" points="356.5,-208 356.5,-238 531.5,-238 531.5,-208 356.5,-208"/>
<text text-anchor="start" x="363.5" y="-219.4" font-family="Arial" font-size="14.00" fill="#000000">fields_bits </text>
<text text-anchor="start" x="429.622" y="-219.4" font-family="Arial" font-size="14.00" fill="#666666">[int(11)]</text>
<polygon fill="none" stroke="#000000" points="356.5,-178 356.5,-208 531.5,-208 531.5,-178 356.5,-178"/>
<text text-anchor="start" x="363.5" y="-189.4" font-family="Arial" font-size="14.00" fill="#000000">default_status_id </text>
<text text-anchor="start" x="473.2096" y="-189.4" font-family="Arial" font-size="14.00" fill="#666666">[int(11)]</text>
</g>
<!-- note_templates&#45;&gt;trackers -->
<g id="edge3" class="edge">
<title>note_templates:tracker_id&#45;&gt;trackers:id</title>
<path fill="none" stroke="#000000" stroke-dasharray="5,2" d="M423.8688,-888.2397C589.9211,-879.5629 385.4976,-655.6914 356.5,-477 349.096,-431.3746 310.2778,-373 356.5,-373"/>
<polygon fill="#000000" stroke="#000000" points="423.4969,-888.2489 413.387,-884.0014 418.4984,-888.3745 413.5,-888.5 413.5,-888.5 413.5,-888.5 418.4984,-888.3745 413.613,-892.9986 423.4969,-888.2489 423.4969,-888.2489"/>
<text text-anchor="start" x="420.768" y="-898.5" font-family="Arial" font-size="10.00" fill="#000000">Detected Relation</text>
</g>
<!-- note_visible_roles -->
<g id="node2" class="node">
<title>note_visible_roles</title>
<polygon fill="#efefef" stroke="transparent" points="168.5,-1363.5 168.5,-1398.5 423.5,-1398.5 423.5,-1363.5 168.5,-1363.5"/>
<polygon fill="none" stroke="#000000" points="168.5,-1363.5 168.5,-1398.5 423.5,-1398.5 423.5,-1363.5 168.5,-1363.5"/>
<text text-anchor="start" x="175.3596" y="-1376.3" font-family="Arial Bold" font-size="18.00" fill="#000000">note_visible_roles</text>
<text text-anchor="start" x="319.3866" y="-1376.3" font-family="Arial" font-size="14.00" fill="#000000"> </text>
<text text-anchor="start" x="323.2772" y="-1376.3" font-family="Arial" font-size="14.00" fill="#666666">[BASE TABLE]</text>
<polygon fill="none" stroke="#000000" points="168.5,-1333.5 168.5,-1363.5 423.5,-1363.5 423.5,-1333.5 168.5,-1333.5"/>
<text text-anchor="start" x="175.5" y="-1344.9" font-family="Arial" font-size="14.00" fill="#000000">id </text>
<text text-anchor="start" x="190.2798" y="-1344.9" font-family="Arial" font-size="14.00" fill="#666666">[bigint(20)]</text>
<polygon fill="none" stroke="#000000" points="168.5,-1303.5 168.5,-1333.5 423.5,-1333.5 423.5,-1303.5 168.5,-1303.5"/>
<text text-anchor="start" x="175.5" y="-1314.9" font-family="Arial" font-size="14.00" fill="#000000">note_template_id </text>
<text text-anchor="start" x="286.7622" y="-1314.9" font-family="Arial" font-size="14.00" fill="#666666">[int(11)]</text>
<polygon fill="none" stroke="#000000" points="168.5,-1273.5 168.5,-1303.5 423.5,-1303.5 423.5,-1273.5 168.5,-1273.5"/>
<text text-anchor="start" x="175.5" y="-1284.9" font-family="Arial" font-size="14.00" fill="#000000">role_id </text>
<text text-anchor="start" x="221.3948" y="-1284.9" font-family="Arial" font-size="14.00" fill="#666666">[int(11)]</text>
<polygon fill="none" stroke="#000000" points="168.5,-1243.5 168.5,-1273.5 423.5,-1273.5 423.5,-1243.5 168.5,-1243.5"/>
<text text-anchor="start" x="175.5" y="-1254.9" font-family="Arial" font-size="14.00" fill="#000000">created_at </text>
<text text-anchor="start" x="245.528" y="-1254.9" font-family="Arial" font-size="14.00" fill="#666666">[datetime]</text>
<polygon fill="none" stroke="#000000" points="168.5,-1213.5 168.5,-1243.5 423.5,-1243.5 423.5,-1213.5 168.5,-1213.5"/>
<text text-anchor="start" x="175.5" y="-1224.9" font-family="Arial" font-size="14.00" fill="#000000">updated_at </text>
<text text-anchor="start" x="249.4326" y="-1224.9" font-family="Arial" font-size="14.00" fill="#666666">[datetime]</text>
</g>
<!-- note_visible_roles&#45;&gt;note_templates -->
<g id="edge1" class="edge">
<title>note_visible_roles:note_template_id&#45;&gt;note_templates:id</title>
<path fill="none" stroke="#000000" stroke-dasharray="5,2" d="M433.4744,-1317.6457C486.5107,-1307.939 463.9957,-1217.9089 423.5,-1171 351.8679,-1088.0238 251.1321,-1217.9762 179.5,-1135 151.4735,-1102.5351 136.6111,-1038.5 179.5,-1038.5"/>
<polygon fill="#000000" stroke="#000000" points="433.4635,-1317.6466 423.116,-1314.0164 428.4818,-1318.0733 423.5,-1318.5 423.5,-1318.5 423.5,-1318.5 428.4818,-1318.0733 423.884,-1322.9836 433.4635,-1317.6466 433.4635,-1317.6466"/>
<text text-anchor="start" x="430.768" y="-1328.5" font-family="Arial" font-size="10.00" fill="#000000">Detected Relation</text>
</g>
</g>
</svg>
