<?xml version="1.0" encoding="UTF-8" standalone="no"?>
<!DOCTYPE svg PUBLIC "-//W3C//DTD SVG 1.1//EN"
 "http://www.w3.org/Graphics/SVG/1.1/DTD/svg11.dtd">
<!-- Generated by graphviz version 2.40.1 (20161225.0304)
 -->
<!-- Title: roles Pages: 1 -->
<svg width="3028pt" height="944pt"
 viewBox="0.00 0.00 3027.50 944.00" xmlns="http://www.w3.org/2000/svg" xmlns:xlink="http://www.w3.org/1999/xlink">
<g id="graph0" class="graph" transform="scale(1 1) rotate(0) translate(4 940)">
<title>roles</title>
<polygon fill="#ffffff" stroke="transparent" points="-4,4 -4,-940 3023.5,-940 3023.5,4 -4,4"/>
<!-- roles -->
<g id="node1" class="node">
<title>roles</title>
<polygon fill="#efefef" stroke="transparent" points="1589,-376 1589,-422 2110,-422 2110,-376 1589,-376"/>
<polygon fill="none" stroke="#000000" points="1589,-376 1589,-422 2110,-422 2110,-376 1589,-376"/>
<text text-anchor="start" x="1781.3737" y="-399.8" font-family="Arial Bold" font-size="18.00" fill="#000000">roles</text>
<text text-anchor="start" x="1820.3725" y="-399.8" font-family="Arial" font-size="14.00" fill="#000000"> </text>
<text text-anchor="start" x="1824.2631" y="-399.8" font-family="Arial" font-size="14.00" fill="#666666">[BASE TABLE]</text>
<text text-anchor="start" x="1822.6746" y="-385.4" font-family="Arial" font-size="14.00" fill="#333333">ロール</text>
<polygon fill="none" stroke="#000000" points="1589,-346 1589,-376 2110,-376 2110,-346 1589,-346"/>
<text text-anchor="start" x="1596" y="-357.4" font-family="Arial" font-size="14.00" fill="#000000">id </text>
<text text-anchor="start" x="1610.7798" y="-357.4" font-family="Arial" font-size="14.00" fill="#666666">[int(11)]</text>
<polygon fill="none" stroke="#000000" points="1589,-316 1589,-346 2110,-346 2110,-316 1589,-316"/>
<text text-anchor="start" x="1596" y="-327.4" font-family="Arial" font-size="14.00" fill="#000000">name </text>
<text text-anchor="start" x="1634.899" y="-327.4" font-family="Arial" font-size="14.00" fill="#666666">[varchar(255)]</text>
<text text-anchor="start" x="1722.0182" y="-327.4" font-family="Arial" font-size="14.00" fill="#000000"> 名称</text>
<polygon fill="none" stroke="#000000" points="1589,-286 1589,-316 2110,-316 2110,-286 1589,-286"/>
<text text-anchor="start" x="1596" y="-297.4" font-family="Arial" font-size="14.00" fill="#000000">position </text>
<text text-anchor="start" x="1648.1248" y="-297.4" font-family="Arial" font-size="14.00" fill="#666666">[int(11)]</text>
<text text-anchor="start" x="1695.5722" y="-297.4" font-family="Arial" font-size="14.00" fill="#000000"> 並び順</text>
<polygon fill="none" stroke="#000000" points="1589,-256 1589,-286 2110,-286 2110,-256 1589,-256"/>
<text text-anchor="start" x="1595.6933" y="-267.4" font-family="Arial" font-size="14.00" fill="#000000">assignable </text>
<text text-anchor="start" x="1666.4927" y="-267.4" font-family="Arial" font-size="14.00" fill="#666666">[tinyint(1)]</text>
<text text-anchor="start" x="1727.9373" y="-267.4" font-family="Arial" font-size="14.00" fill="#000000"> このロールのユーザーにチケットを割り当て可能</text>
<polygon fill="none" stroke="#000000" points="1589,-226 1589,-256 2110,-256 2110,-226 1589,-226"/>
<text text-anchor="start" x="1596" y="-237.4" font-family="Arial" font-size="14.00" fill="#000000">builtin </text>
<text text-anchor="start" x="1636.4488" y="-237.4" font-family="Arial" font-size="14.00" fill="#666666">[int(11)]</text>
<text text-anchor="start" x="1683.8962" y="-237.4" font-family="Arial" font-size="14.00" fill="#000000"> 1:非メンバー 2:匿名ユーザー 0:それ以外 </text>
<polygon fill="none" stroke="#000000" points="1589,-196 1589,-226 2110,-226 2110,-196 1589,-196"/>
<text text-anchor="start" x="1596" y="-207.4" font-family="Arial" font-size="14.00" fill="#000000">permissions </text>
<text text-anchor="start" x="1674.5554" y="-207.4" font-family="Arial" font-size="14.00" fill="#666666">[text]</text>
<text text-anchor="start" x="1704.9004" y="-207.4" font-family="Arial" font-size="14.00" fill="#000000"> 権限</text>
<polygon fill="none" stroke="#000000" points="1589,-166 1589,-196 2110,-196 2110,-166 1589,-166"/>
<text text-anchor="start" x="1596" y="-177.4" font-family="Arial" font-size="14.00" fill="#000000">issues_visibility </text>
<text text-anchor="start" x="1695.5512" y="-177.4" font-family="Arial" font-size="14.00" fill="#666666">[varchar(30)]</text>
<text text-anchor="start" x="1774.8878" y="-177.4" font-family="Arial" font-size="14.00" fill="#000000"> 表示できるチケット</text>
<polygon fill="none" stroke="#000000" points="1589,-136 1589,-166 2110,-166 2110,-136 1589,-136"/>
<text text-anchor="start" x="1596" y="-147.4" font-family="Arial" font-size="14.00" fill="#000000">users_visibility </text>
<text text-anchor="start" x="1690.1052" y="-147.4" font-family="Arial" font-size="14.00" fill="#666666">[varchar(30)]</text>
<text text-anchor="start" x="1769.4418" y="-147.4" font-family="Arial" font-size="14.00" fill="#000000"> 表示できるユーザー</text>
<polygon fill="none" stroke="#000000" points="1589,-106 1589,-136 2110,-136 2110,-106 1589,-106"/>
<text text-anchor="start" x="1596" y="-117.4" font-family="Arial" font-size="14.00" fill="#000000">time_entries_visibility </text>
<text text-anchor="start" x="1732.108" y="-117.4" font-family="Arial" font-size="14.00" fill="#666666">[varchar(30)]</text>
<text text-anchor="start" x="1811.4446" y="-117.4" font-family="Arial" font-size="14.00" fill="#000000"> 表示できる作業時間</text>
<polygon fill="none" stroke="#000000" points="1589,-76 1589,-106 2110,-106 2110,-76 1589,-76"/>
<text text-anchor="start" x="1596" y="-87.4" font-family="Arial" font-size="14.00" fill="#000000">all_roles_managed </text>
<text text-anchor="start" x="1718.1402" y="-87.4" font-family="Arial" font-size="14.00" fill="#666666">[tinyint(1)]</text>
<text text-anchor="start" x="1779.5848" y="-87.4" font-family="Arial" font-size="14.00" fill="#000000"> メンバーの管理(すべてのロール)</text>
<polygon fill="none" stroke="#000000" points="1589,-46 1589,-76 2110,-76 2110,-46 1589,-46"/>
<text text-anchor="start" x="1596" y="-57.4" font-family="Arial" font-size="14.00" fill="#000000">settings </text>
<text text-anchor="start" x="1648.1262" y="-57.4" font-family="Arial" font-size="14.00" fill="#666666">[text]</text>
<polygon fill="none" stroke="#000000" stroke-width="3" points="1587,-44.5 1587,-423.5 2111,-423.5 2111,-44.5 1587,-44.5"/>
</g>
<!-- workflows -->
<g id="node2" class="node">
<title>workflows</title>
<polygon fill="#efefef" stroke="transparent" points="43,-847 43,-893 745,-893 745,-847 43,-847"/>
<polygon fill="none" stroke="#000000" points="43,-847 43,-893 745,-893 745,-847 43,-847"/>
<text text-anchor="start" x="305.8784" y="-870.8" font-family="Arial Bold" font-size="18.00" fill="#000000">workflows</text>
<text text-anchor="start" x="384.8678" y="-870.8" font-family="Arial" font-size="14.00" fill="#000000"> </text>
<text text-anchor="start" x="388.7584" y="-870.8" font-family="Arial" font-size="14.00" fill="#666666">[BASE TABLE]</text>
<text text-anchor="start" x="273.6819" y="-856.4" font-family="Arial" font-size="14.00" fill="#333333">ワークフロー/フィールドの権限</text>
<polygon fill="none" stroke="#000000" points="43,-817 43,-847 745,-847 745,-817 43,-817"/>
<text text-anchor="start" x="50" y="-828.4" font-family="Arial" font-size="14.00" fill="#000000">id </text>
<text text-anchor="start" x="64.7798" y="-828.4" font-family="Arial" font-size="14.00" fill="#666666">[int(11)]</text>
<polygon fill="none" stroke="#000000" points="43,-787 43,-817 745,-817 745,-787 43,-787"/>
<text text-anchor="start" x="50" y="-798.4" font-family="Arial" font-size="14.00" fill="#000000">tracker_id </text>
<text text-anchor="start" x="115.3394" y="-798.4" font-family="Arial" font-size="14.00" fill="#666666">[int(11)]</text>
<polygon fill="none" stroke="#000000" points="43,-757 43,-787 745,-787 745,-757 43,-757"/>
<text text-anchor="start" x="50" y="-768.4" font-family="Arial" font-size="14.00" fill="#000000">old_status_id </text>
<text text-anchor="start" x="136.3632" y="-768.4" font-family="Arial" font-size="14.00" fill="#666666">[int(11)]</text>
<polygon fill="none" stroke="#000000" points="43,-727 43,-757 745,-757 745,-727 43,-727"/>
<text text-anchor="start" x="50" y="-738.4" font-family="Arial" font-size="14.00" fill="#000000">new_status_id </text>
<text text-anchor="start" x="143.3632" y="-738.4" font-family="Arial" font-size="14.00" fill="#666666">[int(11)]</text>
<polygon fill="none" stroke="#000000" points="43,-697 43,-727 745,-727 745,-697 43,-697"/>
<text text-anchor="start" x="50" y="-708.4" font-family="Arial" font-size="14.00" fill="#000000">role_id </text>
<text text-anchor="start" x="95.8948" y="-708.4" font-family="Arial" font-size="14.00" fill="#666666">[int(11)]</text>
<polygon fill="none" stroke="#000000" points="43,-667 43,-697 745,-697 745,-667 43,-667"/>
<text text-anchor="start" x="50" y="-678.4" font-family="Arial" font-size="14.00" fill="#000000">assignee </text>
<text text-anchor="start" x="109.9102" y="-678.4" font-family="Arial" font-size="14.00" fill="#666666">[tinyint(1)]</text>
<polygon fill="none" stroke="#000000" points="43,-637 43,-667 745,-667 745,-637 43,-637"/>
<text text-anchor="start" x="50" y="-648.4" font-family="Arial" font-size="14.00" fill="#000000">author </text>
<text text-anchor="start" x="93.5722" y="-648.4" font-family="Arial" font-size="14.00" fill="#666666">[tinyint(1)]</text>
<polygon fill="none" stroke="#000000" points="43,-607 43,-637 745,-637 745,-607 43,-607"/>
<text text-anchor="start" x="49.8205" y="-618.4" font-family="Arial" font-size="14.00" fill="#000000">type </text>
<text text-anchor="start" x="80.1669" y="-618.4" font-family="Arial" font-size="14.00" fill="#666666">[varchar(30)]</text>
<text text-anchor="start" x="159.5035" y="-618.4" font-family="Arial" font-size="14.00" fill="#000000"> WorkflowTransition:ステータスの遷移 WorkflowPermission:フィールドに対する権限 &#160;</text>
<polygon fill="none" stroke="#000000" points="43,-577 43,-607 745,-607 745,-577 43,-577"/>
<text text-anchor="start" x="50" y="-588.4" font-family="Arial" font-size="14.00" fill="#000000">field_name </text>
<text text-anchor="start" x="122.3506" y="-588.4" font-family="Arial" font-size="14.00" fill="#666666">[varchar(30)]</text>
<polygon fill="none" stroke="#000000" points="43,-547 43,-577 745,-577 745,-547 43,-547"/>
<text text-anchor="start" x="50" y="-558.4" font-family="Arial" font-size="14.00" fill="#000000">rule </text>
<text text-anchor="start" x="77.223" y="-558.4" font-family="Arial" font-size="14.00" fill="#666666">[varchar(30)]</text>
</g>
<!-- workflows&#45;&gt;roles -->
<g id="edge1" class="edge">
<title>workflows:role_id&#45;&gt;roles:id</title>
<path fill="none" stroke="#000000" stroke-dasharray="5,2" d="M755.2372,-711.359C831.7502,-700.9552 730.1402,-566.5647 797,-504 927.588,-381.801 1410.1542,-361 1589,-361"/>
<polygon fill="#000000" stroke="#000000" points="754.9805,-711.375 744.7188,-707.5088 749.9902,-711.6875 745,-712 745,-712 745,-712 749.9902,-711.6875 745.2812,-716.4912 754.9805,-711.375 754.9805,-711.375"/>
<text text-anchor="start" x="752.3245" y="-722" font-family="Arial" font-size="10.00" fill="#000000">Additional Relation</text>
</g>
<!-- custom_fields_roles -->
<g id="node3" class="node">
<title>custom_fields_roles</title>
<polygon fill="#efefef" stroke="transparent" points="849,-727 849,-773 1119,-773 1119,-727 849,-727"/>
<polygon fill="none" stroke="#000000" points="849,-727 849,-773 1119,-773 1119,-727 849,-727"/>
<text text-anchor="start" x="855.8626" y="-750.8" font-family="Arial Bold" font-size="18.00" fill="#000000">custom_fields_roles</text>
<text text-anchor="start" x="1014.8836" y="-750.8" font-family="Arial" font-size="14.00" fill="#000000"> </text>
<text text-anchor="start" x="1018.7742" y="-750.8" font-family="Arial" font-size="14.00" fill="#666666">[BASE TABLE]</text>
<text text-anchor="start" x="879.4109" y="-736.4" font-family="Arial" font-size="14.00" fill="#333333">カスタムフィールド⇔ロール</text>
<polygon fill="none" stroke="#000000" points="849,-697 849,-727 1119,-727 1119,-697 849,-697"/>
<text text-anchor="start" x="856" y="-708.4" font-family="Arial" font-size="14.00" fill="#000000">custom_field_id </text>
<text text-anchor="start" x="957.1304" y="-708.4" font-family="Arial" font-size="14.00" fill="#666666">[int(11)]</text>
<polygon fill="none" stroke="#000000" points="849,-667 849,-697 1119,-697 1119,-667 849,-667"/>
<text text-anchor="start" x="856" y="-678.4" font-family="Arial" font-size="14.00" fill="#000000">role_id </text>
<text text-anchor="start" x="901.8948" y="-678.4" font-family="Arial" font-size="14.00" fill="#666666">[int(11)]</text>
</g>
<!-- custom_fields_roles&#45;&gt;roles -->
<g id="edge2" class="edge">
<title>custom_fields_roles:role_id&#45;&gt;roles:id</title>
<path fill="none" stroke="#000000" stroke-dasharray="5,2" d="M1129.1077,-681.2992C1193.8604,-671.4799 1116.6175,-560.9092 1171,-504 1306.6522,-362.0452 1392.6516,-361 1589,-361"/>
<polygon fill="#000000" stroke="#000000" points="1128.9761,-681.3082 1118.6887,-677.5108 1123.988,-681.6541 1119,-682 1119,-682 1119,-682 1123.988,-681.6541 1119.3113,-686.4892 1128.9761,-681.3082 1128.9761,-681.3082"/>
<text text-anchor="start" x="1126.3245" y="-692" font-family="Arial" font-size="10.00" fill="#000000">Additional Relation</text>
</g>
<!-- queries_roles -->
<g id="node4" class="node">
<title>queries_roles</title>
<polygon fill="#efefef" stroke="transparent" points="1224,-727 1224,-773 1443,-773 1443,-727 1224,-727"/>
<polygon fill="none" stroke="#000000" points="1224,-727 1224,-773 1443,-773 1443,-727 1224,-727"/>
<text text-anchor="start" x="1230.865" y="-750.8" font-family="Arial Bold" font-size="18.00" fill="#000000">queries_roles</text>
<text text-anchor="start" x="1338.8812" y="-750.8" font-family="Arial" font-size="14.00" fill="#000000"> </text>
<text text-anchor="start" x="1342.7718" y="-750.8" font-family="Arial" font-size="14.00" fill="#666666">[BASE TABLE]</text>
<text text-anchor="start" x="1246.9317" y="-736.4" font-family="Arial" font-size="14.00" fill="#333333">カスタムクエリ⇔ロール</text>
<polygon fill="none" stroke="#000000" points="1224,-697 1224,-727 1443,-727 1443,-697 1224,-697"/>
<text text-anchor="start" x="1231" y="-708.4" font-family="Arial" font-size="14.00" fill="#000000">query_id </text>
<text text-anchor="start" x="1288.5708" y="-708.4" font-family="Arial" font-size="14.00" fill="#666666">[int(11)]</text>
<polygon fill="none" stroke="#000000" points="1224,-667 1224,-697 1443,-697 1443,-667 1224,-667"/>
<text text-anchor="start" x="1231" y="-678.4" font-family="Arial" font-size="14.00" fill="#000000">role_id </text>
<text text-anchor="start" x="1276.8948" y="-678.4" font-family="Arial" font-size="14.00" fill="#666666">[int(11)]</text>
</g>
<!-- queries_roles&#45;&gt;roles -->
<g id="edge3" class="edge">
<title>queries_roles:role_id&#45;&gt;roles:id</title>
<path fill="none" stroke="#000000" stroke-dasharray="5,2" d="M1453.2371,-681.3873C1519.7797,-672.7868 1461.9804,-575.4551 1495,-504 1526.9045,-434.958 1512.9428,-361 1589,-361"/>
<polygon fill="#000000" stroke="#000000" points="1452.9821,-681.4024 1442.7311,-677.508 1447.9911,-681.7012 1443,-682 1443,-682 1443,-682 1447.9911,-681.7012 1443.2689,-686.492 1452.9821,-681.4024 1452.9821,-681.4024"/>
<text text-anchor="start" x="1450.3245" y="-692" font-family="Arial" font-size="10.00" fill="#000000">Additional Relation</text>
</g>
<!-- member_roles -->
<g id="node5" class="node">
<title>member_roles</title>
<polygon fill="#efefef" stroke="transparent" points="1547,-757 1547,-803 1773,-803 1773,-757 1547,-757"/>
<polygon fill="none" stroke="#000000" points="1547,-757 1547,-803 1773,-803 1773,-757 1547,-757"/>
<text text-anchor="start" x="1553.873" y="-780.8" font-family="Arial Bold" font-size="18.00" fill="#000000">member_roles</text>
<text text-anchor="start" x="1668.8732" y="-780.8" font-family="Arial" font-size="14.00" fill="#000000"> </text>
<text text-anchor="start" x="1672.7638" y="-780.8" font-family="Arial" font-size="14.00" fill="#666666">[BASE TABLE]</text>
<text text-anchor="start" x="1594.0334" y="-766.4" font-family="Arial" font-size="14.00" fill="#333333">メンバー⇔ロール</text>
<polygon fill="none" stroke="#000000" points="1547,-727 1547,-757 1773,-757 1773,-727 1547,-727"/>
<text text-anchor="start" x="1554" y="-738.4" font-family="Arial" font-size="14.00" fill="#000000">id </text>
<text text-anchor="start" x="1568.7798" y="-738.4" font-family="Arial" font-size="14.00" fill="#666666">[int(11)]</text>
<polygon fill="none" stroke="#000000" points="1547,-697 1547,-727 1773,-727 1773,-697 1547,-697"/>
<text text-anchor="start" x="1554" y="-708.4" font-family="Arial" font-size="14.00" fill="#000000">member_id </text>
<text text-anchor="start" x="1627.892" y="-708.4" font-family="Arial" font-size="14.00" fill="#666666">[int(11)]</text>
<polygon fill="none" stroke="#000000" points="1547,-667 1547,-697 1773,-697 1773,-667 1547,-667"/>
<text text-anchor="start" x="1554" y="-678.4" font-family="Arial" font-size="14.00" fill="#000000">role_id </text>
<text text-anchor="start" x="1599.8948" y="-678.4" font-family="Arial" font-size="14.00" fill="#666666">[int(11)]</text>
<polygon fill="none" stroke="#000000" points="1547,-637 1547,-667 1773,-667 1773,-637 1547,-637"/>
<text text-anchor="start" x="1554" y="-648.4" font-family="Arial" font-size="14.00" fill="#000000">inherited_from </text>
<text text-anchor="start" x="1647.345" y="-648.4" font-family="Arial" font-size="14.00" fill="#666666">[int(11)]</text>
</g>
<!-- member_roles&#45;&gt;roles -->
<g id="edge4" class="edge">
<title>member_roles:role_id&#45;&gt;roles:id</title>
<path fill="none" stroke="#000000" stroke-dasharray="5,2" d="M1783.1261,-680.4231C1807.8988,-671.3466 1789.3876,-625.0836 1773,-594 1726.7765,-506.3245 1635.2235,-555.6755 1589,-468 1566.8217,-425.9327 1541.4444,-361 1589,-361"/>
<polygon fill="#000000" stroke="#000000" points="1782.8809,-680.4612 1772.3075,-677.5536 1777.9405,-681.2306 1773,-682 1773,-682 1773,-682 1777.9405,-681.2306 1773.6925,-686.4464 1782.8809,-680.4612 1782.8809,-680.4612"/>
<text text-anchor="start" x="1780.3245" y="-692" font-family="Arial" font-size="10.00" fill="#000000">Additional Relation</text>
</g>
<!-- roles_managed_roles -->
<g id="node6" class="node">
<title>roles_managed_roles</title>
<polygon fill="#efefef" stroke="transparent" points="1878,-727 1878,-773 2201,-773 2201,-727 1878,-727"/>
<polygon fill="none" stroke="#000000" points="1878,-727 1878,-773 2201,-773 2201,-727 1878,-727"/>
<text text-anchor="start" x="1904.3534" y="-750.8" font-family="Arial Bold" font-size="18.00" fill="#000000">roles_managed_roles</text>
<text text-anchor="start" x="2077.3928" y="-750.8" font-family="Arial" font-size="14.00" fill="#000000"> </text>
<text text-anchor="start" x="2081.2834" y="-750.8" font-family="Arial" font-size="14.00" fill="#666666">[BASE TABLE]</text>
<text text-anchor="start" x="1913.913" y="-736.4" font-family="Arial" font-size="14.00" fill="#333333">メンバーの管理(管理対象のロール)</text>
<polygon fill="none" stroke="#000000" points="1878,-697 1878,-727 2201,-727 2201,-697 1878,-697"/>
<text text-anchor="start" x="1885" y="-708.4" font-family="Arial" font-size="14.00" fill="#000000">role_id </text>
<text text-anchor="start" x="1930.8948" y="-708.4" font-family="Arial" font-size="14.00" fill="#666666">[int(11)]</text>
<text text-anchor="start" x="1978.3422" y="-708.4" font-family="Arial" font-size="14.00" fill="#000000"> ロールID</text>
<polygon fill="none" stroke="#000000" points="1878,-667 1878,-697 2201,-697 2201,-667 1878,-667"/>
<text text-anchor="start" x="1884.8406" y="-678.4" font-family="Arial" font-size="14.00" fill="#000000">managed_role_id </text>
<text text-anchor="start" x="1996.8742" y="-678.4" font-family="Arial" font-size="14.00" fill="#666666">[int(11)]</text>
<text text-anchor="start" x="2044.3216" y="-678.4" font-family="Arial" font-size="14.00" fill="#000000"> 管理対象のロールID</text>
</g>
<!-- roles_managed_roles&#45;&gt;roles -->
<g id="edge5" class="edge">
<title>roles_managed_roles:role_id&#45;&gt;roles:id</title>
<path fill="none" stroke="#000000" stroke-dasharray="5,2" d="M1867.8698,-710.421C1843.0745,-701.3324 1861.4809,-655.0139 1878,-624 1936.4127,-514.3324 2051.5873,-577.6676 2110,-468 2132.3562,-426.027 2157.5556,-361 2110,-361"/>
<polygon fill="#000000" stroke="#000000" points="1868.1193,-710.4598 1877.3069,-716.4463 1873.0597,-711.2299 1878,-712 1878,-712 1878,-712 1873.0597,-711.2299 1878.6931,-707.5537 1868.1193,-710.4598 1868.1193,-710.4598"/>
<text text-anchor="start" x="1788.3245" y="-722" font-family="Arial" font-size="10.00" fill="#000000">Additional Relation</text>
</g>
<!-- roles_managed_roles&#45;&gt;roles -->
<g id="edge6" class="edge">
<title>roles_managed_roles:managed_role_id&#45;&gt;roles:id</title>
<path fill="none" stroke="#000000" stroke-dasharray="5,2" d="M1868.3161,-679.3646C1856.6627,-670.7705 1867.8698,-643.019 1878,-624 1936.4127,-514.3324 2051.5873,-577.6676 2110,-468 2132.3562,-426.027 2157.5556,-361 2110,-361"/>
<polygon fill="#000000" stroke="#000000" points="1868.3509,-679.374 1876.8183,-686.3421 1873.1755,-680.687 1878,-682 1878,-682 1878,-682 1873.1755,-680.687 1879.1817,-677.6579 1868.3509,-679.374 1868.3509,-679.374"/>
<text text-anchor="start" x="1788.3245" y="-666" font-family="Arial" font-size="10.00" fill="#000000">Additional Relation</text>
</g>
<!-- global_note_visible_roles -->
<g id="node7" class="node">
<title>global_note_visible_roles</title>
<polygon fill="#efefef" stroke="transparent" points="2305,-777 2305,-812 2618,-812 2618,-777 2305,-777"/>
<polygon fill="none" stroke="#000000" points="2305,-777 2305,-812 2618,-812 2618,-777 2305,-777"/>
<text text-anchor="start" x="2311.8499" y="-789.8" font-family="Arial Bold" font-size="18.00" fill="#000000">global_note_visible_roles</text>
<text text-anchor="start" x="2513.8963" y="-789.8" font-family="Arial" font-size="14.00" fill="#000000"> </text>
<text text-anchor="start" x="2517.7869" y="-789.8" font-family="Arial" font-size="14.00" fill="#666666">[BASE TABLE]</text>
<polygon fill="none" stroke="#000000" points="2305,-747 2305,-777 2618,-777 2618,-747 2305,-747"/>
<text text-anchor="start" x="2312" y="-758.4" font-family="Arial" font-size="14.00" fill="#000000">id </text>
<text text-anchor="start" x="2326.7798" y="-758.4" font-family="Arial" font-size="14.00" fill="#666666">[bigint(20)]</text>
<polygon fill="none" stroke="#000000" points="2305,-717 2305,-747 2618,-747 2618,-717 2305,-717"/>
<text text-anchor="start" x="2312" y="-728.4" font-family="Arial" font-size="14.00" fill="#000000">global_note_template_id </text>
<text text-anchor="start" x="2468.3884" y="-728.4" font-family="Arial" font-size="14.00" fill="#666666">[int(11)]</text>
<polygon fill="none" stroke="#000000" points="2305,-687 2305,-717 2618,-717 2618,-687 2305,-687"/>
<text text-anchor="start" x="2312" y="-698.4" font-family="Arial" font-size="14.00" fill="#000000">role_id </text>
<text text-anchor="start" x="2357.8948" y="-698.4" font-family="Arial" font-size="14.00" fill="#666666">[int(11)]</text>
<polygon fill="none" stroke="#000000" points="2305,-657 2305,-687 2618,-687 2618,-657 2305,-657"/>
<text text-anchor="start" x="2312" y="-668.4" font-family="Arial" font-size="14.00" fill="#000000">created_at </text>
<text text-anchor="start" x="2382.028" y="-668.4" font-family="Arial" font-size="14.00" fill="#666666">[datetime]</text>
<polygon fill="none" stroke="#000000" points="2305,-627 2305,-657 2618,-657 2618,-627 2305,-627"/>
<text text-anchor="start" x="2312" y="-638.4" font-family="Arial" font-size="14.00" fill="#000000">updated_at </text>
<text text-anchor="start" x="2385.9326" y="-638.4" font-family="Arial" font-size="14.00" fill="#666666">[datetime]</text>
</g>
<!-- global_note_visible_roles&#45;&gt;roles -->
<g id="edge7" class="edge">
<title>global_note_visible_roles:role_id&#45;&gt;roles:id</title>
<path fill="none" stroke="#000000" stroke-dasharray="5,2" d="M2294.6682,-701.4099C2220.7114,-692.2983 2296.4382,-579.6711 2253,-504 2208.2531,-426.0492 2199.8811,-361 2110,-361"/>
<polygon fill="#000000" stroke="#000000" points="2295.0163,-701.4297 2304.7434,-706.4927 2300.0081,-701.7149 2305,-702 2305,-702 2305,-702 2300.0081,-701.7149 2305.2566,-697.5073 2295.0163,-701.4297 2295.0163,-701.4297"/>
<text text-anchor="start" x="2219.268" y="-712" font-family="Arial" font-size="10.00" fill="#000000">Detected Relation</text>
</g>
<!-- note_visible_roles -->
<g id="node8" class="node">
<title>note_visible_roles</title>
<polygon fill="#efefef" stroke="transparent" points="2722,-777 2722,-812 2977,-812 2977,-777 2722,-777"/>
<polygon fill="none" stroke="#000000" points="2722,-777 2722,-812 2977,-812 2977,-777 2722,-777"/>
<text text-anchor="start" x="2728.8596" y="-789.8" font-family="Arial Bold" font-size="18.00" fill="#000000">note_visible_roles</text>
<text text-anchor="start" x="2872.8866" y="-789.8" font-family="Arial" font-size="14.00" fill="#000000"> </text>
<text text-anchor="start" x="2876.7772" y="-789.8" font-family="Arial" font-size="14.00" fill="#666666">[BASE TABLE]</text>
<polygon fill="none" stroke="#000000" points="2722,-747 2722,-777 2977,-777 2977,-747 2722,-747"/>
<text text-anchor="start" x="2729" y="-758.4" font-family="Arial" font-size="14.00" fill="#000000">id </text>
<text text-anchor="start" x="2743.7798" y="-758.4" font-family="Arial" font-size="14.00" fill="#666666">[bigint(20)]</text>
<polygon fill="none" stroke="#000000" points="2722,-717 2722,-747 2977,-747 2977,-717 2722,-717"/>
<text text-anchor="start" x="2729" y="-728.4" font-family="Arial" font-size="14.00" fill="#000000">note_template_id </text>
<text text-anchor="start" x="2840.2622" y="-728.4" font-family="Arial" font-size="14.00" fill="#666666">[int(11)]</text>
<polygon fill="none" stroke="#000000" points="2722,-687 2722,-717 2977,-717 2977,-687 2722,-687"/>
<text text-anchor="start" x="2729" y="-698.4" font-family="Arial" font-size="14.00" fill="#000000">role_id </text>
<text text-anchor="start" x="2774.8948" y="-698.4" font-family="Arial" font-size="14.00" fill="#666666">[int(11)]</text>
<polygon fill="none" stroke="#000000" points="2722,-657 2722,-687 2977,-687 2977,-657 2722,-657"/>
<text text-anchor="start" x="2729" y="-668.4" font-family="Arial" font-size="14.00" fill="#000000">created_at </text>
<text text-anchor="start" x="2799.028" y="-668.4" font-family="Arial" font-size="14.00" fill="#666666">[datetime]</text>
<polygon fill="none" stroke="#000000" points="2722,-627 2722,-657 2977,-657 2977,-627 2722,-627"/>
<text text-anchor="start" x="2729" y="-638.4" font-family="Arial" font-size="14.00" fill="#000000">updated_at </text>
<text text-anchor="start" x="2802.9326" y="-638.4" font-family="Arial" font-size="14.00" fill="#666666">[datetime]</text>
</g>
<!-- note_visible_roles&#45;&gt;roles -->
<g id="edge8" class="edge">
<title>note_visible_roles:role_id&#45;&gt;roles:id</title>
<path fill="none" stroke="#000000" stroke-dasharray="5,2" d="M2711.7614,-701.3384C2639.2264,-691.1347 2731.9066,-565.4863 2670,-504 2578.872,-413.4907 2238.4377,-361 2110,-361"/>
<polygon fill="#000000" stroke="#000000" points="2712.0208,-701.355 2721.7098,-706.4906 2717.0104,-701.6775 2722,-702 2722,-702 2722,-702 2717.0104,-701.6775 2722.2902,-697.5094 2712.0208,-701.355 2712.0208,-701.355"/>
<text text-anchor="start" x="2636.268" y="-712" font-family="Arial" font-size="10.00" fill="#000000">Detected Relation</text>
</g>
</g>
</svg>
