<?xml version="1.0" encoding="UTF-8" standalone="no"?>
<!DOCTYPE svg PUBLIC "-//W3C//DTD SVG 1.1//EN"
 "http://www.w3.org/Graphics/SVG/1.1/DTD/svg11.dtd">
<!-- Generated by graphviz version 2.40.1 (20161225.0304)
 -->
<!-- Title: access_token Pages: 1 -->
<svg width="321pt" height="375pt"
 viewBox="0.00 0.00 321.00 375.00" xmlns="http://www.w3.org/2000/svg" xmlns:xlink="http://www.w3.org/1999/xlink">
<g id="graph0" class="graph" transform="scale(1 1) rotate(0) translate(4 371)">
<title>access_token</title>
<polygon fill="#ffffff" stroke="transparent" points="-4,4 -4,-371 317,-371 317,4 -4,4"/>
<!-- access_token -->
<g id="node1" class="node">
<title>access_token</title>
<polygon fill="#efefef" stroke="transparent" points="46.5,-285.5 46.5,-320.5 267.5,-320.5 267.5,-285.5 46.5,-285.5"/>
<polygon fill="none" stroke="#000000" points="46.5,-285.5 46.5,-320.5 267.5,-320.5 267.5,-285.5 46.5,-285.5"/>
<text text-anchor="start" x="53.3534" y="-298.3" font-family="Arial Bold" font-size="18.00" fill="#000000">access_token</text>
<text text-anchor="start" x="163.3928" y="-298.3" font-family="Arial" font-size="14.00" fill="#000000"> </text>
<text text-anchor="start" x="167.2834" y="-298.3" font-family="Arial" font-size="14.00" fill="#666666">[BASE TABLE]</text>
<polygon fill="none" stroke="#000000" points="46.5,-255.5 46.5,-285.5 267.5,-285.5 267.5,-255.5 46.5,-255.5"/>
<text text-anchor="start" x="53.5" y="-266.9" font-family="Arial" font-size="14.00" fill="#000000">id </text>
<text text-anchor="start" x="68.2798" y="-266.9" font-family="Arial" font-size="14.00" fill="#666666">[bigint(20)]</text>
<polygon fill="none" stroke="#000000" points="46.5,-225.5 46.5,-255.5 267.5,-255.5 267.5,-225.5 46.5,-225.5"/>
<text text-anchor="start" x="53.5" y="-236.9" font-family="Arial" font-size="14.00" fill="#000000">uid </text>
<text text-anchor="start" x="76.0624" y="-236.9" font-family="Arial" font-size="14.00" fill="#666666">[bigint(20)]</text>
<polygon fill="none" stroke="#000000" points="46.5,-195.5 46.5,-225.5 267.5,-225.5 267.5,-195.5 46.5,-195.5"/>
<text text-anchor="start" x="53.5" y="-206.9" font-family="Arial" font-size="14.00" fill="#000000">name </text>
<text text-anchor="start" x="92.399" y="-206.9" font-family="Arial" font-size="14.00" fill="#666666">[varchar(255)]</text>
<polygon fill="none" stroke="#000000" points="46.5,-165.5 46.5,-195.5 267.5,-195.5 267.5,-165.5 46.5,-165.5"/>
<text text-anchor="start" x="53.5" y="-176.9" font-family="Arial" font-size="14.00" fill="#000000">token_hash </text>
<text text-anchor="start" x="129.7594" y="-176.9" font-family="Arial" font-size="14.00" fill="#666666">[varchar(255)]</text>
<polygon fill="none" stroke="#000000" points="46.5,-135.5 46.5,-165.5 267.5,-165.5 267.5,-135.5 46.5,-135.5"/>
<text text-anchor="start" x="53.5" y="-146.9" font-family="Arial" font-size="14.00" fill="#000000">token_salt </text>
<text text-anchor="start" x="121.1914" y="-146.9" font-family="Arial" font-size="14.00" fill="#666666">[varchar(255)]</text>
<polygon fill="none" stroke="#000000" points="46.5,-105.5 46.5,-135.5 267.5,-135.5 267.5,-105.5 46.5,-105.5"/>
<text text-anchor="start" x="53.5" y="-116.9" font-family="Arial" font-size="14.00" fill="#000000">token_last_eight </text>
<text text-anchor="start" x="159.319" y="-116.9" font-family="Arial" font-size="14.00" fill="#666666">[varchar(255)]</text>
<polygon fill="none" stroke="#000000" points="46.5,-75.5 46.5,-105.5 267.5,-105.5 267.5,-75.5 46.5,-75.5"/>
<text text-anchor="start" x="53.5" y="-86.9" font-family="Arial" font-size="14.00" fill="#000000">created_unix </text>
<text text-anchor="start" x="137.5266" y="-86.9" font-family="Arial" font-size="14.00" fill="#666666">[bigint(20)]</text>
<polygon fill="none" stroke="#000000" points="46.5,-45.5 46.5,-75.5 267.5,-75.5 267.5,-45.5 46.5,-45.5"/>
<text text-anchor="start" x="53.5" y="-56.9" font-family="Arial" font-size="14.00" fill="#000000">updated_unix </text>
<text text-anchor="start" x="141.4312" y="-56.9" font-family="Arial" font-size="14.00" fill="#666666">[bigint(20)]</text>
<polygon fill="none" stroke="#000000" stroke-width="3" points="44.5,-44.5 44.5,-322.5 268.5,-322.5 268.5,-44.5 44.5,-44.5"/>
</g>
</g>
</svg>
