<?xml version="1.0" encoding="UTF-8" standalone="no"?>
<!DOCTYPE svg PUBLIC "-//W3C//DTD SVG 1.1//EN"
 "http://www.w3.org/Graphics/SVG/1.1/DTD/svg11.dtd">
<!-- Generated by graphviz version 2.40.1 (20161225.0304)
 -->
<!-- Title: app_state Pages: 1 -->
<svg width="290pt" height="225pt"
 viewBox="0.00 0.00 290.00 225.00" xmlns="http://www.w3.org/2000/svg" xmlns:xlink="http://www.w3.org/1999/xlink">
<g id="graph0" class="graph" transform="scale(1 1) rotate(0) translate(4 221)">
<title>app_state</title>
<polygon fill="#ffffff" stroke="transparent" points="-4,4 -4,-221 286,-221 286,4 -4,4"/>
<!-- app_state -->
<g id="node1" class="node">
<title>app_state</title>
<polygon fill="#efefef" stroke="transparent" points="46,-135.5 46,-170.5 236,-170.5 236,-135.5 46,-135.5"/>
<polygon fill="none" stroke="#000000" points="46,-135.5 46,-170.5 236,-170.5 236,-135.5 46,-135.5"/>
<text text-anchor="start" x="52.8523" y="-148.3" font-family="Arial Bold" font-size="18.00" fill="#000000">app_state</text>
<text text-anchor="start" x="131.8939" y="-148.3" font-family="Arial" font-size="14.00" fill="#000000"> </text>
<text text-anchor="start" x="135.7845" y="-148.3" font-family="Arial" font-size="14.00" fill="#666666">[BASE TABLE]</text>
<polygon fill="none" stroke="#000000" points="46,-105.5 46,-135.5 236,-135.5 236,-105.5 46,-105.5"/>
<text text-anchor="start" x="53" y="-116.9" font-family="Arial" font-size="14.00" fill="#000000">id </text>
<text text-anchor="start" x="67.7798" y="-116.9" font-family="Arial" font-size="14.00" fill="#666666">[varchar(200)]</text>
<polygon fill="none" stroke="#000000" points="46,-75.5 46,-105.5 236,-105.5 236,-75.5 46,-75.5"/>
<text text-anchor="start" x="53" y="-86.9" font-family="Arial" font-size="14.00" fill="#000000">revision </text>
<text text-anchor="start" x="105.1122" y="-86.9" font-family="Arial" font-size="14.00" fill="#666666">[bigint(20)]</text>
<polygon fill="none" stroke="#000000" points="46,-45.5 46,-75.5 236,-75.5 236,-45.5 46,-45.5"/>
<text text-anchor="start" x="53" y="-56.9" font-family="Arial" font-size="14.00" fill="#000000">content </text>
<text text-anchor="start" x="102.8022" y="-56.9" font-family="Arial" font-size="14.00" fill="#666666">[longtext]</text>
<polygon fill="none" stroke="#000000" stroke-width="3" points="44.5,-44.5 44.5,-172.5 237.5,-172.5 237.5,-44.5 44.5,-44.5"/>
</g>
</g>
</svg>
