<?xml version="1.0" encoding="UTF-8" standalone="no"?>
<!DOCTYPE svg PUBLIC "-//W3C//DTD SVG 1.1//EN"
 "http://www.w3.org/Graphics/SVG/1.1/DTD/svg11.dtd">
<!-- Generated by graphviz version 2.40.1 (20161225.0304)
 -->
<!-- Title: attachment Pages: 1 -->
<svg width="300pt" height="465pt"
 viewBox="0.00 0.00 300.00 465.00" xmlns="http://www.w3.org/2000/svg" xmlns:xlink="http://www.w3.org/1999/xlink">
<g id="graph0" class="graph" transform="scale(1 1) rotate(0) translate(4 461)">
<title>attachment</title>
<polygon fill="#ffffff" stroke="transparent" points="-4,4 -4,-461 296,-461 296,4 -4,4"/>
<!-- attachment -->
<g id="node1" class="node">
<title>attachment</title>
<polygon fill="#efefef" stroke="transparent" points="46,-375.5 46,-410.5 246,-410.5 246,-375.5 46,-375.5"/>
<polygon fill="none" stroke="#000000" points="46,-375.5 46,-410.5 246,-410.5 246,-375.5 46,-375.5"/>
<text text-anchor="start" x="52.8582" y="-388.3" font-family="Arial Bold" font-size="18.00" fill="#000000">attachment</text>
<text text-anchor="start" x="141.888" y="-388.3" font-family="Arial" font-size="14.00" fill="#000000"> </text>
<text text-anchor="start" x="145.7786" y="-388.3" font-family="Arial" font-size="14.00" fill="#666666">[BASE TABLE]</text>
<polygon fill="none" stroke="#000000" points="46,-345.5 46,-375.5 246,-375.5 246,-345.5 46,-345.5"/>
<text text-anchor="start" x="53" y="-356.9" font-family="Arial" font-size="14.00" fill="#000000">id </text>
<text text-anchor="start" x="67.7798" y="-356.9" font-family="Arial" font-size="14.00" fill="#666666">[bigint(20)]</text>
<polygon fill="none" stroke="#000000" points="46,-315.5 46,-345.5 246,-345.5 246,-315.5 46,-315.5"/>
<text text-anchor="start" x="53" y="-326.9" font-family="Arial" font-size="14.00" fill="#000000">uuid </text>
<text text-anchor="start" x="83.345" y="-326.9" font-family="Arial" font-size="14.00" fill="#666666">[varchar(40)]</text>
<polygon fill="none" stroke="#000000" points="46,-285.5 46,-315.5 246,-315.5 246,-285.5 46,-285.5"/>
<text text-anchor="start" x="53" y="-296.9" font-family="Arial" font-size="14.00" fill="#000000">repo_id </text>
<text text-anchor="start" x="103.5708" y="-296.9" font-family="Arial" font-size="14.00" fill="#666666">[bigint(20)]</text>
<polygon fill="none" stroke="#000000" points="46,-255.5 46,-285.5 246,-285.5 246,-255.5 46,-255.5"/>
<text text-anchor="start" x="53" y="-266.9" font-family="Arial" font-size="14.00" fill="#000000">issue_id </text>
<text text-anchor="start" x="108.2342" y="-266.9" font-family="Arial" font-size="14.00" fill="#666666">[bigint(20)]</text>
<polygon fill="none" stroke="#000000" points="46,-225.5 46,-255.5 246,-255.5 246,-225.5 46,-225.5"/>
<text text-anchor="start" x="53" y="-236.9" font-family="Arial" font-size="14.00" fill="#000000">release_id </text>
<text text-anchor="start" x="121.46" y="-236.9" font-family="Arial" font-size="14.00" fill="#666666">[bigint(20)]</text>
<polygon fill="none" stroke="#000000" points="46,-195.5 46,-225.5 246,-225.5 246,-195.5 46,-195.5"/>
<text text-anchor="start" x="53" y="-206.9" font-family="Arial" font-size="14.00" fill="#000000">uploader_id </text>
<text text-anchor="start" x="130.0252" y="-206.9" font-family="Arial" font-size="14.00" fill="#666666">[bigint(20)]</text>
<polygon fill="none" stroke="#000000" points="46,-165.5 46,-195.5 246,-195.5 246,-165.5 46,-165.5"/>
<text text-anchor="start" x="53" y="-176.9" font-family="Arial" font-size="14.00" fill="#000000">comment_id </text>
<text text-anchor="start" x="133.122" y="-176.9" font-family="Arial" font-size="14.00" fill="#666666">[bigint(20)]</text>
<polygon fill="none" stroke="#000000" points="46,-135.5 46,-165.5 246,-165.5 246,-135.5 46,-135.5"/>
<text text-anchor="start" x="53" y="-146.9" font-family="Arial" font-size="14.00" fill="#000000">name </text>
<text text-anchor="start" x="91.899" y="-146.9" font-family="Arial" font-size="14.00" fill="#666666">[varchar(255)]</text>
<polygon fill="none" stroke="#000000" points="46,-105.5 46,-135.5 246,-135.5 246,-105.5 46,-105.5"/>
<text text-anchor="start" x="53" y="-116.9" font-family="Arial" font-size="14.00" fill="#000000">download_count </text>
<text text-anchor="start" x="158.8204" y="-116.9" font-family="Arial" font-size="14.00" fill="#666666">[bigint(20)]</text>
<polygon fill="none" stroke="#000000" points="46,-75.5 46,-105.5 246,-105.5 246,-75.5 46,-75.5"/>
<text text-anchor="start" x="53" y="-86.9" font-family="Arial" font-size="14.00" fill="#000000">size </text>
<text text-anchor="start" x="81.7798" y="-86.9" font-family="Arial" font-size="14.00" fill="#666666">[bigint(20)]</text>
<polygon fill="none" stroke="#000000" points="46,-45.5 46,-75.5 246,-75.5 246,-45.5 46,-45.5"/>
<text text-anchor="start" x="53" y="-56.9" font-family="Arial" font-size="14.00" fill="#000000">created_unix </text>
<text text-anchor="start" x="137.0266" y="-56.9" font-family="Arial" font-size="14.00" fill="#666666">[bigint(20)]</text>
<polygon fill="none" stroke="#000000" stroke-width="3" points="44.5,-44.5 44.5,-412.5 247.5,-412.5 247.5,-44.5 44.5,-44.5"/>
</g>
</g>
</svg>
