<?xml version="1.0" encoding="UTF-8" standalone="no"?>
<!DOCTYPE svg PUBLIC "-//W3C//DTD SVG 1.1//EN"
 "http://www.w3.org/Graphics/SVG/1.1/DTD/svg11.dtd">
<!-- Generated by graphviz version 2.40.1 (20161225.0304)
 -->
<!-- Title: deleted_branch Pages: 1 -->
<svg width="335pt" height="315pt"
 viewBox="0.00 0.00 335.00 315.00" xmlns="http://www.w3.org/2000/svg" xmlns:xlink="http://www.w3.org/1999/xlink">
<g id="graph0" class="graph" transform="scale(1 1) rotate(0) translate(4 311)">
<title>deleted_branch</title>
<polygon fill="#ffffff" stroke="transparent" points="-4,4 -4,-311 331,-311 331,4 -4,4"/>
<!-- deleted_branch -->
<g id="node1" class="node">
<title>deleted_branch</title>
<polygon fill="#efefef" stroke="transparent" points="46.5,-225.5 46.5,-260.5 281.5,-260.5 281.5,-225.5 46.5,-225.5"/>
<polygon fill="none" stroke="#000000" points="46.5,-225.5 46.5,-260.5 281.5,-260.5 281.5,-225.5 46.5,-225.5"/>
<text text-anchor="start" x="53.3478" y="-238.3" font-family="Arial Bold" font-size="18.00" fill="#000000">deleted_branch</text>
<text text-anchor="start" x="177.3984" y="-238.3" font-family="Arial" font-size="14.00" fill="#000000"> </text>
<text text-anchor="start" x="181.289" y="-238.3" font-family="Arial" font-size="14.00" fill="#666666">[BASE TABLE]</text>
<polygon fill="none" stroke="#000000" points="46.5,-195.5 46.5,-225.5 281.5,-225.5 281.5,-195.5 46.5,-195.5"/>
<text text-anchor="start" x="53.5" y="-206.9" font-family="Arial" font-size="14.00" fill="#000000">id </text>
<text text-anchor="start" x="68.2798" y="-206.9" font-family="Arial" font-size="14.00" fill="#666666">[bigint(20)]</text>
<polygon fill="none" stroke="#000000" points="46.5,-165.5 46.5,-195.5 281.5,-195.5 281.5,-165.5 46.5,-165.5"/>
<text text-anchor="start" x="53.5" y="-176.9" font-family="Arial" font-size="14.00" fill="#000000">repo_id </text>
<text text-anchor="start" x="104.0708" y="-176.9" font-family="Arial" font-size="14.00" fill="#666666">[bigint(20)]</text>
<polygon fill="none" stroke="#000000" points="46.5,-135.5 46.5,-165.5 281.5,-165.5 281.5,-135.5 46.5,-135.5"/>
<text text-anchor="start" x="53.5" y="-146.9" font-family="Arial" font-size="14.00" fill="#000000">name </text>
<text text-anchor="start" x="92.399" y="-146.9" font-family="Arial" font-size="14.00" fill="#666666">[varchar(255)]</text>
<polygon fill="none" stroke="#000000" points="46.5,-105.5 46.5,-135.5 281.5,-135.5 281.5,-105.5 46.5,-105.5"/>
<text text-anchor="start" x="53.5" y="-116.9" font-family="Arial" font-size="14.00" fill="#000000">commit </text>
<text text-anchor="start" x="102.4916" y="-116.9" font-family="Arial" font-size="14.00" fill="#666666">[varchar(255)]</text>
<polygon fill="none" stroke="#000000" points="46.5,-75.5 46.5,-105.5 281.5,-105.5 281.5,-75.5 46.5,-75.5"/>
<text text-anchor="start" x="53.5" y="-86.9" font-family="Arial" font-size="14.00" fill="#000000">deleted_by_id </text>
<text text-anchor="start" x="144.5378" y="-86.9" font-family="Arial" font-size="14.00" fill="#666666">[bigint(20)]</text>
<polygon fill="none" stroke="#000000" points="46.5,-45.5 46.5,-75.5 281.5,-75.5 281.5,-45.5 46.5,-45.5"/>
<text text-anchor="start" x="53.5" y="-56.9" font-family="Arial" font-size="14.00" fill="#000000">deleted_unix </text>
<text text-anchor="start" x="136.7552" y="-56.9" font-family="Arial" font-size="14.00" fill="#666666">[bigint(20)]</text>
<polygon fill="none" stroke="#000000" stroke-width="3" points="44.5,-44.5 44.5,-262.5 282.5,-262.5 282.5,-44.5 44.5,-44.5"/>
</g>
</g>
</svg>
