<?xml version="1.0" encoding="UTF-8" standalone="no"?>
<!DOCTYPE svg PUBLIC "-//W3C//DTD SVG 1.1//EN"
 "http://www.w3.org/Graphics/SVG/1.1/DTD/svg11.dtd">
<!-- Generated by graphviz version 2.40.1 (20161225.0304)
 -->
<!-- Title: issue Pages: 1 -->
<svg width="297pt" height="705pt"
 viewBox="0.00 0.00 297.00 705.00" xmlns="http://www.w3.org/2000/svg" xmlns:xlink="http://www.w3.org/1999/xlink">
<g id="graph0" class="graph" transform="scale(1 1) rotate(0) translate(4 701)">
<title>issue</title>
<polygon fill="#ffffff" stroke="transparent" points="-4,4 -4,-701 293,-701 293,4 -4,4"/>
<!-- issue -->
<g id="node1" class="node">
<title>issue</title>
<polygon fill="#efefef" stroke="transparent" points="46.5,-615.5 46.5,-650.5 243.5,-650.5 243.5,-615.5 46.5,-615.5"/>
<polygon fill="none" stroke="#000000" points="46.5,-615.5 46.5,-650.5 243.5,-650.5 243.5,-615.5 46.5,-615.5"/>
<text text-anchor="start" x="75.3698" y="-628.3" font-family="Arial Bold" font-size="18.00" fill="#000000">issue</text>
<text text-anchor="start" x="117.3764" y="-628.3" font-family="Arial" font-size="14.00" fill="#000000"> </text>
<text text-anchor="start" x="121.267" y="-628.3" font-family="Arial" font-size="14.00" fill="#666666">[BASE TABLE]</text>
<polygon fill="none" stroke="#000000" points="46.5,-585.5 46.5,-615.5 243.5,-615.5 243.5,-585.5 46.5,-585.5"/>
<text text-anchor="start" x="53.5" y="-596.9" font-family="Arial" font-size="14.00" fill="#000000">id </text>
<text text-anchor="start" x="68.2798" y="-596.9" font-family="Arial" font-size="14.00" fill="#666666">[bigint(20)]</text>
<polygon fill="none" stroke="#000000" points="46.5,-555.5 46.5,-585.5 243.5,-585.5 243.5,-555.5 46.5,-555.5"/>
<text text-anchor="start" x="53.5" y="-566.9" font-family="Arial" font-size="14.00" fill="#000000">repo_id </text>
<text text-anchor="start" x="104.0708" y="-566.9" font-family="Arial" font-size="14.00" fill="#666666">[bigint(20)]</text>
<polygon fill="none" stroke="#000000" points="46.5,-525.5 46.5,-555.5 243.5,-555.5 243.5,-525.5 46.5,-525.5"/>
<text text-anchor="start" x="53.5" y="-536.9" font-family="Arial" font-size="14.00" fill="#000000">index </text>
<text text-anchor="start" x="90.845" y="-536.9" font-family="Arial" font-size="14.00" fill="#666666">[bigint(20)]</text>
<polygon fill="none" stroke="#000000" points="46.5,-495.5 46.5,-525.5 243.5,-525.5 243.5,-495.5 46.5,-495.5"/>
<text text-anchor="start" x="53.5" y="-506.9" font-family="Arial" font-size="14.00" fill="#000000">poster_id </text>
<text text-anchor="start" x="114.9614" y="-506.9" font-family="Arial" font-size="14.00" fill="#666666">[bigint(20)]</text>
<polygon fill="none" stroke="#000000" points="46.5,-465.5 46.5,-495.5 243.5,-495.5 243.5,-465.5 46.5,-465.5"/>
<text text-anchor="start" x="53.2076" y="-476.9" font-family="Arial" font-size="14.00" fill="#000000">original_author </text>
<text text-anchor="start" x="149.6732" y="-476.9" font-family="Arial" font-size="14.00" fill="#666666">[varchar(255)]</text>
<polygon fill="none" stroke="#000000" points="46.5,-435.5 46.5,-465.5 243.5,-465.5 243.5,-435.5 46.5,-435.5"/>
<text text-anchor="start" x="53.5" y="-446.9" font-family="Arial" font-size="14.00" fill="#000000">original_author_id </text>
<text text-anchor="start" x="168.6374" y="-446.9" font-family="Arial" font-size="14.00" fill="#666666">[bigint(20)]</text>
<polygon fill="none" stroke="#000000" points="46.5,-405.5 46.5,-435.5 243.5,-435.5 243.5,-405.5 46.5,-405.5"/>
<text text-anchor="start" x="53.5" y="-416.9" font-family="Arial" font-size="14.00" fill="#000000">name </text>
<text text-anchor="start" x="92.399" y="-416.9" font-family="Arial" font-size="14.00" fill="#666666">[varchar(255)]</text>
<polygon fill="none" stroke="#000000" points="46.5,-375.5 46.5,-405.5 243.5,-405.5 243.5,-375.5 46.5,-375.5"/>
<text text-anchor="start" x="53.5" y="-386.9" font-family="Arial" font-size="14.00" fill="#000000">content </text>
<text text-anchor="start" x="103.3022" y="-386.9" font-family="Arial" font-size="14.00" fill="#666666">[longtext]</text>
<polygon fill="none" stroke="#000000" points="46.5,-345.5 46.5,-375.5 243.5,-375.5 243.5,-345.5 46.5,-345.5"/>
<text text-anchor="start" x="53.5" y="-356.9" font-family="Arial" font-size="14.00" fill="#000000">milestone_id </text>
<text text-anchor="start" x="135.9572" y="-356.9" font-family="Arial" font-size="14.00" fill="#666666">[bigint(20)]</text>
<polygon fill="none" stroke="#000000" points="46.5,-315.5 46.5,-345.5 243.5,-345.5 243.5,-315.5 46.5,-315.5"/>
<text text-anchor="start" x="53.5" y="-326.9" font-family="Arial" font-size="14.00" fill="#000000">priority </text>
<text text-anchor="start" x="99.3808" y="-326.9" font-family="Arial" font-size="14.00" fill="#666666">[int(11)]</text>
<polygon fill="none" stroke="#000000" points="46.5,-285.5 46.5,-315.5 243.5,-315.5 243.5,-285.5 46.5,-285.5"/>
<text text-anchor="start" x="53.5" y="-296.9" font-family="Arial" font-size="14.00" fill="#000000">is_closed </text>
<text text-anchor="start" x="115.7342" y="-296.9" font-family="Arial" font-size="14.00" fill="#666666">[tinyint(1)]</text>
<polygon fill="none" stroke="#000000" points="46.5,-255.5 46.5,-285.5 243.5,-285.5 243.5,-255.5 46.5,-255.5"/>
<text text-anchor="start" x="53.5" y="-266.9" font-family="Arial" font-size="14.00" fill="#000000">is_pull </text>
<text text-anchor="start" x="97.0582" y="-266.9" font-family="Arial" font-size="14.00" fill="#666666">[tinyint(1)]</text>
<polygon fill="none" stroke="#000000" points="46.5,-225.5 46.5,-255.5 243.5,-255.5 243.5,-225.5 46.5,-225.5"/>
<text text-anchor="start" x="53.5" y="-236.9" font-family="Arial" font-size="14.00" fill="#000000">num_comments </text>
<text text-anchor="start" x="156.9586" y="-236.9" font-family="Arial" font-size="14.00" fill="#666666">[int(11)]</text>
<polygon fill="none" stroke="#000000" points="46.5,-195.5 46.5,-225.5 243.5,-225.5 243.5,-195.5 46.5,-195.5"/>
<text text-anchor="start" x="53.5" y="-206.9" font-family="Arial" font-size="14.00" fill="#000000">ref </text>
<text text-anchor="start" x="73.7244" y="-206.9" font-family="Arial" font-size="14.00" fill="#666666">[varchar(255)]</text>
<polygon fill="none" stroke="#000000" points="46.5,-165.5 46.5,-195.5 243.5,-195.5 243.5,-165.5 46.5,-165.5"/>
<text text-anchor="start" x="53.5" y="-176.9" font-family="Arial" font-size="14.00" fill="#000000">deadline_unix </text>
<text text-anchor="start" x="143.7538" y="-176.9" font-family="Arial" font-size="14.00" fill="#666666">[bigint(20)]</text>
<polygon fill="none" stroke="#000000" points="46.5,-135.5 46.5,-165.5 243.5,-165.5 243.5,-135.5 46.5,-135.5"/>
<text text-anchor="start" x="53.5" y="-146.9" font-family="Arial" font-size="14.00" fill="#000000">created_unix </text>
<text text-anchor="start" x="137.5266" y="-146.9" font-family="Arial" font-size="14.00" fill="#666666">[bigint(20)]</text>
<polygon fill="none" stroke="#000000" points="46.5,-105.5 46.5,-135.5 243.5,-135.5 243.5,-105.5 46.5,-105.5"/>
<text text-anchor="start" x="53.5" y="-116.9" font-family="Arial" font-size="14.00" fill="#000000">updated_unix </text>
<text text-anchor="start" x="141.4312" y="-116.9" font-family="Arial" font-size="14.00" fill="#666666">[bigint(20)]</text>
<polygon fill="none" stroke="#000000" points="46.5,-75.5 46.5,-105.5 243.5,-105.5 243.5,-75.5 46.5,-75.5"/>
<text text-anchor="start" x="53.5" y="-86.9" font-family="Arial" font-size="14.00" fill="#000000">closed_unix </text>
<text text-anchor="start" x="131.2994" y="-86.9" font-family="Arial" font-size="14.00" fill="#666666">[bigint(20)]</text>
<polygon fill="none" stroke="#000000" points="46.5,-45.5 46.5,-75.5 243.5,-75.5 243.5,-45.5 46.5,-45.5"/>
<text text-anchor="start" x="53.5" y="-56.9" font-family="Arial" font-size="14.00" fill="#000000">is_locked </text>
<text text-anchor="start" x="115.7342" y="-56.9" font-family="Arial" font-size="14.00" fill="#666666">[tinyint(1)]</text>
<polygon fill="none" stroke="#000000" stroke-width="3" points="44.5,-44.5 44.5,-652.5 244.5,-652.5 244.5,-44.5 44.5,-44.5"/>
</g>
</g>
</svg>
