<?xml version="1.0" encoding="UTF-8" standalone="no"?>
<!DOCTYPE svg PUBLIC "-//W3C//DTD SVG 1.1//EN"
 "http://www.w3.org/Graphics/SVG/1.1/DTD/svg11.dtd">
<!-- Generated by graphviz version 2.40.1 (20161225.0304)
 -->
<!-- Title: mirror Pages: 1 -->
<svg width="294pt" height="375pt"
 viewBox="0.00 0.00 294.00 375.00" xmlns="http://www.w3.org/2000/svg" xmlns:xlink="http://www.w3.org/1999/xlink">
<g id="graph0" class="graph" transform="scale(1 1) rotate(0) translate(4 371)">
<title>mirror</title>
<polygon fill="#ffffff" stroke="transparent" points="-4,4 -4,-371 290,-371 290,4 -4,4"/>
<!-- mirror -->
<g id="node1" class="node">
<title>mirror</title>
<polygon fill="#efefef" stroke="transparent" points="46,-285.5 46,-320.5 240,-320.5 240,-285.5 46,-285.5"/>
<polygon fill="none" stroke="#000000" points="46,-285.5 46,-320.5 240,-320.5 240,-285.5 46,-285.5"/>
<text text-anchor="start" x="70.8885" y="-298.3" font-family="Arial Bold" font-size="18.00" fill="#000000">mirror</text>
<text text-anchor="start" x="117.8577" y="-298.3" font-family="Arial" font-size="14.00" fill="#000000"> </text>
<text text-anchor="start" x="121.7483" y="-298.3" font-family="Arial" font-size="14.00" fill="#666666">[BASE TABLE]</text>
<polygon fill="none" stroke="#000000" points="46,-255.5 46,-285.5 240,-285.5 240,-255.5 46,-255.5"/>
<text text-anchor="start" x="53" y="-266.9" font-family="Arial" font-size="14.00" fill="#000000">id </text>
<text text-anchor="start" x="67.7798" y="-266.9" font-family="Arial" font-size="14.00" fill="#666666">[bigint(20)]</text>
<polygon fill="none" stroke="#000000" points="46,-225.5 46,-255.5 240,-255.5 240,-225.5 46,-225.5"/>
<text text-anchor="start" x="53" y="-236.9" font-family="Arial" font-size="14.00" fill="#000000">repo_id </text>
<text text-anchor="start" x="103.5708" y="-236.9" font-family="Arial" font-size="14.00" fill="#666666">[bigint(20)]</text>
<polygon fill="none" stroke="#000000" points="46,-195.5 46,-225.5 240,-225.5 240,-195.5 46,-195.5"/>
<text text-anchor="start" x="53" y="-206.9" font-family="Arial" font-size="14.00" fill="#000000">interval </text>
<text text-anchor="start" x="102.0028" y="-206.9" font-family="Arial" font-size="14.00" fill="#666666">[bigint(20)]</text>
<polygon fill="none" stroke="#000000" points="46,-165.5 46,-195.5 240,-195.5 240,-165.5 46,-165.5"/>
<text text-anchor="start" x="53" y="-176.9" font-family="Arial" font-size="14.00" fill="#000000">enable_prune </text>
<text text-anchor="start" x="142.4838" y="-176.9" font-family="Arial" font-size="14.00" fill="#666666">[tinyint(1)]</text>
<polygon fill="none" stroke="#000000" points="46,-135.5 46,-165.5 240,-165.5 240,-135.5 46,-135.5"/>
<text text-anchor="start" x="53" y="-146.9" font-family="Arial" font-size="14.00" fill="#000000">updated_unix </text>
<text text-anchor="start" x="140.9312" y="-146.9" font-family="Arial" font-size="14.00" fill="#666666">[bigint(20)]</text>
<polygon fill="none" stroke="#000000" points="46,-105.5 46,-135.5 240,-135.5 240,-105.5 46,-105.5"/>
<text text-anchor="start" x="52.7469" y="-116.9" font-family="Arial" font-size="14.00" fill="#000000">next_update_unix </text>
<text text-anchor="start" x="167.1339" y="-116.9" font-family="Arial" font-size="14.00" fill="#666666">[bigint(20)]</text>
<polygon fill="none" stroke="#000000" points="46,-75.5 46,-105.5 240,-105.5 240,-75.5 46,-75.5"/>
<text text-anchor="start" x="53" y="-86.9" font-family="Arial" font-size="14.00" fill="#000000">lfs_enabled </text>
<text text-anchor="start" x="128.4726" y="-86.9" font-family="Arial" font-size="14.00" fill="#666666">[tinyint(1)]</text>
<polygon fill="none" stroke="#000000" points="46,-45.5 46,-75.5 240,-75.5 240,-45.5 46,-45.5"/>
<text text-anchor="start" x="53" y="-56.9" font-family="Arial" font-size="14.00" fill="#000000">lfs_endpoint </text>
<text text-anchor="start" x="132.3632" y="-56.9" font-family="Arial" font-size="14.00" fill="#666666">[text]</text>
<polygon fill="none" stroke="#000000" stroke-width="3" points="44.5,-44.5 44.5,-322.5 241.5,-322.5 241.5,-44.5 44.5,-44.5"/>
</g>
</g>
</svg>
