<?xml version="1.0" encoding="UTF-8" standalone="no"?>
<!DOCTYPE svg PUBLIC "-//W3C//DTD SVG 1.1//EN"
 "http://www.w3.org/Graphics/SVG/1.1/DTD/svg11.dtd">
<!-- Generated by graphviz version 2.40.1 (20161225.0304)
 -->
<!-- Title: oauth2_application Pages: 1 -->
<svg width="362pt" height="375pt"
 viewBox="0.00 0.00 362.00 375.00" xmlns="http://www.w3.org/2000/svg" xmlns:xlink="http://www.w3.org/1999/xlink">
<g id="graph0" class="graph" transform="scale(1 1) rotate(0) translate(4 371)">
<title>oauth2_application</title>
<polygon fill="#ffffff" stroke="transparent" points="-4,4 -4,-371 358,-371 358,4 -4,4"/>
<!-- oauth2_application -->
<g id="node1" class="node">
<title>oauth2_application</title>
<polygon fill="#efefef" stroke="transparent" points="46,-285.5 46,-320.5 308,-320.5 308,-285.5 46,-285.5"/>
<polygon fill="none" stroke="#000000" points="46,-285.5 46,-320.5 308,-320.5 308,-285.5 46,-285.5"/>
<text text-anchor="start" x="52.8424" y="-298.3" font-family="Arial Bold" font-size="18.00" fill="#000000">oauth2_application</text>
<text text-anchor="start" x="203.9038" y="-298.3" font-family="Arial" font-size="14.00" fill="#000000"> </text>
<text text-anchor="start" x="207.7944" y="-298.3" font-family="Arial" font-size="14.00" fill="#666666">[BASE TABLE]</text>
<polygon fill="none" stroke="#000000" points="46,-255.5 46,-285.5 308,-285.5 308,-255.5 46,-255.5"/>
<text text-anchor="start" x="53" y="-266.9" font-family="Arial" font-size="14.00" fill="#000000">id </text>
<text text-anchor="start" x="67.7798" y="-266.9" font-family="Arial" font-size="14.00" fill="#666666">[bigint(20)]</text>
<polygon fill="none" stroke="#000000" points="46,-225.5 46,-255.5 308,-255.5 308,-225.5 46,-225.5"/>
<text text-anchor="start" x="53" y="-236.9" font-family="Arial" font-size="14.00" fill="#000000">uid </text>
<text text-anchor="start" x="75.5624" y="-236.9" font-family="Arial" font-size="14.00" fill="#666666">[bigint(20)]</text>
<polygon fill="none" stroke="#000000" points="46,-195.5 46,-225.5 308,-225.5 308,-195.5 46,-195.5"/>
<text text-anchor="start" x="53" y="-206.9" font-family="Arial" font-size="14.00" fill="#000000">name </text>
<text text-anchor="start" x="91.899" y="-206.9" font-family="Arial" font-size="14.00" fill="#666666">[varchar(255)]</text>
<polygon fill="none" stroke="#000000" points="46,-165.5 46,-195.5 308,-195.5 308,-165.5 46,-165.5"/>
<text text-anchor="start" x="53" y="-176.9" font-family="Arial" font-size="14.00" fill="#000000">client_id </text>
<text text-anchor="start" x="108.2314" y="-176.9" font-family="Arial" font-size="14.00" fill="#666666">[varchar(255)]</text>
<polygon fill="none" stroke="#000000" points="46,-135.5 46,-165.5 308,-165.5 308,-135.5 46,-135.5"/>
<text text-anchor="start" x="53" y="-146.9" font-family="Arial" font-size="14.00" fill="#000000">client_secret </text>
<text text-anchor="start" x="135.4586" y="-146.9" font-family="Arial" font-size="14.00" fill="#666666">[varchar(255)]</text>
<polygon fill="none" stroke="#000000" points="46,-105.5 46,-135.5 308,-135.5 308,-105.5 46,-105.5"/>
<text text-anchor="start" x="53" y="-116.9" font-family="Arial" font-size="14.00" fill="#000000">redirect_uris </text>
<text text-anchor="start" x="133.8892" y="-116.9" font-family="Arial" font-size="14.00" fill="#666666">[text]</text>
<polygon fill="none" stroke="#000000" points="46,-75.5 46,-105.5 308,-105.5 308,-75.5 46,-75.5"/>
<text text-anchor="start" x="53" y="-86.9" font-family="Arial" font-size="14.00" fill="#000000">created_unix </text>
<text text-anchor="start" x="137.0266" y="-86.9" font-family="Arial" font-size="14.00" fill="#666666">[bigint(20)]</text>
<polygon fill="none" stroke="#000000" points="46,-45.5 46,-75.5 308,-75.5 308,-45.5 46,-45.5"/>
<text text-anchor="start" x="53" y="-56.9" font-family="Arial" font-size="14.00" fill="#000000">updated_unix </text>
<text text-anchor="start" x="140.9312" y="-56.9" font-family="Arial" font-size="14.00" fill="#666666">[bigint(20)]</text>
<polygon fill="none" stroke="#000000" stroke-width="3" points="44.5,-44.5 44.5,-322.5 309.5,-322.5 309.5,-44.5 44.5,-44.5"/>
</g>
</g>
</svg>
