<?xml version="1.0" encoding="UTF-8" standalone="no"?>
<!DOCTYPE svg PUBLIC "-//W3C//DTD SVG 1.1//EN"
 "http://www.w3.org/Graphics/SVG/1.1/DTD/svg11.dtd">
<!-- Generated by graphviz version 2.40.1 (20161225.0304)
 -->
<!-- Title: oauth2_authorization_code Pages: 1 -->
<svg width="428pt" height="345pt"
 viewBox="0.00 0.00 428.00 345.00" xmlns="http://www.w3.org/2000/svg" xmlns:xlink="http://www.w3.org/1999/xlink">
<g id="graph0" class="graph" transform="scale(1 1) rotate(0) translate(4 341)">
<title>oauth2_authorization_code</title>
<polygon fill="#ffffff" stroke="transparent" points="-4,4 -4,-341 424,-341 424,4 -4,4"/>
<!-- oauth2_authorization_code -->
<g id="node1" class="node">
<title>oauth2_authorization_code</title>
<polygon fill="#efefef" stroke="transparent" points="46,-255.5 46,-290.5 374,-290.5 374,-255.5 46,-255.5"/>
<polygon fill="none" stroke="#000000" points="46,-255.5 46,-290.5 374,-290.5 374,-255.5 46,-255.5"/>
<text text-anchor="start" x="52.8268" y="-268.3" font-family="Arial Bold" font-size="18.00" fill="#000000">oauth2_authorization_code</text>
<text text-anchor="start" x="269.9194" y="-268.3" font-family="Arial" font-size="14.00" fill="#000000"> </text>
<text text-anchor="start" x="273.81" y="-268.3" font-family="Arial" font-size="14.00" fill="#666666">[BASE TABLE]</text>
<polygon fill="none" stroke="#000000" points="46,-225.5 46,-255.5 374,-255.5 374,-225.5 46,-225.5"/>
<text text-anchor="start" x="53" y="-236.9" font-family="Arial" font-size="14.00" fill="#000000">id </text>
<text text-anchor="start" x="67.7798" y="-236.9" font-family="Arial" font-size="14.00" fill="#666666">[bigint(20)]</text>
<polygon fill="none" stroke="#000000" points="46,-195.5 46,-225.5 374,-225.5 374,-195.5 46,-195.5"/>
<text text-anchor="start" x="53" y="-206.9" font-family="Arial" font-size="14.00" fill="#000000">grant_id </text>
<text text-anchor="start" x="107.4614" y="-206.9" font-family="Arial" font-size="14.00" fill="#666666">[bigint(20)]</text>
<polygon fill="none" stroke="#000000" points="46,-165.5 46,-195.5 374,-195.5 374,-165.5 46,-165.5"/>
<text text-anchor="start" x="53" y="-176.9" font-family="Arial" font-size="14.00" fill="#000000">code </text>
<text text-anchor="start" x="87.2384" y="-176.9" font-family="Arial" font-size="14.00" fill="#666666">[varchar(255)]</text>
<polygon fill="none" stroke="#000000" points="46,-135.5 46,-165.5 374,-165.5 374,-135.5 46,-135.5"/>
<text text-anchor="start" x="53" y="-146.9" font-family="Arial" font-size="14.00" fill="#000000">code_challenge </text>
<text text-anchor="start" x="154.9298" y="-146.9" font-family="Arial" font-size="14.00" fill="#666666">[varchar(255)]</text>
<polygon fill="none" stroke="#000000" points="46,-105.5 46,-135.5 374,-135.5 374,-105.5 46,-105.5"/>
<text text-anchor="start" x="53" y="-116.9" font-family="Arial" font-size="14.00" fill="#000000">code_challenge_method </text>
<text text-anchor="start" x="209.394" y="-116.9" font-family="Arial" font-size="14.00" fill="#666666">[varchar(255)]</text>
<polygon fill="none" stroke="#000000" points="46,-75.5 46,-105.5 374,-105.5 374,-75.5 46,-75.5"/>
<text text-anchor="start" x="53" y="-86.9" font-family="Arial" font-size="14.00" fill="#000000">redirect_uri </text>
<text text-anchor="start" x="126.8892" y="-86.9" font-family="Arial" font-size="14.00" fill="#666666">[varchar(255)]</text>
<polygon fill="none" stroke="#000000" points="46,-45.5 46,-75.5 374,-75.5 374,-45.5 46,-45.5"/>
<text text-anchor="start" x="53" y="-56.9" font-family="Arial" font-size="14.00" fill="#000000">valid_until </text>
<text text-anchor="start" x="119.1206" y="-56.9" font-family="Arial" font-size="14.00" fill="#666666">[bigint(20)]</text>
<polygon fill="none" stroke="#000000" stroke-width="3" points="44.5,-44.5 44.5,-292.5 375.5,-292.5 375.5,-44.5 44.5,-44.5"/>
</g>
</g>
</svg>
