<?xml version="1.0" encoding="UTF-8" standalone="no"?>
<!DOCTYPE svg PUBLIC "-//W3C//DTD SVG 1.1//EN"
 "http://www.w3.org/Graphics/SVG/1.1/DTD/svg11.dtd">
<!-- Generated by graphviz version 2.40.1 (20161225.0304)
 -->
<!-- Title: package_blob Pages: 1 -->
<svg width="323pt" height="345pt"
 viewBox="0.00 0.00 323.00 345.00" xmlns="http://www.w3.org/2000/svg" xmlns:xlink="http://www.w3.org/1999/xlink">
<g id="graph0" class="graph" transform="scale(1 1) rotate(0) translate(4 341)">
<title>package_blob</title>
<polygon fill="#ffffff" stroke="transparent" points="-4,4 -4,-341 319,-341 319,4 -4,4"/>
<!-- package_blob -->
<g id="node1" class="node">
<title>package_blob</title>
<polygon fill="#efefef" stroke="transparent" points="46.5,-255.5 46.5,-290.5 269.5,-290.5 269.5,-255.5 46.5,-255.5"/>
<polygon fill="none" stroke="#000000" points="46.5,-255.5 46.5,-290.5 269.5,-290.5 269.5,-255.5 46.5,-255.5"/>
<text text-anchor="start" x="53.3481" y="-268.3" font-family="Arial Bold" font-size="18.00" fill="#000000">package_blob</text>
<text text-anchor="start" x="165.3981" y="-268.3" font-family="Arial" font-size="14.00" fill="#000000"> </text>
<text text-anchor="start" x="169.2887" y="-268.3" font-family="Arial" font-size="14.00" fill="#666666">[BASE TABLE]</text>
<polygon fill="none" stroke="#000000" points="46.5,-225.5 46.5,-255.5 269.5,-255.5 269.5,-225.5 46.5,-225.5"/>
<text text-anchor="start" x="53.5" y="-236.9" font-family="Arial" font-size="14.00" fill="#000000">id </text>
<text text-anchor="start" x="68.2798" y="-236.9" font-family="Arial" font-size="14.00" fill="#666666">[bigint(20)]</text>
<polygon fill="none" stroke="#000000" points="46.5,-195.5 46.5,-225.5 269.5,-225.5 269.5,-195.5 46.5,-195.5"/>
<text text-anchor="start" x="53.5" y="-206.9" font-family="Arial" font-size="14.00" fill="#000000">size </text>
<text text-anchor="start" x="82.2798" y="-206.9" font-family="Arial" font-size="14.00" fill="#666666">[bigint(20)]</text>
<polygon fill="none" stroke="#000000" points="46.5,-165.5 46.5,-195.5 269.5,-195.5 269.5,-165.5 46.5,-165.5"/>
<text text-anchor="start" x="53.5" y="-176.9" font-family="Arial" font-size="14.00" fill="#000000">hash_md5 </text>
<text text-anchor="start" x="122.7468" y="-176.9" font-family="Arial" font-size="14.00" fill="#666666">[char(32)]</text>
<polygon fill="none" stroke="#000000" points="46.5,-135.5 46.5,-165.5 269.5,-165.5 269.5,-135.5 46.5,-135.5"/>
<text text-anchor="start" x="53.5" y="-146.9" font-family="Arial" font-size="14.00" fill="#000000">hash_sha1 </text>
<text text-anchor="start" x="125.8688" y="-146.9" font-family="Arial" font-size="14.00" fill="#666666">[char(40)]</text>
<polygon fill="none" stroke="#000000" points="46.5,-105.5 46.5,-135.5 269.5,-135.5 269.5,-105.5 46.5,-105.5"/>
<text text-anchor="start" x="53.5" y="-116.9" font-family="Arial" font-size="14.00" fill="#000000">hash_sha256 </text>
<text text-anchor="start" x="141.434" y="-116.9" font-family="Arial" font-size="14.00" fill="#666666">[char(64)]</text>
<polygon fill="none" stroke="#000000" points="46.5,-75.5 46.5,-105.5 269.5,-105.5 269.5,-75.5 46.5,-75.5"/>
<text text-anchor="start" x="53.5" y="-86.9" font-family="Arial" font-size="14.00" fill="#000000">hash_sha512 </text>
<text text-anchor="start" x="141.434" y="-86.9" font-family="Arial" font-size="14.00" fill="#666666">[char(128)]</text>
<polygon fill="none" stroke="#000000" points="46.5,-45.5 46.5,-75.5 269.5,-75.5 269.5,-45.5 46.5,-45.5"/>
<text text-anchor="start" x="53.5" y="-56.9" font-family="Arial" font-size="14.00" fill="#000000">created_unix </text>
<text text-anchor="start" x="137.5266" y="-56.9" font-family="Arial" font-size="14.00" fill="#666666">[bigint(20)]</text>
<polygon fill="none" stroke="#000000" stroke-width="3" points="44.5,-44.5 44.5,-292.5 270.5,-292.5 270.5,-44.5 44.5,-44.5"/>
</g>
</g>
</svg>
