<?xml version="1.0" encoding="UTF-8" standalone="no"?>
<!DOCTYPE svg PUBLIC "-//W3C//DTD SVG 1.1//EN"
 "http://www.w3.org/Graphics/SVG/1.1/DTD/svg11.dtd">
<!-- Generated by graphviz version 2.40.1 (20161225.0304)
 -->
<!-- Title: session Pages: 1 -->
<svg width="272pt" height="225pt"
 viewBox="0.00 0.00 272.00 225.00" xmlns="http://www.w3.org/2000/svg" xmlns:xlink="http://www.w3.org/1999/xlink">
<g id="graph0" class="graph" transform="scale(1 1) rotate(0) translate(4 221)">
<title>session</title>
<polygon fill="#ffffff" stroke="transparent" points="-4,4 -4,-221 268,-221 268,4 -4,4"/>
<!-- session -->
<g id="node1" class="node">
<title>session</title>
<polygon fill="#efefef" stroke="transparent" points="46,-135.5 46,-170.5 218,-170.5 218,-135.5 46,-135.5"/>
<polygon fill="none" stroke="#000000" points="46,-135.5 46,-170.5 218,-170.5 218,-135.5 46,-135.5"/>
<text text-anchor="start" x="52.8667" y="-148.3" font-family="Arial Bold" font-size="18.00" fill="#000000">session</text>
<text text-anchor="start" x="113.8795" y="-148.3" font-family="Arial" font-size="14.00" fill="#000000"> </text>
<text text-anchor="start" x="117.7701" y="-148.3" font-family="Arial" font-size="14.00" fill="#666666">[BASE TABLE]</text>
<polygon fill="none" stroke="#000000" points="46,-105.5 46,-135.5 218,-135.5 218,-105.5 46,-105.5"/>
<text text-anchor="start" x="53" y="-116.9" font-family="Arial" font-size="14.00" fill="#000000">key </text>
<text text-anchor="start" x="78.6732" y="-116.9" font-family="Arial" font-size="14.00" fill="#666666">[char(16)]</text>
<polygon fill="none" stroke="#000000" points="46,-75.5 46,-105.5 218,-105.5 218,-75.5 46,-75.5"/>
<text text-anchor="start" x="53" y="-86.9" font-family="Arial" font-size="14.00" fill="#000000">data </text>
<text text-anchor="start" x="84.129" y="-86.9" font-family="Arial" font-size="14.00" fill="#666666">[blob]</text>
<polygon fill="none" stroke="#000000" points="46,-45.5 46,-75.5 218,-75.5 218,-45.5 46,-45.5"/>
<text text-anchor="start" x="53" y="-56.9" font-family="Arial" font-size="14.00" fill="#000000">expiry </text>
<text text-anchor="start" x="94.223" y="-56.9" font-family="Arial" font-size="14.00" fill="#666666">[bigint(20)]</text>
<polygon fill="none" stroke="#000000" stroke-width="3" points="44.5,-44.5 44.5,-172.5 219.5,-172.5 219.5,-44.5 44.5,-44.5"/>
</g>
</g>
</svg>
