<?xml version="1.0" encoding="UTF-8" standalone="no"?>
<!DOCTYPE svg PUBLIC "-//W3C//DTD SVG 1.1//EN"
 "http://www.w3.org/Graphics/SVG/1.1/DTD/svg11.dtd">
<!-- Generated by graphviz version 2.40.1 (20161225.0304)
 -->
<!-- Title: topic Pages: 1 -->
<svg width="268pt" height="285pt"
 viewBox="0.00 0.00 268.00 285.00" xmlns="http://www.w3.org/2000/svg" xmlns:xlink="http://www.w3.org/1999/xlink">
<g id="graph0" class="graph" transform="scale(1 1) rotate(0) translate(4 281)">
<title>topic</title>
<polygon fill="#ffffff" stroke="transparent" points="-4,4 -4,-281 264,-281 264,4 -4,4"/>
<!-- topic -->
<g id="node1" class="node">
<title>topic</title>
<polygon fill="#efefef" stroke="transparent" points="46,-195.5 46,-230.5 214,-230.5 214,-195.5 46,-195.5"/>
<polygon fill="none" stroke="#000000" points="46,-195.5 46,-230.5 214,-230.5 214,-195.5 46,-195.5"/>
<text text-anchor="start" x="62.3687" y="-208.3" font-family="Arial Bold" font-size="18.00" fill="#000000">topic</text>
<text text-anchor="start" x="100.3775" y="-208.3" font-family="Arial" font-size="14.00" fill="#000000"> </text>
<text text-anchor="start" x="104.2681" y="-208.3" font-family="Arial" font-size="14.00" fill="#666666">[BASE TABLE]</text>
<polygon fill="none" stroke="#000000" points="46,-165.5 46,-195.5 214,-195.5 214,-165.5 46,-165.5"/>
<text text-anchor="start" x="53" y="-176.9" font-family="Arial" font-size="14.00" fill="#000000">id </text>
<text text-anchor="start" x="67.7798" y="-176.9" font-family="Arial" font-size="14.00" fill="#666666">[bigint(20)]</text>
<polygon fill="none" stroke="#000000" points="46,-135.5 46,-165.5 214,-165.5 214,-135.5 46,-135.5"/>
<text text-anchor="start" x="53" y="-146.9" font-family="Arial" font-size="14.00" fill="#000000">name </text>
<text text-anchor="start" x="91.899" y="-146.9" font-family="Arial" font-size="14.00" fill="#666666">[varchar(50)]</text>
<polygon fill="none" stroke="#000000" points="46,-105.5 46,-135.5 214,-135.5 214,-105.5 46,-105.5"/>
<text text-anchor="start" x="53" y="-116.9" font-family="Arial" font-size="14.00" fill="#000000">repo_count </text>
<text text-anchor="start" x="126.92" y="-116.9" font-family="Arial" font-size="14.00" fill="#666666">[int(11)]</text>
<polygon fill="none" stroke="#000000" points="46,-75.5 46,-105.5 214,-105.5 214,-75.5 46,-75.5"/>
<text text-anchor="start" x="53" y="-86.9" font-family="Arial" font-size="14.00" fill="#000000">created_unix </text>
<text text-anchor="start" x="137.0266" y="-86.9" font-family="Arial" font-size="14.00" fill="#666666">[bigint(20)]</text>
<polygon fill="none" stroke="#000000" points="46,-45.5 46,-75.5 214,-75.5 214,-45.5 46,-45.5"/>
<text text-anchor="start" x="52.9748" y="-56.9" font-family="Arial" font-size="14.00" fill="#000000">updated_unix </text>
<text text-anchor="start" x="140.906" y="-56.9" font-family="Arial" font-size="14.00" fill="#666666">[bigint(20)]</text>
<polygon fill="none" stroke="#000000" stroke-width="3" points="44.5,-44.5 44.5,-232.5 215.5,-232.5 215.5,-44.5 44.5,-44.5"/>
</g>
</g>
</svg>
