<?xml version="1.0" encoding="UTF-8" standalone="no"?>
<!DOCTYPE svg PUBLIC "-//W3C//DTD SVG 1.1//EN"
 "http://www.w3.org/Graphics/SVG/1.1/DTD/svg11.dtd">
<!-- Generated by graphviz version 2.40.1 (20161225.0304)
 -->
<!-- Title: Database Schema Pages: 1 -->
<svg width="1746pt" height="2430pt"
 viewBox="0.00 0.00 1746.00 2430.00" xmlns="http://www.w3.org/2000/svg" xmlns:xlink="http://www.w3.org/1999/xlink">
<g id="graph0" class="graph" transform="scale(1 1) rotate(0) translate(4 2426)">
<title>Database Schema</title>
<polygon fill="#ffffff" stroke="transparent" points="-4,4 -4,-2426 1742,-2426 1742,4 -4,4"/>
<!-- wp_commentmeta -->
<g id="node1" class="node">
<title>wp_commentmeta</title>
<polygon fill="#efefef" stroke="transparent" points="365,-2208.5 365,-2243.5 623,-2243.5 623,-2208.5 365,-2208.5"/>
<polygon fill="none" stroke="#000000" points="365,-2208.5 365,-2243.5 623,-2243.5 623,-2208.5 365,-2208.5"/>
<text text-anchor="start" x="371.8638" y="-2221.3" font-family="Arial Bold" font-size="18.00" fill="#000000">wp_commentmeta</text>
<text text-anchor="start" x="518.8824" y="-2221.3" font-family="Arial" font-size="14.00" fill="#000000"> </text>
<text text-anchor="start" x="522.773" y="-2221.3" font-family="Arial" font-size="14.00" fill="#666666">[BASE TABLE]</text>
<polygon fill="none" stroke="#000000" points="365,-2178.5 365,-2208.5 623,-2208.5 623,-2178.5 365,-2178.5"/>
<text text-anchor="start" x="372" y="-2189.9" font-family="Arial" font-size="14.00" fill="#000000">meta_id </text>
<text text-anchor="start" x="425.6788" y="-2189.9" font-family="Arial" font-size="14.00" fill="#666666">[bigint(20) unsigned]</text>
<polygon fill="none" stroke="#000000" points="365,-2148.5 365,-2178.5 623,-2178.5 623,-2148.5 365,-2148.5"/>
<text text-anchor="start" x="372" y="-2159.9" font-family="Arial" font-size="14.00" fill="#000000">comment_id </text>
<text text-anchor="start" x="452.122" y="-2159.9" font-family="Arial" font-size="14.00" fill="#666666">[bigint(20) unsigned]</text>
<polygon fill="none" stroke="#000000" points="365,-2118.5 365,-2148.5 623,-2148.5 623,-2118.5 365,-2118.5"/>
<text text-anchor="start" x="372" y="-2129.9" font-family="Arial" font-size="14.00" fill="#000000">meta_key </text>
<text text-anchor="start" x="436.5722" y="-2129.9" font-family="Arial" font-size="14.00" fill="#666666">[varchar(255)]</text>
<polygon fill="none" stroke="#000000" points="365,-2088.5 365,-2118.5 623,-2118.5 623,-2088.5 365,-2088.5"/>
<text text-anchor="start" x="372" y="-2099.9" font-family="Arial" font-size="14.00" fill="#000000">meta_value </text>
<text text-anchor="start" x="448.244" y="-2099.9" font-family="Arial" font-size="14.00" fill="#666666">[longtext]</text>
</g>
<!-- wp_comments -->
<g id="node2" class="node">
<title>wp_comments</title>
<polygon fill="#efefef" stroke="transparent" points="365,-1796.5 365,-1831.5 623,-1831.5 623,-1796.5 365,-1796.5"/>
<polygon fill="none" stroke="#000000" points="365,-1796.5 365,-1831.5 623,-1831.5 623,-1796.5 365,-1796.5"/>
<text text-anchor="start" x="387.3672" y="-1809.3" font-family="Arial Bold" font-size="18.00" fill="#000000">wp_comments</text>
<text text-anchor="start" x="503.379" y="-1809.3" font-family="Arial" font-size="14.00" fill="#000000"> </text>
<text text-anchor="start" x="507.2696" y="-1809.3" font-family="Arial" font-size="14.00" fill="#666666">[BASE TABLE]</text>
<polygon fill="none" stroke="#000000" points="365,-1766.5 365,-1796.5 623,-1796.5 623,-1766.5 365,-1766.5"/>
<text text-anchor="start" x="372" y="-1777.9" font-family="Arial" font-size="14.00" fill="#000000">comment_ID </text>
<text text-anchor="start" x="455.23" y="-1777.9" font-family="Arial" font-size="14.00" fill="#666666">[bigint(20) unsigned]</text>
<polygon fill="none" stroke="#000000" points="365,-1736.5 365,-1766.5 623,-1766.5 623,-1736.5 365,-1736.5"/>
<text text-anchor="start" x="371.8598" y="-1747.9" font-family="Arial" font-size="14.00" fill="#000000">comment_post_ID </text>
<text text-anchor="start" x="489.3282" y="-1747.9" font-family="Arial" font-size="14.00" fill="#666666">[bigint(20) unsigned]</text>
<polygon fill="none" stroke="#000000" points="365,-1706.5 365,-1736.5 623,-1736.5 623,-1706.5 365,-1706.5"/>
<text text-anchor="start" x="372" y="-1717.9" font-family="Arial" font-size="14.00" fill="#000000">comment_author </text>
<text text-anchor="start" x="480.9144" y="-1717.9" font-family="Arial" font-size="14.00" fill="#666666">[tinytext]</text>
<polygon fill="none" stroke="#000000" points="365,-1676.5 365,-1706.5 623,-1706.5 623,-1676.5 365,-1676.5"/>
<text text-anchor="start" x="372" y="-1687.9" font-family="Arial" font-size="14.00" fill="#000000">comment_author_email </text>
<text text-anchor="start" x="522.136" y="-1687.9" font-family="Arial" font-size="14.00" fill="#666666">[varchar(100)]</text>
<polygon fill="none" stroke="#000000" points="365,-1646.5 365,-1676.5 623,-1676.5 623,-1646.5 365,-1646.5"/>
<text text-anchor="start" x="372" y="-1657.9" font-family="Arial" font-size="14.00" fill="#000000">comment_author_url </text>
<text text-anchor="start" x="504.2468" y="-1657.9" font-family="Arial" font-size="14.00" fill="#666666">[varchar(200)]</text>
<polygon fill="none" stroke="#000000" points="365,-1616.5 365,-1646.5 623,-1646.5 623,-1616.5 365,-1616.5"/>
<text text-anchor="start" x="372" y="-1627.9" font-family="Arial" font-size="14.00" fill="#000000">comment_author_IP </text>
<text text-anchor="start" x="501.9242" y="-1627.9" font-family="Arial" font-size="14.00" fill="#666666">[varchar(100)]</text>
<polygon fill="none" stroke="#000000" points="365,-1586.5 365,-1616.5 623,-1616.5 623,-1586.5 365,-1586.5"/>
<text text-anchor="start" x="372" y="-1597.9" font-family="Arial" font-size="14.00" fill="#000000">comment_date </text>
<text text-anchor="start" x="468.4712" y="-1597.9" font-family="Arial" font-size="14.00" fill="#666666">[datetime]</text>
<polygon fill="none" stroke="#000000" points="365,-1556.5 365,-1586.5 623,-1586.5 623,-1556.5 365,-1556.5"/>
<text text-anchor="start" x="372" y="-1567.9" font-family="Arial" font-size="14.00" fill="#000000">comment_date_gmt </text>
<text text-anchor="start" x="499.5876" y="-1567.9" font-family="Arial" font-size="14.00" fill="#666666">[datetime]</text>
<polygon fill="none" stroke="#000000" points="365,-1526.5 365,-1556.5 623,-1556.5 623,-1526.5 365,-1526.5"/>
<text text-anchor="start" x="372" y="-1537.9" font-family="Arial" font-size="14.00" fill="#000000">comment_content </text>
<text text-anchor="start" x="487.1444" y="-1537.9" font-family="Arial" font-size="14.00" fill="#666666">[text]</text>
<polygon fill="none" stroke="#000000" points="365,-1496.5 365,-1526.5 623,-1526.5 623,-1496.5 365,-1496.5"/>
<text text-anchor="start" x="372" y="-1507.9" font-family="Arial" font-size="14.00" fill="#000000">comment_karma </text>
<text text-anchor="start" x="480.1192" y="-1507.9" font-family="Arial" font-size="14.00" fill="#666666">[int(11)]</text>
<polygon fill="none" stroke="#000000" points="365,-1466.5 365,-1496.5 623,-1496.5 623,-1466.5 365,-1466.5"/>
<text text-anchor="start" x="372" y="-1477.9" font-family="Arial" font-size="14.00" fill="#000000">comment_approved </text>
<text text-anchor="start" x="499.589" y="-1477.9" font-family="Arial" font-size="14.00" fill="#666666">[varchar(20)]</text>
<polygon fill="none" stroke="#000000" points="365,-1436.5 365,-1466.5 623,-1466.5 623,-1436.5 365,-1436.5"/>
<text text-anchor="start" x="372" y="-1447.9" font-family="Arial" font-size="14.00" fill="#000000">comment_agent </text>
<text text-anchor="start" x="476.2538" y="-1447.9" font-family="Arial" font-size="14.00" fill="#666666">[varchar(255)]</text>
<polygon fill="none" stroke="#000000" points="365,-1406.5 365,-1436.5 623,-1436.5 623,-1406.5 365,-1406.5"/>
<text text-anchor="start" x="372" y="-1417.9" font-family="Arial" font-size="14.00" fill="#000000">comment_type </text>
<text text-anchor="start" x="467.6886" y="-1417.9" font-family="Arial" font-size="14.00" fill="#666666">[varchar(20)]</text>
<polygon fill="none" stroke="#000000" points="365,-1376.5 365,-1406.5 623,-1406.5 623,-1376.5 365,-1376.5"/>
<text text-anchor="start" x="372" y="-1387.9" font-family="Arial" font-size="14.00" fill="#000000">comment_parent </text>
<text text-anchor="start" x="480.9144" y="-1387.9" font-family="Arial" font-size="14.00" fill="#666666">[bigint(20) unsigned]</text>
<polygon fill="none" stroke="#000000" points="365,-1346.5 365,-1376.5 623,-1376.5 623,-1346.5 365,-1346.5"/>
<text text-anchor="start" x="372" y="-1357.9" font-family="Arial" font-size="14.00" fill="#000000">user_id </text>
<text text-anchor="start" x="421.7882" y="-1357.9" font-family="Arial" font-size="14.00" fill="#666666">[bigint(20) unsigned]</text>
</g>
<!-- wp_commentmeta&#45;&gt;wp_comments -->
<g id="edge7" class="edge">
<title>wp_commentmeta:comment_id&#45;&gt;wp_comments:comment_ID</title>
<path fill="none" stroke="#000000" stroke-dasharray="5,2" d="M631.5368,-2157.8035C665.2228,-2110.284 662.3772,-1781.5 623,-1781.5"/>
<polygon fill="#000000" stroke="#000000" points="631.3182,-2157.9494 620.5022,-2159.7568 627.1591,-2160.7247 623,-2163.5 623,-2163.5 623,-2163.5 627.1591,-2160.7247 625.4978,-2167.2432 631.3182,-2157.9494 631.3182,-2157.9494"/>
<text text-anchor="start" x="630.3245" y="-2173.5" font-family="Arial" font-size="10.00" fill="#000000">Additional Relation</text>
</g>
<!-- wp_comments&#45;&gt;wp_comments -->
<g id="edge5" class="edge">
<title>wp_comments:comment_parent&#45;&gt;wp_comments:comment_ID</title>
<path fill="none" stroke="#000000" stroke-dasharray="5,2" d="M495.064,-1416.9722C502.9848,-1629.384 502.6301,-2163 494,-2163 485.2417,-2163 485.0065,-1981.174 493.2944,-1796.769"/>
<polygon fill="#000000" stroke="#000000" points="495.057,-1416.7908 499.1647,-1406.6233 494.8626,-1411.7945 494.6681,-1406.7983 494.6681,-1406.7983 494.6681,-1406.7983 494.8626,-1411.7945 490.1715,-1406.9733 495.057,-1416.7908 495.057,-1416.7908"/>
<text text-anchor="start" x="404.9926" y="-1416.7983" font-family="Arial" font-size="10.00" fill="#000000">Additional Relation</text>
</g>
<!-- wp_posts -->
<g id="node6" class="node">
<title>wp_posts</title>
<polygon fill="#efefef" stroke="transparent" points="205,-1189.5 205,-1224.5 423,-1224.5 423,-1189.5 205,-1189.5"/>
<polygon fill="none" stroke="#000000" points="205,-1189.5 205,-1224.5 423,-1224.5 423,-1189.5 205,-1189.5"/>
<text text-anchor="start" x="227.3625" y="-1202.3" font-family="Arial Bold" font-size="18.00" fill="#000000">wp_posts</text>
<text text-anchor="start" x="303.3837" y="-1202.3" font-family="Arial" font-size="14.00" fill="#000000"> </text>
<text text-anchor="start" x="307.2743" y="-1202.3" font-family="Arial" font-size="14.00" fill="#666666">[BASE TABLE]</text>
<polygon fill="none" stroke="#000000" points="205,-1159.5 205,-1189.5 423,-1189.5 423,-1159.5 205,-1159.5"/>
<text text-anchor="start" x="212" y="-1170.9" font-family="Arial" font-size="14.00" fill="#000000">ID </text>
<text text-anchor="start" x="229.8878" y="-1170.9" font-family="Arial" font-size="14.00" fill="#666666">[bigint(20) unsigned]</text>
<polygon fill="none" stroke="#000000" points="205,-1129.5 205,-1159.5 423,-1159.5 423,-1129.5 205,-1129.5"/>
<text text-anchor="start" x="211.6887" y="-1140.9" font-family="Arial" font-size="14.00" fill="#000000">post_author </text>
<text text-anchor="start" x="289.4993" y="-1140.9" font-family="Arial" font-size="14.00" fill="#666666">[bigint(20) unsigned]</text>
<polygon fill="none" stroke="#000000" points="205,-1099.5 205,-1129.5 423,-1129.5 423,-1099.5 205,-1099.5"/>
<text text-anchor="start" x="212" y="-1110.9" font-family="Arial" font-size="14.00" fill="#000000">post_date </text>
<text text-anchor="start" x="277.3674" y="-1110.9" font-family="Arial" font-size="14.00" fill="#666666">[datetime]</text>
<polygon fill="none" stroke="#000000" points="205,-1069.5 205,-1099.5 423,-1099.5 423,-1069.5 205,-1069.5"/>
<text text-anchor="start" x="212" y="-1080.9" font-family="Arial" font-size="14.00" fill="#000000">post_date_gmt </text>
<text text-anchor="start" x="308.4838" y="-1080.9" font-family="Arial" font-size="14.00" fill="#666666">[datetime]</text>
<polygon fill="none" stroke="#000000" points="205,-1039.5 205,-1069.5 423,-1069.5 423,-1039.5 205,-1039.5"/>
<text text-anchor="start" x="212" y="-1050.9" font-family="Arial" font-size="14.00" fill="#000000">post_content </text>
<text text-anchor="start" x="296.0406" y="-1050.9" font-family="Arial" font-size="14.00" fill="#666666">[longtext]</text>
<polygon fill="none" stroke="#000000" points="205,-1009.5 205,-1039.5 423,-1039.5 423,-1009.5 205,-1009.5"/>
<text text-anchor="start" x="212" y="-1020.9" font-family="Arial" font-size="14.00" fill="#000000">post_title </text>
<text text-anchor="start" x="271.906" y="-1020.9" font-family="Arial" font-size="14.00" fill="#666666">[text]</text>
<polygon fill="none" stroke="#000000" points="205,-979.5 205,-1009.5 423,-1009.5 423,-979.5 205,-979.5"/>
<text text-anchor="start" x="212" y="-990.9" font-family="Arial" font-size="14.00" fill="#000000">post_excerpt </text>
<text text-anchor="start" x="296.028" y="-990.9" font-family="Arial" font-size="14.00" fill="#666666">[text]</text>
<polygon fill="none" stroke="#000000" points="205,-949.5 205,-979.5 423,-979.5 423,-949.5 205,-949.5"/>
<text text-anchor="start" x="212" y="-960.9" font-family="Arial" font-size="14.00" fill="#000000">post_status </text>
<text text-anchor="start" x="287.4754" y="-960.9" font-family="Arial" font-size="14.00" fill="#666666">[varchar(20)]</text>
<polygon fill="none" stroke="#000000" points="205,-919.5 205,-949.5 423,-949.5 423,-919.5 205,-919.5"/>
<text text-anchor="start" x="212" y="-930.9" font-family="Arial" font-size="14.00" fill="#000000">comment_status </text>
<text text-anchor="start" x="318.5792" y="-930.9" font-family="Arial" font-size="14.00" fill="#666666">[varchar(20)]</text>
<polygon fill="none" stroke="#000000" points="205,-889.5 205,-919.5 423,-919.5 423,-889.5 205,-889.5"/>
<text text-anchor="start" x="212" y="-900.9" font-family="Arial" font-size="14.00" fill="#000000">ping_status </text>
<text text-anchor="start" x="287.474" y="-900.9" font-family="Arial" font-size="14.00" fill="#666666">[varchar(20)]</text>
<polygon fill="none" stroke="#000000" points="205,-859.5 205,-889.5 423,-889.5 423,-859.5 205,-859.5"/>
<text text-anchor="start" x="212" y="-870.9" font-family="Arial" font-size="14.00" fill="#000000">post_password </text>
<text text-anchor="start" x="310.0266" y="-870.9" font-family="Arial" font-size="14.00" fill="#666666">[varchar(255)]</text>
<polygon fill="none" stroke="#000000" points="205,-829.5 205,-859.5 423,-859.5 423,-829.5 205,-829.5"/>
<text text-anchor="start" x="212" y="-840.9" font-family="Arial" font-size="14.00" fill="#000000">post_name </text>
<text text-anchor="start" x="285.1374" y="-840.9" font-family="Arial" font-size="14.00" fill="#666666">[varchar(200)]</text>
<polygon fill="none" stroke="#000000" points="205,-799.5 205,-829.5 423,-829.5 423,-799.5 205,-799.5"/>
<text text-anchor="start" x="212" y="-810.9" font-family="Arial" font-size="14.00" fill="#000000">to_ping </text>
<text text-anchor="start" x="261.8008" y="-810.9" font-family="Arial" font-size="14.00" fill="#666666">[text]</text>
<polygon fill="none" stroke="#000000" points="205,-769.5 205,-799.5 423,-799.5 423,-769.5 205,-769.5"/>
<text text-anchor="start" x="212" y="-780.9" font-family="Arial" font-size="14.00" fill="#000000">pinged </text>
<text text-anchor="start" x="257.9102" y="-780.9" font-family="Arial" font-size="14.00" fill="#666666">[text]</text>
<polygon fill="none" stroke="#000000" points="205,-739.5 205,-769.5 423,-769.5 423,-739.5 205,-739.5"/>
<text text-anchor="start" x="212" y="-750.9" font-family="Arial" font-size="14.00" fill="#000000">post_modified </text>
<text text-anchor="start" x="303.0238" y="-750.9" font-family="Arial" font-size="14.00" fill="#666666">[datetime]</text>
<polygon fill="none" stroke="#000000" points="205,-709.5 205,-739.5 423,-739.5 423,-709.5 205,-709.5"/>
<text text-anchor="start" x="212" y="-720.9" font-family="Arial" font-size="14.00" fill="#000000">post_modified_gmt </text>
<text text-anchor="start" x="334.1402" y="-720.9" font-family="Arial" font-size="14.00" fill="#666666">[datetime]</text>
<polygon fill="none" stroke="#000000" points="205,-679.5 205,-709.5 423,-709.5 423,-679.5 205,-679.5"/>
<text text-anchor="start" x="212" y="-690.9" font-family="Arial" font-size="14.00" fill="#000000">post_content_filtered </text>
<text text-anchor="start" x="345.826" y="-690.9" font-family="Arial" font-size="14.00" fill="#666666">[longtext]</text>
<polygon fill="none" stroke="#000000" points="205,-649.5 205,-679.5 423,-679.5 423,-649.5 205,-649.5"/>
<text text-anchor="start" x="211.6887" y="-660.9" font-family="Arial" font-size="14.00" fill="#000000">post_parent </text>
<text text-anchor="start" x="289.4993" y="-660.9" font-family="Arial" font-size="14.00" fill="#666666">[bigint(20) unsigned]</text>
<polygon fill="none" stroke="#000000" points="205,-619.5 205,-649.5 423,-649.5 423,-619.5 205,-619.5"/>
<text text-anchor="start" x="212" y="-630.9" font-family="Arial" font-size="14.00" fill="#000000">guid </text>
<text text-anchor="start" x="242.345" y="-630.9" font-family="Arial" font-size="14.00" fill="#666666">[varchar(255)]</text>
<polygon fill="none" stroke="#000000" points="205,-589.5 205,-619.5 423,-619.5 423,-589.5 205,-589.5"/>
<text text-anchor="start" x="212" y="-600.9" font-family="Arial" font-size="14.00" fill="#000000">menu_order </text>
<text text-anchor="start" x="291.3506" y="-600.9" font-family="Arial" font-size="14.00" fill="#666666">[int(11)]</text>
<polygon fill="none" stroke="#000000" points="205,-559.5 205,-589.5 423,-589.5 423,-559.5 205,-559.5"/>
<text text-anchor="start" x="212" y="-570.9" font-family="Arial" font-size="14.00" fill="#000000">post_type </text>
<text text-anchor="start" x="276.5848" y="-570.9" font-family="Arial" font-size="14.00" fill="#666666">[varchar(20)]</text>
<polygon fill="none" stroke="#000000" points="205,-529.5 205,-559.5 423,-559.5 423,-529.5 205,-529.5"/>
<text text-anchor="start" x="212" y="-540.9" font-family="Arial" font-size="14.00" fill="#000000">post_mime_type </text>
<text text-anchor="start" x="318.5778" y="-540.9" font-family="Arial" font-size="14.00" fill="#666666">[varchar(100)]</text>
<polygon fill="none" stroke="#000000" points="205,-499.5 205,-529.5 423,-529.5 423,-499.5 205,-499.5"/>
<text text-anchor="start" x="212" y="-510.9" font-family="Arial" font-size="14.00" fill="#000000">comment_count </text>
<text text-anchor="start" x="315.4712" y="-510.9" font-family="Arial" font-size="14.00" fill="#666666">[bigint(20)]</text>
</g>
<!-- wp_comments&#45;&gt;wp_posts -->
<g id="edge4" class="edge">
<title>wp_comments:comment_post_ID&#45;&gt;wp_posts:ID</title>
<path fill="none" stroke="#000000" stroke-dasharray="5,2" d="M356.0678,-1746.3786C318.6652,-1699.4275 342.4339,-1344.5662 365,-1304 379.7489,-1277.4865 408.2511,-1294.5135 423,-1268 443.2012,-1231.6851 464.5556,-1174.5 423,-1174.5"/>
<polygon fill="#000000" stroke="#000000" points="356.3248,-1746.5259 362.7617,-1755.4038 360.6624,-1749.013 365,-1751.5 365,-1751.5 365,-1751.5 360.6624,-1749.013 367.2383,-1747.5962 356.3248,-1746.5259 356.3248,-1746.5259"/>
<text text-anchor="start" x="275.3245" y="-1761.5" font-family="Arial" font-size="10.00" fill="#000000">Additional Relation</text>
</g>
<!-- wp_users -->
<g id="node12" class="node">
<title>wp_users</title>
<polygon fill="#efefef" stroke="transparent" points="380,-342.5 380,-377.5 608,-377.5 608,-342.5 380,-342.5"/>
<polygon fill="none" stroke="#000000" points="380,-342.5 380,-377.5 608,-377.5 608,-342.5 380,-342.5"/>
<text text-anchor="start" x="406.8675" y="-355.3" font-family="Arial Bold" font-size="18.00" fill="#000000">wp_users</text>
<text text-anchor="start" x="483.8787" y="-355.3" font-family="Arial" font-size="14.00" fill="#000000"> </text>
<text text-anchor="start" x="487.7693" y="-355.3" font-family="Arial" font-size="14.00" fill="#666666">[BASE TABLE]</text>
<polygon fill="none" stroke="#000000" points="380,-312.5 380,-342.5 608,-342.5 608,-312.5 380,-312.5"/>
<text text-anchor="start" x="387" y="-323.9" font-family="Arial" font-size="14.00" fill="#000000">ID </text>
<text text-anchor="start" x="404.8878" y="-323.9" font-family="Arial" font-size="14.00" fill="#666666">[bigint(20) unsigned]</text>
<polygon fill="none" stroke="#000000" points="380,-282.5 380,-312.5 608,-312.5 608,-282.5 380,-282.5"/>
<text text-anchor="start" x="387" y="-293.9" font-family="Arial" font-size="14.00" fill="#000000">user_login </text>
<text text-anchor="start" x="455.46" y="-293.9" font-family="Arial" font-size="14.00" fill="#666666">[varchar(60)]</text>
<polygon fill="none" stroke="#000000" points="380,-252.5 380,-282.5 608,-282.5 608,-252.5 380,-252.5"/>
<text text-anchor="start" x="387" y="-263.9" font-family="Arial" font-size="14.00" fill="#000000">user_pass </text>
<text text-anchor="start" x="455.4642" y="-263.9" font-family="Arial" font-size="14.00" fill="#666666">[varchar(255)]</text>
<polygon fill="none" stroke="#000000" points="380,-222.5 380,-252.5 608,-252.5 608,-222.5 380,-222.5"/>
<text text-anchor="start" x="387" y="-233.9" font-family="Arial" font-size="14.00" fill="#000000">user_nicename </text>
<text text-anchor="start" x="486.5792" y="-233.9" font-family="Arial" font-size="14.00" fill="#666666">[varchar(50)]</text>
<polygon fill="none" stroke="#000000" points="380,-192.5 380,-222.5 608,-222.5 608,-192.5 380,-192.5"/>
<text text-anchor="start" x="387" y="-203.9" font-family="Arial" font-size="14.00" fill="#000000">user_email </text>
<text text-anchor="start" x="459.338" y="-203.9" font-family="Arial" font-size="14.00" fill="#666666">[varchar(100)]</text>
<polygon fill="none" stroke="#000000" points="380,-162.5 380,-192.5 608,-192.5 608,-162.5 380,-162.5"/>
<text text-anchor="start" x="387" y="-173.9" font-family="Arial" font-size="14.00" fill="#000000">user_url </text>
<text text-anchor="start" x="441.4488" y="-173.9" font-family="Arial" font-size="14.00" fill="#666666">[varchar(100)]</text>
<polygon fill="none" stroke="#000000" points="380,-132.5 380,-162.5 608,-162.5 608,-132.5 380,-132.5"/>
<text text-anchor="start" x="387" y="-143.9" font-family="Arial" font-size="14.00" fill="#000000">user_registered </text>
<text text-anchor="start" x="488.1304" y="-143.9" font-family="Arial" font-size="14.00" fill="#666666">[datetime]</text>
<polygon fill="none" stroke="#000000" points="380,-102.5 380,-132.5 608,-132.5 608,-102.5 380,-102.5"/>
<text text-anchor="start" x="386.6459" y="-113.9" font-family="Arial" font-size="14.00" fill="#000000">user_activation_key </text>
<text text-anchor="start" x="514.2349" y="-113.9" font-family="Arial" font-size="14.00" fill="#666666">[varchar(255)]</text>
<polygon fill="none" stroke="#000000" points="380,-72.5 380,-102.5 608,-102.5 608,-72.5 380,-72.5"/>
<text text-anchor="start" x="387" y="-83.9" font-family="Arial" font-size="14.00" fill="#000000">user_status </text>
<text text-anchor="start" x="463.2454" y="-83.9" font-family="Arial" font-size="14.00" fill="#666666">[int(11)]</text>
<polygon fill="none" stroke="#000000" points="380,-42.5 380,-72.5 608,-72.5 608,-42.5 380,-42.5"/>
<text text-anchor="start" x="387" y="-53.9" font-family="Arial" font-size="14.00" fill="#000000">display_name </text>
<text text-anchor="start" x="477.2426" y="-53.9" font-family="Arial" font-size="14.00" fill="#666666">[varchar(250)]</text>
</g>
<!-- wp_comments&#45;&gt;wp_users -->
<g id="edge6" class="edge">
<title>wp_comments:user_id&#45;&gt;wp_users:ID</title>
<path fill="none" stroke="#000000" stroke-dasharray="5,2" d="M493.9054,-1336.2693C491.8531,-1206.5885 457.6381,-535.3794 513,-457 539.0496,-420.12 582.3457,-458.1561 608,-421 631.6108,-386.8036 649.5556,-327.5 608,-327.5"/>
<polygon fill="#000000" stroke="#000000" points="493.9075,-1336.5004 489.5002,-1346.5416 493.9537,-1341.5002 494,-1346.5 494,-1346.5 494,-1346.5 493.9537,-1341.5002 498.4998,-1346.4584 493.9075,-1336.5004 493.9075,-1336.5004"/>
<text text-anchor="start" x="404.3245" y="-1356.5" font-family="Arial" font-size="10.00" fill="#000000">Additional Relation</text>
</g>
<!-- wp_links -->
<g id="node3" class="node">
<title>wp_links</title>
<polygon fill="#efefef" stroke="transparent" points="728,-2343.5 728,-2378.5 939,-2378.5 939,-2343.5 728,-2343.5"/>
<polygon fill="none" stroke="#000000" points="728,-2343.5 728,-2378.5 939,-2378.5 939,-2343.5 728,-2343.5"/>
<text text-anchor="start" x="750.3725" y="-2356.3" font-family="Arial Bold" font-size="18.00" fill="#000000">wp_links</text>
<text text-anchor="start" x="819.3737" y="-2356.3" font-family="Arial" font-size="14.00" fill="#000000"> </text>
<text text-anchor="start" x="823.2643" y="-2356.3" font-family="Arial" font-size="14.00" fill="#666666">[BASE TABLE]</text>
<polygon fill="none" stroke="#000000" points="728,-2313.5 728,-2343.5 939,-2343.5 939,-2313.5 728,-2313.5"/>
<text text-anchor="start" x="735" y="-2324.9" font-family="Arial" font-size="14.00" fill="#000000">link_id </text>
<text text-anchor="start" x="778.5582" y="-2324.9" font-family="Arial" font-size="14.00" fill="#666666">[bigint(20) unsigned]</text>
<polygon fill="none" stroke="#000000" points="728,-2283.5 728,-2313.5 939,-2313.5 939,-2283.5 728,-2283.5"/>
<text text-anchor="start" x="735" y="-2294.9" font-family="Arial" font-size="14.00" fill="#000000">link_url </text>
<text text-anchor="start" x="783.2188" y="-2294.9" font-family="Arial" font-size="14.00" fill="#666666">[varchar(255)]</text>
<polygon fill="none" stroke="#000000" points="728,-2253.5 728,-2283.5 939,-2283.5 939,-2253.5 728,-2253.5"/>
<text text-anchor="start" x="735" y="-2264.9" font-family="Arial" font-size="14.00" fill="#000000">link_name </text>
<text text-anchor="start" x="802.6774" y="-2264.9" font-family="Arial" font-size="14.00" fill="#666666">[varchar(255)]</text>
<polygon fill="none" stroke="#000000" points="728,-2223.5 728,-2253.5 939,-2253.5 939,-2223.5 728,-2223.5"/>
<text text-anchor="start" x="735" y="-2234.9" font-family="Arial" font-size="14.00" fill="#000000">link_image </text>
<text text-anchor="start" x="805.784" y="-2234.9" font-family="Arial" font-size="14.00" fill="#666666">[varchar(255)]</text>
<polygon fill="none" stroke="#000000" points="728,-2193.5 728,-2223.5 939,-2223.5 939,-2193.5 728,-2193.5"/>
<text text-anchor="start" x="735" y="-2204.9" font-family="Arial" font-size="14.00" fill="#000000">link_target </text>
<text text-anchor="start" x="803.4586" y="-2204.9" font-family="Arial" font-size="14.00" fill="#666666">[varchar(25)]</text>
<polygon fill="none" stroke="#000000" points="728,-2163.5 728,-2193.5 939,-2193.5 939,-2163.5 728,-2163.5"/>
<text text-anchor="start" x="735" y="-2174.9" font-family="Arial" font-size="14.00" fill="#000000">link_description </text>
<text text-anchor="start" x="835.3464" y="-2174.9" font-family="Arial" font-size="14.00" fill="#666666">[varchar(255)]</text>
<polygon fill="none" stroke="#000000" points="728,-2133.5 728,-2163.5 939,-2163.5 939,-2133.5 728,-2133.5"/>
<text text-anchor="start" x="735" y="-2144.9" font-family="Arial" font-size="14.00" fill="#000000">link_visible </text>
<text text-anchor="start" x="806.554" y="-2144.9" font-family="Arial" font-size="14.00" fill="#666666">[varchar(20)]</text>
<polygon fill="none" stroke="#000000" points="728,-2103.5 728,-2133.5 939,-2133.5 939,-2103.5 728,-2103.5"/>
<text text-anchor="start" x="734.702" y="-2114.9" font-family="Arial" font-size="14.00" fill="#000000">link_owner </text>
<text text-anchor="start" x="805.486" y="-2114.9" font-family="Arial" font-size="14.00" fill="#666666">[bigint(20) unsigned]</text>
<polygon fill="none" stroke="#000000" points="728,-2073.5 728,-2103.5 939,-2103.5 939,-2073.5 728,-2073.5"/>
<text text-anchor="start" x="735" y="-2084.9" font-family="Arial" font-size="14.00" fill="#000000">link_rating </text>
<text text-anchor="start" x="802.6746" y="-2084.9" font-family="Arial" font-size="14.00" fill="#666666">[int(11)]</text>
<polygon fill="none" stroke="#000000" points="728,-2043.5 728,-2073.5 939,-2073.5 939,-2043.5 728,-2043.5"/>
<text text-anchor="start" x="735" y="-2054.9" font-family="Arial" font-size="14.00" fill="#000000">link_updated </text>
<text text-anchor="start" x="818.2552" y="-2054.9" font-family="Arial" font-size="14.00" fill="#666666">[datetime]</text>
<polygon fill="none" stroke="#000000" points="728,-2013.5 728,-2043.5 939,-2043.5 939,-2013.5 728,-2013.5"/>
<text text-anchor="start" x="735" y="-2024.9" font-family="Arial" font-size="14.00" fill="#000000">link_rel </text>
<text text-anchor="start" x="783.2188" y="-2024.9" font-family="Arial" font-size="14.00" fill="#666666">[varchar(255)]</text>
<polygon fill="none" stroke="#000000" points="728,-1983.5 728,-2013.5 939,-2013.5 939,-1983.5 728,-1983.5"/>
<text text-anchor="start" x="735" y="-1994.9" font-family="Arial" font-size="14.00" fill="#000000">link_notes </text>
<text text-anchor="start" x="801.9074" y="-1994.9" font-family="Arial" font-size="14.00" fill="#666666">[mediumtext]</text>
<polygon fill="none" stroke="#000000" points="728,-1953.5 728,-1983.5 939,-1983.5 939,-1953.5 728,-1953.5"/>
<text text-anchor="start" x="735" y="-1964.9" font-family="Arial" font-size="14.00" fill="#000000">link_rss </text>
<text text-anchor="start" x="786.3296" y="-1964.9" font-family="Arial" font-size="14.00" fill="#666666">[varchar(255)]</text>
</g>
<!-- wp_options -->
<g id="node4" class="node">
<title>wp_options</title>
<polygon fill="#efefef" stroke="transparent" points="1043,-2208.5 1043,-2243.5 1245,-2243.5 1245,-2208.5 1043,-2208.5"/>
<polygon fill="none" stroke="#000000" points="1043,-2208.5 1043,-2243.5 1245,-2243.5 1245,-2208.5 1043,-2208.5"/>
<text text-anchor="start" x="1049.8592" y="-2221.3" font-family="Arial Bold" font-size="18.00" fill="#000000">wp_options</text>
<text text-anchor="start" x="1140.887" y="-2221.3" font-family="Arial" font-size="14.00" fill="#000000"> </text>
<text text-anchor="start" x="1144.7776" y="-2221.3" font-family="Arial" font-size="14.00" fill="#666666">[BASE TABLE]</text>
<polygon fill="none" stroke="#000000" points="1043,-2178.5 1043,-2208.5 1245,-2208.5 1245,-2178.5 1043,-2178.5"/>
<text text-anchor="start" x="1050" y="-2189.9" font-family="Arial" font-size="14.00" fill="#000000">option_id </text>
<text text-anchor="start" x="1110.69" y="-2189.9" font-family="Arial" font-size="14.00" fill="#666666">[bigint(20) unsigned]</text>
<polygon fill="none" stroke="#000000" points="1043,-2148.5 1043,-2178.5 1245,-2178.5 1245,-2148.5 1043,-2148.5"/>
<text text-anchor="start" x="1050" y="-2159.9" font-family="Arial" font-size="14.00" fill="#000000">option_name </text>
<text text-anchor="start" x="1134.8092" y="-2159.9" font-family="Arial" font-size="14.00" fill="#666666">[varchar(191)]</text>
<polygon fill="none" stroke="#000000" points="1043,-2118.5 1043,-2148.5 1245,-2148.5 1245,-2118.5 1043,-2118.5"/>
<text text-anchor="start" x="1050" y="-2129.9" font-family="Arial" font-size="14.00" fill="#000000">option_value </text>
<text text-anchor="start" x="1133.2552" y="-2129.9" font-family="Arial" font-size="14.00" fill="#666666">[longtext]</text>
<polygon fill="none" stroke="#000000" points="1043,-2088.5 1043,-2118.5 1245,-2118.5 1245,-2088.5 1043,-2088.5"/>
<text text-anchor="start" x="1050" y="-2099.9" font-family="Arial" font-size="14.00" fill="#000000">autoload </text>
<text text-anchor="start" x="1107.5834" y="-2099.9" font-family="Arial" font-size="14.00" fill="#666666">[varchar(20)]</text>
</g>
<!-- wp_postmeta -->
<g id="node5" class="node">
<title>wp_postmeta</title>
<polygon fill="#efefef" stroke="transparent" points="43,-1631.5 43,-1666.5 261,-1666.5 261,-1631.5 43,-1631.5"/>
<polygon fill="none" stroke="#000000" points="43,-1631.5 43,-1666.5 261,-1666.5 261,-1631.5 43,-1631.5"/>
<text text-anchor="start" x="49.8591" y="-1644.3" font-family="Arial Bold" font-size="18.00" fill="#000000">wp_postmeta</text>
<text text-anchor="start" x="156.8871" y="-1644.3" font-family="Arial" font-size="14.00" fill="#000000"> </text>
<text text-anchor="start" x="160.7777" y="-1644.3" font-family="Arial" font-size="14.00" fill="#666666">[BASE TABLE]</text>
<polygon fill="none" stroke="#000000" points="43,-1601.5 43,-1631.5 261,-1631.5 261,-1601.5 43,-1601.5"/>
<text text-anchor="start" x="50" y="-1612.9" font-family="Arial" font-size="14.00" fill="#000000">meta_id </text>
<text text-anchor="start" x="103.6788" y="-1612.9" font-family="Arial" font-size="14.00" fill="#666666">[bigint(20) unsigned]</text>
<polygon fill="none" stroke="#000000" points="43,-1571.5 43,-1601.5 261,-1601.5 261,-1571.5 43,-1571.5"/>
<text text-anchor="start" x="50" y="-1582.9" font-family="Arial" font-size="14.00" fill="#000000">post_id </text>
<text text-anchor="start" x="99.0182" y="-1582.9" font-family="Arial" font-size="14.00" fill="#666666">[bigint(20) unsigned]</text>
<polygon fill="none" stroke="#000000" points="43,-1541.5 43,-1571.5 261,-1571.5 261,-1541.5 43,-1541.5"/>
<text text-anchor="start" x="50" y="-1552.9" font-family="Arial" font-size="14.00" fill="#000000">meta_key </text>
<text text-anchor="start" x="114.5722" y="-1552.9" font-family="Arial" font-size="14.00" fill="#666666">[varchar(255)]</text>
<polygon fill="none" stroke="#000000" points="43,-1511.5 43,-1541.5 261,-1541.5 261,-1511.5 43,-1511.5"/>
<text text-anchor="start" x="50" y="-1522.9" font-family="Arial" font-size="14.00" fill="#000000">meta_value </text>
<text text-anchor="start" x="126.244" y="-1522.9" font-family="Arial" font-size="14.00" fill="#666666">[longtext]</text>
</g>
<!-- wp_postmeta&#45;&gt;wp_posts -->
<g id="edge3" class="edge">
<title>wp_postmeta:post_id&#45;&gt;wp_posts:ID</title>
<path fill="none" stroke="#000000" stroke-dasharray="5,2" d="M271.1384,-1586.0346C429.4031,-1570.5634 23.8144,-1174.5 205,-1174.5"/>
<polygon fill="#000000" stroke="#000000" points="270.9895,-1586.0414 260.7936,-1582.0047 265.9947,-1586.2707 261,-1586.5 261,-1586.5 261,-1586.5 265.9947,-1586.2707 261.2064,-1590.9953 270.9895,-1586.0414 270.9895,-1586.0414"/>
<text text-anchor="start" x="268.3245" y="-1596.5" font-family="Arial" font-size="10.00" fill="#000000">Additional Relation</text>
</g>
<!-- wp_posts&#45;&gt;wp_posts -->
<g id="edge2" class="edge">
<title>wp_posts:post_parent&#45;&gt;wp_posts:ID</title>
<path fill="none" stroke="#000000" stroke-dasharray="5,2" d="M314.8601,-689.9929C322.9902,-952.76 322.7035,-1594 314,-1594 305.2241,-1594 305.0056,-1387.3561 313.3444,-1189.6279"/>
<polygon fill="#000000" stroke="#000000" points="314.8496,-689.6614 319.0274,-679.5225 314.6896,-684.6639 314.5297,-679.6665 314.5297,-679.6665 314.5297,-679.6665 314.6896,-684.6639 310.032,-679.8104 314.8496,-689.6614 314.8496,-689.6614"/>
<text text-anchor="start" x="224.8542" y="-689.6665" font-family="Arial" font-size="10.00" fill="#000000">Additional Relation</text>
</g>
<!-- wp_posts&#45;&gt;wp_users -->
<g id="edge1" class="edge">
<title>wp_posts:post_author&#45;&gt;wp_users:ID</title>
<path fill="none" stroke="#000000" stroke-dasharray="5,2" d="M432.5773,-1140.8628C495.4534,-1090.0589 453.8698,-523.1047 423,-457 412.4539,-434.4165 390.5461,-443.5835 380,-421 362.417,-383.3476 338.4444,-327.5 380,-327.5"/>
<polygon fill="#000000" stroke="#000000" points="432.3485,-1140.9496 421.4023,-1140.2932 427.6743,-1142.7248 423,-1144.5 423,-1144.5 423,-1144.5 427.6743,-1142.7248 424.5977,-1148.7068 432.3485,-1140.9496 432.3485,-1140.9496"/>
<text text-anchor="start" x="430.3245" y="-1154.5" font-family="Arial" font-size="10.00" fill="#000000">Additional Relation</text>
</g>
<!-- wp_termmeta -->
<g id="node7" class="node">
<title>wp_termmeta</title>
<polygon fill="#efefef" stroke="transparent" points="1038,-1631.5 1038,-1666.5 1258,-1666.5 1258,-1631.5 1038,-1631.5"/>
<polygon fill="none" stroke="#000000" points="1038,-1631.5 1038,-1666.5 1258,-1666.5 1258,-1631.5 1038,-1631.5"/>
<text text-anchor="start" x="1044.87" y="-1644.3" font-family="Arial Bold" font-size="18.00" fill="#000000">wp_termmeta</text>
<text text-anchor="start" x="1153.8762" y="-1644.3" font-family="Arial" font-size="14.00" fill="#000000"> </text>
<text text-anchor="start" x="1157.7668" y="-1644.3" font-family="Arial" font-size="14.00" fill="#666666">[BASE TABLE]</text>
<polygon fill="none" stroke="#000000" points="1038,-1601.5 1038,-1631.5 1258,-1631.5 1258,-1601.5 1038,-1601.5"/>
<text text-anchor="start" x="1045" y="-1612.9" font-family="Arial" font-size="14.00" fill="#000000">meta_id </text>
<text text-anchor="start" x="1098.6788" y="-1612.9" font-family="Arial" font-size="14.00" fill="#666666">[bigint(20) unsigned]</text>
<polygon fill="none" stroke="#000000" points="1038,-1571.5 1038,-1601.5 1258,-1601.5 1258,-1571.5 1038,-1571.5"/>
<text text-anchor="start" x="1045" y="-1582.9" font-family="Arial" font-size="14.00" fill="#000000">term_id </text>
<text text-anchor="start" x="1095.5568" y="-1582.9" font-family="Arial" font-size="14.00" fill="#666666">[bigint(20) unsigned]</text>
<polygon fill="none" stroke="#000000" points="1038,-1541.5 1038,-1571.5 1258,-1571.5 1258,-1541.5 1038,-1541.5"/>
<text text-anchor="start" x="1045" y="-1552.9" font-family="Arial" font-size="14.00" fill="#000000">meta_key </text>
<text text-anchor="start" x="1109.5722" y="-1552.9" font-family="Arial" font-size="14.00" fill="#666666">[varchar(255)]</text>
<polygon fill="none" stroke="#000000" points="1038,-1511.5 1038,-1541.5 1258,-1541.5 1258,-1511.5 1038,-1511.5"/>
<text text-anchor="start" x="1045" y="-1522.9" font-family="Arial" font-size="14.00" fill="#000000">meta_value </text>
<text text-anchor="start" x="1121.244" y="-1522.9" font-family="Arial" font-size="14.00" fill="#666666">[longtext]</text>
</g>
<!-- wp_terms -->
<g id="node8" class="node">
<title>wp_terms</title>
<polygon fill="#efefef" stroke="transparent" points="1226,-904.5 1226,-939.5 1417,-939.5 1417,-904.5 1226,-904.5"/>
<polygon fill="none" stroke="#000000" points="1226,-904.5 1226,-939.5 1417,-939.5 1417,-904.5 1226,-904.5"/>
<text text-anchor="start" x="1233.8734" y="-917.3" font-family="Arial Bold" font-size="18.00" fill="#000000">wp_terms</text>
<text text-anchor="start" x="1311.8728" y="-917.3" font-family="Arial" font-size="14.00" fill="#000000"> </text>
<text text-anchor="start" x="1315.7634" y="-917.3" font-family="Arial" font-size="14.00" fill="#666666">[BASE TABLE]</text>
<polygon fill="none" stroke="#000000" points="1226,-874.5 1226,-904.5 1417,-904.5 1417,-874.5 1226,-874.5"/>
<text text-anchor="start" x="1232.8156" y="-885.9" font-family="Arial" font-size="14.00" fill="#000000">term_id </text>
<text text-anchor="start" x="1283.3724" y="-885.9" font-family="Arial" font-size="14.00" fill="#666666">[bigint(20) unsigned]</text>
<polygon fill="none" stroke="#000000" points="1226,-844.5 1226,-874.5 1417,-874.5 1417,-844.5 1226,-844.5"/>
<text text-anchor="start" x="1233" y="-855.9" font-family="Arial" font-size="14.00" fill="#000000">name </text>
<text text-anchor="start" x="1271.899" y="-855.9" font-family="Arial" font-size="14.00" fill="#666666">[varchar(200)]</text>
<polygon fill="none" stroke="#000000" points="1226,-814.5 1226,-844.5 1417,-844.5 1417,-814.5 1226,-814.5"/>
<text text-anchor="start" x="1233" y="-825.9" font-family="Arial" font-size="14.00" fill="#000000">slug </text>
<text text-anchor="start" x="1262.5624" y="-825.9" font-family="Arial" font-size="14.00" fill="#666666">[varchar(200)]</text>
<polygon fill="none" stroke="#000000" points="1226,-784.5 1226,-814.5 1417,-814.5 1417,-784.5 1226,-784.5"/>
<text text-anchor="start" x="1233" y="-795.9" font-family="Arial" font-size="14.00" fill="#000000">term_group </text>
<text text-anchor="start" x="1308.4586" y="-795.9" font-family="Arial" font-size="14.00" fill="#666666">[bigint(10)]</text>
</g>
<!-- wp_termmeta&#45;&gt;wp_terms -->
<g id="edge9" class="edge">
<title>wp_termmeta:term_id&#45;&gt;wp_terms:term_id</title>
<path fill="none" stroke="#000000" stroke-dasharray="5,2" d="M1268.0956,-1585.3693C1397.289,-1554.211 1074.582,-889.5 1226,-889.5"/>
<polygon fill="#000000" stroke="#000000" points="1267.9379,-1585.3869 1257.4991,-1582.028 1262.9689,-1585.9435 1258,-1586.5 1258,-1586.5 1258,-1586.5 1262.9689,-1585.9435 1258.5009,-1590.972 1267.9379,-1585.3869 1267.9379,-1585.3869"/>
<text text-anchor="start" x="1265.3245" y="-1596.5" font-family="Arial" font-size="10.00" fill="#000000">Additional Relation</text>
</g>
<!-- wp_term_relationships -->
<g id="node9" class="node">
<title>wp_term_relationships</title>
<polygon fill="#efefef" stroke="transparent" points="1350,-2193.5 1350,-2228.5 1641,-2228.5 1641,-2193.5 1350,-2193.5"/>
<polygon fill="none" stroke="#000000" points="1350,-2193.5 1350,-2228.5 1641,-2228.5 1641,-2193.5 1350,-2193.5"/>
<text text-anchor="start" x="1356.8632" y="-2206.3" font-family="Arial Bold" font-size="18.00" fill="#000000">wp_term_relationships</text>
<text text-anchor="start" x="1536.883" y="-2206.3" font-family="Arial" font-size="14.00" fill="#000000"> </text>
<text text-anchor="start" x="1540.7736" y="-2206.3" font-family="Arial" font-size="14.00" fill="#666666">[BASE TABLE]</text>
<polygon fill="none" stroke="#000000" points="1350,-2163.5 1350,-2193.5 1641,-2193.5 1641,-2163.5 1350,-2163.5"/>
<text text-anchor="start" x="1357" y="-2174.9" font-family="Arial" font-size="14.00" fill="#000000">object_id </text>
<text text-anchor="start" x="1416.9074" y="-2174.9" font-family="Arial" font-size="14.00" fill="#666666">[bigint(20) unsigned]</text>
<polygon fill="none" stroke="#000000" points="1350,-2133.5 1350,-2163.5 1641,-2163.5 1641,-2133.5 1350,-2133.5"/>
<text text-anchor="start" x="1357" y="-2144.9" font-family="Arial" font-size="14.00" fill="#000000">term_taxonomy_id </text>
<text text-anchor="start" x="1476.021" y="-2144.9" font-family="Arial" font-size="14.00" fill="#666666">[bigint(20) unsigned]</text>
<polygon fill="none" stroke="#000000" points="1350,-2103.5 1350,-2133.5 1641,-2133.5 1641,-2103.5 1350,-2103.5"/>
<text text-anchor="start" x="1357" y="-2114.9" font-family="Arial" font-size="14.00" fill="#000000">term_order </text>
<text text-anchor="start" x="1429.3366" y="-2114.9" font-family="Arial" font-size="14.00" fill="#666666">[int(11)]</text>
</g>
<!-- wp_term_taxonomy -->
<g id="node10" class="node">
<title>wp_term_taxonomy</title>
<polygon fill="#efefef" stroke="transparent" points="1362,-1661.5 1362,-1696.5 1630,-1696.5 1630,-1661.5 1362,-1661.5"/>
<polygon fill="none" stroke="#000000" points="1362,-1661.5 1362,-1696.5 1630,-1696.5 1630,-1661.5 1362,-1661.5"/>
<text text-anchor="start" x="1368.8607" y="-1674.3" font-family="Arial Bold" font-size="18.00" fill="#000000">wp_term_taxonomy</text>
<text text-anchor="start" x="1525.8855" y="-1674.3" font-family="Arial" font-size="14.00" fill="#000000"> </text>
<text text-anchor="start" x="1529.7761" y="-1674.3" font-family="Arial" font-size="14.00" fill="#666666">[BASE TABLE]</text>
<polygon fill="none" stroke="#000000" points="1362,-1631.5 1362,-1661.5 1630,-1661.5 1630,-1631.5 1362,-1631.5"/>
<text text-anchor="start" x="1369" y="-1642.9" font-family="Arial" font-size="14.00" fill="#000000">term_taxonomy_id </text>
<text text-anchor="start" x="1488.021" y="-1642.9" font-family="Arial" font-size="14.00" fill="#666666">[bigint(20) unsigned]</text>
<polygon fill="none" stroke="#000000" points="1362,-1601.5 1362,-1631.5 1630,-1631.5 1630,-1601.5 1362,-1601.5"/>
<text text-anchor="start" x="1369" y="-1612.9" font-family="Arial" font-size="14.00" fill="#000000">term_id </text>
<text text-anchor="start" x="1419.5568" y="-1612.9" font-family="Arial" font-size="14.00" fill="#666666">[bigint(20) unsigned]</text>
<polygon fill="none" stroke="#000000" points="1362,-1571.5 1362,-1601.5 1630,-1601.5 1630,-1571.5 1362,-1571.5"/>
<text text-anchor="start" x="1369" y="-1582.9" font-family="Arial" font-size="14.00" fill="#000000">taxonomy </text>
<text text-anchor="start" x="1433.5722" y="-1582.9" font-family="Arial" font-size="14.00" fill="#666666">[varchar(32)]</text>
<polygon fill="none" stroke="#000000" points="1362,-1541.5 1362,-1571.5 1630,-1571.5 1630,-1541.5 1362,-1541.5"/>
<text text-anchor="start" x="1369" y="-1552.9" font-family="Arial" font-size="14.00" fill="#000000">description </text>
<text text-anchor="start" x="1440.568" y="-1552.9" font-family="Arial" font-size="14.00" fill="#666666">[longtext]</text>
<polygon fill="none" stroke="#000000" points="1362,-1511.5 1362,-1541.5 1630,-1541.5 1630,-1511.5 1362,-1511.5"/>
<text text-anchor="start" x="1369" y="-1522.9" font-family="Arial" font-size="14.00" fill="#000000">parent </text>
<text text-anchor="start" x="1412.5722" y="-1522.9" font-family="Arial" font-size="14.00" fill="#666666">[bigint(20) unsigned]</text>
<polygon fill="none" stroke="#000000" points="1362,-1481.5 1362,-1511.5 1630,-1511.5 1630,-1481.5 1362,-1481.5"/>
<text text-anchor="start" x="1369" y="-1492.9" font-family="Arial" font-size="14.00" fill="#000000">count </text>
<text text-anchor="start" x="1407.129" y="-1492.9" font-family="Arial" font-size="14.00" fill="#666666">[bigint(20)]</text>
</g>
<!-- wp_term_relationships&#45;&gt;wp_term_taxonomy -->
<g id="edge11" class="edge">
<title>wp_term_relationships:term_taxonomy_id&#45;&gt;wp_term_taxonomy:term_taxonomy_id</title>
<path fill="none" stroke="#000000" stroke-dasharray="5,2" d="M1651.2208,-2148.2009C1874.1043,-2134.3839 1110.3605,-1646.5 1362,-1646.5"/>
<polygon fill="#000000" stroke="#000000" points="1650.9957,-2148.2074 1640.8683,-2144.0019 1645.9979,-2148.3537 1641,-2148.5 1641,-2148.5 1641,-2148.5 1645.9979,-2148.3537 1641.1317,-2152.9981 1650.9957,-2148.2074 1650.9957,-2148.2074"/>
<text text-anchor="start" x="1648.3245" y="-2158.5" font-family="Arial" font-size="10.00" fill="#000000">Additional Relation</text>
</g>
<!-- wp_term_taxonomy&#45;&gt;wp_terms -->
<g id="edge10" class="edge">
<title>wp_term_taxonomy:term_id&#45;&gt;wp_terms:term_id</title>
<path fill="none" stroke="#000000" stroke-dasharray="5,2" d="M1351.8894,-1615.4162C1216.7368,-1584.2086 1575.3782,-889.5 1417,-889.5"/>
<polygon fill="#000000" stroke="#000000" points="1352.057,-1615.434 1361.5203,-1620.9744 1357.0285,-1615.967 1362,-1616.5 1362,-1616.5 1362,-1616.5 1357.0285,-1615.967 1362.4797,-1612.0256 1352.057,-1615.434 1352.057,-1615.434"/>
<text text-anchor="start" x="1272.3245" y="-1626.5" font-family="Arial" font-size="10.00" fill="#000000">Additional Relation</text>
</g>
<!-- wp_usermeta -->
<g id="node11" class="node">
<title>wp_usermeta</title>
<polygon fill="#efefef" stroke="transparent" points="566,-904.5 566,-939.5 785,-939.5 785,-904.5 566,-904.5"/>
<polygon fill="none" stroke="#000000" points="566,-904.5 566,-939.5 785,-939.5 785,-904.5 566,-904.5"/>
<text text-anchor="start" x="572.8641" y="-917.3" font-family="Arial Bold" font-size="18.00" fill="#000000">wp_usermeta</text>
<text text-anchor="start" x="680.8821" y="-917.3" font-family="Arial" font-size="14.00" fill="#000000"> </text>
<text text-anchor="start" x="684.7727" y="-917.3" font-family="Arial" font-size="14.00" fill="#666666">[BASE TABLE]</text>
<polygon fill="none" stroke="#000000" points="566,-874.5 566,-904.5 785,-904.5 785,-874.5 566,-874.5"/>
<text text-anchor="start" x="573" y="-885.9" font-family="Arial" font-size="14.00" fill="#000000">umeta_id </text>
<text text-anchor="start" x="634.4614" y="-885.9" font-family="Arial" font-size="14.00" fill="#666666">[bigint(20) unsigned]</text>
<polygon fill="none" stroke="#000000" points="566,-844.5 566,-874.5 785,-874.5 785,-844.5 566,-844.5"/>
<text text-anchor="start" x="573" y="-855.9" font-family="Arial" font-size="14.00" fill="#000000">user_id </text>
<text text-anchor="start" x="622.7882" y="-855.9" font-family="Arial" font-size="14.00" fill="#666666">[bigint(20) unsigned]</text>
<polygon fill="none" stroke="#000000" points="566,-814.5 566,-844.5 785,-844.5 785,-814.5 566,-814.5"/>
<text text-anchor="start" x="573" y="-825.9" font-family="Arial" font-size="14.00" fill="#000000">meta_key </text>
<text text-anchor="start" x="637.5722" y="-825.9" font-family="Arial" font-size="14.00" fill="#666666">[varchar(255)]</text>
<polygon fill="none" stroke="#000000" points="566,-784.5 566,-814.5 785,-814.5 785,-784.5 566,-784.5"/>
<text text-anchor="start" x="573" y="-795.9" font-family="Arial" font-size="14.00" fill="#000000">meta_value </text>
<text text-anchor="start" x="649.244" y="-795.9" font-family="Arial" font-size="14.00" fill="#666666">[longtext]</text>
</g>
<!-- wp_usermeta&#45;&gt;wp_users -->
<g id="edge8" class="edge">
<title>wp_usermeta:user_id&#45;&gt;wp_users:ID</title>
<path fill="none" stroke="#000000" stroke-dasharray="5,2" d="M556.0232,-857.9739C464.4702,-826.7695 722.8841,-327.5 608,-327.5"/>
<polygon fill="#000000" stroke="#000000" points="556.115,-857.9878 565.3195,-863.9483 561.0575,-858.7439 566,-859.5 566,-859.5 566,-859.5 561.0575,-858.7439 566.6805,-855.0517 556.115,-857.9878 556.115,-857.9878"/>
<text text-anchor="start" x="476.3245" y="-869.5" font-family="Arial" font-size="10.00" fill="#000000">Additional Relation</text>
</g>
</g>
</svg>
