<?xml version="1.0" encoding="UTF-8" standalone="no"?>
<!DOCTYPE svg PUBLIC "-//W3C//DTD SVG 1.1//EN"
 "http://www.w3.org/Graphics/SVG/1.1/DTD/svg11.dtd">
<!-- Generated by graphviz version 2.40.1 (20161225.0304)
 -->
<!-- Title: Database Schema Pages: 1 -->
<svg width="4023pt" height="819pt"
 viewBox="0.00 0.00 4023.00 819.00" xmlns="http://www.w3.org/2000/svg" xmlns:xlink="http://www.w3.org/1999/xlink">
<g id="graph0" class="graph" transform="scale(1 1) rotate(0) translate(4 815)">
<title>Database Schema</title>
<polygon fill="#ffffff" stroke="transparent" points="-4,4 -4,-815 4019,-815 4019,4 -4,4"/>
<!-- wp_commentmeta -->
<g id="node1" class="node">
<title>wp_commentmeta</title>
<polygon fill="#efefef" stroke="transparent" points="43,-447.5 43,-482.5 301,-482.5 301,-447.5 43,-447.5"/>
<polygon fill="none" stroke="#000000" points="43,-447.5 43,-482.5 301,-482.5 301,-447.5 43,-447.5"/>
<text text-anchor="start" x="49.8638" y="-460.3" font-family="Arial Bold" font-size="18.00" fill="#000000">wp_commentmeta</text>
<text text-anchor="start" x="196.8824" y="-460.3" font-family="Arial" font-size="14.00" fill="#000000"> </text>
<text text-anchor="start" x="200.773" y="-460.3" font-family="Arial" font-size="14.00" fill="#666666">[BASE TABLE]</text>
<polygon fill="none" stroke="#000000" points="43,-417.5 43,-447.5 301,-447.5 301,-417.5 43,-417.5"/>
<text text-anchor="start" x="50" y="-428.9" font-family="Arial" font-size="14.00" fill="#000000">meta_id </text>
<text text-anchor="start" x="103.6788" y="-428.9" font-family="Arial" font-size="14.00" fill="#666666">[bigint(20) unsigned]</text>
<polygon fill="none" stroke="#000000" points="43,-387.5 43,-417.5 301,-417.5 301,-387.5 43,-387.5"/>
<text text-anchor="start" x="50" y="-398.9" font-family="Arial" font-size="14.00" fill="#000000">comment_id </text>
<text text-anchor="start" x="130.122" y="-398.9" font-family="Arial" font-size="14.00" fill="#666666">[bigint(20) unsigned]</text>
<polygon fill="none" stroke="#000000" points="43,-357.5 43,-387.5 301,-387.5 301,-357.5 43,-357.5"/>
<text text-anchor="start" x="50" y="-368.9" font-family="Arial" font-size="14.00" fill="#000000">meta_key </text>
<text text-anchor="start" x="114.5722" y="-368.9" font-family="Arial" font-size="14.00" fill="#666666">[varchar(255)]</text>
<polygon fill="none" stroke="#000000" points="43,-327.5 43,-357.5 301,-357.5 301,-327.5 43,-327.5"/>
<text text-anchor="start" x="50" y="-338.9" font-family="Arial" font-size="14.00" fill="#000000">meta_value </text>
<text text-anchor="start" x="126.244" y="-338.9" font-family="Arial" font-size="14.00" fill="#666666">[longtext]</text>
</g>
<!-- wp_comments -->
<g id="node2" class="node">
<title>wp_comments</title>
<polygon fill="#efefef" stroke="transparent" points="405,-612.5 405,-647.5 663,-647.5 663,-612.5 405,-612.5"/>
<polygon fill="none" stroke="#000000" points="405,-612.5 405,-647.5 663,-647.5 663,-612.5 405,-612.5"/>
<text text-anchor="start" x="427.3672" y="-625.3" font-family="Arial Bold" font-size="18.00" fill="#000000">wp_comments</text>
<text text-anchor="start" x="543.379" y="-625.3" font-family="Arial" font-size="14.00" fill="#000000"> </text>
<text text-anchor="start" x="547.2696" y="-625.3" font-family="Arial" font-size="14.00" fill="#666666">[BASE TABLE]</text>
<polygon fill="none" stroke="#000000" points="405,-582.5 405,-612.5 663,-612.5 663,-582.5 405,-582.5"/>
<text text-anchor="start" x="412" y="-593.9" font-family="Arial" font-size="14.00" fill="#000000">comment_ID </text>
<text text-anchor="start" x="495.23" y="-593.9" font-family="Arial" font-size="14.00" fill="#666666">[bigint(20) unsigned]</text>
<polygon fill="none" stroke="#000000" points="405,-552.5 405,-582.5 663,-582.5 663,-552.5 405,-552.5"/>
<text text-anchor="start" x="411.8598" y="-563.9" font-family="Arial" font-size="14.00" fill="#000000">comment_post_ID </text>
<text text-anchor="start" x="529.3282" y="-563.9" font-family="Arial" font-size="14.00" fill="#666666">[bigint(20) unsigned]</text>
<polygon fill="none" stroke="#000000" points="405,-522.5 405,-552.5 663,-552.5 663,-522.5 405,-522.5"/>
<text text-anchor="start" x="412" y="-533.9" font-family="Arial" font-size="14.00" fill="#000000">comment_author </text>
<text text-anchor="start" x="520.9144" y="-533.9" font-family="Arial" font-size="14.00" fill="#666666">[tinytext]</text>
<polygon fill="none" stroke="#000000" points="405,-492.5 405,-522.5 663,-522.5 663,-492.5 405,-492.5"/>
<text text-anchor="start" x="412" y="-503.9" font-family="Arial" font-size="14.00" fill="#000000">comment_author_email </text>
<text text-anchor="start" x="562.136" y="-503.9" font-family="Arial" font-size="14.00" fill="#666666">[varchar(100)]</text>
<polygon fill="none" stroke="#000000" points="405,-462.5 405,-492.5 663,-492.5 663,-462.5 405,-462.5"/>
<text text-anchor="start" x="412" y="-473.9" font-family="Arial" font-size="14.00" fill="#000000">comment_author_url </text>
<text text-anchor="start" x="544.2468" y="-473.9" font-family="Arial" font-size="14.00" fill="#666666">[varchar(200)]</text>
<polygon fill="none" stroke="#000000" points="405,-432.5 405,-462.5 663,-462.5 663,-432.5 405,-432.5"/>
<text text-anchor="start" x="412" y="-443.9" font-family="Arial" font-size="14.00" fill="#000000">comment_author_IP </text>
<text text-anchor="start" x="541.9242" y="-443.9" font-family="Arial" font-size="14.00" fill="#666666">[varchar(100)]</text>
<polygon fill="none" stroke="#000000" points="405,-402.5 405,-432.5 663,-432.5 663,-402.5 405,-402.5"/>
<text text-anchor="start" x="412" y="-413.9" font-family="Arial" font-size="14.00" fill="#000000">comment_date </text>
<text text-anchor="start" x="508.4712" y="-413.9" font-family="Arial" font-size="14.00" fill="#666666">[datetime]</text>
<polygon fill="none" stroke="#000000" points="405,-372.5 405,-402.5 663,-402.5 663,-372.5 405,-372.5"/>
<text text-anchor="start" x="412" y="-383.9" font-family="Arial" font-size="14.00" fill="#000000">comment_date_gmt </text>
<text text-anchor="start" x="539.5876" y="-383.9" font-family="Arial" font-size="14.00" fill="#666666">[datetime]</text>
<polygon fill="none" stroke="#000000" points="405,-342.5 405,-372.5 663,-372.5 663,-342.5 405,-342.5"/>
<text text-anchor="start" x="412" y="-353.9" font-family="Arial" font-size="14.00" fill="#000000">comment_content </text>
<text text-anchor="start" x="527.1444" y="-353.9" font-family="Arial" font-size="14.00" fill="#666666">[text]</text>
<polygon fill="none" stroke="#000000" points="405,-312.5 405,-342.5 663,-342.5 663,-312.5 405,-312.5"/>
<text text-anchor="start" x="412" y="-323.9" font-family="Arial" font-size="14.00" fill="#000000">comment_karma </text>
<text text-anchor="start" x="520.1192" y="-323.9" font-family="Arial" font-size="14.00" fill="#666666">[int(11)]</text>
<polygon fill="none" stroke="#000000" points="405,-282.5 405,-312.5 663,-312.5 663,-282.5 405,-282.5"/>
<text text-anchor="start" x="412" y="-293.9" font-family="Arial" font-size="14.00" fill="#000000">comment_approved </text>
<text text-anchor="start" x="539.589" y="-293.9" font-family="Arial" font-size="14.00" fill="#666666">[varchar(20)]</text>
<polygon fill="none" stroke="#000000" points="405,-252.5 405,-282.5 663,-282.5 663,-252.5 405,-252.5"/>
<text text-anchor="start" x="412" y="-263.9" font-family="Arial" font-size="14.00" fill="#000000">comment_agent </text>
<text text-anchor="start" x="516.2538" y="-263.9" font-family="Arial" font-size="14.00" fill="#666666">[varchar(255)]</text>
<polygon fill="none" stroke="#000000" points="405,-222.5 405,-252.5 663,-252.5 663,-222.5 405,-222.5"/>
<text text-anchor="start" x="412" y="-233.9" font-family="Arial" font-size="14.00" fill="#000000">comment_type </text>
<text text-anchor="start" x="507.6886" y="-233.9" font-family="Arial" font-size="14.00" fill="#666666">[varchar(20)]</text>
<polygon fill="none" stroke="#000000" points="405,-192.5 405,-222.5 663,-222.5 663,-192.5 405,-192.5"/>
<text text-anchor="start" x="412" y="-203.9" font-family="Arial" font-size="14.00" fill="#000000">comment_parent </text>
<text text-anchor="start" x="520.9144" y="-203.9" font-family="Arial" font-size="14.00" fill="#666666">[bigint(20) unsigned]</text>
<polygon fill="none" stroke="#000000" points="405,-162.5 405,-192.5 663,-192.5 663,-162.5 405,-162.5"/>
<text text-anchor="start" x="412" y="-173.9" font-family="Arial" font-size="14.00" fill="#000000">user_id </text>
<text text-anchor="start" x="461.7882" y="-173.9" font-family="Arial" font-size="14.00" fill="#666666">[bigint(20) unsigned]</text>
</g>
<!-- wp_links -->
<g id="node3" class="node">
<title>wp_links</title>
<polygon fill="#efefef" stroke="transparent" points="768,-582.5 768,-617.5 979,-617.5 979,-582.5 768,-582.5"/>
<polygon fill="none" stroke="#000000" points="768,-582.5 768,-617.5 979,-617.5 979,-582.5 768,-582.5"/>
<text text-anchor="start" x="790.3725" y="-595.3" font-family="Arial Bold" font-size="18.00" fill="#000000">wp_links</text>
<text text-anchor="start" x="859.3737" y="-595.3" font-family="Arial" font-size="14.00" fill="#000000"> </text>
<text text-anchor="start" x="863.2643" y="-595.3" font-family="Arial" font-size="14.00" fill="#666666">[BASE TABLE]</text>
<polygon fill="none" stroke="#000000" points="768,-552.5 768,-582.5 979,-582.5 979,-552.5 768,-552.5"/>
<text text-anchor="start" x="775" y="-563.9" font-family="Arial" font-size="14.00" fill="#000000">link_id </text>
<text text-anchor="start" x="818.5582" y="-563.9" font-family="Arial" font-size="14.00" fill="#666666">[bigint(20) unsigned]</text>
<polygon fill="none" stroke="#000000" points="768,-522.5 768,-552.5 979,-552.5 979,-522.5 768,-522.5"/>
<text text-anchor="start" x="775" y="-533.9" font-family="Arial" font-size="14.00" fill="#000000">link_url </text>
<text text-anchor="start" x="823.2188" y="-533.9" font-family="Arial" font-size="14.00" fill="#666666">[varchar(255)]</text>
<polygon fill="none" stroke="#000000" points="768,-492.5 768,-522.5 979,-522.5 979,-492.5 768,-492.5"/>
<text text-anchor="start" x="775" y="-503.9" font-family="Arial" font-size="14.00" fill="#000000">link_name </text>
<text text-anchor="start" x="842.6774" y="-503.9" font-family="Arial" font-size="14.00" fill="#666666">[varchar(255)]</text>
<polygon fill="none" stroke="#000000" points="768,-462.5 768,-492.5 979,-492.5 979,-462.5 768,-462.5"/>
<text text-anchor="start" x="775" y="-473.9" font-family="Arial" font-size="14.00" fill="#000000">link_image </text>
<text text-anchor="start" x="845.784" y="-473.9" font-family="Arial" font-size="14.00" fill="#666666">[varchar(255)]</text>
<polygon fill="none" stroke="#000000" points="768,-432.5 768,-462.5 979,-462.5 979,-432.5 768,-432.5"/>
<text text-anchor="start" x="775" y="-443.9" font-family="Arial" font-size="14.00" fill="#000000">link_target </text>
<text text-anchor="start" x="843.4586" y="-443.9" font-family="Arial" font-size="14.00" fill="#666666">[varchar(25)]</text>
<polygon fill="none" stroke="#000000" points="768,-402.5 768,-432.5 979,-432.5 979,-402.5 768,-402.5"/>
<text text-anchor="start" x="775" y="-413.9" font-family="Arial" font-size="14.00" fill="#000000">link_description </text>
<text text-anchor="start" x="875.3464" y="-413.9" font-family="Arial" font-size="14.00" fill="#666666">[varchar(255)]</text>
<polygon fill="none" stroke="#000000" points="768,-372.5 768,-402.5 979,-402.5 979,-372.5 768,-372.5"/>
<text text-anchor="start" x="775" y="-383.9" font-family="Arial" font-size="14.00" fill="#000000">link_visible </text>
<text text-anchor="start" x="846.554" y="-383.9" font-family="Arial" font-size="14.00" fill="#666666">[varchar(20)]</text>
<polygon fill="none" stroke="#000000" points="768,-342.5 768,-372.5 979,-372.5 979,-342.5 768,-342.5"/>
<text text-anchor="start" x="774.702" y="-353.9" font-family="Arial" font-size="14.00" fill="#000000">link_owner </text>
<text text-anchor="start" x="845.486" y="-353.9" font-family="Arial" font-size="14.00" fill="#666666">[bigint(20) unsigned]</text>
<polygon fill="none" stroke="#000000" points="768,-312.5 768,-342.5 979,-342.5 979,-312.5 768,-312.5"/>
<text text-anchor="start" x="775" y="-323.9" font-family="Arial" font-size="14.00" fill="#000000">link_rating </text>
<text text-anchor="start" x="842.6746" y="-323.9" font-family="Arial" font-size="14.00" fill="#666666">[int(11)]</text>
<polygon fill="none" stroke="#000000" points="768,-282.5 768,-312.5 979,-312.5 979,-282.5 768,-282.5"/>
<text text-anchor="start" x="775" y="-293.9" font-family="Arial" font-size="14.00" fill="#000000">link_updated </text>
<text text-anchor="start" x="858.2552" y="-293.9" font-family="Arial" font-size="14.00" fill="#666666">[datetime]</text>
<polygon fill="none" stroke="#000000" points="768,-252.5 768,-282.5 979,-282.5 979,-252.5 768,-252.5"/>
<text text-anchor="start" x="775" y="-263.9" font-family="Arial" font-size="14.00" fill="#000000">link_rel </text>
<text text-anchor="start" x="823.2188" y="-263.9" font-family="Arial" font-size="14.00" fill="#666666">[varchar(255)]</text>
<polygon fill="none" stroke="#000000" points="768,-222.5 768,-252.5 979,-252.5 979,-222.5 768,-222.5"/>
<text text-anchor="start" x="775" y="-233.9" font-family="Arial" font-size="14.00" fill="#000000">link_notes </text>
<text text-anchor="start" x="841.9074" y="-233.9" font-family="Arial" font-size="14.00" fill="#666666">[mediumtext]</text>
<polygon fill="none" stroke="#000000" points="768,-192.5 768,-222.5 979,-222.5 979,-192.5 768,-192.5"/>
<text text-anchor="start" x="775" y="-203.9" font-family="Arial" font-size="14.00" fill="#000000">link_rss </text>
<text text-anchor="start" x="826.3296" y="-203.9" font-family="Arial" font-size="14.00" fill="#666666">[varchar(255)]</text>
</g>
<!-- wp_options -->
<g id="node4" class="node">
<title>wp_options</title>
<polygon fill="#efefef" stroke="transparent" points="1083,-447.5 1083,-482.5 1285,-482.5 1285,-447.5 1083,-447.5"/>
<polygon fill="none" stroke="#000000" points="1083,-447.5 1083,-482.5 1285,-482.5 1285,-447.5 1083,-447.5"/>
<text text-anchor="start" x="1089.8592" y="-460.3" font-family="Arial Bold" font-size="18.00" fill="#000000">wp_options</text>
<text text-anchor="start" x="1180.887" y="-460.3" font-family="Arial" font-size="14.00" fill="#000000"> </text>
<text text-anchor="start" x="1184.7776" y="-460.3" font-family="Arial" font-size="14.00" fill="#666666">[BASE TABLE]</text>
<polygon fill="none" stroke="#000000" points="1083,-417.5 1083,-447.5 1285,-447.5 1285,-417.5 1083,-417.5"/>
<text text-anchor="start" x="1090" y="-428.9" font-family="Arial" font-size="14.00" fill="#000000">option_id </text>
<text text-anchor="start" x="1150.69" y="-428.9" font-family="Arial" font-size="14.00" fill="#666666">[bigint(20) unsigned]</text>
<polygon fill="none" stroke="#000000" points="1083,-387.5 1083,-417.5 1285,-417.5 1285,-387.5 1083,-387.5"/>
<text text-anchor="start" x="1090" y="-398.9" font-family="Arial" font-size="14.00" fill="#000000">option_name </text>
<text text-anchor="start" x="1174.8092" y="-398.9" font-family="Arial" font-size="14.00" fill="#666666">[varchar(191)]</text>
<polygon fill="none" stroke="#000000" points="1083,-357.5 1083,-387.5 1285,-387.5 1285,-357.5 1083,-357.5"/>
<text text-anchor="start" x="1090" y="-368.9" font-family="Arial" font-size="14.00" fill="#000000">option_value </text>
<text text-anchor="start" x="1173.2552" y="-368.9" font-family="Arial" font-size="14.00" fill="#666666">[longtext]</text>
<polygon fill="none" stroke="#000000" points="1083,-327.5 1083,-357.5 1285,-357.5 1285,-327.5 1083,-327.5"/>
<text text-anchor="start" x="1090" y="-338.9" font-family="Arial" font-size="14.00" fill="#000000">autoload </text>
<text text-anchor="start" x="1147.5834" y="-338.9" font-family="Arial" font-size="14.00" fill="#666666">[varchar(20)]</text>
</g>
<!-- wp_postmeta -->
<g id="node5" class="node">
<title>wp_postmeta</title>
<polygon fill="#efefef" stroke="transparent" points="1389,-447.5 1389,-482.5 1607,-482.5 1607,-447.5 1389,-447.5"/>
<polygon fill="none" stroke="#000000" points="1389,-447.5 1389,-482.5 1607,-482.5 1607,-447.5 1389,-447.5"/>
<text text-anchor="start" x="1395.8591" y="-460.3" font-family="Arial Bold" font-size="18.00" fill="#000000">wp_postmeta</text>
<text text-anchor="start" x="1502.8871" y="-460.3" font-family="Arial" font-size="14.00" fill="#000000"> </text>
<text text-anchor="start" x="1506.7777" y="-460.3" font-family="Arial" font-size="14.00" fill="#666666">[BASE TABLE]</text>
<polygon fill="none" stroke="#000000" points="1389,-417.5 1389,-447.5 1607,-447.5 1607,-417.5 1389,-417.5"/>
<text text-anchor="start" x="1396" y="-428.9" font-family="Arial" font-size="14.00" fill="#000000">meta_id </text>
<text text-anchor="start" x="1449.6788" y="-428.9" font-family="Arial" font-size="14.00" fill="#666666">[bigint(20) unsigned]</text>
<polygon fill="none" stroke="#000000" points="1389,-387.5 1389,-417.5 1607,-417.5 1607,-387.5 1389,-387.5"/>
<text text-anchor="start" x="1396" y="-398.9" font-family="Arial" font-size="14.00" fill="#000000">post_id </text>
<text text-anchor="start" x="1445.0182" y="-398.9" font-family="Arial" font-size="14.00" fill="#666666">[bigint(20) unsigned]</text>
<polygon fill="none" stroke="#000000" points="1389,-357.5 1389,-387.5 1607,-387.5 1607,-357.5 1389,-357.5"/>
<text text-anchor="start" x="1396" y="-368.9" font-family="Arial" font-size="14.00" fill="#000000">meta_key </text>
<text text-anchor="start" x="1460.5722" y="-368.9" font-family="Arial" font-size="14.00" fill="#666666">[varchar(255)]</text>
<polygon fill="none" stroke="#000000" points="1389,-327.5 1389,-357.5 1607,-357.5 1607,-327.5 1389,-327.5"/>
<text text-anchor="start" x="1396" y="-338.9" font-family="Arial" font-size="14.00" fill="#000000">meta_value </text>
<text text-anchor="start" x="1472.244" y="-338.9" font-family="Arial" font-size="14.00" fill="#666666">[longtext]</text>
</g>
<!-- wp_posts -->
<g id="node6" class="node">
<title>wp_posts</title>
<polygon fill="#efefef" stroke="transparent" points="1711,-732.5 1711,-767.5 1929,-767.5 1929,-732.5 1711,-732.5"/>
<polygon fill="none" stroke="#000000" points="1711,-732.5 1711,-767.5 1929,-767.5 1929,-732.5 1711,-732.5"/>
<text text-anchor="start" x="1733.3625" y="-745.3" font-family="Arial Bold" font-size="18.00" fill="#000000">wp_posts</text>
<text text-anchor="start" x="1809.3837" y="-745.3" font-family="Arial" font-size="14.00" fill="#000000"> </text>
<text text-anchor="start" x="1813.2743" y="-745.3" font-family="Arial" font-size="14.00" fill="#666666">[BASE TABLE]</text>
<polygon fill="none" stroke="#000000" points="1711,-702.5 1711,-732.5 1929,-732.5 1929,-702.5 1711,-702.5"/>
<text text-anchor="start" x="1718" y="-713.9" font-family="Arial" font-size="14.00" fill="#000000">ID </text>
<text text-anchor="start" x="1735.8878" y="-713.9" font-family="Arial" font-size="14.00" fill="#666666">[bigint(20) unsigned]</text>
<polygon fill="none" stroke="#000000" points="1711,-672.5 1711,-702.5 1929,-702.5 1929,-672.5 1711,-672.5"/>
<text text-anchor="start" x="1717.6887" y="-683.9" font-family="Arial" font-size="14.00" fill="#000000">post_author </text>
<text text-anchor="start" x="1795.4993" y="-683.9" font-family="Arial" font-size="14.00" fill="#666666">[bigint(20) unsigned]</text>
<polygon fill="none" stroke="#000000" points="1711,-642.5 1711,-672.5 1929,-672.5 1929,-642.5 1711,-642.5"/>
<text text-anchor="start" x="1718" y="-653.9" font-family="Arial" font-size="14.00" fill="#000000">post_date </text>
<text text-anchor="start" x="1783.3674" y="-653.9" font-family="Arial" font-size="14.00" fill="#666666">[datetime]</text>
<polygon fill="none" stroke="#000000" points="1711,-612.5 1711,-642.5 1929,-642.5 1929,-612.5 1711,-612.5"/>
<text text-anchor="start" x="1718" y="-623.9" font-family="Arial" font-size="14.00" fill="#000000">post_date_gmt </text>
<text text-anchor="start" x="1814.4838" y="-623.9" font-family="Arial" font-size="14.00" fill="#666666">[datetime]</text>
<polygon fill="none" stroke="#000000" points="1711,-582.5 1711,-612.5 1929,-612.5 1929,-582.5 1711,-582.5"/>
<text text-anchor="start" x="1718" y="-593.9" font-family="Arial" font-size="14.00" fill="#000000">post_content </text>
<text text-anchor="start" x="1802.0406" y="-593.9" font-family="Arial" font-size="14.00" fill="#666666">[longtext]</text>
<polygon fill="none" stroke="#000000" points="1711,-552.5 1711,-582.5 1929,-582.5 1929,-552.5 1711,-552.5"/>
<text text-anchor="start" x="1718" y="-563.9" font-family="Arial" font-size="14.00" fill="#000000">post_title </text>
<text text-anchor="start" x="1777.906" y="-563.9" font-family="Arial" font-size="14.00" fill="#666666">[text]</text>
<polygon fill="none" stroke="#000000" points="1711,-522.5 1711,-552.5 1929,-552.5 1929,-522.5 1711,-522.5"/>
<text text-anchor="start" x="1718" y="-533.9" font-family="Arial" font-size="14.00" fill="#000000">post_excerpt </text>
<text text-anchor="start" x="1802.028" y="-533.9" font-family="Arial" font-size="14.00" fill="#666666">[text]</text>
<polygon fill="none" stroke="#000000" points="1711,-492.5 1711,-522.5 1929,-522.5 1929,-492.5 1711,-492.5"/>
<text text-anchor="start" x="1718" y="-503.9" font-family="Arial" font-size="14.00" fill="#000000">post_status </text>
<text text-anchor="start" x="1793.4754" y="-503.9" font-family="Arial" font-size="14.00" fill="#666666">[varchar(20)]</text>
<polygon fill="none" stroke="#000000" points="1711,-462.5 1711,-492.5 1929,-492.5 1929,-462.5 1711,-462.5"/>
<text text-anchor="start" x="1718" y="-473.9" font-family="Arial" font-size="14.00" fill="#000000">comment_status </text>
<text text-anchor="start" x="1824.5792" y="-473.9" font-family="Arial" font-size="14.00" fill="#666666">[varchar(20)]</text>
<polygon fill="none" stroke="#000000" points="1711,-432.5 1711,-462.5 1929,-462.5 1929,-432.5 1711,-432.5"/>
<text text-anchor="start" x="1718" y="-443.9" font-family="Arial" font-size="14.00" fill="#000000">ping_status </text>
<text text-anchor="start" x="1793.474" y="-443.9" font-family="Arial" font-size="14.00" fill="#666666">[varchar(20)]</text>
<polygon fill="none" stroke="#000000" points="1711,-402.5 1711,-432.5 1929,-432.5 1929,-402.5 1711,-402.5"/>
<text text-anchor="start" x="1718" y="-413.9" font-family="Arial" font-size="14.00" fill="#000000">post_password </text>
<text text-anchor="start" x="1816.0266" y="-413.9" font-family="Arial" font-size="14.00" fill="#666666">[varchar(255)]</text>
<polygon fill="none" stroke="#000000" points="1711,-372.5 1711,-402.5 1929,-402.5 1929,-372.5 1711,-372.5"/>
<text text-anchor="start" x="1718" y="-383.9" font-family="Arial" font-size="14.00" fill="#000000">post_name </text>
<text text-anchor="start" x="1791.1374" y="-383.9" font-family="Arial" font-size="14.00" fill="#666666">[varchar(200)]</text>
<polygon fill="none" stroke="#000000" points="1711,-342.5 1711,-372.5 1929,-372.5 1929,-342.5 1711,-342.5"/>
<text text-anchor="start" x="1718" y="-353.9" font-family="Arial" font-size="14.00" fill="#000000">to_ping </text>
<text text-anchor="start" x="1767.8008" y="-353.9" font-family="Arial" font-size="14.00" fill="#666666">[text]</text>
<polygon fill="none" stroke="#000000" points="1711,-312.5 1711,-342.5 1929,-342.5 1929,-312.5 1711,-312.5"/>
<text text-anchor="start" x="1718" y="-323.9" font-family="Arial" font-size="14.00" fill="#000000">pinged </text>
<text text-anchor="start" x="1763.9102" y="-323.9" font-family="Arial" font-size="14.00" fill="#666666">[text]</text>
<polygon fill="none" stroke="#000000" points="1711,-282.5 1711,-312.5 1929,-312.5 1929,-282.5 1711,-282.5"/>
<text text-anchor="start" x="1718" y="-293.9" font-family="Arial" font-size="14.00" fill="#000000">post_modified </text>
<text text-anchor="start" x="1809.0238" y="-293.9" font-family="Arial" font-size="14.00" fill="#666666">[datetime]</text>
<polygon fill="none" stroke="#000000" points="1711,-252.5 1711,-282.5 1929,-282.5 1929,-252.5 1711,-252.5"/>
<text text-anchor="start" x="1718" y="-263.9" font-family="Arial" font-size="14.00" fill="#000000">post_modified_gmt </text>
<text text-anchor="start" x="1840.1402" y="-263.9" font-family="Arial" font-size="14.00" fill="#666666">[datetime]</text>
<polygon fill="none" stroke="#000000" points="1711,-222.5 1711,-252.5 1929,-252.5 1929,-222.5 1711,-222.5"/>
<text text-anchor="start" x="1718" y="-233.9" font-family="Arial" font-size="14.00" fill="#000000">post_content_filtered </text>
<text text-anchor="start" x="1851.826" y="-233.9" font-family="Arial" font-size="14.00" fill="#666666">[longtext]</text>
<polygon fill="none" stroke="#000000" points="1711,-192.5 1711,-222.5 1929,-222.5 1929,-192.5 1711,-192.5"/>
<text text-anchor="start" x="1717.6887" y="-203.9" font-family="Arial" font-size="14.00" fill="#000000">post_parent </text>
<text text-anchor="start" x="1795.4993" y="-203.9" font-family="Arial" font-size="14.00" fill="#666666">[bigint(20) unsigned]</text>
<polygon fill="none" stroke="#000000" points="1711,-162.5 1711,-192.5 1929,-192.5 1929,-162.5 1711,-162.5"/>
<text text-anchor="start" x="1718" y="-173.9" font-family="Arial" font-size="14.00" fill="#000000">guid </text>
<text text-anchor="start" x="1748.345" y="-173.9" font-family="Arial" font-size="14.00" fill="#666666">[varchar(255)]</text>
<polygon fill="none" stroke="#000000" points="1711,-132.5 1711,-162.5 1929,-162.5 1929,-132.5 1711,-132.5"/>
<text text-anchor="start" x="1718" y="-143.9" font-family="Arial" font-size="14.00" fill="#000000">menu_order </text>
<text text-anchor="start" x="1797.3506" y="-143.9" font-family="Arial" font-size="14.00" fill="#666666">[int(11)]</text>
<polygon fill="none" stroke="#000000" points="1711,-102.5 1711,-132.5 1929,-132.5 1929,-102.5 1711,-102.5"/>
<text text-anchor="start" x="1718" y="-113.9" font-family="Arial" font-size="14.00" fill="#000000">post_type </text>
<text text-anchor="start" x="1782.5848" y="-113.9" font-family="Arial" font-size="14.00" fill="#666666">[varchar(20)]</text>
<polygon fill="none" stroke="#000000" points="1711,-72.5 1711,-102.5 1929,-102.5 1929,-72.5 1711,-72.5"/>
<text text-anchor="start" x="1718" y="-83.9" font-family="Arial" font-size="14.00" fill="#000000">post_mime_type </text>
<text text-anchor="start" x="1824.5778" y="-83.9" font-family="Arial" font-size="14.00" fill="#666666">[varchar(100)]</text>
<polygon fill="none" stroke="#000000" points="1711,-42.5 1711,-72.5 1929,-72.5 1929,-42.5 1711,-42.5"/>
<text text-anchor="start" x="1718" y="-53.9" font-family="Arial" font-size="14.00" fill="#000000">comment_count </text>
<text text-anchor="start" x="1821.4712" y="-53.9" font-family="Arial" font-size="14.00" fill="#666666">[bigint(20)]</text>
</g>
<!-- wp_termmeta -->
<g id="node7" class="node">
<title>wp_termmeta</title>
<polygon fill="#efefef" stroke="transparent" points="2033,-447.5 2033,-482.5 2253,-482.5 2253,-447.5 2033,-447.5"/>
<polygon fill="none" stroke="#000000" points="2033,-447.5 2033,-482.5 2253,-482.5 2253,-447.5 2033,-447.5"/>
<text text-anchor="start" x="2039.87" y="-460.3" font-family="Arial Bold" font-size="18.00" fill="#000000">wp_termmeta</text>
<text text-anchor="start" x="2148.8762" y="-460.3" font-family="Arial" font-size="14.00" fill="#000000"> </text>
<text text-anchor="start" x="2152.7668" y="-460.3" font-family="Arial" font-size="14.00" fill="#666666">[BASE TABLE]</text>
<polygon fill="none" stroke="#000000" points="2033,-417.5 2033,-447.5 2253,-447.5 2253,-417.5 2033,-417.5"/>
<text text-anchor="start" x="2040" y="-428.9" font-family="Arial" font-size="14.00" fill="#000000">meta_id </text>
<text text-anchor="start" x="2093.6788" y="-428.9" font-family="Arial" font-size="14.00" fill="#666666">[bigint(20) unsigned]</text>
<polygon fill="none" stroke="#000000" points="2033,-387.5 2033,-417.5 2253,-417.5 2253,-387.5 2033,-387.5"/>
<text text-anchor="start" x="2040" y="-398.9" font-family="Arial" font-size="14.00" fill="#000000">term_id </text>
<text text-anchor="start" x="2090.5568" y="-398.9" font-family="Arial" font-size="14.00" fill="#666666">[bigint(20) unsigned]</text>
<polygon fill="none" stroke="#000000" points="2033,-357.5 2033,-387.5 2253,-387.5 2253,-357.5 2033,-357.5"/>
<text text-anchor="start" x="2040" y="-368.9" font-family="Arial" font-size="14.00" fill="#000000">meta_key </text>
<text text-anchor="start" x="2104.5722" y="-368.9" font-family="Arial" font-size="14.00" fill="#666666">[varchar(255)]</text>
<polygon fill="none" stroke="#000000" points="2033,-327.5 2033,-357.5 2253,-357.5 2253,-327.5 2033,-327.5"/>
<text text-anchor="start" x="2040" y="-338.9" font-family="Arial" font-size="14.00" fill="#000000">meta_value </text>
<text text-anchor="start" x="2116.244" y="-338.9" font-family="Arial" font-size="14.00" fill="#666666">[longtext]</text>
</g>
<!-- wp_terms -->
<g id="node8" class="node">
<title>wp_terms</title>
<polygon fill="#efefef" stroke="transparent" points="2358,-447.5 2358,-482.5 2549,-482.5 2549,-447.5 2358,-447.5"/>
<polygon fill="none" stroke="#000000" points="2358,-447.5 2358,-482.5 2549,-482.5 2549,-447.5 2358,-447.5"/>
<text text-anchor="start" x="2365.8734" y="-460.3" font-family="Arial Bold" font-size="18.00" fill="#000000">wp_terms</text>
<text text-anchor="start" x="2443.8728" y="-460.3" font-family="Arial" font-size="14.00" fill="#000000"> </text>
<text text-anchor="start" x="2447.7634" y="-460.3" font-family="Arial" font-size="14.00" fill="#666666">[BASE TABLE]</text>
<polygon fill="none" stroke="#000000" points="2358,-417.5 2358,-447.5 2549,-447.5 2549,-417.5 2358,-417.5"/>
<text text-anchor="start" x="2364.8156" y="-428.9" font-family="Arial" font-size="14.00" fill="#000000">term_id </text>
<text text-anchor="start" x="2415.3724" y="-428.9" font-family="Arial" font-size="14.00" fill="#666666">[bigint(20) unsigned]</text>
<polygon fill="none" stroke="#000000" points="2358,-387.5 2358,-417.5 2549,-417.5 2549,-387.5 2358,-387.5"/>
<text text-anchor="start" x="2365" y="-398.9" font-family="Arial" font-size="14.00" fill="#000000">name </text>
<text text-anchor="start" x="2403.899" y="-398.9" font-family="Arial" font-size="14.00" fill="#666666">[varchar(200)]</text>
<polygon fill="none" stroke="#000000" points="2358,-357.5 2358,-387.5 2549,-387.5 2549,-357.5 2358,-357.5"/>
<text text-anchor="start" x="2365" y="-368.9" font-family="Arial" font-size="14.00" fill="#000000">slug </text>
<text text-anchor="start" x="2394.5624" y="-368.9" font-family="Arial" font-size="14.00" fill="#666666">[varchar(200)]</text>
<polygon fill="none" stroke="#000000" points="2358,-327.5 2358,-357.5 2549,-357.5 2549,-327.5 2358,-327.5"/>
<text text-anchor="start" x="2365" y="-338.9" font-family="Arial" font-size="14.00" fill="#000000">term_group </text>
<text text-anchor="start" x="2440.4586" y="-338.9" font-family="Arial" font-size="14.00" fill="#666666">[bigint(10)]</text>
</g>
<!-- wp_term_relationships -->
<g id="node9" class="node">
<title>wp_term_relationships</title>
<polygon fill="#efefef" stroke="transparent" points="2653,-432.5 2653,-467.5 2944,-467.5 2944,-432.5 2653,-432.5"/>
<polygon fill="none" stroke="#000000" points="2653,-432.5 2653,-467.5 2944,-467.5 2944,-432.5 2653,-432.5"/>
<text text-anchor="start" x="2659.8632" y="-445.3" font-family="Arial Bold" font-size="18.00" fill="#000000">wp_term_relationships</text>
<text text-anchor="start" x="2839.883" y="-445.3" font-family="Arial" font-size="14.00" fill="#000000"> </text>
<text text-anchor="start" x="2843.7736" y="-445.3" font-family="Arial" font-size="14.00" fill="#666666">[BASE TABLE]</text>
<polygon fill="none" stroke="#000000" points="2653,-402.5 2653,-432.5 2944,-432.5 2944,-402.5 2653,-402.5"/>
<text text-anchor="start" x="2660" y="-413.9" font-family="Arial" font-size="14.00" fill="#000000">object_id </text>
<text text-anchor="start" x="2719.9074" y="-413.9" font-family="Arial" font-size="14.00" fill="#666666">[bigint(20) unsigned]</text>
<polygon fill="none" stroke="#000000" points="2653,-372.5 2653,-402.5 2944,-402.5 2944,-372.5 2653,-372.5"/>
<text text-anchor="start" x="2660" y="-383.9" font-family="Arial" font-size="14.00" fill="#000000">term_taxonomy_id </text>
<text text-anchor="start" x="2779.021" y="-383.9" font-family="Arial" font-size="14.00" fill="#666666">[bigint(20) unsigned]</text>
<polygon fill="none" stroke="#000000" points="2653,-342.5 2653,-372.5 2944,-372.5 2944,-342.5 2653,-342.5"/>
<text text-anchor="start" x="2660" y="-353.9" font-family="Arial" font-size="14.00" fill="#000000">term_order </text>
<text text-anchor="start" x="2732.3366" y="-353.9" font-family="Arial" font-size="14.00" fill="#666666">[int(11)]</text>
</g>
<!-- wp_term_taxonomy -->
<g id="node10" class="node">
<title>wp_term_taxonomy</title>
<polygon fill="#efefef" stroke="transparent" points="3048,-477.5 3048,-512.5 3316,-512.5 3316,-477.5 3048,-477.5"/>
<polygon fill="none" stroke="#000000" points="3048,-477.5 3048,-512.5 3316,-512.5 3316,-477.5 3048,-477.5"/>
<text text-anchor="start" x="3054.8607" y="-490.3" font-family="Arial Bold" font-size="18.00" fill="#000000">wp_term_taxonomy</text>
<text text-anchor="start" x="3211.8855" y="-490.3" font-family="Arial" font-size="14.00" fill="#000000"> </text>
<text text-anchor="start" x="3215.7761" y="-490.3" font-family="Arial" font-size="14.00" fill="#666666">[BASE TABLE]</text>
<polygon fill="none" stroke="#000000" points="3048,-447.5 3048,-477.5 3316,-477.5 3316,-447.5 3048,-447.5"/>
<text text-anchor="start" x="3055" y="-458.9" font-family="Arial" font-size="14.00" fill="#000000">term_taxonomy_id </text>
<text text-anchor="start" x="3174.021" y="-458.9" font-family="Arial" font-size="14.00" fill="#666666">[bigint(20) unsigned]</text>
<polygon fill="none" stroke="#000000" points="3048,-417.5 3048,-447.5 3316,-447.5 3316,-417.5 3048,-417.5"/>
<text text-anchor="start" x="3055" y="-428.9" font-family="Arial" font-size="14.00" fill="#000000">term_id </text>
<text text-anchor="start" x="3105.5568" y="-428.9" font-family="Arial" font-size="14.00" fill="#666666">[bigint(20) unsigned]</text>
<polygon fill="none" stroke="#000000" points="3048,-387.5 3048,-417.5 3316,-417.5 3316,-387.5 3048,-387.5"/>
<text text-anchor="start" x="3055" y="-398.9" font-family="Arial" font-size="14.00" fill="#000000">taxonomy </text>
<text text-anchor="start" x="3119.5722" y="-398.9" font-family="Arial" font-size="14.00" fill="#666666">[varchar(32)]</text>
<polygon fill="none" stroke="#000000" points="3048,-357.5 3048,-387.5 3316,-387.5 3316,-357.5 3048,-357.5"/>
<text text-anchor="start" x="3055" y="-368.9" font-family="Arial" font-size="14.00" fill="#000000">description </text>
<text text-anchor="start" x="3126.568" y="-368.9" font-family="Arial" font-size="14.00" fill="#666666">[longtext]</text>
<polygon fill="none" stroke="#000000" points="3048,-327.5 3048,-357.5 3316,-357.5 3316,-327.5 3048,-327.5"/>
<text text-anchor="start" x="3055" y="-338.9" font-family="Arial" font-size="14.00" fill="#000000">parent </text>
<text text-anchor="start" x="3098.5722" y="-338.9" font-family="Arial" font-size="14.00" fill="#666666">[bigint(20) unsigned]</text>
<polygon fill="none" stroke="#000000" points="3048,-297.5 3048,-327.5 3316,-327.5 3316,-297.5 3048,-297.5"/>
<text text-anchor="start" x="3055" y="-308.9" font-family="Arial" font-size="14.00" fill="#000000">count </text>
<text text-anchor="start" x="3093.129" y="-308.9" font-family="Arial" font-size="14.00" fill="#666666">[bigint(20)]</text>
</g>
<!-- wp_usermeta -->
<g id="node11" class="node">
<title>wp_usermeta</title>
<polygon fill="#efefef" stroke="transparent" points="3421,-447.5 3421,-482.5 3640,-482.5 3640,-447.5 3421,-447.5"/>
<polygon fill="none" stroke="#000000" points="3421,-447.5 3421,-482.5 3640,-482.5 3640,-447.5 3421,-447.5"/>
<text text-anchor="start" x="3427.8641" y="-460.3" font-family="Arial Bold" font-size="18.00" fill="#000000">wp_usermeta</text>
<text text-anchor="start" x="3535.8821" y="-460.3" font-family="Arial" font-size="14.00" fill="#000000"> </text>
<text text-anchor="start" x="3539.7727" y="-460.3" font-family="Arial" font-size="14.00" fill="#666666">[BASE TABLE]</text>
<polygon fill="none" stroke="#000000" points="3421,-417.5 3421,-447.5 3640,-447.5 3640,-417.5 3421,-417.5"/>
<text text-anchor="start" x="3428" y="-428.9" font-family="Arial" font-size="14.00" fill="#000000">umeta_id </text>
<text text-anchor="start" x="3489.4614" y="-428.9" font-family="Arial" font-size="14.00" fill="#666666">[bigint(20) unsigned]</text>
<polygon fill="none" stroke="#000000" points="3421,-387.5 3421,-417.5 3640,-417.5 3640,-387.5 3421,-387.5"/>
<text text-anchor="start" x="3428" y="-398.9" font-family="Arial" font-size="14.00" fill="#000000">user_id </text>
<text text-anchor="start" x="3477.7882" y="-398.9" font-family="Arial" font-size="14.00" fill="#666666">[bigint(20) unsigned]</text>
<polygon fill="none" stroke="#000000" points="3421,-357.5 3421,-387.5 3640,-387.5 3640,-357.5 3421,-357.5"/>
<text text-anchor="start" x="3428" y="-368.9" font-family="Arial" font-size="14.00" fill="#000000">meta_key </text>
<text text-anchor="start" x="3492.5722" y="-368.9" font-family="Arial" font-size="14.00" fill="#666666">[varchar(255)]</text>
<polygon fill="none" stroke="#000000" points="3421,-327.5 3421,-357.5 3640,-357.5 3640,-327.5 3421,-327.5"/>
<text text-anchor="start" x="3428" y="-338.9" font-family="Arial" font-size="14.00" fill="#000000">meta_value </text>
<text text-anchor="start" x="3504.244" y="-338.9" font-family="Arial" font-size="14.00" fill="#666666">[longtext]</text>
</g>
<!-- wp_users -->
<g id="node12" class="node">
<title>wp_users</title>
<polygon fill="#efefef" stroke="transparent" points="3744,-537.5 3744,-572.5 3972,-572.5 3972,-537.5 3744,-537.5"/>
<polygon fill="none" stroke="#000000" points="3744,-537.5 3744,-572.5 3972,-572.5 3972,-537.5 3744,-537.5"/>
<text text-anchor="start" x="3770.8675" y="-550.3" font-family="Arial Bold" font-size="18.00" fill="#000000">wp_users</text>
<text text-anchor="start" x="3847.8787" y="-550.3" font-family="Arial" font-size="14.00" fill="#000000"> </text>
<text text-anchor="start" x="3851.7693" y="-550.3" font-family="Arial" font-size="14.00" fill="#666666">[BASE TABLE]</text>
<polygon fill="none" stroke="#000000" points="3744,-507.5 3744,-537.5 3972,-537.5 3972,-507.5 3744,-507.5"/>
<text text-anchor="start" x="3751" y="-518.9" font-family="Arial" font-size="14.00" fill="#000000">ID </text>
<text text-anchor="start" x="3768.8878" y="-518.9" font-family="Arial" font-size="14.00" fill="#666666">[bigint(20) unsigned]</text>
<polygon fill="none" stroke="#000000" points="3744,-477.5 3744,-507.5 3972,-507.5 3972,-477.5 3744,-477.5"/>
<text text-anchor="start" x="3751" y="-488.9" font-family="Arial" font-size="14.00" fill="#000000">user_login </text>
<text text-anchor="start" x="3819.46" y="-488.9" font-family="Arial" font-size="14.00" fill="#666666">[varchar(60)]</text>
<polygon fill="none" stroke="#000000" points="3744,-447.5 3744,-477.5 3972,-477.5 3972,-447.5 3744,-447.5"/>
<text text-anchor="start" x="3751" y="-458.9" font-family="Arial" font-size="14.00" fill="#000000">user_pass </text>
<text text-anchor="start" x="3819.4642" y="-458.9" font-family="Arial" font-size="14.00" fill="#666666">[varchar(255)]</text>
<polygon fill="none" stroke="#000000" points="3744,-417.5 3744,-447.5 3972,-447.5 3972,-417.5 3744,-417.5"/>
<text text-anchor="start" x="3751" y="-428.9" font-family="Arial" font-size="14.00" fill="#000000">user_nicename </text>
<text text-anchor="start" x="3850.5792" y="-428.9" font-family="Arial" font-size="14.00" fill="#666666">[varchar(50)]</text>
<polygon fill="none" stroke="#000000" points="3744,-387.5 3744,-417.5 3972,-417.5 3972,-387.5 3744,-387.5"/>
<text text-anchor="start" x="3751" y="-398.9" font-family="Arial" font-size="14.00" fill="#000000">user_email </text>
<text text-anchor="start" x="3823.338" y="-398.9" font-family="Arial" font-size="14.00" fill="#666666">[varchar(100)]</text>
<polygon fill="none" stroke="#000000" points="3744,-357.5 3744,-387.5 3972,-387.5 3972,-357.5 3744,-357.5"/>
<text text-anchor="start" x="3751" y="-368.9" font-family="Arial" font-size="14.00" fill="#000000">user_url </text>
<text text-anchor="start" x="3805.4488" y="-368.9" font-family="Arial" font-size="14.00" fill="#666666">[varchar(100)]</text>
<polygon fill="none" stroke="#000000" points="3744,-327.5 3744,-357.5 3972,-357.5 3972,-327.5 3744,-327.5"/>
<text text-anchor="start" x="3751" y="-338.9" font-family="Arial" font-size="14.00" fill="#000000">user_registered </text>
<text text-anchor="start" x="3852.1304" y="-338.9" font-family="Arial" font-size="14.00" fill="#666666">[datetime]</text>
<polygon fill="none" stroke="#000000" points="3744,-297.5 3744,-327.5 3972,-327.5 3972,-297.5 3744,-297.5"/>
<text text-anchor="start" x="3750.6459" y="-308.9" font-family="Arial" font-size="14.00" fill="#000000">user_activation_key </text>
<text text-anchor="start" x="3878.2349" y="-308.9" font-family="Arial" font-size="14.00" fill="#666666">[varchar(255)]</text>
<polygon fill="none" stroke="#000000" points="3744,-267.5 3744,-297.5 3972,-297.5 3972,-267.5 3744,-267.5"/>
<text text-anchor="start" x="3751" y="-278.9" font-family="Arial" font-size="14.00" fill="#000000">user_status </text>
<text text-anchor="start" x="3827.2454" y="-278.9" font-family="Arial" font-size="14.00" fill="#666666">[int(11)]</text>
<polygon fill="none" stroke="#000000" points="3744,-237.5 3744,-267.5 3972,-267.5 3972,-237.5 3744,-237.5"/>
<text text-anchor="start" x="3751" y="-248.9" font-family="Arial" font-size="14.00" fill="#000000">display_name </text>
<text text-anchor="start" x="3841.2426" y="-248.9" font-family="Arial" font-size="14.00" fill="#666666">[varchar(250)]</text>
</g>
</g>
</svg>
