<?xml version="1.0" encoding="UTF-8" standalone="no"?>
<!DOCTYPE svg PUBLIC "-//W3C//DTD SVG 1.1//EN"
 "http://www.w3.org/Graphics/SVG/1.1/DTD/svg11.dtd">
<!-- Generated by graphviz version 2.40.1 (20161225.0304)
 -->
<!-- Title: wp_comments Pages: 1 -->
<svg width="644pt" height="1709pt"
 viewBox="0.00 0.00 644.00 1709.00" xmlns="http://www.w3.org/2000/svg" xmlns:xlink="http://www.w3.org/1999/xlink">
<g id="graph0" class="graph" transform="scale(1 1) rotate(0) translate(4 1705)">
<title>wp_comments</title>
<polygon fill="#ffffff" stroke="transparent" points="-4,4 -4,-1705 640,-1705 640,4 -4,4"/>
<!-- wp_comments -->
<g id="node1" class="node">
<title>wp_comments</title>
<polygon fill="#efefef" stroke="transparent" points="186,-1342.5 186,-1377.5 444,-1377.5 444,-1342.5 186,-1342.5"/>
<polygon fill="none" stroke="#000000" points="186,-1342.5 186,-1377.5 444,-1377.5 444,-1342.5 186,-1342.5"/>
<text text-anchor="start" x="208.3672" y="-1355.3" font-family="Arial Bold" font-size="18.00" fill="#000000">wp_comments</text>
<text text-anchor="start" x="324.379" y="-1355.3" font-family="Arial" font-size="14.00" fill="#000000"> </text>
<text text-anchor="start" x="328.2696" y="-1355.3" font-family="Arial" font-size="14.00" fill="#666666">[BASE TABLE]</text>
<polygon fill="none" stroke="#000000" points="186,-1312.5 186,-1342.5 444,-1342.5 444,-1312.5 186,-1312.5"/>
<text text-anchor="start" x="193" y="-1323.9" font-family="Arial" font-size="14.00" fill="#000000">comment_ID </text>
<text text-anchor="start" x="276.23" y="-1323.9" font-family="Arial" font-size="14.00" fill="#666666">[bigint(20) unsigned]</text>
<polygon fill="none" stroke="#000000" points="186,-1282.5 186,-1312.5 444,-1312.5 444,-1282.5 186,-1282.5"/>
<text text-anchor="start" x="192.8598" y="-1293.9" font-family="Arial" font-size="14.00" fill="#000000">comment_post_ID </text>
<text text-anchor="start" x="310.3282" y="-1293.9" font-family="Arial" font-size="14.00" fill="#666666">[bigint(20) unsigned]</text>
<polygon fill="none" stroke="#000000" points="186,-1252.5 186,-1282.5 444,-1282.5 444,-1252.5 186,-1252.5"/>
<text text-anchor="start" x="193" y="-1263.9" font-family="Arial" font-size="14.00" fill="#000000">comment_author </text>
<text text-anchor="start" x="301.9144" y="-1263.9" font-family="Arial" font-size="14.00" fill="#666666">[tinytext]</text>
<polygon fill="none" stroke="#000000" points="186,-1222.5 186,-1252.5 444,-1252.5 444,-1222.5 186,-1222.5"/>
<text text-anchor="start" x="193" y="-1233.9" font-family="Arial" font-size="14.00" fill="#000000">comment_author_email </text>
<text text-anchor="start" x="343.136" y="-1233.9" font-family="Arial" font-size="14.00" fill="#666666">[varchar(100)]</text>
<polygon fill="none" stroke="#000000" points="186,-1192.5 186,-1222.5 444,-1222.5 444,-1192.5 186,-1192.5"/>
<text text-anchor="start" x="193" y="-1203.9" font-family="Arial" font-size="14.00" fill="#000000">comment_author_url </text>
<text text-anchor="start" x="325.2468" y="-1203.9" font-family="Arial" font-size="14.00" fill="#666666">[varchar(200)]</text>
<polygon fill="none" stroke="#000000" points="186,-1162.5 186,-1192.5 444,-1192.5 444,-1162.5 186,-1162.5"/>
<text text-anchor="start" x="193" y="-1173.9" font-family="Arial" font-size="14.00" fill="#000000">comment_author_IP </text>
<text text-anchor="start" x="322.9242" y="-1173.9" font-family="Arial" font-size="14.00" fill="#666666">[varchar(100)]</text>
<polygon fill="none" stroke="#000000" points="186,-1132.5 186,-1162.5 444,-1162.5 444,-1132.5 186,-1132.5"/>
<text text-anchor="start" x="193" y="-1143.9" font-family="Arial" font-size="14.00" fill="#000000">comment_date </text>
<text text-anchor="start" x="289.4712" y="-1143.9" font-family="Arial" font-size="14.00" fill="#666666">[datetime]</text>
<polygon fill="none" stroke="#000000" points="186,-1102.5 186,-1132.5 444,-1132.5 444,-1102.5 186,-1102.5"/>
<text text-anchor="start" x="193" y="-1113.9" font-family="Arial" font-size="14.00" fill="#000000">comment_date_gmt </text>
<text text-anchor="start" x="320.5876" y="-1113.9" font-family="Arial" font-size="14.00" fill="#666666">[datetime]</text>
<polygon fill="none" stroke="#000000" points="186,-1072.5 186,-1102.5 444,-1102.5 444,-1072.5 186,-1072.5"/>
<text text-anchor="start" x="193" y="-1083.9" font-family="Arial" font-size="14.00" fill="#000000">comment_content </text>
<text text-anchor="start" x="308.1444" y="-1083.9" font-family="Arial" font-size="14.00" fill="#666666">[text]</text>
<polygon fill="none" stroke="#000000" points="186,-1042.5 186,-1072.5 444,-1072.5 444,-1042.5 186,-1042.5"/>
<text text-anchor="start" x="193" y="-1053.9" font-family="Arial" font-size="14.00" fill="#000000">comment_karma </text>
<text text-anchor="start" x="301.1192" y="-1053.9" font-family="Arial" font-size="14.00" fill="#666666">[int(11)]</text>
<polygon fill="none" stroke="#000000" points="186,-1012.5 186,-1042.5 444,-1042.5 444,-1012.5 186,-1012.5"/>
<text text-anchor="start" x="193" y="-1023.9" font-family="Arial" font-size="14.00" fill="#000000">comment_approved </text>
<text text-anchor="start" x="320.589" y="-1023.9" font-family="Arial" font-size="14.00" fill="#666666">[varchar(20)]</text>
<polygon fill="none" stroke="#000000" points="186,-982.5 186,-1012.5 444,-1012.5 444,-982.5 186,-982.5"/>
<text text-anchor="start" x="193" y="-993.9" font-family="Arial" font-size="14.00" fill="#000000">comment_agent </text>
<text text-anchor="start" x="297.2538" y="-993.9" font-family="Arial" font-size="14.00" fill="#666666">[varchar(255)]</text>
<polygon fill="none" stroke="#000000" points="186,-952.5 186,-982.5 444,-982.5 444,-952.5 186,-952.5"/>
<text text-anchor="start" x="193" y="-963.9" font-family="Arial" font-size="14.00" fill="#000000">comment_type </text>
<text text-anchor="start" x="288.6886" y="-963.9" font-family="Arial" font-size="14.00" fill="#666666">[varchar(20)]</text>
<polygon fill="none" stroke="#000000" points="186,-922.5 186,-952.5 444,-952.5 444,-922.5 186,-922.5"/>
<text text-anchor="start" x="193" y="-933.9" font-family="Arial" font-size="14.00" fill="#000000">comment_parent </text>
<text text-anchor="start" x="301.9144" y="-933.9" font-family="Arial" font-size="14.00" fill="#666666">[bigint(20) unsigned]</text>
<polygon fill="none" stroke="#000000" points="186,-892.5 186,-922.5 444,-922.5 444,-892.5 186,-892.5"/>
<text text-anchor="start" x="193" y="-903.9" font-family="Arial" font-size="14.00" fill="#000000">user_id </text>
<text text-anchor="start" x="242.7882" y="-903.9" font-family="Arial" font-size="14.00" fill="#666666">[bigint(20) unsigned]</text>
<polygon fill="none" stroke="#000000" stroke-width="3" points="184.5,-891.5 184.5,-1379.5 445.5,-1379.5 445.5,-891.5 184.5,-891.5"/>
</g>
<!-- wp_comments&#45;&gt;wp_comments -->
<g id="edge1" class="edge">
<title>wp_comments:comment_parent&#45;&gt;wp_comments:comment_ID</title>
<path fill="none" stroke="#000000" stroke-dasharray="5,2" d="M316.1584,-962.5787C323.9818,-1154.9452 323.5957,-1646 315,-1646 306.2725,-1646 306.0082,-1506.5118 314.2074,-1342.8911"/>
<polygon fill="#000000" stroke="#000000" points="316.1566,-962.5352 320.2265,-952.3525 315.9436,-957.5397 315.7306,-952.5443 315.7306,-952.5443 315.7306,-952.5443 315.9436,-957.5397 311.2346,-952.736 316.1566,-962.5352 316.1566,-962.5352"/>
<text text-anchor="start" x="226.0551" y="-962.5443" font-family="Arial" font-size="10.00" fill="#000000">Additional Relation</text>
</g>
<!-- wp_posts -->
<g id="node3" class="node">
<title>wp_posts</title>
<polygon fill="#efefef" stroke="transparent" points="43,-732.5 43,-767.5 261,-767.5 261,-732.5 43,-732.5"/>
<polygon fill="none" stroke="#000000" points="43,-732.5 43,-767.5 261,-767.5 261,-732.5 43,-732.5"/>
<text text-anchor="start" x="65.3625" y="-745.3" font-family="Arial Bold" font-size="18.00" fill="#000000">wp_posts</text>
<text text-anchor="start" x="141.3837" y="-745.3" font-family="Arial" font-size="14.00" fill="#000000"> </text>
<text text-anchor="start" x="145.2743" y="-745.3" font-family="Arial" font-size="14.00" fill="#666666">[BASE TABLE]</text>
<polygon fill="none" stroke="#000000" points="43,-702.5 43,-732.5 261,-732.5 261,-702.5 43,-702.5"/>
<text text-anchor="start" x="50" y="-713.9" font-family="Arial" font-size="14.00" fill="#000000">ID </text>
<text text-anchor="start" x="67.8878" y="-713.9" font-family="Arial" font-size="14.00" fill="#666666">[bigint(20) unsigned]</text>
<polygon fill="none" stroke="#000000" points="43,-672.5 43,-702.5 261,-702.5 261,-672.5 43,-672.5"/>
<text text-anchor="start" x="49.6887" y="-683.9" font-family="Arial" font-size="14.00" fill="#000000">post_author </text>
<text text-anchor="start" x="127.4993" y="-683.9" font-family="Arial" font-size="14.00" fill="#666666">[bigint(20) unsigned]</text>
<polygon fill="none" stroke="#000000" points="43,-642.5 43,-672.5 261,-672.5 261,-642.5 43,-642.5"/>
<text text-anchor="start" x="50" y="-653.9" font-family="Arial" font-size="14.00" fill="#000000">post_date </text>
<text text-anchor="start" x="115.3674" y="-653.9" font-family="Arial" font-size="14.00" fill="#666666">[datetime]</text>
<polygon fill="none" stroke="#000000" points="43,-612.5 43,-642.5 261,-642.5 261,-612.5 43,-612.5"/>
<text text-anchor="start" x="50" y="-623.9" font-family="Arial" font-size="14.00" fill="#000000">post_date_gmt </text>
<text text-anchor="start" x="146.4838" y="-623.9" font-family="Arial" font-size="14.00" fill="#666666">[datetime]</text>
<polygon fill="none" stroke="#000000" points="43,-582.5 43,-612.5 261,-612.5 261,-582.5 43,-582.5"/>
<text text-anchor="start" x="50" y="-593.9" font-family="Arial" font-size="14.00" fill="#000000">post_content </text>
<text text-anchor="start" x="134.0406" y="-593.9" font-family="Arial" font-size="14.00" fill="#666666">[longtext]</text>
<polygon fill="none" stroke="#000000" points="43,-552.5 43,-582.5 261,-582.5 261,-552.5 43,-552.5"/>
<text text-anchor="start" x="50" y="-563.9" font-family="Arial" font-size="14.00" fill="#000000">post_title </text>
<text text-anchor="start" x="109.906" y="-563.9" font-family="Arial" font-size="14.00" fill="#666666">[text]</text>
<polygon fill="none" stroke="#000000" points="43,-522.5 43,-552.5 261,-552.5 261,-522.5 43,-522.5"/>
<text text-anchor="start" x="50" y="-533.9" font-family="Arial" font-size="14.00" fill="#000000">post_excerpt </text>
<text text-anchor="start" x="134.028" y="-533.9" font-family="Arial" font-size="14.00" fill="#666666">[text]</text>
<polygon fill="none" stroke="#000000" points="43,-492.5 43,-522.5 261,-522.5 261,-492.5 43,-492.5"/>
<text text-anchor="start" x="50" y="-503.9" font-family="Arial" font-size="14.00" fill="#000000">post_status </text>
<text text-anchor="start" x="125.4754" y="-503.9" font-family="Arial" font-size="14.00" fill="#666666">[varchar(20)]</text>
<polygon fill="none" stroke="#000000" points="43,-462.5 43,-492.5 261,-492.5 261,-462.5 43,-462.5"/>
<text text-anchor="start" x="50" y="-473.9" font-family="Arial" font-size="14.00" fill="#000000">comment_status </text>
<text text-anchor="start" x="156.5792" y="-473.9" font-family="Arial" font-size="14.00" fill="#666666">[varchar(20)]</text>
<polygon fill="none" stroke="#000000" points="43,-432.5 43,-462.5 261,-462.5 261,-432.5 43,-432.5"/>
<text text-anchor="start" x="50" y="-443.9" font-family="Arial" font-size="14.00" fill="#000000">ping_status </text>
<text text-anchor="start" x="125.474" y="-443.9" font-family="Arial" font-size="14.00" fill="#666666">[varchar(20)]</text>
<polygon fill="none" stroke="#000000" points="43,-402.5 43,-432.5 261,-432.5 261,-402.5 43,-402.5"/>
<text text-anchor="start" x="50" y="-413.9" font-family="Arial" font-size="14.00" fill="#000000">post_password </text>
<text text-anchor="start" x="148.0266" y="-413.9" font-family="Arial" font-size="14.00" fill="#666666">[varchar(255)]</text>
<polygon fill="none" stroke="#000000" points="43,-372.5 43,-402.5 261,-402.5 261,-372.5 43,-372.5"/>
<text text-anchor="start" x="50" y="-383.9" font-family="Arial" font-size="14.00" fill="#000000">post_name </text>
<text text-anchor="start" x="123.1374" y="-383.9" font-family="Arial" font-size="14.00" fill="#666666">[varchar(200)]</text>
<polygon fill="none" stroke="#000000" points="43,-342.5 43,-372.5 261,-372.5 261,-342.5 43,-342.5"/>
<text text-anchor="start" x="50" y="-353.9" font-family="Arial" font-size="14.00" fill="#000000">to_ping </text>
<text text-anchor="start" x="99.8008" y="-353.9" font-family="Arial" font-size="14.00" fill="#666666">[text]</text>
<polygon fill="none" stroke="#000000" points="43,-312.5 43,-342.5 261,-342.5 261,-312.5 43,-312.5"/>
<text text-anchor="start" x="50" y="-323.9" font-family="Arial" font-size="14.00" fill="#000000">pinged </text>
<text text-anchor="start" x="95.9102" y="-323.9" font-family="Arial" font-size="14.00" fill="#666666">[text]</text>
<polygon fill="none" stroke="#000000" points="43,-282.5 43,-312.5 261,-312.5 261,-282.5 43,-282.5"/>
<text text-anchor="start" x="50" y="-293.9" font-family="Arial" font-size="14.00" fill="#000000">post_modified </text>
<text text-anchor="start" x="141.0238" y="-293.9" font-family="Arial" font-size="14.00" fill="#666666">[datetime]</text>
<polygon fill="none" stroke="#000000" points="43,-252.5 43,-282.5 261,-282.5 261,-252.5 43,-252.5"/>
<text text-anchor="start" x="50" y="-263.9" font-family="Arial" font-size="14.00" fill="#000000">post_modified_gmt </text>
<text text-anchor="start" x="172.1402" y="-263.9" font-family="Arial" font-size="14.00" fill="#666666">[datetime]</text>
<polygon fill="none" stroke="#000000" points="43,-222.5 43,-252.5 261,-252.5 261,-222.5 43,-222.5"/>
<text text-anchor="start" x="50" y="-233.9" font-family="Arial" font-size="14.00" fill="#000000">post_content_filtered </text>
<text text-anchor="start" x="183.826" y="-233.9" font-family="Arial" font-size="14.00" fill="#666666">[longtext]</text>
<polygon fill="none" stroke="#000000" points="43,-192.5 43,-222.5 261,-222.5 261,-192.5 43,-192.5"/>
<text text-anchor="start" x="49.6887" y="-203.9" font-family="Arial" font-size="14.00" fill="#000000">post_parent </text>
<text text-anchor="start" x="127.4993" y="-203.9" font-family="Arial" font-size="14.00" fill="#666666">[bigint(20) unsigned]</text>
<polygon fill="none" stroke="#000000" points="43,-162.5 43,-192.5 261,-192.5 261,-162.5 43,-162.5"/>
<text text-anchor="start" x="50" y="-173.9" font-family="Arial" font-size="14.00" fill="#000000">guid </text>
<text text-anchor="start" x="80.345" y="-173.9" font-family="Arial" font-size="14.00" fill="#666666">[varchar(255)]</text>
<polygon fill="none" stroke="#000000" points="43,-132.5 43,-162.5 261,-162.5 261,-132.5 43,-132.5"/>
<text text-anchor="start" x="50" y="-143.9" font-family="Arial" font-size="14.00" fill="#000000">menu_order </text>
<text text-anchor="start" x="129.3506" y="-143.9" font-family="Arial" font-size="14.00" fill="#666666">[int(11)]</text>
<polygon fill="none" stroke="#000000" points="43,-102.5 43,-132.5 261,-132.5 261,-102.5 43,-102.5"/>
<text text-anchor="start" x="50" y="-113.9" font-family="Arial" font-size="14.00" fill="#000000">post_type </text>
<text text-anchor="start" x="114.5848" y="-113.9" font-family="Arial" font-size="14.00" fill="#666666">[varchar(20)]</text>
<polygon fill="none" stroke="#000000" points="43,-72.5 43,-102.5 261,-102.5 261,-72.5 43,-72.5"/>
<text text-anchor="start" x="50" y="-83.9" font-family="Arial" font-size="14.00" fill="#000000">post_mime_type </text>
<text text-anchor="start" x="156.5778" y="-83.9" font-family="Arial" font-size="14.00" fill="#666666">[varchar(100)]</text>
<polygon fill="none" stroke="#000000" points="43,-42.5 43,-72.5 261,-72.5 261,-42.5 43,-42.5"/>
<text text-anchor="start" x="50" y="-53.9" font-family="Arial" font-size="14.00" fill="#000000">comment_count </text>
<text text-anchor="start" x="153.4712" y="-53.9" font-family="Arial" font-size="14.00" fill="#666666">[bigint(20)]</text>
</g>
<!-- wp_comments&#45;&gt;wp_posts -->
<g id="edge3" class="edge">
<title>wp_comments:comment_post_ID&#45;&gt;wp_posts:ID</title>
<path fill="none" stroke="#000000" stroke-dasharray="5,2" d="M175.9907,-1297.2557C-11.0196,-1287.9269 81.1893,-1013.5687 186,-847 205.6916,-815.7054 241.3084,-842.2946 261,-811 283.1314,-775.8281 302.5556,-717.5 261,-717.5"/>
<polygon fill="#000000" stroke="#000000" points="176.003,-1297.2559 185.8902,-1301.9987 181.0015,-1297.378 186,-1297.5 186,-1297.5 186,-1297.5 181.0015,-1297.378 186.1098,-1293.0013 176.003,-1297.2559 176.003,-1297.2559"/>
<text text-anchor="start" x="96.3245" y="-1307.5" font-family="Arial" font-size="10.00" fill="#000000">Additional Relation</text>
</g>
<!-- wp_users -->
<g id="node4" class="node">
<title>wp_users</title>
<polygon fill="#efefef" stroke="transparent" points="365,-537.5 365,-572.5 593,-572.5 593,-537.5 365,-537.5"/>
<polygon fill="none" stroke="#000000" points="365,-537.5 365,-572.5 593,-572.5 593,-537.5 365,-537.5"/>
<text text-anchor="start" x="391.8675" y="-550.3" font-family="Arial Bold" font-size="18.00" fill="#000000">wp_users</text>
<text text-anchor="start" x="468.8787" y="-550.3" font-family="Arial" font-size="14.00" fill="#000000"> </text>
<text text-anchor="start" x="472.7693" y="-550.3" font-family="Arial" font-size="14.00" fill="#666666">[BASE TABLE]</text>
<polygon fill="none" stroke="#000000" points="365,-507.5 365,-537.5 593,-537.5 593,-507.5 365,-507.5"/>
<text text-anchor="start" x="372" y="-518.9" font-family="Arial" font-size="14.00" fill="#000000">ID </text>
<text text-anchor="start" x="389.8878" y="-518.9" font-family="Arial" font-size="14.00" fill="#666666">[bigint(20) unsigned]</text>
<polygon fill="none" stroke="#000000" points="365,-477.5 365,-507.5 593,-507.5 593,-477.5 365,-477.5"/>
<text text-anchor="start" x="372" y="-488.9" font-family="Arial" font-size="14.00" fill="#000000">user_login </text>
<text text-anchor="start" x="440.46" y="-488.9" font-family="Arial" font-size="14.00" fill="#666666">[varchar(60)]</text>
<polygon fill="none" stroke="#000000" points="365,-447.5 365,-477.5 593,-477.5 593,-447.5 365,-447.5"/>
<text text-anchor="start" x="372" y="-458.9" font-family="Arial" font-size="14.00" fill="#000000">user_pass </text>
<text text-anchor="start" x="440.4642" y="-458.9" font-family="Arial" font-size="14.00" fill="#666666">[varchar(255)]</text>
<polygon fill="none" stroke="#000000" points="365,-417.5 365,-447.5 593,-447.5 593,-417.5 365,-417.5"/>
<text text-anchor="start" x="372" y="-428.9" font-family="Arial" font-size="14.00" fill="#000000">user_nicename </text>
<text text-anchor="start" x="471.5792" y="-428.9" font-family="Arial" font-size="14.00" fill="#666666">[varchar(50)]</text>
<polygon fill="none" stroke="#000000" points="365,-387.5 365,-417.5 593,-417.5 593,-387.5 365,-387.5"/>
<text text-anchor="start" x="372" y="-398.9" font-family="Arial" font-size="14.00" fill="#000000">user_email </text>
<text text-anchor="start" x="444.338" y="-398.9" font-family="Arial" font-size="14.00" fill="#666666">[varchar(100)]</text>
<polygon fill="none" stroke="#000000" points="365,-357.5 365,-387.5 593,-387.5 593,-357.5 365,-357.5"/>
<text text-anchor="start" x="372" y="-368.9" font-family="Arial" font-size="14.00" fill="#000000">user_url </text>
<text text-anchor="start" x="426.4488" y="-368.9" font-family="Arial" font-size="14.00" fill="#666666">[varchar(100)]</text>
<polygon fill="none" stroke="#000000" points="365,-327.5 365,-357.5 593,-357.5 593,-327.5 365,-327.5"/>
<text text-anchor="start" x="372" y="-338.9" font-family="Arial" font-size="14.00" fill="#000000">user_registered </text>
<text text-anchor="start" x="473.1304" y="-338.9" font-family="Arial" font-size="14.00" fill="#666666">[datetime]</text>
<polygon fill="none" stroke="#000000" points="365,-297.5 365,-327.5 593,-327.5 593,-297.5 365,-297.5"/>
<text text-anchor="start" x="371.6459" y="-308.9" font-family="Arial" font-size="14.00" fill="#000000">user_activation_key </text>
<text text-anchor="start" x="499.2349" y="-308.9" font-family="Arial" font-size="14.00" fill="#666666">[varchar(255)]</text>
<polygon fill="none" stroke="#000000" points="365,-267.5 365,-297.5 593,-297.5 593,-267.5 365,-267.5"/>
<text text-anchor="start" x="372" y="-278.9" font-family="Arial" font-size="14.00" fill="#000000">user_status </text>
<text text-anchor="start" x="448.2454" y="-278.9" font-family="Arial" font-size="14.00" fill="#666666">[int(11)]</text>
<polygon fill="none" stroke="#000000" points="365,-237.5 365,-267.5 593,-267.5 593,-237.5 365,-237.5"/>
<text text-anchor="start" x="372" y="-248.9" font-family="Arial" font-size="14.00" fill="#000000">display_name </text>
<text text-anchor="start" x="462.2426" y="-248.9" font-family="Arial" font-size="14.00" fill="#666666">[varchar(250)]</text>
</g>
<!-- wp_comments&#45;&gt;wp_users -->
<g id="edge4" class="edge">
<title>wp_comments:user_id&#45;&gt;wp_users:ID</title>
<path fill="none" stroke="#000000" stroke-dasharray="5,2" d="M453.9962,-907.0209C601.3607,-891.8709 193.9059,-522.5 365,-522.5"/>
<polygon fill="#000000" stroke="#000000" points="453.9885,-907.0212 443.7845,-903.0052 448.9943,-907.2606 444,-907.5 444,-907.5 444,-907.5 448.9943,-907.2606 444.2155,-911.9948 453.9885,-907.0212 453.9885,-907.0212"/>
<text text-anchor="start" x="451.3245" y="-917.5" font-family="Arial" font-size="10.00" fill="#000000">Additional Relation</text>
</g>
<!-- wp_commentmeta -->
<g id="node2" class="node">
<title>wp_commentmeta</title>
<polygon fill="#efefef" stroke="transparent" points="186,-1622.5 186,-1657.5 444,-1657.5 444,-1622.5 186,-1622.5"/>
<polygon fill="none" stroke="#000000" points="186,-1622.5 186,-1657.5 444,-1657.5 444,-1622.5 186,-1622.5"/>
<text text-anchor="start" x="192.8638" y="-1635.3" font-family="Arial Bold" font-size="18.00" fill="#000000">wp_commentmeta</text>
<text text-anchor="start" x="339.8824" y="-1635.3" font-family="Arial" font-size="14.00" fill="#000000"> </text>
<text text-anchor="start" x="343.773" y="-1635.3" font-family="Arial" font-size="14.00" fill="#666666">[BASE TABLE]</text>
<polygon fill="none" stroke="#000000" points="186,-1592.5 186,-1622.5 444,-1622.5 444,-1592.5 186,-1592.5"/>
<text text-anchor="start" x="193" y="-1603.9" font-family="Arial" font-size="14.00" fill="#000000">meta_id </text>
<text text-anchor="start" x="246.6788" y="-1603.9" font-family="Arial" font-size="14.00" fill="#666666">[bigint(20) unsigned]</text>
<polygon fill="none" stroke="#000000" points="186,-1562.5 186,-1592.5 444,-1592.5 444,-1562.5 186,-1562.5"/>
<text text-anchor="start" x="193" y="-1573.9" font-family="Arial" font-size="14.00" fill="#000000">comment_id </text>
<text text-anchor="start" x="273.122" y="-1573.9" font-family="Arial" font-size="14.00" fill="#666666">[bigint(20) unsigned]</text>
<polygon fill="none" stroke="#000000" points="186,-1532.5 186,-1562.5 444,-1562.5 444,-1532.5 186,-1532.5"/>
<text text-anchor="start" x="193" y="-1543.9" font-family="Arial" font-size="14.00" fill="#000000">meta_key </text>
<text text-anchor="start" x="257.5722" y="-1543.9" font-family="Arial" font-size="14.00" fill="#666666">[varchar(255)]</text>
<polygon fill="none" stroke="#000000" points="186,-1502.5 186,-1532.5 444,-1532.5 444,-1502.5 186,-1502.5"/>
<text text-anchor="start" x="193" y="-1513.9" font-family="Arial" font-size="14.00" fill="#000000">meta_value </text>
<text text-anchor="start" x="269.244" y="-1513.9" font-family="Arial" font-size="14.00" fill="#666666">[longtext]</text>
</g>
<!-- wp_commentmeta&#45;&gt;wp_comments -->
<g id="edge2" class="edge">
<title>wp_commentmeta:comment_id&#45;&gt;wp_comments:comment_ID</title>
<path fill="none" stroke="#000000" stroke-dasharray="5,2" d="M454.0911,-1576.7828C555.0026,-1562.1191 551.6389,-1327.5 444,-1327.5"/>
<polygon fill="#000000" stroke="#000000" points="453.9748,-1576.791 443.681,-1573.0113 448.9874,-1577.1455 444,-1577.5 444,-1577.5 444,-1577.5 448.9874,-1577.1455 444.319,-1581.9887 453.9748,-1576.791 453.9748,-1576.791"/>
<text text-anchor="start" x="451.3245" y="-1587.5" font-family="Arial" font-size="10.00" fill="#000000">Additional Relation</text>
</g>
</g>
</svg>
