<?xml version="1.0" encoding="UTF-8" standalone="no"?>
<!DOCTYPE svg PUBLIC "-//W3C//DTD SVG 1.1//EN"
 "http://www.w3.org/Graphics/SVG/1.1/DTD/svg11.dtd">
<!-- Generated by graphviz version 2.40.1 (20161225.0304)
 -->
<!-- Title: wp_commentmeta Pages: 1 -->
<svg width="409pt" height="862pt"
 viewBox="0.00 0.00 409.00 862.00" xmlns="http://www.w3.org/2000/svg" xmlns:xlink="http://www.w3.org/1999/xlink">
<g id="graph0" class="graph" transform="scale(1 1) rotate(0) translate(4 858)">
<title>wp_commentmeta</title>
<polygon fill="#ffffff" stroke="transparent" points="-4,4 -4,-858 405,-858 405,4 -4,4"/>
<!-- wp_commentmeta -->
<g id="node1" class="node">
<title>wp_commentmeta</title>
<polygon fill="#efefef" stroke="transparent" points="46,-772.5 46,-807.5 304,-807.5 304,-772.5 46,-772.5"/>
<polygon fill="none" stroke="#000000" points="46,-772.5 46,-807.5 304,-807.5 304,-772.5 46,-772.5"/>
<text text-anchor="start" x="52.8638" y="-785.3" font-family="Arial Bold" font-size="18.00" fill="#000000">wp_commentmeta</text>
<text text-anchor="start" x="199.8824" y="-785.3" font-family="Arial" font-size="14.00" fill="#000000"> </text>
<text text-anchor="start" x="203.773" y="-785.3" font-family="Arial" font-size="14.00" fill="#666666">[BASE TABLE]</text>
<polygon fill="none" stroke="#000000" points="46,-742.5 46,-772.5 304,-772.5 304,-742.5 46,-742.5"/>
<text text-anchor="start" x="53" y="-753.9" font-family="Arial" font-size="14.00" fill="#000000">meta_id </text>
<text text-anchor="start" x="106.6788" y="-753.9" font-family="Arial" font-size="14.00" fill="#666666">[bigint(20) unsigned]</text>
<polygon fill="none" stroke="#000000" points="46,-712.5 46,-742.5 304,-742.5 304,-712.5 46,-712.5"/>
<text text-anchor="start" x="53" y="-723.9" font-family="Arial" font-size="14.00" fill="#000000">comment_id </text>
<text text-anchor="start" x="133.122" y="-723.9" font-family="Arial" font-size="14.00" fill="#666666">[bigint(20) unsigned]</text>
<polygon fill="none" stroke="#000000" points="46,-682.5 46,-712.5 304,-712.5 304,-682.5 46,-682.5"/>
<text text-anchor="start" x="53" y="-693.9" font-family="Arial" font-size="14.00" fill="#000000">meta_key </text>
<text text-anchor="start" x="117.5722" y="-693.9" font-family="Arial" font-size="14.00" fill="#666666">[varchar(255)]</text>
<polygon fill="none" stroke="#000000" points="46,-652.5 46,-682.5 304,-682.5 304,-652.5 46,-652.5"/>
<text text-anchor="start" x="53" y="-663.9" font-family="Arial" font-size="14.00" fill="#000000">meta_value </text>
<text text-anchor="start" x="129.244" y="-663.9" font-family="Arial" font-size="14.00" fill="#666666">[longtext]</text>
<polygon fill="none" stroke="#000000" stroke-width="3" points="44.5,-651.5 44.5,-809.5 305.5,-809.5 305.5,-651.5 44.5,-651.5"/>
</g>
<!-- wp_comments -->
<g id="node2" class="node">
<title>wp_comments</title>
<polygon fill="#efefef" stroke="transparent" points="46,-492.5 46,-527.5 304,-527.5 304,-492.5 46,-492.5"/>
<polygon fill="none" stroke="#000000" points="46,-492.5 46,-527.5 304,-527.5 304,-492.5 46,-492.5"/>
<text text-anchor="start" x="68.3672" y="-505.3" font-family="Arial Bold" font-size="18.00" fill="#000000">wp_comments</text>
<text text-anchor="start" x="184.379" y="-505.3" font-family="Arial" font-size="14.00" fill="#000000"> </text>
<text text-anchor="start" x="188.2696" y="-505.3" font-family="Arial" font-size="14.00" fill="#666666">[BASE TABLE]</text>
<polygon fill="none" stroke="#000000" points="46,-462.5 46,-492.5 304,-492.5 304,-462.5 46,-462.5"/>
<text text-anchor="start" x="53" y="-473.9" font-family="Arial" font-size="14.00" fill="#000000">comment_ID </text>
<text text-anchor="start" x="136.23" y="-473.9" font-family="Arial" font-size="14.00" fill="#666666">[bigint(20) unsigned]</text>
<polygon fill="none" stroke="#000000" points="46,-432.5 46,-462.5 304,-462.5 304,-432.5 46,-432.5"/>
<text text-anchor="start" x="52.8598" y="-443.9" font-family="Arial" font-size="14.00" fill="#000000">comment_post_ID </text>
<text text-anchor="start" x="170.3282" y="-443.9" font-family="Arial" font-size="14.00" fill="#666666">[bigint(20) unsigned]</text>
<polygon fill="none" stroke="#000000" points="46,-402.5 46,-432.5 304,-432.5 304,-402.5 46,-402.5"/>
<text text-anchor="start" x="53" y="-413.9" font-family="Arial" font-size="14.00" fill="#000000">comment_author </text>
<text text-anchor="start" x="161.9144" y="-413.9" font-family="Arial" font-size="14.00" fill="#666666">[tinytext]</text>
<polygon fill="none" stroke="#000000" points="46,-372.5 46,-402.5 304,-402.5 304,-372.5 46,-372.5"/>
<text text-anchor="start" x="53" y="-383.9" font-family="Arial" font-size="14.00" fill="#000000">comment_author_email </text>
<text text-anchor="start" x="203.136" y="-383.9" font-family="Arial" font-size="14.00" fill="#666666">[varchar(100)]</text>
<polygon fill="none" stroke="#000000" points="46,-342.5 46,-372.5 304,-372.5 304,-342.5 46,-342.5"/>
<text text-anchor="start" x="53" y="-353.9" font-family="Arial" font-size="14.00" fill="#000000">comment_author_url </text>
<text text-anchor="start" x="185.2468" y="-353.9" font-family="Arial" font-size="14.00" fill="#666666">[varchar(200)]</text>
<polygon fill="none" stroke="#000000" points="46,-312.5 46,-342.5 304,-342.5 304,-312.5 46,-312.5"/>
<text text-anchor="start" x="53" y="-323.9" font-family="Arial" font-size="14.00" fill="#000000">comment_author_IP </text>
<text text-anchor="start" x="182.9242" y="-323.9" font-family="Arial" font-size="14.00" fill="#666666">[varchar(100)]</text>
<polygon fill="none" stroke="#000000" points="46,-282.5 46,-312.5 304,-312.5 304,-282.5 46,-282.5"/>
<text text-anchor="start" x="53" y="-293.9" font-family="Arial" font-size="14.00" fill="#000000">comment_date </text>
<text text-anchor="start" x="149.4712" y="-293.9" font-family="Arial" font-size="14.00" fill="#666666">[datetime]</text>
<polygon fill="none" stroke="#000000" points="46,-252.5 46,-282.5 304,-282.5 304,-252.5 46,-252.5"/>
<text text-anchor="start" x="53" y="-263.9" font-family="Arial" font-size="14.00" fill="#000000">comment_date_gmt </text>
<text text-anchor="start" x="180.5876" y="-263.9" font-family="Arial" font-size="14.00" fill="#666666">[datetime]</text>
<polygon fill="none" stroke="#000000" points="46,-222.5 46,-252.5 304,-252.5 304,-222.5 46,-222.5"/>
<text text-anchor="start" x="53" y="-233.9" font-family="Arial" font-size="14.00" fill="#000000">comment_content </text>
<text text-anchor="start" x="168.1444" y="-233.9" font-family="Arial" font-size="14.00" fill="#666666">[text]</text>
<polygon fill="none" stroke="#000000" points="46,-192.5 46,-222.5 304,-222.5 304,-192.5 46,-192.5"/>
<text text-anchor="start" x="53" y="-203.9" font-family="Arial" font-size="14.00" fill="#000000">comment_karma </text>
<text text-anchor="start" x="161.1192" y="-203.9" font-family="Arial" font-size="14.00" fill="#666666">[int(11)]</text>
<polygon fill="none" stroke="#000000" points="46,-162.5 46,-192.5 304,-192.5 304,-162.5 46,-162.5"/>
<text text-anchor="start" x="53" y="-173.9" font-family="Arial" font-size="14.00" fill="#000000">comment_approved </text>
<text text-anchor="start" x="180.589" y="-173.9" font-family="Arial" font-size="14.00" fill="#666666">[varchar(20)]</text>
<polygon fill="none" stroke="#000000" points="46,-132.5 46,-162.5 304,-162.5 304,-132.5 46,-132.5"/>
<text text-anchor="start" x="53" y="-143.9" font-family="Arial" font-size="14.00" fill="#000000">comment_agent </text>
<text text-anchor="start" x="157.2538" y="-143.9" font-family="Arial" font-size="14.00" fill="#666666">[varchar(255)]</text>
<polygon fill="none" stroke="#000000" points="46,-102.5 46,-132.5 304,-132.5 304,-102.5 46,-102.5"/>
<text text-anchor="start" x="53" y="-113.9" font-family="Arial" font-size="14.00" fill="#000000">comment_type </text>
<text text-anchor="start" x="148.6886" y="-113.9" font-family="Arial" font-size="14.00" fill="#666666">[varchar(20)]</text>
<polygon fill="none" stroke="#000000" points="46,-72.5 46,-102.5 304,-102.5 304,-72.5 46,-72.5"/>
<text text-anchor="start" x="53" y="-83.9" font-family="Arial" font-size="14.00" fill="#000000">comment_parent </text>
<text text-anchor="start" x="161.9144" y="-83.9" font-family="Arial" font-size="14.00" fill="#666666">[bigint(20) unsigned]</text>
<polygon fill="none" stroke="#000000" points="46,-42.5 46,-72.5 304,-72.5 304,-42.5 46,-42.5"/>
<text text-anchor="start" x="53" y="-53.9" font-family="Arial" font-size="14.00" fill="#000000">user_id </text>
<text text-anchor="start" x="102.7882" y="-53.9" font-family="Arial" font-size="14.00" fill="#666666">[bigint(20) unsigned]</text>
</g>
<!-- wp_commentmeta&#45;&gt;wp_comments -->
<g id="edge1" class="edge">
<title>wp_commentmeta:comment_id&#45;&gt;wp_comments:comment_ID</title>
<path fill="none" stroke="#000000" stroke-dasharray="5,2" d="M313.7656,-724.6924C359.3385,-697.2266 356.0833,-477.5 304,-477.5"/>
<polygon fill="#000000" stroke="#000000" points="313.6107,-724.7369 302.7566,-723.1752 308.8053,-726.1184 304,-727.5 304,-727.5 304,-727.5 308.8053,-726.1184 305.2434,-731.8248 313.6107,-724.7369 313.6107,-724.7369"/>
<text text-anchor="start" x="311.3245" y="-737.5" font-family="Arial" font-size="10.00" fill="#000000">Additional Relation</text>
</g>
</g>
</svg>
