<?xml version="1.0" encoding="UTF-8" standalone="no"?>
<!DOCTYPE svg PUBLIC "-//W3C//DTD SVG 1.1//EN"
 "http://www.w3.org/Graphics/SVG/1.1/DTD/svg11.dtd">
<!-- Generated by graphviz version 2.40.1 (20161225.0304)
 -->
<!-- Title: wp_links Pages: 1 -->
<svg width="311pt" height="525pt"
 viewBox="0.00 0.00 311.00 525.00" xmlns="http://www.w3.org/2000/svg" xmlns:xlink="http://www.w3.org/1999/xlink">
<g id="graph0" class="graph" transform="scale(1 1) rotate(0) translate(4 521)">
<title>wp_links</title>
<polygon fill="#ffffff" stroke="transparent" points="-4,4 -4,-521 307,-521 307,4 -4,4"/>
<!-- wp_links -->
<g id="node1" class="node">
<title>wp_links</title>
<polygon fill="#efefef" stroke="transparent" points="46.5,-435.5 46.5,-470.5 257.5,-470.5 257.5,-435.5 46.5,-435.5"/>
<polygon fill="none" stroke="#000000" points="46.5,-435.5 46.5,-470.5 257.5,-470.5 257.5,-435.5 46.5,-435.5"/>
<text text-anchor="start" x="68.8725" y="-448.3" font-family="Arial Bold" font-size="18.00" fill="#000000">wp_links</text>
<text text-anchor="start" x="137.8737" y="-448.3" font-family="Arial" font-size="14.00" fill="#000000"> </text>
<text text-anchor="start" x="141.7643" y="-448.3" font-family="Arial" font-size="14.00" fill="#666666">[BASE TABLE]</text>
<polygon fill="none" stroke="#000000" points="46.5,-405.5 46.5,-435.5 257.5,-435.5 257.5,-405.5 46.5,-405.5"/>
<text text-anchor="start" x="53.5" y="-416.9" font-family="Arial" font-size="14.00" fill="#000000">link_id </text>
<text text-anchor="start" x="97.0582" y="-416.9" font-family="Arial" font-size="14.00" fill="#666666">[bigint(20) unsigned]</text>
<polygon fill="none" stroke="#000000" points="46.5,-375.5 46.5,-405.5 257.5,-405.5 257.5,-375.5 46.5,-375.5"/>
<text text-anchor="start" x="53.5" y="-386.9" font-family="Arial" font-size="14.00" fill="#000000">link_url </text>
<text text-anchor="start" x="101.7188" y="-386.9" font-family="Arial" font-size="14.00" fill="#666666">[varchar(255)]</text>
<polygon fill="none" stroke="#000000" points="46.5,-345.5 46.5,-375.5 257.5,-375.5 257.5,-345.5 46.5,-345.5"/>
<text text-anchor="start" x="53.5" y="-356.9" font-family="Arial" font-size="14.00" fill="#000000">link_name </text>
<text text-anchor="start" x="121.1774" y="-356.9" font-family="Arial" font-size="14.00" fill="#666666">[varchar(255)]</text>
<polygon fill="none" stroke="#000000" points="46.5,-315.5 46.5,-345.5 257.5,-345.5 257.5,-315.5 46.5,-315.5"/>
<text text-anchor="start" x="53.5" y="-326.9" font-family="Arial" font-size="14.00" fill="#000000">link_image </text>
<text text-anchor="start" x="124.284" y="-326.9" font-family="Arial" font-size="14.00" fill="#666666">[varchar(255)]</text>
<polygon fill="none" stroke="#000000" points="46.5,-285.5 46.5,-315.5 257.5,-315.5 257.5,-285.5 46.5,-285.5"/>
<text text-anchor="start" x="53.5" y="-296.9" font-family="Arial" font-size="14.00" fill="#000000">link_target </text>
<text text-anchor="start" x="121.9586" y="-296.9" font-family="Arial" font-size="14.00" fill="#666666">[varchar(25)]</text>
<polygon fill="none" stroke="#000000" points="46.5,-255.5 46.5,-285.5 257.5,-285.5 257.5,-255.5 46.5,-255.5"/>
<text text-anchor="start" x="53.5" y="-266.9" font-family="Arial" font-size="14.00" fill="#000000">link_description </text>
<text text-anchor="start" x="153.8464" y="-266.9" font-family="Arial" font-size="14.00" fill="#666666">[varchar(255)]</text>
<polygon fill="none" stroke="#000000" points="46.5,-225.5 46.5,-255.5 257.5,-255.5 257.5,-225.5 46.5,-225.5"/>
<text text-anchor="start" x="53.5" y="-236.9" font-family="Arial" font-size="14.00" fill="#000000">link_visible </text>
<text text-anchor="start" x="125.054" y="-236.9" font-family="Arial" font-size="14.00" fill="#666666">[varchar(20)]</text>
<polygon fill="none" stroke="#000000" points="46.5,-195.5 46.5,-225.5 257.5,-225.5 257.5,-195.5 46.5,-195.5"/>
<text text-anchor="start" x="53.202" y="-206.9" font-family="Arial" font-size="14.00" fill="#000000">link_owner </text>
<text text-anchor="start" x="123.986" y="-206.9" font-family="Arial" font-size="14.00" fill="#666666">[bigint(20) unsigned]</text>
<polygon fill="none" stroke="#000000" points="46.5,-165.5 46.5,-195.5 257.5,-195.5 257.5,-165.5 46.5,-165.5"/>
<text text-anchor="start" x="53.5" y="-176.9" font-family="Arial" font-size="14.00" fill="#000000">link_rating </text>
<text text-anchor="start" x="121.1746" y="-176.9" font-family="Arial" font-size="14.00" fill="#666666">[int(11)]</text>
<polygon fill="none" stroke="#000000" points="46.5,-135.5 46.5,-165.5 257.5,-165.5 257.5,-135.5 46.5,-135.5"/>
<text text-anchor="start" x="53.5" y="-146.9" font-family="Arial" font-size="14.00" fill="#000000">link_updated </text>
<text text-anchor="start" x="136.7552" y="-146.9" font-family="Arial" font-size="14.00" fill="#666666">[datetime]</text>
<polygon fill="none" stroke="#000000" points="46.5,-105.5 46.5,-135.5 257.5,-135.5 257.5,-105.5 46.5,-105.5"/>
<text text-anchor="start" x="53.5" y="-116.9" font-family="Arial" font-size="14.00" fill="#000000">link_rel </text>
<text text-anchor="start" x="101.7188" y="-116.9" font-family="Arial" font-size="14.00" fill="#666666">[varchar(255)]</text>
<polygon fill="none" stroke="#000000" points="46.5,-75.5 46.5,-105.5 257.5,-105.5 257.5,-75.5 46.5,-75.5"/>
<text text-anchor="start" x="53.5" y="-86.9" font-family="Arial" font-size="14.00" fill="#000000">link_notes </text>
<text text-anchor="start" x="120.4074" y="-86.9" font-family="Arial" font-size="14.00" fill="#666666">[mediumtext]</text>
<polygon fill="none" stroke="#000000" points="46.5,-45.5 46.5,-75.5 257.5,-75.5 257.5,-45.5 46.5,-45.5"/>
<text text-anchor="start" x="53.5" y="-56.9" font-family="Arial" font-size="14.00" fill="#000000">link_rss </text>
<text text-anchor="start" x="104.8296" y="-56.9" font-family="Arial" font-size="14.00" fill="#666666">[varchar(255)]</text>
<polygon fill="none" stroke="#000000" stroke-width="3" points="44.5,-44.5 44.5,-472.5 258.5,-472.5 258.5,-44.5 44.5,-44.5"/>
</g>
</g>
</svg>
