<?xml version="1.0" encoding="UTF-8" standalone="no"?>
<!DOCTYPE svg PUBLIC "-//W3C//DTD SVG 1.1//EN"
 "http://www.w3.org/Graphics/SVG/1.1/DTD/svg11.dtd">
<!-- Generated by graphviz version 2.40.1 (20161225.0304)
 -->
<!-- Title: wp_options Pages: 1 -->
<svg width="302pt" height="255pt"
 viewBox="0.00 0.00 302.00 255.00" xmlns="http://www.w3.org/2000/svg" xmlns:xlink="http://www.w3.org/1999/xlink">
<g id="graph0" class="graph" transform="scale(1 1) rotate(0) translate(4 251)">
<title>wp_options</title>
<polygon fill="#ffffff" stroke="transparent" points="-4,4 -4,-251 298,-251 298,4 -4,4"/>
<!-- wp_options -->
<g id="node1" class="node">
<title>wp_options</title>
<polygon fill="#efefef" stroke="transparent" points="46,-165.5 46,-200.5 248,-200.5 248,-165.5 46,-165.5"/>
<polygon fill="none" stroke="#000000" points="46,-165.5 46,-200.5 248,-200.5 248,-165.5 46,-165.5"/>
<text text-anchor="start" x="52.8592" y="-178.3" font-family="Arial Bold" font-size="18.00" fill="#000000">wp_options</text>
<text text-anchor="start" x="143.887" y="-178.3" font-family="Arial" font-size="14.00" fill="#000000"> </text>
<text text-anchor="start" x="147.7776" y="-178.3" font-family="Arial" font-size="14.00" fill="#666666">[BASE TABLE]</text>
<polygon fill="none" stroke="#000000" points="46,-135.5 46,-165.5 248,-165.5 248,-135.5 46,-135.5"/>
<text text-anchor="start" x="53" y="-146.9" font-family="Arial" font-size="14.00" fill="#000000">option_id </text>
<text text-anchor="start" x="113.69" y="-146.9" font-family="Arial" font-size="14.00" fill="#666666">[bigint(20) unsigned]</text>
<polygon fill="none" stroke="#000000" points="46,-105.5 46,-135.5 248,-135.5 248,-105.5 46,-105.5"/>
<text text-anchor="start" x="53" y="-116.9" font-family="Arial" font-size="14.00" fill="#000000">option_name </text>
<text text-anchor="start" x="137.8092" y="-116.9" font-family="Arial" font-size="14.00" fill="#666666">[varchar(191)]</text>
<polygon fill="none" stroke="#000000" points="46,-75.5 46,-105.5 248,-105.5 248,-75.5 46,-75.5"/>
<text text-anchor="start" x="53" y="-86.9" font-family="Arial" font-size="14.00" fill="#000000">option_value </text>
<text text-anchor="start" x="136.2552" y="-86.9" font-family="Arial" font-size="14.00" fill="#666666">[longtext]</text>
<polygon fill="none" stroke="#000000" points="46,-45.5 46,-75.5 248,-75.5 248,-45.5 46,-45.5"/>
<text text-anchor="start" x="53" y="-56.9" font-family="Arial" font-size="14.00" fill="#000000">autoload </text>
<text text-anchor="start" x="110.5834" y="-56.9" font-family="Arial" font-size="14.00" fill="#666666">[varchar(20)]</text>
<polygon fill="none" stroke="#000000" stroke-width="3" points="44.5,-44.5 44.5,-202.5 249.5,-202.5 249.5,-44.5 44.5,-44.5"/>
</g>
</g>
</svg>
