<?xml version="1.0" encoding="UTF-8" standalone="no"?>
<!DOCTYPE svg PUBLIC "-//W3C//DTD SVG 1.1//EN"
 "http://www.w3.org/Graphics/SVG/1.1/DTD/svg11.dtd">
<!-- Generated by graphviz version 2.40.1 (20161225.0304)
 -->
<!-- Title: wp_posts Pages: 1 -->
<svg width="716pt" height="1889pt"
 viewBox="0.00 0.00 715.90 1889.00" xmlns="http://www.w3.org/2000/svg" xmlns:xlink="http://www.w3.org/1999/xlink">
<g id="graph0" class="graph" transform="scale(1 1) rotate(0) translate(4 1885)">
<title>wp_posts</title>
<polygon fill="#ffffff" stroke="transparent" points="-4,4 -4,-1885 711.9043,-1885 711.9043,4 -4,4"/>
<!-- wp_posts -->
<g id="node1" class="node">
<title>wp_posts</title>
<polygon fill="#efefef" stroke="transparent" points="214,-1192.5 214,-1227.5 432,-1227.5 432,-1192.5 214,-1192.5"/>
<polygon fill="none" stroke="#000000" points="214,-1192.5 214,-1227.5 432,-1227.5 432,-1192.5 214,-1192.5"/>
<text text-anchor="start" x="236.3625" y="-1205.3" font-family="Arial Bold" font-size="18.00" fill="#000000">wp_posts</text>
<text text-anchor="start" x="312.3837" y="-1205.3" font-family="Arial" font-size="14.00" fill="#000000"> </text>
<text text-anchor="start" x="316.2743" y="-1205.3" font-family="Arial" font-size="14.00" fill="#666666">[BASE TABLE]</text>
<polygon fill="none" stroke="#000000" points="214,-1162.5 214,-1192.5 432,-1192.5 432,-1162.5 214,-1162.5"/>
<text text-anchor="start" x="221" y="-1173.9" font-family="Arial" font-size="14.00" fill="#000000">ID </text>
<text text-anchor="start" x="238.8878" y="-1173.9" font-family="Arial" font-size="14.00" fill="#666666">[bigint(20) unsigned]</text>
<polygon fill="none" stroke="#000000" points="214,-1132.5 214,-1162.5 432,-1162.5 432,-1132.5 214,-1132.5"/>
<text text-anchor="start" x="220.6887" y="-1143.9" font-family="Arial" font-size="14.00" fill="#000000">post_author </text>
<text text-anchor="start" x="298.4993" y="-1143.9" font-family="Arial" font-size="14.00" fill="#666666">[bigint(20) unsigned]</text>
<polygon fill="none" stroke="#000000" points="214,-1102.5 214,-1132.5 432,-1132.5 432,-1102.5 214,-1102.5"/>
<text text-anchor="start" x="221" y="-1113.9" font-family="Arial" font-size="14.00" fill="#000000">post_date </text>
<text text-anchor="start" x="286.3674" y="-1113.9" font-family="Arial" font-size="14.00" fill="#666666">[datetime]</text>
<polygon fill="none" stroke="#000000" points="214,-1072.5 214,-1102.5 432,-1102.5 432,-1072.5 214,-1072.5"/>
<text text-anchor="start" x="221" y="-1083.9" font-family="Arial" font-size="14.00" fill="#000000">post_date_gmt </text>
<text text-anchor="start" x="317.4838" y="-1083.9" font-family="Arial" font-size="14.00" fill="#666666">[datetime]</text>
<polygon fill="none" stroke="#000000" points="214,-1042.5 214,-1072.5 432,-1072.5 432,-1042.5 214,-1042.5"/>
<text text-anchor="start" x="221" y="-1053.9" font-family="Arial" font-size="14.00" fill="#000000">post_content </text>
<text text-anchor="start" x="305.0406" y="-1053.9" font-family="Arial" font-size="14.00" fill="#666666">[longtext]</text>
<polygon fill="none" stroke="#000000" points="214,-1012.5 214,-1042.5 432,-1042.5 432,-1012.5 214,-1012.5"/>
<text text-anchor="start" x="221" y="-1023.9" font-family="Arial" font-size="14.00" fill="#000000">post_title </text>
<text text-anchor="start" x="280.906" y="-1023.9" font-family="Arial" font-size="14.00" fill="#666666">[text]</text>
<polygon fill="none" stroke="#000000" points="214,-982.5 214,-1012.5 432,-1012.5 432,-982.5 214,-982.5"/>
<text text-anchor="start" x="221" y="-993.9" font-family="Arial" font-size="14.00" fill="#000000">post_excerpt </text>
<text text-anchor="start" x="305.028" y="-993.9" font-family="Arial" font-size="14.00" fill="#666666">[text]</text>
<polygon fill="none" stroke="#000000" points="214,-952.5 214,-982.5 432,-982.5 432,-952.5 214,-952.5"/>
<text text-anchor="start" x="221" y="-963.9" font-family="Arial" font-size="14.00" fill="#000000">post_status </text>
<text text-anchor="start" x="296.4754" y="-963.9" font-family="Arial" font-size="14.00" fill="#666666">[varchar(20)]</text>
<polygon fill="none" stroke="#000000" points="214,-922.5 214,-952.5 432,-952.5 432,-922.5 214,-922.5"/>
<text text-anchor="start" x="221" y="-933.9" font-family="Arial" font-size="14.00" fill="#000000">comment_status </text>
<text text-anchor="start" x="327.5792" y="-933.9" font-family="Arial" font-size="14.00" fill="#666666">[varchar(20)]</text>
<polygon fill="none" stroke="#000000" points="214,-892.5 214,-922.5 432,-922.5 432,-892.5 214,-892.5"/>
<text text-anchor="start" x="221" y="-903.9" font-family="Arial" font-size="14.00" fill="#000000">ping_status </text>
<text text-anchor="start" x="296.474" y="-903.9" font-family="Arial" font-size="14.00" fill="#666666">[varchar(20)]</text>
<polygon fill="none" stroke="#000000" points="214,-862.5 214,-892.5 432,-892.5 432,-862.5 214,-862.5"/>
<text text-anchor="start" x="221" y="-873.9" font-family="Arial" font-size="14.00" fill="#000000">post_password </text>
<text text-anchor="start" x="319.0266" y="-873.9" font-family="Arial" font-size="14.00" fill="#666666">[varchar(255)]</text>
<polygon fill="none" stroke="#000000" points="214,-832.5 214,-862.5 432,-862.5 432,-832.5 214,-832.5"/>
<text text-anchor="start" x="221" y="-843.9" font-family="Arial" font-size="14.00" fill="#000000">post_name </text>
<text text-anchor="start" x="294.1374" y="-843.9" font-family="Arial" font-size="14.00" fill="#666666">[varchar(200)]</text>
<polygon fill="none" stroke="#000000" points="214,-802.5 214,-832.5 432,-832.5 432,-802.5 214,-802.5"/>
<text text-anchor="start" x="221" y="-813.9" font-family="Arial" font-size="14.00" fill="#000000">to_ping </text>
<text text-anchor="start" x="270.8008" y="-813.9" font-family="Arial" font-size="14.00" fill="#666666">[text]</text>
<polygon fill="none" stroke="#000000" points="214,-772.5 214,-802.5 432,-802.5 432,-772.5 214,-772.5"/>
<text text-anchor="start" x="221" y="-783.9" font-family="Arial" font-size="14.00" fill="#000000">pinged </text>
<text text-anchor="start" x="266.9102" y="-783.9" font-family="Arial" font-size="14.00" fill="#666666">[text]</text>
<polygon fill="none" stroke="#000000" points="214,-742.5 214,-772.5 432,-772.5 432,-742.5 214,-742.5"/>
<text text-anchor="start" x="221" y="-753.9" font-family="Arial" font-size="14.00" fill="#000000">post_modified </text>
<text text-anchor="start" x="312.0238" y="-753.9" font-family="Arial" font-size="14.00" fill="#666666">[datetime]</text>
<polygon fill="none" stroke="#000000" points="214,-712.5 214,-742.5 432,-742.5 432,-712.5 214,-712.5"/>
<text text-anchor="start" x="221" y="-723.9" font-family="Arial" font-size="14.00" fill="#000000">post_modified_gmt </text>
<text text-anchor="start" x="343.1402" y="-723.9" font-family="Arial" font-size="14.00" fill="#666666">[datetime]</text>
<polygon fill="none" stroke="#000000" points="214,-682.5 214,-712.5 432,-712.5 432,-682.5 214,-682.5"/>
<text text-anchor="start" x="221" y="-693.9" font-family="Arial" font-size="14.00" fill="#000000">post_content_filtered </text>
<text text-anchor="start" x="354.826" y="-693.9" font-family="Arial" font-size="14.00" fill="#666666">[longtext]</text>
<polygon fill="none" stroke="#000000" points="214,-652.5 214,-682.5 432,-682.5 432,-652.5 214,-652.5"/>
<text text-anchor="start" x="220.6887" y="-663.9" font-family="Arial" font-size="14.00" fill="#000000">post_parent </text>
<text text-anchor="start" x="298.4993" y="-663.9" font-family="Arial" font-size="14.00" fill="#666666">[bigint(20) unsigned]</text>
<polygon fill="none" stroke="#000000" points="214,-622.5 214,-652.5 432,-652.5 432,-622.5 214,-622.5"/>
<text text-anchor="start" x="221" y="-633.9" font-family="Arial" font-size="14.00" fill="#000000">guid </text>
<text text-anchor="start" x="251.345" y="-633.9" font-family="Arial" font-size="14.00" fill="#666666">[varchar(255)]</text>
<polygon fill="none" stroke="#000000" points="214,-592.5 214,-622.5 432,-622.5 432,-592.5 214,-592.5"/>
<text text-anchor="start" x="221" y="-603.9" font-family="Arial" font-size="14.00" fill="#000000">menu_order </text>
<text text-anchor="start" x="300.3506" y="-603.9" font-family="Arial" font-size="14.00" fill="#666666">[int(11)]</text>
<polygon fill="none" stroke="#000000" points="214,-562.5 214,-592.5 432,-592.5 432,-562.5 214,-562.5"/>
<text text-anchor="start" x="221" y="-573.9" font-family="Arial" font-size="14.00" fill="#000000">post_type </text>
<text text-anchor="start" x="285.5848" y="-573.9" font-family="Arial" font-size="14.00" fill="#666666">[varchar(20)]</text>
<polygon fill="none" stroke="#000000" points="214,-532.5 214,-562.5 432,-562.5 432,-532.5 214,-532.5"/>
<text text-anchor="start" x="221" y="-543.9" font-family="Arial" font-size="14.00" fill="#000000">post_mime_type </text>
<text text-anchor="start" x="327.5778" y="-543.9" font-family="Arial" font-size="14.00" fill="#666666">[varchar(100)]</text>
<polygon fill="none" stroke="#000000" points="214,-502.5 214,-532.5 432,-532.5 432,-502.5 214,-502.5"/>
<text text-anchor="start" x="221" y="-513.9" font-family="Arial" font-size="14.00" fill="#000000">comment_count </text>
<text text-anchor="start" x="324.4712" y="-513.9" font-family="Arial" font-size="14.00" fill="#666666">[bigint(20)]</text>
<polygon fill="none" stroke="#000000" stroke-width="3" points="212.5,-501.5 212.5,-1229.5 433.5,-1229.5 433.5,-501.5 212.5,-501.5"/>
</g>
<!-- wp_posts&#45;&gt;wp_posts -->
<g id="edge1" class="edge">
<title>wp_posts:post_parent&#45;&gt;wp_posts:ID</title>
<path fill="none" stroke="#000000" stroke-dasharray="5,2" d="M323.8601,-693.1288C331.9902,-957.2661 331.7035,-1601 323,-1601 314.2197,-1601 314.0054,-1393.5146 322.3569,-1192.5703"/>
<polygon fill="#000000" stroke="#000000" points="323.8479,-692.7431 328.0274,-682.6049 323.6888,-687.7456 323.5297,-682.7481 323.5297,-682.7481 323.5297,-682.7481 323.6888,-687.7456 319.032,-682.8913 323.8479,-692.7431 323.8479,-692.7431"/>
<text text-anchor="start" x="233.8542" y="-692.7481" font-family="Arial" font-size="10.00" fill="#000000">Additional Relation</text>
</g>
<!-- wp_users -->
<g id="node4" class="node">
<title>wp_users</title>
<polygon fill="#efefef" stroke="transparent" points="209,-342.5 209,-377.5 437,-377.5 437,-342.5 209,-342.5"/>
<polygon fill="none" stroke="#000000" points="209,-342.5 209,-377.5 437,-377.5 437,-342.5 209,-342.5"/>
<text text-anchor="start" x="235.8675" y="-355.3" font-family="Arial Bold" font-size="18.00" fill="#000000">wp_users</text>
<text text-anchor="start" x="312.8787" y="-355.3" font-family="Arial" font-size="14.00" fill="#000000"> </text>
<text text-anchor="start" x="316.7693" y="-355.3" font-family="Arial" font-size="14.00" fill="#666666">[BASE TABLE]</text>
<polygon fill="none" stroke="#000000" points="209,-312.5 209,-342.5 437,-342.5 437,-312.5 209,-312.5"/>
<text text-anchor="start" x="216" y="-323.9" font-family="Arial" font-size="14.00" fill="#000000">ID </text>
<text text-anchor="start" x="233.8878" y="-323.9" font-family="Arial" font-size="14.00" fill="#666666">[bigint(20) unsigned]</text>
<polygon fill="none" stroke="#000000" points="209,-282.5 209,-312.5 437,-312.5 437,-282.5 209,-282.5"/>
<text text-anchor="start" x="216" y="-293.9" font-family="Arial" font-size="14.00" fill="#000000">user_login </text>
<text text-anchor="start" x="284.46" y="-293.9" font-family="Arial" font-size="14.00" fill="#666666">[varchar(60)]</text>
<polygon fill="none" stroke="#000000" points="209,-252.5 209,-282.5 437,-282.5 437,-252.5 209,-252.5"/>
<text text-anchor="start" x="216" y="-263.9" font-family="Arial" font-size="14.00" fill="#000000">user_pass </text>
<text text-anchor="start" x="284.4642" y="-263.9" font-family="Arial" font-size="14.00" fill="#666666">[varchar(255)]</text>
<polygon fill="none" stroke="#000000" points="209,-222.5 209,-252.5 437,-252.5 437,-222.5 209,-222.5"/>
<text text-anchor="start" x="216" y="-233.9" font-family="Arial" font-size="14.00" fill="#000000">user_nicename </text>
<text text-anchor="start" x="315.5792" y="-233.9" font-family="Arial" font-size="14.00" fill="#666666">[varchar(50)]</text>
<polygon fill="none" stroke="#000000" points="209,-192.5 209,-222.5 437,-222.5 437,-192.5 209,-192.5"/>
<text text-anchor="start" x="216" y="-203.9" font-family="Arial" font-size="14.00" fill="#000000">user_email </text>
<text text-anchor="start" x="288.338" y="-203.9" font-family="Arial" font-size="14.00" fill="#666666">[varchar(100)]</text>
<polygon fill="none" stroke="#000000" points="209,-162.5 209,-192.5 437,-192.5 437,-162.5 209,-162.5"/>
<text text-anchor="start" x="216" y="-173.9" font-family="Arial" font-size="14.00" fill="#000000">user_url </text>
<text text-anchor="start" x="270.4488" y="-173.9" font-family="Arial" font-size="14.00" fill="#666666">[varchar(100)]</text>
<polygon fill="none" stroke="#000000" points="209,-132.5 209,-162.5 437,-162.5 437,-132.5 209,-132.5"/>
<text text-anchor="start" x="216" y="-143.9" font-family="Arial" font-size="14.00" fill="#000000">user_registered </text>
<text text-anchor="start" x="317.1304" y="-143.9" font-family="Arial" font-size="14.00" fill="#666666">[datetime]</text>
<polygon fill="none" stroke="#000000" points="209,-102.5 209,-132.5 437,-132.5 437,-102.5 209,-102.5"/>
<text text-anchor="start" x="215.6459" y="-113.9" font-family="Arial" font-size="14.00" fill="#000000">user_activation_key </text>
<text text-anchor="start" x="343.2349" y="-113.9" font-family="Arial" font-size="14.00" fill="#666666">[varchar(255)]</text>
<polygon fill="none" stroke="#000000" points="209,-72.5 209,-102.5 437,-102.5 437,-72.5 209,-72.5"/>
<text text-anchor="start" x="216" y="-83.9" font-family="Arial" font-size="14.00" fill="#000000">user_status </text>
<text text-anchor="start" x="292.2454" y="-83.9" font-family="Arial" font-size="14.00" fill="#666666">[int(11)]</text>
<polygon fill="none" stroke="#000000" points="209,-42.5 209,-72.5 437,-72.5 437,-42.5 209,-42.5"/>
<text text-anchor="start" x="216" y="-53.9" font-family="Arial" font-size="14.00" fill="#000000">display_name </text>
<text text-anchor="start" x="306.2426" y="-53.9" font-family="Arial" font-size="14.00" fill="#666666">[varchar(250)]</text>
</g>
<!-- wp_posts&#45;&gt;wp_users -->
<g id="edge4" class="edge">
<title>wp_posts:post_author&#45;&gt;wp_users:ID</title>
<path fill="none" stroke="#000000" stroke-dasharray="5,2" d="M442.0506,-1147.2896C796.5122,-1132.3557 798.0701,-327.5 437,-327.5"/>
<polygon fill="#000000" stroke="#000000" points="441.9978,-1147.2906 431.9058,-1143.001 436.9989,-1147.3953 432,-1147.5 432,-1147.5 432,-1147.5 436.9989,-1147.3953 432.0942,-1151.999 441.9978,-1147.2906 441.9978,-1147.2906"/>
<text text-anchor="start" x="439.3245" y="-1157.5" font-family="Arial" font-size="10.00" fill="#000000">Additional Relation</text>
</g>
<!-- wp_postmeta -->
<g id="node2" class="node">
<title>wp_postmeta</title>
<polygon fill="#efefef" stroke="transparent" points="43,-1637.5 43,-1672.5 261,-1672.5 261,-1637.5 43,-1637.5"/>
<polygon fill="none" stroke="#000000" points="43,-1637.5 43,-1672.5 261,-1672.5 261,-1637.5 43,-1637.5"/>
<text text-anchor="start" x="49.8591" y="-1650.3" font-family="Arial Bold" font-size="18.00" fill="#000000">wp_postmeta</text>
<text text-anchor="start" x="156.8871" y="-1650.3" font-family="Arial" font-size="14.00" fill="#000000"> </text>
<text text-anchor="start" x="160.7777" y="-1650.3" font-family="Arial" font-size="14.00" fill="#666666">[BASE TABLE]</text>
<polygon fill="none" stroke="#000000" points="43,-1607.5 43,-1637.5 261,-1637.5 261,-1607.5 43,-1607.5"/>
<text text-anchor="start" x="50" y="-1618.9" font-family="Arial" font-size="14.00" fill="#000000">meta_id </text>
<text text-anchor="start" x="103.6788" y="-1618.9" font-family="Arial" font-size="14.00" fill="#666666">[bigint(20) unsigned]</text>
<polygon fill="none" stroke="#000000" points="43,-1577.5 43,-1607.5 261,-1607.5 261,-1577.5 43,-1577.5"/>
<text text-anchor="start" x="50" y="-1588.9" font-family="Arial" font-size="14.00" fill="#000000">post_id </text>
<text text-anchor="start" x="99.0182" y="-1588.9" font-family="Arial" font-size="14.00" fill="#666666">[bigint(20) unsigned]</text>
<polygon fill="none" stroke="#000000" points="43,-1547.5 43,-1577.5 261,-1577.5 261,-1547.5 43,-1547.5"/>
<text text-anchor="start" x="50" y="-1558.9" font-family="Arial" font-size="14.00" fill="#000000">meta_key </text>
<text text-anchor="start" x="114.5722" y="-1558.9" font-family="Arial" font-size="14.00" fill="#666666">[varchar(255)]</text>
<polygon fill="none" stroke="#000000" points="43,-1517.5 43,-1547.5 261,-1547.5 261,-1517.5 43,-1517.5"/>
<text text-anchor="start" x="50" y="-1528.9" font-family="Arial" font-size="14.00" fill="#000000">meta_value </text>
<text text-anchor="start" x="126.244" y="-1528.9" font-family="Arial" font-size="14.00" fill="#666666">[longtext]</text>
</g>
<!-- wp_postmeta&#45;&gt;wp_posts -->
<g id="edge2" class="edge">
<title>wp_postmeta:post_id&#45;&gt;wp_posts:ID</title>
<path fill="none" stroke="#000000" stroke-dasharray="5,2" d="M271.1943,-1592.0313C430.5161,-1576.4474 32.0019,-1177.5 214,-1177.5"/>
<polygon fill="#000000" stroke="#000000" points="270.9894,-1592.0406 260.7933,-1588.0047 265.9947,-1592.2703 261,-1592.5 261,-1592.5 261,-1592.5 265.9947,-1592.2703 261.2067,-1596.9953 270.9894,-1592.0406 270.9894,-1592.0406"/>
<text text-anchor="start" x="268.3245" y="-1602.5" font-family="Arial" font-size="10.00" fill="#000000">Additional Relation</text>
</g>
<!-- wp_comments -->
<g id="node3" class="node">
<title>wp_comments</title>
<polygon fill="#efefef" stroke="transparent" points="365,-1802.5 365,-1837.5 623,-1837.5 623,-1802.5 365,-1802.5"/>
<polygon fill="none" stroke="#000000" points="365,-1802.5 365,-1837.5 623,-1837.5 623,-1802.5 365,-1802.5"/>
<text text-anchor="start" x="387.3672" y="-1815.3" font-family="Arial Bold" font-size="18.00" fill="#000000">wp_comments</text>
<text text-anchor="start" x="503.379" y="-1815.3" font-family="Arial" font-size="14.00" fill="#000000"> </text>
<text text-anchor="start" x="507.2696" y="-1815.3" font-family="Arial" font-size="14.00" fill="#666666">[BASE TABLE]</text>
<polygon fill="none" stroke="#000000" points="365,-1772.5 365,-1802.5 623,-1802.5 623,-1772.5 365,-1772.5"/>
<text text-anchor="start" x="372" y="-1783.9" font-family="Arial" font-size="14.00" fill="#000000">comment_ID </text>
<text text-anchor="start" x="455.23" y="-1783.9" font-family="Arial" font-size="14.00" fill="#666666">[bigint(20) unsigned]</text>
<polygon fill="none" stroke="#000000" points="365,-1742.5 365,-1772.5 623,-1772.5 623,-1742.5 365,-1742.5"/>
<text text-anchor="start" x="371.8598" y="-1753.9" font-family="Arial" font-size="14.00" fill="#000000">comment_post_ID </text>
<text text-anchor="start" x="489.3282" y="-1753.9" font-family="Arial" font-size="14.00" fill="#666666">[bigint(20) unsigned]</text>
<polygon fill="none" stroke="#000000" points="365,-1712.5 365,-1742.5 623,-1742.5 623,-1712.5 365,-1712.5"/>
<text text-anchor="start" x="372" y="-1723.9" font-family="Arial" font-size="14.00" fill="#000000">comment_author </text>
<text text-anchor="start" x="480.9144" y="-1723.9" font-family="Arial" font-size="14.00" fill="#666666">[tinytext]</text>
<polygon fill="none" stroke="#000000" points="365,-1682.5 365,-1712.5 623,-1712.5 623,-1682.5 365,-1682.5"/>
<text text-anchor="start" x="372" y="-1693.9" font-family="Arial" font-size="14.00" fill="#000000">comment_author_email </text>
<text text-anchor="start" x="522.136" y="-1693.9" font-family="Arial" font-size="14.00" fill="#666666">[varchar(100)]</text>
<polygon fill="none" stroke="#000000" points="365,-1652.5 365,-1682.5 623,-1682.5 623,-1652.5 365,-1652.5"/>
<text text-anchor="start" x="372" y="-1663.9" font-family="Arial" font-size="14.00" fill="#000000">comment_author_url </text>
<text text-anchor="start" x="504.2468" y="-1663.9" font-family="Arial" font-size="14.00" fill="#666666">[varchar(200)]</text>
<polygon fill="none" stroke="#000000" points="365,-1622.5 365,-1652.5 623,-1652.5 623,-1622.5 365,-1622.5"/>
<text text-anchor="start" x="372" y="-1633.9" font-family="Arial" font-size="14.00" fill="#000000">comment_author_IP </text>
<text text-anchor="start" x="501.9242" y="-1633.9" font-family="Arial" font-size="14.00" fill="#666666">[varchar(100)]</text>
<polygon fill="none" stroke="#000000" points="365,-1592.5 365,-1622.5 623,-1622.5 623,-1592.5 365,-1592.5"/>
<text text-anchor="start" x="372" y="-1603.9" font-family="Arial" font-size="14.00" fill="#000000">comment_date </text>
<text text-anchor="start" x="468.4712" y="-1603.9" font-family="Arial" font-size="14.00" fill="#666666">[datetime]</text>
<polygon fill="none" stroke="#000000" points="365,-1562.5 365,-1592.5 623,-1592.5 623,-1562.5 365,-1562.5"/>
<text text-anchor="start" x="372" y="-1573.9" font-family="Arial" font-size="14.00" fill="#000000">comment_date_gmt </text>
<text text-anchor="start" x="499.5876" y="-1573.9" font-family="Arial" font-size="14.00" fill="#666666">[datetime]</text>
<polygon fill="none" stroke="#000000" points="365,-1532.5 365,-1562.5 623,-1562.5 623,-1532.5 365,-1532.5"/>
<text text-anchor="start" x="372" y="-1543.9" font-family="Arial" font-size="14.00" fill="#000000">comment_content </text>
<text text-anchor="start" x="487.1444" y="-1543.9" font-family="Arial" font-size="14.00" fill="#666666">[text]</text>
<polygon fill="none" stroke="#000000" points="365,-1502.5 365,-1532.5 623,-1532.5 623,-1502.5 365,-1502.5"/>
<text text-anchor="start" x="372" y="-1513.9" font-family="Arial" font-size="14.00" fill="#000000">comment_karma </text>
<text text-anchor="start" x="480.1192" y="-1513.9" font-family="Arial" font-size="14.00" fill="#666666">[int(11)]</text>
<polygon fill="none" stroke="#000000" points="365,-1472.5 365,-1502.5 623,-1502.5 623,-1472.5 365,-1472.5"/>
<text text-anchor="start" x="372" y="-1483.9" font-family="Arial" font-size="14.00" fill="#000000">comment_approved </text>
<text text-anchor="start" x="499.589" y="-1483.9" font-family="Arial" font-size="14.00" fill="#666666">[varchar(20)]</text>
<polygon fill="none" stroke="#000000" points="365,-1442.5 365,-1472.5 623,-1472.5 623,-1442.5 365,-1442.5"/>
<text text-anchor="start" x="372" y="-1453.9" font-family="Arial" font-size="14.00" fill="#000000">comment_agent </text>
<text text-anchor="start" x="476.2538" y="-1453.9" font-family="Arial" font-size="14.00" fill="#666666">[varchar(255)]</text>
<polygon fill="none" stroke="#000000" points="365,-1412.5 365,-1442.5 623,-1442.5 623,-1412.5 365,-1412.5"/>
<text text-anchor="start" x="372" y="-1423.9" font-family="Arial" font-size="14.00" fill="#000000">comment_type </text>
<text text-anchor="start" x="467.6886" y="-1423.9" font-family="Arial" font-size="14.00" fill="#666666">[varchar(20)]</text>
<polygon fill="none" stroke="#000000" points="365,-1382.5 365,-1412.5 623,-1412.5 623,-1382.5 365,-1382.5"/>
<text text-anchor="start" x="372" y="-1393.9" font-family="Arial" font-size="14.00" fill="#000000">comment_parent </text>
<text text-anchor="start" x="480.9144" y="-1393.9" font-family="Arial" font-size="14.00" fill="#666666">[bigint(20) unsigned]</text>
<polygon fill="none" stroke="#000000" points="365,-1352.5 365,-1382.5 623,-1382.5 623,-1352.5 365,-1352.5"/>
<text text-anchor="start" x="372" y="-1363.9" font-family="Arial" font-size="14.00" fill="#000000">user_id </text>
<text text-anchor="start" x="421.7882" y="-1363.9" font-family="Arial" font-size="14.00" fill="#666666">[bigint(20) unsigned]</text>
</g>
<!-- wp_comments&#45;&gt;wp_posts -->
<g id="edge3" class="edge">
<title>wp_comments:comment_post_ID&#45;&gt;wp_posts:ID</title>
<path fill="none" stroke="#000000" stroke-dasharray="5,2" d="M356.0512,-1752.369C318.4985,-1705.3313 341.1785,-1349.842 365,-1310 382.3472,-1280.9864 414.6528,-1303.0136 432,-1274 454.0092,-1237.189 474.8889,-1177.5 432,-1177.5"/>
<polygon fill="#000000" stroke="#000000" points="356.3248,-1752.5259 362.7617,-1761.4038 360.6624,-1755.0129 365,-1757.5 365,-1757.5 365,-1757.5 360.6624,-1755.0129 367.2383,-1753.5962 356.3248,-1752.5259 356.3248,-1752.5259"/>
<text text-anchor="start" x="275.3245" y="-1767.5" font-family="Arial" font-size="10.00" fill="#000000">Additional Relation</text>
</g>
</g>
</svg>
