<?xml version="1.0" encoding="UTF-8" standalone="no"?>
<!DOCTYPE svg PUBLIC "-//W3C//DTD SVG 1.1//EN"
 "http://www.w3.org/Graphics/SVG/1.1/DTD/svg11.dtd">
<!-- Generated by graphviz version 2.40.1 (20161225.0304)
 -->
<!-- Title: wp_postmeta Pages: 1 -->
<svg width="369pt" height="1102pt"
 viewBox="0.00 0.00 369.00 1102.00" xmlns="http://www.w3.org/2000/svg" xmlns:xlink="http://www.w3.org/1999/xlink">
<g id="graph0" class="graph" transform="scale(1 1) rotate(0) translate(4 1098)">
<title>wp_postmeta</title>
<polygon fill="#ffffff" stroke="transparent" points="-4,4 -4,-1098 365,-1098 365,4 -4,4"/>
<!-- wp_postmeta -->
<g id="node1" class="node">
<title>wp_postmeta</title>
<polygon fill="#efefef" stroke="transparent" points="46,-1012.5 46,-1047.5 264,-1047.5 264,-1012.5 46,-1012.5"/>
<polygon fill="none" stroke="#000000" points="46,-1012.5 46,-1047.5 264,-1047.5 264,-1012.5 46,-1012.5"/>
<text text-anchor="start" x="52.8591" y="-1025.3" font-family="Arial Bold" font-size="18.00" fill="#000000">wp_postmeta</text>
<text text-anchor="start" x="159.8871" y="-1025.3" font-family="Arial" font-size="14.00" fill="#000000"> </text>
<text text-anchor="start" x="163.7777" y="-1025.3" font-family="Arial" font-size="14.00" fill="#666666">[BASE TABLE]</text>
<polygon fill="none" stroke="#000000" points="46,-982.5 46,-1012.5 264,-1012.5 264,-982.5 46,-982.5"/>
<text text-anchor="start" x="53" y="-993.9" font-family="Arial" font-size="14.00" fill="#000000">meta_id </text>
<text text-anchor="start" x="106.6788" y="-993.9" font-family="Arial" font-size="14.00" fill="#666666">[bigint(20) unsigned]</text>
<polygon fill="none" stroke="#000000" points="46,-952.5 46,-982.5 264,-982.5 264,-952.5 46,-952.5"/>
<text text-anchor="start" x="53" y="-963.9" font-family="Arial" font-size="14.00" fill="#000000">post_id </text>
<text text-anchor="start" x="102.0182" y="-963.9" font-family="Arial" font-size="14.00" fill="#666666">[bigint(20) unsigned]</text>
<polygon fill="none" stroke="#000000" points="46,-922.5 46,-952.5 264,-952.5 264,-922.5 46,-922.5"/>
<text text-anchor="start" x="53" y="-933.9" font-family="Arial" font-size="14.00" fill="#000000">meta_key </text>
<text text-anchor="start" x="117.5722" y="-933.9" font-family="Arial" font-size="14.00" fill="#666666">[varchar(255)]</text>
<polygon fill="none" stroke="#000000" points="46,-892.5 46,-922.5 264,-922.5 264,-892.5 46,-892.5"/>
<text text-anchor="start" x="53" y="-903.9" font-family="Arial" font-size="14.00" fill="#000000">meta_value </text>
<text text-anchor="start" x="129.244" y="-903.9" font-family="Arial" font-size="14.00" fill="#666666">[longtext]</text>
<polygon fill="none" stroke="#000000" stroke-width="3" points="44.5,-891.5 44.5,-1049.5 265.5,-1049.5 265.5,-891.5 44.5,-891.5"/>
</g>
<!-- wp_posts -->
<g id="node2" class="node">
<title>wp_posts</title>
<polygon fill="#efefef" stroke="transparent" points="46,-732.5 46,-767.5 264,-767.5 264,-732.5 46,-732.5"/>
<polygon fill="none" stroke="#000000" points="46,-732.5 46,-767.5 264,-767.5 264,-732.5 46,-732.5"/>
<text text-anchor="start" x="68.3625" y="-745.3" font-family="Arial Bold" font-size="18.00" fill="#000000">wp_posts</text>
<text text-anchor="start" x="144.3837" y="-745.3" font-family="Arial" font-size="14.00" fill="#000000"> </text>
<text text-anchor="start" x="148.2743" y="-745.3" font-family="Arial" font-size="14.00" fill="#666666">[BASE TABLE]</text>
<polygon fill="none" stroke="#000000" points="46,-702.5 46,-732.5 264,-732.5 264,-702.5 46,-702.5"/>
<text text-anchor="start" x="53" y="-713.9" font-family="Arial" font-size="14.00" fill="#000000">ID </text>
<text text-anchor="start" x="70.8878" y="-713.9" font-family="Arial" font-size="14.00" fill="#666666">[bigint(20) unsigned]</text>
<polygon fill="none" stroke="#000000" points="46,-672.5 46,-702.5 264,-702.5 264,-672.5 46,-672.5"/>
<text text-anchor="start" x="52.6887" y="-683.9" font-family="Arial" font-size="14.00" fill="#000000">post_author </text>
<text text-anchor="start" x="130.4993" y="-683.9" font-family="Arial" font-size="14.00" fill="#666666">[bigint(20) unsigned]</text>
<polygon fill="none" stroke="#000000" points="46,-642.5 46,-672.5 264,-672.5 264,-642.5 46,-642.5"/>
<text text-anchor="start" x="53" y="-653.9" font-family="Arial" font-size="14.00" fill="#000000">post_date </text>
<text text-anchor="start" x="118.3674" y="-653.9" font-family="Arial" font-size="14.00" fill="#666666">[datetime]</text>
<polygon fill="none" stroke="#000000" points="46,-612.5 46,-642.5 264,-642.5 264,-612.5 46,-612.5"/>
<text text-anchor="start" x="53" y="-623.9" font-family="Arial" font-size="14.00" fill="#000000">post_date_gmt </text>
<text text-anchor="start" x="149.4838" y="-623.9" font-family="Arial" font-size="14.00" fill="#666666">[datetime]</text>
<polygon fill="none" stroke="#000000" points="46,-582.5 46,-612.5 264,-612.5 264,-582.5 46,-582.5"/>
<text text-anchor="start" x="53" y="-593.9" font-family="Arial" font-size="14.00" fill="#000000">post_content </text>
<text text-anchor="start" x="137.0406" y="-593.9" font-family="Arial" font-size="14.00" fill="#666666">[longtext]</text>
<polygon fill="none" stroke="#000000" points="46,-552.5 46,-582.5 264,-582.5 264,-552.5 46,-552.5"/>
<text text-anchor="start" x="53" y="-563.9" font-family="Arial" font-size="14.00" fill="#000000">post_title </text>
<text text-anchor="start" x="112.906" y="-563.9" font-family="Arial" font-size="14.00" fill="#666666">[text]</text>
<polygon fill="none" stroke="#000000" points="46,-522.5 46,-552.5 264,-552.5 264,-522.5 46,-522.5"/>
<text text-anchor="start" x="53" y="-533.9" font-family="Arial" font-size="14.00" fill="#000000">post_excerpt </text>
<text text-anchor="start" x="137.028" y="-533.9" font-family="Arial" font-size="14.00" fill="#666666">[text]</text>
<polygon fill="none" stroke="#000000" points="46,-492.5 46,-522.5 264,-522.5 264,-492.5 46,-492.5"/>
<text text-anchor="start" x="53" y="-503.9" font-family="Arial" font-size="14.00" fill="#000000">post_status </text>
<text text-anchor="start" x="128.4754" y="-503.9" font-family="Arial" font-size="14.00" fill="#666666">[varchar(20)]</text>
<polygon fill="none" stroke="#000000" points="46,-462.5 46,-492.5 264,-492.5 264,-462.5 46,-462.5"/>
<text text-anchor="start" x="53" y="-473.9" font-family="Arial" font-size="14.00" fill="#000000">comment_status </text>
<text text-anchor="start" x="159.5792" y="-473.9" font-family="Arial" font-size="14.00" fill="#666666">[varchar(20)]</text>
<polygon fill="none" stroke="#000000" points="46,-432.5 46,-462.5 264,-462.5 264,-432.5 46,-432.5"/>
<text text-anchor="start" x="53" y="-443.9" font-family="Arial" font-size="14.00" fill="#000000">ping_status </text>
<text text-anchor="start" x="128.474" y="-443.9" font-family="Arial" font-size="14.00" fill="#666666">[varchar(20)]</text>
<polygon fill="none" stroke="#000000" points="46,-402.5 46,-432.5 264,-432.5 264,-402.5 46,-402.5"/>
<text text-anchor="start" x="53" y="-413.9" font-family="Arial" font-size="14.00" fill="#000000">post_password </text>
<text text-anchor="start" x="151.0266" y="-413.9" font-family="Arial" font-size="14.00" fill="#666666">[varchar(255)]</text>
<polygon fill="none" stroke="#000000" points="46,-372.5 46,-402.5 264,-402.5 264,-372.5 46,-372.5"/>
<text text-anchor="start" x="53" y="-383.9" font-family="Arial" font-size="14.00" fill="#000000">post_name </text>
<text text-anchor="start" x="126.1374" y="-383.9" font-family="Arial" font-size="14.00" fill="#666666">[varchar(200)]</text>
<polygon fill="none" stroke="#000000" points="46,-342.5 46,-372.5 264,-372.5 264,-342.5 46,-342.5"/>
<text text-anchor="start" x="53" y="-353.9" font-family="Arial" font-size="14.00" fill="#000000">to_ping </text>
<text text-anchor="start" x="102.8008" y="-353.9" font-family="Arial" font-size="14.00" fill="#666666">[text]</text>
<polygon fill="none" stroke="#000000" points="46,-312.5 46,-342.5 264,-342.5 264,-312.5 46,-312.5"/>
<text text-anchor="start" x="53" y="-323.9" font-family="Arial" font-size="14.00" fill="#000000">pinged </text>
<text text-anchor="start" x="98.9102" y="-323.9" font-family="Arial" font-size="14.00" fill="#666666">[text]</text>
<polygon fill="none" stroke="#000000" points="46,-282.5 46,-312.5 264,-312.5 264,-282.5 46,-282.5"/>
<text text-anchor="start" x="53" y="-293.9" font-family="Arial" font-size="14.00" fill="#000000">post_modified </text>
<text text-anchor="start" x="144.0238" y="-293.9" font-family="Arial" font-size="14.00" fill="#666666">[datetime]</text>
<polygon fill="none" stroke="#000000" points="46,-252.5 46,-282.5 264,-282.5 264,-252.5 46,-252.5"/>
<text text-anchor="start" x="53" y="-263.9" font-family="Arial" font-size="14.00" fill="#000000">post_modified_gmt </text>
<text text-anchor="start" x="175.1402" y="-263.9" font-family="Arial" font-size="14.00" fill="#666666">[datetime]</text>
<polygon fill="none" stroke="#000000" points="46,-222.5 46,-252.5 264,-252.5 264,-222.5 46,-222.5"/>
<text text-anchor="start" x="53" y="-233.9" font-family="Arial" font-size="14.00" fill="#000000">post_content_filtered </text>
<text text-anchor="start" x="186.826" y="-233.9" font-family="Arial" font-size="14.00" fill="#666666">[longtext]</text>
<polygon fill="none" stroke="#000000" points="46,-192.5 46,-222.5 264,-222.5 264,-192.5 46,-192.5"/>
<text text-anchor="start" x="52.6887" y="-203.9" font-family="Arial" font-size="14.00" fill="#000000">post_parent </text>
<text text-anchor="start" x="130.4993" y="-203.9" font-family="Arial" font-size="14.00" fill="#666666">[bigint(20) unsigned]</text>
<polygon fill="none" stroke="#000000" points="46,-162.5 46,-192.5 264,-192.5 264,-162.5 46,-162.5"/>
<text text-anchor="start" x="53" y="-173.9" font-family="Arial" font-size="14.00" fill="#000000">guid </text>
<text text-anchor="start" x="83.345" y="-173.9" font-family="Arial" font-size="14.00" fill="#666666">[varchar(255)]</text>
<polygon fill="none" stroke="#000000" points="46,-132.5 46,-162.5 264,-162.5 264,-132.5 46,-132.5"/>
<text text-anchor="start" x="53" y="-143.9" font-family="Arial" font-size="14.00" fill="#000000">menu_order </text>
<text text-anchor="start" x="132.3506" y="-143.9" font-family="Arial" font-size="14.00" fill="#666666">[int(11)]</text>
<polygon fill="none" stroke="#000000" points="46,-102.5 46,-132.5 264,-132.5 264,-102.5 46,-102.5"/>
<text text-anchor="start" x="53" y="-113.9" font-family="Arial" font-size="14.00" fill="#000000">post_type </text>
<text text-anchor="start" x="117.5848" y="-113.9" font-family="Arial" font-size="14.00" fill="#666666">[varchar(20)]</text>
<polygon fill="none" stroke="#000000" points="46,-72.5 46,-102.5 264,-102.5 264,-72.5 46,-72.5"/>
<text text-anchor="start" x="53" y="-83.9" font-family="Arial" font-size="14.00" fill="#000000">post_mime_type </text>
<text text-anchor="start" x="159.5778" y="-83.9" font-family="Arial" font-size="14.00" fill="#666666">[varchar(100)]</text>
<polygon fill="none" stroke="#000000" points="46,-42.5 46,-72.5 264,-72.5 264,-42.5 46,-42.5"/>
<text text-anchor="start" x="53" y="-53.9" font-family="Arial" font-size="14.00" fill="#000000">comment_count </text>
<text text-anchor="start" x="156.4712" y="-53.9" font-family="Arial" font-size="14.00" fill="#666666">[bigint(20)]</text>
</g>
<!-- wp_postmeta&#45;&gt;wp_posts -->
<g id="edge1" class="edge">
<title>wp_postmeta:post_id&#45;&gt;wp_posts:ID</title>
<path fill="none" stroke="#000000" stroke-dasharray="5,2" d="M273.7656,-964.6924C319.3385,-937.2266 316.0833,-717.5 264,-717.5"/>
<polygon fill="#000000" stroke="#000000" points="273.6107,-964.7369 262.7566,-963.1752 268.8053,-966.1184 264,-967.5 264,-967.5 264,-967.5 268.8053,-966.1184 265.2434,-971.8248 273.6107,-964.7369 273.6107,-964.7369"/>
<text text-anchor="start" x="271.3245" y="-977.5" font-family="Arial" font-size="10.00" fill="#000000">Additional Relation</text>
</g>
</g>
</svg>
