<?xml version="1.0" encoding="UTF-8" standalone="no"?>
<!DOCTYPE svg PUBLIC "-//W3C//DTD SVG 1.1//EN"
 "http://www.w3.org/Graphics/SVG/1.1/DTD/svg11.dtd">
<!-- Generated by graphviz version 2.40.1 (20161225.0304)
 -->
<!-- Title: wp_term_taxonomy Pages: 1 -->
<svg width="481pt" height="839pt"
 viewBox="0.00 0.00 481.00 839.00" xmlns="http://www.w3.org/2000/svg" xmlns:xlink="http://www.w3.org/1999/xlink">
<g id="graph0" class="graph" transform="scale(1 1) rotate(0) translate(4 835)">
<title>wp_term_taxonomy</title>
<polygon fill="#ffffff" stroke="transparent" points="-4,4 -4,-835 477,-835 477,4 -4,4"/>
<!-- wp_term_taxonomy -->
<g id="node1" class="node">
<title>wp_term_taxonomy</title>
<polygon fill="#efefef" stroke="transparent" points="97,-502.5 97,-537.5 365,-537.5 365,-502.5 97,-502.5"/>
<polygon fill="none" stroke="#000000" points="97,-502.5 97,-537.5 365,-537.5 365,-502.5 97,-502.5"/>
<text text-anchor="start" x="103.8607" y="-515.3" font-family="Arial Bold" font-size="18.00" fill="#000000">wp_term_taxonomy</text>
<text text-anchor="start" x="260.8855" y="-515.3" font-family="Arial" font-size="14.00" fill="#000000"> </text>
<text text-anchor="start" x="264.7761" y="-515.3" font-family="Arial" font-size="14.00" fill="#666666">[BASE TABLE]</text>
<polygon fill="none" stroke="#000000" points="97,-472.5 97,-502.5 365,-502.5 365,-472.5 97,-472.5"/>
<text text-anchor="start" x="104" y="-483.9" font-family="Arial" font-size="14.00" fill="#000000">term_taxonomy_id </text>
<text text-anchor="start" x="223.021" y="-483.9" font-family="Arial" font-size="14.00" fill="#666666">[bigint(20) unsigned]</text>
<polygon fill="none" stroke="#000000" points="97,-442.5 97,-472.5 365,-472.5 365,-442.5 97,-442.5"/>
<text text-anchor="start" x="104" y="-453.9" font-family="Arial" font-size="14.00" fill="#000000">term_id </text>
<text text-anchor="start" x="154.5568" y="-453.9" font-family="Arial" font-size="14.00" fill="#666666">[bigint(20) unsigned]</text>
<polygon fill="none" stroke="#000000" points="97,-412.5 97,-442.5 365,-442.5 365,-412.5 97,-412.5"/>
<text text-anchor="start" x="104" y="-423.9" font-family="Arial" font-size="14.00" fill="#000000">taxonomy </text>
<text text-anchor="start" x="168.5722" y="-423.9" font-family="Arial" font-size="14.00" fill="#666666">[varchar(32)]</text>
<polygon fill="none" stroke="#000000" points="97,-382.5 97,-412.5 365,-412.5 365,-382.5 97,-382.5"/>
<text text-anchor="start" x="104" y="-393.9" font-family="Arial" font-size="14.00" fill="#000000">description </text>
<text text-anchor="start" x="175.568" y="-393.9" font-family="Arial" font-size="14.00" fill="#666666">[longtext]</text>
<polygon fill="none" stroke="#000000" points="97,-352.5 97,-382.5 365,-382.5 365,-352.5 97,-352.5"/>
<text text-anchor="start" x="104" y="-363.9" font-family="Arial" font-size="14.00" fill="#000000">parent </text>
<text text-anchor="start" x="147.5722" y="-363.9" font-family="Arial" font-size="14.00" fill="#666666">[bigint(20) unsigned]</text>
<polygon fill="none" stroke="#000000" points="97,-322.5 97,-352.5 365,-352.5 365,-322.5 97,-322.5"/>
<text text-anchor="start" x="104" y="-333.9" font-family="Arial" font-size="14.00" fill="#000000">count </text>
<text text-anchor="start" x="142.129" y="-333.9" font-family="Arial" font-size="14.00" fill="#666666">[bigint(20)]</text>
<polygon fill="none" stroke="#000000" stroke-width="3" points="95.5,-321.5 95.5,-539.5 366.5,-539.5 366.5,-321.5 95.5,-321.5"/>
</g>
<!-- wp_terms -->
<g id="node3" class="node">
<title>wp_terms</title>
<polygon fill="#efefef" stroke="transparent" points="135,-162.5 135,-197.5 326,-197.5 326,-162.5 135,-162.5"/>
<polygon fill="none" stroke="#000000" points="135,-162.5 135,-197.5 326,-197.5 326,-162.5 135,-162.5"/>
<text text-anchor="start" x="142.8734" y="-175.3" font-family="Arial Bold" font-size="18.00" fill="#000000">wp_terms</text>
<text text-anchor="start" x="220.8728" y="-175.3" font-family="Arial" font-size="14.00" fill="#000000"> </text>
<text text-anchor="start" x="224.7634" y="-175.3" font-family="Arial" font-size="14.00" fill="#666666">[BASE TABLE]</text>
<polygon fill="none" stroke="#000000" points="135,-132.5 135,-162.5 326,-162.5 326,-132.5 135,-132.5"/>
<text text-anchor="start" x="141.8156" y="-143.9" font-family="Arial" font-size="14.00" fill="#000000">term_id </text>
<text text-anchor="start" x="192.3724" y="-143.9" font-family="Arial" font-size="14.00" fill="#666666">[bigint(20) unsigned]</text>
<polygon fill="none" stroke="#000000" points="135,-102.5 135,-132.5 326,-132.5 326,-102.5 135,-102.5"/>
<text text-anchor="start" x="142" y="-113.9" font-family="Arial" font-size="14.00" fill="#000000">name </text>
<text text-anchor="start" x="180.899" y="-113.9" font-family="Arial" font-size="14.00" fill="#666666">[varchar(200)]</text>
<polygon fill="none" stroke="#000000" points="135,-72.5 135,-102.5 326,-102.5 326,-72.5 135,-72.5"/>
<text text-anchor="start" x="142" y="-83.9" font-family="Arial" font-size="14.00" fill="#000000">slug </text>
<text text-anchor="start" x="171.5624" y="-83.9" font-family="Arial" font-size="14.00" fill="#666666">[varchar(200)]</text>
<polygon fill="none" stroke="#000000" points="135,-42.5 135,-72.5 326,-72.5 326,-42.5 135,-42.5"/>
<text text-anchor="start" x="142" y="-53.9" font-family="Arial" font-size="14.00" fill="#000000">term_group </text>
<text text-anchor="start" x="217.4586" y="-53.9" font-family="Arial" font-size="14.00" fill="#666666">[bigint(10)]</text>
</g>
<!-- wp_term_taxonomy&#45;&gt;wp_terms -->
<g id="edge2" class="edge">
<title>wp_term_taxonomy:term_id&#45;&gt;wp_terms:term_id</title>
<path fill="none" stroke="#000000" stroke-dasharray="5,2" d="M86.8369,-456.7925C19.3497,-446.8793 47.2068,-335.2325 97,-277 163.9562,-198.6956 259.0438,-319.3044 326,-241 353.0063,-209.4164 367.5556,-147.5 326,-147.5"/>
<polygon fill="#000000" stroke="#000000" points="87.0241,-456.8055 96.6875,-461.9891 92.0121,-457.1527 97,-457.5 97,-457.5 97,-457.5 92.0121,-457.1527 97.3125,-453.0109 87.0241,-456.8055 87.0241,-456.8055"/>
<text text-anchor="start" x="7.3245" y="-467.5" font-family="Arial" font-size="10.00" fill="#000000">Additional Relation</text>
</g>
<!-- wp_term_relationships -->
<g id="node2" class="node">
<title>wp_term_relationships</title>
<polygon fill="#efefef" stroke="transparent" points="85,-752.5 85,-787.5 376,-787.5 376,-752.5 85,-752.5"/>
<polygon fill="none" stroke="#000000" points="85,-752.5 85,-787.5 376,-787.5 376,-752.5 85,-752.5"/>
<text text-anchor="start" x="91.8632" y="-765.3" font-family="Arial Bold" font-size="18.00" fill="#000000">wp_term_relationships</text>
<text text-anchor="start" x="271.883" y="-765.3" font-family="Arial" font-size="14.00" fill="#000000"> </text>
<text text-anchor="start" x="275.7736" y="-765.3" font-family="Arial" font-size="14.00" fill="#666666">[BASE TABLE]</text>
<polygon fill="none" stroke="#000000" points="85,-722.5 85,-752.5 376,-752.5 376,-722.5 85,-722.5"/>
<text text-anchor="start" x="92" y="-733.9" font-family="Arial" font-size="14.00" fill="#000000">object_id </text>
<text text-anchor="start" x="151.9074" y="-733.9" font-family="Arial" font-size="14.00" fill="#666666">[bigint(20) unsigned]</text>
<polygon fill="none" stroke="#000000" points="85,-692.5 85,-722.5 376,-722.5 376,-692.5 85,-692.5"/>
<text text-anchor="start" x="92" y="-703.9" font-family="Arial" font-size="14.00" fill="#000000">term_taxonomy_id </text>
<text text-anchor="start" x="211.021" y="-703.9" font-family="Arial" font-size="14.00" fill="#666666">[bigint(20) unsigned]</text>
<polygon fill="none" stroke="#000000" points="85,-662.5 85,-692.5 376,-692.5 376,-662.5 85,-662.5"/>
<text text-anchor="start" x="92" y="-673.9" font-family="Arial" font-size="14.00" fill="#000000">term_order </text>
<text text-anchor="start" x="164.3366" y="-673.9" font-family="Arial" font-size="14.00" fill="#666666">[int(11)]</text>
</g>
<!-- wp_term_relationships&#45;&gt;wp_term_taxonomy -->
<g id="edge1" class="edge">
<title>wp_term_relationships:term_taxonomy_id&#45;&gt;wp_term_taxonomy:term_taxonomy_id</title>
<path fill="none" stroke="#000000" stroke-dasharray="5,2" d="M385.9396,-705.9136C412.1899,-696.3917 399.1712,-646.3531 376,-620 293.4423,-526.1053 179.5577,-677.8947 97,-584 68.6799,-551.7909 54.1111,-487.5 97,-487.5"/>
<polygon fill="#000000" stroke="#000000" points="385.875,-705.9238 375.2907,-703.0562 380.9375,-706.7119 376,-707.5 376,-707.5 376,-707.5 380.9375,-706.7119 376.7093,-711.9438 385.875,-705.9238 385.875,-705.9238"/>
<text text-anchor="start" x="383.3245" y="-717.5" font-family="Arial" font-size="10.00" fill="#000000">Additional Relation</text>
</g>
</g>
</svg>
