<?xml version="1.0" encoding="UTF-8" standalone="no"?>
<!DOCTYPE svg PUBLIC "-//W3C//DTD SVG 1.1//EN"
 "http://www.w3.org/Graphics/SVG/1.1/DTD/svg11.dtd">
<!-- Generated by graphviz version 2.40.1 (20161225.0304)
 -->
<!-- Title: wp_term_relationships Pages: 1 -->
<svg width="443pt" height="562pt"
 viewBox="0.00 0.00 442.50 562.00" xmlns="http://www.w3.org/2000/svg" xmlns:xlink="http://www.w3.org/1999/xlink">
<g id="graph0" class="graph" transform="scale(1 1) rotate(0) translate(4 558)">
<title>wp_term_relationships</title>
<polygon fill="#ffffff" stroke="transparent" points="-4,4 -4,-558 438.5,-558 438.5,4 -4,4"/>
<!-- wp_term_relationships -->
<g id="node1" class="node">
<title>wp_term_relationships</title>
<polygon fill="#efefef" stroke="transparent" points="46.5,-472.5 46.5,-507.5 337.5,-507.5 337.5,-472.5 46.5,-472.5"/>
<polygon fill="none" stroke="#000000" points="46.5,-472.5 46.5,-507.5 337.5,-507.5 337.5,-472.5 46.5,-472.5"/>
<text text-anchor="start" x="53.3632" y="-485.3" font-family="Arial Bold" font-size="18.00" fill="#000000">wp_term_relationships</text>
<text text-anchor="start" x="233.383" y="-485.3" font-family="Arial" font-size="14.00" fill="#000000"> </text>
<text text-anchor="start" x="237.2736" y="-485.3" font-family="Arial" font-size="14.00" fill="#666666">[BASE TABLE]</text>
<polygon fill="none" stroke="#000000" points="46.5,-442.5 46.5,-472.5 337.5,-472.5 337.5,-442.5 46.5,-442.5"/>
<text text-anchor="start" x="53.5" y="-453.9" font-family="Arial" font-size="14.00" fill="#000000">object_id </text>
<text text-anchor="start" x="113.4074" y="-453.9" font-family="Arial" font-size="14.00" fill="#666666">[bigint(20) unsigned]</text>
<polygon fill="none" stroke="#000000" points="46.5,-412.5 46.5,-442.5 337.5,-442.5 337.5,-412.5 46.5,-412.5"/>
<text text-anchor="start" x="53.5" y="-423.9" font-family="Arial" font-size="14.00" fill="#000000">term_taxonomy_id </text>
<text text-anchor="start" x="172.521" y="-423.9" font-family="Arial" font-size="14.00" fill="#666666">[bigint(20) unsigned]</text>
<polygon fill="none" stroke="#000000" points="46.5,-382.5 46.5,-412.5 337.5,-412.5 337.5,-382.5 46.5,-382.5"/>
<text text-anchor="start" x="53.5" y="-393.9" font-family="Arial" font-size="14.00" fill="#000000">term_order </text>
<text text-anchor="start" x="125.8366" y="-393.9" font-family="Arial" font-size="14.00" fill="#666666">[int(11)]</text>
<polygon fill="none" stroke="#000000" stroke-width="3" points="44.5,-381.5 44.5,-509.5 338.5,-509.5 338.5,-381.5 44.5,-381.5"/>
</g>
<!-- wp_term_taxonomy -->
<g id="node2" class="node">
<title>wp_term_taxonomy</title>
<polygon fill="#efefef" stroke="transparent" points="58.5,-222.5 58.5,-257.5 326.5,-257.5 326.5,-222.5 58.5,-222.5"/>
<polygon fill="none" stroke="#000000" points="58.5,-222.5 58.5,-257.5 326.5,-257.5 326.5,-222.5 58.5,-222.5"/>
<text text-anchor="start" x="65.3607" y="-235.3" font-family="Arial Bold" font-size="18.00" fill="#000000">wp_term_taxonomy</text>
<text text-anchor="start" x="222.3855" y="-235.3" font-family="Arial" font-size="14.00" fill="#000000"> </text>
<text text-anchor="start" x="226.2761" y="-235.3" font-family="Arial" font-size="14.00" fill="#666666">[BASE TABLE]</text>
<polygon fill="none" stroke="#000000" points="58.5,-192.5 58.5,-222.5 326.5,-222.5 326.5,-192.5 58.5,-192.5"/>
<text text-anchor="start" x="65.5" y="-203.9" font-family="Arial" font-size="14.00" fill="#000000">term_taxonomy_id </text>
<text text-anchor="start" x="184.521" y="-203.9" font-family="Arial" font-size="14.00" fill="#666666">[bigint(20) unsigned]</text>
<polygon fill="none" stroke="#000000" points="58.5,-162.5 58.5,-192.5 326.5,-192.5 326.5,-162.5 58.5,-162.5"/>
<text text-anchor="start" x="65.5" y="-173.9" font-family="Arial" font-size="14.00" fill="#000000">term_id </text>
<text text-anchor="start" x="116.0568" y="-173.9" font-family="Arial" font-size="14.00" fill="#666666">[bigint(20) unsigned]</text>
<polygon fill="none" stroke="#000000" points="58.5,-132.5 58.5,-162.5 326.5,-162.5 326.5,-132.5 58.5,-132.5"/>
<text text-anchor="start" x="65.5" y="-143.9" font-family="Arial" font-size="14.00" fill="#000000">taxonomy </text>
<text text-anchor="start" x="130.0722" y="-143.9" font-family="Arial" font-size="14.00" fill="#666666">[varchar(32)]</text>
<polygon fill="none" stroke="#000000" points="58.5,-102.5 58.5,-132.5 326.5,-132.5 326.5,-102.5 58.5,-102.5"/>
<text text-anchor="start" x="65.5" y="-113.9" font-family="Arial" font-size="14.00" fill="#000000">description </text>
<text text-anchor="start" x="137.068" y="-113.9" font-family="Arial" font-size="14.00" fill="#666666">[longtext]</text>
<polygon fill="none" stroke="#000000" points="58.5,-72.5 58.5,-102.5 326.5,-102.5 326.5,-72.5 58.5,-72.5"/>
<text text-anchor="start" x="65.5" y="-83.9" font-family="Arial" font-size="14.00" fill="#000000">parent </text>
<text text-anchor="start" x="109.0722" y="-83.9" font-family="Arial" font-size="14.00" fill="#666666">[bigint(20) unsigned]</text>
<polygon fill="none" stroke="#000000" points="58.5,-42.5 58.5,-72.5 326.5,-72.5 326.5,-42.5 58.5,-42.5"/>
<text text-anchor="start" x="65.5" y="-53.9" font-family="Arial" font-size="14.00" fill="#000000">count </text>
<text text-anchor="start" x="103.629" y="-53.9" font-family="Arial" font-size="14.00" fill="#666666">[bigint(20)]</text>
</g>
<!-- wp_term_relationships&#45;&gt;wp_term_taxonomy -->
<g id="edge1" class="edge">
<title>wp_term_relationships:term_taxonomy_id&#45;&gt;wp_term_taxonomy:term_taxonomy_id</title>
<path fill="none" stroke="#000000" stroke-dasharray="5,2" d="M347.4255,-425.9847C375.0471,-416.4594 361.5694,-364.3746 337.5,-337 254.9423,-243.1053 141.0577,-394.8947 58.5,-301 31.0603,-269.7922 16.9444,-207.5 58.5,-207.5"/>
<polygon fill="#000000" stroke="#000000" points="347.3855,-425.9907 336.8208,-423.0515 342.4427,-426.7454 337.5,-427.5 337.5,-427.5 337.5,-427.5 342.4427,-426.7454 338.1792,-431.9485 347.3855,-425.9907 347.3855,-425.9907"/>
<text text-anchor="start" x="344.8245" y="-437.5" font-family="Arial" font-size="10.00" fill="#000000">Additional Relation</text>
</g>
</g>
</svg>
