<?xml version="1.0" encoding="UTF-8" standalone="no"?>
<!DOCTYPE svg PUBLIC "-//W3C//DTD SVG 1.1//EN"
 "http://www.w3.org/Graphics/SVG/1.1/DTD/svg11.dtd">
<!-- Generated by graphviz version 2.40.1 (20161225.0304)
 -->
<!-- Title: wp_term_relationships Pages: 1 -->
<svg width="391pt" height="225pt"
 viewBox="0.00 0.00 391.00 225.00" xmlns="http://www.w3.org/2000/svg" xmlns:xlink="http://www.w3.org/1999/xlink">
<g id="graph0" class="graph" transform="scale(1 1) rotate(0) translate(4 221)">
<title>wp_term_relationships</title>
<polygon fill="#ffffff" stroke="transparent" points="-4,4 -4,-221 387,-221 387,4 -4,4"/>
<!-- wp_term_relationships -->
<g id="node1" class="node">
<title>wp_term_relationships</title>
<polygon fill="#efefef" stroke="transparent" points="46.5,-135.5 46.5,-170.5 337.5,-170.5 337.5,-135.5 46.5,-135.5"/>
<polygon fill="none" stroke="#000000" points="46.5,-135.5 46.5,-170.5 337.5,-170.5 337.5,-135.5 46.5,-135.5"/>
<text text-anchor="start" x="53.3632" y="-148.3" font-family="Arial Bold" font-size="18.00" fill="#000000">wp_term_relationships</text>
<text text-anchor="start" x="233.383" y="-148.3" font-family="Arial" font-size="14.00" fill="#000000"> </text>
<text text-anchor="start" x="237.2736" y="-148.3" font-family="Arial" font-size="14.00" fill="#666666">[BASE TABLE]</text>
<polygon fill="none" stroke="#000000" points="46.5,-105.5 46.5,-135.5 337.5,-135.5 337.5,-105.5 46.5,-105.5"/>
<text text-anchor="start" x="53.5" y="-116.9" font-family="Arial" font-size="14.00" fill="#000000">object_id </text>
<text text-anchor="start" x="113.4074" y="-116.9" font-family="Arial" font-size="14.00" fill="#666666">[bigint(20) unsigned]</text>
<polygon fill="none" stroke="#000000" points="46.5,-75.5 46.5,-105.5 337.5,-105.5 337.5,-75.5 46.5,-75.5"/>
<text text-anchor="start" x="53.5" y="-86.9" font-family="Arial" font-size="14.00" fill="#000000">term_taxonomy_id </text>
<text text-anchor="start" x="172.521" y="-86.9" font-family="Arial" font-size="14.00" fill="#666666">[bigint(20) unsigned]</text>
<polygon fill="none" stroke="#000000" points="46.5,-45.5 46.5,-75.5 337.5,-75.5 337.5,-45.5 46.5,-45.5"/>
<text text-anchor="start" x="53.5" y="-56.9" font-family="Arial" font-size="14.00" fill="#000000">term_order </text>
<text text-anchor="start" x="125.8366" y="-56.9" font-family="Arial" font-size="14.00" fill="#666666">[int(11)]</text>
<polygon fill="none" stroke="#000000" stroke-width="3" points="44.5,-44.5 44.5,-172.5 338.5,-172.5 338.5,-44.5 44.5,-44.5"/>
</g>
</g>
</svg>
