<?xml version="1.0" encoding="UTF-8" standalone="no"?>
<!DOCTYPE svg PUBLIC "-//W3C//DTD SVG 1.1//EN"
 "http://www.w3.org/Graphics/SVG/1.1/DTD/svg11.dtd">
<!-- Generated by graphviz version 2.40.1 (20161225.0304)
 -->
<!-- Title: wp_terms Pages: 1 -->
<svg width="291pt" height="255pt"
 viewBox="0.00 0.00 291.00 255.00" xmlns="http://www.w3.org/2000/svg" xmlns:xlink="http://www.w3.org/1999/xlink">
<g id="graph0" class="graph" transform="scale(1 1) rotate(0) translate(4 251)">
<title>wp_terms</title>
<polygon fill="#ffffff" stroke="transparent" points="-4,4 -4,-251 287,-251 287,4 -4,4"/>
<!-- wp_terms -->
<g id="node1" class="node">
<title>wp_terms</title>
<polygon fill="#efefef" stroke="transparent" points="46.5,-165.5 46.5,-200.5 237.5,-200.5 237.5,-165.5 46.5,-165.5"/>
<polygon fill="none" stroke="#000000" points="46.5,-165.5 46.5,-200.5 237.5,-200.5 237.5,-165.5 46.5,-165.5"/>
<text text-anchor="start" x="54.3734" y="-178.3" font-family="Arial Bold" font-size="18.00" fill="#000000">wp_terms</text>
<text text-anchor="start" x="132.3728" y="-178.3" font-family="Arial" font-size="14.00" fill="#000000"> </text>
<text text-anchor="start" x="136.2634" y="-178.3" font-family="Arial" font-size="14.00" fill="#666666">[BASE TABLE]</text>
<polygon fill="none" stroke="#000000" points="46.5,-135.5 46.5,-165.5 237.5,-165.5 237.5,-135.5 46.5,-135.5"/>
<text text-anchor="start" x="53.3156" y="-146.9" font-family="Arial" font-size="14.00" fill="#000000">term_id </text>
<text text-anchor="start" x="103.8724" y="-146.9" font-family="Arial" font-size="14.00" fill="#666666">[bigint(20) unsigned]</text>
<polygon fill="none" stroke="#000000" points="46.5,-105.5 46.5,-135.5 237.5,-135.5 237.5,-105.5 46.5,-105.5"/>
<text text-anchor="start" x="53.5" y="-116.9" font-family="Arial" font-size="14.00" fill="#000000">name </text>
<text text-anchor="start" x="92.399" y="-116.9" font-family="Arial" font-size="14.00" fill="#666666">[varchar(200)]</text>
<polygon fill="none" stroke="#000000" points="46.5,-75.5 46.5,-105.5 237.5,-105.5 237.5,-75.5 46.5,-75.5"/>
<text text-anchor="start" x="53.5" y="-86.9" font-family="Arial" font-size="14.00" fill="#000000">slug </text>
<text text-anchor="start" x="83.0624" y="-86.9" font-family="Arial" font-size="14.00" fill="#666666">[varchar(200)]</text>
<polygon fill="none" stroke="#000000" points="46.5,-45.5 46.5,-75.5 237.5,-75.5 237.5,-45.5 46.5,-45.5"/>
<text text-anchor="start" x="53.5" y="-56.9" font-family="Arial" font-size="14.00" fill="#000000">term_group </text>
<text text-anchor="start" x="128.9586" y="-56.9" font-family="Arial" font-size="14.00" fill="#666666">[bigint(10)]</text>
<polygon fill="none" stroke="#000000" stroke-width="3" points="44.5,-44.5 44.5,-202.5 238.5,-202.5 238.5,-44.5 44.5,-44.5"/>
</g>
</g>
</svg>
