<?xml version="1.0" encoding="UTF-8" standalone="no"?>
<!DOCTYPE svg PUBLIC "-//W3C//DTD SVG 1.1//EN"
 "http://www.w3.org/Graphics/SVG/1.1/DTD/svg11.dtd">
<!-- Generated by graphviz version 2.40.1 (20161225.0304)
 -->
<!-- Title: wp_terms Pages: 1 -->
<svg width="686pt" height="592pt"
 viewBox="0.00 0.00 686.00 592.00" xmlns="http://www.w3.org/2000/svg" xmlns:xlink="http://www.w3.org/1999/xlink">
<g id="graph0" class="graph" transform="scale(1 1) rotate(0) translate(4 588)">
<title>wp_terms</title>
<polygon fill="#ffffff" stroke="transparent" points="-4,4 -4,-588 682,-588 682,4 -4,4"/>
<!-- wp_terms -->
<g id="node1" class="node">
<title>wp_terms</title>
<polygon fill="#efefef" stroke="transparent" points="231,-165.5 231,-200.5 422,-200.5 422,-165.5 231,-165.5"/>
<polygon fill="none" stroke="#000000" points="231,-165.5 231,-200.5 422,-200.5 422,-165.5 231,-165.5"/>
<text text-anchor="start" x="238.8734" y="-178.3" font-family="Arial Bold" font-size="18.00" fill="#000000">wp_terms</text>
<text text-anchor="start" x="316.8728" y="-178.3" font-family="Arial" font-size="14.00" fill="#000000"> </text>
<text text-anchor="start" x="320.7634" y="-178.3" font-family="Arial" font-size="14.00" fill="#666666">[BASE TABLE]</text>
<polygon fill="none" stroke="#000000" points="231,-135.5 231,-165.5 422,-165.5 422,-135.5 231,-135.5"/>
<text text-anchor="start" x="237.8156" y="-146.9" font-family="Arial" font-size="14.00" fill="#000000">term_id </text>
<text text-anchor="start" x="288.3724" y="-146.9" font-family="Arial" font-size="14.00" fill="#666666">[bigint(20) unsigned]</text>
<polygon fill="none" stroke="#000000" points="231,-105.5 231,-135.5 422,-135.5 422,-105.5 231,-105.5"/>
<text text-anchor="start" x="238" y="-116.9" font-family="Arial" font-size="14.00" fill="#000000">name </text>
<text text-anchor="start" x="276.899" y="-116.9" font-family="Arial" font-size="14.00" fill="#666666">[varchar(200)]</text>
<polygon fill="none" stroke="#000000" points="231,-75.5 231,-105.5 422,-105.5 422,-75.5 231,-75.5"/>
<text text-anchor="start" x="238" y="-86.9" font-family="Arial" font-size="14.00" fill="#000000">slug </text>
<text text-anchor="start" x="267.5624" y="-86.9" font-family="Arial" font-size="14.00" fill="#666666">[varchar(200)]</text>
<polygon fill="none" stroke="#000000" points="231,-45.5 231,-75.5 422,-75.5 422,-45.5 231,-45.5"/>
<text text-anchor="start" x="238" y="-56.9" font-family="Arial" font-size="14.00" fill="#000000">term_group </text>
<text text-anchor="start" x="313.4586" y="-56.9" font-family="Arial" font-size="14.00" fill="#666666">[bigint(10)]</text>
<polygon fill="none" stroke="#000000" stroke-width="3" points="229,-44.5 229,-202.5 423,-202.5 423,-44.5 229,-44.5"/>
</g>
<!-- wp_termmeta -->
<g id="node2" class="node">
<title>wp_termmeta</title>
<polygon fill="#efefef" stroke="transparent" points="43,-475.5 43,-510.5 263,-510.5 263,-475.5 43,-475.5"/>
<polygon fill="none" stroke="#000000" points="43,-475.5 43,-510.5 263,-510.5 263,-475.5 43,-475.5"/>
<text text-anchor="start" x="49.87" y="-488.3" font-family="Arial Bold" font-size="18.00" fill="#000000">wp_termmeta</text>
<text text-anchor="start" x="158.8762" y="-488.3" font-family="Arial" font-size="14.00" fill="#000000"> </text>
<text text-anchor="start" x="162.7668" y="-488.3" font-family="Arial" font-size="14.00" fill="#666666">[BASE TABLE]</text>
<polygon fill="none" stroke="#000000" points="43,-445.5 43,-475.5 263,-475.5 263,-445.5 43,-445.5"/>
<text text-anchor="start" x="50" y="-456.9" font-family="Arial" font-size="14.00" fill="#000000">meta_id </text>
<text text-anchor="start" x="103.6788" y="-456.9" font-family="Arial" font-size="14.00" fill="#666666">[bigint(20) unsigned]</text>
<polygon fill="none" stroke="#000000" points="43,-415.5 43,-445.5 263,-445.5 263,-415.5 43,-415.5"/>
<text text-anchor="start" x="50" y="-426.9" font-family="Arial" font-size="14.00" fill="#000000">term_id </text>
<text text-anchor="start" x="100.5568" y="-426.9" font-family="Arial" font-size="14.00" fill="#666666">[bigint(20) unsigned]</text>
<polygon fill="none" stroke="#000000" points="43,-385.5 43,-415.5 263,-415.5 263,-385.5 43,-385.5"/>
<text text-anchor="start" x="50" y="-396.9" font-family="Arial" font-size="14.00" fill="#000000">meta_key </text>
<text text-anchor="start" x="114.5722" y="-396.9" font-family="Arial" font-size="14.00" fill="#666666">[varchar(255)]</text>
<polygon fill="none" stroke="#000000" points="43,-355.5 43,-385.5 263,-385.5 263,-355.5 43,-355.5"/>
<text text-anchor="start" x="50" y="-366.9" font-family="Arial" font-size="14.00" fill="#000000">meta_value </text>
<text text-anchor="start" x="126.244" y="-366.9" font-family="Arial" font-size="14.00" fill="#666666">[longtext]</text>
</g>
<!-- wp_termmeta&#45;&gt;wp_terms -->
<g id="edge1" class="edge">
<title>wp_termmeta:term_id&#45;&gt;wp_terms:term_id</title>
<path fill="none" stroke="#000000" stroke-dasharray="5,2" d="M273.1445,-429.433C309.3643,-420.7002 273.8206,-360.1199 263,-313 255.7038,-281.2277 238.2962,-278.7723 231,-247 221.4008,-205.1991 188.1111,-150.5 231,-150.5"/>
<polygon fill="#000000" stroke="#000000" points="272.9451,-429.4539 262.5293,-426.0247 267.9726,-429.977 263,-430.5 263,-430.5 263,-430.5 267.9726,-429.977 263.4707,-434.9753 272.9451,-429.4539 272.9451,-429.4539"/>
<text text-anchor="start" x="270.3245" y="-440.5" font-family="Arial" font-size="10.00" fill="#000000">Additional Relation</text>
</g>
<!-- wp_term_taxonomy -->
<g id="node3" class="node">
<title>wp_term_taxonomy</title>
<polygon fill="#efefef" stroke="transparent" points="367,-505.5 367,-540.5 635,-540.5 635,-505.5 367,-505.5"/>
<polygon fill="none" stroke="#000000" points="367,-505.5 367,-540.5 635,-540.5 635,-505.5 367,-505.5"/>
<text text-anchor="start" x="373.8607" y="-518.3" font-family="Arial Bold" font-size="18.00" fill="#000000">wp_term_taxonomy</text>
<text text-anchor="start" x="530.8855" y="-518.3" font-family="Arial" font-size="14.00" fill="#000000"> </text>
<text text-anchor="start" x="534.7761" y="-518.3" font-family="Arial" font-size="14.00" fill="#666666">[BASE TABLE]</text>
<polygon fill="none" stroke="#000000" points="367,-475.5 367,-505.5 635,-505.5 635,-475.5 367,-475.5"/>
<text text-anchor="start" x="374" y="-486.9" font-family="Arial" font-size="14.00" fill="#000000">term_taxonomy_id </text>
<text text-anchor="start" x="493.021" y="-486.9" font-family="Arial" font-size="14.00" fill="#666666">[bigint(20) unsigned]</text>
<polygon fill="none" stroke="#000000" points="367,-445.5 367,-475.5 635,-475.5 635,-445.5 367,-445.5"/>
<text text-anchor="start" x="374" y="-456.9" font-family="Arial" font-size="14.00" fill="#000000">term_id </text>
<text text-anchor="start" x="424.5568" y="-456.9" font-family="Arial" font-size="14.00" fill="#666666">[bigint(20) unsigned]</text>
<polygon fill="none" stroke="#000000" points="367,-415.5 367,-445.5 635,-445.5 635,-415.5 367,-415.5"/>
<text text-anchor="start" x="374" y="-426.9" font-family="Arial" font-size="14.00" fill="#000000">taxonomy </text>
<text text-anchor="start" x="438.5722" y="-426.9" font-family="Arial" font-size="14.00" fill="#666666">[varchar(32)]</text>
<polygon fill="none" stroke="#000000" points="367,-385.5 367,-415.5 635,-415.5 635,-385.5 367,-385.5"/>
<text text-anchor="start" x="374" y="-396.9" font-family="Arial" font-size="14.00" fill="#000000">description </text>
<text text-anchor="start" x="445.568" y="-396.9" font-family="Arial" font-size="14.00" fill="#666666">[longtext]</text>
<polygon fill="none" stroke="#000000" points="367,-355.5 367,-385.5 635,-385.5 635,-355.5 367,-355.5"/>
<text text-anchor="start" x="374" y="-366.9" font-family="Arial" font-size="14.00" fill="#000000">parent </text>
<text text-anchor="start" x="417.5722" y="-366.9" font-family="Arial" font-size="14.00" fill="#666666">[bigint(20) unsigned]</text>
<polygon fill="none" stroke="#000000" points="367,-325.5 367,-355.5 635,-355.5 635,-325.5 367,-325.5"/>
<text text-anchor="start" x="374" y="-336.9" font-family="Arial" font-size="14.00" fill="#000000">count </text>
<text text-anchor="start" x="412.129" y="-336.9" font-family="Arial" font-size="14.00" fill="#666666">[bigint(20)]</text>
</g>
<!-- wp_term_taxonomy&#45;&gt;wp_terms -->
<g id="edge2" class="edge">
<title>wp_term_taxonomy:term_id&#45;&gt;wp_terms:term_id</title>
<path fill="none" stroke="#000000" stroke-dasharray="5,2" d="M356.6862,-459.8025C291.9812,-450.4504 331.2411,-349.1437 367,-283 380.894,-257.3 408.106,-272.7 422,-247 442.3968,-209.2717 464.8889,-150.5 422,-150.5"/>
<polygon fill="#000000" stroke="#000000" points="357.0228,-459.8252 366.6963,-464.9897 362.0114,-460.1626 367,-460.5 367,-460.5 367,-460.5 362.0114,-460.1626 367.3037,-456.0103 357.0228,-459.8252 357.0228,-459.8252"/>
<text text-anchor="start" x="277.3245" y="-470.5" font-family="Arial" font-size="10.00" fill="#000000">Additional Relation</text>
</g>
</g>
</svg>
