<?xml version="1.0" encoding="UTF-8" standalone="no"?>
<!DOCTYPE svg PUBLIC "-//W3C//DTD SVG 1.1//EN"
 "http://www.w3.org/Graphics/SVG/1.1/DTD/svg11.dtd">
<!-- Generated by graphviz version 2.40.1 (20161225.0304)
 -->
<!-- Title: wp_term_taxonomy Pages: 1 -->
<svg width="368pt" height="315pt"
 viewBox="0.00 0.00 368.00 315.00" xmlns="http://www.w3.org/2000/svg" xmlns:xlink="http://www.w3.org/1999/xlink">
<g id="graph0" class="graph" transform="scale(1 1) rotate(0) translate(4 311)">
<title>wp_term_taxonomy</title>
<polygon fill="#ffffff" stroke="transparent" points="-4,4 -4,-311 364,-311 364,4 -4,4"/>
<!-- wp_term_taxonomy -->
<g id="node1" class="node">
<title>wp_term_taxonomy</title>
<polygon fill="#efefef" stroke="transparent" points="46,-225.5 46,-260.5 314,-260.5 314,-225.5 46,-225.5"/>
<polygon fill="none" stroke="#000000" points="46,-225.5 46,-260.5 314,-260.5 314,-225.5 46,-225.5"/>
<text text-anchor="start" x="52.8607" y="-238.3" font-family="Arial Bold" font-size="18.00" fill="#000000">wp_term_taxonomy</text>
<text text-anchor="start" x="209.8855" y="-238.3" font-family="Arial" font-size="14.00" fill="#000000"> </text>
<text text-anchor="start" x="213.7761" y="-238.3" font-family="Arial" font-size="14.00" fill="#666666">[BASE TABLE]</text>
<polygon fill="none" stroke="#000000" points="46,-195.5 46,-225.5 314,-225.5 314,-195.5 46,-195.5"/>
<text text-anchor="start" x="53" y="-206.9" font-family="Arial" font-size="14.00" fill="#000000">term_taxonomy_id </text>
<text text-anchor="start" x="172.021" y="-206.9" font-family="Arial" font-size="14.00" fill="#666666">[bigint(20) unsigned]</text>
<polygon fill="none" stroke="#000000" points="46,-165.5 46,-195.5 314,-195.5 314,-165.5 46,-165.5"/>
<text text-anchor="start" x="53" y="-176.9" font-family="Arial" font-size="14.00" fill="#000000">term_id </text>
<text text-anchor="start" x="103.5568" y="-176.9" font-family="Arial" font-size="14.00" fill="#666666">[bigint(20) unsigned]</text>
<polygon fill="none" stroke="#000000" points="46,-135.5 46,-165.5 314,-165.5 314,-135.5 46,-135.5"/>
<text text-anchor="start" x="53" y="-146.9" font-family="Arial" font-size="14.00" fill="#000000">taxonomy </text>
<text text-anchor="start" x="117.5722" y="-146.9" font-family="Arial" font-size="14.00" fill="#666666">[varchar(32)]</text>
<polygon fill="none" stroke="#000000" points="46,-105.5 46,-135.5 314,-135.5 314,-105.5 46,-105.5"/>
<text text-anchor="start" x="53" y="-116.9" font-family="Arial" font-size="14.00" fill="#000000">description </text>
<text text-anchor="start" x="124.568" y="-116.9" font-family="Arial" font-size="14.00" fill="#666666">[longtext]</text>
<polygon fill="none" stroke="#000000" points="46,-75.5 46,-105.5 314,-105.5 314,-75.5 46,-75.5"/>
<text text-anchor="start" x="53" y="-86.9" font-family="Arial" font-size="14.00" fill="#000000">parent </text>
<text text-anchor="start" x="96.5722" y="-86.9" font-family="Arial" font-size="14.00" fill="#666666">[bigint(20) unsigned]</text>
<polygon fill="none" stroke="#000000" points="46,-45.5 46,-75.5 314,-75.5 314,-45.5 46,-45.5"/>
<text text-anchor="start" x="53" y="-56.9" font-family="Arial" font-size="14.00" fill="#000000">count </text>
<text text-anchor="start" x="91.129" y="-56.9" font-family="Arial" font-size="14.00" fill="#666666">[bigint(20)]</text>
<polygon fill="none" stroke="#000000" stroke-width="3" points="44.5,-44.5 44.5,-262.5 315.5,-262.5 315.5,-44.5 44.5,-44.5"/>
</g>
</g>
</svg>
