<?xml version="1.0" encoding="UTF-8" standalone="no"?>
<!DOCTYPE svg PUBLIC "-//W3C//DTD SVG 1.1//EN"
 "http://www.w3.org/Graphics/SVG/1.1/DTD/svg11.dtd">
<!-- Generated by graphviz version 2.40.1 (20161225.0304)
 -->
<!-- Title: wp_termmeta Pages: 1 -->
<svg width="371pt" height="532pt"
 viewBox="0.00 0.00 371.00 532.00" xmlns="http://www.w3.org/2000/svg" xmlns:xlink="http://www.w3.org/1999/xlink">
<g id="graph0" class="graph" transform="scale(1 1) rotate(0) translate(4 528)">
<title>wp_termmeta</title>
<polygon fill="#ffffff" stroke="transparent" points="-4,4 -4,-528 367,-528 367,4 -4,4"/>
<!-- wp_termmeta -->
<g id="node1" class="node">
<title>wp_termmeta</title>
<polygon fill="#efefef" stroke="transparent" points="97,-442.5 97,-477.5 317,-477.5 317,-442.5 97,-442.5"/>
<polygon fill="none" stroke="#000000" points="97,-442.5 97,-477.5 317,-477.5 317,-442.5 97,-442.5"/>
<text text-anchor="start" x="103.87" y="-455.3" font-family="Arial Bold" font-size="18.00" fill="#000000">wp_termmeta</text>
<text text-anchor="start" x="212.8762" y="-455.3" font-family="Arial" font-size="14.00" fill="#000000"> </text>
<text text-anchor="start" x="216.7668" y="-455.3" font-family="Arial" font-size="14.00" fill="#666666">[BASE TABLE]</text>
<polygon fill="none" stroke="#000000" points="97,-412.5 97,-442.5 317,-442.5 317,-412.5 97,-412.5"/>
<text text-anchor="start" x="104" y="-423.9" font-family="Arial" font-size="14.00" fill="#000000">meta_id </text>
<text text-anchor="start" x="157.6788" y="-423.9" font-family="Arial" font-size="14.00" fill="#666666">[bigint(20) unsigned]</text>
<polygon fill="none" stroke="#000000" points="97,-382.5 97,-412.5 317,-412.5 317,-382.5 97,-382.5"/>
<text text-anchor="start" x="104" y="-393.9" font-family="Arial" font-size="14.00" fill="#000000">term_id </text>
<text text-anchor="start" x="154.5568" y="-393.9" font-family="Arial" font-size="14.00" fill="#666666">[bigint(20) unsigned]</text>
<polygon fill="none" stroke="#000000" points="97,-352.5 97,-382.5 317,-382.5 317,-352.5 97,-352.5"/>
<text text-anchor="start" x="104" y="-363.9" font-family="Arial" font-size="14.00" fill="#000000">meta_key </text>
<text text-anchor="start" x="168.5722" y="-363.9" font-family="Arial" font-size="14.00" fill="#666666">[varchar(255)]</text>
<polygon fill="none" stroke="#000000" points="97,-322.5 97,-352.5 317,-352.5 317,-322.5 97,-322.5"/>
<text text-anchor="start" x="104" y="-333.9" font-family="Arial" font-size="14.00" fill="#000000">meta_value </text>
<text text-anchor="start" x="180.244" y="-333.9" font-family="Arial" font-size="14.00" fill="#666666">[longtext]</text>
<polygon fill="none" stroke="#000000" stroke-width="3" points="95.5,-321.5 95.5,-479.5 318.5,-479.5 318.5,-321.5 95.5,-321.5"/>
</g>
<!-- wp_terms -->
<g id="node2" class="node">
<title>wp_terms</title>
<polygon fill="#efefef" stroke="transparent" points="111,-162.5 111,-197.5 302,-197.5 302,-162.5 111,-162.5"/>
<polygon fill="none" stroke="#000000" points="111,-162.5 111,-197.5 302,-197.5 302,-162.5 111,-162.5"/>
<text text-anchor="start" x="118.8734" y="-175.3" font-family="Arial Bold" font-size="18.00" fill="#000000">wp_terms</text>
<text text-anchor="start" x="196.8728" y="-175.3" font-family="Arial" font-size="14.00" fill="#000000"> </text>
<text text-anchor="start" x="200.7634" y="-175.3" font-family="Arial" font-size="14.00" fill="#666666">[BASE TABLE]</text>
<polygon fill="none" stroke="#000000" points="111,-132.5 111,-162.5 302,-162.5 302,-132.5 111,-132.5"/>
<text text-anchor="start" x="117.8156" y="-143.9" font-family="Arial" font-size="14.00" fill="#000000">term_id </text>
<text text-anchor="start" x="168.3724" y="-143.9" font-family="Arial" font-size="14.00" fill="#666666">[bigint(20) unsigned]</text>
<polygon fill="none" stroke="#000000" points="111,-102.5 111,-132.5 302,-132.5 302,-102.5 111,-102.5"/>
<text text-anchor="start" x="118" y="-113.9" font-family="Arial" font-size="14.00" fill="#000000">name </text>
<text text-anchor="start" x="156.899" y="-113.9" font-family="Arial" font-size="14.00" fill="#666666">[varchar(200)]</text>
<polygon fill="none" stroke="#000000" points="111,-72.5 111,-102.5 302,-102.5 302,-72.5 111,-72.5"/>
<text text-anchor="start" x="118" y="-83.9" font-family="Arial" font-size="14.00" fill="#000000">slug </text>
<text text-anchor="start" x="147.5624" y="-83.9" font-family="Arial" font-size="14.00" fill="#666666">[varchar(200)]</text>
<polygon fill="none" stroke="#000000" points="111,-42.5 111,-72.5 302,-72.5 302,-42.5 111,-42.5"/>
<text text-anchor="start" x="118" y="-53.9" font-family="Arial" font-size="14.00" fill="#000000">term_group </text>
<text text-anchor="start" x="193.4586" y="-53.9" font-family="Arial" font-size="14.00" fill="#666666">[bigint(10)]</text>
</g>
<!-- wp_termmeta&#45;&gt;wp_terms -->
<g id="edge1" class="edge">
<title>wp_termmeta:term_id&#45;&gt;wp_terms:term_id</title>
<path fill="none" stroke="#000000" stroke-dasharray="5,2" d="M87.0174,-396.4234C46.1296,-386.8125 64.9151,-315.2103 97,-277 156.4859,-206.1575 242.5141,-311.8425 302,-241 328.7225,-209.1759 343.5556,-147.5 302,-147.5"/>
<polygon fill="#000000" stroke="#000000" points="87.0577,-396.4276 96.5174,-401.9741 92.0288,-396.9638 97,-397.5 97,-397.5 97,-397.5 92.0288,-396.9638 97.4826,-393.0259 87.0577,-396.4276 87.0577,-396.4276"/>
<text text-anchor="start" x="7.3245" y="-407.5" font-family="Arial" font-size="10.00" fill="#000000">Additional Relation</text>
</g>
</g>
</svg>
