<?xml version="1.0" encoding="UTF-8" standalone="no"?>
<!DOCTYPE svg PUBLIC "-//W3C//DTD SVG 1.1//EN"
 "http://www.w3.org/Graphics/SVG/1.1/DTD/svg11.dtd">
<!-- Generated by graphviz version 2.40.1 (20161225.0304)
 -->
<!-- Title: wp_termmeta Pages: 1 -->
<svg width="320pt" height="255pt"
 viewBox="0.00 0.00 320.00 255.00" xmlns="http://www.w3.org/2000/svg" xmlns:xlink="http://www.w3.org/1999/xlink">
<g id="graph0" class="graph" transform="scale(1 1) rotate(0) translate(4 251)">
<title>wp_termmeta</title>
<polygon fill="#ffffff" stroke="transparent" points="-4,4 -4,-251 316,-251 316,4 -4,4"/>
<!-- wp_termmeta -->
<g id="node1" class="node">
<title>wp_termmeta</title>
<polygon fill="#efefef" stroke="transparent" points="46,-165.5 46,-200.5 266,-200.5 266,-165.5 46,-165.5"/>
<polygon fill="none" stroke="#000000" points="46,-165.5 46,-200.5 266,-200.5 266,-165.5 46,-165.5"/>
<text text-anchor="start" x="52.87" y="-178.3" font-family="Arial Bold" font-size="18.00" fill="#000000">wp_termmeta</text>
<text text-anchor="start" x="161.8762" y="-178.3" font-family="Arial" font-size="14.00" fill="#000000"> </text>
<text text-anchor="start" x="165.7668" y="-178.3" font-family="Arial" font-size="14.00" fill="#666666">[BASE TABLE]</text>
<polygon fill="none" stroke="#000000" points="46,-135.5 46,-165.5 266,-165.5 266,-135.5 46,-135.5"/>
<text text-anchor="start" x="53" y="-146.9" font-family="Arial" font-size="14.00" fill="#000000">meta_id </text>
<text text-anchor="start" x="106.6788" y="-146.9" font-family="Arial" font-size="14.00" fill="#666666">[bigint(20) unsigned]</text>
<polygon fill="none" stroke="#000000" points="46,-105.5 46,-135.5 266,-135.5 266,-105.5 46,-105.5"/>
<text text-anchor="start" x="53" y="-116.9" font-family="Arial" font-size="14.00" fill="#000000">term_id </text>
<text text-anchor="start" x="103.5568" y="-116.9" font-family="Arial" font-size="14.00" fill="#666666">[bigint(20) unsigned]</text>
<polygon fill="none" stroke="#000000" points="46,-75.5 46,-105.5 266,-105.5 266,-75.5 46,-75.5"/>
<text text-anchor="start" x="53" y="-86.9" font-family="Arial" font-size="14.00" fill="#000000">meta_key </text>
<text text-anchor="start" x="117.5722" y="-86.9" font-family="Arial" font-size="14.00" fill="#666666">[varchar(255)]</text>
<polygon fill="none" stroke="#000000" points="46,-45.5 46,-75.5 266,-75.5 266,-45.5 46,-45.5"/>
<text text-anchor="start" x="53" y="-56.9" font-family="Arial" font-size="14.00" fill="#000000">meta_value </text>
<text text-anchor="start" x="129.244" y="-56.9" font-family="Arial" font-size="14.00" fill="#666666">[longtext]</text>
<polygon fill="none" stroke="#000000" stroke-width="3" points="44.5,-44.5 44.5,-202.5 267.5,-202.5 267.5,-44.5 44.5,-44.5"/>
</g>
</g>
</svg>
