<?xml version="1.0" encoding="UTF-8" standalone="no"?>
<!DOCTYPE svg PUBLIC "-//W3C//DTD SVG 1.1//EN"
 "http://www.w3.org/Graphics/SVG/1.1/DTD/svg11.dtd">
<!-- Generated by graphviz version 2.40.1 (20161225.0304)
 -->
<!-- Title: wp_usermeta Pages: 1 -->
<svg width="371pt" height="712pt"
 viewBox="0.00 0.00 371.00 712.00" xmlns="http://www.w3.org/2000/svg" xmlns:xlink="http://www.w3.org/1999/xlink">
<g id="graph0" class="graph" transform="scale(1 1) rotate(0) translate(4 708)">
<title>wp_usermeta</title>
<polygon fill="#ffffff" stroke="transparent" points="-4,4 -4,-708 367,-708 367,4 -4,4"/>
<!-- wp_usermeta -->
<g id="node1" class="node">
<title>wp_usermeta</title>
<polygon fill="#efefef" stroke="transparent" points="47,-622.5 47,-657.5 266,-657.5 266,-622.5 47,-622.5"/>
<polygon fill="none" stroke="#000000" points="47,-622.5 47,-657.5 266,-657.5 266,-622.5 47,-622.5"/>
<text text-anchor="start" x="53.8641" y="-635.3" font-family="Arial Bold" font-size="18.00" fill="#000000">wp_usermeta</text>
<text text-anchor="start" x="161.8821" y="-635.3" font-family="Arial" font-size="14.00" fill="#000000"> </text>
<text text-anchor="start" x="165.7727" y="-635.3" font-family="Arial" font-size="14.00" fill="#666666">[BASE TABLE]</text>
<polygon fill="none" stroke="#000000" points="47,-592.5 47,-622.5 266,-622.5 266,-592.5 47,-592.5"/>
<text text-anchor="start" x="54" y="-603.9" font-family="Arial" font-size="14.00" fill="#000000">umeta_id </text>
<text text-anchor="start" x="115.4614" y="-603.9" font-family="Arial" font-size="14.00" fill="#666666">[bigint(20) unsigned]</text>
<polygon fill="none" stroke="#000000" points="47,-562.5 47,-592.5 266,-592.5 266,-562.5 47,-562.5"/>
<text text-anchor="start" x="54" y="-573.9" font-family="Arial" font-size="14.00" fill="#000000">user_id </text>
<text text-anchor="start" x="103.7882" y="-573.9" font-family="Arial" font-size="14.00" fill="#666666">[bigint(20) unsigned]</text>
<polygon fill="none" stroke="#000000" points="47,-532.5 47,-562.5 266,-562.5 266,-532.5 47,-532.5"/>
<text text-anchor="start" x="54" y="-543.9" font-family="Arial" font-size="14.00" fill="#000000">meta_key </text>
<text text-anchor="start" x="118.5722" y="-543.9" font-family="Arial" font-size="14.00" fill="#666666">[varchar(255)]</text>
<polygon fill="none" stroke="#000000" points="47,-502.5 47,-532.5 266,-532.5 266,-502.5 47,-502.5"/>
<text text-anchor="start" x="54" y="-513.9" font-family="Arial" font-size="14.00" fill="#000000">meta_value </text>
<text text-anchor="start" x="130.244" y="-513.9" font-family="Arial" font-size="14.00" fill="#666666">[longtext]</text>
<polygon fill="none" stroke="#000000" stroke-width="3" points="45,-501.5 45,-659.5 267,-659.5 267,-501.5 45,-501.5"/>
</g>
<!-- wp_users -->
<g id="node2" class="node">
<title>wp_users</title>
<polygon fill="#efefef" stroke="transparent" points="43,-342.5 43,-377.5 271,-377.5 271,-342.5 43,-342.5"/>
<polygon fill="none" stroke="#000000" points="43,-342.5 43,-377.5 271,-377.5 271,-342.5 43,-342.5"/>
<text text-anchor="start" x="69.8675" y="-355.3" font-family="Arial Bold" font-size="18.00" fill="#000000">wp_users</text>
<text text-anchor="start" x="146.8787" y="-355.3" font-family="Arial" font-size="14.00" fill="#000000"> </text>
<text text-anchor="start" x="150.7693" y="-355.3" font-family="Arial" font-size="14.00" fill="#666666">[BASE TABLE]</text>
<polygon fill="none" stroke="#000000" points="43,-312.5 43,-342.5 271,-342.5 271,-312.5 43,-312.5"/>
<text text-anchor="start" x="50" y="-323.9" font-family="Arial" font-size="14.00" fill="#000000">ID </text>
<text text-anchor="start" x="67.8878" y="-323.9" font-family="Arial" font-size="14.00" fill="#666666">[bigint(20) unsigned]</text>
<polygon fill="none" stroke="#000000" points="43,-282.5 43,-312.5 271,-312.5 271,-282.5 43,-282.5"/>
<text text-anchor="start" x="50" y="-293.9" font-family="Arial" font-size="14.00" fill="#000000">user_login </text>
<text text-anchor="start" x="118.46" y="-293.9" font-family="Arial" font-size="14.00" fill="#666666">[varchar(60)]</text>
<polygon fill="none" stroke="#000000" points="43,-252.5 43,-282.5 271,-282.5 271,-252.5 43,-252.5"/>
<text text-anchor="start" x="50" y="-263.9" font-family="Arial" font-size="14.00" fill="#000000">user_pass </text>
<text text-anchor="start" x="118.4642" y="-263.9" font-family="Arial" font-size="14.00" fill="#666666">[varchar(255)]</text>
<polygon fill="none" stroke="#000000" points="43,-222.5 43,-252.5 271,-252.5 271,-222.5 43,-222.5"/>
<text text-anchor="start" x="50" y="-233.9" font-family="Arial" font-size="14.00" fill="#000000">user_nicename </text>
<text text-anchor="start" x="149.5792" y="-233.9" font-family="Arial" font-size="14.00" fill="#666666">[varchar(50)]</text>
<polygon fill="none" stroke="#000000" points="43,-192.5 43,-222.5 271,-222.5 271,-192.5 43,-192.5"/>
<text text-anchor="start" x="50" y="-203.9" font-family="Arial" font-size="14.00" fill="#000000">user_email </text>
<text text-anchor="start" x="122.338" y="-203.9" font-family="Arial" font-size="14.00" fill="#666666">[varchar(100)]</text>
<polygon fill="none" stroke="#000000" points="43,-162.5 43,-192.5 271,-192.5 271,-162.5 43,-162.5"/>
<text text-anchor="start" x="50" y="-173.9" font-family="Arial" font-size="14.00" fill="#000000">user_url </text>
<text text-anchor="start" x="104.4488" y="-173.9" font-family="Arial" font-size="14.00" fill="#666666">[varchar(100)]</text>
<polygon fill="none" stroke="#000000" points="43,-132.5 43,-162.5 271,-162.5 271,-132.5 43,-132.5"/>
<text text-anchor="start" x="50" y="-143.9" font-family="Arial" font-size="14.00" fill="#000000">user_registered </text>
<text text-anchor="start" x="151.1304" y="-143.9" font-family="Arial" font-size="14.00" fill="#666666">[datetime]</text>
<polygon fill="none" stroke="#000000" points="43,-102.5 43,-132.5 271,-132.5 271,-102.5 43,-102.5"/>
<text text-anchor="start" x="49.6459" y="-113.9" font-family="Arial" font-size="14.00" fill="#000000">user_activation_key </text>
<text text-anchor="start" x="177.2349" y="-113.9" font-family="Arial" font-size="14.00" fill="#666666">[varchar(255)]</text>
<polygon fill="none" stroke="#000000" points="43,-72.5 43,-102.5 271,-102.5 271,-72.5 43,-72.5"/>
<text text-anchor="start" x="50" y="-83.9" font-family="Arial" font-size="14.00" fill="#000000">user_status </text>
<text text-anchor="start" x="126.2454" y="-83.9" font-family="Arial" font-size="14.00" fill="#666666">[int(11)]</text>
<polygon fill="none" stroke="#000000" points="43,-42.5 43,-72.5 271,-72.5 271,-42.5 43,-42.5"/>
<text text-anchor="start" x="50" y="-53.9" font-family="Arial" font-size="14.00" fill="#000000">display_name </text>
<text text-anchor="start" x="140.2426" y="-53.9" font-family="Arial" font-size="14.00" fill="#666666">[varchar(250)]</text>
</g>
<!-- wp_usermeta&#45;&gt;wp_users -->
<g id="edge1" class="edge">
<title>wp_usermeta:user_id&#45;&gt;wp_users:ID</title>
<path fill="none" stroke="#000000" stroke-dasharray="5,2" d="M275.9863,-576.4203C316.9063,-566.7822 298.3474,-494.9882 266,-457 200.9127,-380.5627 108.0873,-497.4373 43,-421 16.0589,-389.3608 1.4444,-327.5 43,-327.5"/>
<polygon fill="#000000" stroke="#000000" points="275.9421,-576.4249 265.5162,-573.0261 270.971,-576.9625 266,-577.5 266,-577.5 266,-577.5 270.971,-576.9625 266.4838,-581.9739 275.9421,-576.4249 275.9421,-576.4249"/>
<text text-anchor="start" x="273.3245" y="-587.5" font-family="Arial" font-size="10.00" fill="#000000">Additional Relation</text>
</g>
</g>
</svg>
