<?xml version="1.0" encoding="UTF-8" standalone="no"?>
<!DOCTYPE svg PUBLIC "-//W3C//DTD SVG 1.1//EN"
 "http://www.w3.org/Graphics/SVG/1.1/DTD/svg11.dtd">
<!-- Generated by graphviz version 2.40.1 (20161225.0304)
 -->
<!-- Title: wp_users Pages: 1 -->
<svg width="998pt" height="1282pt"
 viewBox="0.00 0.00 997.50 1282.00" xmlns="http://www.w3.org/2000/svg" xmlns:xlink="http://www.w3.org/1999/xlink">
<g id="graph0" class="graph" transform="scale(1 1) rotate(0) translate(4 1278)">
<title>wp_users</title>
<polygon fill="#ffffff" stroke="transparent" points="-4,4 -4,-1278 993.5,-1278 993.5,4 -4,4"/>
<!-- wp_users -->
<g id="node1" class="node">
<title>wp_users</title>
<polygon fill="#efefef" stroke="transparent" points="380,-345.5 380,-380.5 608,-380.5 608,-345.5 380,-345.5"/>
<polygon fill="none" stroke="#000000" points="380,-345.5 380,-380.5 608,-380.5 608,-345.5 380,-345.5"/>
<text text-anchor="start" x="406.8675" y="-358.3" font-family="Arial Bold" font-size="18.00" fill="#000000">wp_users</text>
<text text-anchor="start" x="483.8787" y="-358.3" font-family="Arial" font-size="14.00" fill="#000000"> </text>
<text text-anchor="start" x="487.7693" y="-358.3" font-family="Arial" font-size="14.00" fill="#666666">[BASE TABLE]</text>
<polygon fill="none" stroke="#000000" points="380,-315.5 380,-345.5 608,-345.5 608,-315.5 380,-315.5"/>
<text text-anchor="start" x="387" y="-326.9" font-family="Arial" font-size="14.00" fill="#000000">ID </text>
<text text-anchor="start" x="404.8878" y="-326.9" font-family="Arial" font-size="14.00" fill="#666666">[bigint(20) unsigned]</text>
<polygon fill="none" stroke="#000000" points="380,-285.5 380,-315.5 608,-315.5 608,-285.5 380,-285.5"/>
<text text-anchor="start" x="387" y="-296.9" font-family="Arial" font-size="14.00" fill="#000000">user_login </text>
<text text-anchor="start" x="455.46" y="-296.9" font-family="Arial" font-size="14.00" fill="#666666">[varchar(60)]</text>
<polygon fill="none" stroke="#000000" points="380,-255.5 380,-285.5 608,-285.5 608,-255.5 380,-255.5"/>
<text text-anchor="start" x="387" y="-266.9" font-family="Arial" font-size="14.00" fill="#000000">user_pass </text>
<text text-anchor="start" x="455.4642" y="-266.9" font-family="Arial" font-size="14.00" fill="#666666">[varchar(255)]</text>
<polygon fill="none" stroke="#000000" points="380,-225.5 380,-255.5 608,-255.5 608,-225.5 380,-225.5"/>
<text text-anchor="start" x="387" y="-236.9" font-family="Arial" font-size="14.00" fill="#000000">user_nicename </text>
<text text-anchor="start" x="486.5792" y="-236.9" font-family="Arial" font-size="14.00" fill="#666666">[varchar(50)]</text>
<polygon fill="none" stroke="#000000" points="380,-195.5 380,-225.5 608,-225.5 608,-195.5 380,-195.5"/>
<text text-anchor="start" x="387" y="-206.9" font-family="Arial" font-size="14.00" fill="#000000">user_email </text>
<text text-anchor="start" x="459.338" y="-206.9" font-family="Arial" font-size="14.00" fill="#666666">[varchar(100)]</text>
<polygon fill="none" stroke="#000000" points="380,-165.5 380,-195.5 608,-195.5 608,-165.5 380,-165.5"/>
<text text-anchor="start" x="387" y="-176.9" font-family="Arial" font-size="14.00" fill="#000000">user_url </text>
<text text-anchor="start" x="441.4488" y="-176.9" font-family="Arial" font-size="14.00" fill="#666666">[varchar(100)]</text>
<polygon fill="none" stroke="#000000" points="380,-135.5 380,-165.5 608,-165.5 608,-135.5 380,-135.5"/>
<text text-anchor="start" x="387" y="-146.9" font-family="Arial" font-size="14.00" fill="#000000">user_registered </text>
<text text-anchor="start" x="488.1304" y="-146.9" font-family="Arial" font-size="14.00" fill="#666666">[datetime]</text>
<polygon fill="none" stroke="#000000" points="380,-105.5 380,-135.5 608,-135.5 608,-105.5 380,-105.5"/>
<text text-anchor="start" x="386.6459" y="-116.9" font-family="Arial" font-size="14.00" fill="#000000">user_activation_key </text>
<text text-anchor="start" x="514.2349" y="-116.9" font-family="Arial" font-size="14.00" fill="#666666">[varchar(255)]</text>
<polygon fill="none" stroke="#000000" points="380,-75.5 380,-105.5 608,-105.5 608,-75.5 380,-75.5"/>
<text text-anchor="start" x="387" y="-86.9" font-family="Arial" font-size="14.00" fill="#000000">user_status </text>
<text text-anchor="start" x="463.2454" y="-86.9" font-family="Arial" font-size="14.00" fill="#666666">[int(11)]</text>
<polygon fill="none" stroke="#000000" points="380,-45.5 380,-75.5 608,-75.5 608,-45.5 380,-45.5"/>
<text text-anchor="start" x="387" y="-56.9" font-family="Arial" font-size="14.00" fill="#000000">display_name </text>
<text text-anchor="start" x="477.2426" y="-56.9" font-family="Arial" font-size="14.00" fill="#666666">[varchar(250)]</text>
<polygon fill="none" stroke="#000000" stroke-width="3" points="378.5,-44.5 378.5,-382.5 609.5,-382.5 609.5,-44.5 378.5,-44.5"/>
</g>
<!-- wp_posts -->
<g id="node2" class="node">
<title>wp_posts</title>
<polygon fill="#efefef" stroke="transparent" points="43,-1195.5 43,-1230.5 261,-1230.5 261,-1195.5 43,-1195.5"/>
<polygon fill="none" stroke="#000000" points="43,-1195.5 43,-1230.5 261,-1230.5 261,-1195.5 43,-1195.5"/>
<text text-anchor="start" x="65.3625" y="-1208.3" font-family="Arial Bold" font-size="18.00" fill="#000000">wp_posts</text>
<text text-anchor="start" x="141.3837" y="-1208.3" font-family="Arial" font-size="14.00" fill="#000000"> </text>
<text text-anchor="start" x="145.2743" y="-1208.3" font-family="Arial" font-size="14.00" fill="#666666">[BASE TABLE]</text>
<polygon fill="none" stroke="#000000" points="43,-1165.5 43,-1195.5 261,-1195.5 261,-1165.5 43,-1165.5"/>
<text text-anchor="start" x="50" y="-1176.9" font-family="Arial" font-size="14.00" fill="#000000">ID </text>
<text text-anchor="start" x="67.8878" y="-1176.9" font-family="Arial" font-size="14.00" fill="#666666">[bigint(20) unsigned]</text>
<polygon fill="none" stroke="#000000" points="43,-1135.5 43,-1165.5 261,-1165.5 261,-1135.5 43,-1135.5"/>
<text text-anchor="start" x="49.6887" y="-1146.9" font-family="Arial" font-size="14.00" fill="#000000">post_author </text>
<text text-anchor="start" x="127.4993" y="-1146.9" font-family="Arial" font-size="14.00" fill="#666666">[bigint(20) unsigned]</text>
<polygon fill="none" stroke="#000000" points="43,-1105.5 43,-1135.5 261,-1135.5 261,-1105.5 43,-1105.5"/>
<text text-anchor="start" x="50" y="-1116.9" font-family="Arial" font-size="14.00" fill="#000000">post_date </text>
<text text-anchor="start" x="115.3674" y="-1116.9" font-family="Arial" font-size="14.00" fill="#666666">[datetime]</text>
<polygon fill="none" stroke="#000000" points="43,-1075.5 43,-1105.5 261,-1105.5 261,-1075.5 43,-1075.5"/>
<text text-anchor="start" x="50" y="-1086.9" font-family="Arial" font-size="14.00" fill="#000000">post_date_gmt </text>
<text text-anchor="start" x="146.4838" y="-1086.9" font-family="Arial" font-size="14.00" fill="#666666">[datetime]</text>
<polygon fill="none" stroke="#000000" points="43,-1045.5 43,-1075.5 261,-1075.5 261,-1045.5 43,-1045.5"/>
<text text-anchor="start" x="50" y="-1056.9" font-family="Arial" font-size="14.00" fill="#000000">post_content </text>
<text text-anchor="start" x="134.0406" y="-1056.9" font-family="Arial" font-size="14.00" fill="#666666">[longtext]</text>
<polygon fill="none" stroke="#000000" points="43,-1015.5 43,-1045.5 261,-1045.5 261,-1015.5 43,-1015.5"/>
<text text-anchor="start" x="50" y="-1026.9" font-family="Arial" font-size="14.00" fill="#000000">post_title </text>
<text text-anchor="start" x="109.906" y="-1026.9" font-family="Arial" font-size="14.00" fill="#666666">[text]</text>
<polygon fill="none" stroke="#000000" points="43,-985.5 43,-1015.5 261,-1015.5 261,-985.5 43,-985.5"/>
<text text-anchor="start" x="50" y="-996.9" font-family="Arial" font-size="14.00" fill="#000000">post_excerpt </text>
<text text-anchor="start" x="134.028" y="-996.9" font-family="Arial" font-size="14.00" fill="#666666">[text]</text>
<polygon fill="none" stroke="#000000" points="43,-955.5 43,-985.5 261,-985.5 261,-955.5 43,-955.5"/>
<text text-anchor="start" x="50" y="-966.9" font-family="Arial" font-size="14.00" fill="#000000">post_status </text>
<text text-anchor="start" x="125.4754" y="-966.9" font-family="Arial" font-size="14.00" fill="#666666">[varchar(20)]</text>
<polygon fill="none" stroke="#000000" points="43,-925.5 43,-955.5 261,-955.5 261,-925.5 43,-925.5"/>
<text text-anchor="start" x="50" y="-936.9" font-family="Arial" font-size="14.00" fill="#000000">comment_status </text>
<text text-anchor="start" x="156.5792" y="-936.9" font-family="Arial" font-size="14.00" fill="#666666">[varchar(20)]</text>
<polygon fill="none" stroke="#000000" points="43,-895.5 43,-925.5 261,-925.5 261,-895.5 43,-895.5"/>
<text text-anchor="start" x="50" y="-906.9" font-family="Arial" font-size="14.00" fill="#000000">ping_status </text>
<text text-anchor="start" x="125.474" y="-906.9" font-family="Arial" font-size="14.00" fill="#666666">[varchar(20)]</text>
<polygon fill="none" stroke="#000000" points="43,-865.5 43,-895.5 261,-895.5 261,-865.5 43,-865.5"/>
<text text-anchor="start" x="50" y="-876.9" font-family="Arial" font-size="14.00" fill="#000000">post_password </text>
<text text-anchor="start" x="148.0266" y="-876.9" font-family="Arial" font-size="14.00" fill="#666666">[varchar(255)]</text>
<polygon fill="none" stroke="#000000" points="43,-835.5 43,-865.5 261,-865.5 261,-835.5 43,-835.5"/>
<text text-anchor="start" x="50" y="-846.9" font-family="Arial" font-size="14.00" fill="#000000">post_name </text>
<text text-anchor="start" x="123.1374" y="-846.9" font-family="Arial" font-size="14.00" fill="#666666">[varchar(200)]</text>
<polygon fill="none" stroke="#000000" points="43,-805.5 43,-835.5 261,-835.5 261,-805.5 43,-805.5"/>
<text text-anchor="start" x="50" y="-816.9" font-family="Arial" font-size="14.00" fill="#000000">to_ping </text>
<text text-anchor="start" x="99.8008" y="-816.9" font-family="Arial" font-size="14.00" fill="#666666">[text]</text>
<polygon fill="none" stroke="#000000" points="43,-775.5 43,-805.5 261,-805.5 261,-775.5 43,-775.5"/>
<text text-anchor="start" x="50" y="-786.9" font-family="Arial" font-size="14.00" fill="#000000">pinged </text>
<text text-anchor="start" x="95.9102" y="-786.9" font-family="Arial" font-size="14.00" fill="#666666">[text]</text>
<polygon fill="none" stroke="#000000" points="43,-745.5 43,-775.5 261,-775.5 261,-745.5 43,-745.5"/>
<text text-anchor="start" x="50" y="-756.9" font-family="Arial" font-size="14.00" fill="#000000">post_modified </text>
<text text-anchor="start" x="141.0238" y="-756.9" font-family="Arial" font-size="14.00" fill="#666666">[datetime]</text>
<polygon fill="none" stroke="#000000" points="43,-715.5 43,-745.5 261,-745.5 261,-715.5 43,-715.5"/>
<text text-anchor="start" x="50" y="-726.9" font-family="Arial" font-size="14.00" fill="#000000">post_modified_gmt </text>
<text text-anchor="start" x="172.1402" y="-726.9" font-family="Arial" font-size="14.00" fill="#666666">[datetime]</text>
<polygon fill="none" stroke="#000000" points="43,-685.5 43,-715.5 261,-715.5 261,-685.5 43,-685.5"/>
<text text-anchor="start" x="50" y="-696.9" font-family="Arial" font-size="14.00" fill="#000000">post_content_filtered </text>
<text text-anchor="start" x="183.826" y="-696.9" font-family="Arial" font-size="14.00" fill="#666666">[longtext]</text>
<polygon fill="none" stroke="#000000" points="43,-655.5 43,-685.5 261,-685.5 261,-655.5 43,-655.5"/>
<text text-anchor="start" x="49.6887" y="-666.9" font-family="Arial" font-size="14.00" fill="#000000">post_parent </text>
<text text-anchor="start" x="127.4993" y="-666.9" font-family="Arial" font-size="14.00" fill="#666666">[bigint(20) unsigned]</text>
<polygon fill="none" stroke="#000000" points="43,-625.5 43,-655.5 261,-655.5 261,-625.5 43,-625.5"/>
<text text-anchor="start" x="50" y="-636.9" font-family="Arial" font-size="14.00" fill="#000000">guid </text>
<text text-anchor="start" x="80.345" y="-636.9" font-family="Arial" font-size="14.00" fill="#666666">[varchar(255)]</text>
<polygon fill="none" stroke="#000000" points="43,-595.5 43,-625.5 261,-625.5 261,-595.5 43,-595.5"/>
<text text-anchor="start" x="50" y="-606.9" font-family="Arial" font-size="14.00" fill="#000000">menu_order </text>
<text text-anchor="start" x="129.3506" y="-606.9" font-family="Arial" font-size="14.00" fill="#666666">[int(11)]</text>
<polygon fill="none" stroke="#000000" points="43,-565.5 43,-595.5 261,-595.5 261,-565.5 43,-565.5"/>
<text text-anchor="start" x="50" y="-576.9" font-family="Arial" font-size="14.00" fill="#000000">post_type </text>
<text text-anchor="start" x="114.5848" y="-576.9" font-family="Arial" font-size="14.00" fill="#666666">[varchar(20)]</text>
<polygon fill="none" stroke="#000000" points="43,-535.5 43,-565.5 261,-565.5 261,-535.5 43,-535.5"/>
<text text-anchor="start" x="50" y="-546.9" font-family="Arial" font-size="14.00" fill="#000000">post_mime_type </text>
<text text-anchor="start" x="156.5778" y="-546.9" font-family="Arial" font-size="14.00" fill="#666666">[varchar(100)]</text>
<polygon fill="none" stroke="#000000" points="43,-505.5 43,-535.5 261,-535.5 261,-505.5 43,-505.5"/>
<text text-anchor="start" x="50" y="-516.9" font-family="Arial" font-size="14.00" fill="#000000">comment_count </text>
<text text-anchor="start" x="153.4712" y="-516.9" font-family="Arial" font-size="14.00" fill="#666666">[bigint(20)]</text>
</g>
<!-- wp_posts&#45;&gt;wp_users -->
<g id="edge1" class="edge">
<title>wp_posts:post_author&#45;&gt;wp_users:ID</title>
<path fill="none" stroke="#000000" stroke-dasharray="5,2" d="M270.6037,-1146.8892C333.681,-1096.4519 293.3554,-533.4792 313,-463 330.7178,-399.4335 314.0105,-330.5 380,-330.5"/>
<polygon fill="#000000" stroke="#000000" points="270.3603,-1146.9807 259.4163,-1146.2879 265.6801,-1148.7404 261,-1150.5 261,-1150.5 261,-1150.5 265.6801,-1148.7404 262.5837,-1154.7121 270.3603,-1146.9807 270.3603,-1146.9807"/>
<text text-anchor="start" x="268.3245" y="-1160.5" font-family="Arial" font-size="10.00" fill="#000000">Additional Relation</text>
</g>
<!-- wp_comments -->
<g id="node3" class="node">
<title>wp_comments</title>
<polygon fill="#efefef" stroke="transparent" points="365,-1075.5 365,-1110.5 623,-1110.5 623,-1075.5 365,-1075.5"/>
<polygon fill="none" stroke="#000000" points="365,-1075.5 365,-1110.5 623,-1110.5 623,-1075.5 365,-1075.5"/>
<text text-anchor="start" x="387.3672" y="-1088.3" font-family="Arial Bold" font-size="18.00" fill="#000000">wp_comments</text>
<text text-anchor="start" x="503.379" y="-1088.3" font-family="Arial" font-size="14.00" fill="#000000"> </text>
<text text-anchor="start" x="507.2696" y="-1088.3" font-family="Arial" font-size="14.00" fill="#666666">[BASE TABLE]</text>
<polygon fill="none" stroke="#000000" points="365,-1045.5 365,-1075.5 623,-1075.5 623,-1045.5 365,-1045.5"/>
<text text-anchor="start" x="372" y="-1056.9" font-family="Arial" font-size="14.00" fill="#000000">comment_ID </text>
<text text-anchor="start" x="455.23" y="-1056.9" font-family="Arial" font-size="14.00" fill="#666666">[bigint(20) unsigned]</text>
<polygon fill="none" stroke="#000000" points="365,-1015.5 365,-1045.5 623,-1045.5 623,-1015.5 365,-1015.5"/>
<text text-anchor="start" x="371.8598" y="-1026.9" font-family="Arial" font-size="14.00" fill="#000000">comment_post_ID </text>
<text text-anchor="start" x="489.3282" y="-1026.9" font-family="Arial" font-size="14.00" fill="#666666">[bigint(20) unsigned]</text>
<polygon fill="none" stroke="#000000" points="365,-985.5 365,-1015.5 623,-1015.5 623,-985.5 365,-985.5"/>
<text text-anchor="start" x="372" y="-996.9" font-family="Arial" font-size="14.00" fill="#000000">comment_author </text>
<text text-anchor="start" x="480.9144" y="-996.9" font-family="Arial" font-size="14.00" fill="#666666">[tinytext]</text>
<polygon fill="none" stroke="#000000" points="365,-955.5 365,-985.5 623,-985.5 623,-955.5 365,-955.5"/>
<text text-anchor="start" x="372" y="-966.9" font-family="Arial" font-size="14.00" fill="#000000">comment_author_email </text>
<text text-anchor="start" x="522.136" y="-966.9" font-family="Arial" font-size="14.00" fill="#666666">[varchar(100)]</text>
<polygon fill="none" stroke="#000000" points="365,-925.5 365,-955.5 623,-955.5 623,-925.5 365,-925.5"/>
<text text-anchor="start" x="372" y="-936.9" font-family="Arial" font-size="14.00" fill="#000000">comment_author_url </text>
<text text-anchor="start" x="504.2468" y="-936.9" font-family="Arial" font-size="14.00" fill="#666666">[varchar(200)]</text>
<polygon fill="none" stroke="#000000" points="365,-895.5 365,-925.5 623,-925.5 623,-895.5 365,-895.5"/>
<text text-anchor="start" x="372" y="-906.9" font-family="Arial" font-size="14.00" fill="#000000">comment_author_IP </text>
<text text-anchor="start" x="501.9242" y="-906.9" font-family="Arial" font-size="14.00" fill="#666666">[varchar(100)]</text>
<polygon fill="none" stroke="#000000" points="365,-865.5 365,-895.5 623,-895.5 623,-865.5 365,-865.5"/>
<text text-anchor="start" x="372" y="-876.9" font-family="Arial" font-size="14.00" fill="#000000">comment_date </text>
<text text-anchor="start" x="468.4712" y="-876.9" font-family="Arial" font-size="14.00" fill="#666666">[datetime]</text>
<polygon fill="none" stroke="#000000" points="365,-835.5 365,-865.5 623,-865.5 623,-835.5 365,-835.5"/>
<text text-anchor="start" x="372" y="-846.9" font-family="Arial" font-size="14.00" fill="#000000">comment_date_gmt </text>
<text text-anchor="start" x="499.5876" y="-846.9" font-family="Arial" font-size="14.00" fill="#666666">[datetime]</text>
<polygon fill="none" stroke="#000000" points="365,-805.5 365,-835.5 623,-835.5 623,-805.5 365,-805.5"/>
<text text-anchor="start" x="372" y="-816.9" font-family="Arial" font-size="14.00" fill="#000000">comment_content </text>
<text text-anchor="start" x="487.1444" y="-816.9" font-family="Arial" font-size="14.00" fill="#666666">[text]</text>
<polygon fill="none" stroke="#000000" points="365,-775.5 365,-805.5 623,-805.5 623,-775.5 365,-775.5"/>
<text text-anchor="start" x="372" y="-786.9" font-family="Arial" font-size="14.00" fill="#000000">comment_karma </text>
<text text-anchor="start" x="480.1192" y="-786.9" font-family="Arial" font-size="14.00" fill="#666666">[int(11)]</text>
<polygon fill="none" stroke="#000000" points="365,-745.5 365,-775.5 623,-775.5 623,-745.5 365,-745.5"/>
<text text-anchor="start" x="372" y="-756.9" font-family="Arial" font-size="14.00" fill="#000000">comment_approved </text>
<text text-anchor="start" x="499.589" y="-756.9" font-family="Arial" font-size="14.00" fill="#666666">[varchar(20)]</text>
<polygon fill="none" stroke="#000000" points="365,-715.5 365,-745.5 623,-745.5 623,-715.5 365,-715.5"/>
<text text-anchor="start" x="372" y="-726.9" font-family="Arial" font-size="14.00" fill="#000000">comment_agent </text>
<text text-anchor="start" x="476.2538" y="-726.9" font-family="Arial" font-size="14.00" fill="#666666">[varchar(255)]</text>
<polygon fill="none" stroke="#000000" points="365,-685.5 365,-715.5 623,-715.5 623,-685.5 365,-685.5"/>
<text text-anchor="start" x="372" y="-696.9" font-family="Arial" font-size="14.00" fill="#000000">comment_type </text>
<text text-anchor="start" x="467.6886" y="-696.9" font-family="Arial" font-size="14.00" fill="#666666">[varchar(20)]</text>
<polygon fill="none" stroke="#000000" points="365,-655.5 365,-685.5 623,-685.5 623,-655.5 365,-655.5"/>
<text text-anchor="start" x="372" y="-666.9" font-family="Arial" font-size="14.00" fill="#000000">comment_parent </text>
<text text-anchor="start" x="480.9144" y="-666.9" font-family="Arial" font-size="14.00" fill="#666666">[bigint(20) unsigned]</text>
<polygon fill="none" stroke="#000000" points="365,-625.5 365,-655.5 623,-655.5 623,-625.5 365,-625.5"/>
<text text-anchor="start" x="372" y="-636.9" font-family="Arial" font-size="14.00" fill="#000000">user_id </text>
<text text-anchor="start" x="421.7882" y="-636.9" font-family="Arial" font-size="14.00" fill="#666666">[bigint(20) unsigned]</text>
</g>
<!-- wp_comments&#45;&gt;wp_users -->
<g id="edge2" class="edge">
<title>wp_comments:user_id&#45;&gt;wp_users:ID</title>
<path fill="none" stroke="#000000" stroke-dasharray="5,2" d="M494.3017,-615.4219C499.9287,-523.7521 582.6772,-521.9399 608,-427 619.0531,-385.5599 650.8889,-330.5 608,-330.5"/>
<polygon fill="#000000" stroke="#000000" points="494.2993,-615.5045 489.502,-625.3653 494.1497,-620.5022 494,-625.5 494,-625.5 494,-625.5 494.1497,-620.5022 498.498,-625.6347 494.2993,-615.5045 494.2993,-615.5045"/>
<text text-anchor="start" x="477.0745" y="-609.5" font-family="Arial" font-size="10.00" fill="#000000">Additional Relation</text>
</g>
<!-- wp_usermeta -->
<g id="node4" class="node">
<title>wp_usermeta</title>
<polygon fill="#efefef" stroke="transparent" points="728,-910.5 728,-945.5 947,-945.5 947,-910.5 728,-910.5"/>
<polygon fill="none" stroke="#000000" points="728,-910.5 728,-945.5 947,-945.5 947,-910.5 728,-910.5"/>
<text text-anchor="start" x="734.8641" y="-923.3" font-family="Arial Bold" font-size="18.00" fill="#000000">wp_usermeta</text>
<text text-anchor="start" x="842.8821" y="-923.3" font-family="Arial" font-size="14.00" fill="#000000"> </text>
<text text-anchor="start" x="846.7727" y="-923.3" font-family="Arial" font-size="14.00" fill="#666666">[BASE TABLE]</text>
<polygon fill="none" stroke="#000000" points="728,-880.5 728,-910.5 947,-910.5 947,-880.5 728,-880.5"/>
<text text-anchor="start" x="735" y="-891.9" font-family="Arial" font-size="14.00" fill="#000000">umeta_id </text>
<text text-anchor="start" x="796.4614" y="-891.9" font-family="Arial" font-size="14.00" fill="#666666">[bigint(20) unsigned]</text>
<polygon fill="none" stroke="#000000" points="728,-850.5 728,-880.5 947,-880.5 947,-850.5 728,-850.5"/>
<text text-anchor="start" x="735" y="-861.9" font-family="Arial" font-size="14.00" fill="#000000">user_id </text>
<text text-anchor="start" x="784.7882" y="-861.9" font-family="Arial" font-size="14.00" fill="#666666">[bigint(20) unsigned]</text>
<polygon fill="none" stroke="#000000" points="728,-820.5 728,-850.5 947,-850.5 947,-820.5 728,-820.5"/>
<text text-anchor="start" x="735" y="-831.9" font-family="Arial" font-size="14.00" fill="#000000">meta_key </text>
<text text-anchor="start" x="799.5722" y="-831.9" font-family="Arial" font-size="14.00" fill="#666666">[varchar(255)]</text>
<polygon fill="none" stroke="#000000" points="728,-790.5 728,-820.5 947,-820.5 947,-790.5 728,-790.5"/>
<text text-anchor="start" x="735" y="-801.9" font-family="Arial" font-size="14.00" fill="#000000">meta_value </text>
<text text-anchor="start" x="811.244" y="-801.9" font-family="Arial" font-size="14.00" fill="#666666">[longtext]</text>
</g>
<!-- wp_usermeta&#45;&gt;wp_users -->
<g id="edge3" class="edge">
<title>wp_usermeta:user_id&#45;&gt;wp_users:ID</title>
<path fill="none" stroke="#000000" stroke-dasharray="5,2" d="M717.6598,-863.9414C642.868,-839.9406 700.5297,-545.6638 675,-463 655.5275,-399.9489 673.9895,-330.5 608,-330.5"/>
<polygon fill="#000000" stroke="#000000" points="718.1117,-864.0094 727.3292,-869.9497 723.0559,-864.7547 728,-865.5 728,-865.5 728,-865.5 723.0559,-864.7547 728.6708,-861.0503 718.1117,-864.0094 718.1117,-864.0094"/>
<text text-anchor="start" x="638.3245" y="-875.5" font-family="Arial" font-size="10.00" fill="#000000">Additional Relation</text>
</g>
</g>
</svg>
