<?xml version="1.0" encoding="UTF-8" standalone="no"?>
<!DOCTYPE svg PUBLIC "-//W3C//DTD SVG 1.1//EN"
 "http://www.w3.org/Graphics/SVG/1.1/DTD/svg11.dtd">
<!-- Generated by graphviz version 2.40.1 (20161225.0304)
 -->
<!-- Title: wp_users Pages: 1 -->
<svg width="328pt" height="435pt"
 viewBox="0.00 0.00 328.00 435.00" xmlns="http://www.w3.org/2000/svg" xmlns:xlink="http://www.w3.org/1999/xlink">
<g id="graph0" class="graph" transform="scale(1 1) rotate(0) translate(4 431)">
<title>wp_users</title>
<polygon fill="#ffffff" stroke="transparent" points="-4,4 -4,-431 324,-431 324,4 -4,4"/>
<!-- wp_users -->
<g id="node1" class="node">
<title>wp_users</title>
<polygon fill="#efefef" stroke="transparent" points="46,-345.5 46,-380.5 274,-380.5 274,-345.5 46,-345.5"/>
<polygon fill="none" stroke="#000000" points="46,-345.5 46,-380.5 274,-380.5 274,-345.5 46,-345.5"/>
<text text-anchor="start" x="72.8675" y="-358.3" font-family="Arial Bold" font-size="18.00" fill="#000000">wp_users</text>
<text text-anchor="start" x="149.8787" y="-358.3" font-family="Arial" font-size="14.00" fill="#000000"> </text>
<text text-anchor="start" x="153.7693" y="-358.3" font-family="Arial" font-size="14.00" fill="#666666">[BASE TABLE]</text>
<polygon fill="none" stroke="#000000" points="46,-315.5 46,-345.5 274,-345.5 274,-315.5 46,-315.5"/>
<text text-anchor="start" x="53" y="-326.9" font-family="Arial" font-size="14.00" fill="#000000">ID </text>
<text text-anchor="start" x="70.8878" y="-326.9" font-family="Arial" font-size="14.00" fill="#666666">[bigint(20) unsigned]</text>
<polygon fill="none" stroke="#000000" points="46,-285.5 46,-315.5 274,-315.5 274,-285.5 46,-285.5"/>
<text text-anchor="start" x="53" y="-296.9" font-family="Arial" font-size="14.00" fill="#000000">user_login </text>
<text text-anchor="start" x="121.46" y="-296.9" font-family="Arial" font-size="14.00" fill="#666666">[varchar(60)]</text>
<polygon fill="none" stroke="#000000" points="46,-255.5 46,-285.5 274,-285.5 274,-255.5 46,-255.5"/>
<text text-anchor="start" x="53" y="-266.9" font-family="Arial" font-size="14.00" fill="#000000">user_pass </text>
<text text-anchor="start" x="121.4642" y="-266.9" font-family="Arial" font-size="14.00" fill="#666666">[varchar(255)]</text>
<polygon fill="none" stroke="#000000" points="46,-225.5 46,-255.5 274,-255.5 274,-225.5 46,-225.5"/>
<text text-anchor="start" x="53" y="-236.9" font-family="Arial" font-size="14.00" fill="#000000">user_nicename </text>
<text text-anchor="start" x="152.5792" y="-236.9" font-family="Arial" font-size="14.00" fill="#666666">[varchar(50)]</text>
<polygon fill="none" stroke="#000000" points="46,-195.5 46,-225.5 274,-225.5 274,-195.5 46,-195.5"/>
<text text-anchor="start" x="53" y="-206.9" font-family="Arial" font-size="14.00" fill="#000000">user_email </text>
<text text-anchor="start" x="125.338" y="-206.9" font-family="Arial" font-size="14.00" fill="#666666">[varchar(100)]</text>
<polygon fill="none" stroke="#000000" points="46,-165.5 46,-195.5 274,-195.5 274,-165.5 46,-165.5"/>
<text text-anchor="start" x="53" y="-176.9" font-family="Arial" font-size="14.00" fill="#000000">user_url </text>
<text text-anchor="start" x="107.4488" y="-176.9" font-family="Arial" font-size="14.00" fill="#666666">[varchar(100)]</text>
<polygon fill="none" stroke="#000000" points="46,-135.5 46,-165.5 274,-165.5 274,-135.5 46,-135.5"/>
<text text-anchor="start" x="53" y="-146.9" font-family="Arial" font-size="14.00" fill="#000000">user_registered </text>
<text text-anchor="start" x="154.1304" y="-146.9" font-family="Arial" font-size="14.00" fill="#666666">[datetime]</text>
<polygon fill="none" stroke="#000000" points="46,-105.5 46,-135.5 274,-135.5 274,-105.5 46,-105.5"/>
<text text-anchor="start" x="52.6459" y="-116.9" font-family="Arial" font-size="14.00" fill="#000000">user_activation_key </text>
<text text-anchor="start" x="180.2349" y="-116.9" font-family="Arial" font-size="14.00" fill="#666666">[varchar(255)]</text>
<polygon fill="none" stroke="#000000" points="46,-75.5 46,-105.5 274,-105.5 274,-75.5 46,-75.5"/>
<text text-anchor="start" x="53" y="-86.9" font-family="Arial" font-size="14.00" fill="#000000">user_status </text>
<text text-anchor="start" x="129.2454" y="-86.9" font-family="Arial" font-size="14.00" fill="#666666">[int(11)]</text>
<polygon fill="none" stroke="#000000" points="46,-45.5 46,-75.5 274,-75.5 274,-45.5 46,-45.5"/>
<text text-anchor="start" x="53" y="-56.9" font-family="Arial" font-size="14.00" fill="#000000">display_name </text>
<text text-anchor="start" x="143.2426" y="-56.9" font-family="Arial" font-size="14.00" fill="#666666">[varchar(250)]</text>
<polygon fill="none" stroke="#000000" stroke-width="3" points="44.5,-44.5 44.5,-382.5 275.5,-382.5 275.5,-44.5 44.5,-44.5"/>
</g>
</g>
</svg>
