<?xml version="1.0" encoding="UTF-8" standalone="no"?>
<!DOCTYPE svg PUBLIC "-//W3C//DTD SVG 1.1//EN"
 "http://www.w3.org/Graphics/SVG/1.1/DTD/svg11.dtd">
<!-- Generated by graphviz version 2.40.1 (20161225.0304)
 -->
<!-- Title: ChannelMembers Pages: 1 -->
<svg width="353pt" height="525pt"
 viewBox="0.00 0.00 353.00 525.00" xmlns="http://www.w3.org/2000/svg" xmlns:xlink="http://www.w3.org/1999/xlink">
<g id="graph0" class="graph" transform="scale(1 1) rotate(0) translate(4 521)">
<title>ChannelMembers</title>
<polygon fill="#ffffff" stroke="transparent" points="-4,4 -4,-521 349,-521 349,4 -4,4"/>
<!-- ChannelMembers -->
<g id="node1" class="node">
<title>ChannelMembers</title>
<polygon fill="#efefef" stroke="transparent" points="46.5,-435.5 46.5,-470.5 299.5,-470.5 299.5,-435.5 46.5,-435.5"/>
<polygon fill="none" stroke="#000000" points="46.5,-435.5 46.5,-470.5 299.5,-470.5 299.5,-435.5 46.5,-435.5"/>
<text text-anchor="start" x="53.3658" y="-448.3" font-family="Arial Bold" font-size="18.00" fill="#000000">ChannelMembers</text>
<text text-anchor="start" x="195.3804" y="-448.3" font-family="Arial" font-size="14.00" fill="#000000"> </text>
<text text-anchor="start" x="199.271" y="-448.3" font-family="Arial" font-size="14.00" fill="#666666">[BASE TABLE]</text>
<polygon fill="none" stroke="#000000" points="46.5,-405.5 46.5,-435.5 299.5,-435.5 299.5,-405.5 46.5,-405.5"/>
<text text-anchor="start" x="53.5" y="-416.9" font-family="Arial" font-size="14.00" fill="#000000">ChannelId </text>
<text text-anchor="start" x="121.19" y="-416.9" font-family="Arial" font-size="14.00" fill="#666666">[varchar(26)]</text>
<polygon fill="none" stroke="#000000" points="46.5,-375.5 46.5,-405.5 299.5,-405.5 299.5,-375.5 46.5,-375.5"/>
<text text-anchor="start" x="53.5" y="-386.9" font-family="Arial" font-size="14.00" fill="#000000">UserId </text>
<text text-anchor="start" x="98.6136" y="-386.9" font-family="Arial" font-size="14.00" fill="#666666">[varchar(26)]</text>
<polygon fill="none" stroke="#000000" points="46.5,-345.5 46.5,-375.5 299.5,-375.5 299.5,-345.5 46.5,-345.5"/>
<text text-anchor="start" x="53.5" y="-356.9" font-family="Arial" font-size="14.00" fill="#000000">Roles </text>
<text text-anchor="start" x="93.169" y="-356.9" font-family="Arial" font-size="14.00" fill="#666666">[text]</text>
<polygon fill="none" stroke="#000000" points="46.5,-315.5 46.5,-345.5 299.5,-345.5 299.5,-315.5 46.5,-315.5"/>
<text text-anchor="start" x="53.5" y="-326.9" font-family="Arial" font-size="14.00" fill="#000000">LastViewedAt </text>
<text text-anchor="start" x="142.9712" y="-326.9" font-family="Arial" font-size="14.00" fill="#666666">[bigint(20)]</text>
<polygon fill="none" stroke="#000000" points="46.5,-285.5 46.5,-315.5 299.5,-315.5 299.5,-285.5 46.5,-285.5"/>
<text text-anchor="start" x="53.5" y="-296.9" font-family="Arial" font-size="14.00" fill="#000000">MsgCount </text>
<text text-anchor="start" x="121.1788" y="-296.9" font-family="Arial" font-size="14.00" fill="#666666">[bigint(20)]</text>
<polygon fill="none" stroke="#000000" points="46.5,-255.5 46.5,-285.5 299.5,-285.5 299.5,-255.5 46.5,-255.5"/>
<text text-anchor="start" x="53.5" y="-266.9" font-family="Arial" font-size="14.00" fill="#000000">MentionCount </text>
<text text-anchor="start" x="144.5238" y="-266.9" font-family="Arial" font-size="14.00" fill="#666666">[bigint(20)]</text>
<polygon fill="none" stroke="#000000" points="46.5,-225.5 46.5,-255.5 299.5,-255.5 299.5,-225.5 46.5,-225.5"/>
<text text-anchor="start" x="53.5" y="-236.9" font-family="Arial" font-size="14.00" fill="#000000">NotifyProps </text>
<text text-anchor="start" x="129.73" y="-236.9" font-family="Arial" font-size="14.00" fill="#666666">[longtext]</text>
<polygon fill="none" stroke="#000000" points="46.5,-195.5 46.5,-225.5 299.5,-225.5 299.5,-195.5 46.5,-195.5"/>
<text text-anchor="start" x="53.5" y="-206.9" font-family="Arial" font-size="14.00" fill="#000000">LastUpdateAt </text>
<text text-anchor="start" x="142.2012" y="-206.9" font-family="Arial" font-size="14.00" fill="#666666">[bigint(20)]</text>
<polygon fill="none" stroke="#000000" points="46.5,-165.5 46.5,-195.5 299.5,-195.5 299.5,-165.5 46.5,-165.5"/>
<text text-anchor="start" x="53.5" y="-176.9" font-family="Arial" font-size="14.00" fill="#000000">SchemeUser </text>
<text text-anchor="start" x="138.2854" y="-176.9" font-family="Arial" font-size="14.00" fill="#666666">[tinyint(4)]</text>
<polygon fill="none" stroke="#000000" points="46.5,-135.5 46.5,-165.5 299.5,-165.5 299.5,-135.5 46.5,-135.5"/>
<text text-anchor="start" x="53.5" y="-146.9" font-family="Arial" font-size="14.00" fill="#000000">SchemeAdmin </text>
<text text-anchor="start" x="148.4046" y="-146.9" font-family="Arial" font-size="14.00" fill="#666666">[tinyint(4)]</text>
<polygon fill="none" stroke="#000000" points="46.5,-105.5 46.5,-135.5 299.5,-135.5 299.5,-105.5 46.5,-105.5"/>
<text text-anchor="start" x="53.5" y="-116.9" font-family="Arial" font-size="14.00" fill="#000000">SchemeGuest </text>
<text text-anchor="start" x="146.082" y="-116.9" font-family="Arial" font-size="14.00" fill="#666666">[tinyint(4)]</text>
<polygon fill="none" stroke="#000000" points="46.5,-75.5 46.5,-105.5 299.5,-105.5 299.5,-75.5 46.5,-75.5"/>
<text text-anchor="start" x="53.5" y="-86.9" font-family="Arial" font-size="14.00" fill="#000000">MentionCountRoot </text>
<text text-anchor="start" x="174.0862" y="-86.9" font-family="Arial" font-size="14.00" fill="#666666">[bigint(20)]</text>
<polygon fill="none" stroke="#000000" points="46.5,-45.5 46.5,-75.5 299.5,-75.5 299.5,-45.5 46.5,-45.5"/>
<text text-anchor="start" x="53.5" y="-56.9" font-family="Arial" font-size="14.00" fill="#000000">MsgCountRoot </text>
<text text-anchor="start" x="150.7412" y="-56.9" font-family="Arial" font-size="14.00" fill="#666666">[bigint(20)]</text>
<polygon fill="none" stroke="#000000" stroke-width="3" points="44.5,-44.5 44.5,-472.5 300.5,-472.5 300.5,-44.5 44.5,-44.5"/>
</g>
</g>
</svg>
