<?xml version="1.0" encoding="UTF-8" standalone="no"?>
<!DOCTYPE svg PUBLIC "-//W3C//DTD SVG 1.1//EN"
 "http://www.w3.org/Graphics/SVG/1.1/DTD/svg11.dtd">
<!-- Generated by graphviz version 2.40.1 (20161225.0304)
 -->
<!-- Title: CommandWebhooks Pages: 1 -->
<svg width="379pt" height="345pt"
 viewBox="0.00 0.00 379.00 345.00" xmlns="http://www.w3.org/2000/svg" xmlns:xlink="http://www.w3.org/1999/xlink">
<g id="graph0" class="graph" transform="scale(1 1) rotate(0) translate(4 341)">
<title>CommandWebhooks</title>
<polygon fill="#ffffff" stroke="transparent" points="-4,4 -4,-341 375,-341 375,4 -4,4"/>
<!-- CommandWebhooks -->
<g id="node1" class="node">
<title>CommandWebhooks</title>
<polygon fill="#efefef" stroke="transparent" points="46.5,-255.5 46.5,-290.5 325.5,-290.5 325.5,-255.5 46.5,-255.5"/>
<polygon fill="none" stroke="#000000" points="46.5,-255.5 46.5,-290.5 325.5,-290.5 325.5,-255.5 46.5,-255.5"/>
<text text-anchor="start" x="53.3608" y="-268.3" font-family="Arial Bold" font-size="18.00" fill="#000000">CommandWebhooks</text>
<text text-anchor="start" x="221.3854" y="-268.3" font-family="Arial" font-size="14.00" fill="#000000"> </text>
<text text-anchor="start" x="225.276" y="-268.3" font-family="Arial" font-size="14.00" fill="#666666">[BASE TABLE]</text>
<polygon fill="none" stroke="#000000" points="46.5,-225.5 46.5,-255.5 325.5,-255.5 325.5,-225.5 46.5,-225.5"/>
<text text-anchor="start" x="53.5" y="-236.9" font-family="Arial" font-size="14.00" fill="#000000">Id </text>
<text text-anchor="start" x="69.0638" y="-236.9" font-family="Arial" font-size="14.00" fill="#666666">[varchar(26)]</text>
<polygon fill="none" stroke="#000000" points="46.5,-195.5 46.5,-225.5 325.5,-225.5 325.5,-195.5 46.5,-195.5"/>
<text text-anchor="start" x="53.5" y="-206.9" font-family="Arial" font-size="14.00" fill="#000000">CreateAt </text>
<text text-anchor="start" x="112.6234" y="-206.9" font-family="Arial" font-size="14.00" fill="#666666">[bigint(20)]</text>
<polygon fill="none" stroke="#000000" points="46.5,-165.5 46.5,-195.5 325.5,-195.5 325.5,-165.5 46.5,-165.5"/>
<text text-anchor="start" x="53.5" y="-176.9" font-family="Arial" font-size="14.00" fill="#000000">CommandId </text>
<text text-anchor="start" x="133.622" y="-176.9" font-family="Arial" font-size="14.00" fill="#666666">[varchar(26)]</text>
<polygon fill="none" stroke="#000000" points="46.5,-135.5 46.5,-165.5 325.5,-165.5 325.5,-135.5 46.5,-135.5"/>
<text text-anchor="start" x="53.5" y="-146.9" font-family="Arial" font-size="14.00" fill="#000000">UserId </text>
<text text-anchor="start" x="98.6136" y="-146.9" font-family="Arial" font-size="14.00" fill="#666666">[varchar(26)]</text>
<polygon fill="none" stroke="#000000" points="46.5,-105.5 46.5,-135.5 325.5,-135.5 325.5,-105.5 46.5,-105.5"/>
<text text-anchor="start" x="53.5" y="-116.9" font-family="Arial" font-size="14.00" fill="#000000">ChannelId </text>
<text text-anchor="start" x="121.19" y="-116.9" font-family="Arial" font-size="14.00" fill="#666666">[varchar(26)]</text>
<polygon fill="none" stroke="#000000" points="46.5,-75.5 46.5,-105.5 325.5,-105.5 325.5,-75.5 46.5,-75.5"/>
<text text-anchor="start" x="53.5" y="-86.9" font-family="Arial" font-size="14.00" fill="#000000">RootId </text>
<text text-anchor="start" x="98.6262" y="-86.9" font-family="Arial" font-size="14.00" fill="#666666">[varchar(26)]</text>
<polygon fill="none" stroke="#000000" points="46.5,-45.5 46.5,-75.5 325.5,-75.5 325.5,-45.5 46.5,-45.5"/>
<text text-anchor="start" x="53.5" y="-56.9" font-family="Arial" font-size="14.00" fill="#000000">UseCount </text>
<text text-anchor="start" x="119.6248" y="-56.9" font-family="Arial" font-size="14.00" fill="#666666">[int(11)]</text>
<polygon fill="none" stroke="#000000" stroke-width="3" points="44.5,-44.5 44.5,-292.5 326.5,-292.5 326.5,-44.5 44.5,-44.5"/>
</g>
</g>
</svg>
