<?xml version="1.0" encoding="UTF-8" standalone="no"?>
<!DOCTYPE svg PUBLIC "-//W3C//DTD SVG 1.1//EN"
 "http://www.w3.org/Graphics/SVG/1.1/DTD/svg11.dtd">
<!-- Generated by graphviz version 2.40.1 (20161225.0304)
 -->
<!-- Title: Commands Pages: 1 -->
<svg width="303pt" height="675pt"
 viewBox="0.00 0.00 303.00 675.00" xmlns="http://www.w3.org/2000/svg" xmlns:xlink="http://www.w3.org/1999/xlink">
<g id="graph0" class="graph" transform="scale(1 1) rotate(0) translate(4 671)">
<title>Commands</title>
<polygon fill="#ffffff" stroke="transparent" points="-4,4 -4,-671 299,-671 299,4 -4,4"/>
<!-- Commands -->
<g id="node1" class="node">
<title>Commands</title>
<polygon fill="#efefef" stroke="transparent" points="46.5,-585.5 46.5,-620.5 249.5,-620.5 249.5,-585.5 46.5,-585.5"/>
<polygon fill="none" stroke="#000000" points="46.5,-585.5 46.5,-620.5 249.5,-620.5 249.5,-585.5 46.5,-585.5"/>
<text text-anchor="start" x="53.3714" y="-598.3" font-family="Arial Bold" font-size="18.00" fill="#000000">Commands</text>
<text text-anchor="start" x="145.3748" y="-598.3" font-family="Arial" font-size="14.00" fill="#000000"> </text>
<text text-anchor="start" x="149.2654" y="-598.3" font-family="Arial" font-size="14.00" fill="#666666">[BASE TABLE]</text>
<polygon fill="none" stroke="#000000" points="46.5,-555.5 46.5,-585.5 249.5,-585.5 249.5,-555.5 46.5,-555.5"/>
<text text-anchor="start" x="53.5" y="-566.9" font-family="Arial" font-size="14.00" fill="#000000">Id </text>
<text text-anchor="start" x="69.0638" y="-566.9" font-family="Arial" font-size="14.00" fill="#666666">[varchar(26)]</text>
<polygon fill="none" stroke="#000000" points="46.5,-525.5 46.5,-555.5 249.5,-555.5 249.5,-525.5 46.5,-525.5"/>
<text text-anchor="start" x="53.5" y="-536.9" font-family="Arial" font-size="14.00" fill="#000000">Token </text>
<text text-anchor="start" x="96.291" y="-536.9" font-family="Arial" font-size="14.00" fill="#666666">[varchar(26)]</text>
<polygon fill="none" stroke="#000000" points="46.5,-495.5 46.5,-525.5 249.5,-525.5 249.5,-495.5 46.5,-495.5"/>
<text text-anchor="start" x="53.5" y="-506.9" font-family="Arial" font-size="14.00" fill="#000000">CreateAt </text>
<text text-anchor="start" x="112.6234" y="-506.9" font-family="Arial" font-size="14.00" fill="#666666">[bigint(20)]</text>
<polygon fill="none" stroke="#000000" points="46.5,-465.5 46.5,-495.5 249.5,-495.5 249.5,-465.5 46.5,-465.5"/>
<text text-anchor="start" x="53.5" y="-476.9" font-family="Arial" font-size="14.00" fill="#000000">UpdateAt </text>
<text text-anchor="start" x="115.7454" y="-476.9" font-family="Arial" font-size="14.00" fill="#666666">[bigint(20)]</text>
<polygon fill="none" stroke="#000000" points="46.5,-435.5 46.5,-465.5 249.5,-465.5 249.5,-435.5 46.5,-435.5"/>
<text text-anchor="start" x="53.5" y="-446.9" font-family="Arial" font-size="14.00" fill="#000000">DeleteAt </text>
<text text-anchor="start" x="111.0694" y="-446.9" font-family="Arial" font-size="14.00" fill="#666666">[bigint(20)]</text>
<polygon fill="none" stroke="#000000" points="46.5,-405.5 46.5,-435.5 249.5,-435.5 249.5,-405.5 46.5,-405.5"/>
<text text-anchor="start" x="53.5" y="-416.9" font-family="Arial" font-size="14.00" fill="#000000">CreatorId </text>
<text text-anchor="start" x="115.73" y="-416.9" font-family="Arial" font-size="14.00" fill="#666666">[varchar(26)]</text>
<polygon fill="none" stroke="#000000" points="46.5,-375.5 46.5,-405.5 249.5,-405.5 249.5,-375.5 46.5,-375.5"/>
<text text-anchor="start" x="53.5" y="-386.9" font-family="Arial" font-size="14.00" fill="#000000">TeamId </text>
<text text-anchor="start" x="104.8422" y="-386.9" font-family="Arial" font-size="14.00" fill="#666666">[varchar(26)]</text>
<polygon fill="none" stroke="#000000" points="46.5,-345.5 46.5,-375.5 249.5,-375.5 249.5,-345.5 46.5,-345.5"/>
<text text-anchor="start" x="53.5" y="-356.9" font-family="Arial" font-size="14.00" fill="#000000">Trigger </text>
<text text-anchor="start" x="101.7188" y="-356.9" font-family="Arial" font-size="14.00" fill="#666666">[varchar(128)]</text>
<polygon fill="none" stroke="#000000" points="46.5,-315.5 46.5,-345.5 249.5,-345.5 249.5,-315.5 46.5,-315.5"/>
<text text-anchor="start" x="53.5" y="-326.9" font-family="Arial" font-size="14.00" fill="#000000">Method </text>
<text text-anchor="start" x="104.0722" y="-326.9" font-family="Arial" font-size="14.00" fill="#666666">[varchar(1)]</text>
<polygon fill="none" stroke="#000000" points="46.5,-285.5 46.5,-315.5 249.5,-315.5 249.5,-285.5 46.5,-285.5"/>
<text text-anchor="start" x="53.5" y="-296.9" font-family="Arial" font-size="14.00" fill="#000000">Username </text>
<text text-anchor="start" x="121.9488" y="-296.9" font-family="Arial" font-size="14.00" fill="#666666">[varchar(64)]</text>
<polygon fill="none" stroke="#000000" points="46.5,-255.5 46.5,-285.5 249.5,-285.5 249.5,-255.5 46.5,-255.5"/>
<text text-anchor="start" x="53.5" y="-266.9" font-family="Arial" font-size="14.00" fill="#000000">IconURL </text>
<text text-anchor="start" x="111.8422" y="-266.9" font-family="Arial" font-size="14.00" fill="#666666">[text]</text>
<polygon fill="none" stroke="#000000" points="46.5,-225.5 46.5,-255.5 249.5,-255.5 249.5,-225.5 46.5,-225.5"/>
<text text-anchor="start" x="53.5" y="-236.9" font-family="Arial" font-size="14.00" fill="#000000">AutoComplete </text>
<text text-anchor="start" x="146.0778" y="-236.9" font-family="Arial" font-size="14.00" fill="#666666">[tinyint(1)]</text>
<polygon fill="none" stroke="#000000" points="46.5,-195.5 46.5,-225.5 249.5,-225.5 249.5,-195.5 46.5,-195.5"/>
<text text-anchor="start" x="53.5" y="-206.9" font-family="Arial" font-size="14.00" fill="#000000">AutoCompleteDesc </text>
<text text-anchor="start" x="177.967" y="-206.9" font-family="Arial" font-size="14.00" fill="#666666">[text]</text>
<polygon fill="none" stroke="#000000" points="46.5,-165.5 46.5,-195.5 249.5,-195.5 249.5,-165.5 46.5,-165.5"/>
<text text-anchor="start" x="53.5" y="-176.9" font-family="Arial" font-size="14.00" fill="#000000">AutoCompleteHint </text>
<text text-anchor="start" x="170.9642" y="-176.9" font-family="Arial" font-size="14.00" fill="#666666">[text]</text>
<polygon fill="none" stroke="#000000" points="46.5,-135.5 46.5,-165.5 249.5,-165.5 249.5,-135.5 46.5,-135.5"/>
<text text-anchor="start" x="53.5" y="-146.9" font-family="Arial" font-size="14.00" fill="#000000">DisplayName </text>
<text text-anchor="start" x="140.608" y="-146.9" font-family="Arial" font-size="14.00" fill="#666666">[varchar(64)]</text>
<polygon fill="none" stroke="#000000" points="46.5,-105.5 46.5,-135.5 249.5,-135.5 249.5,-105.5 46.5,-105.5"/>
<text text-anchor="start" x="53.5" y="-116.9" font-family="Arial" font-size="14.00" fill="#000000">Description </text>
<text text-anchor="start" x="127.392" y="-116.9" font-family="Arial" font-size="14.00" fill="#666666">[varchar(128)]</text>
<polygon fill="none" stroke="#000000" points="46.5,-75.5 46.5,-105.5 249.5,-105.5 249.5,-75.5 46.5,-75.5"/>
<text text-anchor="start" x="53.5" y="-86.9" font-family="Arial" font-size="14.00" fill="#000000">URL </text>
<text text-anchor="start" x="85.3864" y="-86.9" font-family="Arial" font-size="14.00" fill="#666666">[text]</text>
<polygon fill="none" stroke="#000000" points="46.5,-45.5 46.5,-75.5 249.5,-75.5 249.5,-45.5 46.5,-45.5"/>
<text text-anchor="start" x="53.5" y="-56.9" font-family="Arial" font-size="14.00" fill="#000000">PluginId </text>
<text text-anchor="start" x="107.9614" y="-56.9" font-family="Arial" font-size="14.00" fill="#666666">[varchar(190)]</text>
<polygon fill="none" stroke="#000000" stroke-width="3" points="44.5,-44.5 44.5,-622.5 250.5,-622.5 250.5,-44.5 44.5,-44.5"/>
</g>
</g>
</svg>
