<?xml version="1.0" encoding="UTF-8" standalone="no"?>
<!DOCTYPE svg PUBLIC "-//W3C//DTD SVG 1.1//EN"
 "http://www.w3.org/Graphics/SVG/1.1/DTD/svg11.dtd">
<!-- Generated by graphviz version 2.40.1 (20161225.0304)
 -->
<!-- Title: Configurations Pages: 1 -->
<svg width="327pt" height="285pt"
 viewBox="0.00 0.00 327.00 285.00" xmlns="http://www.w3.org/2000/svg" xmlns:xlink="http://www.w3.org/1999/xlink">
<g id="graph0" class="graph" transform="scale(1 1) rotate(0) translate(4 281)">
<title>Configurations</title>
<polygon fill="#ffffff" stroke="transparent" points="-4,4 -4,-281 323,-281 323,4 -4,4"/>
<!-- Configurations -->
<g id="node1" class="node">
<title>Configurations</title>
<polygon fill="#efefef" stroke="transparent" points="46.5,-195.5 46.5,-230.5 273.5,-230.5 273.5,-195.5 46.5,-195.5"/>
<polygon fill="none" stroke="#000000" points="46.5,-195.5 46.5,-230.5 273.5,-230.5 273.5,-195.5 46.5,-195.5"/>
<text text-anchor="start" x="53.3618" y="-208.3" font-family="Arial Bold" font-size="18.00" fill="#000000">Configurations</text>
<text text-anchor="start" x="169.3844" y="-208.3" font-family="Arial" font-size="14.00" fill="#000000"> </text>
<text text-anchor="start" x="173.275" y="-208.3" font-family="Arial" font-size="14.00" fill="#666666">[BASE TABLE]</text>
<polygon fill="none" stroke="#000000" points="46.5,-165.5 46.5,-195.5 273.5,-195.5 273.5,-165.5 46.5,-165.5"/>
<text text-anchor="start" x="53.5" y="-176.9" font-family="Arial" font-size="14.00" fill="#000000">Id </text>
<text text-anchor="start" x="69.0638" y="-176.9" font-family="Arial" font-size="14.00" fill="#666666">[varchar(26)]</text>
<polygon fill="none" stroke="#000000" points="46.5,-135.5 46.5,-165.5 273.5,-165.5 273.5,-135.5 46.5,-135.5"/>
<text text-anchor="start" x="53.5" y="-146.9" font-family="Arial" font-size="14.00" fill="#000000">Value </text>
<text text-anchor="start" x="93.1816" y="-146.9" font-family="Arial" font-size="14.00" fill="#666666">[mediumtext]</text>
<polygon fill="none" stroke="#000000" points="46.5,-105.5 46.5,-135.5 273.5,-135.5 273.5,-105.5 46.5,-105.5"/>
<text text-anchor="start" x="53.5" y="-116.9" font-family="Arial" font-size="14.00" fill="#000000">CreateAt </text>
<text text-anchor="start" x="112.6234" y="-116.9" font-family="Arial" font-size="14.00" fill="#666666">[bigint(20)]</text>
<polygon fill="none" stroke="#000000" points="46.5,-75.5 46.5,-105.5 273.5,-105.5 273.5,-75.5 46.5,-75.5"/>
<text text-anchor="start" x="53.5" y="-86.9" font-family="Arial" font-size="14.00" fill="#000000">Active </text>
<text text-anchor="start" x="95.507" y="-86.9" font-family="Arial" font-size="14.00" fill="#666666">[tinyint(1)]</text>
<polygon fill="none" stroke="#000000" points="46.5,-45.5 46.5,-75.5 273.5,-75.5 273.5,-45.5 46.5,-45.5"/>
<text text-anchor="start" x="53.5" y="-56.9" font-family="Arial" font-size="14.00" fill="#000000">SHA </text>
<text text-anchor="start" x="86.1704" y="-56.9" font-family="Arial" font-size="14.00" fill="#666666">[char(64)]</text>
<polygon fill="none" stroke="#000000" stroke-width="3" points="44.5,-44.5 44.5,-232.5 274.5,-232.5 274.5,-44.5 44.5,-44.5"/>
</g>
</g>
</svg>
