<?xml version="1.0" encoding="UTF-8" standalone="no"?>
<!DOCTYPE svg PUBLIC "-//W3C//DTD SVG 1.1//EN"
 "http://www.w3.org/Graphics/SVG/1.1/DTD/svg11.dtd">
<!-- Generated by graphviz version 2.40.1 (20161225.0304)
 -->
<!-- Title: db_config_migrations Pages: 1 -->
<svg width="382pt" height="195pt"
 viewBox="0.00 0.00 382.00 195.00" xmlns="http://www.w3.org/2000/svg" xmlns:xlink="http://www.w3.org/1999/xlink">
<g id="graph0" class="graph" transform="scale(1 1) rotate(0) translate(4 191)">
<title>db_config_migrations</title>
<polygon fill="#ffffff" stroke="transparent" points="-4,4 -4,-191 378,-191 378,4 -4,4"/>
<!-- db_config_migrations -->
<g id="node1" class="node">
<title>db_config_migrations</title>
<polygon fill="#efefef" stroke="transparent" points="46,-105.5 46,-140.5 328,-140.5 328,-105.5 46,-105.5"/>
<polygon fill="none" stroke="#000000" points="46,-105.5 46,-140.5 328,-140.5 328,-105.5 46,-105.5"/>
<text text-anchor="start" x="52.8533" y="-118.3" font-family="Arial Bold" font-size="18.00" fill="#000000">db_config_migrations</text>
<text text-anchor="start" x="223.8929" y="-118.3" font-family="Arial" font-size="14.00" fill="#000000"> </text>
<text text-anchor="start" x="227.7835" y="-118.3" font-family="Arial" font-size="14.00" fill="#666666">[BASE TABLE]</text>
<polygon fill="none" stroke="#000000" points="46,-75.5 46,-105.5 328,-105.5 328,-75.5 46,-75.5"/>
<text text-anchor="start" x="53" y="-86.9" font-family="Arial" font-size="14.00" fill="#000000">Version </text>
<text text-anchor="start" x="104.3422" y="-86.9" font-family="Arial" font-size="14.00" fill="#666666">[bigint(20)]</text>
<polygon fill="none" stroke="#000000" points="46,-45.5 46,-75.5 328,-75.5 328,-45.5 46,-45.5"/>
<text text-anchor="start" x="53" y="-56.9" font-family="Arial" font-size="14.00" fill="#000000">Name </text>
<text text-anchor="start" x="94.223" y="-56.9" font-family="Arial" font-size="14.00" fill="#666666">[varchar(64)]</text>
<polygon fill="none" stroke="#000000" stroke-width="3" points="44.5,-44.5 44.5,-142.5 329.5,-142.5 329.5,-44.5 44.5,-44.5"/>
</g>
</g>
</svg>
