<?xml version="1.0" encoding="UTF-8" standalone="no"?>
<!DOCTYPE svg PUBLIC "-//W3C//DTD SVG 1.1//EN"
 "http://www.w3.org/Graphics/SVG/1.1/DTD/svg11.dtd">
<!-- Generated by graphviz version 2.40.1 (20161225.0304)
 -->
<!-- Title: IncomingWebhooks Pages: 1 -->
<svg width="369pt" height="495pt"
 viewBox="0.00 0.00 369.00 495.00" xmlns="http://www.w3.org/2000/svg" xmlns:xlink="http://www.w3.org/1999/xlink">
<g id="graph0" class="graph" transform="scale(1 1) rotate(0) translate(4 491)">
<title>IncomingWebhooks</title>
<polygon fill="#ffffff" stroke="transparent" points="-4,4 -4,-491 365,-491 365,4 -4,4"/>
<!-- IncomingWebhooks -->
<g id="node1" class="node">
<title>IncomingWebhooks</title>
<polygon fill="#efefef" stroke="transparent" points="46.5,-405.5 46.5,-440.5 315.5,-440.5 315.5,-405.5 46.5,-405.5"/>
<polygon fill="none" stroke="#000000" points="46.5,-405.5 46.5,-440.5 315.5,-440.5 315.5,-405.5 46.5,-405.5"/>
<text text-anchor="start" x="53.3558" y="-418.3" font-family="Arial Bold" font-size="18.00" fill="#000000">IncomingWebhooks</text>
<text text-anchor="start" x="211.3904" y="-418.3" font-family="Arial" font-size="14.00" fill="#000000"> </text>
<text text-anchor="start" x="215.281" y="-418.3" font-family="Arial" font-size="14.00" fill="#666666">[BASE TABLE]</text>
<polygon fill="none" stroke="#000000" points="46.5,-375.5 46.5,-405.5 315.5,-405.5 315.5,-375.5 46.5,-375.5"/>
<text text-anchor="start" x="53.5" y="-386.9" font-family="Arial" font-size="14.00" fill="#000000">Id </text>
<text text-anchor="start" x="69.0638" y="-386.9" font-family="Arial" font-size="14.00" fill="#666666">[varchar(26)]</text>
<polygon fill="none" stroke="#000000" points="46.5,-345.5 46.5,-375.5 315.5,-375.5 315.5,-345.5 46.5,-345.5"/>
<text text-anchor="start" x="53.5" y="-356.9" font-family="Arial" font-size="14.00" fill="#000000">CreateAt </text>
<text text-anchor="start" x="112.6234" y="-356.9" font-family="Arial" font-size="14.00" fill="#666666">[bigint(20)]</text>
<polygon fill="none" stroke="#000000" points="46.5,-315.5 46.5,-345.5 315.5,-345.5 315.5,-315.5 46.5,-315.5"/>
<text text-anchor="start" x="53.5" y="-326.9" font-family="Arial" font-size="14.00" fill="#000000">UpdateAt </text>
<text text-anchor="start" x="115.7454" y="-326.9" font-family="Arial" font-size="14.00" fill="#666666">[bigint(20)]</text>
<polygon fill="none" stroke="#000000" points="46.5,-285.5 46.5,-315.5 315.5,-315.5 315.5,-285.5 46.5,-285.5"/>
<text text-anchor="start" x="53.5" y="-296.9" font-family="Arial" font-size="14.00" fill="#000000">DeleteAt </text>
<text text-anchor="start" x="111.0694" y="-296.9" font-family="Arial" font-size="14.00" fill="#666666">[bigint(20)]</text>
<polygon fill="none" stroke="#000000" points="46.5,-255.5 46.5,-285.5 315.5,-285.5 315.5,-255.5 46.5,-255.5"/>
<text text-anchor="start" x="53.5" y="-266.9" font-family="Arial" font-size="14.00" fill="#000000">UserId </text>
<text text-anchor="start" x="98.6136" y="-266.9" font-family="Arial" font-size="14.00" fill="#666666">[varchar(26)]</text>
<polygon fill="none" stroke="#000000" points="46.5,-225.5 46.5,-255.5 315.5,-255.5 315.5,-225.5 46.5,-225.5"/>
<text text-anchor="start" x="53.5" y="-236.9" font-family="Arial" font-size="14.00" fill="#000000">ChannelId </text>
<text text-anchor="start" x="121.19" y="-236.9" font-family="Arial" font-size="14.00" fill="#666666">[varchar(26)]</text>
<polygon fill="none" stroke="#000000" points="46.5,-195.5 46.5,-225.5 315.5,-225.5 315.5,-195.5 46.5,-195.5"/>
<text text-anchor="start" x="53.5" y="-206.9" font-family="Arial" font-size="14.00" fill="#000000">TeamId </text>
<text text-anchor="start" x="104.8422" y="-206.9" font-family="Arial" font-size="14.00" fill="#666666">[varchar(26)]</text>
<polygon fill="none" stroke="#000000" points="46.5,-165.5 46.5,-195.5 315.5,-195.5 315.5,-165.5 46.5,-165.5"/>
<text text-anchor="start" x="53.5" y="-176.9" font-family="Arial" font-size="14.00" fill="#000000">DisplayName </text>
<text text-anchor="start" x="140.608" y="-176.9" font-family="Arial" font-size="14.00" fill="#666666">[varchar(64)]</text>
<polygon fill="none" stroke="#000000" points="46.5,-135.5 46.5,-165.5 315.5,-165.5 315.5,-135.5 46.5,-135.5"/>
<text text-anchor="start" x="53.5" y="-146.9" font-family="Arial" font-size="14.00" fill="#000000">Description </text>
<text text-anchor="start" x="127.392" y="-146.9" font-family="Arial" font-size="14.00" fill="#666666">[text]</text>
<polygon fill="none" stroke="#000000" points="46.5,-105.5 46.5,-135.5 315.5,-135.5 315.5,-105.5 46.5,-105.5"/>
<text text-anchor="start" x="53.5" y="-116.9" font-family="Arial" font-size="14.00" fill="#000000">Username </text>
<text text-anchor="start" x="121.9488" y="-116.9" font-family="Arial" font-size="14.00" fill="#666666">[varchar(255)]</text>
<polygon fill="none" stroke="#000000" points="46.5,-75.5 46.5,-105.5 315.5,-105.5 315.5,-75.5 46.5,-75.5"/>
<text text-anchor="start" x="53.5" y="-86.9" font-family="Arial" font-size="14.00" fill="#000000">IconURL </text>
<text text-anchor="start" x="111.8422" y="-86.9" font-family="Arial" font-size="14.00" fill="#666666">[text]</text>
<polygon fill="none" stroke="#000000" points="46.5,-45.5 46.5,-75.5 315.5,-75.5 315.5,-45.5 46.5,-45.5"/>
<text text-anchor="start" x="53.5" y="-56.9" font-family="Arial" font-size="14.00" fill="#000000">ChannelLocked </text>
<text text-anchor="start" x="154.6472" y="-56.9" font-family="Arial" font-size="14.00" fill="#666666">[tinyint(1)]</text>
<polygon fill="none" stroke="#000000" stroke-width="3" points="44.5,-44.5 44.5,-442.5 316.5,-442.5 316.5,-44.5 44.5,-44.5"/>
</g>
</g>
</svg>
