<?xml version="1.0" encoding="UTF-8" standalone="no"?>
<!DOCTYPE svg PUBLIC "-//W3C//DTD SVG 1.1//EN"
 "http://www.w3.org/Graphics/SVG/1.1/DTD/svg11.dtd">
<!-- Generated by graphviz version 2.40.1 (20161225.0304)
 -->
<!-- Title: Jobs Pages: 1 -->
<svg width="268pt" height="405pt"
 viewBox="0.00 0.00 268.00 405.00" xmlns="http://www.w3.org/2000/svg" xmlns:xlink="http://www.w3.org/1999/xlink">
<g id="graph0" class="graph" transform="scale(1 1) rotate(0) translate(4 401)">
<title>Jobs</title>
<polygon fill="#ffffff" stroke="transparent" points="-4,4 -4,-401 264,-401 264,4 -4,4"/>
<!-- Jobs -->
<g id="node1" class="node">
<title>Jobs</title>
<polygon fill="#efefef" stroke="transparent" points="46,-315.5 46,-350.5 214,-350.5 214,-315.5 46,-315.5"/>
<polygon fill="none" stroke="#000000" points="46,-315.5 46,-350.5 214,-350.5 214,-315.5 46,-315.5"/>
<text text-anchor="start" x="62.3669" y="-328.3" font-family="Arial Bold" font-size="18.00" fill="#000000">Jobs</text>
<text text-anchor="start" x="100.3793" y="-328.3" font-family="Arial" font-size="14.00" fill="#000000"> </text>
<text text-anchor="start" x="104.2699" y="-328.3" font-family="Arial" font-size="14.00" fill="#666666">[BASE TABLE]</text>
<polygon fill="none" stroke="#000000" points="46,-285.5 46,-315.5 214,-315.5 214,-285.5 46,-285.5"/>
<text text-anchor="start" x="53" y="-296.9" font-family="Arial" font-size="14.00" fill="#000000">Id </text>
<text text-anchor="start" x="68.5638" y="-296.9" font-family="Arial" font-size="14.00" fill="#666666">[varchar(26)]</text>
<polygon fill="none" stroke="#000000" points="46,-255.5 46,-285.5 214,-285.5 214,-255.5 46,-255.5"/>
<text text-anchor="start" x="53" y="-266.9" font-family="Arial" font-size="14.00" fill="#000000">Type </text>
<text text-anchor="start" x="88.0084" y="-266.9" font-family="Arial" font-size="14.00" fill="#666666">[varchar(32)]</text>
<polygon fill="none" stroke="#000000" points="46,-225.5 46,-255.5 214,-255.5 214,-225.5 46,-225.5"/>
<text text-anchor="start" x="53" y="-236.9" font-family="Arial" font-size="14.00" fill="#000000">Priority </text>
<text text-anchor="start" x="100.4348" y="-236.9" font-family="Arial" font-size="14.00" fill="#666666">[bigint(20)]</text>
<polygon fill="none" stroke="#000000" points="46,-195.5 46,-225.5 214,-225.5 214,-195.5 46,-195.5"/>
<text text-anchor="start" x="53" y="-206.9" font-family="Arial" font-size="14.00" fill="#000000">CreateAt </text>
<text text-anchor="start" x="112.1234" y="-206.9" font-family="Arial" font-size="14.00" fill="#666666">[bigint(20)]</text>
<polygon fill="none" stroke="#000000" points="46,-165.5 46,-195.5 214,-195.5 214,-165.5 46,-165.5"/>
<text text-anchor="start" x="53" y="-176.9" font-family="Arial" font-size="14.00" fill="#000000">StartAt </text>
<text text-anchor="start" x="99.6788" y="-176.9" font-family="Arial" font-size="14.00" fill="#666666">[bigint(20)]</text>
<polygon fill="none" stroke="#000000" points="46,-135.5 46,-165.5 214,-165.5 214,-135.5 46,-135.5"/>
<text text-anchor="start" x="52.9881" y="-146.9" font-family="Arial" font-size="14.00" fill="#000000">LastActivityAt </text>
<text text-anchor="start" x="140.8927" y="-146.9" font-family="Arial" font-size="14.00" fill="#666666">[bigint(20)]</text>
<polygon fill="none" stroke="#000000" points="46,-105.5 46,-135.5 214,-135.5 214,-105.5 46,-105.5"/>
<text text-anchor="start" x="53" y="-116.9" font-family="Arial" font-size="14.00" fill="#000000">Status </text>
<text text-anchor="start" x="96.5736" y="-116.9" font-family="Arial" font-size="14.00" fill="#666666">[varchar(32)]</text>
<polygon fill="none" stroke="#000000" points="46,-75.5 46,-105.5 214,-105.5 214,-75.5 46,-75.5"/>
<text text-anchor="start" x="53" y="-86.9" font-family="Arial" font-size="14.00" fill="#000000">Progress </text>
<text text-anchor="start" x="112.8962" y="-86.9" font-family="Arial" font-size="14.00" fill="#666666">[bigint(20)]</text>
<polygon fill="none" stroke="#000000" points="46,-45.5 46,-75.5 214,-75.5 214,-45.5 46,-45.5"/>
<text text-anchor="start" x="53" y="-56.9" font-family="Arial" font-size="14.00" fill="#000000">Data </text>
<text text-anchor="start" x="86.453" y="-56.9" font-family="Arial" font-size="14.00" fill="#666666">[longtext]</text>
<polygon fill="none" stroke="#000000" stroke-width="3" points="44.5,-44.5 44.5,-352.5 215.5,-352.5 215.5,-44.5 44.5,-44.5"/>
</g>
</g>
</svg>
