<?xml version="1.0" encoding="UTF-8" standalone="no"?>
<!DOCTYPE svg PUBLIC "-//W3C//DTD SVG 1.1//EN"
 "http://www.w3.org/Graphics/SVG/1.1/DTD/svg11.dtd">
<!-- Generated by graphviz version 2.40.1 (20161225.0304)
 -->
<!-- Title: LinkMetadata Pages: 1 -->
<svg width="319pt" height="285pt"
 viewBox="0.00 0.00 319.00 285.00" xmlns="http://www.w3.org/2000/svg" xmlns:xlink="http://www.w3.org/1999/xlink">
<g id="graph0" class="graph" transform="scale(1 1) rotate(0) translate(4 281)">
<title>LinkMetadata</title>
<polygon fill="#ffffff" stroke="transparent" points="-4,4 -4,-281 315,-281 315,4 -4,4"/>
<!-- LinkMetadata -->
<g id="node1" class="node">
<title>LinkMetadata</title>
<polygon fill="#efefef" stroke="transparent" points="46.5,-195.5 46.5,-230.5 265.5,-230.5 265.5,-195.5 46.5,-195.5"/>
<polygon fill="none" stroke="#000000" points="46.5,-195.5 46.5,-230.5 265.5,-230.5 265.5,-195.5 46.5,-195.5"/>
<text text-anchor="start" x="53.356" y="-208.3" font-family="Arial Bold" font-size="18.00" fill="#000000">LinkMetadata</text>
<text text-anchor="start" x="161.3902" y="-208.3" font-family="Arial" font-size="14.00" fill="#000000"> </text>
<text text-anchor="start" x="165.2808" y="-208.3" font-family="Arial" font-size="14.00" fill="#666666">[BASE TABLE]</text>
<polygon fill="none" stroke="#000000" points="46.5,-165.5 46.5,-195.5 265.5,-195.5 265.5,-165.5 46.5,-165.5"/>
<text text-anchor="start" x="53.5" y="-176.9" font-family="Arial" font-size="14.00" fill="#000000">Hash </text>
<text text-anchor="start" x="90.0624" y="-176.9" font-family="Arial" font-size="14.00" fill="#666666">[bigint(20)]</text>
<polygon fill="none" stroke="#000000" points="46.5,-135.5 46.5,-165.5 265.5,-165.5 265.5,-135.5 46.5,-135.5"/>
<text text-anchor="start" x="53.5" y="-146.9" font-family="Arial" font-size="14.00" fill="#000000">URL </text>
<text text-anchor="start" x="85.3864" y="-146.9" font-family="Arial" font-size="14.00" fill="#666666">[text]</text>
<polygon fill="none" stroke="#000000" points="46.5,-105.5 46.5,-135.5 265.5,-135.5 265.5,-105.5 46.5,-105.5"/>
<text text-anchor="start" x="53.5" y="-116.9" font-family="Arial" font-size="14.00" fill="#000000">Timestamp </text>
<text text-anchor="start" x="126.6094" y="-116.9" font-family="Arial" font-size="14.00" fill="#666666">[bigint(20)]</text>
<polygon fill="none" stroke="#000000" points="46.5,-75.5 46.5,-105.5 265.5,-105.5 265.5,-75.5 46.5,-75.5"/>
<text text-anchor="start" x="53.5" y="-86.9" font-family="Arial" font-size="14.00" fill="#000000">Type </text>
<text text-anchor="start" x="88.5084" y="-86.9" font-family="Arial" font-size="14.00" fill="#666666">[varchar(16)]</text>
<polygon fill="none" stroke="#000000" points="46.5,-45.5 46.5,-75.5 265.5,-75.5 265.5,-45.5 46.5,-45.5"/>
<text text-anchor="start" x="53.5" y="-56.9" font-family="Arial" font-size="14.00" fill="#000000">Data </text>
<text text-anchor="start" x="86.953" y="-56.9" font-family="Arial" font-size="14.00" fill="#666666">[longtext]</text>
<polygon fill="none" stroke="#000000" stroke-width="3" points="44.5,-44.5 44.5,-232.5 266.5,-232.5 266.5,-44.5 44.5,-44.5"/>
</g>
</g>
</svg>
