<?xml version="1.0" encoding="UTF-8" standalone="no"?>
<!DOCTYPE svg PUBLIC "-//W3C//DTD SVG 1.1//EN"
 "http://www.w3.org/Graphics/SVG/1.1/DTD/svg11.dtd">
<!-- Generated by graphviz version 2.40.1 (20161225.0304)
 -->
<!-- Title: OAuthAuthData Pages: 1 -->
<svg width="337pt" height="375pt"
 viewBox="0.00 0.00 337.00 375.00" xmlns="http://www.w3.org/2000/svg" xmlns:xlink="http://www.w3.org/1999/xlink">
<g id="graph0" class="graph" transform="scale(1 1) rotate(0) translate(4 371)">
<title>OAuthAuthData</title>
<polygon fill="#ffffff" stroke="transparent" points="-4,4 -4,-371 333,-371 333,4 -4,4"/>
<!-- OAuthAuthData -->
<g id="node1" class="node">
<title>OAuthAuthData</title>
<polygon fill="#efefef" stroke="transparent" points="46.5,-285.5 46.5,-320.5 283.5,-320.5 283.5,-285.5 46.5,-285.5"/>
<polygon fill="none" stroke="#000000" points="46.5,-285.5 46.5,-320.5 283.5,-320.5 283.5,-285.5 46.5,-285.5"/>
<text text-anchor="start" x="53.3488" y="-298.3" font-family="Arial Bold" font-size="18.00" fill="#000000">OAuthAuthData</text>
<text text-anchor="start" x="179.3974" y="-298.3" font-family="Arial" font-size="14.00" fill="#000000"> </text>
<text text-anchor="start" x="183.288" y="-298.3" font-family="Arial" font-size="14.00" fill="#666666">[BASE TABLE]</text>
<polygon fill="none" stroke="#000000" points="46.5,-255.5 46.5,-285.5 283.5,-285.5 283.5,-255.5 46.5,-255.5"/>
<text text-anchor="start" x="53.5" y="-266.9" font-family="Arial" font-size="14.00" fill="#000000">ClientId </text>
<text text-anchor="start" x="104.8394" y="-266.9" font-family="Arial" font-size="14.00" fill="#666666">[varchar(26)]</text>
<polygon fill="none" stroke="#000000" points="46.5,-225.5 46.5,-255.5 283.5,-255.5 283.5,-225.5 46.5,-225.5"/>
<text text-anchor="start" x="53.5" y="-236.9" font-family="Arial" font-size="14.00" fill="#000000">UserId </text>
<text text-anchor="start" x="98.6136" y="-236.9" font-family="Arial" font-size="14.00" fill="#666666">[varchar(26)]</text>
<polygon fill="none" stroke="#000000" points="46.5,-195.5 46.5,-225.5 283.5,-225.5 283.5,-195.5 46.5,-195.5"/>
<text text-anchor="start" x="53.5" y="-206.9" font-family="Arial" font-size="14.00" fill="#000000">Code </text>
<text text-anchor="start" x="90.845" y="-206.9" font-family="Arial" font-size="14.00" fill="#666666">[varchar(128)]</text>
<polygon fill="none" stroke="#000000" points="46.5,-165.5 46.5,-195.5 283.5,-195.5 283.5,-165.5 46.5,-165.5"/>
<text text-anchor="start" x="53.5" y="-176.9" font-family="Arial" font-size="14.00" fill="#000000">ExpiresIn </text>
<text text-anchor="start" x="115.7328" y="-176.9" font-family="Arial" font-size="14.00" fill="#666666">[int(11)]</text>
<polygon fill="none" stroke="#000000" points="46.5,-135.5 46.5,-165.5 283.5,-165.5 283.5,-135.5 46.5,-135.5"/>
<text text-anchor="start" x="53.5" y="-146.9" font-family="Arial" font-size="14.00" fill="#000000">CreateAt </text>
<text text-anchor="start" x="112.6234" y="-146.9" font-family="Arial" font-size="14.00" fill="#666666">[bigint(20)]</text>
<polygon fill="none" stroke="#000000" points="46.5,-105.5 46.5,-135.5 283.5,-135.5 283.5,-105.5 46.5,-105.5"/>
<text text-anchor="start" x="53.5" y="-116.9" font-family="Arial" font-size="14.00" fill="#000000">RedirectUri </text>
<text text-anchor="start" x="127.3766" y="-116.9" font-family="Arial" font-size="14.00" fill="#666666">[text]</text>
<polygon fill="none" stroke="#000000" points="46.5,-75.5 46.5,-105.5 283.5,-105.5 283.5,-75.5 46.5,-75.5"/>
<text text-anchor="start" x="53.5" y="-86.9" font-family="Arial" font-size="14.00" fill="#000000">State </text>
<text text-anchor="start" x="90.0736" y="-86.9" font-family="Arial" font-size="14.00" fill="#666666">[text]</text>
<polygon fill="none" stroke="#000000" points="46.5,-45.5 46.5,-75.5 283.5,-75.5 283.5,-45.5 46.5,-45.5"/>
<text text-anchor="start" x="53.5" y="-56.9" font-family="Arial" font-size="14.00" fill="#000000">Scope </text>
<text text-anchor="start" x="97.075" y="-56.9" font-family="Arial" font-size="14.00" fill="#666666">[varchar(128)]</text>
<polygon fill="none" stroke="#000000" stroke-width="3" points="44.5,-44.5 44.5,-322.5 284.5,-322.5 284.5,-44.5 44.5,-44.5"/>
</g>
</g>
</svg>
