<?xml version="1.0" encoding="UTF-8" standalone="no"?>
<!DOCTYPE svg PUBLIC "-//W3C//DTD SVG 1.1//EN"
 "http://www.w3.org/Graphics/SVG/1.1/DTD/svg11.dtd">
<!-- Generated by graphviz version 2.40.1 (20161225.0304)
 -->
<!-- Title: PluginKeyValueStore Pages: 1 -->
<svg width="381pt" height="255pt"
 viewBox="0.00 0.00 381.00 255.00" xmlns="http://www.w3.org/2000/svg" xmlns:xlink="http://www.w3.org/1999/xlink">
<g id="graph0" class="graph" transform="scale(1 1) rotate(0) translate(4 251)">
<title>PluginKeyValueStore</title>
<polygon fill="#ffffff" stroke="transparent" points="-4,4 -4,-251 377,-251 377,4 -4,4"/>
<!-- PluginKeyValueStore -->
<g id="node1" class="node">
<title>PluginKeyValueStore</title>
<polygon fill="#efefef" stroke="transparent" points="46.5,-165.5 46.5,-200.5 327.5,-200.5 327.5,-165.5 46.5,-165.5"/>
<polygon fill="none" stroke="#000000" points="46.5,-165.5 46.5,-200.5 327.5,-200.5 327.5,-165.5 46.5,-165.5"/>
<text text-anchor="start" x="53.3483" y="-178.3" font-family="Arial Bold" font-size="18.00" fill="#000000">PluginKeyValueStore</text>
<text text-anchor="start" x="223.3979" y="-178.3" font-family="Arial" font-size="14.00" fill="#000000"> </text>
<text text-anchor="start" x="227.2885" y="-178.3" font-family="Arial" font-size="14.00" fill="#666666">[BASE TABLE]</text>
<polygon fill="none" stroke="#000000" points="46.5,-135.5 46.5,-165.5 327.5,-165.5 327.5,-135.5 46.5,-135.5"/>
<text text-anchor="start" x="53.5" y="-146.9" font-family="Arial" font-size="14.00" fill="#000000">PluginId </text>
<text text-anchor="start" x="107.9614" y="-146.9" font-family="Arial" font-size="14.00" fill="#666666">[varchar(190)]</text>
<polygon fill="none" stroke="#000000" points="46.5,-105.5 46.5,-135.5 327.5,-135.5 327.5,-105.5 46.5,-105.5"/>
<text text-anchor="start" x="53.5" y="-116.9" font-family="Arial" font-size="14.00" fill="#000000">PKey </text>
<text text-anchor="start" x="90.8464" y="-116.9" font-family="Arial" font-size="14.00" fill="#666666">[varchar(150)]</text>
<polygon fill="none" stroke="#000000" points="46.5,-75.5 46.5,-105.5 327.5,-105.5 327.5,-75.5 46.5,-75.5"/>
<text text-anchor="start" x="53.5" y="-86.9" font-family="Arial" font-size="14.00" fill="#000000">PValue </text>
<text text-anchor="start" x="102.5182" y="-86.9" font-family="Arial" font-size="14.00" fill="#666666">[mediumblob]</text>
<polygon fill="none" stroke="#000000" points="46.5,-45.5 46.5,-75.5 327.5,-75.5 327.5,-45.5 46.5,-45.5"/>
<text text-anchor="start" x="53.5" y="-56.9" font-family="Arial" font-size="14.00" fill="#000000">ExpireAt </text>
<text text-anchor="start" x="110.2868" y="-56.9" font-family="Arial" font-size="14.00" fill="#666666">[bigint(20)]</text>
<polygon fill="none" stroke="#000000" stroke-width="3" points="44.5,-44.5 44.5,-202.5 328.5,-202.5 328.5,-44.5 44.5,-44.5"/>
</g>
</g>
</svg>
