<?xml version="1.0" encoding="UTF-8" standalone="no"?>
<!DOCTYPE svg PUBLIC "-//W3C//DTD SVG 1.1//EN"
 "http://www.w3.org/Graphics/SVG/1.1/DTD/svg11.dtd">
<!-- Generated by graphviz version 2.40.1 (20161225.0304)
 -->
<!-- Title: ProductNoticeViewState Pages: 1 -->
<svg width="405pt" height="255pt"
 viewBox="0.00 0.00 405.00 255.00" xmlns="http://www.w3.org/2000/svg" xmlns:xlink="http://www.w3.org/1999/xlink">
<g id="graph0" class="graph" transform="scale(1 1) rotate(0) translate(4 251)">
<title>ProductNoticeViewState</title>
<polygon fill="#ffffff" stroke="transparent" points="-4,4 -4,-251 401,-251 401,4 -4,4"/>
<!-- ProductNoticeViewState -->
<g id="node1" class="node">
<title>ProductNoticeViewState</title>
<polygon fill="#efefef" stroke="transparent" points="46.5,-165.5 46.5,-200.5 351.5,-200.5 351.5,-165.5 46.5,-165.5"/>
<polygon fill="none" stroke="#000000" points="46.5,-165.5 46.5,-200.5 351.5,-200.5 351.5,-165.5 46.5,-165.5"/>
<text text-anchor="start" x="53.3531" y="-178.3" font-family="Arial Bold" font-size="18.00" fill="#000000">ProductNoticeViewState</text>
<text text-anchor="start" x="247.3931" y="-178.3" font-family="Arial" font-size="14.00" fill="#000000"> </text>
<text text-anchor="start" x="251.2837" y="-178.3" font-family="Arial" font-size="14.00" fill="#666666">[BASE TABLE]</text>
<polygon fill="none" stroke="#000000" points="46.5,-135.5 46.5,-165.5 351.5,-165.5 351.5,-135.5 46.5,-135.5"/>
<text text-anchor="start" x="53.5" y="-146.9" font-family="Arial" font-size="14.00" fill="#000000">UserId </text>
<text text-anchor="start" x="98.6136" y="-146.9" font-family="Arial" font-size="14.00" fill="#666666">[varchar(26)]</text>
<polygon fill="none" stroke="#000000" points="46.5,-105.5 46.5,-135.5 351.5,-135.5 351.5,-105.5 46.5,-105.5"/>
<text text-anchor="start" x="53.5" y="-116.9" font-family="Arial" font-size="14.00" fill="#000000">NoticeId </text>
<text text-anchor="start" x="108.7328" y="-116.9" font-family="Arial" font-size="14.00" fill="#666666">[varchar(26)]</text>
<polygon fill="none" stroke="#000000" points="46.5,-75.5 46.5,-105.5 351.5,-105.5 351.5,-75.5 46.5,-75.5"/>
<text text-anchor="start" x="53.5" y="-86.9" font-family="Arial" font-size="14.00" fill="#000000">Viewed </text>
<text text-anchor="start" x="103.2882" y="-86.9" font-family="Arial" font-size="14.00" fill="#666666">[int(11)]</text>
<polygon fill="none" stroke="#000000" points="46.5,-45.5 46.5,-75.5 351.5,-75.5 351.5,-45.5 46.5,-45.5"/>
<text text-anchor="start" x="53.5" y="-56.9" font-family="Arial" font-size="14.00" fill="#000000">Timestamp </text>
<text text-anchor="start" x="126.6094" y="-56.9" font-family="Arial" font-size="14.00" fill="#666666">[bigint(20)]</text>
<polygon fill="none" stroke="#000000" stroke-width="3" points="44.5,-44.5 44.5,-202.5 352.5,-202.5 352.5,-44.5 44.5,-44.5"/>
</g>
</g>
</svg>
