<?xml version="1.0" encoding="UTF-8" standalone="no"?>
<!DOCTYPE svg PUBLIC "-//W3C//DTD SVG 1.1//EN"
 "http://www.w3.org/Graphics/SVG/1.1/DTD/svg11.dtd">
<!-- Generated by graphviz version 2.40.1 (20161225.0304)
 -->
<!-- Title: public.focalboard_notification_hints Pages: 1 -->
<svg width="491pt" height="315pt"
 viewBox="0.00 0.00 491.00 315.00" xmlns="http://www.w3.org/2000/svg" xmlns:xlink="http://www.w3.org/1999/xlink">
<g id="graph0" class="graph" transform="scale(1 1) rotate(0) translate(4 311)">
<title>public.focalboard_notification_hints</title>
<polygon fill="#ffffff" stroke="transparent" points="-4,4 -4,-311 487,-311 487,4 -4,4"/>
<!-- public.focalboard_notification_hints -->
<g id="node1" class="node">
<title>public.focalboard_notification_hints</title>
<polygon fill="#efefef" stroke="transparent" points="46.5,-225.5 46.5,-260.5 437.5,-260.5 437.5,-225.5 46.5,-225.5"/>
<polygon fill="none" stroke="#000000" points="46.5,-225.5 46.5,-260.5 437.5,-260.5 437.5,-225.5 46.5,-225.5"/>
<text text-anchor="start" x="53.3349" y="-238.3" font-family="Arial Bold" font-size="18.00" fill="#000000">public.focalboard_notification_hints</text>
<text text-anchor="start" x="333.4113" y="-238.3" font-family="Arial" font-size="14.00" fill="#000000"> </text>
<text text-anchor="start" x="337.3019" y="-238.3" font-family="Arial" font-size="14.00" fill="#666666">[BASE TABLE]</text>
<polygon fill="none" stroke="#000000" points="46.5,-195.5 46.5,-225.5 437.5,-225.5 437.5,-195.5 46.5,-195.5"/>
<text text-anchor="start" x="53.5" y="-206.9" font-family="Arial" font-size="14.00" fill="#000000">block_type </text>
<text text-anchor="start" x="124.3008" y="-206.9" font-family="Arial" font-size="14.00" fill="#666666">[varchar(10)]</text>
<polygon fill="none" stroke="#000000" points="46.5,-165.5 46.5,-195.5 437.5,-195.5 437.5,-165.5 46.5,-165.5"/>
<text text-anchor="start" x="53.5" y="-176.9" font-family="Arial" font-size="14.00" fill="#000000">block_id </text>
<text text-anchor="start" x="108.7342" y="-176.9" font-family="Arial" font-size="14.00" fill="#666666">[varchar(36)]</text>
<polygon fill="none" stroke="#000000" points="46.5,-135.5 46.5,-165.5 437.5,-165.5 437.5,-135.5 46.5,-135.5"/>
<text text-anchor="start" x="53.5" y="-146.9" font-family="Arial" font-size="14.00" fill="#000000">workspace_id </text>
<text text-anchor="start" x="142.96" y="-146.9" font-family="Arial" font-size="14.00" fill="#666666">[varchar(36)]</text>
<polygon fill="none" stroke="#000000" points="46.5,-105.5 46.5,-135.5 437.5,-135.5 437.5,-105.5 46.5,-105.5"/>
<text text-anchor="start" x="53.5" y="-116.9" font-family="Arial" font-size="14.00" fill="#000000">modified_by_id </text>
<text text-anchor="start" x="151.5224" y="-116.9" font-family="Arial" font-size="14.00" fill="#666666">[varchar(36)]</text>
<polygon fill="none" stroke="#000000" points="46.5,-75.5 46.5,-105.5 437.5,-105.5 437.5,-75.5 46.5,-75.5"/>
<text text-anchor="start" x="53.5" y="-86.9" font-family="Arial" font-size="14.00" fill="#000000">create_at </text>
<text text-anchor="start" x="115.7454" y="-86.9" font-family="Arial" font-size="14.00" fill="#666666">[bigint]</text>
<polygon fill="none" stroke="#000000" points="46.5,-45.5 46.5,-75.5 437.5,-75.5 437.5,-45.5 46.5,-45.5"/>
<text text-anchor="start" x="53.5" y="-56.9" font-family="Arial" font-size="14.00" fill="#000000">notify_at </text>
<text text-anchor="start" x="110.2994" y="-56.9" font-family="Arial" font-size="14.00" fill="#666666">[bigint]</text>
<polygon fill="none" stroke="#000000" stroke-width="3" points="44.5,-44.5 44.5,-262.5 438.5,-262.5 438.5,-44.5 44.5,-44.5"/>
</g>
</g>
</svg>
