<?xml version="1.0" encoding="UTF-8" standalone="no"?>
<!DOCTYPE svg PUBLIC "-//W3C//DTD SVG 1.1//EN"
 "http://www.w3.org/Graphics/SVG/1.1/DTD/svg11.dtd">
<!-- Generated by graphviz version 2.40.1 (20161225.0304)
 -->
<!-- Title: public.focalboard_board_members_history Pages: 1 -->
<svg width="598pt" height="1192pt"
 viewBox="0.00 0.00 597.50 1192.00" xmlns="http://www.w3.org/2000/svg" xmlns:xlink="http://www.w3.org/1999/xlink">
<g id="graph0" class="graph" transform="scale(1 1) rotate(0) translate(4 1188)">
<title>public.focalboard_board_members_history</title>
<polygon fill="#ffffff" stroke="transparent" points="-4,4 -4,-1188 593.5,-1188 593.5,4 -4,4"/>
<!-- public.focalboard_board_members_history -->
<g id="node1" class="node">
<title>public.focalboard_board_members_history</title>
<polygon fill="#efefef" stroke="transparent" points="93,-1102.5 93,-1137.5 544,-1137.5 544,-1102.5 93,-1102.5"/>
<polygon fill="none" stroke="#000000" points="93,-1102.5 93,-1137.5 544,-1137.5 544,-1102.5 93,-1102.5"/>
<text text-anchor="start" x="99.8397" y="-1115.3" font-family="Arial Bold" font-size="18.00" fill="#000000">public.focalboard_board_members_history</text>
<text text-anchor="start" x="439.9065" y="-1115.3" font-family="Arial" font-size="14.00" fill="#000000"> </text>
<text text-anchor="start" x="443.7971" y="-1115.3" font-family="Arial" font-size="14.00" fill="#666666">[BASE TABLE]</text>
<polygon fill="none" stroke="#000000" points="93,-1072.5 93,-1102.5 544,-1102.5 544,-1072.5 93,-1072.5"/>
<text text-anchor="start" x="100" y="-1083.9" font-family="Arial" font-size="14.00" fill="#000000">board_id </text>
<text text-anchor="start" x="158.3534" y="-1083.9" font-family="Arial" font-size="14.00" fill="#666666">[varchar(36)]</text>
<polygon fill="none" stroke="#000000" points="93,-1042.5 93,-1072.5 544,-1072.5 544,-1042.5 93,-1042.5"/>
<text text-anchor="start" x="100" y="-1053.9" font-family="Arial" font-size="14.00" fill="#000000">user_id </text>
<text text-anchor="start" x="149.7882" y="-1053.9" font-family="Arial" font-size="14.00" fill="#666666">[varchar(36)]</text>
<polygon fill="none" stroke="#000000" points="93,-1012.5 93,-1042.5 544,-1042.5 544,-1012.5 93,-1012.5"/>
<text text-anchor="start" x="100" y="-1023.9" font-family="Arial" font-size="14.00" fill="#000000">action </text>
<text text-anchor="start" x="141.2356" y="-1023.9" font-family="Arial" font-size="14.00" fill="#666666">[varchar(10)]</text>
<polygon fill="none" stroke="#000000" points="93,-982.5 93,-1012.5 544,-1012.5 544,-982.5 93,-982.5"/>
<text text-anchor="start" x="100" y="-993.9" font-family="Arial" font-size="14.00" fill="#000000">insert_at </text>
<text text-anchor="start" x="157.5694" y="-993.9" font-family="Arial" font-size="14.00" fill="#666666">[timestamp with time zone]</text>
<polygon fill="none" stroke="#000000" stroke-width="3" points="91,-981.5 91,-1139.5 545,-1139.5 545,-981.5 91,-981.5"/>
</g>
<!-- public.users -->
<g id="node2" class="node">
<title>public.users</title>
<polygon fill="#efefef" stroke="transparent" points="215,-822.5 215,-857.5 422,-857.5 422,-822.5 215,-822.5"/>
<polygon fill="none" stroke="#000000" points="215,-822.5 215,-857.5 422,-857.5 422,-822.5 215,-822.5"/>
<text text-anchor="start" x="221.8662" y="-835.3" font-family="Arial Bold" font-size="18.00" fill="#000000">public.users</text>
<text text-anchor="start" x="317.88" y="-835.3" font-family="Arial" font-size="14.00" fill="#000000"> </text>
<text text-anchor="start" x="321.7706" y="-835.3" font-family="Arial" font-size="14.00" fill="#666666">[BASE TABLE]</text>
<polygon fill="none" stroke="#000000" points="215,-792.5 215,-822.5 422,-822.5 422,-792.5 215,-792.5"/>
<text text-anchor="start" x="222" y="-803.9" font-family="Arial" font-size="14.00" fill="#000000">id </text>
<text text-anchor="start" x="236.7798" y="-803.9" font-family="Arial" font-size="14.00" fill="#666666">[varchar(26)]</text>
<polygon fill="none" stroke="#000000" points="215,-762.5 215,-792.5 422,-792.5 422,-762.5 215,-762.5"/>
<text text-anchor="start" x="222" y="-773.9" font-family="Arial" font-size="14.00" fill="#000000">createat </text>
<text text-anchor="start" x="276.4628" y="-773.9" font-family="Arial" font-size="14.00" fill="#666666">[bigint]</text>
<polygon fill="none" stroke="#000000" points="215,-732.5 215,-762.5 422,-762.5 422,-732.5 215,-732.5"/>
<text text-anchor="start" x="222" y="-743.9" font-family="Arial" font-size="14.00" fill="#000000">updateat </text>
<text text-anchor="start" x="280.3674" y="-743.9" font-family="Arial" font-size="14.00" fill="#666666">[bigint]</text>
<polygon fill="none" stroke="#000000" points="215,-702.5 215,-732.5 422,-732.5 422,-702.5 215,-702.5"/>
<text text-anchor="start" x="222" y="-713.9" font-family="Arial" font-size="14.00" fill="#000000">deleteat </text>
<text text-anchor="start" x="275.6914" y="-713.9" font-family="Arial" font-size="14.00" fill="#666666">[bigint]</text>
<polygon fill="none" stroke="#000000" points="215,-672.5 215,-702.5 422,-702.5 422,-672.5 215,-672.5"/>
<text text-anchor="start" x="222" y="-683.9" font-family="Arial" font-size="14.00" fill="#000000">username </text>
<text text-anchor="start" x="288.1248" y="-683.9" font-family="Arial" font-size="14.00" fill="#666666">[varchar(64)]</text>
<polygon fill="none" stroke="#000000" points="215,-642.5 215,-672.5 422,-672.5 422,-642.5 215,-642.5"/>
<text text-anchor="start" x="222" y="-653.9" font-family="Arial" font-size="14.00" fill="#000000">password </text>
<text text-anchor="start" x="285.7882" y="-653.9" font-family="Arial" font-size="14.00" fill="#666666">[varchar(128)]</text>
<polygon fill="none" stroke="#000000" points="215,-612.5 215,-642.5 422,-642.5 422,-612.5 215,-612.5"/>
<text text-anchor="start" x="222" y="-623.9" font-family="Arial" font-size="14.00" fill="#000000">authdata </text>
<text text-anchor="start" x="280.3674" y="-623.9" font-family="Arial" font-size="14.00" fill="#666666">[varchar(128)]</text>
<polygon fill="none" stroke="#000000" points="215,-582.5 215,-612.5 422,-612.5 422,-582.5 215,-582.5"/>
<text text-anchor="start" x="222" y="-593.9" font-family="Arial" font-size="14.00" fill="#000000">authservice </text>
<text text-anchor="start" x="297.4614" y="-593.9" font-family="Arial" font-size="14.00" fill="#666666">[varchar(32)]</text>
<polygon fill="none" stroke="#000000" points="215,-552.5 215,-582.5 422,-582.5 422,-552.5 215,-552.5"/>
<text text-anchor="start" x="222" y="-563.9" font-family="Arial" font-size="14.00" fill="#000000">email </text>
<text text-anchor="start" x="259.3296" y="-563.9" font-family="Arial" font-size="14.00" fill="#666666">[varchar(128)]</text>
<polygon fill="none" stroke="#000000" points="215,-522.5 215,-552.5 422,-552.5 422,-522.5 215,-522.5"/>
<text text-anchor="start" x="222" y="-533.9" font-family="Arial" font-size="14.00" fill="#000000">emailverified </text>
<text text-anchor="start" x="304.4418" y="-533.9" font-family="Arial" font-size="14.00" fill="#666666">[boolean]</text>
<polygon fill="none" stroke="#000000" points="215,-492.5 215,-522.5 422,-522.5 422,-492.5 215,-492.5"/>
<text text-anchor="start" x="222" y="-503.9" font-family="Arial" font-size="14.00" fill="#000000">nickname </text>
<text text-anchor="start" x="285.7882" y="-503.9" font-family="Arial" font-size="14.00" fill="#666666">[varchar(64)]</text>
<polygon fill="none" stroke="#000000" points="215,-462.5 215,-492.5 422,-492.5 422,-462.5 215,-462.5"/>
<text text-anchor="start" x="222" y="-473.9" font-family="Arial" font-size="14.00" fill="#000000">firstname </text>
<text text-anchor="start" x="283.4474" y="-473.9" font-family="Arial" font-size="14.00" fill="#666666">[varchar(64)]</text>
<polygon fill="none" stroke="#000000" points="215,-432.5 215,-462.5 422,-462.5 422,-432.5 215,-432.5"/>
<text text-anchor="start" x="222" y="-443.9" font-family="Arial" font-size="14.00" fill="#000000">lastname </text>
<text text-anchor="start" x="282.6788" y="-443.9" font-family="Arial" font-size="14.00" fill="#666666">[varchar(64)]</text>
<polygon fill="none" stroke="#000000" points="215,-402.5 215,-432.5 422,-432.5 422,-402.5 215,-402.5"/>
<text text-anchor="start" x="222" y="-413.9" font-family="Arial" font-size="14.00" fill="#000000">roles </text>
<text text-anchor="start" x="256.223" y="-413.9" font-family="Arial" font-size="14.00" fill="#666666">[varchar(256)]</text>
<polygon fill="none" stroke="#000000" points="215,-372.5 215,-402.5 422,-402.5 422,-372.5 215,-372.5"/>
<text text-anchor="start" x="222" y="-383.9" font-family="Arial" font-size="14.00" fill="#000000">allowmarketing </text>
<text text-anchor="start" x="319.2244" y="-383.9" font-family="Arial" font-size="14.00" fill="#666666">[boolean]</text>
<polygon fill="none" stroke="#000000" points="215,-342.5 215,-372.5 422,-372.5 422,-342.5 215,-342.5"/>
<text text-anchor="start" x="222" y="-353.9" font-family="Arial" font-size="14.00" fill="#000000">props </text>
<text text-anchor="start" x="260.899" y="-353.9" font-family="Arial" font-size="14.00" fill="#666666">[jsonb]</text>
<polygon fill="none" stroke="#000000" points="215,-312.5 215,-342.5 422,-342.5 422,-312.5 215,-312.5"/>
<text text-anchor="start" x="222" y="-323.9" font-family="Arial" font-size="14.00" fill="#000000">notifyprops </text>
<text text-anchor="start" x="294.352" y="-323.9" font-family="Arial" font-size="14.00" fill="#666666">[jsonb]</text>
<polygon fill="none" stroke="#000000" points="215,-282.5 215,-312.5 422,-312.5 422,-282.5 215,-282.5"/>
<text text-anchor="start" x="222" y="-293.9" font-family="Arial" font-size="14.00" fill="#000000">lastpasswordupdate </text>
<text text-anchor="start" x="350.3716" y="-293.9" font-family="Arial" font-size="14.00" fill="#666666">[bigint]</text>
<polygon fill="none" stroke="#000000" points="215,-252.5 215,-282.5 422,-282.5 422,-252.5 215,-252.5"/>
<text text-anchor="start" x="222" y="-263.9" font-family="Arial" font-size="14.00" fill="#000000">lastpictureupdate </text>
<text text-anchor="start" x="332.4796" y="-263.9" font-family="Arial" font-size="14.00" fill="#666666">[bigint]</text>
<polygon fill="none" stroke="#000000" points="215,-222.5 215,-252.5 422,-252.5 422,-222.5 215,-222.5"/>
<text text-anchor="start" x="222" y="-233.9" font-family="Arial" font-size="14.00" fill="#000000">failedattempts </text>
<text text-anchor="start" x="313.0224" y="-233.9" font-family="Arial" font-size="14.00" fill="#666666">[integer]</text>
<polygon fill="none" stroke="#000000" points="215,-192.5 215,-222.5 422,-222.5 422,-192.5 215,-192.5"/>
<text text-anchor="start" x="222" y="-203.9" font-family="Arial" font-size="14.00" fill="#000000">locale </text>
<text text-anchor="start" x="262.4516" y="-203.9" font-family="Arial" font-size="14.00" fill="#666666">[varchar(5)]</text>
<polygon fill="none" stroke="#000000" points="215,-162.5 215,-192.5 422,-192.5 422,-162.5 215,-162.5"/>
<text text-anchor="start" x="222" y="-173.9" font-family="Arial" font-size="14.00" fill="#000000">mfaactive </text>
<text text-anchor="start" x="285.7868" y="-173.9" font-family="Arial" font-size="14.00" fill="#666666">[boolean]</text>
<polygon fill="none" stroke="#000000" points="215,-132.5 215,-162.5 422,-162.5 422,-132.5 215,-132.5"/>
<text text-anchor="start" x="222" y="-143.9" font-family="Arial" font-size="14.00" fill="#000000">mfasecret </text>
<text text-anchor="start" x="287.3408" y="-143.9" font-family="Arial" font-size="14.00" fill="#666666">[varchar(128)]</text>
<polygon fill="none" stroke="#000000" points="215,-102.5 215,-132.5 422,-132.5 422,-102.5 215,-102.5"/>
<text text-anchor="start" x="222" y="-113.9" font-family="Arial" font-size="14.00" fill="#000000">position </text>
<text text-anchor="start" x="274.1248" y="-113.9" font-family="Arial" font-size="14.00" fill="#666666">[varchar(128)]</text>
<polygon fill="none" stroke="#000000" points="215,-72.5 215,-102.5 422,-102.5 422,-72.5 215,-72.5"/>
<text text-anchor="start" x="222" y="-83.9" font-family="Arial" font-size="14.00" fill="#000000">timezone </text>
<text text-anchor="start" x="282.6788" y="-83.9" font-family="Arial" font-size="14.00" fill="#666666">[jsonb]</text>
<polygon fill="none" stroke="#000000" points="215,-42.5 215,-72.5 422,-72.5 422,-42.5 215,-42.5"/>
<text text-anchor="start" x="222" y="-53.9" font-family="Arial" font-size="14.00" fill="#000000">remoteid </text>
<text text-anchor="start" x="280.3394" y="-53.9" font-family="Arial" font-size="14.00" fill="#666666">[varchar(26)]</text>
</g>
<!-- public.focalboard_board_members_history&#45;&gt;public.users -->
<g id="edge1" class="edge">
<title>public.focalboard_board_members_history:user_id&#45;&gt;public.users:id</title>
<path fill="none" stroke="#000000" stroke-dasharray="5,2" d="M82.76,-1056.8688C-23.4856,-1043.0661 94.9867,-807.5 215,-807.5"/>
<polygon fill="#000000" stroke="#000000" points="83.0189,-1056.8847 92.7231,-1061.9915 88.0095,-1057.1924 93,-1057.5 93,-1057.5 93,-1057.5 88.0095,-1057.1924 93.2769,-1053.0085 83.0189,-1056.8847 83.0189,-1056.8847"/>
<text text-anchor="start" x="7.268" y="-1067.5" font-family="Arial" font-size="10.00" fill="#000000">Detected Relation</text>
</g>
</g>
</svg>
