<?xml version="1.0" encoding="UTF-8" standalone="no"?>
<!DOCTYPE svg PUBLIC "-//W3C//DTD SVG 1.1//EN"
 "http://www.w3.org/Graphics/SVG/1.1/DTD/svg11.dtd">
<!-- Generated by graphviz version 2.40.1 (20161225.0304)
 -->
<!-- Title: public.retentionpolicieschannels Pages: 1 -->
<svg width="815pt" height="442pt"
 viewBox="0.00 0.00 814.50 442.00" xmlns="http://www.w3.org/2000/svg" xmlns:xlink="http://www.w3.org/1999/xlink">
<g id="graph0" class="graph" transform="scale(1 1) rotate(0) translate(4 438)">
<title>public.retentionpolicieschannels</title>
<polygon fill="#ffffff" stroke="transparent" points="-4,4 -4,-438 810.5,-438 810.5,4 -4,4"/>
<!-- public.retentionpolicieschannels -->
<g id="node1" class="node">
<title>public.retentionpolicieschannels</title>
<polygon fill="#efefef" stroke="transparent" points="396,-352.5 396,-387.5 761,-387.5 761,-352.5 396,-352.5"/>
<polygon fill="none" stroke="#000000" points="396,-352.5 396,-387.5 761,-387.5 761,-352.5 396,-352.5"/>
<text text-anchor="start" x="402.8444" y="-365.3" font-family="Arial Bold" font-size="18.00" fill="#000000">public.retentionpolicieschannels</text>
<text text-anchor="start" x="656.9018" y="-365.3" font-family="Arial" font-size="14.00" fill="#000000"> </text>
<text text-anchor="start" x="660.7924" y="-365.3" font-family="Arial" font-size="14.00" fill="#666666">[BASE TABLE]</text>
<polygon fill="none" stroke="#000000" points="396,-322.5 396,-352.5 761,-352.5 761,-322.5 396,-322.5"/>
<text text-anchor="start" x="403" y="-333.9" font-family="Arial" font-size="14.00" fill="#000000">policyid </text>
<text text-anchor="start" x="453.5582" y="-333.9" font-family="Arial" font-size="14.00" fill="#666666">[varchar(26)]</text>
<polygon fill="none" stroke="#000000" points="396,-292.5 396,-322.5 761,-322.5 761,-292.5 396,-292.5"/>
<text text-anchor="start" x="403" y="-303.9" font-family="Arial" font-size="14.00" fill="#000000">channelid </text>
<text text-anchor="start" x="466.7994" y="-303.9" font-family="Arial" font-size="14.00" fill="#666666">[varchar(26)]</text>
<polygon fill="none" stroke="#000000" stroke-width="3" points="394,-291.5 394,-389.5 762,-389.5 762,-291.5 394,-291.5"/>
</g>
<!-- public.retentionpolicies -->
<g id="node2" class="node">
<title>public.retentionpolicies</title>
<polygon fill="#efefef" stroke="transparent" points="432,-132.5 432,-167.5 725,-167.5 725,-132.5 432,-132.5"/>
<polygon fill="none" stroke="#000000" points="432,-132.5 432,-167.5 725,-167.5 725,-132.5 432,-132.5"/>
<text text-anchor="start" x="438.857" y="-145.3" font-family="Arial Bold" font-size="18.00" fill="#000000">public.retentionpolicies</text>
<text text-anchor="start" x="620.8892" y="-145.3" font-family="Arial" font-size="14.00" fill="#000000"> </text>
<text text-anchor="start" x="624.7798" y="-145.3" font-family="Arial" font-size="14.00" fill="#666666">[BASE TABLE]</text>
<polygon fill="none" stroke="#000000" points="432,-102.5 432,-132.5 725,-132.5 725,-102.5 432,-102.5"/>
<text text-anchor="start" x="439" y="-113.9" font-family="Arial" font-size="14.00" fill="#000000">id </text>
<text text-anchor="start" x="453.7798" y="-113.9" font-family="Arial" font-size="14.00" fill="#666666">[varchar(26)]</text>
<polygon fill="none" stroke="#000000" points="432,-72.5 432,-102.5 725,-102.5 725,-72.5 432,-72.5"/>
<text text-anchor="start" x="439" y="-83.9" font-family="Arial" font-size="14.00" fill="#000000">displayname </text>
<text text-anchor="start" x="521.46" y="-83.9" font-family="Arial" font-size="14.00" fill="#666666">[varchar(64)]</text>
<polygon fill="none" stroke="#000000" points="432,-42.5 432,-72.5 725,-72.5 725,-42.5 432,-42.5"/>
<text text-anchor="start" x="439" y="-53.9" font-family="Arial" font-size="14.00" fill="#000000">postduration </text>
<text text-anchor="start" x="519.9172" y="-53.9" font-family="Arial" font-size="14.00" fill="#666666">[bigint]</text>
</g>
<!-- public.retentionpolicieschannels&#45;&gt;public.retentionpolicies -->
<g id="edge1" class="edge">
<title>public.retentionpolicieschannels:policyid&#45;&gt;public.retentionpolicies:id</title>
<path fill="none" stroke="#000000" d="M385.7857,-336.6591C299.6057,-321.8888 336.5018,-117.5 432,-117.5"/>
<polygon fill="#000000" stroke="#000000" points="386.0337,-336.6794 395.6307,-341.9848 391.0169,-337.0897 396,-337.5 396,-337.5 396,-337.5 391.0169,-337.0897 396.3693,-333.0152 386.0337,-336.6794 386.0337,-336.6794"/>
<text text-anchor="start" x="6.8845" y="-347.5" font-family="Arial" font-size="10.00" fill="#000000">FOREIGN KEY (policyid) REFERENCES retentionpolicies(id) ON DELETE CASCADE</text>
</g>
</g>
</svg>
