<?xml version="1.0" encoding="UTF-8" standalone="no"?>
<!DOCTYPE svg PUBLIC "-//W3C//DTD SVG 1.1//EN"
 "http://www.w3.org/Graphics/SVG/1.1/DTD/svg11.dtd">
<!-- Generated by graphviz version 2.40.1 (20161225.0304)
 -->
<!-- Title: public.ir_playbook Pages: 1 -->
<svg width="1240pt" height="1792pt"
 viewBox="0.00 0.00 1239.50 1792.00" xmlns="http://www.w3.org/2000/svg" xmlns:xlink="http://www.w3.org/1999/xlink">
<g id="graph0" class="graph" transform="scale(1 1) rotate(0) translate(4 1788)">
<title>public.ir_playbook</title>
<polygon fill="#ffffff" stroke="transparent" points="-4,4 -4,-1788 1235.5,-1788 1235.5,4 -4,4"/>
<!-- public.ir_playbook -->
<g id="node1" class="node">
<title>public.ir_playbook</title>
<polygon fill="#efefef" stroke="transparent" points="483.5,-1305.5 483.5,-1340.5 789.5,-1340.5 789.5,-1305.5 483.5,-1305.5"/>
<polygon fill="none" stroke="#000000" points="483.5,-1305.5 483.5,-1340.5 789.5,-1340.5 789.5,-1305.5 483.5,-1305.5"/>
<text text-anchor="start" x="515.8596" y="-1318.3" font-family="Arial Bold" font-size="18.00" fill="#000000">public.ir_playbook</text>
<text text-anchor="start" x="659.8866" y="-1318.3" font-family="Arial" font-size="14.00" fill="#000000"> </text>
<text text-anchor="start" x="663.7772" y="-1318.3" font-family="Arial" font-size="14.00" fill="#666666">[BASE TABLE]</text>
<polygon fill="none" stroke="#000000" points="483.5,-1275.5 483.5,-1305.5 789.5,-1305.5 789.5,-1275.5 483.5,-1275.5"/>
<text text-anchor="start" x="490.5" y="-1286.9" font-family="Arial" font-size="14.00" fill="#000000">id </text>
<text text-anchor="start" x="505.2798" y="-1286.9" font-family="Arial" font-size="14.00" fill="#666666">[text]</text>
<polygon fill="none" stroke="#000000" points="483.5,-1245.5 483.5,-1275.5 789.5,-1275.5 789.5,-1245.5 483.5,-1245.5"/>
<text text-anchor="start" x="490.5" y="-1256.9" font-family="Arial" font-size="14.00" fill="#000000">title </text>
<text text-anchor="start" x="516.1676" y="-1256.9" font-family="Arial" font-size="14.00" fill="#666666">[text]</text>
<polygon fill="none" stroke="#000000" points="483.5,-1215.5 483.5,-1245.5 789.5,-1245.5 789.5,-1215.5 483.5,-1215.5"/>
<text text-anchor="start" x="490.5" y="-1226.9" font-family="Arial" font-size="14.00" fill="#000000">description </text>
<text text-anchor="start" x="562.068" y="-1226.9" font-family="Arial" font-size="14.00" fill="#666666">[text]</text>
<polygon fill="none" stroke="#000000" points="483.5,-1185.5 483.5,-1215.5 789.5,-1215.5 789.5,-1185.5 483.5,-1185.5"/>
<text text-anchor="start" x="490.5" y="-1196.9" font-family="Arial" font-size="14.00" fill="#000000">teamid </text>
<text text-anchor="start" x="536.3962" y="-1196.9" font-family="Arial" font-size="14.00" fill="#666666">[text]</text>
<polygon fill="none" stroke="#000000" points="483.5,-1155.5 483.5,-1185.5 789.5,-1185.5 789.5,-1155.5 483.5,-1155.5"/>
<text text-anchor="start" x="490.5" y="-1166.9" font-family="Arial" font-size="14.00" fill="#000000">createpublicincident </text>
<text text-anchor="start" x="618.0848" y="-1166.9" font-family="Arial" font-size="14.00" fill="#666666">[boolean]</text>
<polygon fill="none" stroke="#000000" points="483.5,-1125.5 483.5,-1155.5 789.5,-1155.5 789.5,-1125.5 483.5,-1125.5"/>
<text text-anchor="start" x="490.5" y="-1136.9" font-family="Arial" font-size="14.00" fill="#000000">createat </text>
<text text-anchor="start" x="544.9628" y="-1136.9" font-family="Arial" font-size="14.00" fill="#666666">[bigint]</text>
<polygon fill="none" stroke="#000000" points="483.5,-1095.5 483.5,-1125.5 789.5,-1125.5 789.5,-1095.5 483.5,-1095.5"/>
<text text-anchor="start" x="490.5" y="-1106.9" font-family="Arial" font-size="14.00" fill="#000000">deleteat </text>
<text text-anchor="start" x="544.1914" y="-1106.9" font-family="Arial" font-size="14.00" fill="#666666">[bigint]</text>
<polygon fill="none" stroke="#000000" points="483.5,-1065.5 483.5,-1095.5 789.5,-1095.5 789.5,-1065.5 483.5,-1065.5"/>
<text text-anchor="start" x="490.5" y="-1076.9" font-family="Arial" font-size="14.00" fill="#000000">checklistsjson </text>
<text text-anchor="start" x="580.7314" y="-1076.9" font-family="Arial" font-size="14.00" fill="#666666">[json]</text>
<polygon fill="none" stroke="#000000" points="483.5,-1035.5 483.5,-1065.5 789.5,-1065.5 789.5,-1035.5 483.5,-1035.5"/>
<text text-anchor="start" x="490.5" y="-1046.9" font-family="Arial" font-size="14.00" fill="#000000">numstages </text>
<text text-anchor="start" x="562.8548" y="-1046.9" font-family="Arial" font-size="14.00" fill="#666666">[bigint]</text>
<polygon fill="none" stroke="#000000" points="483.5,-1005.5 483.5,-1035.5 789.5,-1035.5 789.5,-1005.5 483.5,-1005.5"/>
<text text-anchor="start" x="490.5" y="-1016.9" font-family="Arial" font-size="14.00" fill="#000000">numsteps </text>
<text text-anchor="start" x="555.0722" y="-1016.9" font-family="Arial" font-size="14.00" fill="#666666">[bigint]</text>
<polygon fill="none" stroke="#000000" points="483.5,-975.5 483.5,-1005.5 789.5,-1005.5 789.5,-975.5 483.5,-975.5"/>
<text text-anchor="start" x="490.5" y="-986.9" font-family="Arial" font-size="14.00" fill="#000000">broadcastchannelid </text>
<text text-anchor="start" x="615.7636" y="-986.9" font-family="Arial" font-size="14.00" fill="#666666">[text]</text>
<polygon fill="none" stroke="#000000" points="483.5,-945.5 483.5,-975.5 789.5,-975.5 789.5,-945.5 483.5,-945.5"/>
<text text-anchor="start" x="490.5" y="-956.9" font-family="Arial" font-size="14.00" fill="#000000">remindermessagetemplate </text>
<text text-anchor="start" x="660.0792" y="-956.9" font-family="Arial" font-size="14.00" fill="#666666">[text]</text>
<polygon fill="none" stroke="#000000" points="483.5,-915.5 483.5,-945.5 789.5,-945.5 789.5,-915.5 483.5,-915.5"/>
<text text-anchor="start" x="490.5" y="-926.9" font-family="Arial" font-size="14.00" fill="#000000">remindertimerdefaultseconds </text>
<text text-anchor="start" x="674.859" y="-926.9" font-family="Arial" font-size="14.00" fill="#666666">[bigint]</text>
<polygon fill="none" stroke="#000000" points="483.5,-885.5 483.5,-915.5 789.5,-915.5 789.5,-885.5 483.5,-885.5"/>
<text text-anchor="start" x="490.5" y="-896.9" font-family="Arial" font-size="14.00" fill="#000000">concatenatedinviteduserids </text>
<text text-anchor="start" x="663.9992" y="-896.9" font-family="Arial" font-size="14.00" fill="#666666">[text]</text>
<polygon fill="none" stroke="#000000" points="483.5,-855.5 483.5,-885.5 789.5,-885.5 789.5,-855.5 483.5,-855.5"/>
<text text-anchor="start" x="490.5" y="-866.9" font-family="Arial" font-size="14.00" fill="#000000">inviteusersenabled </text>
<text text-anchor="start" x="611.0876" y="-866.9" font-family="Arial" font-size="14.00" fill="#666666">[boolean]</text>
<polygon fill="none" stroke="#000000" points="483.5,-825.5 483.5,-855.5 789.5,-855.5 789.5,-825.5 483.5,-825.5"/>
<text text-anchor="start" x="490.5" y="-836.9" font-family="Arial" font-size="14.00" fill="#000000">defaultcommanderid </text>
<text text-anchor="start" x="621.1928" y="-836.9" font-family="Arial" font-size="14.00" fill="#666666">[text]</text>
<polygon fill="none" stroke="#000000" points="483.5,-795.5 483.5,-825.5 789.5,-825.5 789.5,-795.5 483.5,-795.5"/>
<text text-anchor="start" x="490.5" y="-806.9" font-family="Arial" font-size="14.00" fill="#000000">defaultcommanderenabled </text>
<text text-anchor="start" x="660.1058" y="-806.9" font-family="Arial" font-size="14.00" fill="#666666">[boolean]</text>
<polygon fill="none" stroke="#000000" points="483.5,-765.5 483.5,-795.5 789.5,-795.5 789.5,-765.5 483.5,-765.5"/>
<text text-anchor="start" x="490.5" y="-776.9" font-family="Arial" font-size="14.00" fill="#000000">announcementchannelid </text>
<text text-anchor="start" x="646.894" y="-776.9" font-family="Arial" font-size="14.00" fill="#666666">[text]</text>
<polygon fill="none" stroke="#000000" points="483.5,-735.5 483.5,-765.5 789.5,-765.5 789.5,-735.5 483.5,-735.5"/>
<text text-anchor="start" x="490.5" y="-746.9" font-family="Arial" font-size="14.00" fill="#000000">announcementchannelenabled </text>
<text text-anchor="start" x="685.807" y="-746.9" font-family="Arial" font-size="14.00" fill="#666666">[boolean]</text>
<polygon fill="none" stroke="#000000" points="483.5,-705.5 483.5,-735.5 789.5,-735.5 789.5,-705.5 483.5,-705.5"/>
<text text-anchor="start" x="490.5" y="-716.9" font-family="Arial" font-size="14.00" fill="#000000">concatenatedwebhookoncreationurls </text>
<text text-anchor="start" x="722.3554" y="-716.9" font-family="Arial" font-size="14.00" fill="#666666">[text]</text>
<polygon fill="none" stroke="#000000" points="483.5,-675.5 483.5,-705.5 789.5,-705.5 789.5,-675.5 483.5,-675.5"/>
<text text-anchor="start" x="490.5" y="-686.9" font-family="Arial" font-size="14.00" fill="#000000">webhookoncreationenabled </text>
<text text-anchor="start" x="665.5658" y="-686.9" font-family="Arial" font-size="14.00" fill="#666666">[boolean]</text>
<polygon fill="none" stroke="#000000" points="483.5,-645.5 483.5,-675.5 789.5,-675.5 789.5,-645.5 483.5,-645.5"/>
<text text-anchor="start" x="490.5" y="-656.9" font-family="Arial" font-size="14.00" fill="#000000">concatenatedinvitedgroupids </text>
<text text-anchor="start" x="672.5644" y="-656.9" font-family="Arial" font-size="14.00" fill="#666666">[text]</text>
<polygon fill="none" stroke="#000000" points="483.5,-615.5 483.5,-645.5 789.5,-645.5 789.5,-615.5 483.5,-615.5"/>
<text text-anchor="start" x="490.5" y="-626.9" font-family="Arial" font-size="14.00" fill="#000000">messageonjoin </text>
<text text-anchor="start" x="588.5252" y="-626.9" font-family="Arial" font-size="14.00" fill="#666666">[text]</text>
<polygon fill="none" stroke="#000000" points="483.5,-585.5 483.5,-615.5 789.5,-615.5 789.5,-585.5 483.5,-585.5"/>
<text text-anchor="start" x="490.5" y="-596.9" font-family="Arial" font-size="14.00" fill="#000000">messageonjoinenabled </text>
<text text-anchor="start" x="638.3274" y="-596.9" font-family="Arial" font-size="14.00" fill="#666666">[boolean]</text>
<polygon fill="none" stroke="#000000" points="483.5,-555.5 483.5,-585.5 789.5,-585.5 789.5,-555.5 483.5,-555.5"/>
<text text-anchor="start" x="490.5" y="-566.9" font-family="Arial" font-size="14.00" fill="#000000">retrospectivereminderintervalseconds </text>
<text text-anchor="start" x="726.974" y="-566.9" font-family="Arial" font-size="14.00" fill="#666666">[bigint]</text>
<polygon fill="none" stroke="#000000" points="483.5,-525.5 483.5,-555.5 789.5,-555.5 789.5,-525.5 483.5,-525.5"/>
<text text-anchor="start" x="490.5" y="-536.9" font-family="Arial" font-size="14.00" fill="#000000">retrospectivetemplate </text>
<text text-anchor="start" x="628.1914" y="-536.9" font-family="Arial" font-size="14.00" fill="#666666">[text]</text>
<polygon fill="none" stroke="#000000" points="483.5,-495.5 483.5,-525.5 789.5,-525.5 789.5,-495.5 483.5,-495.5"/>
<text text-anchor="start" x="490.2189" y="-506.9" font-family="Arial" font-size="14.00" fill="#000000">concatenatedwebhookonstatusupdateurls </text>
<text text-anchor="start" x="752.4361" y="-506.9" font-family="Arial" font-size="14.00" fill="#666666">[text]</text>
<polygon fill="none" stroke="#000000" points="483.5,-465.5 483.5,-495.5 789.5,-495.5 789.5,-465.5 483.5,-465.5"/>
<text text-anchor="start" x="490.5" y="-476.9" font-family="Arial" font-size="14.00" fill="#000000">webhookonstatusupdateenabled </text>
<text text-anchor="start" x="695.9276" y="-476.9" font-family="Arial" font-size="14.00" fill="#666666">[boolean]</text>
<polygon fill="none" stroke="#000000" points="483.5,-435.5 483.5,-465.5 789.5,-465.5 789.5,-435.5 483.5,-435.5"/>
<text text-anchor="start" x="490.5" y="-446.9" font-family="Arial" font-size="14.00" fill="#000000">concatenatedsignalanykeywords </text>
<text text-anchor="start" x="696.6738" y="-446.9" font-family="Arial" font-size="14.00" fill="#666666">[text]</text>
<polygon fill="none" stroke="#000000" points="483.5,-405.5 483.5,-435.5 789.5,-435.5 789.5,-405.5 483.5,-405.5"/>
<text text-anchor="start" x="490.5" y="-416.9" font-family="Arial" font-size="14.00" fill="#000000">signalanykeywordsenabled </text>
<text text-anchor="start" x="662.434" y="-416.9" font-family="Arial" font-size="14.00" fill="#666666">[boolean]</text>
<polygon fill="none" stroke="#000000" points="483.5,-375.5 483.5,-405.5 789.5,-405.5 789.5,-375.5 483.5,-375.5"/>
<text text-anchor="start" x="490.5" y="-386.9" font-family="Arial" font-size="14.00" fill="#000000">updateat </text>
<text text-anchor="start" x="548.8674" y="-386.9" font-family="Arial" font-size="14.00" fill="#666666">[bigint]</text>
<polygon fill="none" stroke="#000000" points="483.5,-345.5 483.5,-375.5 789.5,-375.5 789.5,-345.5 483.5,-345.5"/>
<text text-anchor="start" x="490.5" y="-356.9" font-family="Arial" font-size="14.00" fill="#000000">exportchannelonfinishedenabled </text>
<text text-anchor="start" x="695.9108" y="-356.9" font-family="Arial" font-size="14.00" fill="#666666">[boolean]</text>
<polygon fill="none" stroke="#000000" points="483.5,-315.5 483.5,-345.5 789.5,-345.5 789.5,-315.5 483.5,-315.5"/>
<text text-anchor="start" x="490.5" y="-326.9" font-family="Arial" font-size="14.00" fill="#000000">categorizechannelenabled </text>
<text text-anchor="start" x="657.7832" y="-326.9" font-family="Arial" font-size="14.00" fill="#666666">[boolean]</text>
<polygon fill="none" stroke="#000000" points="483.5,-285.5 483.5,-315.5 789.5,-315.5 789.5,-285.5 483.5,-285.5"/>
<text text-anchor="start" x="490.5" y="-296.9" font-family="Arial" font-size="14.00" fill="#000000">categoryname </text>
<text text-anchor="start" x="583.0806" y="-296.9" font-family="Arial" font-size="14.00" fill="#666666">[text]</text>
<polygon fill="none" stroke="#000000" points="483.5,-255.5 483.5,-285.5 789.5,-285.5 789.5,-255.5 483.5,-255.5"/>
<text text-anchor="start" x="490.5" y="-266.9" font-family="Arial" font-size="14.00" fill="#000000">concatenatedbroadcastchannelids </text>
<text text-anchor="start" x="706.8056" y="-266.9" font-family="Arial" font-size="14.00" fill="#666666">[text]</text>
<polygon fill="none" stroke="#000000" points="483.5,-225.5 483.5,-255.5 789.5,-255.5 789.5,-225.5 483.5,-225.5"/>
<text text-anchor="start" x="490.5" y="-236.9" font-family="Arial" font-size="14.00" fill="#000000">broadcastenabled </text>
<text text-anchor="start" x="605.657" y="-236.9" font-family="Arial" font-size="14.00" fill="#666666">[boolean]</text>
<polygon fill="none" stroke="#000000" points="483.5,-195.5 483.5,-225.5 789.5,-225.5 789.5,-195.5 483.5,-195.5"/>
<text text-anchor="start" x="490.5" y="-206.9" font-family="Arial" font-size="14.00" fill="#000000">runsummarytemplate </text>
<text text-anchor="start" x="625.8422" y="-206.9" font-family="Arial" font-size="14.00" fill="#666666">[text]</text>
<polygon fill="none" stroke="#000000" points="483.5,-165.5 483.5,-195.5 789.5,-195.5 789.5,-165.5 483.5,-165.5"/>
<text text-anchor="start" x="490.5" y="-176.9" font-family="Arial" font-size="14.00" fill="#000000">channelnametemplate </text>
<text text-anchor="start" x="632.0974" y="-176.9" font-family="Arial" font-size="14.00" fill="#666666">[text]</text>
<polygon fill="none" stroke="#000000" points="483.5,-135.5 483.5,-165.5 789.5,-165.5 789.5,-135.5 483.5,-135.5"/>
<text text-anchor="start" x="490.5" y="-146.9" font-family="Arial" font-size="14.00" fill="#000000">statusupdateenabled </text>
<text text-anchor="start" x="624.3428" y="-146.9" font-family="Arial" font-size="14.00" fill="#666666">[boolean]</text>
<polygon fill="none" stroke="#000000" points="483.5,-105.5 483.5,-135.5 789.5,-135.5 789.5,-105.5 483.5,-105.5"/>
<text text-anchor="start" x="490.5" y="-116.9" font-family="Arial" font-size="14.00" fill="#000000">retrospectiveenabled </text>
<text text-anchor="start" x="624.3148" y="-116.9" font-family="Arial" font-size="14.00" fill="#666666">[boolean]</text>
<polygon fill="none" stroke="#000000" points="483.5,-75.5 483.5,-105.5 789.5,-105.5 789.5,-75.5 483.5,-75.5"/>
<text text-anchor="start" x="490.5" y="-86.9" font-family="Arial" font-size="14.00" fill="#000000">public </text>
<text text-anchor="start" x="530.9516" y="-86.9" font-family="Arial" font-size="14.00" fill="#666666">[boolean]</text>
<polygon fill="none" stroke="#000000" points="483.5,-45.5 483.5,-75.5 789.5,-75.5 789.5,-45.5 483.5,-45.5"/>
<text text-anchor="start" x="490.5" y="-56.9" font-family="Arial" font-size="14.00" fill="#000000">runsummarytemplateenabled </text>
<text text-anchor="start" x="675.6444" y="-56.9" font-family="Arial" font-size="14.00" fill="#666666">[boolean]</text>
<polygon fill="none" stroke="#000000" stroke-width="3" points="482,-44.5 482,-1342.5 791,-1342.5 791,-44.5 482,-44.5"/>
</g>
<!-- public.ir_playbookmember -->
<g id="node2" class="node">
<title>public.ir_playbookmember</title>
<polygon fill="#efefef" stroke="transparent" points="43.5,-1630.5 43.5,-1665.5 364.5,-1665.5 364.5,-1630.5 43.5,-1630.5"/>
<polygon fill="none" stroke="#000000" points="43.5,-1630.5 43.5,-1665.5 364.5,-1665.5 364.5,-1630.5 43.5,-1630.5"/>
<text text-anchor="start" x="50.362" y="-1643.3" font-family="Arial Bold" font-size="18.00" fill="#000000">public.ir_playbookmember</text>
<text text-anchor="start" x="260.3842" y="-1643.3" font-family="Arial" font-size="14.00" fill="#000000"> </text>
<text text-anchor="start" x="264.2748" y="-1643.3" font-family="Arial" font-size="14.00" fill="#666666">[BASE TABLE]</text>
<polygon fill="none" stroke="#000000" points="43.5,-1600.5 43.5,-1630.5 364.5,-1630.5 364.5,-1600.5 43.5,-1600.5"/>
<text text-anchor="start" x="50.5" y="-1611.9" font-family="Arial" font-size="14.00" fill="#000000">playbookid </text>
<text text-anchor="start" x="121.2994" y="-1611.9" font-family="Arial" font-size="14.00" fill="#666666">[text]</text>
<polygon fill="none" stroke="#000000" points="43.5,-1570.5 43.5,-1600.5 364.5,-1600.5 364.5,-1570.5 43.5,-1570.5"/>
<text text-anchor="start" x="50.5" y="-1581.9" font-family="Arial" font-size="14.00" fill="#000000">memberid </text>
<text text-anchor="start" x="116.6094" y="-1581.9" font-family="Arial" font-size="14.00" fill="#666666">[text]</text>
<polygon fill="none" stroke="#000000" points="43.5,-1540.5 43.5,-1570.5 364.5,-1570.5 364.5,-1540.5 43.5,-1540.5"/>
<text text-anchor="start" x="50.5" y="-1551.9" font-family="Arial" font-size="14.00" fill="#000000">roles </text>
<text text-anchor="start" x="84.723" y="-1551.9" font-family="Arial" font-size="14.00" fill="#666666">[text]</text>
</g>
<!-- public.ir_playbookmember&#45;&gt;public.ir_playbook -->
<g id="edge1" class="edge">
<title>public.ir_playbookmember:playbookid&#45;&gt;public.ir_playbook:id</title>
<path fill="none" stroke="#000000" d="M374.6303,-1614.9556C447.6845,-1606.5427 386.0846,-1502.3582 416.5,-1423 440.1165,-1361.3812 417.5105,-1290.5 483.5,-1290.5"/>
<polygon fill="#000000" stroke="#000000" points="374.4856,-1614.9632 364.2585,-1611.0065 369.4928,-1615.2316 364.5,-1615.5 364.5,-1615.5 364.5,-1615.5 369.4928,-1615.2316 364.7415,-1619.9935 374.4856,-1614.9632 374.4856,-1614.9632"/>
<text text-anchor="start" x="371.9935" y="-1625.5" font-family="Arial" font-size="10.00" fill="#000000">FOREIGN KEY (playbookid) REFERENCES ir_playbook(id)</text>
</g>
<!-- public.ir_playbookautofollow -->
<g id="node3" class="node">
<title>public.ir_playbookautofollow</title>
<polygon fill="#efefef" stroke="transparent" points="468.5,-1615.5 468.5,-1650.5 804.5,-1650.5 804.5,-1615.5 468.5,-1615.5"/>
<polygon fill="none" stroke="#000000" points="468.5,-1615.5 468.5,-1650.5 804.5,-1650.5 804.5,-1615.5 468.5,-1615.5"/>
<text text-anchor="start" x="475.3506" y="-1628.3" font-family="Arial Bold" font-size="18.00" fill="#000000">public.ir_playbookautofollow</text>
<text text-anchor="start" x="700.3956" y="-1628.3" font-family="Arial" font-size="14.00" fill="#000000"> </text>
<text text-anchor="start" x="704.2862" y="-1628.3" font-family="Arial" font-size="14.00" fill="#666666">[BASE TABLE]</text>
<polygon fill="none" stroke="#000000" points="468.5,-1585.5 468.5,-1615.5 804.5,-1615.5 804.5,-1585.5 468.5,-1585.5"/>
<text text-anchor="start" x="475.5" y="-1596.9" font-family="Arial" font-size="14.00" fill="#000000">playbookid </text>
<text text-anchor="start" x="546.2994" y="-1596.9" font-family="Arial" font-size="14.00" fill="#666666">[text]</text>
<polygon fill="none" stroke="#000000" points="468.5,-1555.5 468.5,-1585.5 804.5,-1585.5 804.5,-1555.5 468.5,-1555.5"/>
<text text-anchor="start" x="475.5" y="-1566.9" font-family="Arial" font-size="14.00" fill="#000000">userid </text>
<text text-anchor="start" x="517.5056" y="-1566.9" font-family="Arial" font-size="14.00" fill="#666666">[text]</text>
</g>
<!-- public.ir_playbookautofollow&#45;&gt;public.ir_playbook -->
<g id="edge2" class="edge">
<title>public.ir_playbookautofollow:playbookid&#45;&gt;public.ir_playbook:id</title>
<path fill="none" stroke="#000000" d="M814.3614,-1598.183C871.8069,-1569.815 854.9671,-1290.5 789.5,-1290.5"/>
<polygon fill="#000000" stroke="#000000" points="814.2349,-1598.2126 803.4707,-1596.1193 809.3674,-1599.3563 804.5,-1600.5 804.5,-1600.5 804.5,-1600.5 809.3674,-1599.3563 805.5293,-1604.8807 814.2349,-1598.2126 814.2349,-1598.2126"/>
<text text-anchor="start" x="672.4935" y="-1584.5" font-family="Arial" font-size="10.00" fill="#000000">FOREIGN KEY (playbookid) REFERENCES ir_playbook(id)</text>
</g>
<!-- public.ir_metricconfig -->
<g id="node4" class="node">
<title>public.ir_metricconfig</title>
<polygon fill="#efefef" stroke="transparent" points="908.5,-1705.5 908.5,-1740.5 1188.5,-1740.5 1188.5,-1705.5 908.5,-1705.5"/>
<polygon fill="none" stroke="#000000" points="908.5,-1705.5 908.5,-1740.5 1188.5,-1740.5 1188.5,-1705.5 908.5,-1705.5"/>
<text text-anchor="start" x="915.3712" y="-1718.3" font-family="Arial Bold" font-size="18.00" fill="#000000">public.ir_metricconfig</text>
<text text-anchor="start" x="1084.375" y="-1718.3" font-family="Arial" font-size="14.00" fill="#000000"> </text>
<text text-anchor="start" x="1088.2656" y="-1718.3" font-family="Arial" font-size="14.00" fill="#666666">[BASE TABLE]</text>
<polygon fill="none" stroke="#000000" points="908.5,-1675.5 908.5,-1705.5 1188.5,-1705.5 1188.5,-1675.5 908.5,-1675.5"/>
<text text-anchor="start" x="915.5" y="-1686.9" font-family="Arial" font-size="14.00" fill="#000000">id </text>
<text text-anchor="start" x="930.2798" y="-1686.9" font-family="Arial" font-size="14.00" fill="#666666">[text]</text>
<polygon fill="none" stroke="#000000" points="908.5,-1645.5 908.5,-1675.5 1188.5,-1675.5 1188.5,-1645.5 908.5,-1645.5"/>
<text text-anchor="start" x="915.5" y="-1656.9" font-family="Arial" font-size="14.00" fill="#000000">playbookid </text>
<text text-anchor="start" x="986.2994" y="-1656.9" font-family="Arial" font-size="14.00" fill="#666666">[text]</text>
<polygon fill="none" stroke="#000000" points="908.5,-1615.5 908.5,-1645.5 1188.5,-1645.5 1188.5,-1615.5 908.5,-1615.5"/>
<text text-anchor="start" x="915.5" y="-1626.9" font-family="Arial" font-size="14.00" fill="#000000">title </text>
<text text-anchor="start" x="941.1676" y="-1626.9" font-family="Arial" font-size="14.00" fill="#666666">[text]</text>
<polygon fill="none" stroke="#000000" points="908.5,-1585.5 908.5,-1615.5 1188.5,-1615.5 1188.5,-1585.5 908.5,-1585.5"/>
<text text-anchor="start" x="915.5" y="-1596.9" font-family="Arial" font-size="14.00" fill="#000000">description </text>
<text text-anchor="start" x="987.068" y="-1596.9" font-family="Arial" font-size="14.00" fill="#666666">[text]</text>
<polygon fill="none" stroke="#000000" points="908.5,-1555.5 908.5,-1585.5 1188.5,-1585.5 1188.5,-1555.5 908.5,-1555.5"/>
<text text-anchor="start" x="915.5" y="-1566.9" font-family="Arial" font-size="14.00" fill="#000000">type </text>
<text text-anchor="start" x="945.8464" y="-1566.9" font-family="Arial" font-size="14.00" fill="#666666">[text]</text>
<polygon fill="none" stroke="#000000" points="908.5,-1525.5 908.5,-1555.5 1188.5,-1555.5 1188.5,-1525.5 908.5,-1525.5"/>
<text text-anchor="start" x="915.5" y="-1536.9" font-family="Arial" font-size="14.00" fill="#000000">target </text>
<text text-anchor="start" x="955.1802" y="-1536.9" font-family="Arial" font-size="14.00" fill="#666666">[bigint]</text>
<polygon fill="none" stroke="#000000" points="908.5,-1495.5 908.5,-1525.5 1188.5,-1525.5 1188.5,-1495.5 908.5,-1495.5"/>
<text text-anchor="start" x="915.5" y="-1506.9" font-family="Arial" font-size="14.00" fill="#000000">ordering </text>
<text text-anchor="start" x="970.7314" y="-1506.9" font-family="Arial" font-size="14.00" fill="#666666">[smallint]</text>
<polygon fill="none" stroke="#000000" points="908.5,-1465.5 908.5,-1495.5 1188.5,-1495.5 1188.5,-1465.5 908.5,-1465.5"/>
<text text-anchor="start" x="915.5" y="-1476.9" font-family="Arial" font-size="14.00" fill="#000000">deleteat </text>
<text text-anchor="start" x="969.1914" y="-1476.9" font-family="Arial" font-size="14.00" fill="#666666">[bigint]</text>
</g>
<!-- public.ir_metricconfig&#45;&gt;public.ir_playbook -->
<g id="edge3" class="edge">
<title>public.ir_metricconfig:playbookid&#45;&gt;public.ir_playbook:id</title>
<path fill="none" stroke="#000000" d="M898.6849,-1658.1258C856.9782,-1636.3158 873.4094,-1470.5214 856.5,-1423 834.3779,-1360.829 855.4895,-1290.5 789.5,-1290.5"/>
<polygon fill="#000000" stroke="#000000" points="898.7803,-1658.1488 907.442,-1664.8739 903.6402,-1659.3244 908.5,-1660.5 908.5,-1660.5 908.5,-1660.5 903.6402,-1659.3244 909.558,-1656.1261 898.7803,-1658.1488 898.7803,-1658.1488"/>
<text text-anchor="start" x="636.9935" y="-1670.5" font-family="Arial" font-size="10.00" fill="#000000">FOREIGN KEY (playbookid) REFERENCES ir_playbook(id)</text>
</g>
</g>
</svg>
