<?xml version="1.0" encoding="UTF-8" standalone="no"?>
<!DOCTYPE svg PUBLIC "-//W3C//DTD SVG 1.1//EN"
 "http://www.w3.org/Graphics/SVG/1.1/DTD/svg11.dtd">
<!-- Generated by graphviz version 2.40.1 (20161225.0304)
 -->
<!-- Title: public.ir_viewedchannel Pages: 1 -->
<svg width="402pt" height="195pt"
 viewBox="0.00 0.00 402.00 195.00" xmlns="http://www.w3.org/2000/svg" xmlns:xlink="http://www.w3.org/1999/xlink">
<g id="graph0" class="graph" transform="scale(1 1) rotate(0) translate(4 191)">
<title>public.ir_viewedchannel</title>
<polygon fill="#ffffff" stroke="transparent" points="-4,4 -4,-191 398,-191 398,4 -4,4"/>
<!-- public.ir_viewedchannel -->
<g id="node1" class="node">
<title>public.ir_viewedchannel</title>
<polygon fill="#efefef" stroke="transparent" points="46,-105.5 46,-140.5 348,-140.5 348,-105.5 46,-105.5"/>
<polygon fill="none" stroke="#000000" points="46,-105.5 46,-140.5 348,-140.5 348,-105.5 46,-105.5"/>
<text text-anchor="start" x="52.8561" y="-118.3" font-family="Arial Bold" font-size="18.00" fill="#000000">public.ir_viewedchannel</text>
<text text-anchor="start" x="243.8901" y="-118.3" font-family="Arial" font-size="14.00" fill="#000000"> </text>
<text text-anchor="start" x="247.7807" y="-118.3" font-family="Arial" font-size="14.00" fill="#666666">[BASE TABLE]</text>
<polygon fill="none" stroke="#000000" points="46,-75.5 46,-105.5 348,-105.5 348,-75.5 46,-75.5"/>
<text text-anchor="start" x="53" y="-86.9" font-family="Arial" font-size="14.00" fill="#000000">channelid </text>
<text text-anchor="start" x="116.7994" y="-86.9" font-family="Arial" font-size="14.00" fill="#666666">[text]</text>
<polygon fill="none" stroke="#000000" points="46,-45.5 46,-75.5 348,-75.5 348,-45.5 46,-45.5"/>
<text text-anchor="start" x="53" y="-56.9" font-family="Arial" font-size="14.00" fill="#000000">userid </text>
<text text-anchor="start" x="95.0056" y="-56.9" font-family="Arial" font-size="14.00" fill="#666666">[text]</text>
<polygon fill="none" stroke="#000000" stroke-width="3" points="44.5,-44.5 44.5,-142.5 349.5,-142.5 349.5,-44.5 44.5,-44.5"/>
</g>
</g>
</svg>
