<?xml version="1.0" encoding="UTF-8" standalone="no"?>
<!DOCTYPE svg PUBLIC "-//W3C//DTD SVG 1.1//EN"
 "http://www.w3.org/Graphics/SVG/1.1/DTD/svg11.dtd">
<!-- Generated by graphviz version 2.40.1 (20161225.0304)
 -->
<!-- Title: public.clusterdiscovery Pages: 1 -->
<svg width="392pt" height="375pt"
 viewBox="0.00 0.00 392.00 375.00" xmlns="http://www.w3.org/2000/svg" xmlns:xlink="http://www.w3.org/1999/xlink">
<g id="graph0" class="graph" transform="scale(1 1) rotate(0) translate(4 371)">
<title>public.clusterdiscovery</title>
<polygon fill="#ffffff" stroke="transparent" points="-4,4 -4,-371 388,-371 388,4 -4,4"/>
<!-- public.clusterdiscovery -->
<g id="node1" class="node">
<title>public.clusterdiscovery</title>
<polygon fill="#efefef" stroke="transparent" points="46,-285.5 46,-320.5 338,-320.5 338,-285.5 46,-285.5"/>
<polygon fill="none" stroke="#000000" points="46,-285.5 46,-320.5 338,-320.5 338,-285.5 46,-285.5"/>
<text text-anchor="start" x="52.8655" y="-298.3" font-family="Arial Bold" font-size="18.00" fill="#000000">public.clusterdiscovery</text>
<text text-anchor="start" x="233.8807" y="-298.3" font-family="Arial" font-size="14.00" fill="#000000"> </text>
<text text-anchor="start" x="237.7713" y="-298.3" font-family="Arial" font-size="14.00" fill="#666666">[BASE TABLE]</text>
<polygon fill="none" stroke="#000000" points="46,-255.5 46,-285.5 338,-285.5 338,-255.5 46,-255.5"/>
<text text-anchor="start" x="53" y="-266.9" font-family="Arial" font-size="14.00" fill="#000000">id </text>
<text text-anchor="start" x="67.7798" y="-266.9" font-family="Arial" font-size="14.00" fill="#666666">[varchar(26)]</text>
<polygon fill="none" stroke="#000000" points="46,-225.5 46,-255.5 338,-255.5 338,-225.5 46,-225.5"/>
<text text-anchor="start" x="53" y="-236.9" font-family="Arial" font-size="14.00" fill="#000000">type </text>
<text text-anchor="start" x="83.3464" y="-236.9" font-family="Arial" font-size="14.00" fill="#666666">[varchar(64)]</text>
<polygon fill="none" stroke="#000000" points="46,-195.5 46,-225.5 338,-225.5 338,-195.5 46,-195.5"/>
<text text-anchor="start" x="53" y="-206.9" font-family="Arial" font-size="14.00" fill="#000000">clustername </text>
<text text-anchor="start" x="133.122" y="-206.9" font-family="Arial" font-size="14.00" fill="#666666">[varchar(64)]</text>
<polygon fill="none" stroke="#000000" points="46,-165.5 46,-195.5 338,-195.5 338,-165.5 46,-165.5"/>
<text text-anchor="start" x="53" y="-176.9" font-family="Arial" font-size="14.00" fill="#000000">hostname </text>
<text text-anchor="start" x="118.3548" y="-176.9" font-family="Arial" font-size="14.00" fill="#666666">[varchar(512)]</text>
<polygon fill="none" stroke="#000000" points="46,-135.5 46,-165.5 338,-165.5 338,-135.5 46,-135.5"/>
<text text-anchor="start" x="53" y="-146.9" font-family="Arial" font-size="14.00" fill="#000000">gossipport </text>
<text text-anchor="start" x="121.4614" y="-146.9" font-family="Arial" font-size="14.00" fill="#666666">[integer]</text>
<polygon fill="none" stroke="#000000" points="46,-105.5 46,-135.5 338,-135.5 338,-105.5 46,-105.5"/>
<text text-anchor="start" x="53" y="-116.9" font-family="Arial" font-size="14.00" fill="#000000">port </text>
<text text-anchor="start" x="81.007" y="-116.9" font-family="Arial" font-size="14.00" fill="#666666">[integer]</text>
<polygon fill="none" stroke="#000000" points="46,-75.5 46,-105.5 338,-105.5 338,-75.5 46,-75.5"/>
<text text-anchor="start" x="53" y="-86.9" font-family="Arial" font-size="14.00" fill="#000000">createat </text>
<text text-anchor="start" x="107.4628" y="-86.9" font-family="Arial" font-size="14.00" fill="#666666">[bigint]</text>
<polygon fill="none" stroke="#000000" points="46,-45.5 46,-75.5 338,-75.5 338,-45.5 46,-45.5"/>
<text text-anchor="start" x="53" y="-56.9" font-family="Arial" font-size="14.00" fill="#000000">lastpingat </text>
<text text-anchor="start" x="116.798" y="-56.9" font-family="Arial" font-size="14.00" fill="#666666">[bigint]</text>
<polygon fill="none" stroke="#000000" stroke-width="3" points="44.5,-44.5 44.5,-322.5 339.5,-322.5 339.5,-44.5 44.5,-44.5"/>
</g>
</g>
</svg>
