<?xml version="1.0" encoding="UTF-8" standalone="no"?>
<!DOCTYPE svg PUBLIC "-//W3C//DTD SVG 1.1//EN"
 "http://www.w3.org/Graphics/SVG/1.1/DTD/svg11.dtd">
<!-- Generated by graphviz version 2.40.1 (20161225.0304)
 -->
<!-- Title: public.focalboard_boards Pages: 1 -->
<svg width="646pt" height="1432pt"
 viewBox="0.00 0.00 646.00 1432.00" xmlns="http://www.w3.org/2000/svg" xmlns:xlink="http://www.w3.org/1999/xlink">
<g id="graph0" class="graph" transform="scale(1 1) rotate(0) translate(4 1428)">
<title>public.focalboard_boards</title>
<polygon fill="#ffffff" stroke="transparent" points="-4,4 -4,-1428 642,-1428 642,4 -4,4"/>
<!-- public.focalboard_boards -->
<g id="node1" class="node">
<title>public.focalboard_boards</title>
<polygon fill="#efefef" stroke="transparent" points="158.5,-1342.5 158.5,-1377.5 470.5,-1377.5 470.5,-1342.5 158.5,-1342.5"/>
<polygon fill="none" stroke="#000000" points="158.5,-1342.5 158.5,-1377.5 470.5,-1377.5 470.5,-1342.5 158.5,-1342.5"/>
<text text-anchor="start" x="165.344" y="-1355.3" font-family="Arial Bold" font-size="18.00" fill="#000000">public.focalboard_boards</text>
<text text-anchor="start" x="366.4022" y="-1355.3" font-family="Arial" font-size="14.00" fill="#000000"> </text>
<text text-anchor="start" x="370.2928" y="-1355.3" font-family="Arial" font-size="14.00" fill="#666666">[BASE TABLE]</text>
<polygon fill="none" stroke="#000000" points="158.5,-1312.5 158.5,-1342.5 470.5,-1342.5 470.5,-1312.5 158.5,-1312.5"/>
<text text-anchor="start" x="165.5" y="-1323.9" font-family="Arial" font-size="14.00" fill="#000000">id </text>
<text text-anchor="start" x="180.2798" y="-1323.9" font-family="Arial" font-size="14.00" fill="#666666">[varchar(36)]</text>
<polygon fill="none" stroke="#000000" points="158.5,-1282.5 158.5,-1312.5 470.5,-1312.5 470.5,-1282.5 158.5,-1282.5"/>
<text text-anchor="start" x="165.5" y="-1293.9" font-family="Arial" font-size="14.00" fill="#000000">insert_at </text>
<text text-anchor="start" x="223.0694" y="-1293.9" font-family="Arial" font-size="14.00" fill="#666666">[timestamp with time zone]</text>
<polygon fill="none" stroke="#000000" points="158.5,-1252.5 158.5,-1282.5 470.5,-1282.5 470.5,-1252.5 158.5,-1252.5"/>
<text text-anchor="start" x="165.5" y="-1263.9" font-family="Arial" font-size="14.00" fill="#000000">team_id </text>
<text text-anchor="start" x="219.1788" y="-1263.9" font-family="Arial" font-size="14.00" fill="#666666">[varchar(36)]</text>
<polygon fill="none" stroke="#000000" points="158.5,-1222.5 158.5,-1252.5 470.5,-1252.5 470.5,-1222.5 158.5,-1222.5"/>
<text text-anchor="start" x="165.5" y="-1233.9" font-family="Arial" font-size="14.00" fill="#000000">channel_id </text>
<text text-anchor="start" x="237.082" y="-1233.9" font-family="Arial" font-size="14.00" fill="#666666">[varchar(36)]</text>
<polygon fill="none" stroke="#000000" points="158.5,-1192.5 158.5,-1222.5 470.5,-1222.5 470.5,-1192.5 158.5,-1192.5"/>
<text text-anchor="start" x="165.5" y="-1203.9" font-family="Arial" font-size="14.00" fill="#000000">created_by </text>
<text text-anchor="start" x="238.6374" y="-1203.9" font-family="Arial" font-size="14.00" fill="#666666">[varchar(36)]</text>
<polygon fill="none" stroke="#000000" points="158.5,-1162.5 158.5,-1192.5 470.5,-1192.5 470.5,-1162.5 158.5,-1162.5"/>
<text text-anchor="start" x="165.5" y="-1173.9" font-family="Arial" font-size="14.00" fill="#000000">modified_by </text>
<text text-anchor="start" x="244.8506" y="-1173.9" font-family="Arial" font-size="14.00" fill="#666666">[varchar(36)]</text>
<polygon fill="none" stroke="#000000" points="158.5,-1132.5 158.5,-1162.5 470.5,-1162.5 470.5,-1132.5 158.5,-1132.5"/>
<text text-anchor="start" x="165.5" y="-1143.9" font-family="Arial" font-size="14.00" fill="#000000">type </text>
<text text-anchor="start" x="195.8464" y="-1143.9" font-family="Arial" font-size="14.00" fill="#666666">[varchar(1)]</text>
<polygon fill="none" stroke="#000000" points="158.5,-1102.5 158.5,-1132.5 470.5,-1132.5 470.5,-1102.5 158.5,-1102.5"/>
<text text-anchor="start" x="165.5" y="-1113.9" font-family="Arial" font-size="14.00" fill="#000000">title </text>
<text text-anchor="start" x="191.1676" y="-1113.9" font-family="Arial" font-size="14.00" fill="#666666">[text]</text>
<polygon fill="none" stroke="#000000" points="158.5,-1072.5 158.5,-1102.5 470.5,-1102.5 470.5,-1072.5 158.5,-1072.5"/>
<text text-anchor="start" x="165.5" y="-1083.9" font-family="Arial" font-size="14.00" fill="#000000">description </text>
<text text-anchor="start" x="237.068" y="-1083.9" font-family="Arial" font-size="14.00" fill="#666666">[text]</text>
<polygon fill="none" stroke="#000000" points="158.5,-1042.5 158.5,-1072.5 470.5,-1072.5 470.5,-1042.5 158.5,-1042.5"/>
<text text-anchor="start" x="165.5" y="-1053.9" font-family="Arial" font-size="14.00" fill="#000000">icon </text>
<text text-anchor="start" x="195.0624" y="-1053.9" font-family="Arial" font-size="14.00" fill="#666666">[varchar(256)]</text>
<polygon fill="none" stroke="#000000" points="158.5,-1012.5 158.5,-1042.5 470.5,-1042.5 470.5,-1012.5 158.5,-1012.5"/>
<text text-anchor="start" x="165.5" y="-1023.9" font-family="Arial" font-size="14.00" fill="#000000">show_description </text>
<text text-anchor="start" x="277.5224" y="-1023.9" font-family="Arial" font-size="14.00" fill="#666666">[boolean]</text>
<polygon fill="none" stroke="#000000" points="158.5,-982.5 158.5,-1012.5 470.5,-1012.5 470.5,-982.5 158.5,-982.5"/>
<text text-anchor="start" x="165.5" y="-993.9" font-family="Arial" font-size="14.00" fill="#000000">is_template </text>
<text text-anchor="start" x="240.9586" y="-993.9" font-family="Arial" font-size="14.00" fill="#666666">[boolean]</text>
<polygon fill="none" stroke="#000000" points="158.5,-952.5 158.5,-982.5 470.5,-982.5 470.5,-952.5 158.5,-952.5"/>
<text text-anchor="start" x="165.5" y="-963.9" font-family="Arial" font-size="14.00" fill="#000000">template_version </text>
<text text-anchor="start" x="275.967" y="-963.9" font-family="Arial" font-size="14.00" fill="#666666">[integer]</text>
<polygon fill="none" stroke="#000000" points="158.5,-922.5 158.5,-952.5 470.5,-952.5 470.5,-922.5 158.5,-922.5"/>
<text text-anchor="start" x="165.5" y="-933.9" font-family="Arial" font-size="14.00" fill="#000000">properties </text>
<text text-anchor="start" x="231.622" y="-933.9" font-family="Arial" font-size="14.00" fill="#666666">[jsonb]</text>
<polygon fill="none" stroke="#000000" points="158.5,-892.5 158.5,-922.5 470.5,-922.5 470.5,-892.5 158.5,-892.5"/>
<text text-anchor="start" x="165.5" y="-903.9" font-family="Arial" font-size="14.00" fill="#000000">card_properties </text>
<text text-anchor="start" x="266.6304" y="-903.9" font-family="Arial" font-size="14.00" fill="#666666">[jsonb]</text>
<polygon fill="none" stroke="#000000" points="158.5,-862.5 158.5,-892.5 470.5,-892.5 470.5,-862.5 158.5,-862.5"/>
<text text-anchor="start" x="165.5" y="-873.9" font-family="Arial" font-size="14.00" fill="#000000">create_at </text>
<text text-anchor="start" x="227.7454" y="-873.9" font-family="Arial" font-size="14.00" fill="#666666">[bigint]</text>
<polygon fill="none" stroke="#000000" points="158.5,-832.5 158.5,-862.5 470.5,-862.5 470.5,-832.5 158.5,-832.5"/>
<text text-anchor="start" x="165.5" y="-843.9" font-family="Arial" font-size="14.00" fill="#000000">update_at </text>
<text text-anchor="start" x="231.65" y="-843.9" font-family="Arial" font-size="14.00" fill="#666666">[bigint]</text>
<polygon fill="none" stroke="#000000" points="158.5,-802.5 158.5,-832.5 470.5,-832.5 470.5,-802.5 158.5,-802.5"/>
<text text-anchor="start" x="165.5" y="-813.9" font-family="Arial" font-size="14.00" fill="#000000">delete_at </text>
<text text-anchor="start" x="226.974" y="-813.9" font-family="Arial" font-size="14.00" fill="#666666">[bigint]</text>
<polygon fill="none" stroke="#000000" points="158.5,-772.5 158.5,-802.5 470.5,-802.5 470.5,-772.5 158.5,-772.5"/>
<text text-anchor="start" x="165.5" y="-783.9" font-family="Arial" font-size="14.00" fill="#000000">minimum_role </text>
<text text-anchor="start" x="257.2658" y="-783.9" font-family="Arial" font-size="14.00" fill="#666666">[varchar(36)]</text>
<polygon fill="none" stroke="#000000" stroke-width="3" points="157,-771.5 157,-1379.5 472,-1379.5 472,-771.5 157,-771.5"/>
</g>
<!-- public.teams -->
<g id="node2" class="node">
<title>public.teams</title>
<polygon fill="#efefef" stroke="transparent" points="43.5,-582.5 43.5,-617.5 256.5,-617.5 256.5,-582.5 43.5,-582.5"/>
<polygon fill="none" stroke="#000000" points="43.5,-582.5 43.5,-617.5 256.5,-617.5 256.5,-582.5 43.5,-582.5"/>
<text text-anchor="start" x="50.8651" y="-595.3" font-family="Arial Bold" font-size="18.00" fill="#000000">public.teams</text>
<text text-anchor="start" x="151.8811" y="-595.3" font-family="Arial" font-size="14.00" fill="#000000"> </text>
<text text-anchor="start" x="155.7717" y="-595.3" font-family="Arial" font-size="14.00" fill="#666666">[BASE TABLE]</text>
<polygon fill="none" stroke="#000000" points="43.5,-552.5 43.5,-582.5 256.5,-582.5 256.5,-552.5 43.5,-552.5"/>
<text text-anchor="start" x="50.5" y="-563.9" font-family="Arial" font-size="14.00" fill="#000000">id </text>
<text text-anchor="start" x="65.2798" y="-563.9" font-family="Arial" font-size="14.00" fill="#666666">[varchar(26)]</text>
<polygon fill="none" stroke="#000000" points="43.5,-522.5 43.5,-552.5 256.5,-552.5 256.5,-522.5 43.5,-522.5"/>
<text text-anchor="start" x="50.5" y="-533.9" font-family="Arial" font-size="14.00" fill="#000000">createat </text>
<text text-anchor="start" x="104.9628" y="-533.9" font-family="Arial" font-size="14.00" fill="#666666">[bigint]</text>
<polygon fill="none" stroke="#000000" points="43.5,-492.5 43.5,-522.5 256.5,-522.5 256.5,-492.5 43.5,-492.5"/>
<text text-anchor="start" x="50.5" y="-503.9" font-family="Arial" font-size="14.00" fill="#000000">updateat </text>
<text text-anchor="start" x="108.8674" y="-503.9" font-family="Arial" font-size="14.00" fill="#666666">[bigint]</text>
<polygon fill="none" stroke="#000000" points="43.5,-462.5 43.5,-492.5 256.5,-492.5 256.5,-462.5 43.5,-462.5"/>
<text text-anchor="start" x="50.5" y="-473.9" font-family="Arial" font-size="14.00" fill="#000000">deleteat </text>
<text text-anchor="start" x="104.1914" y="-473.9" font-family="Arial" font-size="14.00" fill="#666666">[bigint]</text>
<polygon fill="none" stroke="#000000" points="43.5,-432.5 43.5,-462.5 256.5,-462.5 256.5,-432.5 43.5,-432.5"/>
<text text-anchor="start" x="50.5" y="-443.9" font-family="Arial" font-size="14.00" fill="#000000">displayname </text>
<text text-anchor="start" x="132.96" y="-443.9" font-family="Arial" font-size="14.00" fill="#666666">[varchar(64)]</text>
<polygon fill="none" stroke="#000000" points="43.5,-402.5 43.5,-432.5 256.5,-432.5 256.5,-402.5 43.5,-402.5"/>
<text text-anchor="start" x="50.5" y="-413.9" font-family="Arial" font-size="14.00" fill="#000000">name </text>
<text text-anchor="start" x="89.399" y="-413.9" font-family="Arial" font-size="14.00" fill="#666666">[varchar(64)]</text>
<polygon fill="none" stroke="#000000" points="43.5,-372.5 43.5,-402.5 256.5,-402.5 256.5,-372.5 43.5,-372.5"/>
<text text-anchor="start" x="50.5" y="-383.9" font-family="Arial" font-size="14.00" fill="#000000">description </text>
<text text-anchor="start" x="122.068" y="-383.9" font-family="Arial" font-size="14.00" fill="#666666">[varchar(255)]</text>
<polygon fill="none" stroke="#000000" points="43.5,-342.5 43.5,-372.5 256.5,-372.5 256.5,-342.5 43.5,-342.5"/>
<text text-anchor="start" x="50.5" y="-353.9" font-family="Arial" font-size="14.00" fill="#000000">email </text>
<text text-anchor="start" x="87.8296" y="-353.9" font-family="Arial" font-size="14.00" fill="#666666">[varchar(128)]</text>
<polygon fill="none" stroke="#000000" points="43.5,-312.5 43.5,-342.5 256.5,-342.5 256.5,-312.5 43.5,-312.5"/>
<text text-anchor="start" x="50.5" y="-323.9" font-family="Arial" font-size="14.00" fill="#000000">type </text>
<text text-anchor="start" x="80.8464" y="-323.9" font-family="Arial" font-size="14.00" fill="#666666">[team_type]</text>
<polygon fill="none" stroke="#000000" points="43.5,-282.5 43.5,-312.5 256.5,-312.5 256.5,-282.5 43.5,-282.5"/>
<text text-anchor="start" x="50.5" y="-293.9" font-family="Arial" font-size="14.00" fill="#000000">companyname </text>
<text text-anchor="start" x="146.19" y="-293.9" font-family="Arial" font-size="14.00" fill="#666666">[varchar(64)]</text>
<polygon fill="none" stroke="#000000" points="43.5,-252.5 43.5,-282.5 256.5,-282.5 256.5,-252.5 43.5,-252.5"/>
<text text-anchor="start" x="50.4299" y="-263.9" font-family="Arial" font-size="14.00" fill="#000000">alloweddomains </text>
<text text-anchor="start" x="154.6683" y="-263.9" font-family="Arial" font-size="14.00" fill="#666666">[varchar(1000)]</text>
<polygon fill="none" stroke="#000000" points="43.5,-222.5 43.5,-252.5 256.5,-252.5 256.5,-222.5 43.5,-222.5"/>
<text text-anchor="start" x="50.5" y="-233.9" font-family="Arial" font-size="14.00" fill="#000000">inviteid </text>
<text text-anchor="start" x="97.9488" y="-233.9" font-family="Arial" font-size="14.00" fill="#666666">[varchar(32)]</text>
<polygon fill="none" stroke="#000000" points="43.5,-192.5 43.5,-222.5 256.5,-222.5 256.5,-192.5 43.5,-192.5"/>
<text text-anchor="start" x="50.5" y="-203.9" font-family="Arial" font-size="14.00" fill="#000000">schemeid </text>
<text text-anchor="start" x="114.2882" y="-203.9" font-family="Arial" font-size="14.00" fill="#666666">[varchar(26)]</text>
<polygon fill="none" stroke="#000000" points="43.5,-162.5 43.5,-192.5 256.5,-192.5 256.5,-162.5 43.5,-162.5"/>
<text text-anchor="start" x="50.5" y="-173.9" font-family="Arial" font-size="14.00" fill="#000000">allowopeninvite </text>
<text text-anchor="start" x="150.075" y="-173.9" font-family="Arial" font-size="14.00" fill="#666666">[boolean]</text>
<polygon fill="none" stroke="#000000" points="43.5,-132.5 43.5,-162.5 256.5,-162.5 256.5,-132.5 43.5,-132.5"/>
<text text-anchor="start" x="50.5" y="-143.9" font-family="Arial" font-size="14.00" fill="#000000">lastteamiconupdate </text>
<text text-anchor="start" x="175.7622" y="-143.9" font-family="Arial" font-size="14.00" fill="#666666">[bigint]</text>
<polygon fill="none" stroke="#000000" points="43.5,-102.5 43.5,-132.5 256.5,-132.5 256.5,-102.5 43.5,-102.5"/>
<text text-anchor="start" x="50.5" y="-113.9" font-family="Arial" font-size="14.00" fill="#000000">groupconstrained </text>
<text text-anchor="start" x="162.535" y="-113.9" font-family="Arial" font-size="14.00" fill="#666666">[boolean]</text>
<polygon fill="none" stroke="#000000" points="43.5,-72.5 43.5,-102.5 256.5,-102.5 256.5,-72.5 43.5,-72.5"/>
<text text-anchor="start" x="50.5" y="-83.9" font-family="Arial" font-size="14.00" fill="#000000">cloudlimitsarchived </text>
<text text-anchor="start" x="172.6136" y="-83.9" font-family="Arial" font-size="14.00" fill="#666666">[boolean]</text>
</g>
<!-- public.focalboard_boards&#45;&gt;public.teams -->
<g id="edge1" class="edge">
<title>public.focalboard_boards:team_id&#45;&gt;public.teams:id</title>
<path fill="none" stroke="#000000" stroke-dasharray="5,2" d="M148.1788,-1267.29C-77.9938,-1257.9028 47.2999,-935.9569 158.5,-727 183.1695,-680.6433 231.8305,-707.3567 256.5,-661 276.0223,-624.3156 298.0556,-567.5 256.5,-567.5"/>
<polygon fill="#000000" stroke="#000000" points="148.5021,-1267.2965 158.4084,-1271.9991 153.501,-1267.3982 158.5,-1267.5 158.5,-1267.5 158.5,-1267.5 153.501,-1267.3982 158.5916,-1263.0009 148.5021,-1267.2965 148.5021,-1267.2965"/>
<text text-anchor="start" x="72.768" y="-1277.5" font-family="Arial" font-size="10.00" fill="#000000">Detected Relation</text>
</g>
<!-- public.channels -->
<g id="node3" class="node">
<title>public.channels</title>
<polygon fill="#efefef" stroke="transparent" points="360.5,-612.5 360.5,-647.5 595.5,-647.5 595.5,-612.5 360.5,-612.5"/>
<polygon fill="none" stroke="#000000" points="360.5,-612.5 360.5,-647.5 595.5,-647.5 595.5,-612.5 360.5,-612.5"/>
<text text-anchor="start" x="367.3559" y="-625.3" font-family="Arial Bold" font-size="18.00" fill="#000000">public.channels</text>
<text text-anchor="start" x="491.3903" y="-625.3" font-family="Arial" font-size="14.00" fill="#000000"> </text>
<text text-anchor="start" x="495.2809" y="-625.3" font-family="Arial" font-size="14.00" fill="#666666">[BASE TABLE]</text>
<polygon fill="none" stroke="#000000" points="360.5,-582.5 360.5,-612.5 595.5,-612.5 595.5,-582.5 360.5,-582.5"/>
<text text-anchor="start" x="367.5" y="-593.9" font-family="Arial" font-size="14.00" fill="#000000">id </text>
<text text-anchor="start" x="382.2798" y="-593.9" font-family="Arial" font-size="14.00" fill="#666666">[varchar(26)]</text>
<polygon fill="none" stroke="#000000" points="360.5,-552.5 360.5,-582.5 595.5,-582.5 595.5,-552.5 360.5,-552.5"/>
<text text-anchor="start" x="367.5" y="-563.9" font-family="Arial" font-size="14.00" fill="#000000">createat </text>
<text text-anchor="start" x="421.9628" y="-563.9" font-family="Arial" font-size="14.00" fill="#666666">[bigint]</text>
<polygon fill="none" stroke="#000000" points="360.5,-522.5 360.5,-552.5 595.5,-552.5 595.5,-522.5 360.5,-522.5"/>
<text text-anchor="start" x="367.5" y="-533.9" font-family="Arial" font-size="14.00" fill="#000000">updateat </text>
<text text-anchor="start" x="425.8674" y="-533.9" font-family="Arial" font-size="14.00" fill="#666666">[bigint]</text>
<polygon fill="none" stroke="#000000" points="360.5,-492.5 360.5,-522.5 595.5,-522.5 595.5,-492.5 360.5,-492.5"/>
<text text-anchor="start" x="367.5" y="-503.9" font-family="Arial" font-size="14.00" fill="#000000">deleteat </text>
<text text-anchor="start" x="421.1914" y="-503.9" font-family="Arial" font-size="14.00" fill="#666666">[bigint]</text>
<polygon fill="none" stroke="#000000" points="360.5,-462.5 360.5,-492.5 595.5,-492.5 595.5,-462.5 360.5,-462.5"/>
<text text-anchor="start" x="367.5" y="-473.9" font-family="Arial" font-size="14.00" fill="#000000">teamid </text>
<text text-anchor="start" x="413.3962" y="-473.9" font-family="Arial" font-size="14.00" fill="#666666">[varchar(26)]</text>
<polygon fill="none" stroke="#000000" points="360.5,-432.5 360.5,-462.5 595.5,-462.5 595.5,-432.5 360.5,-432.5"/>
<text text-anchor="start" x="367.5" y="-443.9" font-family="Arial" font-size="14.00" fill="#000000">type </text>
<text text-anchor="start" x="397.8464" y="-443.9" font-family="Arial" font-size="14.00" fill="#666666">[channel_type]</text>
<polygon fill="none" stroke="#000000" points="360.5,-402.5 360.5,-432.5 595.5,-432.5 595.5,-402.5 360.5,-402.5"/>
<text text-anchor="start" x="367.5" y="-413.9" font-family="Arial" font-size="14.00" fill="#000000">displayname </text>
<text text-anchor="start" x="449.96" y="-413.9" font-family="Arial" font-size="14.00" fill="#666666">[varchar(64)]</text>
<polygon fill="none" stroke="#000000" points="360.5,-372.5 360.5,-402.5 595.5,-402.5 595.5,-372.5 360.5,-372.5"/>
<text text-anchor="start" x="367.5" y="-383.9" font-family="Arial" font-size="14.00" fill="#000000">name </text>
<text text-anchor="start" x="406.399" y="-383.9" font-family="Arial" font-size="14.00" fill="#666666">[varchar(64)]</text>
<polygon fill="none" stroke="#000000" points="360.5,-342.5 360.5,-372.5 595.5,-372.5 595.5,-342.5 360.5,-342.5"/>
<text text-anchor="start" x="367.5" y="-353.9" font-family="Arial" font-size="14.00" fill="#000000">header </text>
<text text-anchor="start" x="414.9642" y="-353.9" font-family="Arial" font-size="14.00" fill="#666666">[varchar(1024)]</text>
<polygon fill="none" stroke="#000000" points="360.5,-312.5 360.5,-342.5 595.5,-342.5 595.5,-312.5 360.5,-312.5"/>
<text text-anchor="start" x="367.5" y="-323.9" font-family="Arial" font-size="14.00" fill="#000000">purpose </text>
<text text-anchor="start" x="421.9642" y="-323.9" font-family="Arial" font-size="14.00" fill="#666666">[varchar(250)]</text>
<polygon fill="none" stroke="#000000" points="360.5,-282.5 360.5,-312.5 595.5,-312.5 595.5,-282.5 360.5,-282.5"/>
<text text-anchor="start" x="367.5" y="-293.9" font-family="Arial" font-size="14.00" fill="#000000">lastpostat </text>
<text text-anchor="start" x="431.2994" y="-293.9" font-family="Arial" font-size="14.00" fill="#666666">[bigint]</text>
<polygon fill="none" stroke="#000000" points="360.5,-252.5 360.5,-282.5 595.5,-282.5 595.5,-252.5 360.5,-252.5"/>
<text text-anchor="start" x="367.5" y="-263.9" font-family="Arial" font-size="14.00" fill="#000000">totalmsgcount </text>
<text text-anchor="start" x="458.5252" y="-263.9" font-family="Arial" font-size="14.00" fill="#666666">[bigint]</text>
<polygon fill="none" stroke="#000000" points="360.5,-222.5 360.5,-252.5 595.5,-252.5 595.5,-222.5 360.5,-222.5"/>
<text text-anchor="start" x="367.5" y="-233.9" font-family="Arial" font-size="14.00" fill="#000000">extraupdateat </text>
<text text-anchor="start" x="456.9838" y="-233.9" font-family="Arial" font-size="14.00" fill="#666666">[bigint]</text>
<polygon fill="none" stroke="#000000" points="360.5,-192.5 360.5,-222.5 595.5,-222.5 595.5,-192.5 360.5,-192.5"/>
<text text-anchor="start" x="367.5" y="-203.9" font-family="Arial" font-size="14.00" fill="#000000">creatorid </text>
<text text-anchor="start" x="425.8394" y="-203.9" font-family="Arial" font-size="14.00" fill="#666666">[varchar(26)]</text>
<polygon fill="none" stroke="#000000" points="360.5,-162.5 360.5,-192.5 595.5,-192.5 595.5,-162.5 360.5,-162.5"/>
<text text-anchor="start" x="367.5" y="-173.9" font-family="Arial" font-size="14.00" fill="#000000">schemeid </text>
<text text-anchor="start" x="431.2882" y="-173.9" font-family="Arial" font-size="14.00" fill="#666666">[varchar(26)]</text>
<polygon fill="none" stroke="#000000" points="360.5,-132.5 360.5,-162.5 595.5,-162.5 595.5,-132.5 360.5,-132.5"/>
<text text-anchor="start" x="367.5" y="-143.9" font-family="Arial" font-size="14.00" fill="#000000">groupconstrained </text>
<text text-anchor="start" x="479.535" y="-143.9" font-family="Arial" font-size="14.00" fill="#666666">[boolean]</text>
<polygon fill="none" stroke="#000000" points="360.5,-102.5 360.5,-132.5 595.5,-132.5 595.5,-102.5 360.5,-102.5"/>
<text text-anchor="start" x="367.5" y="-113.9" font-family="Arial" font-size="14.00" fill="#000000">shared </text>
<text text-anchor="start" x="414.1816" y="-113.9" font-family="Arial" font-size="14.00" fill="#666666">[boolean]</text>
<polygon fill="none" stroke="#000000" points="360.5,-72.5 360.5,-102.5 595.5,-102.5 595.5,-72.5 360.5,-72.5"/>
<text text-anchor="start" x="367.5" y="-83.9" font-family="Arial" font-size="14.00" fill="#000000">totalmsgcountroot </text>
<text text-anchor="start" x="482.6416" y="-83.9" font-family="Arial" font-size="14.00" fill="#666666">[bigint]</text>
<polygon fill="none" stroke="#000000" points="360.5,-42.5 360.5,-72.5 595.5,-72.5 595.5,-42.5 360.5,-42.5"/>
<text text-anchor="start" x="367.5" y="-53.9" font-family="Arial" font-size="14.00" fill="#000000">lastrootpostat </text>
<text text-anchor="start" x="455.4158" y="-53.9" font-family="Arial" font-size="14.00" fill="#666666">[bigint]</text>
</g>
<!-- public.focalboard_boards&#45;&gt;public.channels -->
<g id="edge2" class="edge">
<title>public.focalboard_boards:channel_id&#45;&gt;public.channels:id</title>
<path fill="none" stroke="#000000" stroke-dasharray="5,2" d="M480.5837,-1237.277C694.5426,-1227.6394 601.651,-907.9181 470.5,-727 440.3083,-685.3516 390.6917,-732.6484 360.5,-691 336.11,-657.3549 318.9444,-597.5 360.5,-597.5"/>
<polygon fill="#000000" stroke="#000000" points="480.4976,-1237.2788 470.4005,-1233.0011 475.4988,-1237.3894 470.5,-1237.5 470.5,-1237.5 470.5,-1237.5 475.4988,-1237.3894 470.5995,-1241.9989 480.4976,-1237.2788 480.4976,-1237.2788"/>
<text text-anchor="start" x="477.768" y="-1247.5" font-family="Arial" font-size="10.00" fill="#000000">Detected Relation</text>
</g>
</g>
</svg>
