<?xml version="1.0" encoding="UTF-8" standalone="no"?>
<!DOCTYPE svg PUBLIC "-//W3C//DTD SVG 1.1//EN"
 "http://www.w3.org/Graphics/SVG/1.1/DTD/svg11.dtd">
<!-- Generated by graphviz version 2.40.1 (20161225.0304)
 -->
<!-- Title: public.ir_userinfo Pages: 1 -->
<svg width="347pt" height="225pt"
 viewBox="0.00 0.00 347.00 225.00" xmlns="http://www.w3.org/2000/svg" xmlns:xlink="http://www.w3.org/1999/xlink">
<g id="graph0" class="graph" transform="scale(1 1) rotate(0) translate(4 221)">
<title>public.ir_userinfo</title>
<polygon fill="#ffffff" stroke="transparent" points="-4,4 -4,-221 343,-221 343,4 -4,4"/>
<!-- public.ir_userinfo -->
<g id="node1" class="node">
<title>public.ir_userinfo</title>
<polygon fill="#efefef" stroke="transparent" points="46.5,-135.5 46.5,-170.5 293.5,-170.5 293.5,-135.5 46.5,-135.5"/>
<polygon fill="none" stroke="#000000" points="46.5,-135.5 46.5,-170.5 293.5,-170.5 293.5,-135.5 46.5,-135.5"/>
<text text-anchor="start" x="53.3655" y="-148.3" font-family="Arial Bold" font-size="18.00" fill="#000000">public.ir_userinfo</text>
<text text-anchor="start" x="189.3807" y="-148.3" font-family="Arial" font-size="14.00" fill="#000000"> </text>
<text text-anchor="start" x="193.2713" y="-148.3" font-family="Arial" font-size="14.00" fill="#666666">[BASE TABLE]</text>
<polygon fill="none" stroke="#000000" points="46.5,-105.5 46.5,-135.5 293.5,-135.5 293.5,-105.5 46.5,-105.5"/>
<text text-anchor="start" x="53.5" y="-116.9" font-family="Arial" font-size="14.00" fill="#000000">id </text>
<text text-anchor="start" x="68.2798" y="-116.9" font-family="Arial" font-size="14.00" fill="#666666">[text]</text>
<polygon fill="none" stroke="#000000" points="46.5,-75.5 46.5,-105.5 293.5,-105.5 293.5,-75.5 46.5,-75.5"/>
<text text-anchor="start" x="53.5" y="-86.9" font-family="Arial" font-size="14.00" fill="#000000">lastdailytododmat </text>
<text text-anchor="start" x="166.3036" y="-86.9" font-family="Arial" font-size="14.00" fill="#666666">[bigint]</text>
<polygon fill="none" stroke="#000000" points="46.5,-45.5 46.5,-75.5 293.5,-75.5 293.5,-45.5 46.5,-45.5"/>
<text text-anchor="start" x="53.5" y="-56.9" font-family="Arial" font-size="14.00" fill="#000000">digestnotificationsettingsjson </text>
<text text-anchor="start" x="235.5476" y="-56.9" font-family="Arial" font-size="14.00" fill="#666666">[json]</text>
<polygon fill="none" stroke="#000000" stroke-width="3" points="44.5,-44.5 44.5,-172.5 294.5,-172.5 294.5,-44.5 44.5,-44.5"/>
</g>
</g>
</svg>
