<?xml version="1.0" encoding="UTF-8" standalone="no"?>
<!DOCTYPE svg PUBLIC "-//W3C//DTD SVG 1.1//EN"
 "http://www.w3.org/Graphics/SVG/1.1/DTD/svg11.dtd">
<!-- Generated by graphviz version 2.40.1 (20161225.0304)
 -->
<!-- Title: public.systems Pages: 1 -->
<svg width="329pt" height="195pt"
 viewBox="0.00 0.00 329.00 195.00" xmlns="http://www.w3.org/2000/svg" xmlns:xlink="http://www.w3.org/1999/xlink">
<g id="graph0" class="graph" transform="scale(1 1) rotate(0) translate(4 191)">
<title>public.systems</title>
<polygon fill="#ffffff" stroke="transparent" points="-4,4 -4,-191 325,-191 325,4 -4,4"/>
<!-- public.systems -->
<g id="node1" class="node">
<title>public.systems</title>
<polygon fill="#efefef" stroke="transparent" points="46.5,-105.5 46.5,-140.5 275.5,-140.5 275.5,-105.5 46.5,-105.5"/>
<polygon fill="none" stroke="#000000" points="46.5,-105.5 46.5,-140.5 275.5,-140.5 275.5,-105.5 46.5,-105.5"/>
<text text-anchor="start" x="53.3682" y="-118.3" font-family="Arial Bold" font-size="18.00" fill="#000000">public.systems</text>
<text text-anchor="start" x="171.378" y="-118.3" font-family="Arial" font-size="14.00" fill="#000000"> </text>
<text text-anchor="start" x="175.2686" y="-118.3" font-family="Arial" font-size="14.00" fill="#666666">[BASE TABLE]</text>
<polygon fill="none" stroke="#000000" points="46.5,-75.5 46.5,-105.5 275.5,-105.5 275.5,-75.5 46.5,-75.5"/>
<text text-anchor="start" x="53.5" y="-86.9" font-family="Arial" font-size="14.00" fill="#000000">name </text>
<text text-anchor="start" x="92.399" y="-86.9" font-family="Arial" font-size="14.00" fill="#666666">[varchar(64)]</text>
<polygon fill="none" stroke="#000000" points="46.5,-45.5 46.5,-75.5 275.5,-75.5 275.5,-45.5 46.5,-45.5"/>
<text text-anchor="start" x="53.5" y="-56.9" font-family="Arial" font-size="14.00" fill="#000000">value </text>
<text text-anchor="start" x="90.845" y="-56.9" font-family="Arial" font-size="14.00" fill="#666666">[varchar(1024)]</text>
<polygon fill="none" stroke="#000000" stroke-width="3" points="44.5,-44.5 44.5,-142.5 276.5,-142.5 276.5,-44.5 44.5,-44.5"/>
</g>
</g>
</svg>
