<?xml version="1.0" encoding="UTF-8" standalone="no"?>
<!DOCTYPE svg PUBLIC "-//W3C//DTD SVG 1.1//EN"
 "http://www.w3.org/Graphics/SVG/1.1/DTD/svg11.dtd">
<!-- Generated by graphviz version 2.40.1 (20161225.0304)
 -->
<!-- Title: public.sidebarcategories Pages: 1 -->
<svg width="405pt" height="405pt"
 viewBox="0.00 0.00 405.00 405.00" xmlns="http://www.w3.org/2000/svg" xmlns:xlink="http://www.w3.org/1999/xlink">
<g id="graph0" class="graph" transform="scale(1 1) rotate(0) translate(4 401)">
<title>public.sidebarcategories</title>
<polygon fill="#ffffff" stroke="transparent" points="-4,4 -4,-401 401,-401 401,4 -4,4"/>
<!-- public.sidebarcategories -->
<g id="node1" class="node">
<title>public.sidebarcategories</title>
<polygon fill="#efefef" stroke="transparent" points="46.5,-315.5 46.5,-350.5 351.5,-350.5 351.5,-315.5 46.5,-315.5"/>
<polygon fill="none" stroke="#000000" points="46.5,-315.5 46.5,-350.5 351.5,-350.5 351.5,-315.5 46.5,-315.5"/>
<text text-anchor="start" x="53.3531" y="-328.3" font-family="Arial Bold" font-size="18.00" fill="#000000">public.sidebarcategories</text>
<text text-anchor="start" x="247.3931" y="-328.3" font-family="Arial" font-size="14.00" fill="#000000"> </text>
<text text-anchor="start" x="251.2837" y="-328.3" font-family="Arial" font-size="14.00" fill="#666666">[BASE TABLE]</text>
<polygon fill="none" stroke="#000000" points="46.5,-285.5 46.5,-315.5 351.5,-315.5 351.5,-285.5 46.5,-285.5"/>
<text text-anchor="start" x="53.5" y="-296.9" font-family="Arial" font-size="14.00" fill="#000000">id </text>
<text text-anchor="start" x="68.2798" y="-296.9" font-family="Arial" font-size="14.00" fill="#666666">[varchar(128)]</text>
<polygon fill="none" stroke="#000000" points="46.5,-255.5 46.5,-285.5 351.5,-285.5 351.5,-255.5 46.5,-255.5"/>
<text text-anchor="start" x="53.5" y="-266.9" font-family="Arial" font-size="14.00" fill="#000000">userid </text>
<text text-anchor="start" x="95.5056" y="-266.9" font-family="Arial" font-size="14.00" fill="#666666">[varchar(26)]</text>
<polygon fill="none" stroke="#000000" points="46.5,-225.5 46.5,-255.5 351.5,-255.5 351.5,-225.5 46.5,-225.5"/>
<text text-anchor="start" x="53.5" y="-236.9" font-family="Arial" font-size="14.00" fill="#000000">teamid </text>
<text text-anchor="start" x="99.3962" y="-236.9" font-family="Arial" font-size="14.00" fill="#666666">[varchar(26)]</text>
<polygon fill="none" stroke="#000000" points="46.5,-195.5 46.5,-225.5 351.5,-225.5 351.5,-195.5 46.5,-195.5"/>
<text text-anchor="start" x="53.5" y="-206.9" font-family="Arial" font-size="14.00" fill="#000000">sortorder </text>
<text text-anchor="start" x="113.3934" y="-206.9" font-family="Arial" font-size="14.00" fill="#666666">[bigint]</text>
<polygon fill="none" stroke="#000000" points="46.5,-165.5 46.5,-195.5 351.5,-195.5 351.5,-165.5 46.5,-165.5"/>
<text text-anchor="start" x="53.5" y="-176.9" font-family="Arial" font-size="14.00" fill="#000000">sorting </text>
<text text-anchor="start" x="99.3962" y="-176.9" font-family="Arial" font-size="14.00" fill="#666666">[varchar(64)]</text>
<polygon fill="none" stroke="#000000" points="46.5,-135.5 46.5,-165.5 351.5,-165.5 351.5,-135.5 46.5,-135.5"/>
<text text-anchor="start" x="53.5" y="-146.9" font-family="Arial" font-size="14.00" fill="#000000">type </text>
<text text-anchor="start" x="83.8464" y="-146.9" font-family="Arial" font-size="14.00" fill="#666666">[varchar(64)]</text>
<polygon fill="none" stroke="#000000" points="46.5,-105.5 46.5,-135.5 351.5,-135.5 351.5,-105.5 46.5,-105.5"/>
<text text-anchor="start" x="53.5" y="-116.9" font-family="Arial" font-size="14.00" fill="#000000">displayname </text>
<text text-anchor="start" x="135.96" y="-116.9" font-family="Arial" font-size="14.00" fill="#666666">[varchar(64)]</text>
<polygon fill="none" stroke="#000000" points="46.5,-75.5 46.5,-105.5 351.5,-105.5 351.5,-75.5 46.5,-75.5"/>
<text text-anchor="start" x="53.5" y="-86.9" font-family="Arial" font-size="14.00" fill="#000000">muted </text>
<text text-anchor="start" x="96.2896" y="-86.9" font-family="Arial" font-size="14.00" fill="#666666">[boolean]</text>
<polygon fill="none" stroke="#000000" points="46.5,-45.5 46.5,-75.5 351.5,-75.5 351.5,-45.5 46.5,-45.5"/>
<text text-anchor="start" x="53.5" y="-56.9" font-family="Arial" font-size="14.00" fill="#000000">collapsed </text>
<text text-anchor="start" x="116.5168" y="-56.9" font-family="Arial" font-size="14.00" fill="#666666">[boolean]</text>
<polygon fill="none" stroke="#000000" stroke-width="3" points="44.5,-44.5 44.5,-352.5 352.5,-352.5 352.5,-44.5 44.5,-44.5"/>
</g>
</g>
</svg>
