<?xml version="1.0" encoding="UTF-8" standalone="no"?>
<!DOCTYPE svg PUBLIC "-//W3C//DTD SVG 1.1//EN"
 "http://www.w3.org/Graphics/SVG/1.1/DTD/svg11.dtd">
<!-- Generated by graphviz version 2.40.1 (20161225.0304)
 -->
<!-- Title: PublicChannels Pages: 1 -->
<svg width="336pt" height="345pt"
 viewBox="0.00 0.00 336.00 345.00" xmlns="http://www.w3.org/2000/svg" xmlns:xlink="http://www.w3.org/1999/xlink">
<g id="graph0" class="graph" transform="scale(1 1) rotate(0) translate(4 341)">
<title>PublicChannels</title>
<polygon fill="#ffffff" stroke="transparent" points="-4,4 -4,-341 332,-341 332,4 -4,4"/>
<!-- PublicChannels -->
<g id="node1" class="node">
<title>PublicChannels</title>
<polygon fill="#efefef" stroke="transparent" points="46,-255.5 46,-290.5 282,-290.5 282,-255.5 46,-255.5"/>
<polygon fill="none" stroke="#000000" points="46,-255.5 46,-290.5 282,-290.5 282,-255.5 46,-255.5"/>
<text text-anchor="start" x="52.8609" y="-268.3" font-family="Arial Bold" font-size="18.00" fill="#000000">PublicChannels</text>
<text text-anchor="start" x="177.8853" y="-268.3" font-family="Arial" font-size="14.00" fill="#000000"> </text>
<text text-anchor="start" x="181.7759" y="-268.3" font-family="Arial" font-size="14.00" fill="#666666">[BASE TABLE]</text>
<polygon fill="none" stroke="#000000" points="46,-225.5 46,-255.5 282,-255.5 282,-225.5 46,-225.5"/>
<text text-anchor="start" x="53" y="-236.9" font-family="Arial" font-size="14.00" fill="#000000">Id </text>
<text text-anchor="start" x="68.5638" y="-236.9" font-family="Arial" font-size="14.00" fill="#666666">[varchar(26)]</text>
<polygon fill="none" stroke="#000000" points="46,-195.5 46,-225.5 282,-225.5 282,-195.5 46,-195.5"/>
<text text-anchor="start" x="53" y="-206.9" font-family="Arial" font-size="14.00" fill="#000000">DeleteAt </text>
<text text-anchor="start" x="110.5694" y="-206.9" font-family="Arial" font-size="14.00" fill="#666666">[bigint(20)]</text>
<polygon fill="none" stroke="#000000" points="46,-165.5 46,-195.5 282,-195.5 282,-165.5 46,-165.5"/>
<text text-anchor="start" x="53" y="-176.9" font-family="Arial" font-size="14.00" fill="#000000">TeamId </text>
<text text-anchor="start" x="104.3422" y="-176.9" font-family="Arial" font-size="14.00" fill="#666666">[varchar(26)]</text>
<polygon fill="none" stroke="#000000" points="46,-135.5 46,-165.5 282,-165.5 282,-135.5 46,-135.5"/>
<text text-anchor="start" x="53" y="-146.9" font-family="Arial" font-size="14.00" fill="#000000">DisplayName </text>
<text text-anchor="start" x="140.108" y="-146.9" font-family="Arial" font-size="14.00" fill="#666666">[varchar(64)]</text>
<polygon fill="none" stroke="#000000" points="46,-105.5 46,-135.5 282,-135.5 282,-105.5 46,-105.5"/>
<text text-anchor="start" x="53" y="-116.9" font-family="Arial" font-size="14.00" fill="#000000">Name </text>
<text text-anchor="start" x="94.223" y="-116.9" font-family="Arial" font-size="14.00" fill="#666666">[varchar(64)]</text>
<polygon fill="none" stroke="#000000" points="46,-75.5 46,-105.5 282,-105.5 282,-75.5 46,-75.5"/>
<text text-anchor="start" x="53" y="-86.9" font-family="Arial" font-size="14.00" fill="#000000">Header </text>
<text text-anchor="start" x="102.7882" y="-86.9" font-family="Arial" font-size="14.00" fill="#666666">[text]</text>
<polygon fill="none" stroke="#000000" points="46,-45.5 46,-75.5 282,-75.5 282,-45.5 46,-45.5"/>
<text text-anchor="start" x="53" y="-56.9" font-family="Arial" font-size="14.00" fill="#000000">Purpose </text>
<text text-anchor="start" x="109.0182" y="-56.9" font-family="Arial" font-size="14.00" fill="#666666">[varchar(250)]</text>
<polygon fill="none" stroke="#000000" stroke-width="3" points="44.5,-44.5 44.5,-292.5 283.5,-292.5 283.5,-44.5 44.5,-44.5"/>
</g>
</g>
</svg>
