<?xml version="1.0" encoding="UTF-8" standalone="no"?>
<!DOCTYPE svg PUBLIC "-//W3C//DTD SVG 1.1//EN"
 "http://www.w3.org/Graphics/SVG/1.1/DTD/svg11.dtd">
<!-- Generated by graphviz version 2.40.1 (20161225.0304)
 -->
<!-- Title: public.ir_run_participants Pages: 1 -->
<svg width="638pt" height="1702pt"
 viewBox="0.00 0.00 637.50 1702.00" xmlns="http://www.w3.org/2000/svg" xmlns:xlink="http://www.w3.org/1999/xlink">
<g id="graph0" class="graph" transform="scale(1 1) rotate(0) translate(4 1698)">
<title>public.ir_run_participants</title>
<polygon fill="#ffffff" stroke="transparent" points="-4,4 -4,-1698 633.5,-1698 633.5,4 -4,4"/>
<!-- public.ir_run_participants -->
<g id="node1" class="node">
<title>public.ir_run_participants</title>
<polygon fill="#efefef" stroke="transparent" points="267,-1612.5 267,-1647.5 578,-1647.5 578,-1612.5 267,-1612.5"/>
<polygon fill="none" stroke="#000000" points="267,-1612.5 267,-1647.5 578,-1647.5 578,-1612.5 267,-1612.5"/>
<text text-anchor="start" x="273.8588" y="-1625.3" font-family="Arial Bold" font-size="18.00" fill="#000000">public.ir_run_participants</text>
<text text-anchor="start" x="473.8874" y="-1625.3" font-family="Arial" font-size="14.00" fill="#000000"> </text>
<text text-anchor="start" x="477.778" y="-1625.3" font-family="Arial" font-size="14.00" fill="#666666">[BASE TABLE]</text>
<polygon fill="none" stroke="#000000" points="267,-1582.5 267,-1612.5 578,-1612.5 578,-1582.5 267,-1582.5"/>
<text text-anchor="start" x="274" y="-1593.9" font-family="Arial" font-size="14.00" fill="#000000">userid </text>
<text text-anchor="start" x="316.0056" y="-1593.9" font-family="Arial" font-size="14.00" fill="#666666">[text]</text>
<polygon fill="none" stroke="#000000" points="267,-1552.5 267,-1582.5 578,-1582.5 578,-1552.5 267,-1552.5"/>
<text text-anchor="start" x="274" y="-1563.9" font-family="Arial" font-size="14.00" fill="#000000">incidentid </text>
<text text-anchor="start" x="337.014" y="-1563.9" font-family="Arial" font-size="14.00" fill="#666666">[text]</text>
<polygon fill="none" stroke="#000000" points="267,-1522.5 267,-1552.5 578,-1552.5 578,-1522.5 267,-1522.5"/>
<text text-anchor="start" x="274" y="-1533.9" font-family="Arial" font-size="14.00" fill="#000000">isfollower </text>
<text text-anchor="start" x="336.216" y="-1533.9" font-family="Arial" font-size="14.00" fill="#666666">[boolean]</text>
<polygon fill="none" stroke="#000000" stroke-width="3" points="265,-1521.5 265,-1649.5 579,-1649.5 579,-1521.5 265,-1521.5"/>
</g>
<!-- public.ir_incident -->
<g id="node2" class="node">
<title>public.ir_incident</title>
<polygon fill="#efefef" stroke="transparent" points="258,-1362.5 258,-1397.5 587,-1397.5 587,-1362.5 258,-1362.5"/>
<polygon fill="none" stroke="#000000" points="258,-1362.5 258,-1397.5 587,-1397.5 587,-1362.5 258,-1362.5"/>
<text text-anchor="start" x="306.8645" y="-1375.3" font-family="Arial Bold" font-size="18.00" fill="#000000">public.ir_incident</text>
<text text-anchor="start" x="440.8817" y="-1375.3" font-family="Arial" font-size="14.00" fill="#000000"> </text>
<text text-anchor="start" x="444.7723" y="-1375.3" font-family="Arial" font-size="14.00" fill="#666666">[BASE TABLE]</text>
<polygon fill="none" stroke="#000000" points="258,-1332.5 258,-1362.5 587,-1362.5 587,-1332.5 258,-1332.5"/>
<text text-anchor="start" x="265" y="-1343.9" font-family="Arial" font-size="14.00" fill="#000000">id </text>
<text text-anchor="start" x="279.7798" y="-1343.9" font-family="Arial" font-size="14.00" fill="#666666">[text]</text>
<polygon fill="none" stroke="#000000" points="258,-1302.5 258,-1332.5 587,-1332.5 587,-1302.5 258,-1302.5"/>
<text text-anchor="start" x="265" y="-1313.9" font-family="Arial" font-size="14.00" fill="#000000">name </text>
<text text-anchor="start" x="303.899" y="-1313.9" font-family="Arial" font-size="14.00" fill="#666666">[text]</text>
<polygon fill="none" stroke="#000000" points="258,-1272.5 258,-1302.5 587,-1302.5 587,-1272.5 258,-1272.5"/>
<text text-anchor="start" x="265" y="-1283.9" font-family="Arial" font-size="14.00" fill="#000000">description </text>
<text text-anchor="start" x="336.568" y="-1283.9" font-family="Arial" font-size="14.00" fill="#666666">[text]</text>
<polygon fill="none" stroke="#000000" points="258,-1242.5 258,-1272.5 587,-1272.5 587,-1242.5 258,-1242.5"/>
<text text-anchor="start" x="265" y="-1253.9" font-family="Arial" font-size="14.00" fill="#000000">isactive </text>
<text text-anchor="start" x="315.5596" y="-1253.9" font-family="Arial" font-size="14.00" fill="#666666">[boolean]</text>
<polygon fill="none" stroke="#000000" points="258,-1212.5 258,-1242.5 587,-1242.5 587,-1212.5 258,-1212.5"/>
<text text-anchor="start" x="265" y="-1223.9" font-family="Arial" font-size="14.00" fill="#000000">commanderuserid </text>
<text text-anchor="start" x="380.9004" y="-1223.9" font-family="Arial" font-size="14.00" fill="#666666">[text]</text>
<polygon fill="none" stroke="#000000" points="258,-1182.5 258,-1212.5 587,-1212.5 587,-1182.5 258,-1182.5"/>
<text text-anchor="start" x="265" y="-1193.9" font-family="Arial" font-size="14.00" fill="#000000">teamid </text>
<text text-anchor="start" x="310.8962" y="-1193.9" font-family="Arial" font-size="14.00" fill="#666666">[text]</text>
<polygon fill="none" stroke="#000000" points="258,-1152.5 258,-1182.5 587,-1182.5 587,-1152.5 258,-1152.5"/>
<text text-anchor="start" x="265" y="-1163.9" font-family="Arial" font-size="14.00" fill="#000000">channelid </text>
<text text-anchor="start" x="328.7994" y="-1163.9" font-family="Arial" font-size="14.00" fill="#666666">[text]</text>
<polygon fill="none" stroke="#000000" points="258,-1122.5 258,-1152.5 587,-1152.5 587,-1122.5 258,-1122.5"/>
<text text-anchor="start" x="265" y="-1133.9" font-family="Arial" font-size="14.00" fill="#000000">createat </text>
<text text-anchor="start" x="319.4628" y="-1133.9" font-family="Arial" font-size="14.00" fill="#666666">[bigint]</text>
<polygon fill="none" stroke="#000000" points="258,-1092.5 258,-1122.5 587,-1122.5 587,-1092.5 258,-1092.5"/>
<text text-anchor="start" x="265" y="-1103.9" font-family="Arial" font-size="14.00" fill="#000000">endat </text>
<text text-anchor="start" x="303.9116" y="-1103.9" font-family="Arial" font-size="14.00" fill="#666666">[bigint]</text>
<polygon fill="none" stroke="#000000" points="258,-1062.5 258,-1092.5 587,-1092.5 587,-1062.5 258,-1062.5"/>
<text text-anchor="start" x="265" y="-1073.9" font-family="Arial" font-size="14.00" fill="#000000">deleteat </text>
<text text-anchor="start" x="318.6914" y="-1073.9" font-family="Arial" font-size="14.00" fill="#666666">[bigint]</text>
<polygon fill="none" stroke="#000000" points="258,-1032.5 258,-1062.5 587,-1062.5 587,-1032.5 258,-1032.5"/>
<text text-anchor="start" x="265" y="-1043.9" font-family="Arial" font-size="14.00" fill="#000000">activestage </text>
<text text-anchor="start" x="339.6914" y="-1043.9" font-family="Arial" font-size="14.00" fill="#666666">[bigint]</text>
<polygon fill="none" stroke="#000000" points="258,-1002.5 258,-1032.5 587,-1032.5 587,-1002.5 258,-1002.5"/>
<text text-anchor="start" x="265" y="-1013.9" font-family="Arial" font-size="14.00" fill="#000000">postid </text>
<text text-anchor="start" x="306.2356" y="-1013.9" font-family="Arial" font-size="14.00" fill="#666666">[text]</text>
<polygon fill="none" stroke="#000000" points="258,-972.5 258,-1002.5 587,-1002.5 587,-972.5 258,-972.5"/>
<text text-anchor="start" x="265" y="-983.9" font-family="Arial" font-size="14.00" fill="#000000">playbookid </text>
<text text-anchor="start" x="335.7994" y="-983.9" font-family="Arial" font-size="14.00" fill="#666666">[text]</text>
<polygon fill="none" stroke="#000000" points="258,-942.5 258,-972.5 587,-972.5 587,-942.5 258,-942.5"/>
<text text-anchor="start" x="265" y="-953.9" font-family="Arial" font-size="14.00" fill="#000000">checklistsjson </text>
<text text-anchor="start" x="355.2314" y="-953.9" font-family="Arial" font-size="14.00" fill="#666666">[json]</text>
<polygon fill="none" stroke="#000000" points="258,-912.5 258,-942.5 587,-942.5 587,-912.5 258,-912.5"/>
<text text-anchor="start" x="265" y="-923.9" font-family="Arial" font-size="14.00" fill="#000000">activestagetitle </text>
<text text-anchor="start" x="361.4684" y="-923.9" font-family="Arial" font-size="14.00" fill="#666666">[text]</text>
<polygon fill="none" stroke="#000000" points="258,-882.5 258,-912.5 587,-912.5 587,-882.5 258,-882.5"/>
<text text-anchor="start" x="265" y="-893.9" font-family="Arial" font-size="14.00" fill="#000000">reminderpostid </text>
<text text-anchor="start" x="361.4544" y="-893.9" font-family="Arial" font-size="14.00" fill="#666666">[text]</text>
<polygon fill="none" stroke="#000000" points="258,-852.5 258,-882.5 587,-882.5 587,-852.5 258,-852.5"/>
<text text-anchor="start" x="265" y="-863.9" font-family="Arial" font-size="14.00" fill="#000000">broadcastchannelid </text>
<text text-anchor="start" x="390.2636" y="-863.9" font-family="Arial" font-size="14.00" fill="#666666">[text]</text>
<polygon fill="none" stroke="#000000" points="258,-822.5 258,-852.5 587,-852.5 587,-822.5 258,-822.5"/>
<text text-anchor="start" x="265" y="-833.9" font-family="Arial" font-size="14.00" fill="#000000">previousreminder </text>
<text text-anchor="start" x="377.007" y="-833.9" font-family="Arial" font-size="14.00" fill="#666666">[bigint]</text>
<polygon fill="none" stroke="#000000" points="258,-792.5 258,-822.5 587,-822.5 587,-792.5 258,-792.5"/>
<text text-anchor="start" x="265" y="-803.9" font-family="Arial" font-size="14.00" fill="#000000">remindermessagetemplate </text>
<text text-anchor="start" x="434.5792" y="-803.9" font-family="Arial" font-size="14.00" fill="#666666">[text]</text>
<polygon fill="none" stroke="#000000" points="258,-762.5 258,-792.5 587,-792.5 587,-762.5 258,-762.5"/>
<text text-anchor="start" x="265" y="-773.9" font-family="Arial" font-size="14.00" fill="#000000">currentstatus </text>
<text text-anchor="start" x="349.7966" y="-773.9" font-family="Arial" font-size="14.00" fill="#666666">[text]</text>
<polygon fill="none" stroke="#000000" points="258,-732.5 258,-762.5 587,-762.5 587,-732.5 258,-732.5"/>
<text text-anchor="start" x="265" y="-743.9" font-family="Arial" font-size="14.00" fill="#000000">reporteruserid </text>
<text text-anchor="start" x="356.0084" y="-743.9" font-family="Arial" font-size="14.00" fill="#666666">[text]</text>
<polygon fill="none" stroke="#000000" points="258,-702.5 258,-732.5 587,-732.5 587,-702.5 258,-702.5"/>
<text text-anchor="start" x="265" y="-713.9" font-family="Arial" font-size="14.00" fill="#000000">concatenatedinviteduserids </text>
<text text-anchor="start" x="438.4992" y="-713.9" font-family="Arial" font-size="14.00" fill="#666666">[text]</text>
<polygon fill="none" stroke="#000000" points="258,-672.5 258,-702.5 587,-702.5 587,-672.5 258,-672.5"/>
<text text-anchor="start" x="265" y="-683.9" font-family="Arial" font-size="14.00" fill="#000000">defaultcommanderid </text>
<text text-anchor="start" x="395.6928" y="-683.9" font-family="Arial" font-size="14.00" fill="#666666">[text]</text>
<polygon fill="none" stroke="#000000" points="258,-642.5 258,-672.5 587,-672.5 587,-642.5 258,-642.5"/>
<text text-anchor="start" x="265" y="-653.9" font-family="Arial" font-size="14.00" fill="#000000">announcementchannelid </text>
<text text-anchor="start" x="421.394" y="-653.9" font-family="Arial" font-size="14.00" fill="#666666">[text]</text>
<polygon fill="none" stroke="#000000" points="258,-612.5 258,-642.5 587,-642.5 587,-612.5 258,-612.5"/>
<text text-anchor="start" x="265" y="-623.9" font-family="Arial" font-size="14.00" fill="#000000">concatenatedwebhookoncreationurls </text>
<text text-anchor="start" x="496.8554" y="-623.9" font-family="Arial" font-size="14.00" fill="#666666">[text]</text>
<polygon fill="none" stroke="#000000" points="258,-582.5 258,-612.5 587,-612.5 587,-582.5 258,-582.5"/>
<text text-anchor="start" x="265" y="-593.9" font-family="Arial" font-size="14.00" fill="#000000">concatenatedinvitedgroupids </text>
<text text-anchor="start" x="447.0644" y="-593.9" font-family="Arial" font-size="14.00" fill="#666666">[text]</text>
<polygon fill="none" stroke="#000000" points="258,-552.5 258,-582.5 587,-582.5 587,-552.5 258,-552.5"/>
<text text-anchor="start" x="265" y="-563.9" font-family="Arial" font-size="14.00" fill="#000000">retrospective </text>
<text text-anchor="start" x="349.0126" y="-563.9" font-family="Arial" font-size="14.00" fill="#666666">[text]</text>
<polygon fill="none" stroke="#000000" points="258,-522.5 258,-552.5 587,-552.5 587,-522.5 258,-522.5"/>
<text text-anchor="start" x="265" y="-533.9" font-family="Arial" font-size="14.00" fill="#000000">messageonjoin </text>
<text text-anchor="start" x="363.0252" y="-533.9" font-family="Arial" font-size="14.00" fill="#666666">[text]</text>
<polygon fill="none" stroke="#000000" points="258,-492.5 258,-522.5 587,-522.5 587,-492.5 258,-492.5"/>
<text text-anchor="start" x="265" y="-503.9" font-family="Arial" font-size="14.00" fill="#000000">retrospectivepublishedat </text>
<text text-anchor="start" x="420.5946" y="-503.9" font-family="Arial" font-size="14.00" fill="#666666">[bigint]</text>
<polygon fill="none" stroke="#000000" points="258,-462.5 258,-492.5 587,-492.5 587,-462.5 258,-462.5"/>
<text text-anchor="start" x="265" y="-473.9" font-family="Arial" font-size="14.00" fill="#000000">retrospectivereminderintervalseconds </text>
<text text-anchor="start" x="501.474" y="-473.9" font-family="Arial" font-size="14.00" fill="#666666">[bigint]</text>
<polygon fill="none" stroke="#000000" points="258,-432.5 258,-462.5 587,-462.5 587,-432.5 258,-432.5"/>
<text text-anchor="start" x="265" y="-443.9" font-family="Arial" font-size="14.00" fill="#000000">retrospectivewascanceled </text>
<text text-anchor="start" x="429.9214" y="-443.9" font-family="Arial" font-size="14.00" fill="#666666">[boolean]</text>
<polygon fill="none" stroke="#000000" points="258,-402.5 258,-432.5 587,-432.5 587,-402.5 258,-402.5"/>
<text text-anchor="start" x="265" y="-413.9" font-family="Arial" font-size="14.00" fill="#000000">concatenatedwebhookonstatusupdateurls </text>
<text text-anchor="start" x="527.2172" y="-413.9" font-family="Arial" font-size="14.00" fill="#666666">[text]</text>
<polygon fill="none" stroke="#000000" points="258,-372.5 258,-402.5 587,-402.5 587,-372.5 258,-372.5"/>
<text text-anchor="start" x="265" y="-383.9" font-family="Arial" font-size="14.00" fill="#000000">laststatusupdateat </text>
<text text-anchor="start" x="382.4936" y="-383.9" font-family="Arial" font-size="14.00" fill="#666666">[bigint]</text>
<polygon fill="none" stroke="#000000" points="258,-342.5 258,-372.5 587,-372.5 587,-342.5 258,-342.5"/>
<text text-anchor="start" x="265" y="-353.9" font-family="Arial" font-size="14.00" fill="#000000">exportchannelonfinishedenabled </text>
<text text-anchor="start" x="470.4108" y="-353.9" font-family="Arial" font-size="14.00" fill="#666666">[boolean]</text>
<polygon fill="none" stroke="#000000" points="258,-312.5 258,-342.5 587,-342.5 587,-312.5 258,-312.5"/>
<text text-anchor="start" x="265" y="-323.9" font-family="Arial" font-size="14.00" fill="#000000">categorizechannelenabled </text>
<text text-anchor="start" x="432.2832" y="-323.9" font-family="Arial" font-size="14.00" fill="#666666">[boolean]</text>
<polygon fill="none" stroke="#000000" points="258,-282.5 258,-312.5 587,-312.5 587,-282.5 258,-282.5"/>
<text text-anchor="start" x="265" y="-293.9" font-family="Arial" font-size="14.00" fill="#000000">categoryname </text>
<text text-anchor="start" x="357.5806" y="-293.9" font-family="Arial" font-size="14.00" fill="#666666">[text]</text>
<polygon fill="none" stroke="#000000" points="258,-252.5 258,-282.5 587,-282.5 587,-252.5 258,-252.5"/>
<text text-anchor="start" x="265" y="-263.9" font-family="Arial" font-size="14.00" fill="#000000">concatenatedbroadcastchannelids </text>
<text text-anchor="start" x="481.3056" y="-263.9" font-family="Arial" font-size="14.00" fill="#666666">[text]</text>
<polygon fill="none" stroke="#000000" points="258,-222.5 258,-252.5 587,-252.5 587,-222.5 258,-222.5"/>
<text text-anchor="start" x="265" y="-233.9" font-family="Arial" font-size="14.00" fill="#000000">channelidtorootid </text>
<text text-anchor="start" x="375.4782" y="-233.9" font-family="Arial" font-size="14.00" fill="#666666">[text]</text>
<polygon fill="none" stroke="#000000" points="258,-192.5 258,-222.5 587,-222.5 587,-192.5 258,-192.5"/>
<text text-anchor="start" x="265" y="-203.9" font-family="Arial" font-size="14.00" fill="#000000">remindertimerdefaultseconds </text>
<text text-anchor="start" x="449.359" y="-203.9" font-family="Arial" font-size="14.00" fill="#666666">[bigint]</text>
<polygon fill="none" stroke="#000000" points="258,-162.5 258,-192.5 587,-192.5 587,-162.5 258,-162.5"/>
<text text-anchor="start" x="265" y="-173.9" font-family="Arial" font-size="14.00" fill="#000000">statusupdateenabled </text>
<text text-anchor="start" x="398.8428" y="-173.9" font-family="Arial" font-size="14.00" fill="#666666">[boolean]</text>
<polygon fill="none" stroke="#000000" points="258,-132.5 258,-162.5 587,-162.5 587,-132.5 258,-132.5"/>
<text text-anchor="start" x="265" y="-143.9" font-family="Arial" font-size="14.00" fill="#000000">retrospectiveenabled </text>
<text text-anchor="start" x="398.8148" y="-143.9" font-family="Arial" font-size="14.00" fill="#666666">[boolean]</text>
<polygon fill="none" stroke="#000000" points="258,-102.5 258,-132.5 587,-132.5 587,-102.5 258,-102.5"/>
<text text-anchor="start" x="265" y="-113.9" font-family="Arial" font-size="14.00" fill="#000000">statusupdatebroadcastchannelsenabled </text>
<text text-anchor="start" x="516.3266" y="-113.9" font-family="Arial" font-size="14.00" fill="#666666">[boolean]</text>
<polygon fill="none" stroke="#000000" points="258,-72.5 258,-102.5 587,-102.5 587,-72.5 258,-72.5"/>
<text text-anchor="start" x="264.545" y="-83.9" font-family="Arial" font-size="14.00" fill="#000000">statusupdatebroadcastwebhooksenabled </text>
<text text-anchor="start" x="522.8716" y="-83.9" font-family="Arial" font-size="14.00" fill="#666666">[boolean]</text>
<polygon fill="none" stroke="#000000" points="258,-42.5 258,-72.5 587,-72.5 587,-42.5 258,-42.5"/>
<text text-anchor="start" x="265" y="-53.9" font-family="Arial" font-size="14.00" fill="#000000">summarymodifiedat </text>
<text text-anchor="start" x="391.0056" y="-53.9" font-family="Arial" font-size="14.00" fill="#666666">[bigint]</text>
</g>
<!-- public.ir_run_participants&#45;&gt;public.ir_incident -->
<g id="edge1" class="edge">
<title>public.ir_run_participants:incidentid&#45;&gt;public.ir_incident:id</title>
<path fill="none" stroke="#000000" d="M257.2774,-1564.39C217.091,-1537.6501 212.5106,-1347.5 258,-1347.5"/>
<polygon fill="#000000" stroke="#000000" points="257.4754,-1564.4533 265.629,-1571.7861 262.2377,-1565.9766 267,-1567.5 267,-1567.5 267,-1567.5 262.2377,-1565.9766 268.371,-1563.2139 257.4754,-1564.4533 257.4754,-1564.4533"/>
<text text-anchor="start" x="7.0545" y="-1577.5" font-family="Arial" font-size="10.00" fill="#000000">FOREIGN KEY (incidentid) REFERENCES ir_incident(id)</text>
</g>
</g>
</svg>
