<?xml version="1.0" encoding="UTF-8" standalone="no"?>
<!DOCTYPE svg PUBLIC "-//W3C//DTD SVG 1.1//EN"
 "http://www.w3.org/Graphics/SVG/1.1/DTD/svg11.dtd">
<!-- Generated by graphviz version 2.40.1 (20161225.0304)
 -->
<!-- Title: public.ir_category_item Pages: 1 -->
<svg width="625pt" height="622pt"
 viewBox="0.00 0.00 625.00 622.00" xmlns="http://www.w3.org/2000/svg" xmlns:xlink="http://www.w3.org/1999/xlink">
<g id="graph0" class="graph" transform="scale(1 1) rotate(0) translate(4 618)">
<title>public.ir_category_item</title>
<polygon fill="#ffffff" stroke="transparent" points="-4,4 -4,-618 621,-618 621,4 -4,4"/>
<!-- public.ir_category_item -->
<g id="node1" class="node">
<title>public.ir_category_item</title>
<polygon fill="#efefef" stroke="transparent" points="46,-532.5 46,-567.5 342,-567.5 342,-532.5 46,-532.5"/>
<polygon fill="none" stroke="#000000" points="46,-532.5 46,-567.5 342,-567.5 342,-532.5 46,-532.5"/>
<text text-anchor="start" x="52.8621" y="-545.3" font-family="Arial Bold" font-size="18.00" fill="#000000">public.ir_category_item</text>
<text text-anchor="start" x="237.8841" y="-545.3" font-family="Arial" font-size="14.00" fill="#000000"> </text>
<text text-anchor="start" x="241.7747" y="-545.3" font-family="Arial" font-size="14.00" fill="#666666">[BASE TABLE]</text>
<polygon fill="none" stroke="#000000" points="46,-502.5 46,-532.5 342,-532.5 342,-502.5 46,-502.5"/>
<text text-anchor="start" x="53" y="-513.9" font-family="Arial" font-size="14.00" fill="#000000">type </text>
<text text-anchor="start" x="83.3464" y="-513.9" font-family="Arial" font-size="14.00" fill="#666666">[text]</text>
<polygon fill="none" stroke="#000000" points="46,-472.5 46,-502.5 342,-502.5 342,-472.5 46,-472.5"/>
<text text-anchor="start" x="53" y="-483.9" font-family="Arial" font-size="14.00" fill="#000000">categoryid </text>
<text text-anchor="start" x="121.4614" y="-483.9" font-family="Arial" font-size="14.00" fill="#666666">[text]</text>
<polygon fill="none" stroke="#000000" points="46,-442.5 46,-472.5 342,-472.5 342,-442.5 46,-442.5"/>
<text text-anchor="start" x="53" y="-453.9" font-family="Arial" font-size="14.00" fill="#000000">itemid </text>
<text text-anchor="start" x="94.2202" y="-453.9" font-family="Arial" font-size="14.00" fill="#666666">[text]</text>
<polygon fill="none" stroke="#000000" stroke-width="3" points="44.5,-441.5 44.5,-569.5 343.5,-569.5 343.5,-441.5 44.5,-441.5"/>
</g>
<!-- public.ir_category -->
<g id="node2" class="node">
<title>public.ir_category</title>
<polygon fill="#efefef" stroke="transparent" points="68,-282.5 68,-317.5 320,-317.5 320,-282.5 68,-282.5"/>
<polygon fill="none" stroke="#000000" points="68,-282.5 68,-317.5 320,-317.5 320,-282.5 68,-282.5"/>
<text text-anchor="start" x="74.8626" y="-295.3" font-family="Arial Bold" font-size="18.00" fill="#000000">public.ir_category</text>
<text text-anchor="start" x="215.8836" y="-295.3" font-family="Arial" font-size="14.00" fill="#000000"> </text>
<text text-anchor="start" x="219.7742" y="-295.3" font-family="Arial" font-size="14.00" fill="#666666">[BASE TABLE]</text>
<polygon fill="none" stroke="#000000" points="68,-252.5 68,-282.5 320,-282.5 320,-252.5 68,-252.5"/>
<text text-anchor="start" x="75" y="-263.9" font-family="Arial" font-size="14.00" fill="#000000">id </text>
<text text-anchor="start" x="89.7798" y="-263.9" font-family="Arial" font-size="14.00" fill="#666666">[text]</text>
<polygon fill="none" stroke="#000000" points="68,-222.5 68,-252.5 320,-252.5 320,-222.5 68,-222.5"/>
<text text-anchor="start" x="75" y="-233.9" font-family="Arial" font-size="14.00" fill="#000000">name </text>
<text text-anchor="start" x="113.899" y="-233.9" font-family="Arial" font-size="14.00" fill="#666666">[text]</text>
<polygon fill="none" stroke="#000000" points="68,-192.5 68,-222.5 320,-222.5 320,-192.5 68,-192.5"/>
<text text-anchor="start" x="75" y="-203.9" font-family="Arial" font-size="14.00" fill="#000000">teamid </text>
<text text-anchor="start" x="120.8962" y="-203.9" font-family="Arial" font-size="14.00" fill="#666666">[text]</text>
<polygon fill="none" stroke="#000000" points="68,-162.5 68,-192.5 320,-192.5 320,-162.5 68,-162.5"/>
<text text-anchor="start" x="75" y="-173.9" font-family="Arial" font-size="14.00" fill="#000000">userid </text>
<text text-anchor="start" x="117.0056" y="-173.9" font-family="Arial" font-size="14.00" fill="#666666">[text]</text>
<polygon fill="none" stroke="#000000" points="68,-132.5 68,-162.5 320,-162.5 320,-132.5 68,-132.5"/>
<text text-anchor="start" x="75" y="-143.9" font-family="Arial" font-size="14.00" fill="#000000">collapsed </text>
<text text-anchor="start" x="138.0168" y="-143.9" font-family="Arial" font-size="14.00" fill="#666666">[boolean]</text>
<polygon fill="none" stroke="#000000" points="68,-102.5 68,-132.5 320,-132.5 320,-102.5 68,-102.5"/>
<text text-anchor="start" x="75" y="-113.9" font-family="Arial" font-size="14.00" fill="#000000">createat </text>
<text text-anchor="start" x="129.4628" y="-113.9" font-family="Arial" font-size="14.00" fill="#666666">[bigint]</text>
<polygon fill="none" stroke="#000000" points="68,-72.5 68,-102.5 320,-102.5 320,-72.5 68,-72.5"/>
<text text-anchor="start" x="75" y="-83.9" font-family="Arial" font-size="14.00" fill="#000000">updateat </text>
<text text-anchor="start" x="133.3674" y="-83.9" font-family="Arial" font-size="14.00" fill="#666666">[bigint]</text>
<polygon fill="none" stroke="#000000" points="68,-42.5 68,-72.5 320,-72.5 320,-42.5 68,-42.5"/>
<text text-anchor="start" x="75" y="-53.9" font-family="Arial" font-size="14.00" fill="#000000">deleteat </text>
<text text-anchor="start" x="128.6914" y="-53.9" font-family="Arial" font-size="14.00" fill="#666666">[bigint]</text>
</g>
<!-- public.ir_category_item&#45;&gt;public.ir_category -->
<g id="edge1" class="edge">
<title>public.ir_category_item:categoryid&#45;&gt;public.ir_category:id</title>
<path fill="none" stroke="#000000" d="M352.1828,-486.6591C438.576,-471.8888 414.7148,-267.5 320,-267.5"/>
<polygon fill="#000000" stroke="#000000" points="351.9661,-486.6769 341.6296,-483.0153 346.983,-487.0884 342,-487.5 342,-487.5 342,-487.5 346.983,-487.0884 342.3704,-491.9847 351.9661,-486.6769 351.9661,-486.6769"/>
<text text-anchor="start" x="349.1635" y="-497.5" font-family="Arial" font-size="10.00" fill="#000000">FOREIGN KEY (categoryid) REFERENCES ir_category(id)</text>
</g>
</g>
</svg>
