<?xml version="1.0" encoding="UTF-8" standalone="no"?>
<!DOCTYPE svg PUBLIC "-//W3C//DTD SVG 1.1//EN"
 "http://www.w3.org/Graphics/SVG/1.1/DTD/svg11.dtd">
<!-- Generated by graphviz version 2.40.1 (20161225.0304)
 -->
<!-- Title: public.ir_metricconfig Pages: 1 -->
<svg width="626pt" height="2069pt"
 viewBox="0.00 0.00 626.00 2069.00" xmlns="http://www.w3.org/2000/svg" xmlns:xlink="http://www.w3.org/1999/xlink">
<g id="graph0" class="graph" transform="scale(1 1) rotate(0) translate(4 2065)">
<title>public.ir_metricconfig</title>
<polygon fill="#ffffff" stroke="transparent" points="-4,4 -4,-2065 622,-2065 622,4 -4,4"/>
<!-- public.ir_metricconfig -->
<g id="node1" class="node">
<title>public.ir_metricconfig</title>
<polygon fill="#efefef" stroke="transparent" points="56,-1702.5 56,-1737.5 336,-1737.5 336,-1702.5 56,-1702.5"/>
<polygon fill="none" stroke="#000000" points="56,-1702.5 56,-1737.5 336,-1737.5 336,-1702.5 56,-1702.5"/>
<text text-anchor="start" x="62.8712" y="-1715.3" font-family="Arial Bold" font-size="18.00" fill="#000000">public.ir_metricconfig</text>
<text text-anchor="start" x="231.875" y="-1715.3" font-family="Arial" font-size="14.00" fill="#000000"> </text>
<text text-anchor="start" x="235.7656" y="-1715.3" font-family="Arial" font-size="14.00" fill="#666666">[BASE TABLE]</text>
<polygon fill="none" stroke="#000000" points="56,-1672.5 56,-1702.5 336,-1702.5 336,-1672.5 56,-1672.5"/>
<text text-anchor="start" x="63" y="-1683.9" font-family="Arial" font-size="14.00" fill="#000000">id </text>
<text text-anchor="start" x="77.7798" y="-1683.9" font-family="Arial" font-size="14.00" fill="#666666">[text]</text>
<polygon fill="none" stroke="#000000" points="56,-1642.5 56,-1672.5 336,-1672.5 336,-1642.5 56,-1642.5"/>
<text text-anchor="start" x="63" y="-1653.9" font-family="Arial" font-size="14.00" fill="#000000">playbookid </text>
<text text-anchor="start" x="133.7994" y="-1653.9" font-family="Arial" font-size="14.00" fill="#666666">[text]</text>
<polygon fill="none" stroke="#000000" points="56,-1612.5 56,-1642.5 336,-1642.5 336,-1612.5 56,-1612.5"/>
<text text-anchor="start" x="63" y="-1623.9" font-family="Arial" font-size="14.00" fill="#000000">title </text>
<text text-anchor="start" x="88.6676" y="-1623.9" font-family="Arial" font-size="14.00" fill="#666666">[text]</text>
<polygon fill="none" stroke="#000000" points="56,-1582.5 56,-1612.5 336,-1612.5 336,-1582.5 56,-1582.5"/>
<text text-anchor="start" x="63" y="-1593.9" font-family="Arial" font-size="14.00" fill="#000000">description </text>
<text text-anchor="start" x="134.568" y="-1593.9" font-family="Arial" font-size="14.00" fill="#666666">[text]</text>
<polygon fill="none" stroke="#000000" points="56,-1552.5 56,-1582.5 336,-1582.5 336,-1552.5 56,-1552.5"/>
<text text-anchor="start" x="63" y="-1563.9" font-family="Arial" font-size="14.00" fill="#000000">type </text>
<text text-anchor="start" x="93.3464" y="-1563.9" font-family="Arial" font-size="14.00" fill="#666666">[text]</text>
<polygon fill="none" stroke="#000000" points="56,-1522.5 56,-1552.5 336,-1552.5 336,-1522.5 56,-1522.5"/>
<text text-anchor="start" x="63" y="-1533.9" font-family="Arial" font-size="14.00" fill="#000000">target </text>
<text text-anchor="start" x="102.6802" y="-1533.9" font-family="Arial" font-size="14.00" fill="#666666">[bigint]</text>
<polygon fill="none" stroke="#000000" points="56,-1492.5 56,-1522.5 336,-1522.5 336,-1492.5 56,-1492.5"/>
<text text-anchor="start" x="63" y="-1503.9" font-family="Arial" font-size="14.00" fill="#000000">ordering </text>
<text text-anchor="start" x="118.2314" y="-1503.9" font-family="Arial" font-size="14.00" fill="#666666">[smallint]</text>
<polygon fill="none" stroke="#000000" points="56,-1462.5 56,-1492.5 336,-1492.5 336,-1462.5 56,-1462.5"/>
<text text-anchor="start" x="63" y="-1473.9" font-family="Arial" font-size="14.00" fill="#000000">deleteat </text>
<text text-anchor="start" x="116.6914" y="-1473.9" font-family="Arial" font-size="14.00" fill="#666666">[bigint]</text>
<polygon fill="none" stroke="#000000" stroke-width="3" points="54.5,-1461.5 54.5,-1739.5 337.5,-1739.5 337.5,-1461.5 54.5,-1461.5"/>
</g>
<!-- public.ir_playbook -->
<g id="node3" class="node">
<title>public.ir_playbook</title>
<polygon fill="#efefef" stroke="transparent" points="43,-1302.5 43,-1337.5 349,-1337.5 349,-1302.5 43,-1302.5"/>
<polygon fill="none" stroke="#000000" points="43,-1302.5 43,-1337.5 349,-1337.5 349,-1302.5 43,-1302.5"/>
<text text-anchor="start" x="75.3596" y="-1315.3" font-family="Arial Bold" font-size="18.00" fill="#000000">public.ir_playbook</text>
<text text-anchor="start" x="219.3866" y="-1315.3" font-family="Arial" font-size="14.00" fill="#000000"> </text>
<text text-anchor="start" x="223.2772" y="-1315.3" font-family="Arial" font-size="14.00" fill="#666666">[BASE TABLE]</text>
<polygon fill="none" stroke="#000000" points="43,-1272.5 43,-1302.5 349,-1302.5 349,-1272.5 43,-1272.5"/>
<text text-anchor="start" x="50" y="-1283.9" font-family="Arial" font-size="14.00" fill="#000000">id </text>
<text text-anchor="start" x="64.7798" y="-1283.9" font-family="Arial" font-size="14.00" fill="#666666">[text]</text>
<polygon fill="none" stroke="#000000" points="43,-1242.5 43,-1272.5 349,-1272.5 349,-1242.5 43,-1242.5"/>
<text text-anchor="start" x="50" y="-1253.9" font-family="Arial" font-size="14.00" fill="#000000">title </text>
<text text-anchor="start" x="75.6676" y="-1253.9" font-family="Arial" font-size="14.00" fill="#666666">[text]</text>
<polygon fill="none" stroke="#000000" points="43,-1212.5 43,-1242.5 349,-1242.5 349,-1212.5 43,-1212.5"/>
<text text-anchor="start" x="50" y="-1223.9" font-family="Arial" font-size="14.00" fill="#000000">description </text>
<text text-anchor="start" x="121.568" y="-1223.9" font-family="Arial" font-size="14.00" fill="#666666">[text]</text>
<polygon fill="none" stroke="#000000" points="43,-1182.5 43,-1212.5 349,-1212.5 349,-1182.5 43,-1182.5"/>
<text text-anchor="start" x="50" y="-1193.9" font-family="Arial" font-size="14.00" fill="#000000">teamid </text>
<text text-anchor="start" x="95.8962" y="-1193.9" font-family="Arial" font-size="14.00" fill="#666666">[text]</text>
<polygon fill="none" stroke="#000000" points="43,-1152.5 43,-1182.5 349,-1182.5 349,-1152.5 43,-1152.5"/>
<text text-anchor="start" x="50" y="-1163.9" font-family="Arial" font-size="14.00" fill="#000000">createpublicincident </text>
<text text-anchor="start" x="177.5848" y="-1163.9" font-family="Arial" font-size="14.00" fill="#666666">[boolean]</text>
<polygon fill="none" stroke="#000000" points="43,-1122.5 43,-1152.5 349,-1152.5 349,-1122.5 43,-1122.5"/>
<text text-anchor="start" x="50" y="-1133.9" font-family="Arial" font-size="14.00" fill="#000000">createat </text>
<text text-anchor="start" x="104.4628" y="-1133.9" font-family="Arial" font-size="14.00" fill="#666666">[bigint]</text>
<polygon fill="none" stroke="#000000" points="43,-1092.5 43,-1122.5 349,-1122.5 349,-1092.5 43,-1092.5"/>
<text text-anchor="start" x="50" y="-1103.9" font-family="Arial" font-size="14.00" fill="#000000">deleteat </text>
<text text-anchor="start" x="103.6914" y="-1103.9" font-family="Arial" font-size="14.00" fill="#666666">[bigint]</text>
<polygon fill="none" stroke="#000000" points="43,-1062.5 43,-1092.5 349,-1092.5 349,-1062.5 43,-1062.5"/>
<text text-anchor="start" x="50" y="-1073.9" font-family="Arial" font-size="14.00" fill="#000000">checklistsjson </text>
<text text-anchor="start" x="140.2314" y="-1073.9" font-family="Arial" font-size="14.00" fill="#666666">[json]</text>
<polygon fill="none" stroke="#000000" points="43,-1032.5 43,-1062.5 349,-1062.5 349,-1032.5 43,-1032.5"/>
<text text-anchor="start" x="50" y="-1043.9" font-family="Arial" font-size="14.00" fill="#000000">numstages </text>
<text text-anchor="start" x="122.3548" y="-1043.9" font-family="Arial" font-size="14.00" fill="#666666">[bigint]</text>
<polygon fill="none" stroke="#000000" points="43,-1002.5 43,-1032.5 349,-1032.5 349,-1002.5 43,-1002.5"/>
<text text-anchor="start" x="50" y="-1013.9" font-family="Arial" font-size="14.00" fill="#000000">numsteps </text>
<text text-anchor="start" x="114.5722" y="-1013.9" font-family="Arial" font-size="14.00" fill="#666666">[bigint]</text>
<polygon fill="none" stroke="#000000" points="43,-972.5 43,-1002.5 349,-1002.5 349,-972.5 43,-972.5"/>
<text text-anchor="start" x="50" y="-983.9" font-family="Arial" font-size="14.00" fill="#000000">broadcastchannelid </text>
<text text-anchor="start" x="175.2636" y="-983.9" font-family="Arial" font-size="14.00" fill="#666666">[text]</text>
<polygon fill="none" stroke="#000000" points="43,-942.5 43,-972.5 349,-972.5 349,-942.5 43,-942.5"/>
<text text-anchor="start" x="50" y="-953.9" font-family="Arial" font-size="14.00" fill="#000000">remindermessagetemplate </text>
<text text-anchor="start" x="219.5792" y="-953.9" font-family="Arial" font-size="14.00" fill="#666666">[text]</text>
<polygon fill="none" stroke="#000000" points="43,-912.5 43,-942.5 349,-942.5 349,-912.5 43,-912.5"/>
<text text-anchor="start" x="50" y="-923.9" font-family="Arial" font-size="14.00" fill="#000000">remindertimerdefaultseconds </text>
<text text-anchor="start" x="234.359" y="-923.9" font-family="Arial" font-size="14.00" fill="#666666">[bigint]</text>
<polygon fill="none" stroke="#000000" points="43,-882.5 43,-912.5 349,-912.5 349,-882.5 43,-882.5"/>
<text text-anchor="start" x="50" y="-893.9" font-family="Arial" font-size="14.00" fill="#000000">concatenatedinviteduserids </text>
<text text-anchor="start" x="223.4992" y="-893.9" font-family="Arial" font-size="14.00" fill="#666666">[text]</text>
<polygon fill="none" stroke="#000000" points="43,-852.5 43,-882.5 349,-882.5 349,-852.5 43,-852.5"/>
<text text-anchor="start" x="50" y="-863.9" font-family="Arial" font-size="14.00" fill="#000000">inviteusersenabled </text>
<text text-anchor="start" x="170.5876" y="-863.9" font-family="Arial" font-size="14.00" fill="#666666">[boolean]</text>
<polygon fill="none" stroke="#000000" points="43,-822.5 43,-852.5 349,-852.5 349,-822.5 43,-822.5"/>
<text text-anchor="start" x="50" y="-833.9" font-family="Arial" font-size="14.00" fill="#000000">defaultcommanderid </text>
<text text-anchor="start" x="180.6928" y="-833.9" font-family="Arial" font-size="14.00" fill="#666666">[text]</text>
<polygon fill="none" stroke="#000000" points="43,-792.5 43,-822.5 349,-822.5 349,-792.5 43,-792.5"/>
<text text-anchor="start" x="50" y="-803.9" font-family="Arial" font-size="14.00" fill="#000000">defaultcommanderenabled </text>
<text text-anchor="start" x="219.6058" y="-803.9" font-family="Arial" font-size="14.00" fill="#666666">[boolean]</text>
<polygon fill="none" stroke="#000000" points="43,-762.5 43,-792.5 349,-792.5 349,-762.5 43,-762.5"/>
<text text-anchor="start" x="50" y="-773.9" font-family="Arial" font-size="14.00" fill="#000000">announcementchannelid </text>
<text text-anchor="start" x="206.394" y="-773.9" font-family="Arial" font-size="14.00" fill="#666666">[text]</text>
<polygon fill="none" stroke="#000000" points="43,-732.5 43,-762.5 349,-762.5 349,-732.5 43,-732.5"/>
<text text-anchor="start" x="50" y="-743.9" font-family="Arial" font-size="14.00" fill="#000000">announcementchannelenabled </text>
<text text-anchor="start" x="245.307" y="-743.9" font-family="Arial" font-size="14.00" fill="#666666">[boolean]</text>
<polygon fill="none" stroke="#000000" points="43,-702.5 43,-732.5 349,-732.5 349,-702.5 43,-702.5"/>
<text text-anchor="start" x="50" y="-713.9" font-family="Arial" font-size="14.00" fill="#000000">concatenatedwebhookoncreationurls </text>
<text text-anchor="start" x="281.8554" y="-713.9" font-family="Arial" font-size="14.00" fill="#666666">[text]</text>
<polygon fill="none" stroke="#000000" points="43,-672.5 43,-702.5 349,-702.5 349,-672.5 43,-672.5"/>
<text text-anchor="start" x="50" y="-683.9" font-family="Arial" font-size="14.00" fill="#000000">webhookoncreationenabled </text>
<text text-anchor="start" x="225.0658" y="-683.9" font-family="Arial" font-size="14.00" fill="#666666">[boolean]</text>
<polygon fill="none" stroke="#000000" points="43,-642.5 43,-672.5 349,-672.5 349,-642.5 43,-642.5"/>
<text text-anchor="start" x="50" y="-653.9" font-family="Arial" font-size="14.00" fill="#000000">concatenatedinvitedgroupids </text>
<text text-anchor="start" x="232.0644" y="-653.9" font-family="Arial" font-size="14.00" fill="#666666">[text]</text>
<polygon fill="none" stroke="#000000" points="43,-612.5 43,-642.5 349,-642.5 349,-612.5 43,-612.5"/>
<text text-anchor="start" x="50" y="-623.9" font-family="Arial" font-size="14.00" fill="#000000">messageonjoin </text>
<text text-anchor="start" x="148.0252" y="-623.9" font-family="Arial" font-size="14.00" fill="#666666">[text]</text>
<polygon fill="none" stroke="#000000" points="43,-582.5 43,-612.5 349,-612.5 349,-582.5 43,-582.5"/>
<text text-anchor="start" x="50" y="-593.9" font-family="Arial" font-size="14.00" fill="#000000">messageonjoinenabled </text>
<text text-anchor="start" x="197.8274" y="-593.9" font-family="Arial" font-size="14.00" fill="#666666">[boolean]</text>
<polygon fill="none" stroke="#000000" points="43,-552.5 43,-582.5 349,-582.5 349,-552.5 43,-552.5"/>
<text text-anchor="start" x="50" y="-563.9" font-family="Arial" font-size="14.00" fill="#000000">retrospectivereminderintervalseconds </text>
<text text-anchor="start" x="286.474" y="-563.9" font-family="Arial" font-size="14.00" fill="#666666">[bigint]</text>
<polygon fill="none" stroke="#000000" points="43,-522.5 43,-552.5 349,-552.5 349,-522.5 43,-522.5"/>
<text text-anchor="start" x="50" y="-533.9" font-family="Arial" font-size="14.00" fill="#000000">retrospectivetemplate </text>
<text text-anchor="start" x="187.6914" y="-533.9" font-family="Arial" font-size="14.00" fill="#666666">[text]</text>
<polygon fill="none" stroke="#000000" points="43,-492.5 43,-522.5 349,-522.5 349,-492.5 43,-492.5"/>
<text text-anchor="start" x="49.7189" y="-503.9" font-family="Arial" font-size="14.00" fill="#000000">concatenatedwebhookonstatusupdateurls </text>
<text text-anchor="start" x="311.9361" y="-503.9" font-family="Arial" font-size="14.00" fill="#666666">[text]</text>
<polygon fill="none" stroke="#000000" points="43,-462.5 43,-492.5 349,-492.5 349,-462.5 43,-462.5"/>
<text text-anchor="start" x="50" y="-473.9" font-family="Arial" font-size="14.00" fill="#000000">webhookonstatusupdateenabled </text>
<text text-anchor="start" x="255.4276" y="-473.9" font-family="Arial" font-size="14.00" fill="#666666">[boolean]</text>
<polygon fill="none" stroke="#000000" points="43,-432.5 43,-462.5 349,-462.5 349,-432.5 43,-432.5"/>
<text text-anchor="start" x="50" y="-443.9" font-family="Arial" font-size="14.00" fill="#000000">concatenatedsignalanykeywords </text>
<text text-anchor="start" x="256.1738" y="-443.9" font-family="Arial" font-size="14.00" fill="#666666">[text]</text>
<polygon fill="none" stroke="#000000" points="43,-402.5 43,-432.5 349,-432.5 349,-402.5 43,-402.5"/>
<text text-anchor="start" x="50" y="-413.9" font-family="Arial" font-size="14.00" fill="#000000">signalanykeywordsenabled </text>
<text text-anchor="start" x="221.934" y="-413.9" font-family="Arial" font-size="14.00" fill="#666666">[boolean]</text>
<polygon fill="none" stroke="#000000" points="43,-372.5 43,-402.5 349,-402.5 349,-372.5 43,-372.5"/>
<text text-anchor="start" x="50" y="-383.9" font-family="Arial" font-size="14.00" fill="#000000">updateat </text>
<text text-anchor="start" x="108.3674" y="-383.9" font-family="Arial" font-size="14.00" fill="#666666">[bigint]</text>
<polygon fill="none" stroke="#000000" points="43,-342.5 43,-372.5 349,-372.5 349,-342.5 43,-342.5"/>
<text text-anchor="start" x="50" y="-353.9" font-family="Arial" font-size="14.00" fill="#000000">exportchannelonfinishedenabled </text>
<text text-anchor="start" x="255.4108" y="-353.9" font-family="Arial" font-size="14.00" fill="#666666">[boolean]</text>
<polygon fill="none" stroke="#000000" points="43,-312.5 43,-342.5 349,-342.5 349,-312.5 43,-312.5"/>
<text text-anchor="start" x="50" y="-323.9" font-family="Arial" font-size="14.00" fill="#000000">categorizechannelenabled </text>
<text text-anchor="start" x="217.2832" y="-323.9" font-family="Arial" font-size="14.00" fill="#666666">[boolean]</text>
<polygon fill="none" stroke="#000000" points="43,-282.5 43,-312.5 349,-312.5 349,-282.5 43,-282.5"/>
<text text-anchor="start" x="50" y="-293.9" font-family="Arial" font-size="14.00" fill="#000000">categoryname </text>
<text text-anchor="start" x="142.5806" y="-293.9" font-family="Arial" font-size="14.00" fill="#666666">[text]</text>
<polygon fill="none" stroke="#000000" points="43,-252.5 43,-282.5 349,-282.5 349,-252.5 43,-252.5"/>
<text text-anchor="start" x="50" y="-263.9" font-family="Arial" font-size="14.00" fill="#000000">concatenatedbroadcastchannelids </text>
<text text-anchor="start" x="266.3056" y="-263.9" font-family="Arial" font-size="14.00" fill="#666666">[text]</text>
<polygon fill="none" stroke="#000000" points="43,-222.5 43,-252.5 349,-252.5 349,-222.5 43,-222.5"/>
<text text-anchor="start" x="50" y="-233.9" font-family="Arial" font-size="14.00" fill="#000000">broadcastenabled </text>
<text text-anchor="start" x="165.157" y="-233.9" font-family="Arial" font-size="14.00" fill="#666666">[boolean]</text>
<polygon fill="none" stroke="#000000" points="43,-192.5 43,-222.5 349,-222.5 349,-192.5 43,-192.5"/>
<text text-anchor="start" x="50" y="-203.9" font-family="Arial" font-size="14.00" fill="#000000">runsummarytemplate </text>
<text text-anchor="start" x="185.3422" y="-203.9" font-family="Arial" font-size="14.00" fill="#666666">[text]</text>
<polygon fill="none" stroke="#000000" points="43,-162.5 43,-192.5 349,-192.5 349,-162.5 43,-162.5"/>
<text text-anchor="start" x="50" y="-173.9" font-family="Arial" font-size="14.00" fill="#000000">channelnametemplate </text>
<text text-anchor="start" x="191.5974" y="-173.9" font-family="Arial" font-size="14.00" fill="#666666">[text]</text>
<polygon fill="none" stroke="#000000" points="43,-132.5 43,-162.5 349,-162.5 349,-132.5 43,-132.5"/>
<text text-anchor="start" x="50" y="-143.9" font-family="Arial" font-size="14.00" fill="#000000">statusupdateenabled </text>
<text text-anchor="start" x="183.8428" y="-143.9" font-family="Arial" font-size="14.00" fill="#666666">[boolean]</text>
<polygon fill="none" stroke="#000000" points="43,-102.5 43,-132.5 349,-132.5 349,-102.5 43,-102.5"/>
<text text-anchor="start" x="50" y="-113.9" font-family="Arial" font-size="14.00" fill="#000000">retrospectiveenabled </text>
<text text-anchor="start" x="183.8148" y="-113.9" font-family="Arial" font-size="14.00" fill="#666666">[boolean]</text>
<polygon fill="none" stroke="#000000" points="43,-72.5 43,-102.5 349,-102.5 349,-72.5 43,-72.5"/>
<text text-anchor="start" x="50" y="-83.9" font-family="Arial" font-size="14.00" fill="#000000">public </text>
<text text-anchor="start" x="90.4516" y="-83.9" font-family="Arial" font-size="14.00" fill="#666666">[boolean]</text>
<polygon fill="none" stroke="#000000" points="43,-42.5 43,-72.5 349,-72.5 349,-42.5 43,-42.5"/>
<text text-anchor="start" x="50" y="-53.9" font-family="Arial" font-size="14.00" fill="#000000">runsummarytemplateenabled </text>
<text text-anchor="start" x="235.1444" y="-53.9" font-family="Arial" font-size="14.00" fill="#666666">[boolean]</text>
</g>
<!-- public.ir_metricconfig&#45;&gt;public.ir_playbook -->
<g id="edge2" class="edge">
<title>public.ir_metricconfig:playbookid&#45;&gt;public.ir_playbook:id</title>
<path fill="none" stroke="#000000" d="M346.2197,-1655.5093C419.2142,-1626.3863 427.7378,-1287.5 349,-1287.5"/>
<polygon fill="#000000" stroke="#000000" points="345.8155,-1655.588 335.1396,-1653.083 340.9078,-1656.544 336,-1657.5 336,-1657.5 336,-1657.5 340.9078,-1656.544 336.8604,-1661.917 345.8155,-1655.588 345.8155,-1655.588"/>
<text text-anchor="start" x="343.4935" y="-1667.5" font-family="Arial" font-size="10.00" fill="#000000">FOREIGN KEY (playbookid) REFERENCES ir_playbook(id)</text>
</g>
<!-- public.ir_metric -->
<g id="node2" class="node">
<title>public.ir_metric</title>
<polygon fill="#efefef" stroke="transparent" points="80,-1982.5 80,-2017.5 312,-2017.5 312,-1982.5 80,-1982.5"/>
<polygon fill="none" stroke="#000000" points="80,-1982.5 80,-2017.5 312,-2017.5 312,-1982.5 80,-1982.5"/>
<text text-anchor="start" x="86.8787" y="-1995.3" font-family="Arial Bold" font-size="18.00" fill="#000000">public.ir_metric</text>
<text text-anchor="start" x="207.8675" y="-1995.3" font-family="Arial" font-size="14.00" fill="#000000"> </text>
<text text-anchor="start" x="211.7581" y="-1995.3" font-family="Arial" font-size="14.00" fill="#666666">[BASE TABLE]</text>
<polygon fill="none" stroke="#000000" points="80,-1952.5 80,-1982.5 312,-1982.5 312,-1952.5 80,-1952.5"/>
<text text-anchor="start" x="87" y="-1963.9" font-family="Arial" font-size="14.00" fill="#000000">incidentid </text>
<text text-anchor="start" x="150.014" y="-1963.9" font-family="Arial" font-size="14.00" fill="#666666">[text]</text>
<polygon fill="none" stroke="#000000" points="80,-1922.5 80,-1952.5 312,-1952.5 312,-1922.5 80,-1922.5"/>
<text text-anchor="start" x="87" y="-1933.9" font-family="Arial" font-size="14.00" fill="#000000">metricconfigid </text>
<text text-anchor="start" x="177.2258" y="-1933.9" font-family="Arial" font-size="14.00" fill="#666666">[text]</text>
<polygon fill="none" stroke="#000000" points="80,-1892.5 80,-1922.5 312,-1922.5 312,-1892.5 80,-1892.5"/>
<text text-anchor="start" x="87" y="-1903.9" font-family="Arial" font-size="14.00" fill="#000000">value </text>
<text text-anchor="start" x="124.345" y="-1903.9" font-family="Arial" font-size="14.00" fill="#666666">[bigint]</text>
<polygon fill="none" stroke="#000000" points="80,-1862.5 80,-1892.5 312,-1892.5 312,-1862.5 80,-1862.5"/>
<text text-anchor="start" x="87" y="-1873.9" font-family="Arial" font-size="14.00" fill="#000000">published </text>
<text text-anchor="start" x="150.7994" y="-1873.9" font-family="Arial" font-size="14.00" fill="#666666">[boolean]</text>
</g>
<!-- public.ir_metric&#45;&gt;public.ir_metricconfig -->
<g id="edge1" class="edge">
<title>public.ir_metric:metricconfigid&#45;&gt;public.ir_metricconfig:id</title>
<path fill="none" stroke="#000000" d="M322.2064,-1936.7828C424.9895,-1922.1191 444.1338,-1687.5 336,-1687.5"/>
<polygon fill="#000000" stroke="#000000" points="321.9754,-1936.799 311.6845,-1933.0111 316.9877,-1937.1495 312,-1937.5 312,-1937.5 312,-1937.5 316.9877,-1937.1495 312.3155,-1941.9889 321.9754,-1936.799 321.9754,-1936.799"/>
<text text-anchor="start" x="318.6175" y="-1947.5" font-family="Arial" font-size="10.00" fill="#000000">FOREIGN KEY (metricconfigid) REFERENCES ir_metricconfig(id)</text>
</g>
</g>
</svg>
