<?xml version="1.0" encoding="UTF-8" standalone="no"?>
<!DOCTYPE svg PUBLIC "-//W3C//DTD SVG 1.1//EN"
 "http://www.w3.org/Graphics/SVG/1.1/DTD/svg11.dtd">
<!-- Generated by graphviz version 2.40.1 (20161225.0304)
 -->
<!-- Title: public.focalboard_sessions Pages: 1 -->
<svg width="474pt" height="1282pt"
 viewBox="0.00 0.00 473.50 1282.00" xmlns="http://www.w3.org/2000/svg" xmlns:xlink="http://www.w3.org/1999/xlink">
<g id="graph0" class="graph" transform="scale(1 1) rotate(0) translate(4 1278)">
<title>public.focalboard_sessions</title>
<polygon fill="#ffffff" stroke="transparent" points="-4,4 -4,-1278 469.5,-1278 469.5,4 -4,4"/>
<!-- public.focalboard_sessions -->
<g id="node1" class="node">
<title>public.focalboard_sessions</title>
<polygon fill="#efefef" stroke="transparent" points="93,-1192.5 93,-1227.5 420,-1227.5 420,-1192.5 93,-1192.5"/>
<polygon fill="none" stroke="#000000" points="93,-1192.5 93,-1227.5 420,-1227.5 420,-1192.5 93,-1192.5"/>
<text text-anchor="start" x="99.8461" y="-1205.3" font-family="Arial Bold" font-size="18.00" fill="#000000">public.focalboard_sessions</text>
<text text-anchor="start" x="315.9001" y="-1205.3" font-family="Arial" font-size="14.00" fill="#000000"> </text>
<text text-anchor="start" x="319.7907" y="-1205.3" font-family="Arial" font-size="14.00" fill="#666666">[BASE TABLE]</text>
<polygon fill="none" stroke="#000000" points="93,-1162.5 93,-1192.5 420,-1192.5 420,-1162.5 93,-1162.5"/>
<text text-anchor="start" x="100" y="-1173.9" font-family="Arial" font-size="14.00" fill="#000000">id </text>
<text text-anchor="start" x="114.7798" y="-1173.9" font-family="Arial" font-size="14.00" fill="#666666">[varchar(100)]</text>
<polygon fill="none" stroke="#000000" points="93,-1132.5 93,-1162.5 420,-1162.5 420,-1132.5 93,-1132.5"/>
<text text-anchor="start" x="100" y="-1143.9" font-family="Arial" font-size="14.00" fill="#000000">token </text>
<text text-anchor="start" x="138.129" y="-1143.9" font-family="Arial" font-size="14.00" fill="#666666">[varchar(100)]</text>
<polygon fill="none" stroke="#000000" points="93,-1102.5 93,-1132.5 420,-1132.5 420,-1102.5 93,-1102.5"/>
<text text-anchor="start" x="100" y="-1113.9" font-family="Arial" font-size="14.00" fill="#000000">user_id </text>
<text text-anchor="start" x="149.7882" y="-1113.9" font-family="Arial" font-size="14.00" fill="#666666">[varchar(100)]</text>
<polygon fill="none" stroke="#000000" points="93,-1072.5 93,-1102.5 420,-1102.5 420,-1072.5 93,-1072.5"/>
<text text-anchor="start" x="100" y="-1083.9" font-family="Arial" font-size="14.00" fill="#000000">props </text>
<text text-anchor="start" x="138.899" y="-1083.9" font-family="Arial" font-size="14.00" fill="#666666">[json]</text>
<polygon fill="none" stroke="#000000" points="93,-1042.5 93,-1072.5 420,-1072.5 420,-1042.5 93,-1042.5"/>
<text text-anchor="start" x="100" y="-1053.9" font-family="Arial" font-size="14.00" fill="#000000">create_at </text>
<text text-anchor="start" x="162.2454" y="-1053.9" font-family="Arial" font-size="14.00" fill="#666666">[bigint]</text>
<polygon fill="none" stroke="#000000" points="93,-1012.5 93,-1042.5 420,-1042.5 420,-1012.5 93,-1012.5"/>
<text text-anchor="start" x="100" y="-1023.9" font-family="Arial" font-size="14.00" fill="#000000">update_at </text>
<text text-anchor="start" x="166.15" y="-1023.9" font-family="Arial" font-size="14.00" fill="#666666">[bigint]</text>
<polygon fill="none" stroke="#000000" points="93,-982.5 93,-1012.5 420,-1012.5 420,-982.5 93,-982.5"/>
<text text-anchor="start" x="100" y="-993.9" font-family="Arial" font-size="14.00" fill="#000000">auth_service </text>
<text text-anchor="start" x="183.244" y="-993.9" font-family="Arial" font-size="14.00" fill="#666666">[varchar(20)]</text>
<polygon fill="none" stroke="#000000" stroke-width="3" points="91,-981.5 91,-1229.5 421,-1229.5 421,-981.5 91,-981.5"/>
</g>
<!-- public.users -->
<g id="node2" class="node">
<title>public.users</title>
<polygon fill="#efefef" stroke="transparent" points="153,-822.5 153,-857.5 360,-857.5 360,-822.5 153,-822.5"/>
<polygon fill="none" stroke="#000000" points="153,-822.5 153,-857.5 360,-857.5 360,-822.5 153,-822.5"/>
<text text-anchor="start" x="159.8662" y="-835.3" font-family="Arial Bold" font-size="18.00" fill="#000000">public.users</text>
<text text-anchor="start" x="255.88" y="-835.3" font-family="Arial" font-size="14.00" fill="#000000"> </text>
<text text-anchor="start" x="259.7706" y="-835.3" font-family="Arial" font-size="14.00" fill="#666666">[BASE TABLE]</text>
<polygon fill="none" stroke="#000000" points="153,-792.5 153,-822.5 360,-822.5 360,-792.5 153,-792.5"/>
<text text-anchor="start" x="160" y="-803.9" font-family="Arial" font-size="14.00" fill="#000000">id </text>
<text text-anchor="start" x="174.7798" y="-803.9" font-family="Arial" font-size="14.00" fill="#666666">[varchar(26)]</text>
<polygon fill="none" stroke="#000000" points="153,-762.5 153,-792.5 360,-792.5 360,-762.5 153,-762.5"/>
<text text-anchor="start" x="160" y="-773.9" font-family="Arial" font-size="14.00" fill="#000000">createat </text>
<text text-anchor="start" x="214.4628" y="-773.9" font-family="Arial" font-size="14.00" fill="#666666">[bigint]</text>
<polygon fill="none" stroke="#000000" points="153,-732.5 153,-762.5 360,-762.5 360,-732.5 153,-732.5"/>
<text text-anchor="start" x="160" y="-743.9" font-family="Arial" font-size="14.00" fill="#000000">updateat </text>
<text text-anchor="start" x="218.3674" y="-743.9" font-family="Arial" font-size="14.00" fill="#666666">[bigint]</text>
<polygon fill="none" stroke="#000000" points="153,-702.5 153,-732.5 360,-732.5 360,-702.5 153,-702.5"/>
<text text-anchor="start" x="160" y="-713.9" font-family="Arial" font-size="14.00" fill="#000000">deleteat </text>
<text text-anchor="start" x="213.6914" y="-713.9" font-family="Arial" font-size="14.00" fill="#666666">[bigint]</text>
<polygon fill="none" stroke="#000000" points="153,-672.5 153,-702.5 360,-702.5 360,-672.5 153,-672.5"/>
<text text-anchor="start" x="160" y="-683.9" font-family="Arial" font-size="14.00" fill="#000000">username </text>
<text text-anchor="start" x="226.1248" y="-683.9" font-family="Arial" font-size="14.00" fill="#666666">[varchar(64)]</text>
<polygon fill="none" stroke="#000000" points="153,-642.5 153,-672.5 360,-672.5 360,-642.5 153,-642.5"/>
<text text-anchor="start" x="160" y="-653.9" font-family="Arial" font-size="14.00" fill="#000000">password </text>
<text text-anchor="start" x="223.7882" y="-653.9" font-family="Arial" font-size="14.00" fill="#666666">[varchar(128)]</text>
<polygon fill="none" stroke="#000000" points="153,-612.5 153,-642.5 360,-642.5 360,-612.5 153,-612.5"/>
<text text-anchor="start" x="160" y="-623.9" font-family="Arial" font-size="14.00" fill="#000000">authdata </text>
<text text-anchor="start" x="218.3674" y="-623.9" font-family="Arial" font-size="14.00" fill="#666666">[varchar(128)]</text>
<polygon fill="none" stroke="#000000" points="153,-582.5 153,-612.5 360,-612.5 360,-582.5 153,-582.5"/>
<text text-anchor="start" x="160" y="-593.9" font-family="Arial" font-size="14.00" fill="#000000">authservice </text>
<text text-anchor="start" x="235.4614" y="-593.9" font-family="Arial" font-size="14.00" fill="#666666">[varchar(32)]</text>
<polygon fill="none" stroke="#000000" points="153,-552.5 153,-582.5 360,-582.5 360,-552.5 153,-552.5"/>
<text text-anchor="start" x="160" y="-563.9" font-family="Arial" font-size="14.00" fill="#000000">email </text>
<text text-anchor="start" x="197.3296" y="-563.9" font-family="Arial" font-size="14.00" fill="#666666">[varchar(128)]</text>
<polygon fill="none" stroke="#000000" points="153,-522.5 153,-552.5 360,-552.5 360,-522.5 153,-522.5"/>
<text text-anchor="start" x="160" y="-533.9" font-family="Arial" font-size="14.00" fill="#000000">emailverified </text>
<text text-anchor="start" x="242.4418" y="-533.9" font-family="Arial" font-size="14.00" fill="#666666">[boolean]</text>
<polygon fill="none" stroke="#000000" points="153,-492.5 153,-522.5 360,-522.5 360,-492.5 153,-492.5"/>
<text text-anchor="start" x="160" y="-503.9" font-family="Arial" font-size="14.00" fill="#000000">nickname </text>
<text text-anchor="start" x="223.7882" y="-503.9" font-family="Arial" font-size="14.00" fill="#666666">[varchar(64)]</text>
<polygon fill="none" stroke="#000000" points="153,-462.5 153,-492.5 360,-492.5 360,-462.5 153,-462.5"/>
<text text-anchor="start" x="160" y="-473.9" font-family="Arial" font-size="14.00" fill="#000000">firstname </text>
<text text-anchor="start" x="221.4474" y="-473.9" font-family="Arial" font-size="14.00" fill="#666666">[varchar(64)]</text>
<polygon fill="none" stroke="#000000" points="153,-432.5 153,-462.5 360,-462.5 360,-432.5 153,-432.5"/>
<text text-anchor="start" x="160" y="-443.9" font-family="Arial" font-size="14.00" fill="#000000">lastname </text>
<text text-anchor="start" x="220.6788" y="-443.9" font-family="Arial" font-size="14.00" fill="#666666">[varchar(64)]</text>
<polygon fill="none" stroke="#000000" points="153,-402.5 153,-432.5 360,-432.5 360,-402.5 153,-402.5"/>
<text text-anchor="start" x="160" y="-413.9" font-family="Arial" font-size="14.00" fill="#000000">roles </text>
<text text-anchor="start" x="194.223" y="-413.9" font-family="Arial" font-size="14.00" fill="#666666">[varchar(256)]</text>
<polygon fill="none" stroke="#000000" points="153,-372.5 153,-402.5 360,-402.5 360,-372.5 153,-372.5"/>
<text text-anchor="start" x="160" y="-383.9" font-family="Arial" font-size="14.00" fill="#000000">allowmarketing </text>
<text text-anchor="start" x="257.2244" y="-383.9" font-family="Arial" font-size="14.00" fill="#666666">[boolean]</text>
<polygon fill="none" stroke="#000000" points="153,-342.5 153,-372.5 360,-372.5 360,-342.5 153,-342.5"/>
<text text-anchor="start" x="160" y="-353.9" font-family="Arial" font-size="14.00" fill="#000000">props </text>
<text text-anchor="start" x="198.899" y="-353.9" font-family="Arial" font-size="14.00" fill="#666666">[jsonb]</text>
<polygon fill="none" stroke="#000000" points="153,-312.5 153,-342.5 360,-342.5 360,-312.5 153,-312.5"/>
<text text-anchor="start" x="160" y="-323.9" font-family="Arial" font-size="14.00" fill="#000000">notifyprops </text>
<text text-anchor="start" x="232.352" y="-323.9" font-family="Arial" font-size="14.00" fill="#666666">[jsonb]</text>
<polygon fill="none" stroke="#000000" points="153,-282.5 153,-312.5 360,-312.5 360,-282.5 153,-282.5"/>
<text text-anchor="start" x="160" y="-293.9" font-family="Arial" font-size="14.00" fill="#000000">lastpasswordupdate </text>
<text text-anchor="start" x="288.3716" y="-293.9" font-family="Arial" font-size="14.00" fill="#666666">[bigint]</text>
<polygon fill="none" stroke="#000000" points="153,-252.5 153,-282.5 360,-282.5 360,-252.5 153,-252.5"/>
<text text-anchor="start" x="160" y="-263.9" font-family="Arial" font-size="14.00" fill="#000000">lastpictureupdate </text>
<text text-anchor="start" x="270.4796" y="-263.9" font-family="Arial" font-size="14.00" fill="#666666">[bigint]</text>
<polygon fill="none" stroke="#000000" points="153,-222.5 153,-252.5 360,-252.5 360,-222.5 153,-222.5"/>
<text text-anchor="start" x="160" y="-233.9" font-family="Arial" font-size="14.00" fill="#000000">failedattempts </text>
<text text-anchor="start" x="251.0224" y="-233.9" font-family="Arial" font-size="14.00" fill="#666666">[integer]</text>
<polygon fill="none" stroke="#000000" points="153,-192.5 153,-222.5 360,-222.5 360,-192.5 153,-192.5"/>
<text text-anchor="start" x="160" y="-203.9" font-family="Arial" font-size="14.00" fill="#000000">locale </text>
<text text-anchor="start" x="200.4516" y="-203.9" font-family="Arial" font-size="14.00" fill="#666666">[varchar(5)]</text>
<polygon fill="none" stroke="#000000" points="153,-162.5 153,-192.5 360,-192.5 360,-162.5 153,-162.5"/>
<text text-anchor="start" x="160" y="-173.9" font-family="Arial" font-size="14.00" fill="#000000">mfaactive </text>
<text text-anchor="start" x="223.7868" y="-173.9" font-family="Arial" font-size="14.00" fill="#666666">[boolean]</text>
<polygon fill="none" stroke="#000000" points="153,-132.5 153,-162.5 360,-162.5 360,-132.5 153,-132.5"/>
<text text-anchor="start" x="160" y="-143.9" font-family="Arial" font-size="14.00" fill="#000000">mfasecret </text>
<text text-anchor="start" x="225.3408" y="-143.9" font-family="Arial" font-size="14.00" fill="#666666">[varchar(128)]</text>
<polygon fill="none" stroke="#000000" points="153,-102.5 153,-132.5 360,-132.5 360,-102.5 153,-102.5"/>
<text text-anchor="start" x="160" y="-113.9" font-family="Arial" font-size="14.00" fill="#000000">position </text>
<text text-anchor="start" x="212.1248" y="-113.9" font-family="Arial" font-size="14.00" fill="#666666">[varchar(128)]</text>
<polygon fill="none" stroke="#000000" points="153,-72.5 153,-102.5 360,-102.5 360,-72.5 153,-72.5"/>
<text text-anchor="start" x="160" y="-83.9" font-family="Arial" font-size="14.00" fill="#000000">timezone </text>
<text text-anchor="start" x="220.6788" y="-83.9" font-family="Arial" font-size="14.00" fill="#666666">[jsonb]</text>
<polygon fill="none" stroke="#000000" points="153,-42.5 153,-72.5 360,-72.5 360,-42.5 153,-42.5"/>
<text text-anchor="start" x="160" y="-53.9" font-family="Arial" font-size="14.00" fill="#000000">remoteid </text>
<text text-anchor="start" x="218.3394" y="-53.9" font-family="Arial" font-size="14.00" fill="#666666">[varchar(26)]</text>
</g>
<!-- public.focalboard_sessions&#45;&gt;public.users -->
<g id="edge1" class="edge">
<title>public.focalboard_sessions:user_id&#45;&gt;public.users:id</title>
<path fill="none" stroke="#000000" stroke-dasharray="5,2" d="M82.9677,-1115.0047C29.1891,-1085.6668 86.5329,-807.5 153,-807.5"/>
<polygon fill="#000000" stroke="#000000" points="83.2957,-1115.0862 91.9138,-1121.8669 88.1478,-1116.2931 93,-1117.5 93,-1117.5 93,-1117.5 88.1478,-1116.2931 94.0862,-1113.1331 83.2957,-1115.0862 83.2957,-1115.0862"/>
<text text-anchor="start" x="7.268" y="-1127.5" font-family="Arial" font-size="10.00" fill="#000000">Detected Relation</text>
</g>
</g>
</svg>
