<?xml version="1.0" encoding="UTF-8" standalone="no"?>
<!DOCTYPE svg PUBLIC "-//W3C//DTD SVG 1.1//EN"
 "http://www.w3.org/Graphics/SVG/1.1/DTD/svg11.dtd">
<!-- Generated by graphviz version 2.40.1 (20161225.0304)
 -->
<!-- Title: public.teams Pages: 1 -->
<svg width="1330pt" height="1372pt"
 viewBox="0.00 0.00 1330.00 1372.00" xmlns="http://www.w3.org/2000/svg" xmlns:xlink="http://www.w3.org/1999/xlink">
<g id="graph0" class="graph" transform="scale(1 1) rotate(0) translate(4 1368)">
<title>public.teams</title>
<polygon fill="#ffffff" stroke="transparent" points="-4,4 -4,-1368 1326,-1368 1326,4 -4,4"/>
<!-- public.teams -->
<g id="node1" class="node">
<title>public.teams</title>
<polygon fill="#efefef" stroke="transparent" points="541,-555.5 541,-590.5 754,-590.5 754,-555.5 541,-555.5"/>
<polygon fill="none" stroke="#000000" points="541,-555.5 541,-590.5 754,-590.5 754,-555.5 541,-555.5"/>
<text text-anchor="start" x="548.3651" y="-568.3" font-family="Arial Bold" font-size="18.00" fill="#000000">public.teams</text>
<text text-anchor="start" x="649.3811" y="-568.3" font-family="Arial" font-size="14.00" fill="#000000"> </text>
<text text-anchor="start" x="653.2717" y="-568.3" font-family="Arial" font-size="14.00" fill="#666666">[BASE TABLE]</text>
<polygon fill="none" stroke="#000000" points="541,-525.5 541,-555.5 754,-555.5 754,-525.5 541,-525.5"/>
<text text-anchor="start" x="548" y="-536.9" font-family="Arial" font-size="14.00" fill="#000000">id </text>
<text text-anchor="start" x="562.7798" y="-536.9" font-family="Arial" font-size="14.00" fill="#666666">[varchar(26)]</text>
<polygon fill="none" stroke="#000000" points="541,-495.5 541,-525.5 754,-525.5 754,-495.5 541,-495.5"/>
<text text-anchor="start" x="548" y="-506.9" font-family="Arial" font-size="14.00" fill="#000000">createat </text>
<text text-anchor="start" x="602.4628" y="-506.9" font-family="Arial" font-size="14.00" fill="#666666">[bigint]</text>
<polygon fill="none" stroke="#000000" points="541,-465.5 541,-495.5 754,-495.5 754,-465.5 541,-465.5"/>
<text text-anchor="start" x="548" y="-476.9" font-family="Arial" font-size="14.00" fill="#000000">updateat </text>
<text text-anchor="start" x="606.3674" y="-476.9" font-family="Arial" font-size="14.00" fill="#666666">[bigint]</text>
<polygon fill="none" stroke="#000000" points="541,-435.5 541,-465.5 754,-465.5 754,-435.5 541,-435.5"/>
<text text-anchor="start" x="548" y="-446.9" font-family="Arial" font-size="14.00" fill="#000000">deleteat </text>
<text text-anchor="start" x="601.6914" y="-446.9" font-family="Arial" font-size="14.00" fill="#666666">[bigint]</text>
<polygon fill="none" stroke="#000000" points="541,-405.5 541,-435.5 754,-435.5 754,-405.5 541,-405.5"/>
<text text-anchor="start" x="548" y="-416.9" font-family="Arial" font-size="14.00" fill="#000000">displayname </text>
<text text-anchor="start" x="630.46" y="-416.9" font-family="Arial" font-size="14.00" fill="#666666">[varchar(64)]</text>
<polygon fill="none" stroke="#000000" points="541,-375.5 541,-405.5 754,-405.5 754,-375.5 541,-375.5"/>
<text text-anchor="start" x="548" y="-386.9" font-family="Arial" font-size="14.00" fill="#000000">name </text>
<text text-anchor="start" x="586.899" y="-386.9" font-family="Arial" font-size="14.00" fill="#666666">[varchar(64)]</text>
<polygon fill="none" stroke="#000000" points="541,-345.5 541,-375.5 754,-375.5 754,-345.5 541,-345.5"/>
<text text-anchor="start" x="548" y="-356.9" font-family="Arial" font-size="14.00" fill="#000000">description </text>
<text text-anchor="start" x="619.568" y="-356.9" font-family="Arial" font-size="14.00" fill="#666666">[varchar(255)]</text>
<polygon fill="none" stroke="#000000" points="541,-315.5 541,-345.5 754,-345.5 754,-315.5 541,-315.5"/>
<text text-anchor="start" x="548" y="-326.9" font-family="Arial" font-size="14.00" fill="#000000">email </text>
<text text-anchor="start" x="585.3296" y="-326.9" font-family="Arial" font-size="14.00" fill="#666666">[varchar(128)]</text>
<polygon fill="none" stroke="#000000" points="541,-285.5 541,-315.5 754,-315.5 754,-285.5 541,-285.5"/>
<text text-anchor="start" x="548" y="-296.9" font-family="Arial" font-size="14.00" fill="#000000">type </text>
<text text-anchor="start" x="578.3464" y="-296.9" font-family="Arial" font-size="14.00" fill="#666666">[team_type]</text>
<polygon fill="none" stroke="#000000" points="541,-255.5 541,-285.5 754,-285.5 754,-255.5 541,-255.5"/>
<text text-anchor="start" x="548" y="-266.9" font-family="Arial" font-size="14.00" fill="#000000">companyname </text>
<text text-anchor="start" x="643.69" y="-266.9" font-family="Arial" font-size="14.00" fill="#666666">[varchar(64)]</text>
<polygon fill="none" stroke="#000000" points="541,-225.5 541,-255.5 754,-255.5 754,-225.5 541,-225.5"/>
<text text-anchor="start" x="547.9299" y="-236.9" font-family="Arial" font-size="14.00" fill="#000000">alloweddomains </text>
<text text-anchor="start" x="652.1683" y="-236.9" font-family="Arial" font-size="14.00" fill="#666666">[varchar(1000)]</text>
<polygon fill="none" stroke="#000000" points="541,-195.5 541,-225.5 754,-225.5 754,-195.5 541,-195.5"/>
<text text-anchor="start" x="548" y="-206.9" font-family="Arial" font-size="14.00" fill="#000000">inviteid </text>
<text text-anchor="start" x="595.4488" y="-206.9" font-family="Arial" font-size="14.00" fill="#666666">[varchar(32)]</text>
<polygon fill="none" stroke="#000000" points="541,-165.5 541,-195.5 754,-195.5 754,-165.5 541,-165.5"/>
<text text-anchor="start" x="548" y="-176.9" font-family="Arial" font-size="14.00" fill="#000000">schemeid </text>
<text text-anchor="start" x="611.7882" y="-176.9" font-family="Arial" font-size="14.00" fill="#666666">[varchar(26)]</text>
<polygon fill="none" stroke="#000000" points="541,-135.5 541,-165.5 754,-165.5 754,-135.5 541,-135.5"/>
<text text-anchor="start" x="548" y="-146.9" font-family="Arial" font-size="14.00" fill="#000000">allowopeninvite </text>
<text text-anchor="start" x="647.575" y="-146.9" font-family="Arial" font-size="14.00" fill="#666666">[boolean]</text>
<polygon fill="none" stroke="#000000" points="541,-105.5 541,-135.5 754,-135.5 754,-105.5 541,-105.5"/>
<text text-anchor="start" x="548" y="-116.9" font-family="Arial" font-size="14.00" fill="#000000">lastteamiconupdate </text>
<text text-anchor="start" x="673.2622" y="-116.9" font-family="Arial" font-size="14.00" fill="#666666">[bigint]</text>
<polygon fill="none" stroke="#000000" points="541,-75.5 541,-105.5 754,-105.5 754,-75.5 541,-75.5"/>
<text text-anchor="start" x="548" y="-86.9" font-family="Arial" font-size="14.00" fill="#000000">groupconstrained </text>
<text text-anchor="start" x="660.035" y="-86.9" font-family="Arial" font-size="14.00" fill="#666666">[boolean]</text>
<polygon fill="none" stroke="#000000" points="541,-45.5 541,-75.5 754,-75.5 754,-45.5 541,-45.5"/>
<text text-anchor="start" x="548" y="-56.9" font-family="Arial" font-size="14.00" fill="#000000">cloudlimitsarchived </text>
<text text-anchor="start" x="670.1136" y="-56.9" font-family="Arial" font-size="14.00" fill="#666666">[boolean]</text>
<polygon fill="none" stroke="#000000" stroke-width="3" points="539,-44.5 539,-592.5 755,-592.5 755,-44.5 539,-44.5"/>
</g>
<!-- public.focalboard_boards -->
<g id="node2" class="node">
<title>public.focalboard_boards</title>
<polygon fill="#efefef" stroke="transparent" points="43,-1285.5 43,-1320.5 355,-1320.5 355,-1285.5 43,-1285.5"/>
<polygon fill="none" stroke="#000000" points="43,-1285.5 43,-1320.5 355,-1320.5 355,-1285.5 43,-1285.5"/>
<text text-anchor="start" x="49.844" y="-1298.3" font-family="Arial Bold" font-size="18.00" fill="#000000">public.focalboard_boards</text>
<text text-anchor="start" x="250.9022" y="-1298.3" font-family="Arial" font-size="14.00" fill="#000000"> </text>
<text text-anchor="start" x="254.7928" y="-1298.3" font-family="Arial" font-size="14.00" fill="#666666">[BASE TABLE]</text>
<polygon fill="none" stroke="#000000" points="43,-1255.5 43,-1285.5 355,-1285.5 355,-1255.5 43,-1255.5"/>
<text text-anchor="start" x="50" y="-1266.9" font-family="Arial" font-size="14.00" fill="#000000">id </text>
<text text-anchor="start" x="64.7798" y="-1266.9" font-family="Arial" font-size="14.00" fill="#666666">[varchar(36)]</text>
<polygon fill="none" stroke="#000000" points="43,-1225.5 43,-1255.5 355,-1255.5 355,-1225.5 43,-1225.5"/>
<text text-anchor="start" x="50" y="-1236.9" font-family="Arial" font-size="14.00" fill="#000000">insert_at </text>
<text text-anchor="start" x="107.5694" y="-1236.9" font-family="Arial" font-size="14.00" fill="#666666">[timestamp with time zone]</text>
<polygon fill="none" stroke="#000000" points="43,-1195.5 43,-1225.5 355,-1225.5 355,-1195.5 43,-1195.5"/>
<text text-anchor="start" x="50" y="-1206.9" font-family="Arial" font-size="14.00" fill="#000000">team_id </text>
<text text-anchor="start" x="103.6788" y="-1206.9" font-family="Arial" font-size="14.00" fill="#666666">[varchar(36)]</text>
<polygon fill="none" stroke="#000000" points="43,-1165.5 43,-1195.5 355,-1195.5 355,-1165.5 43,-1165.5"/>
<text text-anchor="start" x="50" y="-1176.9" font-family="Arial" font-size="14.00" fill="#000000">channel_id </text>
<text text-anchor="start" x="121.582" y="-1176.9" font-family="Arial" font-size="14.00" fill="#666666">[varchar(36)]</text>
<polygon fill="none" stroke="#000000" points="43,-1135.5 43,-1165.5 355,-1165.5 355,-1135.5 43,-1135.5"/>
<text text-anchor="start" x="50" y="-1146.9" font-family="Arial" font-size="14.00" fill="#000000">created_by </text>
<text text-anchor="start" x="123.1374" y="-1146.9" font-family="Arial" font-size="14.00" fill="#666666">[varchar(36)]</text>
<polygon fill="none" stroke="#000000" points="43,-1105.5 43,-1135.5 355,-1135.5 355,-1105.5 43,-1105.5"/>
<text text-anchor="start" x="50" y="-1116.9" font-family="Arial" font-size="14.00" fill="#000000">modified_by </text>
<text text-anchor="start" x="129.3506" y="-1116.9" font-family="Arial" font-size="14.00" fill="#666666">[varchar(36)]</text>
<polygon fill="none" stroke="#000000" points="43,-1075.5 43,-1105.5 355,-1105.5 355,-1075.5 43,-1075.5"/>
<text text-anchor="start" x="50" y="-1086.9" font-family="Arial" font-size="14.00" fill="#000000">type </text>
<text text-anchor="start" x="80.3464" y="-1086.9" font-family="Arial" font-size="14.00" fill="#666666">[varchar(1)]</text>
<polygon fill="none" stroke="#000000" points="43,-1045.5 43,-1075.5 355,-1075.5 355,-1045.5 43,-1045.5"/>
<text text-anchor="start" x="50" y="-1056.9" font-family="Arial" font-size="14.00" fill="#000000">title </text>
<text text-anchor="start" x="75.6676" y="-1056.9" font-family="Arial" font-size="14.00" fill="#666666">[text]</text>
<polygon fill="none" stroke="#000000" points="43,-1015.5 43,-1045.5 355,-1045.5 355,-1015.5 43,-1015.5"/>
<text text-anchor="start" x="50" y="-1026.9" font-family="Arial" font-size="14.00" fill="#000000">description </text>
<text text-anchor="start" x="121.568" y="-1026.9" font-family="Arial" font-size="14.00" fill="#666666">[text]</text>
<polygon fill="none" stroke="#000000" points="43,-985.5 43,-1015.5 355,-1015.5 355,-985.5 43,-985.5"/>
<text text-anchor="start" x="50" y="-996.9" font-family="Arial" font-size="14.00" fill="#000000">icon </text>
<text text-anchor="start" x="79.5624" y="-996.9" font-family="Arial" font-size="14.00" fill="#666666">[varchar(256)]</text>
<polygon fill="none" stroke="#000000" points="43,-955.5 43,-985.5 355,-985.5 355,-955.5 43,-955.5"/>
<text text-anchor="start" x="50" y="-966.9" font-family="Arial" font-size="14.00" fill="#000000">show_description </text>
<text text-anchor="start" x="162.0224" y="-966.9" font-family="Arial" font-size="14.00" fill="#666666">[boolean]</text>
<polygon fill="none" stroke="#000000" points="43,-925.5 43,-955.5 355,-955.5 355,-925.5 43,-925.5"/>
<text text-anchor="start" x="50" y="-936.9" font-family="Arial" font-size="14.00" fill="#000000">is_template </text>
<text text-anchor="start" x="125.4586" y="-936.9" font-family="Arial" font-size="14.00" fill="#666666">[boolean]</text>
<polygon fill="none" stroke="#000000" points="43,-895.5 43,-925.5 355,-925.5 355,-895.5 43,-895.5"/>
<text text-anchor="start" x="50" y="-906.9" font-family="Arial" font-size="14.00" fill="#000000">template_version </text>
<text text-anchor="start" x="160.467" y="-906.9" font-family="Arial" font-size="14.00" fill="#666666">[integer]</text>
<polygon fill="none" stroke="#000000" points="43,-865.5 43,-895.5 355,-895.5 355,-865.5 43,-865.5"/>
<text text-anchor="start" x="50" y="-876.9" font-family="Arial" font-size="14.00" fill="#000000">properties </text>
<text text-anchor="start" x="116.122" y="-876.9" font-family="Arial" font-size="14.00" fill="#666666">[jsonb]</text>
<polygon fill="none" stroke="#000000" points="43,-835.5 43,-865.5 355,-865.5 355,-835.5 43,-835.5"/>
<text text-anchor="start" x="50" y="-846.9" font-family="Arial" font-size="14.00" fill="#000000">card_properties </text>
<text text-anchor="start" x="151.1304" y="-846.9" font-family="Arial" font-size="14.00" fill="#666666">[jsonb]</text>
<polygon fill="none" stroke="#000000" points="43,-805.5 43,-835.5 355,-835.5 355,-805.5 43,-805.5"/>
<text text-anchor="start" x="50" y="-816.9" font-family="Arial" font-size="14.00" fill="#000000">create_at </text>
<text text-anchor="start" x="112.2454" y="-816.9" font-family="Arial" font-size="14.00" fill="#666666">[bigint]</text>
<polygon fill="none" stroke="#000000" points="43,-775.5 43,-805.5 355,-805.5 355,-775.5 43,-775.5"/>
<text text-anchor="start" x="50" y="-786.9" font-family="Arial" font-size="14.00" fill="#000000">update_at </text>
<text text-anchor="start" x="116.15" y="-786.9" font-family="Arial" font-size="14.00" fill="#666666">[bigint]</text>
<polygon fill="none" stroke="#000000" points="43,-745.5 43,-775.5 355,-775.5 355,-745.5 43,-745.5"/>
<text text-anchor="start" x="50" y="-756.9" font-family="Arial" font-size="14.00" fill="#000000">delete_at </text>
<text text-anchor="start" x="111.474" y="-756.9" font-family="Arial" font-size="14.00" fill="#666666">[bigint]</text>
<polygon fill="none" stroke="#000000" points="43,-715.5 43,-745.5 355,-745.5 355,-715.5 43,-715.5"/>
<text text-anchor="start" x="50" y="-726.9" font-family="Arial" font-size="14.00" fill="#000000">minimum_role </text>
<text text-anchor="start" x="141.7658" y="-726.9" font-family="Arial" font-size="14.00" fill="#666666">[varchar(36)]</text>
</g>
<!-- public.focalboard_boards&#45;&gt;public.teams -->
<g id="edge1" class="edge">
<title>public.focalboard_boards:team_id&#45;&gt;public.teams:id</title>
<path fill="none" stroke="#000000" stroke-dasharray="5,2" d="M364.3209,-1206.0142C411.3676,-1157.1267 382.6996,-724.1208 407,-673 442.957,-597.357 457.2458,-540.5 541,-540.5"/>
<polygon fill="#000000" stroke="#000000" points="364.0108,-1206.1634 353.0485,-1206.4451 359.5054,-1208.3317 355,-1210.5 355,-1210.5 355,-1210.5 359.5054,-1208.3317 356.9515,-1214.5549 364.0108,-1206.1634 364.0108,-1206.1634"/>
<text text-anchor="start" x="362.268" y="-1220.5" font-family="Arial" font-size="10.00" fill="#000000">Detected Relation</text>
</g>
<!-- public.focalboard_boards_history -->
<g id="node3" class="node">
<title>public.focalboard_boards_history</title>
<polygon fill="#efefef" stroke="transparent" points="460,-1285.5 460,-1320.5 835,-1320.5 835,-1285.5 460,-1285.5"/>
<polygon fill="none" stroke="#000000" points="460,-1285.5 460,-1320.5 835,-1320.5 835,-1285.5 460,-1285.5"/>
<text text-anchor="start" x="466.8404" y="-1298.3" font-family="Arial Bold" font-size="18.00" fill="#000000">public.focalboard_boards_history</text>
<text text-anchor="start" x="730.9058" y="-1298.3" font-family="Arial" font-size="14.00" fill="#000000"> </text>
<text text-anchor="start" x="734.7964" y="-1298.3" font-family="Arial" font-size="14.00" fill="#666666">[BASE TABLE]</text>
<polygon fill="none" stroke="#000000" points="460,-1255.5 460,-1285.5 835,-1285.5 835,-1255.5 460,-1255.5"/>
<text text-anchor="start" x="467" y="-1266.9" font-family="Arial" font-size="14.00" fill="#000000">id </text>
<text text-anchor="start" x="481.7798" y="-1266.9" font-family="Arial" font-size="14.00" fill="#666666">[varchar(36)]</text>
<polygon fill="none" stroke="#000000" points="460,-1225.5 460,-1255.5 835,-1255.5 835,-1225.5 460,-1225.5"/>
<text text-anchor="start" x="467" y="-1236.9" font-family="Arial" font-size="14.00" fill="#000000">insert_at </text>
<text text-anchor="start" x="524.5694" y="-1236.9" font-family="Arial" font-size="14.00" fill="#666666">[timestamp with time zone]</text>
<polygon fill="none" stroke="#000000" points="460,-1195.5 460,-1225.5 835,-1225.5 835,-1195.5 460,-1195.5"/>
<text text-anchor="start" x="467" y="-1206.9" font-family="Arial" font-size="14.00" fill="#000000">team_id </text>
<text text-anchor="start" x="520.6788" y="-1206.9" font-family="Arial" font-size="14.00" fill="#666666">[varchar(36)]</text>
<polygon fill="none" stroke="#000000" points="460,-1165.5 460,-1195.5 835,-1195.5 835,-1165.5 460,-1165.5"/>
<text text-anchor="start" x="467" y="-1176.9" font-family="Arial" font-size="14.00" fill="#000000">channel_id </text>
<text text-anchor="start" x="538.582" y="-1176.9" font-family="Arial" font-size="14.00" fill="#666666">[varchar(36)]</text>
<polygon fill="none" stroke="#000000" points="460,-1135.5 460,-1165.5 835,-1165.5 835,-1135.5 460,-1135.5"/>
<text text-anchor="start" x="467" y="-1146.9" font-family="Arial" font-size="14.00" fill="#000000">created_by </text>
<text text-anchor="start" x="540.1374" y="-1146.9" font-family="Arial" font-size="14.00" fill="#666666">[varchar(36)]</text>
<polygon fill="none" stroke="#000000" points="460,-1105.5 460,-1135.5 835,-1135.5 835,-1105.5 460,-1105.5"/>
<text text-anchor="start" x="467" y="-1116.9" font-family="Arial" font-size="14.00" fill="#000000">modified_by </text>
<text text-anchor="start" x="546.3506" y="-1116.9" font-family="Arial" font-size="14.00" fill="#666666">[varchar(36)]</text>
<polygon fill="none" stroke="#000000" points="460,-1075.5 460,-1105.5 835,-1105.5 835,-1075.5 460,-1075.5"/>
<text text-anchor="start" x="467" y="-1086.9" font-family="Arial" font-size="14.00" fill="#000000">type </text>
<text text-anchor="start" x="497.3464" y="-1086.9" font-family="Arial" font-size="14.00" fill="#666666">[varchar(1)]</text>
<polygon fill="none" stroke="#000000" points="460,-1045.5 460,-1075.5 835,-1075.5 835,-1045.5 460,-1045.5"/>
<text text-anchor="start" x="467" y="-1056.9" font-family="Arial" font-size="14.00" fill="#000000">title </text>
<text text-anchor="start" x="492.6676" y="-1056.9" font-family="Arial" font-size="14.00" fill="#666666">[text]</text>
<polygon fill="none" stroke="#000000" points="460,-1015.5 460,-1045.5 835,-1045.5 835,-1015.5 460,-1015.5"/>
<text text-anchor="start" x="467" y="-1026.9" font-family="Arial" font-size="14.00" fill="#000000">description </text>
<text text-anchor="start" x="538.568" y="-1026.9" font-family="Arial" font-size="14.00" fill="#666666">[text]</text>
<polygon fill="none" stroke="#000000" points="460,-985.5 460,-1015.5 835,-1015.5 835,-985.5 460,-985.5"/>
<text text-anchor="start" x="467" y="-996.9" font-family="Arial" font-size="14.00" fill="#000000">icon </text>
<text text-anchor="start" x="496.5624" y="-996.9" font-family="Arial" font-size="14.00" fill="#666666">[varchar(256)]</text>
<polygon fill="none" stroke="#000000" points="460,-955.5 460,-985.5 835,-985.5 835,-955.5 460,-955.5"/>
<text text-anchor="start" x="467" y="-966.9" font-family="Arial" font-size="14.00" fill="#000000">show_description </text>
<text text-anchor="start" x="579.0224" y="-966.9" font-family="Arial" font-size="14.00" fill="#666666">[boolean]</text>
<polygon fill="none" stroke="#000000" points="460,-925.5 460,-955.5 835,-955.5 835,-925.5 460,-925.5"/>
<text text-anchor="start" x="467" y="-936.9" font-family="Arial" font-size="14.00" fill="#000000">is_template </text>
<text text-anchor="start" x="542.4586" y="-936.9" font-family="Arial" font-size="14.00" fill="#666666">[boolean]</text>
<polygon fill="none" stroke="#000000" points="460,-895.5 460,-925.5 835,-925.5 835,-895.5 460,-895.5"/>
<text text-anchor="start" x="467" y="-906.9" font-family="Arial" font-size="14.00" fill="#000000">template_version </text>
<text text-anchor="start" x="577.467" y="-906.9" font-family="Arial" font-size="14.00" fill="#666666">[integer]</text>
<polygon fill="none" stroke="#000000" points="460,-865.5 460,-895.5 835,-895.5 835,-865.5 460,-865.5"/>
<text text-anchor="start" x="467" y="-876.9" font-family="Arial" font-size="14.00" fill="#000000">properties </text>
<text text-anchor="start" x="533.122" y="-876.9" font-family="Arial" font-size="14.00" fill="#666666">[jsonb]</text>
<polygon fill="none" stroke="#000000" points="460,-835.5 460,-865.5 835,-865.5 835,-835.5 460,-835.5"/>
<text text-anchor="start" x="467" y="-846.9" font-family="Arial" font-size="14.00" fill="#000000">card_properties </text>
<text text-anchor="start" x="568.1304" y="-846.9" font-family="Arial" font-size="14.00" fill="#666666">[jsonb]</text>
<polygon fill="none" stroke="#000000" points="460,-805.5 460,-835.5 835,-835.5 835,-805.5 460,-805.5"/>
<text text-anchor="start" x="467" y="-816.9" font-family="Arial" font-size="14.00" fill="#000000">create_at </text>
<text text-anchor="start" x="529.2454" y="-816.9" font-family="Arial" font-size="14.00" fill="#666666">[bigint]</text>
<polygon fill="none" stroke="#000000" points="460,-775.5 460,-805.5 835,-805.5 835,-775.5 460,-775.5"/>
<text text-anchor="start" x="467" y="-786.9" font-family="Arial" font-size="14.00" fill="#000000">update_at </text>
<text text-anchor="start" x="533.15" y="-786.9" font-family="Arial" font-size="14.00" fill="#666666">[bigint]</text>
<polygon fill="none" stroke="#000000" points="460,-745.5 460,-775.5 835,-775.5 835,-745.5 460,-745.5"/>
<text text-anchor="start" x="467" y="-756.9" font-family="Arial" font-size="14.00" fill="#000000">delete_at </text>
<text text-anchor="start" x="528.474" y="-756.9" font-family="Arial" font-size="14.00" fill="#666666">[bigint]</text>
<polygon fill="none" stroke="#000000" points="460,-715.5 460,-745.5 835,-745.5 835,-715.5 460,-715.5"/>
<text text-anchor="start" x="467" y="-726.9" font-family="Arial" font-size="14.00" fill="#000000">minimum_role </text>
<text text-anchor="start" x="558.7658" y="-726.9" font-family="Arial" font-size="14.00" fill="#666666">[varchar(36)]</text>
</g>
<!-- public.focalboard_boards_history&#45;&gt;public.teams -->
<g id="edge2" class="edge">
<title>public.focalboard_boards_history:team_id&#45;&gt;public.teams:id</title>
<path fill="none" stroke="#000000" stroke-dasharray="5,2" d="M450.822,-1206.0441C405.1225,-1157.4792 444.7364,-727.2325 460,-673 478.6993,-606.5603 471.979,-540.5 541,-540.5"/>
<polygon fill="#000000" stroke="#000000" points="451.0041,-1206.1325 458.0346,-1214.5481 455.5021,-1208.3163 460,-1210.5 460,-1210.5 460,-1210.5 455.5021,-1208.3163 461.9654,-1206.4519 451.0041,-1206.1325 451.0041,-1206.1325"/>
<text text-anchor="start" x="374.268" y="-1194.5" font-family="Arial" font-size="10.00" fill="#000000">Detected Relation</text>
</g>
<!-- public.focalboard_categories -->
<g id="node4" class="node">
<title>public.focalboard_categories</title>
<polygon fill="#efefef" stroke="transparent" points="939,-1150.5 939,-1185.5 1279,-1185.5 1279,-1150.5 939,-1150.5"/>
<polygon fill="none" stroke="#000000" points="939,-1150.5 939,-1185.5 1279,-1185.5 1279,-1150.5 939,-1150.5"/>
<text text-anchor="start" x="945.8427" y="-1163.3" font-family="Arial Bold" font-size="18.00" fill="#000000">public.focalboard_categories</text>
<text text-anchor="start" x="1174.9035" y="-1163.3" font-family="Arial" font-size="14.00" fill="#000000"> </text>
<text text-anchor="start" x="1178.7941" y="-1163.3" font-family="Arial" font-size="14.00" fill="#666666">[BASE TABLE]</text>
<polygon fill="none" stroke="#000000" points="939,-1120.5 939,-1150.5 1279,-1150.5 1279,-1120.5 939,-1120.5"/>
<text text-anchor="start" x="946" y="-1131.9" font-family="Arial" font-size="14.00" fill="#000000">id </text>
<text text-anchor="start" x="960.7798" y="-1131.9" font-family="Arial" font-size="14.00" fill="#666666">[varchar(36)]</text>
<polygon fill="none" stroke="#000000" points="939,-1090.5 939,-1120.5 1279,-1120.5 1279,-1090.5 939,-1090.5"/>
<text text-anchor="start" x="946" y="-1101.9" font-family="Arial" font-size="14.00" fill="#000000">name </text>
<text text-anchor="start" x="984.899" y="-1101.9" font-family="Arial" font-size="14.00" fill="#666666">[varchar(100)]</text>
<polygon fill="none" stroke="#000000" points="939,-1060.5 939,-1090.5 1279,-1090.5 1279,-1060.5 939,-1060.5"/>
<text text-anchor="start" x="946" y="-1071.9" font-family="Arial" font-size="14.00" fill="#000000">user_id </text>
<text text-anchor="start" x="995.7882" y="-1071.9" font-family="Arial" font-size="14.00" fill="#666666">[varchar(36)]</text>
<polygon fill="none" stroke="#000000" points="939,-1030.5 939,-1060.5 1279,-1060.5 1279,-1030.5 939,-1030.5"/>
<text text-anchor="start" x="946" y="-1041.9" font-family="Arial" font-size="14.00" fill="#000000">team_id </text>
<text text-anchor="start" x="999.6788" y="-1041.9" font-family="Arial" font-size="14.00" fill="#666666">[varchar(36)]</text>
<polygon fill="none" stroke="#000000" points="939,-1000.5 939,-1030.5 1279,-1030.5 1279,-1000.5 939,-1000.5"/>
<text text-anchor="start" x="946" y="-1011.9" font-family="Arial" font-size="14.00" fill="#000000">channel_id </text>
<text text-anchor="start" x="1017.582" y="-1011.9" font-family="Arial" font-size="14.00" fill="#666666">[varchar(36)]</text>
<polygon fill="none" stroke="#000000" points="939,-970.5 939,-1000.5 1279,-1000.5 1279,-970.5 939,-970.5"/>
<text text-anchor="start" x="946" y="-981.9" font-family="Arial" font-size="14.00" fill="#000000">create_at </text>
<text text-anchor="start" x="1008.2454" y="-981.9" font-family="Arial" font-size="14.00" fill="#666666">[bigint]</text>
<polygon fill="none" stroke="#000000" points="939,-940.5 939,-970.5 1279,-970.5 1279,-940.5 939,-940.5"/>
<text text-anchor="start" x="946" y="-951.9" font-family="Arial" font-size="14.00" fill="#000000">update_at </text>
<text text-anchor="start" x="1012.15" y="-951.9" font-family="Arial" font-size="14.00" fill="#666666">[bigint]</text>
<polygon fill="none" stroke="#000000" points="939,-910.5 939,-940.5 1279,-940.5 1279,-910.5 939,-910.5"/>
<text text-anchor="start" x="946" y="-921.9" font-family="Arial" font-size="14.00" fill="#000000">delete_at </text>
<text text-anchor="start" x="1007.474" y="-921.9" font-family="Arial" font-size="14.00" fill="#666666">[bigint]</text>
<polygon fill="none" stroke="#000000" points="939,-880.5 939,-910.5 1279,-910.5 1279,-880.5 939,-880.5"/>
<text text-anchor="start" x="946" y="-891.9" font-family="Arial" font-size="14.00" fill="#000000">collapsed </text>
<text text-anchor="start" x="1009.0168" y="-891.9" font-family="Arial" font-size="14.00" fill="#666666">[boolean]</text>
<polygon fill="none" stroke="#000000" points="939,-850.5 939,-880.5 1279,-880.5 1279,-850.5 939,-850.5"/>
<text text-anchor="start" x="946" y="-861.9" font-family="Arial" font-size="14.00" fill="#000000">type </text>
<text text-anchor="start" x="976.3464" y="-861.9" font-family="Arial" font-size="14.00" fill="#666666">[varchar(64)]</text>
</g>
<!-- public.focalboard_categories&#45;&gt;public.teams -->
<g id="edge3" class="edge">
<title>public.focalboard_categories:team_id&#45;&gt;public.teams:id</title>
<path fill="none" stroke="#000000" stroke-dasharray="5,2" d="M929.0501,-1043.8923C861.1453,-1020.3264 922.7252,-744.5679 887,-673 849.7341,-598.3456 837.4387,-540.5 754,-540.5"/>
<polygon fill="#000000" stroke="#000000" points="929.128,-1043.9048 938.2821,-1049.9424 934.064,-1044.7024 939,-1045.5 939,-1045.5 939,-1045.5 934.064,-1044.7024 939.7179,-1041.0576 929.128,-1043.9048 929.128,-1043.9048"/>
<text text-anchor="start" x="853.268" y="-1055.5" font-family="Arial" font-size="10.00" fill="#000000">Detected Relation</text>
</g>
</g>
</svg>
