<?xml version="1.0" encoding="UTF-8" standalone="no"?>
<!DOCTYPE svg PUBLIC "-//W3C//DTD SVG 1.1//EN"
 "http://www.w3.org/Graphics/SVG/1.1/DTD/svg11.dtd">
<!-- Generated by graphviz version 2.40.1 (20161225.0304)
 -->
<!-- Title: public.threadmemberships Pages: 1 -->
<svg width="422pt" height="315pt"
 viewBox="0.00 0.00 422.00 315.00" xmlns="http://www.w3.org/2000/svg" xmlns:xlink="http://www.w3.org/1999/xlink">
<g id="graph0" class="graph" transform="scale(1 1) rotate(0) translate(4 311)">
<title>public.threadmemberships</title>
<polygon fill="#ffffff" stroke="transparent" points="-4,4 -4,-311 418,-311 418,4 -4,4"/>
<!-- public.threadmemberships -->
<g id="node1" class="node">
<title>public.threadmemberships</title>
<polygon fill="#efefef" stroke="transparent" points="46,-225.5 46,-260.5 368,-260.5 368,-225.5 46,-225.5"/>
<polygon fill="none" stroke="#000000" points="46,-225.5 46,-260.5 368,-260.5 368,-225.5 46,-225.5"/>
<text text-anchor="start" x="52.858" y="-238.3" font-family="Arial Bold" font-size="18.00" fill="#000000">public.threadmemberships</text>
<text text-anchor="start" x="263.8882" y="-238.3" font-family="Arial" font-size="14.00" fill="#000000"> </text>
<text text-anchor="start" x="267.7788" y="-238.3" font-family="Arial" font-size="14.00" fill="#666666">[BASE TABLE]</text>
<polygon fill="none" stroke="#000000" points="46,-195.5 46,-225.5 368,-225.5 368,-195.5 46,-195.5"/>
<text text-anchor="start" x="53" y="-206.9" font-family="Arial" font-size="14.00" fill="#000000">postid </text>
<text text-anchor="start" x="94.2356" y="-206.9" font-family="Arial" font-size="14.00" fill="#666666">[varchar(26)]</text>
<polygon fill="none" stroke="#000000" points="46,-165.5 46,-195.5 368,-195.5 368,-165.5 46,-165.5"/>
<text text-anchor="start" x="53" y="-176.9" font-family="Arial" font-size="14.00" fill="#000000">userid </text>
<text text-anchor="start" x="95.0056" y="-176.9" font-family="Arial" font-size="14.00" fill="#666666">[varchar(26)]</text>
<polygon fill="none" stroke="#000000" points="46,-135.5 46,-165.5 368,-165.5 368,-135.5 46,-135.5"/>
<text text-anchor="start" x="53" y="-146.9" font-family="Arial" font-size="14.00" fill="#000000">following </text>
<text text-anchor="start" x="111.338" y="-146.9" font-family="Arial" font-size="14.00" fill="#666666">[boolean]</text>
<polygon fill="none" stroke="#000000" points="46,-105.5 46,-135.5 368,-135.5 368,-105.5 46,-105.5"/>
<text text-anchor="start" x="53" y="-116.9" font-family="Arial" font-size="14.00" fill="#000000">lastviewed </text>
<text text-anchor="start" x="122.2314" y="-116.9" font-family="Arial" font-size="14.00" fill="#666666">[bigint]</text>
<polygon fill="none" stroke="#000000" points="46,-75.5 46,-105.5 368,-105.5 368,-75.5 46,-75.5"/>
<text text-anchor="start" x="53" y="-86.9" font-family="Arial" font-size="14.00" fill="#000000">lastupdated </text>
<text text-anchor="start" x="129.2566" y="-86.9" font-family="Arial" font-size="14.00" fill="#666666">[bigint]</text>
<polygon fill="none" stroke="#000000" points="46,-45.5 46,-75.5 368,-75.5 368,-45.5 46,-45.5"/>
<text text-anchor="start" x="53" y="-56.9" font-family="Arial" font-size="14.00" fill="#000000">unreadmentions </text>
<text text-anchor="start" x="157.2524" y="-56.9" font-family="Arial" font-size="14.00" fill="#666666">[bigint]</text>
<polygon fill="none" stroke="#000000" stroke-width="3" points="44.5,-44.5 44.5,-262.5 369.5,-262.5 369.5,-44.5 44.5,-44.5"/>
</g>
</g>
</svg>
