<?xml version="1.0" encoding="UTF-8" standalone="no"?>
<!DOCTYPE svg PUBLIC "-//W3C//DTD SVG 1.1//EN"
 "http://www.w3.org/Graphics/SVG/1.1/DTD/svg11.dtd">
<!-- Generated by graphviz version 2.40.1 (20161225.0304)
 -->
<!-- Title: public.retentionpoliciesteams Pages: 1 -->
<svg width="792pt" height="442pt"
 viewBox="0.00 0.00 792.00 442.00" xmlns="http://www.w3.org/2000/svg" xmlns:xlink="http://www.w3.org/1999/xlink">
<g id="graph0" class="graph" transform="scale(1 1) rotate(0) translate(4 438)">
<title>public.retentionpoliciesteams</title>
<polygon fill="#ffffff" stroke="transparent" points="-4,4 -4,-438 788,-438 788,4 -4,4"/>
<!-- public.retentionpoliciesteams -->
<g id="node1" class="node">
<title>public.retentionpoliciesteams</title>
<polygon fill="#efefef" stroke="transparent" points="396,-352.5 396,-387.5 738,-387.5 738,-352.5 396,-352.5"/>
<polygon fill="none" stroke="#000000" points="396,-352.5 396,-387.5 738,-387.5 738,-352.5 396,-352.5"/>
<text text-anchor="start" x="402.8536" y="-365.3" font-family="Arial Bold" font-size="18.00" fill="#000000">public.retentionpoliciesteams</text>
<text text-anchor="start" x="633.8926" y="-365.3" font-family="Arial" font-size="14.00" fill="#000000"> </text>
<text text-anchor="start" x="637.7832" y="-365.3" font-family="Arial" font-size="14.00" fill="#666666">[BASE TABLE]</text>
<polygon fill="none" stroke="#000000" points="396,-322.5 396,-352.5 738,-352.5 738,-322.5 396,-322.5"/>
<text text-anchor="start" x="403" y="-333.9" font-family="Arial" font-size="14.00" fill="#000000">policyid </text>
<text text-anchor="start" x="453.5582" y="-333.9" font-family="Arial" font-size="14.00" fill="#666666">[varchar(26)]</text>
<polygon fill="none" stroke="#000000" points="396,-292.5 396,-322.5 738,-322.5 738,-292.5 396,-292.5"/>
<text text-anchor="start" x="403" y="-303.9" font-family="Arial" font-size="14.00" fill="#000000">teamid </text>
<text text-anchor="start" x="448.8962" y="-303.9" font-family="Arial" font-size="14.00" fill="#666666">[varchar(26)]</text>
<polygon fill="none" stroke="#000000" stroke-width="3" points="394.5,-291.5 394.5,-389.5 739.5,-389.5 739.5,-291.5 394.5,-291.5"/>
</g>
<!-- public.retentionpolicies -->
<g id="node2" class="node">
<title>public.retentionpolicies</title>
<polygon fill="#efefef" stroke="transparent" points="420,-132.5 420,-167.5 713,-167.5 713,-132.5 420,-132.5"/>
<polygon fill="none" stroke="#000000" points="420,-132.5 420,-167.5 713,-167.5 713,-132.5 420,-132.5"/>
<text text-anchor="start" x="426.857" y="-145.3" font-family="Arial Bold" font-size="18.00" fill="#000000">public.retentionpolicies</text>
<text text-anchor="start" x="608.8892" y="-145.3" font-family="Arial" font-size="14.00" fill="#000000"> </text>
<text text-anchor="start" x="612.7798" y="-145.3" font-family="Arial" font-size="14.00" fill="#666666">[BASE TABLE]</text>
<polygon fill="none" stroke="#000000" points="420,-102.5 420,-132.5 713,-132.5 713,-102.5 420,-102.5"/>
<text text-anchor="start" x="427" y="-113.9" font-family="Arial" font-size="14.00" fill="#000000">id </text>
<text text-anchor="start" x="441.7798" y="-113.9" font-family="Arial" font-size="14.00" fill="#666666">[varchar(26)]</text>
<polygon fill="none" stroke="#000000" points="420,-72.5 420,-102.5 713,-102.5 713,-72.5 420,-72.5"/>
<text text-anchor="start" x="427" y="-83.9" font-family="Arial" font-size="14.00" fill="#000000">displayname </text>
<text text-anchor="start" x="509.46" y="-83.9" font-family="Arial" font-size="14.00" fill="#666666">[varchar(64)]</text>
<polygon fill="none" stroke="#000000" points="420,-42.5 420,-72.5 713,-72.5 713,-42.5 420,-42.5"/>
<text text-anchor="start" x="427" y="-53.9" font-family="Arial" font-size="14.00" fill="#000000">postduration </text>
<text text-anchor="start" x="507.9172" y="-53.9" font-family="Arial" font-size="14.00" fill="#666666">[bigint]</text>
</g>
<!-- public.retentionpoliciesteams&#45;&gt;public.retentionpolicies -->
<g id="edge1" class="edge">
<title>public.retentionpoliciesteams:policyid&#45;&gt;public.retentionpolicies:id</title>
<path fill="none" stroke="#000000" d="M386.069,-335.9798C358.4139,-326.4249 371.7227,-274.1904 396,-247 490.4377,-141.2305 618.5623,-316.7695 713,-211 740.6768,-180.0022 754.5556,-117.5 713,-117.5"/>
<polygon fill="#000000" stroke="#000000" points="386.1151,-335.9868 395.3191,-341.9482 391.0576,-336.7434 396,-337.5 396,-337.5 396,-337.5 391.0576,-336.7434 396.6809,-333.0518 386.1151,-335.9868 386.1151,-335.9868"/>
<text text-anchor="start" x="6.8845" y="-347.5" font-family="Arial" font-size="10.00" fill="#000000">FOREIGN KEY (policyid) REFERENCES retentionpolicies(id) ON DELETE CASCADE</text>
</g>
</g>
</svg>
