<?xml version="1.0" encoding="UTF-8" standalone="no"?>
<!DOCTYPE svg PUBLIC "-//W3C//DTD SVG 1.1//EN"
 "http://www.w3.org/Graphics/SVG/1.1/DTD/svg11.dtd">
<!-- Generated by graphviz version 2.40.1 (20161225.0304)
 -->
<!-- Title: public.ir_incident Pages: 1 -->
<svg width="1513pt" height="1942pt"
 viewBox="0.00 0.00 1513.00 1942.00" xmlns="http://www.w3.org/2000/svg" xmlns:xlink="http://www.w3.org/1999/xlink">
<g id="graph0" class="graph" transform="scale(1 1) rotate(0) translate(4 1938)">
<title>public.ir_incident</title>
<polygon fill="#ffffff" stroke="transparent" points="-4,4 -4,-1938 1509,-1938 1509,4 -4,4"/>
<!-- public.ir_incident -->
<g id="node1" class="node">
<title>public.ir_incident</title>
<polygon fill="#efefef" stroke="transparent" points="604,-1365.5 604,-1400.5 933,-1400.5 933,-1365.5 604,-1365.5"/>
<polygon fill="none" stroke="#000000" points="604,-1365.5 604,-1400.5 933,-1400.5 933,-1365.5 604,-1365.5"/>
<text text-anchor="start" x="652.8645" y="-1378.3" font-family="Arial Bold" font-size="18.00" fill="#000000">public.ir_incident</text>
<text text-anchor="start" x="786.8817" y="-1378.3" font-family="Arial" font-size="14.00" fill="#000000"> </text>
<text text-anchor="start" x="790.7723" y="-1378.3" font-family="Arial" font-size="14.00" fill="#666666">[BASE TABLE]</text>
<polygon fill="none" stroke="#000000" points="604,-1335.5 604,-1365.5 933,-1365.5 933,-1335.5 604,-1335.5"/>
<text text-anchor="start" x="611" y="-1346.9" font-family="Arial" font-size="14.00" fill="#000000">id </text>
<text text-anchor="start" x="625.7798" y="-1346.9" font-family="Arial" font-size="14.00" fill="#666666">[text]</text>
<polygon fill="none" stroke="#000000" points="604,-1305.5 604,-1335.5 933,-1335.5 933,-1305.5 604,-1305.5"/>
<text text-anchor="start" x="611" y="-1316.9" font-family="Arial" font-size="14.00" fill="#000000">name </text>
<text text-anchor="start" x="649.899" y="-1316.9" font-family="Arial" font-size="14.00" fill="#666666">[text]</text>
<polygon fill="none" stroke="#000000" points="604,-1275.5 604,-1305.5 933,-1305.5 933,-1275.5 604,-1275.5"/>
<text text-anchor="start" x="611" y="-1286.9" font-family="Arial" font-size="14.00" fill="#000000">description </text>
<text text-anchor="start" x="682.568" y="-1286.9" font-family="Arial" font-size="14.00" fill="#666666">[text]</text>
<polygon fill="none" stroke="#000000" points="604,-1245.5 604,-1275.5 933,-1275.5 933,-1245.5 604,-1245.5"/>
<text text-anchor="start" x="611" y="-1256.9" font-family="Arial" font-size="14.00" fill="#000000">isactive </text>
<text text-anchor="start" x="661.5596" y="-1256.9" font-family="Arial" font-size="14.00" fill="#666666">[boolean]</text>
<polygon fill="none" stroke="#000000" points="604,-1215.5 604,-1245.5 933,-1245.5 933,-1215.5 604,-1215.5"/>
<text text-anchor="start" x="611" y="-1226.9" font-family="Arial" font-size="14.00" fill="#000000">commanderuserid </text>
<text text-anchor="start" x="726.9004" y="-1226.9" font-family="Arial" font-size="14.00" fill="#666666">[text]</text>
<polygon fill="none" stroke="#000000" points="604,-1185.5 604,-1215.5 933,-1215.5 933,-1185.5 604,-1185.5"/>
<text text-anchor="start" x="611" y="-1196.9" font-family="Arial" font-size="14.00" fill="#000000">teamid </text>
<text text-anchor="start" x="656.8962" y="-1196.9" font-family="Arial" font-size="14.00" fill="#666666">[text]</text>
<polygon fill="none" stroke="#000000" points="604,-1155.5 604,-1185.5 933,-1185.5 933,-1155.5 604,-1155.5"/>
<text text-anchor="start" x="611" y="-1166.9" font-family="Arial" font-size="14.00" fill="#000000">channelid </text>
<text text-anchor="start" x="674.7994" y="-1166.9" font-family="Arial" font-size="14.00" fill="#666666">[text]</text>
<polygon fill="none" stroke="#000000" points="604,-1125.5 604,-1155.5 933,-1155.5 933,-1125.5 604,-1125.5"/>
<text text-anchor="start" x="611" y="-1136.9" font-family="Arial" font-size="14.00" fill="#000000">createat </text>
<text text-anchor="start" x="665.4628" y="-1136.9" font-family="Arial" font-size="14.00" fill="#666666">[bigint]</text>
<polygon fill="none" stroke="#000000" points="604,-1095.5 604,-1125.5 933,-1125.5 933,-1095.5 604,-1095.5"/>
<text text-anchor="start" x="611" y="-1106.9" font-family="Arial" font-size="14.00" fill="#000000">endat </text>
<text text-anchor="start" x="649.9116" y="-1106.9" font-family="Arial" font-size="14.00" fill="#666666">[bigint]</text>
<polygon fill="none" stroke="#000000" points="604,-1065.5 604,-1095.5 933,-1095.5 933,-1065.5 604,-1065.5"/>
<text text-anchor="start" x="611" y="-1076.9" font-family="Arial" font-size="14.00" fill="#000000">deleteat </text>
<text text-anchor="start" x="664.6914" y="-1076.9" font-family="Arial" font-size="14.00" fill="#666666">[bigint]</text>
<polygon fill="none" stroke="#000000" points="604,-1035.5 604,-1065.5 933,-1065.5 933,-1035.5 604,-1035.5"/>
<text text-anchor="start" x="611" y="-1046.9" font-family="Arial" font-size="14.00" fill="#000000">activestage </text>
<text text-anchor="start" x="685.6914" y="-1046.9" font-family="Arial" font-size="14.00" fill="#666666">[bigint]</text>
<polygon fill="none" stroke="#000000" points="604,-1005.5 604,-1035.5 933,-1035.5 933,-1005.5 604,-1005.5"/>
<text text-anchor="start" x="611" y="-1016.9" font-family="Arial" font-size="14.00" fill="#000000">postid </text>
<text text-anchor="start" x="652.2356" y="-1016.9" font-family="Arial" font-size="14.00" fill="#666666">[text]</text>
<polygon fill="none" stroke="#000000" points="604,-975.5 604,-1005.5 933,-1005.5 933,-975.5 604,-975.5"/>
<text text-anchor="start" x="611" y="-986.9" font-family="Arial" font-size="14.00" fill="#000000">playbookid </text>
<text text-anchor="start" x="681.7994" y="-986.9" font-family="Arial" font-size="14.00" fill="#666666">[text]</text>
<polygon fill="none" stroke="#000000" points="604,-945.5 604,-975.5 933,-975.5 933,-945.5 604,-945.5"/>
<text text-anchor="start" x="611" y="-956.9" font-family="Arial" font-size="14.00" fill="#000000">checklistsjson </text>
<text text-anchor="start" x="701.2314" y="-956.9" font-family="Arial" font-size="14.00" fill="#666666">[json]</text>
<polygon fill="none" stroke="#000000" points="604,-915.5 604,-945.5 933,-945.5 933,-915.5 604,-915.5"/>
<text text-anchor="start" x="611" y="-926.9" font-family="Arial" font-size="14.00" fill="#000000">activestagetitle </text>
<text text-anchor="start" x="707.4684" y="-926.9" font-family="Arial" font-size="14.00" fill="#666666">[text]</text>
<polygon fill="none" stroke="#000000" points="604,-885.5 604,-915.5 933,-915.5 933,-885.5 604,-885.5"/>
<text text-anchor="start" x="611" y="-896.9" font-family="Arial" font-size="14.00" fill="#000000">reminderpostid </text>
<text text-anchor="start" x="707.4544" y="-896.9" font-family="Arial" font-size="14.00" fill="#666666">[text]</text>
<polygon fill="none" stroke="#000000" points="604,-855.5 604,-885.5 933,-885.5 933,-855.5 604,-855.5"/>
<text text-anchor="start" x="611" y="-866.9" font-family="Arial" font-size="14.00" fill="#000000">broadcastchannelid </text>
<text text-anchor="start" x="736.2636" y="-866.9" font-family="Arial" font-size="14.00" fill="#666666">[text]</text>
<polygon fill="none" stroke="#000000" points="604,-825.5 604,-855.5 933,-855.5 933,-825.5 604,-825.5"/>
<text text-anchor="start" x="611" y="-836.9" font-family="Arial" font-size="14.00" fill="#000000">previousreminder </text>
<text text-anchor="start" x="723.007" y="-836.9" font-family="Arial" font-size="14.00" fill="#666666">[bigint]</text>
<polygon fill="none" stroke="#000000" points="604,-795.5 604,-825.5 933,-825.5 933,-795.5 604,-795.5"/>
<text text-anchor="start" x="611" y="-806.9" font-family="Arial" font-size="14.00" fill="#000000">remindermessagetemplate </text>
<text text-anchor="start" x="780.5792" y="-806.9" font-family="Arial" font-size="14.00" fill="#666666">[text]</text>
<polygon fill="none" stroke="#000000" points="604,-765.5 604,-795.5 933,-795.5 933,-765.5 604,-765.5"/>
<text text-anchor="start" x="611" y="-776.9" font-family="Arial" font-size="14.00" fill="#000000">currentstatus </text>
<text text-anchor="start" x="695.7966" y="-776.9" font-family="Arial" font-size="14.00" fill="#666666">[text]</text>
<polygon fill="none" stroke="#000000" points="604,-735.5 604,-765.5 933,-765.5 933,-735.5 604,-735.5"/>
<text text-anchor="start" x="611" y="-746.9" font-family="Arial" font-size="14.00" fill="#000000">reporteruserid </text>
<text text-anchor="start" x="702.0084" y="-746.9" font-family="Arial" font-size="14.00" fill="#666666">[text]</text>
<polygon fill="none" stroke="#000000" points="604,-705.5 604,-735.5 933,-735.5 933,-705.5 604,-705.5"/>
<text text-anchor="start" x="611" y="-716.9" font-family="Arial" font-size="14.00" fill="#000000">concatenatedinviteduserids </text>
<text text-anchor="start" x="784.4992" y="-716.9" font-family="Arial" font-size="14.00" fill="#666666">[text]</text>
<polygon fill="none" stroke="#000000" points="604,-675.5 604,-705.5 933,-705.5 933,-675.5 604,-675.5"/>
<text text-anchor="start" x="611" y="-686.9" font-family="Arial" font-size="14.00" fill="#000000">defaultcommanderid </text>
<text text-anchor="start" x="741.6928" y="-686.9" font-family="Arial" font-size="14.00" fill="#666666">[text]</text>
<polygon fill="none" stroke="#000000" points="604,-645.5 604,-675.5 933,-675.5 933,-645.5 604,-645.5"/>
<text text-anchor="start" x="611" y="-656.9" font-family="Arial" font-size="14.00" fill="#000000">announcementchannelid </text>
<text text-anchor="start" x="767.394" y="-656.9" font-family="Arial" font-size="14.00" fill="#666666">[text]</text>
<polygon fill="none" stroke="#000000" points="604,-615.5 604,-645.5 933,-645.5 933,-615.5 604,-615.5"/>
<text text-anchor="start" x="611" y="-626.9" font-family="Arial" font-size="14.00" fill="#000000">concatenatedwebhookoncreationurls </text>
<text text-anchor="start" x="842.8554" y="-626.9" font-family="Arial" font-size="14.00" fill="#666666">[text]</text>
<polygon fill="none" stroke="#000000" points="604,-585.5 604,-615.5 933,-615.5 933,-585.5 604,-585.5"/>
<text text-anchor="start" x="611" y="-596.9" font-family="Arial" font-size="14.00" fill="#000000">concatenatedinvitedgroupids </text>
<text text-anchor="start" x="793.0644" y="-596.9" font-family="Arial" font-size="14.00" fill="#666666">[text]</text>
<polygon fill="none" stroke="#000000" points="604,-555.5 604,-585.5 933,-585.5 933,-555.5 604,-555.5"/>
<text text-anchor="start" x="611" y="-566.9" font-family="Arial" font-size="14.00" fill="#000000">retrospective </text>
<text text-anchor="start" x="695.0126" y="-566.9" font-family="Arial" font-size="14.00" fill="#666666">[text]</text>
<polygon fill="none" stroke="#000000" points="604,-525.5 604,-555.5 933,-555.5 933,-525.5 604,-525.5"/>
<text text-anchor="start" x="611" y="-536.9" font-family="Arial" font-size="14.00" fill="#000000">messageonjoin </text>
<text text-anchor="start" x="709.0252" y="-536.9" font-family="Arial" font-size="14.00" fill="#666666">[text]</text>
<polygon fill="none" stroke="#000000" points="604,-495.5 604,-525.5 933,-525.5 933,-495.5 604,-495.5"/>
<text text-anchor="start" x="611" y="-506.9" font-family="Arial" font-size="14.00" fill="#000000">retrospectivepublishedat </text>
<text text-anchor="start" x="766.5946" y="-506.9" font-family="Arial" font-size="14.00" fill="#666666">[bigint]</text>
<polygon fill="none" stroke="#000000" points="604,-465.5 604,-495.5 933,-495.5 933,-465.5 604,-465.5"/>
<text text-anchor="start" x="611" y="-476.9" font-family="Arial" font-size="14.00" fill="#000000">retrospectivereminderintervalseconds </text>
<text text-anchor="start" x="847.474" y="-476.9" font-family="Arial" font-size="14.00" fill="#666666">[bigint]</text>
<polygon fill="none" stroke="#000000" points="604,-435.5 604,-465.5 933,-465.5 933,-435.5 604,-435.5"/>
<text text-anchor="start" x="611" y="-446.9" font-family="Arial" font-size="14.00" fill="#000000">retrospectivewascanceled </text>
<text text-anchor="start" x="775.9214" y="-446.9" font-family="Arial" font-size="14.00" fill="#666666">[boolean]</text>
<polygon fill="none" stroke="#000000" points="604,-405.5 604,-435.5 933,-435.5 933,-405.5 604,-405.5"/>
<text text-anchor="start" x="611" y="-416.9" font-family="Arial" font-size="14.00" fill="#000000">concatenatedwebhookonstatusupdateurls </text>
<text text-anchor="start" x="873.2172" y="-416.9" font-family="Arial" font-size="14.00" fill="#666666">[text]</text>
<polygon fill="none" stroke="#000000" points="604,-375.5 604,-405.5 933,-405.5 933,-375.5 604,-375.5"/>
<text text-anchor="start" x="611" y="-386.9" font-family="Arial" font-size="14.00" fill="#000000">laststatusupdateat </text>
<text text-anchor="start" x="728.4936" y="-386.9" font-family="Arial" font-size="14.00" fill="#666666">[bigint]</text>
<polygon fill="none" stroke="#000000" points="604,-345.5 604,-375.5 933,-375.5 933,-345.5 604,-345.5"/>
<text text-anchor="start" x="611" y="-356.9" font-family="Arial" font-size="14.00" fill="#000000">exportchannelonfinishedenabled </text>
<text text-anchor="start" x="816.4108" y="-356.9" font-family="Arial" font-size="14.00" fill="#666666">[boolean]</text>
<polygon fill="none" stroke="#000000" points="604,-315.5 604,-345.5 933,-345.5 933,-315.5 604,-315.5"/>
<text text-anchor="start" x="611" y="-326.9" font-family="Arial" font-size="14.00" fill="#000000">categorizechannelenabled </text>
<text text-anchor="start" x="778.2832" y="-326.9" font-family="Arial" font-size="14.00" fill="#666666">[boolean]</text>
<polygon fill="none" stroke="#000000" points="604,-285.5 604,-315.5 933,-315.5 933,-285.5 604,-285.5"/>
<text text-anchor="start" x="611" y="-296.9" font-family="Arial" font-size="14.00" fill="#000000">categoryname </text>
<text text-anchor="start" x="703.5806" y="-296.9" font-family="Arial" font-size="14.00" fill="#666666">[text]</text>
<polygon fill="none" stroke="#000000" points="604,-255.5 604,-285.5 933,-285.5 933,-255.5 604,-255.5"/>
<text text-anchor="start" x="611" y="-266.9" font-family="Arial" font-size="14.00" fill="#000000">concatenatedbroadcastchannelids </text>
<text text-anchor="start" x="827.3056" y="-266.9" font-family="Arial" font-size="14.00" fill="#666666">[text]</text>
<polygon fill="none" stroke="#000000" points="604,-225.5 604,-255.5 933,-255.5 933,-225.5 604,-225.5"/>
<text text-anchor="start" x="611" y="-236.9" font-family="Arial" font-size="14.00" fill="#000000">channelidtorootid </text>
<text text-anchor="start" x="721.4782" y="-236.9" font-family="Arial" font-size="14.00" fill="#666666">[text]</text>
<polygon fill="none" stroke="#000000" points="604,-195.5 604,-225.5 933,-225.5 933,-195.5 604,-195.5"/>
<text text-anchor="start" x="611" y="-206.9" font-family="Arial" font-size="14.00" fill="#000000">remindertimerdefaultseconds </text>
<text text-anchor="start" x="795.359" y="-206.9" font-family="Arial" font-size="14.00" fill="#666666">[bigint]</text>
<polygon fill="none" stroke="#000000" points="604,-165.5 604,-195.5 933,-195.5 933,-165.5 604,-165.5"/>
<text text-anchor="start" x="611" y="-176.9" font-family="Arial" font-size="14.00" fill="#000000">statusupdateenabled </text>
<text text-anchor="start" x="744.8428" y="-176.9" font-family="Arial" font-size="14.00" fill="#666666">[boolean]</text>
<polygon fill="none" stroke="#000000" points="604,-135.5 604,-165.5 933,-165.5 933,-135.5 604,-135.5"/>
<text text-anchor="start" x="611" y="-146.9" font-family="Arial" font-size="14.00" fill="#000000">retrospectiveenabled </text>
<text text-anchor="start" x="744.8148" y="-146.9" font-family="Arial" font-size="14.00" fill="#666666">[boolean]</text>
<polygon fill="none" stroke="#000000" points="604,-105.5 604,-135.5 933,-135.5 933,-105.5 604,-105.5"/>
<text text-anchor="start" x="611" y="-116.9" font-family="Arial" font-size="14.00" fill="#000000">statusupdatebroadcastchannelsenabled </text>
<text text-anchor="start" x="862.3266" y="-116.9" font-family="Arial" font-size="14.00" fill="#666666">[boolean]</text>
<polygon fill="none" stroke="#000000" points="604,-75.5 604,-105.5 933,-105.5 933,-75.5 604,-75.5"/>
<text text-anchor="start" x="610.545" y="-86.9" font-family="Arial" font-size="14.00" fill="#000000">statusupdatebroadcastwebhooksenabled </text>
<text text-anchor="start" x="868.8716" y="-86.9" font-family="Arial" font-size="14.00" fill="#666666">[boolean]</text>
<polygon fill="none" stroke="#000000" points="604,-45.5 604,-75.5 933,-75.5 933,-45.5 604,-45.5"/>
<text text-anchor="start" x="611" y="-56.9" font-family="Arial" font-size="14.00" fill="#000000">summarymodifiedat </text>
<text text-anchor="start" x="737.0056" y="-56.9" font-family="Arial" font-size="14.00" fill="#666666">[bigint]</text>
<polygon fill="none" stroke="#000000" stroke-width="3" points="602,-44.5 602,-1402.5 934,-1402.5 934,-44.5 602,-44.5"/>
</g>
<!-- public.ir_statusposts -->
<g id="node2" class="node">
<title>public.ir_statusposts</title>
<polygon fill="#efefef" stroke="transparent" points="43,-1720.5 43,-1755.5 317,-1755.5 317,-1720.5 43,-1720.5"/>
<polygon fill="none" stroke="#000000" points="43,-1720.5 43,-1755.5 317,-1755.5 317,-1720.5 43,-1720.5"/>
<text text-anchor="start" x="49.8565" y="-1733.3" font-family="Arial Bold" font-size="18.00" fill="#000000">public.ir_statusposts</text>
<text text-anchor="start" x="212.8897" y="-1733.3" font-family="Arial" font-size="14.00" fill="#000000"> </text>
<text text-anchor="start" x="216.7803" y="-1733.3" font-family="Arial" font-size="14.00" fill="#666666">[BASE TABLE]</text>
<polygon fill="none" stroke="#000000" points="43,-1690.5 43,-1720.5 317,-1720.5 317,-1690.5 43,-1690.5"/>
<text text-anchor="start" x="50" y="-1701.9" font-family="Arial" font-size="14.00" fill="#000000">incidentid </text>
<text text-anchor="start" x="113.014" y="-1701.9" font-family="Arial" font-size="14.00" fill="#666666">[text]</text>
<polygon fill="none" stroke="#000000" points="43,-1660.5 43,-1690.5 317,-1690.5 317,-1660.5 43,-1660.5"/>
<text text-anchor="start" x="50" y="-1671.9" font-family="Arial" font-size="14.00" fill="#000000">postid </text>
<text text-anchor="start" x="91.2356" y="-1671.9" font-family="Arial" font-size="14.00" fill="#666666">[text]</text>
</g>
<!-- public.ir_statusposts&#45;&gt;public.ir_incident -->
<g id="edge1" class="edge">
<title>public.ir_statusposts:incidentid&#45;&gt;public.ir_incident:id</title>
<path fill="none" stroke="#000000" d="M327.1958,-1704.9562C410.7931,-1695.3704 310.2702,-1561.3079 369,-1483 440.9405,-1387.0776 484.0978,-1350.5 604,-1350.5"/>
<polygon fill="#000000" stroke="#000000" points="326.9858,-1704.9673 316.7603,-1701.0064 321.9929,-1705.2337 317,-1705.5 317,-1705.5 317,-1705.5 321.9929,-1705.2337 317.2397,-1709.9936 326.9858,-1704.9673 326.9858,-1704.9673"/>
<text text-anchor="start" x="190.5545" y="-1689.5" font-family="Arial" font-size="10.00" fill="#000000">FOREIGN KEY (incidentid) REFERENCES ir_incident(id)</text>
</g>
<!-- public.ir_timelineevent -->
<g id="node3" class="node">
<title>public.ir_timelineevent</title>
<polygon fill="#efefef" stroke="transparent" points="422,-1855.5 422,-1890.5 711,-1890.5 711,-1855.5 422,-1855.5"/>
<polygon fill="none" stroke="#000000" points="422,-1855.5 422,-1890.5 711,-1890.5 711,-1855.5 422,-1855.5"/>
<text text-anchor="start" x="428.864" y="-1868.3" font-family="Arial Bold" font-size="18.00" fill="#000000">public.ir_timelineevent</text>
<text text-anchor="start" x="606.8822" y="-1868.3" font-family="Arial" font-size="14.00" fill="#000000"> </text>
<text text-anchor="start" x="610.7728" y="-1868.3" font-family="Arial" font-size="14.00" fill="#666666">[BASE TABLE]</text>
<polygon fill="none" stroke="#000000" points="422,-1825.5 422,-1855.5 711,-1855.5 711,-1825.5 422,-1825.5"/>
<text text-anchor="start" x="429" y="-1836.9" font-family="Arial" font-size="14.00" fill="#000000">id </text>
<text text-anchor="start" x="443.7798" y="-1836.9" font-family="Arial" font-size="14.00" fill="#666666">[text]</text>
<polygon fill="none" stroke="#000000" points="422,-1795.5 422,-1825.5 711,-1825.5 711,-1795.5 422,-1795.5"/>
<text text-anchor="start" x="429" y="-1806.9" font-family="Arial" font-size="14.00" fill="#000000">incidentid </text>
<text text-anchor="start" x="492.014" y="-1806.9" font-family="Arial" font-size="14.00" fill="#666666">[text]</text>
<polygon fill="none" stroke="#000000" points="422,-1765.5 422,-1795.5 711,-1795.5 711,-1765.5 422,-1765.5"/>
<text text-anchor="start" x="429" y="-1776.9" font-family="Arial" font-size="14.00" fill="#000000">createat </text>
<text text-anchor="start" x="483.4628" y="-1776.9" font-family="Arial" font-size="14.00" fill="#666666">[bigint]</text>
<polygon fill="none" stroke="#000000" points="422,-1735.5 422,-1765.5 711,-1765.5 711,-1735.5 422,-1735.5"/>
<text text-anchor="start" x="429" y="-1746.9" font-family="Arial" font-size="14.00" fill="#000000">deleteat </text>
<text text-anchor="start" x="482.6914" y="-1746.9" font-family="Arial" font-size="14.00" fill="#666666">[bigint]</text>
<polygon fill="none" stroke="#000000" points="422,-1705.5 422,-1735.5 711,-1735.5 711,-1705.5 422,-1705.5"/>
<text text-anchor="start" x="429" y="-1716.9" font-family="Arial" font-size="14.00" fill="#000000">eventat </text>
<text text-anchor="start" x="478.8022" y="-1716.9" font-family="Arial" font-size="14.00" fill="#666666">[bigint]</text>
<polygon fill="none" stroke="#000000" points="422,-1675.5 422,-1705.5 711,-1705.5 711,-1675.5 422,-1675.5"/>
<text text-anchor="start" x="429" y="-1686.9" font-family="Arial" font-size="14.00" fill="#000000">eventtype </text>
<text text-anchor="start" x="493.5848" y="-1686.9" font-family="Arial" font-size="14.00" fill="#666666">[text]</text>
<polygon fill="none" stroke="#000000" points="422,-1645.5 422,-1675.5 711,-1675.5 711,-1645.5 422,-1645.5"/>
<text text-anchor="start" x="429" y="-1656.9" font-family="Arial" font-size="14.00" fill="#000000">summary </text>
<text text-anchor="start" x="490.4376" y="-1656.9" font-family="Arial" font-size="14.00" fill="#666666">[text]</text>
<polygon fill="none" stroke="#000000" points="422,-1615.5 422,-1645.5 711,-1645.5 711,-1615.5 422,-1615.5"/>
<text text-anchor="start" x="429" y="-1626.9" font-family="Arial" font-size="14.00" fill="#000000">details </text>
<text text-anchor="start" x="473.3422" y="-1626.9" font-family="Arial" font-size="14.00" fill="#666666">[text]</text>
<polygon fill="none" stroke="#000000" points="422,-1585.5 422,-1615.5 711,-1615.5 711,-1585.5 422,-1585.5"/>
<text text-anchor="start" x="429" y="-1596.9" font-family="Arial" font-size="14.00" fill="#000000">postid </text>
<text text-anchor="start" x="470.2356" y="-1596.9" font-family="Arial" font-size="14.00" fill="#666666">[text]</text>
<polygon fill="none" stroke="#000000" points="422,-1555.5 422,-1585.5 711,-1585.5 711,-1555.5 422,-1555.5"/>
<text text-anchor="start" x="429" y="-1566.9" font-family="Arial" font-size="14.00" fill="#000000">subjectuserid </text>
<text text-anchor="start" x="515.3506" y="-1566.9" font-family="Arial" font-size="14.00" fill="#666666">[text]</text>
<polygon fill="none" stroke="#000000" points="422,-1525.5 422,-1555.5 711,-1555.5 711,-1525.5 422,-1525.5"/>
<text text-anchor="start" x="429" y="-1536.9" font-family="Arial" font-size="14.00" fill="#000000">creatoruserid </text>
<text text-anchor="start" x="514.5652" y="-1536.9" font-family="Arial" font-size="14.00" fill="#666666">[text]</text>
</g>
<!-- public.ir_timelineevent&#45;&gt;public.ir_incident -->
<g id="edge2" class="edge">
<title>public.ir_timelineevent:incidentid&#45;&gt;public.ir_incident:id</title>
<path fill="none" stroke="#000000" d="M720.9341,-1808.6359C780.7891,-1784.7881 751.3974,-1539.2142 711,-1483 681.7192,-1442.2549 633.2808,-1487.7451 604,-1447 578.9712,-1412.1716 561.1111,-1350.5 604,-1350.5"/>
<polygon fill="#000000" stroke="#000000" points="720.8285,-1808.6556 710.17,-1806.0772 715.9142,-1809.5778 711,-1810.5 711,-1810.5 711,-1810.5 715.9142,-1809.5778 711.83,-1814.9228 720.8285,-1808.6556 720.8285,-1808.6556"/>
<text text-anchor="start" x="718.0545" y="-1820.5" font-family="Arial" font-size="10.00" fill="#000000">FOREIGN KEY (incidentid) REFERENCES ir_incident(id)</text>
</g>
<!-- public.ir_run_participants -->
<g id="node4" class="node">
<title>public.ir_run_participants</title>
<polygon fill="#efefef" stroke="transparent" points="815,-1735.5 815,-1770.5 1126,-1770.5 1126,-1735.5 815,-1735.5"/>
<polygon fill="none" stroke="#000000" points="815,-1735.5 815,-1770.5 1126,-1770.5 1126,-1735.5 815,-1735.5"/>
<text text-anchor="start" x="821.8588" y="-1748.3" font-family="Arial Bold" font-size="18.00" fill="#000000">public.ir_run_participants</text>
<text text-anchor="start" x="1021.8874" y="-1748.3" font-family="Arial" font-size="14.00" fill="#000000"> </text>
<text text-anchor="start" x="1025.778" y="-1748.3" font-family="Arial" font-size="14.00" fill="#666666">[BASE TABLE]</text>
<polygon fill="none" stroke="#000000" points="815,-1705.5 815,-1735.5 1126,-1735.5 1126,-1705.5 815,-1705.5"/>
<text text-anchor="start" x="822" y="-1716.9" font-family="Arial" font-size="14.00" fill="#000000">userid </text>
<text text-anchor="start" x="864.0056" y="-1716.9" font-family="Arial" font-size="14.00" fill="#666666">[text]</text>
<polygon fill="none" stroke="#000000" points="815,-1675.5 815,-1705.5 1126,-1705.5 1126,-1675.5 815,-1675.5"/>
<text text-anchor="start" x="822" y="-1686.9" font-family="Arial" font-size="14.00" fill="#000000">incidentid </text>
<text text-anchor="start" x="885.014" y="-1686.9" font-family="Arial" font-size="14.00" fill="#666666">[text]</text>
<polygon fill="none" stroke="#000000" points="815,-1645.5 815,-1675.5 1126,-1675.5 1126,-1645.5 815,-1645.5"/>
<text text-anchor="start" x="822" y="-1656.9" font-family="Arial" font-size="14.00" fill="#000000">isfollower </text>
<text text-anchor="start" x="884.216" y="-1656.9" font-family="Arial" font-size="14.00" fill="#666666">[boolean]</text>
</g>
<!-- public.ir_run_participants&#45;&gt;public.ir_incident -->
<g id="edge3" class="edge">
<title>public.ir_run_participants:incidentid&#45;&gt;public.ir_incident:id</title>
<path fill="none" stroke="#000000" d="M805.0916,-1689.0007C781.3512,-1680.3574 803.8835,-1636.1236 815,-1603 842.6596,-1520.5835 905.3404,-1529.4165 933,-1447 946.6458,-1406.3398 975.8889,-1350.5 933,-1350.5"/>
<polygon fill="#000000" stroke="#000000" points="805.1126,-1689.0037 814.3267,-1694.9493 810.0563,-1689.7519 815,-1690.5 815,-1690.5 815,-1690.5 810.0563,-1689.7519 815.6733,-1686.0507 805.1126,-1689.0037 805.1126,-1689.0037"/>
<text text-anchor="start" x="822.0545" y="-1700.5" font-family="Arial" font-size="10.00" fill="#000000">FOREIGN KEY (incidentid) REFERENCES ir_incident(id)</text>
</g>
<!-- public.ir_metric -->
<g id="node5" class="node">
<title>public.ir_metric</title>
<polygon fill="#efefef" stroke="transparent" points="1230,-1750.5 1230,-1785.5 1462,-1785.5 1462,-1750.5 1230,-1750.5"/>
<polygon fill="none" stroke="#000000" points="1230,-1750.5 1230,-1785.5 1462,-1785.5 1462,-1750.5 1230,-1750.5"/>
<text text-anchor="start" x="1236.8787" y="-1763.3" font-family="Arial Bold" font-size="18.00" fill="#000000">public.ir_metric</text>
<text text-anchor="start" x="1357.8675" y="-1763.3" font-family="Arial" font-size="14.00" fill="#000000"> </text>
<text text-anchor="start" x="1361.7581" y="-1763.3" font-family="Arial" font-size="14.00" fill="#666666">[BASE TABLE]</text>
<polygon fill="none" stroke="#000000" points="1230,-1720.5 1230,-1750.5 1462,-1750.5 1462,-1720.5 1230,-1720.5"/>
<text text-anchor="start" x="1237" y="-1731.9" font-family="Arial" font-size="14.00" fill="#000000">incidentid </text>
<text text-anchor="start" x="1300.014" y="-1731.9" font-family="Arial" font-size="14.00" fill="#666666">[text]</text>
<polygon fill="none" stroke="#000000" points="1230,-1690.5 1230,-1720.5 1462,-1720.5 1462,-1690.5 1230,-1690.5"/>
<text text-anchor="start" x="1237" y="-1701.9" font-family="Arial" font-size="14.00" fill="#000000">metricconfigid </text>
<text text-anchor="start" x="1327.2258" y="-1701.9" font-family="Arial" font-size="14.00" fill="#666666">[text]</text>
<polygon fill="none" stroke="#000000" points="1230,-1660.5 1230,-1690.5 1462,-1690.5 1462,-1660.5 1230,-1660.5"/>
<text text-anchor="start" x="1237" y="-1671.9" font-family="Arial" font-size="14.00" fill="#000000">value </text>
<text text-anchor="start" x="1274.345" y="-1671.9" font-family="Arial" font-size="14.00" fill="#666666">[bigint]</text>
<polygon fill="none" stroke="#000000" points="1230,-1630.5 1230,-1660.5 1462,-1660.5 1462,-1630.5 1230,-1630.5"/>
<text text-anchor="start" x="1237" y="-1641.9" font-family="Arial" font-size="14.00" fill="#000000">published </text>
<text text-anchor="start" x="1300.7994" y="-1641.9" font-family="Arial" font-size="14.00" fill="#666666">[boolean]</text>
</g>
<!-- public.ir_metric&#45;&gt;public.ir_incident -->
<g id="edge4" class="edge">
<title>public.ir_metric:incidentid&#45;&gt;public.ir_incident:id</title>
<path fill="none" stroke="#000000" d="M1219.964,-1735.0367C1123.4104,-1725.5336 1244.2036,-1572.0919 1178,-1483 1104.1642,-1383.6372 1056.7929,-1350.5 933,-1350.5"/>
<polygon fill="#000000" stroke="#000000" points="1220.0106,-1735.0387 1229.7924,-1739.9952 1225.0053,-1735.2694 1230,-1735.5 1230,-1735.5 1230,-1735.5 1225.0053,-1735.2694 1230.2076,-1731.0048 1220.0106,-1735.0387 1220.0106,-1735.0387"/>
<text text-anchor="start" x="970.0545" y="-1745.5" font-family="Arial" font-size="10.00" fill="#000000">FOREIGN KEY (incidentid) REFERENCES ir_incident(id)</text>
</g>
</g>
</svg>
