<?xml version="1.0" encoding="UTF-8" standalone="no"?>
<!DOCTYPE svg PUBLIC "-//W3C//DTD SVG 1.1//EN"
 "http://www.w3.org/Graphics/SVG/1.1/DTD/svg11.dtd">
<!-- Generated by graphviz version 2.40.1 (20161225.0304)
 -->
<!-- Title: public.ir_timelineevent Pages: 1 -->
<svg width="627pt" height="1942pt"
 viewBox="0.00 0.00 626.50 1942.00" xmlns="http://www.w3.org/2000/svg" xmlns:xlink="http://www.w3.org/1999/xlink">
<g id="graph0" class="graph" transform="scale(1 1) rotate(0) translate(4 1938)">
<title>public.ir_timelineevent</title>
<polygon fill="#ffffff" stroke="transparent" points="-4,4 -4,-1938 622.5,-1938 622.5,4 -4,4"/>
<!-- public.ir_timelineevent -->
<g id="node1" class="node">
<title>public.ir_timelineevent</title>
<polygon fill="#efefef" stroke="transparent" points="267,-1852.5 267,-1887.5 556,-1887.5 556,-1852.5 267,-1852.5"/>
<polygon fill="none" stroke="#000000" points="267,-1852.5 267,-1887.5 556,-1887.5 556,-1852.5 267,-1852.5"/>
<text text-anchor="start" x="273.864" y="-1865.3" font-family="Arial Bold" font-size="18.00" fill="#000000">public.ir_timelineevent</text>
<text text-anchor="start" x="451.8822" y="-1865.3" font-family="Arial" font-size="14.00" fill="#000000"> </text>
<text text-anchor="start" x="455.7728" y="-1865.3" font-family="Arial" font-size="14.00" fill="#666666">[BASE TABLE]</text>
<polygon fill="none" stroke="#000000" points="267,-1822.5 267,-1852.5 556,-1852.5 556,-1822.5 267,-1822.5"/>
<text text-anchor="start" x="274" y="-1833.9" font-family="Arial" font-size="14.00" fill="#000000">id </text>
<text text-anchor="start" x="288.7798" y="-1833.9" font-family="Arial" font-size="14.00" fill="#666666">[text]</text>
<polygon fill="none" stroke="#000000" points="267,-1792.5 267,-1822.5 556,-1822.5 556,-1792.5 267,-1792.5"/>
<text text-anchor="start" x="274" y="-1803.9" font-family="Arial" font-size="14.00" fill="#000000">incidentid </text>
<text text-anchor="start" x="337.014" y="-1803.9" font-family="Arial" font-size="14.00" fill="#666666">[text]</text>
<polygon fill="none" stroke="#000000" points="267,-1762.5 267,-1792.5 556,-1792.5 556,-1762.5 267,-1762.5"/>
<text text-anchor="start" x="274" y="-1773.9" font-family="Arial" font-size="14.00" fill="#000000">createat </text>
<text text-anchor="start" x="328.4628" y="-1773.9" font-family="Arial" font-size="14.00" fill="#666666">[bigint]</text>
<polygon fill="none" stroke="#000000" points="267,-1732.5 267,-1762.5 556,-1762.5 556,-1732.5 267,-1732.5"/>
<text text-anchor="start" x="274" y="-1743.9" font-family="Arial" font-size="14.00" fill="#000000">deleteat </text>
<text text-anchor="start" x="327.6914" y="-1743.9" font-family="Arial" font-size="14.00" fill="#666666">[bigint]</text>
<polygon fill="none" stroke="#000000" points="267,-1702.5 267,-1732.5 556,-1732.5 556,-1702.5 267,-1702.5"/>
<text text-anchor="start" x="274" y="-1713.9" font-family="Arial" font-size="14.00" fill="#000000">eventat </text>
<text text-anchor="start" x="323.8022" y="-1713.9" font-family="Arial" font-size="14.00" fill="#666666">[bigint]</text>
<polygon fill="none" stroke="#000000" points="267,-1672.5 267,-1702.5 556,-1702.5 556,-1672.5 267,-1672.5"/>
<text text-anchor="start" x="274" y="-1683.9" font-family="Arial" font-size="14.00" fill="#000000">eventtype </text>
<text text-anchor="start" x="338.5848" y="-1683.9" font-family="Arial" font-size="14.00" fill="#666666">[text]</text>
<polygon fill="none" stroke="#000000" points="267,-1642.5 267,-1672.5 556,-1672.5 556,-1642.5 267,-1642.5"/>
<text text-anchor="start" x="274" y="-1653.9" font-family="Arial" font-size="14.00" fill="#000000">summary </text>
<text text-anchor="start" x="335.4376" y="-1653.9" font-family="Arial" font-size="14.00" fill="#666666">[text]</text>
<polygon fill="none" stroke="#000000" points="267,-1612.5 267,-1642.5 556,-1642.5 556,-1612.5 267,-1612.5"/>
<text text-anchor="start" x="274" y="-1623.9" font-family="Arial" font-size="14.00" fill="#000000">details </text>
<text text-anchor="start" x="318.3422" y="-1623.9" font-family="Arial" font-size="14.00" fill="#666666">[text]</text>
<polygon fill="none" stroke="#000000" points="267,-1582.5 267,-1612.5 556,-1612.5 556,-1582.5 267,-1582.5"/>
<text text-anchor="start" x="274" y="-1593.9" font-family="Arial" font-size="14.00" fill="#000000">postid </text>
<text text-anchor="start" x="315.2356" y="-1593.9" font-family="Arial" font-size="14.00" fill="#666666">[text]</text>
<polygon fill="none" stroke="#000000" points="267,-1552.5 267,-1582.5 556,-1582.5 556,-1552.5 267,-1552.5"/>
<text text-anchor="start" x="274" y="-1563.9" font-family="Arial" font-size="14.00" fill="#000000">subjectuserid </text>
<text text-anchor="start" x="360.3506" y="-1563.9" font-family="Arial" font-size="14.00" fill="#666666">[text]</text>
<polygon fill="none" stroke="#000000" points="267,-1522.5 267,-1552.5 556,-1552.5 556,-1522.5 267,-1522.5"/>
<text text-anchor="start" x="274" y="-1533.9" font-family="Arial" font-size="14.00" fill="#000000">creatoruserid </text>
<text text-anchor="start" x="359.5652" y="-1533.9" font-family="Arial" font-size="14.00" fill="#666666">[text]</text>
<polygon fill="none" stroke="#000000" stroke-width="3" points="265,-1521.5 265,-1889.5 557,-1889.5 557,-1521.5 265,-1521.5"/>
</g>
<!-- public.ir_incident -->
<g id="node2" class="node">
<title>public.ir_incident</title>
<polygon fill="#efefef" stroke="transparent" points="247,-1362.5 247,-1397.5 576,-1397.5 576,-1362.5 247,-1362.5"/>
<polygon fill="none" stroke="#000000" points="247,-1362.5 247,-1397.5 576,-1397.5 576,-1362.5 247,-1362.5"/>
<text text-anchor="start" x="295.8645" y="-1375.3" font-family="Arial Bold" font-size="18.00" fill="#000000">public.ir_incident</text>
<text text-anchor="start" x="429.8817" y="-1375.3" font-family="Arial" font-size="14.00" fill="#000000"> </text>
<text text-anchor="start" x="433.7723" y="-1375.3" font-family="Arial" font-size="14.00" fill="#666666">[BASE TABLE]</text>
<polygon fill="none" stroke="#000000" points="247,-1332.5 247,-1362.5 576,-1362.5 576,-1332.5 247,-1332.5"/>
<text text-anchor="start" x="254" y="-1343.9" font-family="Arial" font-size="14.00" fill="#000000">id </text>
<text text-anchor="start" x="268.7798" y="-1343.9" font-family="Arial" font-size="14.00" fill="#666666">[text]</text>
<polygon fill="none" stroke="#000000" points="247,-1302.5 247,-1332.5 576,-1332.5 576,-1302.5 247,-1302.5"/>
<text text-anchor="start" x="254" y="-1313.9" font-family="Arial" font-size="14.00" fill="#000000">name </text>
<text text-anchor="start" x="292.899" y="-1313.9" font-family="Arial" font-size="14.00" fill="#666666">[text]</text>
<polygon fill="none" stroke="#000000" points="247,-1272.5 247,-1302.5 576,-1302.5 576,-1272.5 247,-1272.5"/>
<text text-anchor="start" x="254" y="-1283.9" font-family="Arial" font-size="14.00" fill="#000000">description </text>
<text text-anchor="start" x="325.568" y="-1283.9" font-family="Arial" font-size="14.00" fill="#666666">[text]</text>
<polygon fill="none" stroke="#000000" points="247,-1242.5 247,-1272.5 576,-1272.5 576,-1242.5 247,-1242.5"/>
<text text-anchor="start" x="254" y="-1253.9" font-family="Arial" font-size="14.00" fill="#000000">isactive </text>
<text text-anchor="start" x="304.5596" y="-1253.9" font-family="Arial" font-size="14.00" fill="#666666">[boolean]</text>
<polygon fill="none" stroke="#000000" points="247,-1212.5 247,-1242.5 576,-1242.5 576,-1212.5 247,-1212.5"/>
<text text-anchor="start" x="254" y="-1223.9" font-family="Arial" font-size="14.00" fill="#000000">commanderuserid </text>
<text text-anchor="start" x="369.9004" y="-1223.9" font-family="Arial" font-size="14.00" fill="#666666">[text]</text>
<polygon fill="none" stroke="#000000" points="247,-1182.5 247,-1212.5 576,-1212.5 576,-1182.5 247,-1182.5"/>
<text text-anchor="start" x="254" y="-1193.9" font-family="Arial" font-size="14.00" fill="#000000">teamid </text>
<text text-anchor="start" x="299.8962" y="-1193.9" font-family="Arial" font-size="14.00" fill="#666666">[text]</text>
<polygon fill="none" stroke="#000000" points="247,-1152.5 247,-1182.5 576,-1182.5 576,-1152.5 247,-1152.5"/>
<text text-anchor="start" x="254" y="-1163.9" font-family="Arial" font-size="14.00" fill="#000000">channelid </text>
<text text-anchor="start" x="317.7994" y="-1163.9" font-family="Arial" font-size="14.00" fill="#666666">[text]</text>
<polygon fill="none" stroke="#000000" points="247,-1122.5 247,-1152.5 576,-1152.5 576,-1122.5 247,-1122.5"/>
<text text-anchor="start" x="254" y="-1133.9" font-family="Arial" font-size="14.00" fill="#000000">createat </text>
<text text-anchor="start" x="308.4628" y="-1133.9" font-family="Arial" font-size="14.00" fill="#666666">[bigint]</text>
<polygon fill="none" stroke="#000000" points="247,-1092.5 247,-1122.5 576,-1122.5 576,-1092.5 247,-1092.5"/>
<text text-anchor="start" x="254" y="-1103.9" font-family="Arial" font-size="14.00" fill="#000000">endat </text>
<text text-anchor="start" x="292.9116" y="-1103.9" font-family="Arial" font-size="14.00" fill="#666666">[bigint]</text>
<polygon fill="none" stroke="#000000" points="247,-1062.5 247,-1092.5 576,-1092.5 576,-1062.5 247,-1062.5"/>
<text text-anchor="start" x="254" y="-1073.9" font-family="Arial" font-size="14.00" fill="#000000">deleteat </text>
<text text-anchor="start" x="307.6914" y="-1073.9" font-family="Arial" font-size="14.00" fill="#666666">[bigint]</text>
<polygon fill="none" stroke="#000000" points="247,-1032.5 247,-1062.5 576,-1062.5 576,-1032.5 247,-1032.5"/>
<text text-anchor="start" x="254" y="-1043.9" font-family="Arial" font-size="14.00" fill="#000000">activestage </text>
<text text-anchor="start" x="328.6914" y="-1043.9" font-family="Arial" font-size="14.00" fill="#666666">[bigint]</text>
<polygon fill="none" stroke="#000000" points="247,-1002.5 247,-1032.5 576,-1032.5 576,-1002.5 247,-1002.5"/>
<text text-anchor="start" x="254" y="-1013.9" font-family="Arial" font-size="14.00" fill="#000000">postid </text>
<text text-anchor="start" x="295.2356" y="-1013.9" font-family="Arial" font-size="14.00" fill="#666666">[text]</text>
<polygon fill="none" stroke="#000000" points="247,-972.5 247,-1002.5 576,-1002.5 576,-972.5 247,-972.5"/>
<text text-anchor="start" x="254" y="-983.9" font-family="Arial" font-size="14.00" fill="#000000">playbookid </text>
<text text-anchor="start" x="324.7994" y="-983.9" font-family="Arial" font-size="14.00" fill="#666666">[text]</text>
<polygon fill="none" stroke="#000000" points="247,-942.5 247,-972.5 576,-972.5 576,-942.5 247,-942.5"/>
<text text-anchor="start" x="254" y="-953.9" font-family="Arial" font-size="14.00" fill="#000000">checklistsjson </text>
<text text-anchor="start" x="344.2314" y="-953.9" font-family="Arial" font-size="14.00" fill="#666666">[json]</text>
<polygon fill="none" stroke="#000000" points="247,-912.5 247,-942.5 576,-942.5 576,-912.5 247,-912.5"/>
<text text-anchor="start" x="254" y="-923.9" font-family="Arial" font-size="14.00" fill="#000000">activestagetitle </text>
<text text-anchor="start" x="350.4684" y="-923.9" font-family="Arial" font-size="14.00" fill="#666666">[text]</text>
<polygon fill="none" stroke="#000000" points="247,-882.5 247,-912.5 576,-912.5 576,-882.5 247,-882.5"/>
<text text-anchor="start" x="254" y="-893.9" font-family="Arial" font-size="14.00" fill="#000000">reminderpostid </text>
<text text-anchor="start" x="350.4544" y="-893.9" font-family="Arial" font-size="14.00" fill="#666666">[text]</text>
<polygon fill="none" stroke="#000000" points="247,-852.5 247,-882.5 576,-882.5 576,-852.5 247,-852.5"/>
<text text-anchor="start" x="254" y="-863.9" font-family="Arial" font-size="14.00" fill="#000000">broadcastchannelid </text>
<text text-anchor="start" x="379.2636" y="-863.9" font-family="Arial" font-size="14.00" fill="#666666">[text]</text>
<polygon fill="none" stroke="#000000" points="247,-822.5 247,-852.5 576,-852.5 576,-822.5 247,-822.5"/>
<text text-anchor="start" x="254" y="-833.9" font-family="Arial" font-size="14.00" fill="#000000">previousreminder </text>
<text text-anchor="start" x="366.007" y="-833.9" font-family="Arial" font-size="14.00" fill="#666666">[bigint]</text>
<polygon fill="none" stroke="#000000" points="247,-792.5 247,-822.5 576,-822.5 576,-792.5 247,-792.5"/>
<text text-anchor="start" x="254" y="-803.9" font-family="Arial" font-size="14.00" fill="#000000">remindermessagetemplate </text>
<text text-anchor="start" x="423.5792" y="-803.9" font-family="Arial" font-size="14.00" fill="#666666">[text]</text>
<polygon fill="none" stroke="#000000" points="247,-762.5 247,-792.5 576,-792.5 576,-762.5 247,-762.5"/>
<text text-anchor="start" x="254" y="-773.9" font-family="Arial" font-size="14.00" fill="#000000">currentstatus </text>
<text text-anchor="start" x="338.7966" y="-773.9" font-family="Arial" font-size="14.00" fill="#666666">[text]</text>
<polygon fill="none" stroke="#000000" points="247,-732.5 247,-762.5 576,-762.5 576,-732.5 247,-732.5"/>
<text text-anchor="start" x="254" y="-743.9" font-family="Arial" font-size="14.00" fill="#000000">reporteruserid </text>
<text text-anchor="start" x="345.0084" y="-743.9" font-family="Arial" font-size="14.00" fill="#666666">[text]</text>
<polygon fill="none" stroke="#000000" points="247,-702.5 247,-732.5 576,-732.5 576,-702.5 247,-702.5"/>
<text text-anchor="start" x="254" y="-713.9" font-family="Arial" font-size="14.00" fill="#000000">concatenatedinviteduserids </text>
<text text-anchor="start" x="427.4992" y="-713.9" font-family="Arial" font-size="14.00" fill="#666666">[text]</text>
<polygon fill="none" stroke="#000000" points="247,-672.5 247,-702.5 576,-702.5 576,-672.5 247,-672.5"/>
<text text-anchor="start" x="254" y="-683.9" font-family="Arial" font-size="14.00" fill="#000000">defaultcommanderid </text>
<text text-anchor="start" x="384.6928" y="-683.9" font-family="Arial" font-size="14.00" fill="#666666">[text]</text>
<polygon fill="none" stroke="#000000" points="247,-642.5 247,-672.5 576,-672.5 576,-642.5 247,-642.5"/>
<text text-anchor="start" x="254" y="-653.9" font-family="Arial" font-size="14.00" fill="#000000">announcementchannelid </text>
<text text-anchor="start" x="410.394" y="-653.9" font-family="Arial" font-size="14.00" fill="#666666">[text]</text>
<polygon fill="none" stroke="#000000" points="247,-612.5 247,-642.5 576,-642.5 576,-612.5 247,-612.5"/>
<text text-anchor="start" x="254" y="-623.9" font-family="Arial" font-size="14.00" fill="#000000">concatenatedwebhookoncreationurls </text>
<text text-anchor="start" x="485.8554" y="-623.9" font-family="Arial" font-size="14.00" fill="#666666">[text]</text>
<polygon fill="none" stroke="#000000" points="247,-582.5 247,-612.5 576,-612.5 576,-582.5 247,-582.5"/>
<text text-anchor="start" x="254" y="-593.9" font-family="Arial" font-size="14.00" fill="#000000">concatenatedinvitedgroupids </text>
<text text-anchor="start" x="436.0644" y="-593.9" font-family="Arial" font-size="14.00" fill="#666666">[text]</text>
<polygon fill="none" stroke="#000000" points="247,-552.5 247,-582.5 576,-582.5 576,-552.5 247,-552.5"/>
<text text-anchor="start" x="254" y="-563.9" font-family="Arial" font-size="14.00" fill="#000000">retrospective </text>
<text text-anchor="start" x="338.0126" y="-563.9" font-family="Arial" font-size="14.00" fill="#666666">[text]</text>
<polygon fill="none" stroke="#000000" points="247,-522.5 247,-552.5 576,-552.5 576,-522.5 247,-522.5"/>
<text text-anchor="start" x="254" y="-533.9" font-family="Arial" font-size="14.00" fill="#000000">messageonjoin </text>
<text text-anchor="start" x="352.0252" y="-533.9" font-family="Arial" font-size="14.00" fill="#666666">[text]</text>
<polygon fill="none" stroke="#000000" points="247,-492.5 247,-522.5 576,-522.5 576,-492.5 247,-492.5"/>
<text text-anchor="start" x="254" y="-503.9" font-family="Arial" font-size="14.00" fill="#000000">retrospectivepublishedat </text>
<text text-anchor="start" x="409.5946" y="-503.9" font-family="Arial" font-size="14.00" fill="#666666">[bigint]</text>
<polygon fill="none" stroke="#000000" points="247,-462.5 247,-492.5 576,-492.5 576,-462.5 247,-462.5"/>
<text text-anchor="start" x="254" y="-473.9" font-family="Arial" font-size="14.00" fill="#000000">retrospectivereminderintervalseconds </text>
<text text-anchor="start" x="490.474" y="-473.9" font-family="Arial" font-size="14.00" fill="#666666">[bigint]</text>
<polygon fill="none" stroke="#000000" points="247,-432.5 247,-462.5 576,-462.5 576,-432.5 247,-432.5"/>
<text text-anchor="start" x="254" y="-443.9" font-family="Arial" font-size="14.00" fill="#000000">retrospectivewascanceled </text>
<text text-anchor="start" x="418.9214" y="-443.9" font-family="Arial" font-size="14.00" fill="#666666">[boolean]</text>
<polygon fill="none" stroke="#000000" points="247,-402.5 247,-432.5 576,-432.5 576,-402.5 247,-402.5"/>
<text text-anchor="start" x="254" y="-413.9" font-family="Arial" font-size="14.00" fill="#000000">concatenatedwebhookonstatusupdateurls </text>
<text text-anchor="start" x="516.2172" y="-413.9" font-family="Arial" font-size="14.00" fill="#666666">[text]</text>
<polygon fill="none" stroke="#000000" points="247,-372.5 247,-402.5 576,-402.5 576,-372.5 247,-372.5"/>
<text text-anchor="start" x="254" y="-383.9" font-family="Arial" font-size="14.00" fill="#000000">laststatusupdateat </text>
<text text-anchor="start" x="371.4936" y="-383.9" font-family="Arial" font-size="14.00" fill="#666666">[bigint]</text>
<polygon fill="none" stroke="#000000" points="247,-342.5 247,-372.5 576,-372.5 576,-342.5 247,-342.5"/>
<text text-anchor="start" x="254" y="-353.9" font-family="Arial" font-size="14.00" fill="#000000">exportchannelonfinishedenabled </text>
<text text-anchor="start" x="459.4108" y="-353.9" font-family="Arial" font-size="14.00" fill="#666666">[boolean]</text>
<polygon fill="none" stroke="#000000" points="247,-312.5 247,-342.5 576,-342.5 576,-312.5 247,-312.5"/>
<text text-anchor="start" x="254" y="-323.9" font-family="Arial" font-size="14.00" fill="#000000">categorizechannelenabled </text>
<text text-anchor="start" x="421.2832" y="-323.9" font-family="Arial" font-size="14.00" fill="#666666">[boolean]</text>
<polygon fill="none" stroke="#000000" points="247,-282.5 247,-312.5 576,-312.5 576,-282.5 247,-282.5"/>
<text text-anchor="start" x="254" y="-293.9" font-family="Arial" font-size="14.00" fill="#000000">categoryname </text>
<text text-anchor="start" x="346.5806" y="-293.9" font-family="Arial" font-size="14.00" fill="#666666">[text]</text>
<polygon fill="none" stroke="#000000" points="247,-252.5 247,-282.5 576,-282.5 576,-252.5 247,-252.5"/>
<text text-anchor="start" x="254" y="-263.9" font-family="Arial" font-size="14.00" fill="#000000">concatenatedbroadcastchannelids </text>
<text text-anchor="start" x="470.3056" y="-263.9" font-family="Arial" font-size="14.00" fill="#666666">[text]</text>
<polygon fill="none" stroke="#000000" points="247,-222.5 247,-252.5 576,-252.5 576,-222.5 247,-222.5"/>
<text text-anchor="start" x="254" y="-233.9" font-family="Arial" font-size="14.00" fill="#000000">channelidtorootid </text>
<text text-anchor="start" x="364.4782" y="-233.9" font-family="Arial" font-size="14.00" fill="#666666">[text]</text>
<polygon fill="none" stroke="#000000" points="247,-192.5 247,-222.5 576,-222.5 576,-192.5 247,-192.5"/>
<text text-anchor="start" x="254" y="-203.9" font-family="Arial" font-size="14.00" fill="#000000">remindertimerdefaultseconds </text>
<text text-anchor="start" x="438.359" y="-203.9" font-family="Arial" font-size="14.00" fill="#666666">[bigint]</text>
<polygon fill="none" stroke="#000000" points="247,-162.5 247,-192.5 576,-192.5 576,-162.5 247,-162.5"/>
<text text-anchor="start" x="254" y="-173.9" font-family="Arial" font-size="14.00" fill="#000000">statusupdateenabled </text>
<text text-anchor="start" x="387.8428" y="-173.9" font-family="Arial" font-size="14.00" fill="#666666">[boolean]</text>
<polygon fill="none" stroke="#000000" points="247,-132.5 247,-162.5 576,-162.5 576,-132.5 247,-132.5"/>
<text text-anchor="start" x="254" y="-143.9" font-family="Arial" font-size="14.00" fill="#000000">retrospectiveenabled </text>
<text text-anchor="start" x="387.8148" y="-143.9" font-family="Arial" font-size="14.00" fill="#666666">[boolean]</text>
<polygon fill="none" stroke="#000000" points="247,-102.5 247,-132.5 576,-132.5 576,-102.5 247,-102.5"/>
<text text-anchor="start" x="254" y="-113.9" font-family="Arial" font-size="14.00" fill="#000000">statusupdatebroadcastchannelsenabled </text>
<text text-anchor="start" x="505.3266" y="-113.9" font-family="Arial" font-size="14.00" fill="#666666">[boolean]</text>
<polygon fill="none" stroke="#000000" points="247,-72.5 247,-102.5 576,-102.5 576,-72.5 247,-72.5"/>
<text text-anchor="start" x="253.545" y="-83.9" font-family="Arial" font-size="14.00" fill="#000000">statusupdatebroadcastwebhooksenabled </text>
<text text-anchor="start" x="511.8716" y="-83.9" font-family="Arial" font-size="14.00" fill="#666666">[boolean]</text>
<polygon fill="none" stroke="#000000" points="247,-42.5 247,-72.5 576,-72.5 576,-42.5 247,-42.5"/>
<text text-anchor="start" x="254" y="-53.9" font-family="Arial" font-size="14.00" fill="#000000">summarymodifiedat </text>
<text text-anchor="start" x="380.0056" y="-53.9" font-family="Arial" font-size="14.00" fill="#666666">[bigint]</text>
</g>
<!-- public.ir_timelineevent&#45;&gt;public.ir_incident -->
<g id="edge1" class="edge">
<title>public.ir_timelineevent:incidentid&#45;&gt;public.ir_incident:id</title>
<path fill="none" stroke="#000000" d="M258.0589,-1802.6452C213.6796,-1753.4832 198.9381,-1347.5 247,-1347.5"/>
<polygon fill="#000000" stroke="#000000" points="258.2119,-1802.7282 264.8527,-1811.4547 262.6059,-1805.1141 267,-1807.5 267,-1807.5 267,-1807.5 262.6059,-1805.1141 269.1473,-1803.5453 258.2119,-1802.7282 258.2119,-1802.7282"/>
<text text-anchor="start" x="7.0545" y="-1817.5" font-family="Arial" font-size="10.00" fill="#000000">FOREIGN KEY (incidentid) REFERENCES ir_incident(id)</text>
</g>
</g>
</svg>
