<?xml version="1.0" encoding="UTF-8" standalone="no"?>
<!DOCTYPE svg PUBLIC "-//W3C//DTD SVG 1.1//EN"
 "http://www.w3.org/Graphics/SVG/1.1/DTD/svg11.dtd">
<!-- Generated by graphviz version 2.40.1 (20161225.0304)
 -->
<!-- Title: public.channels Pages: 1 -->
<svg width="2218pt" height="1432pt"
 viewBox="0.00 0.00 2217.50 1432.00" xmlns="http://www.w3.org/2000/svg" xmlns:xlink="http://www.w3.org/1999/xlink">
<g id="graph0" class="graph" transform="scale(1 1) rotate(0) translate(4 1428)">
<title>public.channels</title>
<polygon fill="#ffffff" stroke="transparent" points="-4,4 -4,-1428 2213.5,-1428 2213.5,4 -4,4"/>
<!-- public.channels -->
<g id="node1" class="node">
<title>public.channels</title>
<polygon fill="#efefef" stroke="transparent" points="968.5,-615.5 968.5,-650.5 1203.5,-650.5 1203.5,-615.5 968.5,-615.5"/>
<polygon fill="none" stroke="#000000" points="968.5,-615.5 968.5,-650.5 1203.5,-650.5 1203.5,-615.5 968.5,-615.5"/>
<text text-anchor="start" x="975.3559" y="-628.3" font-family="Arial Bold" font-size="18.00" fill="#000000">public.channels</text>
<text text-anchor="start" x="1099.3903" y="-628.3" font-family="Arial" font-size="14.00" fill="#000000"> </text>
<text text-anchor="start" x="1103.2809" y="-628.3" font-family="Arial" font-size="14.00" fill="#666666">[BASE TABLE]</text>
<polygon fill="none" stroke="#000000" points="968.5,-585.5 968.5,-615.5 1203.5,-615.5 1203.5,-585.5 968.5,-585.5"/>
<text text-anchor="start" x="975.5" y="-596.9" font-family="Arial" font-size="14.00" fill="#000000">id </text>
<text text-anchor="start" x="990.2798" y="-596.9" font-family="Arial" font-size="14.00" fill="#666666">[varchar(26)]</text>
<polygon fill="none" stroke="#000000" points="968.5,-555.5 968.5,-585.5 1203.5,-585.5 1203.5,-555.5 968.5,-555.5"/>
<text text-anchor="start" x="975.5" y="-566.9" font-family="Arial" font-size="14.00" fill="#000000">createat </text>
<text text-anchor="start" x="1029.9628" y="-566.9" font-family="Arial" font-size="14.00" fill="#666666">[bigint]</text>
<polygon fill="none" stroke="#000000" points="968.5,-525.5 968.5,-555.5 1203.5,-555.5 1203.5,-525.5 968.5,-525.5"/>
<text text-anchor="start" x="975.5" y="-536.9" font-family="Arial" font-size="14.00" fill="#000000">updateat </text>
<text text-anchor="start" x="1033.8674" y="-536.9" font-family="Arial" font-size="14.00" fill="#666666">[bigint]</text>
<polygon fill="none" stroke="#000000" points="968.5,-495.5 968.5,-525.5 1203.5,-525.5 1203.5,-495.5 968.5,-495.5"/>
<text text-anchor="start" x="975.5" y="-506.9" font-family="Arial" font-size="14.00" fill="#000000">deleteat </text>
<text text-anchor="start" x="1029.1914" y="-506.9" font-family="Arial" font-size="14.00" fill="#666666">[bigint]</text>
<polygon fill="none" stroke="#000000" points="968.5,-465.5 968.5,-495.5 1203.5,-495.5 1203.5,-465.5 968.5,-465.5"/>
<text text-anchor="start" x="975.5" y="-476.9" font-family="Arial" font-size="14.00" fill="#000000">teamid </text>
<text text-anchor="start" x="1021.3962" y="-476.9" font-family="Arial" font-size="14.00" fill="#666666">[varchar(26)]</text>
<polygon fill="none" stroke="#000000" points="968.5,-435.5 968.5,-465.5 1203.5,-465.5 1203.5,-435.5 968.5,-435.5"/>
<text text-anchor="start" x="975.5" y="-446.9" font-family="Arial" font-size="14.00" fill="#000000">type </text>
<text text-anchor="start" x="1005.8464" y="-446.9" font-family="Arial" font-size="14.00" fill="#666666">[channel_type]</text>
<polygon fill="none" stroke="#000000" points="968.5,-405.5 968.5,-435.5 1203.5,-435.5 1203.5,-405.5 968.5,-405.5"/>
<text text-anchor="start" x="975.5" y="-416.9" font-family="Arial" font-size="14.00" fill="#000000">displayname </text>
<text text-anchor="start" x="1057.96" y="-416.9" font-family="Arial" font-size="14.00" fill="#666666">[varchar(64)]</text>
<polygon fill="none" stroke="#000000" points="968.5,-375.5 968.5,-405.5 1203.5,-405.5 1203.5,-375.5 968.5,-375.5"/>
<text text-anchor="start" x="975.5" y="-386.9" font-family="Arial" font-size="14.00" fill="#000000">name </text>
<text text-anchor="start" x="1014.399" y="-386.9" font-family="Arial" font-size="14.00" fill="#666666">[varchar(64)]</text>
<polygon fill="none" stroke="#000000" points="968.5,-345.5 968.5,-375.5 1203.5,-375.5 1203.5,-345.5 968.5,-345.5"/>
<text text-anchor="start" x="975.5" y="-356.9" font-family="Arial" font-size="14.00" fill="#000000">header </text>
<text text-anchor="start" x="1022.9642" y="-356.9" font-family="Arial" font-size="14.00" fill="#666666">[varchar(1024)]</text>
<polygon fill="none" stroke="#000000" points="968.5,-315.5 968.5,-345.5 1203.5,-345.5 1203.5,-315.5 968.5,-315.5"/>
<text text-anchor="start" x="975.5" y="-326.9" font-family="Arial" font-size="14.00" fill="#000000">purpose </text>
<text text-anchor="start" x="1029.9642" y="-326.9" font-family="Arial" font-size="14.00" fill="#666666">[varchar(250)]</text>
<polygon fill="none" stroke="#000000" points="968.5,-285.5 968.5,-315.5 1203.5,-315.5 1203.5,-285.5 968.5,-285.5"/>
<text text-anchor="start" x="975.5" y="-296.9" font-family="Arial" font-size="14.00" fill="#000000">lastpostat </text>
<text text-anchor="start" x="1039.2994" y="-296.9" font-family="Arial" font-size="14.00" fill="#666666">[bigint]</text>
<polygon fill="none" stroke="#000000" points="968.5,-255.5 968.5,-285.5 1203.5,-285.5 1203.5,-255.5 968.5,-255.5"/>
<text text-anchor="start" x="975.5" y="-266.9" font-family="Arial" font-size="14.00" fill="#000000">totalmsgcount </text>
<text text-anchor="start" x="1066.5252" y="-266.9" font-family="Arial" font-size="14.00" fill="#666666">[bigint]</text>
<polygon fill="none" stroke="#000000" points="968.5,-225.5 968.5,-255.5 1203.5,-255.5 1203.5,-225.5 968.5,-225.5"/>
<text text-anchor="start" x="975.5" y="-236.9" font-family="Arial" font-size="14.00" fill="#000000">extraupdateat </text>
<text text-anchor="start" x="1064.9838" y="-236.9" font-family="Arial" font-size="14.00" fill="#666666">[bigint]</text>
<polygon fill="none" stroke="#000000" points="968.5,-195.5 968.5,-225.5 1203.5,-225.5 1203.5,-195.5 968.5,-195.5"/>
<text text-anchor="start" x="975.5" y="-206.9" font-family="Arial" font-size="14.00" fill="#000000">creatorid </text>
<text text-anchor="start" x="1033.8394" y="-206.9" font-family="Arial" font-size="14.00" fill="#666666">[varchar(26)]</text>
<polygon fill="none" stroke="#000000" points="968.5,-165.5 968.5,-195.5 1203.5,-195.5 1203.5,-165.5 968.5,-165.5"/>
<text text-anchor="start" x="975.5" y="-176.9" font-family="Arial" font-size="14.00" fill="#000000">schemeid </text>
<text text-anchor="start" x="1039.2882" y="-176.9" font-family="Arial" font-size="14.00" fill="#666666">[varchar(26)]</text>
<polygon fill="none" stroke="#000000" points="968.5,-135.5 968.5,-165.5 1203.5,-165.5 1203.5,-135.5 968.5,-135.5"/>
<text text-anchor="start" x="975.5" y="-146.9" font-family="Arial" font-size="14.00" fill="#000000">groupconstrained </text>
<text text-anchor="start" x="1087.535" y="-146.9" font-family="Arial" font-size="14.00" fill="#666666">[boolean]</text>
<polygon fill="none" stroke="#000000" points="968.5,-105.5 968.5,-135.5 1203.5,-135.5 1203.5,-105.5 968.5,-105.5"/>
<text text-anchor="start" x="975.5" y="-116.9" font-family="Arial" font-size="14.00" fill="#000000">shared </text>
<text text-anchor="start" x="1022.1816" y="-116.9" font-family="Arial" font-size="14.00" fill="#666666">[boolean]</text>
<polygon fill="none" stroke="#000000" points="968.5,-75.5 968.5,-105.5 1203.5,-105.5 1203.5,-75.5 968.5,-75.5"/>
<text text-anchor="start" x="975.5" y="-86.9" font-family="Arial" font-size="14.00" fill="#000000">totalmsgcountroot </text>
<text text-anchor="start" x="1090.6416" y="-86.9" font-family="Arial" font-size="14.00" fill="#666666">[bigint]</text>
<polygon fill="none" stroke="#000000" points="968.5,-45.5 968.5,-75.5 1203.5,-75.5 1203.5,-45.5 968.5,-45.5"/>
<text text-anchor="start" x="975.5" y="-56.9" font-family="Arial" font-size="14.00" fill="#000000">lastrootpostat </text>
<text text-anchor="start" x="1063.4158" y="-56.9" font-family="Arial" font-size="14.00" fill="#666666">[bigint]</text>
<polygon fill="none" stroke="#000000" stroke-width="3" points="966.5,-44.5 966.5,-652.5 1204.5,-652.5 1204.5,-44.5 966.5,-44.5"/>
</g>
<!-- public.focalboard_blocks_history -->
<g id="node2" class="node">
<title>public.focalboard_blocks_history</title>
<polygon fill="#efefef" stroke="transparent" points="43.5,-1285.5 43.5,-1320.5 414.5,-1320.5 414.5,-1285.5 43.5,-1285.5"/>
<polygon fill="none" stroke="#000000" points="43.5,-1285.5 43.5,-1320.5 414.5,-1320.5 414.5,-1285.5 43.5,-1285.5"/>
<text text-anchor="start" x="50.3456" y="-1298.3" font-family="Arial Bold" font-size="18.00" fill="#000000">public.focalboard_blocks_history</text>
<text text-anchor="start" x="310.4006" y="-1298.3" font-family="Arial" font-size="14.00" fill="#000000"> </text>
<text text-anchor="start" x="314.2912" y="-1298.3" font-family="Arial" font-size="14.00" fill="#666666">[BASE TABLE]</text>
<polygon fill="none" stroke="#000000" points="43.5,-1255.5 43.5,-1285.5 414.5,-1285.5 414.5,-1255.5 43.5,-1255.5"/>
<text text-anchor="start" x="50.5" y="-1266.9" font-family="Arial" font-size="14.00" fill="#000000">id </text>
<text text-anchor="start" x="65.2798" y="-1266.9" font-family="Arial" font-size="14.00" fill="#666666">[varchar(36)]</text>
<polygon fill="none" stroke="#000000" points="43.5,-1225.5 43.5,-1255.5 414.5,-1255.5 414.5,-1225.5 43.5,-1225.5"/>
<text text-anchor="start" x="50.5" y="-1236.9" font-family="Arial" font-size="14.00" fill="#000000">insert_at </text>
<text text-anchor="start" x="108.0694" y="-1236.9" font-family="Arial" font-size="14.00" fill="#666666">[timestamp with time zone]</text>
<polygon fill="none" stroke="#000000" points="43.5,-1195.5 43.5,-1225.5 414.5,-1225.5 414.5,-1195.5 43.5,-1195.5"/>
<text text-anchor="start" x="50.5" y="-1206.9" font-family="Arial" font-size="14.00" fill="#000000">parent_id </text>
<text text-anchor="start" x="112.744" y="-1206.9" font-family="Arial" font-size="14.00" fill="#666666">[varchar(36)]</text>
<polygon fill="none" stroke="#000000" points="43.5,-1165.5 43.5,-1195.5 414.5,-1195.5 414.5,-1165.5 43.5,-1165.5"/>
<text text-anchor="start" x="50.5" y="-1176.9" font-family="Arial" font-size="14.00" fill="#000000">schema </text>
<text text-anchor="start" x="103.399" y="-1176.9" font-family="Arial" font-size="14.00" fill="#666666">[bigint]</text>
<polygon fill="none" stroke="#000000" points="43.5,-1135.5 43.5,-1165.5 414.5,-1165.5 414.5,-1135.5 43.5,-1135.5"/>
<text text-anchor="start" x="50.5" y="-1146.9" font-family="Arial" font-size="14.00" fill="#000000">type </text>
<text text-anchor="start" x="80.8464" y="-1146.9" font-family="Arial" font-size="14.00" fill="#666666">[text]</text>
<polygon fill="none" stroke="#000000" points="43.5,-1105.5 43.5,-1135.5 414.5,-1135.5 414.5,-1105.5 43.5,-1105.5"/>
<text text-anchor="start" x="50.5" y="-1116.9" font-family="Arial" font-size="14.00" fill="#000000">title </text>
<text text-anchor="start" x="76.1676" y="-1116.9" font-family="Arial" font-size="14.00" fill="#666666">[text]</text>
<polygon fill="none" stroke="#000000" points="43.5,-1075.5 43.5,-1105.5 414.5,-1105.5 414.5,-1075.5 43.5,-1075.5"/>
<text text-anchor="start" x="50.5" y="-1086.9" font-family="Arial" font-size="14.00" fill="#000000">fields </text>
<text text-anchor="start" x="87.0596" y="-1086.9" font-family="Arial" font-size="14.00" fill="#666666">[json]</text>
<polygon fill="none" stroke="#000000" points="43.5,-1045.5 43.5,-1075.5 414.5,-1075.5 414.5,-1045.5 43.5,-1045.5"/>
<text text-anchor="start" x="50.5" y="-1056.9" font-family="Arial" font-size="14.00" fill="#000000">create_at </text>
<text text-anchor="start" x="112.7454" y="-1056.9" font-family="Arial" font-size="14.00" fill="#666666">[bigint]</text>
<polygon fill="none" stroke="#000000" points="43.5,-1015.5 43.5,-1045.5 414.5,-1045.5 414.5,-1015.5 43.5,-1015.5"/>
<text text-anchor="start" x="50.5" y="-1026.9" font-family="Arial" font-size="14.00" fill="#000000">update_at </text>
<text text-anchor="start" x="116.65" y="-1026.9" font-family="Arial" font-size="14.00" fill="#666666">[bigint]</text>
<polygon fill="none" stroke="#000000" points="43.5,-985.5 43.5,-1015.5 414.5,-1015.5 414.5,-985.5 43.5,-985.5"/>
<text text-anchor="start" x="50.5" y="-996.9" font-family="Arial" font-size="14.00" fill="#000000">delete_at </text>
<text text-anchor="start" x="111.974" y="-996.9" font-family="Arial" font-size="14.00" fill="#666666">[bigint]</text>
<polygon fill="none" stroke="#000000" points="43.5,-955.5 43.5,-985.5 414.5,-985.5 414.5,-955.5 43.5,-955.5"/>
<text text-anchor="start" x="50.5" y="-966.9" font-family="Arial" font-size="14.00" fill="#000000">root_id </text>
<text text-anchor="start" x="97.1788" y="-966.9" font-family="Arial" font-size="14.00" fill="#666666">[varchar(36)]</text>
<polygon fill="none" stroke="#000000" points="43.5,-925.5 43.5,-955.5 414.5,-955.5 414.5,-925.5 43.5,-925.5"/>
<text text-anchor="start" x="50.5" y="-936.9" font-family="Arial" font-size="14.00" fill="#000000">modified_by </text>
<text text-anchor="start" x="129.8506" y="-936.9" font-family="Arial" font-size="14.00" fill="#666666">[varchar(36)]</text>
<polygon fill="none" stroke="#000000" points="43.5,-895.5 43.5,-925.5 414.5,-925.5 414.5,-895.5 43.5,-895.5"/>
<text text-anchor="start" x="50.5" y="-906.9" font-family="Arial" font-size="14.00" fill="#000000">channel_id </text>
<text text-anchor="start" x="122.082" y="-906.9" font-family="Arial" font-size="14.00" fill="#666666">[varchar(36)]</text>
<polygon fill="none" stroke="#000000" points="43.5,-865.5 43.5,-895.5 414.5,-895.5 414.5,-865.5 43.5,-865.5"/>
<text text-anchor="start" x="50.5" y="-876.9" font-family="Arial" font-size="14.00" fill="#000000">created_by </text>
<text text-anchor="start" x="123.6374" y="-876.9" font-family="Arial" font-size="14.00" fill="#666666">[varchar(36)]</text>
<polygon fill="none" stroke="#000000" points="43.5,-835.5 43.5,-865.5 414.5,-865.5 414.5,-835.5 43.5,-835.5"/>
<text text-anchor="start" x="50.5" y="-846.9" font-family="Arial" font-size="14.00" fill="#000000">board_id </text>
<text text-anchor="start" x="108.8534" y="-846.9" font-family="Arial" font-size="14.00" fill="#666666">[varchar(36)]</text>
</g>
<!-- public.focalboard_blocks_history&#45;&gt;public.channels -->
<g id="edge1" class="edge">
<title>public.focalboard_blocks_history:channel_id&#45;&gt;public.channels:id</title>
<path fill="none" stroke="#000000" stroke-dasharray="5,2" d="M424.5702,-909.7891C488.9973,-899.8311 410.2415,-787.7638 466.5,-733 549.174,-652.5225 853.124,-600.5 968.5,-600.5"/>
<polygon fill="#000000" stroke="#000000" points="424.4752,-909.7958 414.1831,-906.0112 419.4876,-910.1479 414.5,-910.5 414.5,-910.5 414.5,-910.5 419.4876,-910.1479 414.8169,-914.9888 424.4752,-909.7958 424.4752,-909.7958"/>
<text text-anchor="start" x="421.768" y="-920.5" font-family="Arial" font-size="10.00" fill="#000000">Detected Relation</text>
</g>
<!-- public.focalboard_blocks -->
<g id="node3" class="node">
<title>public.focalboard_blocks</title>
<polygon fill="#efefef" stroke="transparent" points="518.5,-1285.5 518.5,-1320.5 826.5,-1320.5 826.5,-1285.5 518.5,-1285.5"/>
<polygon fill="none" stroke="#000000" points="518.5,-1285.5 518.5,-1320.5 826.5,-1320.5 826.5,-1285.5 518.5,-1285.5"/>
<text text-anchor="start" x="525.3492" y="-1298.3" font-family="Arial Bold" font-size="18.00" fill="#000000">public.focalboard_blocks</text>
<text text-anchor="start" x="722.397" y="-1298.3" font-family="Arial" font-size="14.00" fill="#000000"> </text>
<text text-anchor="start" x="726.2876" y="-1298.3" font-family="Arial" font-size="14.00" fill="#666666">[BASE TABLE]</text>
<polygon fill="none" stroke="#000000" points="518.5,-1255.5 518.5,-1285.5 826.5,-1285.5 826.5,-1255.5 518.5,-1255.5"/>
<text text-anchor="start" x="525.5" y="-1266.9" font-family="Arial" font-size="14.00" fill="#000000">id </text>
<text text-anchor="start" x="540.2798" y="-1266.9" font-family="Arial" font-size="14.00" fill="#666666">[varchar(36)]</text>
<polygon fill="none" stroke="#000000" points="518.5,-1225.5 518.5,-1255.5 826.5,-1255.5 826.5,-1225.5 518.5,-1225.5"/>
<text text-anchor="start" x="525.5" y="-1236.9" font-family="Arial" font-size="14.00" fill="#000000">insert_at </text>
<text text-anchor="start" x="583.0694" y="-1236.9" font-family="Arial" font-size="14.00" fill="#666666">[timestamp with time zone]</text>
<polygon fill="none" stroke="#000000" points="518.5,-1195.5 518.5,-1225.5 826.5,-1225.5 826.5,-1195.5 518.5,-1195.5"/>
<text text-anchor="start" x="525.5" y="-1206.9" font-family="Arial" font-size="14.00" fill="#000000">parent_id </text>
<text text-anchor="start" x="587.744" y="-1206.9" font-family="Arial" font-size="14.00" fill="#666666">[varchar(36)]</text>
<polygon fill="none" stroke="#000000" points="518.5,-1165.5 518.5,-1195.5 826.5,-1195.5 826.5,-1165.5 518.5,-1165.5"/>
<text text-anchor="start" x="525.5" y="-1176.9" font-family="Arial" font-size="14.00" fill="#000000">schema </text>
<text text-anchor="start" x="578.399" y="-1176.9" font-family="Arial" font-size="14.00" fill="#666666">[bigint]</text>
<polygon fill="none" stroke="#000000" points="518.5,-1135.5 518.5,-1165.5 826.5,-1165.5 826.5,-1135.5 518.5,-1135.5"/>
<text text-anchor="start" x="525.5" y="-1146.9" font-family="Arial" font-size="14.00" fill="#000000">type </text>
<text text-anchor="start" x="555.8464" y="-1146.9" font-family="Arial" font-size="14.00" fill="#666666">[text]</text>
<polygon fill="none" stroke="#000000" points="518.5,-1105.5 518.5,-1135.5 826.5,-1135.5 826.5,-1105.5 518.5,-1105.5"/>
<text text-anchor="start" x="525.5" y="-1116.9" font-family="Arial" font-size="14.00" fill="#000000">title </text>
<text text-anchor="start" x="551.1676" y="-1116.9" font-family="Arial" font-size="14.00" fill="#666666">[text]</text>
<polygon fill="none" stroke="#000000" points="518.5,-1075.5 518.5,-1105.5 826.5,-1105.5 826.5,-1075.5 518.5,-1075.5"/>
<text text-anchor="start" x="525.5" y="-1086.9" font-family="Arial" font-size="14.00" fill="#000000">fields </text>
<text text-anchor="start" x="562.0596" y="-1086.9" font-family="Arial" font-size="14.00" fill="#666666">[json]</text>
<polygon fill="none" stroke="#000000" points="518.5,-1045.5 518.5,-1075.5 826.5,-1075.5 826.5,-1045.5 518.5,-1045.5"/>
<text text-anchor="start" x="525.5" y="-1056.9" font-family="Arial" font-size="14.00" fill="#000000">create_at </text>
<text text-anchor="start" x="587.7454" y="-1056.9" font-family="Arial" font-size="14.00" fill="#666666">[bigint]</text>
<polygon fill="none" stroke="#000000" points="518.5,-1015.5 518.5,-1045.5 826.5,-1045.5 826.5,-1015.5 518.5,-1015.5"/>
<text text-anchor="start" x="525.5" y="-1026.9" font-family="Arial" font-size="14.00" fill="#000000">update_at </text>
<text text-anchor="start" x="591.65" y="-1026.9" font-family="Arial" font-size="14.00" fill="#666666">[bigint]</text>
<polygon fill="none" stroke="#000000" points="518.5,-985.5 518.5,-1015.5 826.5,-1015.5 826.5,-985.5 518.5,-985.5"/>
<text text-anchor="start" x="525.5" y="-996.9" font-family="Arial" font-size="14.00" fill="#000000">delete_at </text>
<text text-anchor="start" x="586.974" y="-996.9" font-family="Arial" font-size="14.00" fill="#666666">[bigint]</text>
<polygon fill="none" stroke="#000000" points="518.5,-955.5 518.5,-985.5 826.5,-985.5 826.5,-955.5 518.5,-955.5"/>
<text text-anchor="start" x="525.5" y="-966.9" font-family="Arial" font-size="14.00" fill="#000000">root_id </text>
<text text-anchor="start" x="572.1788" y="-966.9" font-family="Arial" font-size="14.00" fill="#666666">[varchar(36)]</text>
<polygon fill="none" stroke="#000000" points="518.5,-925.5 518.5,-955.5 826.5,-955.5 826.5,-925.5 518.5,-925.5"/>
<text text-anchor="start" x="525.5" y="-936.9" font-family="Arial" font-size="14.00" fill="#000000">modified_by </text>
<text text-anchor="start" x="604.8506" y="-936.9" font-family="Arial" font-size="14.00" fill="#666666">[varchar(36)]</text>
<polygon fill="none" stroke="#000000" points="518.5,-895.5 518.5,-925.5 826.5,-925.5 826.5,-895.5 518.5,-895.5"/>
<text text-anchor="start" x="525.5" y="-906.9" font-family="Arial" font-size="14.00" fill="#000000">channel_id </text>
<text text-anchor="start" x="597.082" y="-906.9" font-family="Arial" font-size="14.00" fill="#666666">[varchar(36)]</text>
<polygon fill="none" stroke="#000000" points="518.5,-865.5 518.5,-895.5 826.5,-895.5 826.5,-865.5 518.5,-865.5"/>
<text text-anchor="start" x="525.5" y="-876.9" font-family="Arial" font-size="14.00" fill="#000000">created_by </text>
<text text-anchor="start" x="598.6374" y="-876.9" font-family="Arial" font-size="14.00" fill="#666666">[varchar(36)]</text>
<polygon fill="none" stroke="#000000" points="518.5,-835.5 518.5,-865.5 826.5,-865.5 826.5,-835.5 518.5,-835.5"/>
<text text-anchor="start" x="525.5" y="-846.9" font-family="Arial" font-size="14.00" fill="#000000">board_id </text>
<text text-anchor="start" x="583.8534" y="-846.9" font-family="Arial" font-size="14.00" fill="#666666">[varchar(36)]</text>
</g>
<!-- public.focalboard_blocks&#45;&gt;public.channels -->
<g id="edge2" class="edge">
<title>public.focalboard_blocks:channel_id&#45;&gt;public.channels:id</title>
<path fill="none" stroke="#000000" stroke-dasharray="5,2" d="M836.7079,-909.8875C903.042,-901.2904 845.0004,-804.0061 878.5,-733 908.8752,-668.6164 897.3108,-600.5 968.5,-600.5"/>
<polygon fill="#000000" stroke="#000000" points="836.482,-909.9009 826.2304,-906.0081 831.491,-910.2005 826.5,-910.5 826.5,-910.5 826.5,-910.5 831.491,-910.2005 826.7696,-914.9919 836.482,-909.9009 836.482,-909.9009"/>
<text text-anchor="start" x="833.768" y="-920.5" font-family="Arial" font-size="10.00" fill="#000000">Detected Relation</text>
</g>
<!-- public.focalboard_boards -->
<g id="node4" class="node">
<title>public.focalboard_boards</title>
<polygon fill="#efefef" stroke="transparent" points="930.5,-1345.5 930.5,-1380.5 1242.5,-1380.5 1242.5,-1345.5 930.5,-1345.5"/>
<polygon fill="none" stroke="#000000" points="930.5,-1345.5 930.5,-1380.5 1242.5,-1380.5 1242.5,-1345.5 930.5,-1345.5"/>
<text text-anchor="start" x="937.344" y="-1358.3" font-family="Arial Bold" font-size="18.00" fill="#000000">public.focalboard_boards</text>
<text text-anchor="start" x="1138.4022" y="-1358.3" font-family="Arial" font-size="14.00" fill="#000000"> </text>
<text text-anchor="start" x="1142.2928" y="-1358.3" font-family="Arial" font-size="14.00" fill="#666666">[BASE TABLE]</text>
<polygon fill="none" stroke="#000000" points="930.5,-1315.5 930.5,-1345.5 1242.5,-1345.5 1242.5,-1315.5 930.5,-1315.5"/>
<text text-anchor="start" x="937.5" y="-1326.9" font-family="Arial" font-size="14.00" fill="#000000">id </text>
<text text-anchor="start" x="952.2798" y="-1326.9" font-family="Arial" font-size="14.00" fill="#666666">[varchar(36)]</text>
<polygon fill="none" stroke="#000000" points="930.5,-1285.5 930.5,-1315.5 1242.5,-1315.5 1242.5,-1285.5 930.5,-1285.5"/>
<text text-anchor="start" x="937.5" y="-1296.9" font-family="Arial" font-size="14.00" fill="#000000">insert_at </text>
<text text-anchor="start" x="995.0694" y="-1296.9" font-family="Arial" font-size="14.00" fill="#666666">[timestamp with time zone]</text>
<polygon fill="none" stroke="#000000" points="930.5,-1255.5 930.5,-1285.5 1242.5,-1285.5 1242.5,-1255.5 930.5,-1255.5"/>
<text text-anchor="start" x="937.5" y="-1266.9" font-family="Arial" font-size="14.00" fill="#000000">team_id </text>
<text text-anchor="start" x="991.1788" y="-1266.9" font-family="Arial" font-size="14.00" fill="#666666">[varchar(36)]</text>
<polygon fill="none" stroke="#000000" points="930.5,-1225.5 930.5,-1255.5 1242.5,-1255.5 1242.5,-1225.5 930.5,-1225.5"/>
<text text-anchor="start" x="937.5" y="-1236.9" font-family="Arial" font-size="14.00" fill="#000000">channel_id </text>
<text text-anchor="start" x="1009.082" y="-1236.9" font-family="Arial" font-size="14.00" fill="#666666">[varchar(36)]</text>
<polygon fill="none" stroke="#000000" points="930.5,-1195.5 930.5,-1225.5 1242.5,-1225.5 1242.5,-1195.5 930.5,-1195.5"/>
<text text-anchor="start" x="937.5" y="-1206.9" font-family="Arial" font-size="14.00" fill="#000000">created_by </text>
<text text-anchor="start" x="1010.6374" y="-1206.9" font-family="Arial" font-size="14.00" fill="#666666">[varchar(36)]</text>
<polygon fill="none" stroke="#000000" points="930.5,-1165.5 930.5,-1195.5 1242.5,-1195.5 1242.5,-1165.5 930.5,-1165.5"/>
<text text-anchor="start" x="937.5" y="-1176.9" font-family="Arial" font-size="14.00" fill="#000000">modified_by </text>
<text text-anchor="start" x="1016.8506" y="-1176.9" font-family="Arial" font-size="14.00" fill="#666666">[varchar(36)]</text>
<polygon fill="none" stroke="#000000" points="930.5,-1135.5 930.5,-1165.5 1242.5,-1165.5 1242.5,-1135.5 930.5,-1135.5"/>
<text text-anchor="start" x="937.5" y="-1146.9" font-family="Arial" font-size="14.00" fill="#000000">type </text>
<text text-anchor="start" x="967.8464" y="-1146.9" font-family="Arial" font-size="14.00" fill="#666666">[varchar(1)]</text>
<polygon fill="none" stroke="#000000" points="930.5,-1105.5 930.5,-1135.5 1242.5,-1135.5 1242.5,-1105.5 930.5,-1105.5"/>
<text text-anchor="start" x="937.5" y="-1116.9" font-family="Arial" font-size="14.00" fill="#000000">title </text>
<text text-anchor="start" x="963.1676" y="-1116.9" font-family="Arial" font-size="14.00" fill="#666666">[text]</text>
<polygon fill="none" stroke="#000000" points="930.5,-1075.5 930.5,-1105.5 1242.5,-1105.5 1242.5,-1075.5 930.5,-1075.5"/>
<text text-anchor="start" x="937.5" y="-1086.9" font-family="Arial" font-size="14.00" fill="#000000">description </text>
<text text-anchor="start" x="1009.068" y="-1086.9" font-family="Arial" font-size="14.00" fill="#666666">[text]</text>
<polygon fill="none" stroke="#000000" points="930.5,-1045.5 930.5,-1075.5 1242.5,-1075.5 1242.5,-1045.5 930.5,-1045.5"/>
<text text-anchor="start" x="937.5" y="-1056.9" font-family="Arial" font-size="14.00" fill="#000000">icon </text>
<text text-anchor="start" x="967.0624" y="-1056.9" font-family="Arial" font-size="14.00" fill="#666666">[varchar(256)]</text>
<polygon fill="none" stroke="#000000" points="930.5,-1015.5 930.5,-1045.5 1242.5,-1045.5 1242.5,-1015.5 930.5,-1015.5"/>
<text text-anchor="start" x="937.5" y="-1026.9" font-family="Arial" font-size="14.00" fill="#000000">show_description </text>
<text text-anchor="start" x="1049.5224" y="-1026.9" font-family="Arial" font-size="14.00" fill="#666666">[boolean]</text>
<polygon fill="none" stroke="#000000" points="930.5,-985.5 930.5,-1015.5 1242.5,-1015.5 1242.5,-985.5 930.5,-985.5"/>
<text text-anchor="start" x="937.5" y="-996.9" font-family="Arial" font-size="14.00" fill="#000000">is_template </text>
<text text-anchor="start" x="1012.9586" y="-996.9" font-family="Arial" font-size="14.00" fill="#666666">[boolean]</text>
<polygon fill="none" stroke="#000000" points="930.5,-955.5 930.5,-985.5 1242.5,-985.5 1242.5,-955.5 930.5,-955.5"/>
<text text-anchor="start" x="937.5" y="-966.9" font-family="Arial" font-size="14.00" fill="#000000">template_version </text>
<text text-anchor="start" x="1047.967" y="-966.9" font-family="Arial" font-size="14.00" fill="#666666">[integer]</text>
<polygon fill="none" stroke="#000000" points="930.5,-925.5 930.5,-955.5 1242.5,-955.5 1242.5,-925.5 930.5,-925.5"/>
<text text-anchor="start" x="937.5" y="-936.9" font-family="Arial" font-size="14.00" fill="#000000">properties </text>
<text text-anchor="start" x="1003.622" y="-936.9" font-family="Arial" font-size="14.00" fill="#666666">[jsonb]</text>
<polygon fill="none" stroke="#000000" points="930.5,-895.5 930.5,-925.5 1242.5,-925.5 1242.5,-895.5 930.5,-895.5"/>
<text text-anchor="start" x="937.5" y="-906.9" font-family="Arial" font-size="14.00" fill="#000000">card_properties </text>
<text text-anchor="start" x="1038.6304" y="-906.9" font-family="Arial" font-size="14.00" fill="#666666">[jsonb]</text>
<polygon fill="none" stroke="#000000" points="930.5,-865.5 930.5,-895.5 1242.5,-895.5 1242.5,-865.5 930.5,-865.5"/>
<text text-anchor="start" x="937.5" y="-876.9" font-family="Arial" font-size="14.00" fill="#000000">create_at </text>
<text text-anchor="start" x="999.7454" y="-876.9" font-family="Arial" font-size="14.00" fill="#666666">[bigint]</text>
<polygon fill="none" stroke="#000000" points="930.5,-835.5 930.5,-865.5 1242.5,-865.5 1242.5,-835.5 930.5,-835.5"/>
<text text-anchor="start" x="937.5" y="-846.9" font-family="Arial" font-size="14.00" fill="#000000">update_at </text>
<text text-anchor="start" x="1003.65" y="-846.9" font-family="Arial" font-size="14.00" fill="#666666">[bigint]</text>
<polygon fill="none" stroke="#000000" points="930.5,-805.5 930.5,-835.5 1242.5,-835.5 1242.5,-805.5 930.5,-805.5"/>
<text text-anchor="start" x="937.5" y="-816.9" font-family="Arial" font-size="14.00" fill="#000000">delete_at </text>
<text text-anchor="start" x="998.974" y="-816.9" font-family="Arial" font-size="14.00" fill="#666666">[bigint]</text>
<polygon fill="none" stroke="#000000" points="930.5,-775.5 930.5,-805.5 1242.5,-805.5 1242.5,-775.5 930.5,-775.5"/>
<text text-anchor="start" x="937.5" y="-786.9" font-family="Arial" font-size="14.00" fill="#000000">minimum_role </text>
<text text-anchor="start" x="1029.2658" y="-786.9" font-family="Arial" font-size="14.00" fill="#666666">[varchar(36)]</text>
</g>
<!-- public.focalboard_boards&#45;&gt;public.channels -->
<g id="edge3" class="edge">
<title>public.focalboard_boards:channel_id&#45;&gt;public.channels:id</title>
<path fill="none" stroke="#000000" stroke-dasharray="5,2" d="M921.355,-1235.8882C876.4244,-1187.4472 895.503,-772.915 930.5,-733 1011.1834,-640.9785 1122.8166,-789.0215 1203.5,-697 1231.7752,-664.7514 1246.3889,-600.5 1203.5,-600.5"/>
<polygon fill="#000000" stroke="#000000" points="921.5711,-1235.9972 928.4737,-1244.518 926.0356,-1238.2486 930.5,-1240.5 930.5,-1240.5 930.5,-1240.5 926.0356,-1238.2486 932.5263,-1236.482 921.5711,-1235.9972 921.5711,-1235.9972"/>
<text text-anchor="start" x="844.768" y="-1250.5" font-family="Arial" font-size="10.00" fill="#000000">Detected Relation</text>
</g>
<!-- public.focalboard_boards_history -->
<g id="node5" class="node">
<title>public.focalboard_boards_history</title>
<polygon fill="#efefef" stroke="transparent" points="1347.5,-1345.5 1347.5,-1380.5 1722.5,-1380.5 1722.5,-1345.5 1347.5,-1345.5"/>
<polygon fill="none" stroke="#000000" points="1347.5,-1345.5 1347.5,-1380.5 1722.5,-1380.5 1722.5,-1345.5 1347.5,-1345.5"/>
<text text-anchor="start" x="1354.3404" y="-1358.3" font-family="Arial Bold" font-size="18.00" fill="#000000">public.focalboard_boards_history</text>
<text text-anchor="start" x="1618.4058" y="-1358.3" font-family="Arial" font-size="14.00" fill="#000000"> </text>
<text text-anchor="start" x="1622.2964" y="-1358.3" font-family="Arial" font-size="14.00" fill="#666666">[BASE TABLE]</text>
<polygon fill="none" stroke="#000000" points="1347.5,-1315.5 1347.5,-1345.5 1722.5,-1345.5 1722.5,-1315.5 1347.5,-1315.5"/>
<text text-anchor="start" x="1354.5" y="-1326.9" font-family="Arial" font-size="14.00" fill="#000000">id </text>
<text text-anchor="start" x="1369.2798" y="-1326.9" font-family="Arial" font-size="14.00" fill="#666666">[varchar(36)]</text>
<polygon fill="none" stroke="#000000" points="1347.5,-1285.5 1347.5,-1315.5 1722.5,-1315.5 1722.5,-1285.5 1347.5,-1285.5"/>
<text text-anchor="start" x="1354.5" y="-1296.9" font-family="Arial" font-size="14.00" fill="#000000">insert_at </text>
<text text-anchor="start" x="1412.0694" y="-1296.9" font-family="Arial" font-size="14.00" fill="#666666">[timestamp with time zone]</text>
<polygon fill="none" stroke="#000000" points="1347.5,-1255.5 1347.5,-1285.5 1722.5,-1285.5 1722.5,-1255.5 1347.5,-1255.5"/>
<text text-anchor="start" x="1354.5" y="-1266.9" font-family="Arial" font-size="14.00" fill="#000000">team_id </text>
<text text-anchor="start" x="1408.1788" y="-1266.9" font-family="Arial" font-size="14.00" fill="#666666">[varchar(36)]</text>
<polygon fill="none" stroke="#000000" points="1347.5,-1225.5 1347.5,-1255.5 1722.5,-1255.5 1722.5,-1225.5 1347.5,-1225.5"/>
<text text-anchor="start" x="1354.5" y="-1236.9" font-family="Arial" font-size="14.00" fill="#000000">channel_id </text>
<text text-anchor="start" x="1426.082" y="-1236.9" font-family="Arial" font-size="14.00" fill="#666666">[varchar(36)]</text>
<polygon fill="none" stroke="#000000" points="1347.5,-1195.5 1347.5,-1225.5 1722.5,-1225.5 1722.5,-1195.5 1347.5,-1195.5"/>
<text text-anchor="start" x="1354.5" y="-1206.9" font-family="Arial" font-size="14.00" fill="#000000">created_by </text>
<text text-anchor="start" x="1427.6374" y="-1206.9" font-family="Arial" font-size="14.00" fill="#666666">[varchar(36)]</text>
<polygon fill="none" stroke="#000000" points="1347.5,-1165.5 1347.5,-1195.5 1722.5,-1195.5 1722.5,-1165.5 1347.5,-1165.5"/>
<text text-anchor="start" x="1354.5" y="-1176.9" font-family="Arial" font-size="14.00" fill="#000000">modified_by </text>
<text text-anchor="start" x="1433.8506" y="-1176.9" font-family="Arial" font-size="14.00" fill="#666666">[varchar(36)]</text>
<polygon fill="none" stroke="#000000" points="1347.5,-1135.5 1347.5,-1165.5 1722.5,-1165.5 1722.5,-1135.5 1347.5,-1135.5"/>
<text text-anchor="start" x="1354.5" y="-1146.9" font-family="Arial" font-size="14.00" fill="#000000">type </text>
<text text-anchor="start" x="1384.8464" y="-1146.9" font-family="Arial" font-size="14.00" fill="#666666">[varchar(1)]</text>
<polygon fill="none" stroke="#000000" points="1347.5,-1105.5 1347.5,-1135.5 1722.5,-1135.5 1722.5,-1105.5 1347.5,-1105.5"/>
<text text-anchor="start" x="1354.5" y="-1116.9" font-family="Arial" font-size="14.00" fill="#000000">title </text>
<text text-anchor="start" x="1380.1676" y="-1116.9" font-family="Arial" font-size="14.00" fill="#666666">[text]</text>
<polygon fill="none" stroke="#000000" points="1347.5,-1075.5 1347.5,-1105.5 1722.5,-1105.5 1722.5,-1075.5 1347.5,-1075.5"/>
<text text-anchor="start" x="1354.5" y="-1086.9" font-family="Arial" font-size="14.00" fill="#000000">description </text>
<text text-anchor="start" x="1426.068" y="-1086.9" font-family="Arial" font-size="14.00" fill="#666666">[text]</text>
<polygon fill="none" stroke="#000000" points="1347.5,-1045.5 1347.5,-1075.5 1722.5,-1075.5 1722.5,-1045.5 1347.5,-1045.5"/>
<text text-anchor="start" x="1354.5" y="-1056.9" font-family="Arial" font-size="14.00" fill="#000000">icon </text>
<text text-anchor="start" x="1384.0624" y="-1056.9" font-family="Arial" font-size="14.00" fill="#666666">[varchar(256)]</text>
<polygon fill="none" stroke="#000000" points="1347.5,-1015.5 1347.5,-1045.5 1722.5,-1045.5 1722.5,-1015.5 1347.5,-1015.5"/>
<text text-anchor="start" x="1354.5" y="-1026.9" font-family="Arial" font-size="14.00" fill="#000000">show_description </text>
<text text-anchor="start" x="1466.5224" y="-1026.9" font-family="Arial" font-size="14.00" fill="#666666">[boolean]</text>
<polygon fill="none" stroke="#000000" points="1347.5,-985.5 1347.5,-1015.5 1722.5,-1015.5 1722.5,-985.5 1347.5,-985.5"/>
<text text-anchor="start" x="1354.5" y="-996.9" font-family="Arial" font-size="14.00" fill="#000000">is_template </text>
<text text-anchor="start" x="1429.9586" y="-996.9" font-family="Arial" font-size="14.00" fill="#666666">[boolean]</text>
<polygon fill="none" stroke="#000000" points="1347.5,-955.5 1347.5,-985.5 1722.5,-985.5 1722.5,-955.5 1347.5,-955.5"/>
<text text-anchor="start" x="1354.5" y="-966.9" font-family="Arial" font-size="14.00" fill="#000000">template_version </text>
<text text-anchor="start" x="1464.967" y="-966.9" font-family="Arial" font-size="14.00" fill="#666666">[integer]</text>
<polygon fill="none" stroke="#000000" points="1347.5,-925.5 1347.5,-955.5 1722.5,-955.5 1722.5,-925.5 1347.5,-925.5"/>
<text text-anchor="start" x="1354.5" y="-936.9" font-family="Arial" font-size="14.00" fill="#000000">properties </text>
<text text-anchor="start" x="1420.622" y="-936.9" font-family="Arial" font-size="14.00" fill="#666666">[jsonb]</text>
<polygon fill="none" stroke="#000000" points="1347.5,-895.5 1347.5,-925.5 1722.5,-925.5 1722.5,-895.5 1347.5,-895.5"/>
<text text-anchor="start" x="1354.5" y="-906.9" font-family="Arial" font-size="14.00" fill="#000000">card_properties </text>
<text text-anchor="start" x="1455.6304" y="-906.9" font-family="Arial" font-size="14.00" fill="#666666">[jsonb]</text>
<polygon fill="none" stroke="#000000" points="1347.5,-865.5 1347.5,-895.5 1722.5,-895.5 1722.5,-865.5 1347.5,-865.5"/>
<text text-anchor="start" x="1354.5" y="-876.9" font-family="Arial" font-size="14.00" fill="#000000">create_at </text>
<text text-anchor="start" x="1416.7454" y="-876.9" font-family="Arial" font-size="14.00" fill="#666666">[bigint]</text>
<polygon fill="none" stroke="#000000" points="1347.5,-835.5 1347.5,-865.5 1722.5,-865.5 1722.5,-835.5 1347.5,-835.5"/>
<text text-anchor="start" x="1354.5" y="-846.9" font-family="Arial" font-size="14.00" fill="#000000">update_at </text>
<text text-anchor="start" x="1420.65" y="-846.9" font-family="Arial" font-size="14.00" fill="#666666">[bigint]</text>
<polygon fill="none" stroke="#000000" points="1347.5,-805.5 1347.5,-835.5 1722.5,-835.5 1722.5,-805.5 1347.5,-805.5"/>
<text text-anchor="start" x="1354.5" y="-816.9" font-family="Arial" font-size="14.00" fill="#000000">delete_at </text>
<text text-anchor="start" x="1415.974" y="-816.9" font-family="Arial" font-size="14.00" fill="#666666">[bigint]</text>
<polygon fill="none" stroke="#000000" points="1347.5,-775.5 1347.5,-805.5 1722.5,-805.5 1722.5,-775.5 1347.5,-775.5"/>
<text text-anchor="start" x="1354.5" y="-786.9" font-family="Arial" font-size="14.00" fill="#000000">minimum_role </text>
<text text-anchor="start" x="1446.2658" y="-786.9" font-family="Arial" font-size="14.00" fill="#666666">[varchar(36)]</text>
</g>
<!-- public.focalboard_boards_history&#45;&gt;public.channels -->
<g id="edge4" class="edge">
<title>public.focalboard_boards_history:channel_id&#45;&gt;public.channels:id</title>
<path fill="none" stroke="#000000" stroke-dasharray="5,2" d="M1338.3331,-1235.9929C1293.3868,-1188.6389 1312.9486,-783.0838 1294.5,-733 1269.8068,-665.9634 1274.9399,-600.5 1203.5,-600.5"/>
<polygon fill="#000000" stroke="#000000" points="1338.526,-1236.0877 1345.5145,-1244.5383 1343.013,-1238.2939 1347.5,-1240.5 1347.5,-1240.5 1347.5,-1240.5 1343.013,-1238.2939 1349.4855,-1236.4617 1338.526,-1236.0877 1338.526,-1236.0877"/>
<text text-anchor="start" x="1261.768" y="-1250.5" font-family="Arial" font-size="10.00" fill="#000000">Detected Relation</text>
</g>
<!-- public.focalboard_categories -->
<g id="node6" class="node">
<title>public.focalboard_categories</title>
<polygon fill="#efefef" stroke="transparent" points="1826.5,-1210.5 1826.5,-1245.5 2166.5,-1245.5 2166.5,-1210.5 1826.5,-1210.5"/>
<polygon fill="none" stroke="#000000" points="1826.5,-1210.5 1826.5,-1245.5 2166.5,-1245.5 2166.5,-1210.5 1826.5,-1210.5"/>
<text text-anchor="start" x="1833.3427" y="-1223.3" font-family="Arial Bold" font-size="18.00" fill="#000000">public.focalboard_categories</text>
<text text-anchor="start" x="2062.4035" y="-1223.3" font-family="Arial" font-size="14.00" fill="#000000"> </text>
<text text-anchor="start" x="2066.2941" y="-1223.3" font-family="Arial" font-size="14.00" fill="#666666">[BASE TABLE]</text>
<polygon fill="none" stroke="#000000" points="1826.5,-1180.5 1826.5,-1210.5 2166.5,-1210.5 2166.5,-1180.5 1826.5,-1180.5"/>
<text text-anchor="start" x="1833.5" y="-1191.9" font-family="Arial" font-size="14.00" fill="#000000">id </text>
<text text-anchor="start" x="1848.2798" y="-1191.9" font-family="Arial" font-size="14.00" fill="#666666">[varchar(36)]</text>
<polygon fill="none" stroke="#000000" points="1826.5,-1150.5 1826.5,-1180.5 2166.5,-1180.5 2166.5,-1150.5 1826.5,-1150.5"/>
<text text-anchor="start" x="1833.5" y="-1161.9" font-family="Arial" font-size="14.00" fill="#000000">name </text>
<text text-anchor="start" x="1872.399" y="-1161.9" font-family="Arial" font-size="14.00" fill="#666666">[varchar(100)]</text>
<polygon fill="none" stroke="#000000" points="1826.5,-1120.5 1826.5,-1150.5 2166.5,-1150.5 2166.5,-1120.5 1826.5,-1120.5"/>
<text text-anchor="start" x="1833.5" y="-1131.9" font-family="Arial" font-size="14.00" fill="#000000">user_id </text>
<text text-anchor="start" x="1883.2882" y="-1131.9" font-family="Arial" font-size="14.00" fill="#666666">[varchar(36)]</text>
<polygon fill="none" stroke="#000000" points="1826.5,-1090.5 1826.5,-1120.5 2166.5,-1120.5 2166.5,-1090.5 1826.5,-1090.5"/>
<text text-anchor="start" x="1833.5" y="-1101.9" font-family="Arial" font-size="14.00" fill="#000000">team_id </text>
<text text-anchor="start" x="1887.1788" y="-1101.9" font-family="Arial" font-size="14.00" fill="#666666">[varchar(36)]</text>
<polygon fill="none" stroke="#000000" points="1826.5,-1060.5 1826.5,-1090.5 2166.5,-1090.5 2166.5,-1060.5 1826.5,-1060.5"/>
<text text-anchor="start" x="1833.5" y="-1071.9" font-family="Arial" font-size="14.00" fill="#000000">channel_id </text>
<text text-anchor="start" x="1905.082" y="-1071.9" font-family="Arial" font-size="14.00" fill="#666666">[varchar(36)]</text>
<polygon fill="none" stroke="#000000" points="1826.5,-1030.5 1826.5,-1060.5 2166.5,-1060.5 2166.5,-1030.5 1826.5,-1030.5"/>
<text text-anchor="start" x="1833.5" y="-1041.9" font-family="Arial" font-size="14.00" fill="#000000">create_at </text>
<text text-anchor="start" x="1895.7454" y="-1041.9" font-family="Arial" font-size="14.00" fill="#666666">[bigint]</text>
<polygon fill="none" stroke="#000000" points="1826.5,-1000.5 1826.5,-1030.5 2166.5,-1030.5 2166.5,-1000.5 1826.5,-1000.5"/>
<text text-anchor="start" x="1833.5" y="-1011.9" font-family="Arial" font-size="14.00" fill="#000000">update_at </text>
<text text-anchor="start" x="1899.65" y="-1011.9" font-family="Arial" font-size="14.00" fill="#666666">[bigint]</text>
<polygon fill="none" stroke="#000000" points="1826.5,-970.5 1826.5,-1000.5 2166.5,-1000.5 2166.5,-970.5 1826.5,-970.5"/>
<text text-anchor="start" x="1833.5" y="-981.9" font-family="Arial" font-size="14.00" fill="#000000">delete_at </text>
<text text-anchor="start" x="1894.974" y="-981.9" font-family="Arial" font-size="14.00" fill="#666666">[bigint]</text>
<polygon fill="none" stroke="#000000" points="1826.5,-940.5 1826.5,-970.5 2166.5,-970.5 2166.5,-940.5 1826.5,-940.5"/>
<text text-anchor="start" x="1833.5" y="-951.9" font-family="Arial" font-size="14.00" fill="#000000">collapsed </text>
<text text-anchor="start" x="1896.5168" y="-951.9" font-family="Arial" font-size="14.00" fill="#666666">[boolean]</text>
<polygon fill="none" stroke="#000000" points="1826.5,-910.5 1826.5,-940.5 2166.5,-940.5 2166.5,-910.5 1826.5,-910.5"/>
<text text-anchor="start" x="1833.5" y="-921.9" font-family="Arial" font-size="14.00" fill="#000000">type </text>
<text text-anchor="start" x="1863.8464" y="-921.9" font-family="Arial" font-size="14.00" fill="#666666">[varchar(64)]</text>
</g>
<!-- public.focalboard_categories&#45;&gt;public.channels -->
<g id="edge5" class="edge">
<title>public.focalboard_categories:channel_id&#45;&gt;public.channels:id</title>
<path fill="none" stroke="#000000" stroke-dasharray="5,2" d="M1816.6618,-1073.6678C1756.4764,-1049.1917 1824.3392,-786.8508 1774.5,-733 1686.0218,-637.4 1333.7604,-600.5 1203.5,-600.5"/>
<polygon fill="#000000" stroke="#000000" points="1816.669,-1073.6691 1825.6761,-1079.9239 1821.5845,-1074.5845 1826.5,-1075.5 1826.5,-1075.5 1826.5,-1075.5 1821.5845,-1074.5845 1827.3239,-1071.0761 1816.669,-1073.6691 1816.669,-1073.6691"/>
<text text-anchor="start" x="1740.768" y="-1085.5" font-family="Arial" font-size="10.00" fill="#000000">Detected Relation</text>
</g>
</g>
</svg>
