<?xml version="1.0" encoding="UTF-8" standalone="no"?>
<!DOCTYPE svg PUBLIC "-//W3C//DTD SVG 1.1//EN"
 "http://www.w3.org/Graphics/SVG/1.1/DTD/svg11.dtd">
<!-- Generated by graphviz version 2.40.1 (20161225.0304)
 -->
<!-- Title: public.compliances Pages: 1 -->
<svg width="363pt" height="465pt"
 viewBox="0.00 0.00 363.00 465.00" xmlns="http://www.w3.org/2000/svg" xmlns:xlink="http://www.w3.org/1999/xlink">
<g id="graph0" class="graph" transform="scale(1 1) rotate(0) translate(4 461)">
<title>public.compliances</title>
<polygon fill="#ffffff" stroke="transparent" points="-4,4 -4,-461 359,-461 359,4 -4,4"/>
<!-- public.compliances -->
<g id="node1" class="node">
<title>public.compliances</title>
<polygon fill="#efefef" stroke="transparent" points="46.5,-375.5 46.5,-410.5 309.5,-410.5 309.5,-375.5 46.5,-375.5"/>
<polygon fill="none" stroke="#000000" points="46.5,-375.5 46.5,-410.5 309.5,-410.5 309.5,-375.5 46.5,-375.5"/>
<text text-anchor="start" x="53.3627" y="-388.3" font-family="Arial Bold" font-size="18.00" fill="#000000">public.compliances</text>
<text text-anchor="start" x="205.3835" y="-388.3" font-family="Arial" font-size="14.00" fill="#000000"> </text>
<text text-anchor="start" x="209.2741" y="-388.3" font-family="Arial" font-size="14.00" fill="#666666">[BASE TABLE]</text>
<polygon fill="none" stroke="#000000" points="46.5,-345.5 46.5,-375.5 309.5,-375.5 309.5,-345.5 46.5,-345.5"/>
<text text-anchor="start" x="53.5" y="-356.9" font-family="Arial" font-size="14.00" fill="#000000">id </text>
<text text-anchor="start" x="68.2798" y="-356.9" font-family="Arial" font-size="14.00" fill="#666666">[varchar(26)]</text>
<polygon fill="none" stroke="#000000" points="46.5,-315.5 46.5,-345.5 309.5,-345.5 309.5,-315.5 46.5,-315.5"/>
<text text-anchor="start" x="53.5" y="-326.9" font-family="Arial" font-size="14.00" fill="#000000">createat </text>
<text text-anchor="start" x="107.9628" y="-326.9" font-family="Arial" font-size="14.00" fill="#666666">[bigint]</text>
<polygon fill="none" stroke="#000000" points="46.5,-285.5 46.5,-315.5 309.5,-315.5 309.5,-285.5 46.5,-285.5"/>
<text text-anchor="start" x="53.5" y="-296.9" font-family="Arial" font-size="14.00" fill="#000000">userid </text>
<text text-anchor="start" x="95.5056" y="-296.9" font-family="Arial" font-size="14.00" fill="#666666">[varchar(26)]</text>
<polygon fill="none" stroke="#000000" points="46.5,-255.5 46.5,-285.5 309.5,-285.5 309.5,-255.5 46.5,-255.5"/>
<text text-anchor="start" x="53.5" y="-266.9" font-family="Arial" font-size="14.00" fill="#000000">status </text>
<text text-anchor="start" x="94.737" y="-266.9" font-family="Arial" font-size="14.00" fill="#666666">[varchar(64)]</text>
<polygon fill="none" stroke="#000000" points="46.5,-225.5 46.5,-255.5 309.5,-255.5 309.5,-225.5 46.5,-225.5"/>
<text text-anchor="start" x="53.5" y="-236.9" font-family="Arial" font-size="14.00" fill="#000000">count </text>
<text text-anchor="start" x="91.629" y="-236.9" font-family="Arial" font-size="14.00" fill="#666666">[integer]</text>
<polygon fill="none" stroke="#000000" points="46.5,-195.5 46.5,-225.5 309.5,-225.5 309.5,-195.5 46.5,-195.5"/>
<text text-anchor="start" x="53.5" y="-206.9" font-family="Arial" font-size="14.00" fill="#000000">desc </text>
<text text-anchor="start" x="86.9558" y="-206.9" font-family="Arial" font-size="14.00" fill="#666666">[varchar(512)]</text>
<polygon fill="none" stroke="#000000" points="46.5,-165.5 46.5,-195.5 309.5,-195.5 309.5,-165.5 46.5,-165.5"/>
<text text-anchor="start" x="53.5" y="-176.9" font-family="Arial" font-size="14.00" fill="#000000">type </text>
<text text-anchor="start" x="83.8464" y="-176.9" font-family="Arial" font-size="14.00" fill="#666666">[varchar(64)]</text>
<polygon fill="none" stroke="#000000" points="46.5,-135.5 46.5,-165.5 309.5,-165.5 309.5,-135.5 46.5,-135.5"/>
<text text-anchor="start" x="53.5" y="-146.9" font-family="Arial" font-size="14.00" fill="#000000">startat </text>
<text text-anchor="start" x="96.2882" y="-146.9" font-family="Arial" font-size="14.00" fill="#666666">[bigint]</text>
<polygon fill="none" stroke="#000000" points="46.5,-105.5 46.5,-135.5 309.5,-135.5 309.5,-105.5 46.5,-105.5"/>
<text text-anchor="start" x="53.5" y="-116.9" font-family="Arial" font-size="14.00" fill="#000000">endat </text>
<text text-anchor="start" x="92.4116" y="-116.9" font-family="Arial" font-size="14.00" fill="#666666">[bigint]</text>
<polygon fill="none" stroke="#000000" points="46.5,-75.5 46.5,-105.5 309.5,-105.5 309.5,-75.5 46.5,-75.5"/>
<text text-anchor="start" x="53.5" y="-86.9" font-family="Arial" font-size="14.00" fill="#000000">keywords </text>
<text text-anchor="start" x="116.5056" y="-86.9" font-family="Arial" font-size="14.00" fill="#666666">[varchar(512)]</text>
<polygon fill="none" stroke="#000000" points="46.5,-45.5 46.5,-75.5 309.5,-75.5 309.5,-45.5 46.5,-45.5"/>
<text text-anchor="start" x="53.5" y="-56.9" font-family="Arial" font-size="14.00" fill="#000000">emails </text>
<text text-anchor="start" x="97.8296" y="-56.9" font-family="Arial" font-size="14.00" fill="#666666">[varchar(1024)]</text>
<polygon fill="none" stroke="#000000" stroke-width="3" points="44.5,-44.5 44.5,-412.5 310.5,-412.5 310.5,-44.5 44.5,-44.5"/>
</g>
</g>
</svg>
