<?xml version="1.0" encoding="UTF-8" standalone="no"?>
<!DOCTYPE svg PUBLIC "-//W3C//DTD SVG 1.1//EN"
 "http://www.w3.org/Graphics/SVG/1.1/DTD/svg11.dtd">
<!-- Generated by graphviz version 2.40.1 (20161225.0304)
 -->
<!-- Title: public.ir_statusposts Pages: 1 -->
<svg width="619pt" height="1672pt"
 viewBox="0.00 0.00 618.50 1672.00" xmlns="http://www.w3.org/2000/svg" xmlns:xlink="http://www.w3.org/1999/xlink">
<g id="graph0" class="graph" transform="scale(1 1) rotate(0) translate(4 1668)">
<title>public.ir_statusposts</title>
<polygon fill="#ffffff" stroke="transparent" points="-4,4 -4,-1668 614.5,-1668 614.5,4 -4,4"/>
<!-- public.ir_statusposts -->
<g id="node1" class="node">
<title>public.ir_statusposts</title>
<polygon fill="#efefef" stroke="transparent" points="267,-1582.5 267,-1617.5 541,-1617.5 541,-1582.5 267,-1582.5"/>
<polygon fill="none" stroke="#000000" points="267,-1582.5 267,-1617.5 541,-1617.5 541,-1582.5 267,-1582.5"/>
<text text-anchor="start" x="273.8565" y="-1595.3" font-family="Arial Bold" font-size="18.00" fill="#000000">public.ir_statusposts</text>
<text text-anchor="start" x="436.8897" y="-1595.3" font-family="Arial" font-size="14.00" fill="#000000"> </text>
<text text-anchor="start" x="440.7803" y="-1595.3" font-family="Arial" font-size="14.00" fill="#666666">[BASE TABLE]</text>
<polygon fill="none" stroke="#000000" points="267,-1552.5 267,-1582.5 541,-1582.5 541,-1552.5 267,-1552.5"/>
<text text-anchor="start" x="274" y="-1563.9" font-family="Arial" font-size="14.00" fill="#000000">incidentid </text>
<text text-anchor="start" x="337.014" y="-1563.9" font-family="Arial" font-size="14.00" fill="#666666">[text]</text>
<polygon fill="none" stroke="#000000" points="267,-1522.5 267,-1552.5 541,-1552.5 541,-1522.5 267,-1522.5"/>
<text text-anchor="start" x="274" y="-1533.9" font-family="Arial" font-size="14.00" fill="#000000">postid </text>
<text text-anchor="start" x="315.2356" y="-1533.9" font-family="Arial" font-size="14.00" fill="#666666">[text]</text>
<polygon fill="none" stroke="#000000" stroke-width="3" points="265.5,-1521.5 265.5,-1619.5 542.5,-1619.5 542.5,-1521.5 265.5,-1521.5"/>
</g>
<!-- public.ir_incident -->
<g id="node2" class="node">
<title>public.ir_incident</title>
<polygon fill="#efefef" stroke="transparent" points="239,-1362.5 239,-1397.5 568,-1397.5 568,-1362.5 239,-1362.5"/>
<polygon fill="none" stroke="#000000" points="239,-1362.5 239,-1397.5 568,-1397.5 568,-1362.5 239,-1362.5"/>
<text text-anchor="start" x="287.8645" y="-1375.3" font-family="Arial Bold" font-size="18.00" fill="#000000">public.ir_incident</text>
<text text-anchor="start" x="421.8817" y="-1375.3" font-family="Arial" font-size="14.00" fill="#000000"> </text>
<text text-anchor="start" x="425.7723" y="-1375.3" font-family="Arial" font-size="14.00" fill="#666666">[BASE TABLE]</text>
<polygon fill="none" stroke="#000000" points="239,-1332.5 239,-1362.5 568,-1362.5 568,-1332.5 239,-1332.5"/>
<text text-anchor="start" x="246" y="-1343.9" font-family="Arial" font-size="14.00" fill="#000000">id </text>
<text text-anchor="start" x="260.7798" y="-1343.9" font-family="Arial" font-size="14.00" fill="#666666">[text]</text>
<polygon fill="none" stroke="#000000" points="239,-1302.5 239,-1332.5 568,-1332.5 568,-1302.5 239,-1302.5"/>
<text text-anchor="start" x="246" y="-1313.9" font-family="Arial" font-size="14.00" fill="#000000">name </text>
<text text-anchor="start" x="284.899" y="-1313.9" font-family="Arial" font-size="14.00" fill="#666666">[text]</text>
<polygon fill="none" stroke="#000000" points="239,-1272.5 239,-1302.5 568,-1302.5 568,-1272.5 239,-1272.5"/>
<text text-anchor="start" x="246" y="-1283.9" font-family="Arial" font-size="14.00" fill="#000000">description </text>
<text text-anchor="start" x="317.568" y="-1283.9" font-family="Arial" font-size="14.00" fill="#666666">[text]</text>
<polygon fill="none" stroke="#000000" points="239,-1242.5 239,-1272.5 568,-1272.5 568,-1242.5 239,-1242.5"/>
<text text-anchor="start" x="246" y="-1253.9" font-family="Arial" font-size="14.00" fill="#000000">isactive </text>
<text text-anchor="start" x="296.5596" y="-1253.9" font-family="Arial" font-size="14.00" fill="#666666">[boolean]</text>
<polygon fill="none" stroke="#000000" points="239,-1212.5 239,-1242.5 568,-1242.5 568,-1212.5 239,-1212.5"/>
<text text-anchor="start" x="246" y="-1223.9" font-family="Arial" font-size="14.00" fill="#000000">commanderuserid </text>
<text text-anchor="start" x="361.9004" y="-1223.9" font-family="Arial" font-size="14.00" fill="#666666">[text]</text>
<polygon fill="none" stroke="#000000" points="239,-1182.5 239,-1212.5 568,-1212.5 568,-1182.5 239,-1182.5"/>
<text text-anchor="start" x="246" y="-1193.9" font-family="Arial" font-size="14.00" fill="#000000">teamid </text>
<text text-anchor="start" x="291.8962" y="-1193.9" font-family="Arial" font-size="14.00" fill="#666666">[text]</text>
<polygon fill="none" stroke="#000000" points="239,-1152.5 239,-1182.5 568,-1182.5 568,-1152.5 239,-1152.5"/>
<text text-anchor="start" x="246" y="-1163.9" font-family="Arial" font-size="14.00" fill="#000000">channelid </text>
<text text-anchor="start" x="309.7994" y="-1163.9" font-family="Arial" font-size="14.00" fill="#666666">[text]</text>
<polygon fill="none" stroke="#000000" points="239,-1122.5 239,-1152.5 568,-1152.5 568,-1122.5 239,-1122.5"/>
<text text-anchor="start" x="246" y="-1133.9" font-family="Arial" font-size="14.00" fill="#000000">createat </text>
<text text-anchor="start" x="300.4628" y="-1133.9" font-family="Arial" font-size="14.00" fill="#666666">[bigint]</text>
<polygon fill="none" stroke="#000000" points="239,-1092.5 239,-1122.5 568,-1122.5 568,-1092.5 239,-1092.5"/>
<text text-anchor="start" x="246" y="-1103.9" font-family="Arial" font-size="14.00" fill="#000000">endat </text>
<text text-anchor="start" x="284.9116" y="-1103.9" font-family="Arial" font-size="14.00" fill="#666666">[bigint]</text>
<polygon fill="none" stroke="#000000" points="239,-1062.5 239,-1092.5 568,-1092.5 568,-1062.5 239,-1062.5"/>
<text text-anchor="start" x="246" y="-1073.9" font-family="Arial" font-size="14.00" fill="#000000">deleteat </text>
<text text-anchor="start" x="299.6914" y="-1073.9" font-family="Arial" font-size="14.00" fill="#666666">[bigint]</text>
<polygon fill="none" stroke="#000000" points="239,-1032.5 239,-1062.5 568,-1062.5 568,-1032.5 239,-1032.5"/>
<text text-anchor="start" x="246" y="-1043.9" font-family="Arial" font-size="14.00" fill="#000000">activestage </text>
<text text-anchor="start" x="320.6914" y="-1043.9" font-family="Arial" font-size="14.00" fill="#666666">[bigint]</text>
<polygon fill="none" stroke="#000000" points="239,-1002.5 239,-1032.5 568,-1032.5 568,-1002.5 239,-1002.5"/>
<text text-anchor="start" x="246" y="-1013.9" font-family="Arial" font-size="14.00" fill="#000000">postid </text>
<text text-anchor="start" x="287.2356" y="-1013.9" font-family="Arial" font-size="14.00" fill="#666666">[text]</text>
<polygon fill="none" stroke="#000000" points="239,-972.5 239,-1002.5 568,-1002.5 568,-972.5 239,-972.5"/>
<text text-anchor="start" x="246" y="-983.9" font-family="Arial" font-size="14.00" fill="#000000">playbookid </text>
<text text-anchor="start" x="316.7994" y="-983.9" font-family="Arial" font-size="14.00" fill="#666666">[text]</text>
<polygon fill="none" stroke="#000000" points="239,-942.5 239,-972.5 568,-972.5 568,-942.5 239,-942.5"/>
<text text-anchor="start" x="246" y="-953.9" font-family="Arial" font-size="14.00" fill="#000000">checklistsjson </text>
<text text-anchor="start" x="336.2314" y="-953.9" font-family="Arial" font-size="14.00" fill="#666666">[json]</text>
<polygon fill="none" stroke="#000000" points="239,-912.5 239,-942.5 568,-942.5 568,-912.5 239,-912.5"/>
<text text-anchor="start" x="246" y="-923.9" font-family="Arial" font-size="14.00" fill="#000000">activestagetitle </text>
<text text-anchor="start" x="342.4684" y="-923.9" font-family="Arial" font-size="14.00" fill="#666666">[text]</text>
<polygon fill="none" stroke="#000000" points="239,-882.5 239,-912.5 568,-912.5 568,-882.5 239,-882.5"/>
<text text-anchor="start" x="246" y="-893.9" font-family="Arial" font-size="14.00" fill="#000000">reminderpostid </text>
<text text-anchor="start" x="342.4544" y="-893.9" font-family="Arial" font-size="14.00" fill="#666666">[text]</text>
<polygon fill="none" stroke="#000000" points="239,-852.5 239,-882.5 568,-882.5 568,-852.5 239,-852.5"/>
<text text-anchor="start" x="246" y="-863.9" font-family="Arial" font-size="14.00" fill="#000000">broadcastchannelid </text>
<text text-anchor="start" x="371.2636" y="-863.9" font-family="Arial" font-size="14.00" fill="#666666">[text]</text>
<polygon fill="none" stroke="#000000" points="239,-822.5 239,-852.5 568,-852.5 568,-822.5 239,-822.5"/>
<text text-anchor="start" x="246" y="-833.9" font-family="Arial" font-size="14.00" fill="#000000">previousreminder </text>
<text text-anchor="start" x="358.007" y="-833.9" font-family="Arial" font-size="14.00" fill="#666666">[bigint]</text>
<polygon fill="none" stroke="#000000" points="239,-792.5 239,-822.5 568,-822.5 568,-792.5 239,-792.5"/>
<text text-anchor="start" x="246" y="-803.9" font-family="Arial" font-size="14.00" fill="#000000">remindermessagetemplate </text>
<text text-anchor="start" x="415.5792" y="-803.9" font-family="Arial" font-size="14.00" fill="#666666">[text]</text>
<polygon fill="none" stroke="#000000" points="239,-762.5 239,-792.5 568,-792.5 568,-762.5 239,-762.5"/>
<text text-anchor="start" x="246" y="-773.9" font-family="Arial" font-size="14.00" fill="#000000">currentstatus </text>
<text text-anchor="start" x="330.7966" y="-773.9" font-family="Arial" font-size="14.00" fill="#666666">[text]</text>
<polygon fill="none" stroke="#000000" points="239,-732.5 239,-762.5 568,-762.5 568,-732.5 239,-732.5"/>
<text text-anchor="start" x="246" y="-743.9" font-family="Arial" font-size="14.00" fill="#000000">reporteruserid </text>
<text text-anchor="start" x="337.0084" y="-743.9" font-family="Arial" font-size="14.00" fill="#666666">[text]</text>
<polygon fill="none" stroke="#000000" points="239,-702.5 239,-732.5 568,-732.5 568,-702.5 239,-702.5"/>
<text text-anchor="start" x="246" y="-713.9" font-family="Arial" font-size="14.00" fill="#000000">concatenatedinviteduserids </text>
<text text-anchor="start" x="419.4992" y="-713.9" font-family="Arial" font-size="14.00" fill="#666666">[text]</text>
<polygon fill="none" stroke="#000000" points="239,-672.5 239,-702.5 568,-702.5 568,-672.5 239,-672.5"/>
<text text-anchor="start" x="246" y="-683.9" font-family="Arial" font-size="14.00" fill="#000000">defaultcommanderid </text>
<text text-anchor="start" x="376.6928" y="-683.9" font-family="Arial" font-size="14.00" fill="#666666">[text]</text>
<polygon fill="none" stroke="#000000" points="239,-642.5 239,-672.5 568,-672.5 568,-642.5 239,-642.5"/>
<text text-anchor="start" x="246" y="-653.9" font-family="Arial" font-size="14.00" fill="#000000">announcementchannelid </text>
<text text-anchor="start" x="402.394" y="-653.9" font-family="Arial" font-size="14.00" fill="#666666">[text]</text>
<polygon fill="none" stroke="#000000" points="239,-612.5 239,-642.5 568,-642.5 568,-612.5 239,-612.5"/>
<text text-anchor="start" x="246" y="-623.9" font-family="Arial" font-size="14.00" fill="#000000">concatenatedwebhookoncreationurls </text>
<text text-anchor="start" x="477.8554" y="-623.9" font-family="Arial" font-size="14.00" fill="#666666">[text]</text>
<polygon fill="none" stroke="#000000" points="239,-582.5 239,-612.5 568,-612.5 568,-582.5 239,-582.5"/>
<text text-anchor="start" x="246" y="-593.9" font-family="Arial" font-size="14.00" fill="#000000">concatenatedinvitedgroupids </text>
<text text-anchor="start" x="428.0644" y="-593.9" font-family="Arial" font-size="14.00" fill="#666666">[text]</text>
<polygon fill="none" stroke="#000000" points="239,-552.5 239,-582.5 568,-582.5 568,-552.5 239,-552.5"/>
<text text-anchor="start" x="246" y="-563.9" font-family="Arial" font-size="14.00" fill="#000000">retrospective </text>
<text text-anchor="start" x="330.0126" y="-563.9" font-family="Arial" font-size="14.00" fill="#666666">[text]</text>
<polygon fill="none" stroke="#000000" points="239,-522.5 239,-552.5 568,-552.5 568,-522.5 239,-522.5"/>
<text text-anchor="start" x="246" y="-533.9" font-family="Arial" font-size="14.00" fill="#000000">messageonjoin </text>
<text text-anchor="start" x="344.0252" y="-533.9" font-family="Arial" font-size="14.00" fill="#666666">[text]</text>
<polygon fill="none" stroke="#000000" points="239,-492.5 239,-522.5 568,-522.5 568,-492.5 239,-492.5"/>
<text text-anchor="start" x="246" y="-503.9" font-family="Arial" font-size="14.00" fill="#000000">retrospectivepublishedat </text>
<text text-anchor="start" x="401.5946" y="-503.9" font-family="Arial" font-size="14.00" fill="#666666">[bigint]</text>
<polygon fill="none" stroke="#000000" points="239,-462.5 239,-492.5 568,-492.5 568,-462.5 239,-462.5"/>
<text text-anchor="start" x="246" y="-473.9" font-family="Arial" font-size="14.00" fill="#000000">retrospectivereminderintervalseconds </text>
<text text-anchor="start" x="482.474" y="-473.9" font-family="Arial" font-size="14.00" fill="#666666">[bigint]</text>
<polygon fill="none" stroke="#000000" points="239,-432.5 239,-462.5 568,-462.5 568,-432.5 239,-432.5"/>
<text text-anchor="start" x="246" y="-443.9" font-family="Arial" font-size="14.00" fill="#000000">retrospectivewascanceled </text>
<text text-anchor="start" x="410.9214" y="-443.9" font-family="Arial" font-size="14.00" fill="#666666">[boolean]</text>
<polygon fill="none" stroke="#000000" points="239,-402.5 239,-432.5 568,-432.5 568,-402.5 239,-402.5"/>
<text text-anchor="start" x="246" y="-413.9" font-family="Arial" font-size="14.00" fill="#000000">concatenatedwebhookonstatusupdateurls </text>
<text text-anchor="start" x="508.2172" y="-413.9" font-family="Arial" font-size="14.00" fill="#666666">[text]</text>
<polygon fill="none" stroke="#000000" points="239,-372.5 239,-402.5 568,-402.5 568,-372.5 239,-372.5"/>
<text text-anchor="start" x="246" y="-383.9" font-family="Arial" font-size="14.00" fill="#000000">laststatusupdateat </text>
<text text-anchor="start" x="363.4936" y="-383.9" font-family="Arial" font-size="14.00" fill="#666666">[bigint]</text>
<polygon fill="none" stroke="#000000" points="239,-342.5 239,-372.5 568,-372.5 568,-342.5 239,-342.5"/>
<text text-anchor="start" x="246" y="-353.9" font-family="Arial" font-size="14.00" fill="#000000">exportchannelonfinishedenabled </text>
<text text-anchor="start" x="451.4108" y="-353.9" font-family="Arial" font-size="14.00" fill="#666666">[boolean]</text>
<polygon fill="none" stroke="#000000" points="239,-312.5 239,-342.5 568,-342.5 568,-312.5 239,-312.5"/>
<text text-anchor="start" x="246" y="-323.9" font-family="Arial" font-size="14.00" fill="#000000">categorizechannelenabled </text>
<text text-anchor="start" x="413.2832" y="-323.9" font-family="Arial" font-size="14.00" fill="#666666">[boolean]</text>
<polygon fill="none" stroke="#000000" points="239,-282.5 239,-312.5 568,-312.5 568,-282.5 239,-282.5"/>
<text text-anchor="start" x="246" y="-293.9" font-family="Arial" font-size="14.00" fill="#000000">categoryname </text>
<text text-anchor="start" x="338.5806" y="-293.9" font-family="Arial" font-size="14.00" fill="#666666">[text]</text>
<polygon fill="none" stroke="#000000" points="239,-252.5 239,-282.5 568,-282.5 568,-252.5 239,-252.5"/>
<text text-anchor="start" x="246" y="-263.9" font-family="Arial" font-size="14.00" fill="#000000">concatenatedbroadcastchannelids </text>
<text text-anchor="start" x="462.3056" y="-263.9" font-family="Arial" font-size="14.00" fill="#666666">[text]</text>
<polygon fill="none" stroke="#000000" points="239,-222.5 239,-252.5 568,-252.5 568,-222.5 239,-222.5"/>
<text text-anchor="start" x="246" y="-233.9" font-family="Arial" font-size="14.00" fill="#000000">channelidtorootid </text>
<text text-anchor="start" x="356.4782" y="-233.9" font-family="Arial" font-size="14.00" fill="#666666">[text]</text>
<polygon fill="none" stroke="#000000" points="239,-192.5 239,-222.5 568,-222.5 568,-192.5 239,-192.5"/>
<text text-anchor="start" x="246" y="-203.9" font-family="Arial" font-size="14.00" fill="#000000">remindertimerdefaultseconds </text>
<text text-anchor="start" x="430.359" y="-203.9" font-family="Arial" font-size="14.00" fill="#666666">[bigint]</text>
<polygon fill="none" stroke="#000000" points="239,-162.5 239,-192.5 568,-192.5 568,-162.5 239,-162.5"/>
<text text-anchor="start" x="246" y="-173.9" font-family="Arial" font-size="14.00" fill="#000000">statusupdateenabled </text>
<text text-anchor="start" x="379.8428" y="-173.9" font-family="Arial" font-size="14.00" fill="#666666">[boolean]</text>
<polygon fill="none" stroke="#000000" points="239,-132.5 239,-162.5 568,-162.5 568,-132.5 239,-132.5"/>
<text text-anchor="start" x="246" y="-143.9" font-family="Arial" font-size="14.00" fill="#000000">retrospectiveenabled </text>
<text text-anchor="start" x="379.8148" y="-143.9" font-family="Arial" font-size="14.00" fill="#666666">[boolean]</text>
<polygon fill="none" stroke="#000000" points="239,-102.5 239,-132.5 568,-132.5 568,-102.5 239,-102.5"/>
<text text-anchor="start" x="246" y="-113.9" font-family="Arial" font-size="14.00" fill="#000000">statusupdatebroadcastchannelsenabled </text>
<text text-anchor="start" x="497.3266" y="-113.9" font-family="Arial" font-size="14.00" fill="#666666">[boolean]</text>
<polygon fill="none" stroke="#000000" points="239,-72.5 239,-102.5 568,-102.5 568,-72.5 239,-72.5"/>
<text text-anchor="start" x="245.545" y="-83.9" font-family="Arial" font-size="14.00" fill="#000000">statusupdatebroadcastwebhooksenabled </text>
<text text-anchor="start" x="503.8716" y="-83.9" font-family="Arial" font-size="14.00" fill="#666666">[boolean]</text>
<polygon fill="none" stroke="#000000" points="239,-42.5 239,-72.5 568,-72.5 568,-42.5 239,-42.5"/>
<text text-anchor="start" x="246" y="-53.9" font-family="Arial" font-size="14.00" fill="#000000">summarymodifiedat </text>
<text text-anchor="start" x="372.0056" y="-53.9" font-family="Arial" font-size="14.00" fill="#666666">[bigint]</text>
</g>
<!-- public.ir_statusposts&#45;&gt;public.ir_incident -->
<g id="edge1" class="edge">
<title>public.ir_statusposts:incidentid&#45;&gt;public.ir_incident:id</title>
<path fill="none" stroke="#000000" d="M257.0712,-1565.9817C229.4291,-1556.4384 242.8038,-1504.2626 267,-1477 356.4338,-1376.2325 478.5662,-1541.7675 568,-1441 595.5843,-1409.92 609.5556,-1347.5 568,-1347.5"/>
<polygon fill="#000000" stroke="#000000" points="257.1149,-1565.9883 266.3198,-1571.9483 262.0575,-1566.7442 267,-1567.5 267,-1567.5 267,-1567.5 262.0575,-1566.7442 267.6802,-1563.0517 257.1149,-1565.9883 257.1149,-1565.9883"/>
<text text-anchor="start" x="7.0545" y="-1577.5" font-family="Arial" font-size="10.00" fill="#000000">FOREIGN KEY (incidentid) REFERENCES ir_incident(id)</text>
</g>
</g>
</svg>
