<?xml version="1.0" encoding="UTF-8" standalone="no"?>
<!DOCTYPE svg PUBLIC "-//W3C//DTD SVG 1.1//EN"
 "http://www.w3.org/Graphics/SVG/1.1/DTD/svg11.dtd">
<!-- Generated by graphviz version 2.40.1 (20161225.0304)
 -->
<!-- Title: public.ir_category Pages: 1 -->
<svg width="622pt" height="622pt"
 viewBox="0.00 0.00 622.00 622.00" xmlns="http://www.w3.org/2000/svg" xmlns:xlink="http://www.w3.org/1999/xlink">
<g id="graph0" class="graph" transform="scale(1 1) rotate(0) translate(4 618)">
<title>public.ir_category</title>
<polygon fill="#ffffff" stroke="transparent" points="-4,4 -4,-618 618,-618 618,4 -4,4"/>
<!-- public.ir_category -->
<g id="node1" class="node">
<title>public.ir_category</title>
<polygon fill="#efefef" stroke="transparent" points="65,-285.5 65,-320.5 317,-320.5 317,-285.5 65,-285.5"/>
<polygon fill="none" stroke="#000000" points="65,-285.5 65,-320.5 317,-320.5 317,-285.5 65,-285.5"/>
<text text-anchor="start" x="71.8626" y="-298.3" font-family="Arial Bold" font-size="18.00" fill="#000000">public.ir_category</text>
<text text-anchor="start" x="212.8836" y="-298.3" font-family="Arial" font-size="14.00" fill="#000000"> </text>
<text text-anchor="start" x="216.7742" y="-298.3" font-family="Arial" font-size="14.00" fill="#666666">[BASE TABLE]</text>
<polygon fill="none" stroke="#000000" points="65,-255.5 65,-285.5 317,-285.5 317,-255.5 65,-255.5"/>
<text text-anchor="start" x="72" y="-266.9" font-family="Arial" font-size="14.00" fill="#000000">id </text>
<text text-anchor="start" x="86.7798" y="-266.9" font-family="Arial" font-size="14.00" fill="#666666">[text]</text>
<polygon fill="none" stroke="#000000" points="65,-225.5 65,-255.5 317,-255.5 317,-225.5 65,-225.5"/>
<text text-anchor="start" x="72" y="-236.9" font-family="Arial" font-size="14.00" fill="#000000">name </text>
<text text-anchor="start" x="110.899" y="-236.9" font-family="Arial" font-size="14.00" fill="#666666">[text]</text>
<polygon fill="none" stroke="#000000" points="65,-195.5 65,-225.5 317,-225.5 317,-195.5 65,-195.5"/>
<text text-anchor="start" x="72" y="-206.9" font-family="Arial" font-size="14.00" fill="#000000">teamid </text>
<text text-anchor="start" x="117.8962" y="-206.9" font-family="Arial" font-size="14.00" fill="#666666">[text]</text>
<polygon fill="none" stroke="#000000" points="65,-165.5 65,-195.5 317,-195.5 317,-165.5 65,-165.5"/>
<text text-anchor="start" x="72" y="-176.9" font-family="Arial" font-size="14.00" fill="#000000">userid </text>
<text text-anchor="start" x="114.0056" y="-176.9" font-family="Arial" font-size="14.00" fill="#666666">[text]</text>
<polygon fill="none" stroke="#000000" points="65,-135.5 65,-165.5 317,-165.5 317,-135.5 65,-135.5"/>
<text text-anchor="start" x="72" y="-146.9" font-family="Arial" font-size="14.00" fill="#000000">collapsed </text>
<text text-anchor="start" x="135.0168" y="-146.9" font-family="Arial" font-size="14.00" fill="#666666">[boolean]</text>
<polygon fill="none" stroke="#000000" points="65,-105.5 65,-135.5 317,-135.5 317,-105.5 65,-105.5"/>
<text text-anchor="start" x="72" y="-116.9" font-family="Arial" font-size="14.00" fill="#000000">createat </text>
<text text-anchor="start" x="126.4628" y="-116.9" font-family="Arial" font-size="14.00" fill="#666666">[bigint]</text>
<polygon fill="none" stroke="#000000" points="65,-75.5 65,-105.5 317,-105.5 317,-75.5 65,-75.5"/>
<text text-anchor="start" x="72" y="-86.9" font-family="Arial" font-size="14.00" fill="#000000">updateat </text>
<text text-anchor="start" x="130.3674" y="-86.9" font-family="Arial" font-size="14.00" fill="#666666">[bigint]</text>
<polygon fill="none" stroke="#000000" points="65,-45.5 65,-75.5 317,-75.5 317,-45.5 65,-45.5"/>
<text text-anchor="start" x="72" y="-56.9" font-family="Arial" font-size="14.00" fill="#000000">deleteat </text>
<text text-anchor="start" x="125.6914" y="-56.9" font-family="Arial" font-size="14.00" fill="#666666">[bigint]</text>
<polygon fill="none" stroke="#000000" stroke-width="3" points="63.5,-44.5 63.5,-322.5 318.5,-322.5 318.5,-44.5 63.5,-44.5"/>
</g>
<!-- public.ir_category_item -->
<g id="node2" class="node">
<title>public.ir_category_item</title>
<polygon fill="#efefef" stroke="transparent" points="43,-535.5 43,-570.5 339,-570.5 339,-535.5 43,-535.5"/>
<polygon fill="none" stroke="#000000" points="43,-535.5 43,-570.5 339,-570.5 339,-535.5 43,-535.5"/>
<text text-anchor="start" x="49.8621" y="-548.3" font-family="Arial Bold" font-size="18.00" fill="#000000">public.ir_category_item</text>
<text text-anchor="start" x="234.8841" y="-548.3" font-family="Arial" font-size="14.00" fill="#000000"> </text>
<text text-anchor="start" x="238.7747" y="-548.3" font-family="Arial" font-size="14.00" fill="#666666">[BASE TABLE]</text>
<polygon fill="none" stroke="#000000" points="43,-505.5 43,-535.5 339,-535.5 339,-505.5 43,-505.5"/>
<text text-anchor="start" x="50" y="-516.9" font-family="Arial" font-size="14.00" fill="#000000">type </text>
<text text-anchor="start" x="80.3464" y="-516.9" font-family="Arial" font-size="14.00" fill="#666666">[text]</text>
<polygon fill="none" stroke="#000000" points="43,-475.5 43,-505.5 339,-505.5 339,-475.5 43,-475.5"/>
<text text-anchor="start" x="50" y="-486.9" font-family="Arial" font-size="14.00" fill="#000000">categoryid </text>
<text text-anchor="start" x="118.4614" y="-486.9" font-family="Arial" font-size="14.00" fill="#666666">[text]</text>
<polygon fill="none" stroke="#000000" points="43,-445.5 43,-475.5 339,-475.5 339,-445.5 43,-445.5"/>
<text text-anchor="start" x="50" y="-456.9" font-family="Arial" font-size="14.00" fill="#000000">itemid </text>
<text text-anchor="start" x="91.2202" y="-456.9" font-family="Arial" font-size="14.00" fill="#666666">[text]</text>
</g>
<!-- public.ir_category_item&#45;&gt;public.ir_category -->
<g id="edge1" class="edge">
<title>public.ir_category_item:categoryid&#45;&gt;public.ir_category:id</title>
<path fill="none" stroke="#000000" d="M349.1828,-489.6591C435.576,-474.8888 411.7148,-270.5 317,-270.5"/>
<polygon fill="#000000" stroke="#000000" points="348.9661,-489.6769 338.6296,-486.0153 343.983,-490.0884 339,-490.5 339,-490.5 339,-490.5 343.983,-490.0884 339.3704,-494.9847 348.9661,-489.6769 348.9661,-489.6769"/>
<text text-anchor="start" x="346.1635" y="-500.5" font-family="Arial" font-size="10.00" fill="#000000">FOREIGN KEY (categoryid) REFERENCES ir_category(id)</text>
</g>
</g>
</svg>
