<?xml version="1.0" encoding="UTF-8" standalone="no"?>
<!DOCTYPE svg PUBLIC "-//W3C//DTD SVG 1.1//EN"
 "http://www.w3.org/Graphics/SVG/1.1/DTD/svg11.dtd">
<!-- Generated by graphviz version 2.40.1 (20161225.0304)
 -->
<!-- Title: public.usertermsofservice Pages: 1 -->
<svg width="415pt" height="225pt"
 viewBox="0.00 0.00 415.00 225.00" xmlns="http://www.w3.org/2000/svg" xmlns:xlink="http://www.w3.org/1999/xlink">
<g id="graph0" class="graph" transform="scale(1 1) rotate(0) translate(4 221)">
<title>public.usertermsofservice</title>
<polygon fill="#ffffff" stroke="transparent" points="-4,4 -4,-221 411,-221 411,4 -4,4"/>
<!-- public.usertermsofservice -->
<g id="node1" class="node">
<title>public.usertermsofservice</title>
<polygon fill="#efefef" stroke="transparent" points="46.5,-135.5 46.5,-170.5 361.5,-170.5 361.5,-135.5 46.5,-135.5"/>
<polygon fill="none" stroke="#000000" points="46.5,-135.5 46.5,-170.5 361.5,-170.5 361.5,-135.5 46.5,-135.5"/>
<text text-anchor="start" x="53.3662" y="-148.3" font-family="Arial Bold" font-size="18.00" fill="#000000">public.usertermsofservice</text>
<text text-anchor="start" x="257.38" y="-148.3" font-family="Arial" font-size="14.00" fill="#000000"> </text>
<text text-anchor="start" x="261.2706" y="-148.3" font-family="Arial" font-size="14.00" fill="#666666">[BASE TABLE]</text>
<polygon fill="none" stroke="#000000" points="46.5,-105.5 46.5,-135.5 361.5,-135.5 361.5,-105.5 46.5,-105.5"/>
<text text-anchor="start" x="53.5" y="-116.9" font-family="Arial" font-size="14.00" fill="#000000">userid </text>
<text text-anchor="start" x="95.5056" y="-116.9" font-family="Arial" font-size="14.00" fill="#666666">[varchar(26)]</text>
<polygon fill="none" stroke="#000000" points="46.5,-75.5 46.5,-105.5 361.5,-105.5 361.5,-75.5 46.5,-75.5"/>
<text text-anchor="start" x="53.5" y="-86.9" font-family="Arial" font-size="14.00" fill="#000000">termsofserviceid </text>
<text text-anchor="start" x="159.2798" y="-86.9" font-family="Arial" font-size="14.00" fill="#666666">[varchar(26)]</text>
<polygon fill="none" stroke="#000000" points="46.5,-45.5 46.5,-75.5 361.5,-75.5 361.5,-45.5 46.5,-45.5"/>
<text text-anchor="start" x="53.5" y="-56.9" font-family="Arial" font-size="14.00" fill="#000000">createat </text>
<text text-anchor="start" x="107.9628" y="-56.9" font-family="Arial" font-size="14.00" fill="#666666">[bigint]</text>
<polygon fill="none" stroke="#000000" stroke-width="3" points="44.5,-44.5 44.5,-172.5 362.5,-172.5 362.5,-44.5 44.5,-44.5"/>
</g>
</g>
</svg>
