<?xml version="1.0" encoding="UTF-8" standalone="no"?>
<!DOCTYPE svg PUBLIC "-//W3C//DTD SVG 1.1//EN"
 "http://www.w3.org/Graphics/SVG/1.1/DTD/svg11.dtd">
<!-- Generated by graphviz version 2.40.1 (20161225.0304)
 -->
<!-- Title: public.ir_metric Pages: 1 -->
<svg width="843pt" height="1732pt"
 viewBox="0.00 0.00 842.50 1732.00" xmlns="http://www.w3.org/2000/svg" xmlns:xlink="http://www.w3.org/1999/xlink">
<g id="graph0" class="graph" transform="scale(1 1) rotate(0) translate(4 1728)">
<title>public.ir_metric</title>
<polygon fill="#ffffff" stroke="transparent" points="-4,4 -4,-1728 838.5,-1728 838.5,4 -4,4"/>
<!-- public.ir_metric -->
<g id="node1" class="node">
<title>public.ir_metric</title>
<polygon fill="#efefef" stroke="transparent" points="296.5,-1642.5 296.5,-1677.5 528.5,-1677.5 528.5,-1642.5 296.5,-1642.5"/>
<polygon fill="none" stroke="#000000" points="296.5,-1642.5 296.5,-1677.5 528.5,-1677.5 528.5,-1642.5 296.5,-1642.5"/>
<text text-anchor="start" x="303.3787" y="-1655.3" font-family="Arial Bold" font-size="18.00" fill="#000000">public.ir_metric</text>
<text text-anchor="start" x="424.3675" y="-1655.3" font-family="Arial" font-size="14.00" fill="#000000"> </text>
<text text-anchor="start" x="428.2581" y="-1655.3" font-family="Arial" font-size="14.00" fill="#666666">[BASE TABLE]</text>
<polygon fill="none" stroke="#000000" points="296.5,-1612.5 296.5,-1642.5 528.5,-1642.5 528.5,-1612.5 296.5,-1612.5"/>
<text text-anchor="start" x="303.5" y="-1623.9" font-family="Arial" font-size="14.00" fill="#000000">incidentid </text>
<text text-anchor="start" x="366.514" y="-1623.9" font-family="Arial" font-size="14.00" fill="#666666">[text]</text>
<polygon fill="none" stroke="#000000" points="296.5,-1582.5 296.5,-1612.5 528.5,-1612.5 528.5,-1582.5 296.5,-1582.5"/>
<text text-anchor="start" x="303.5" y="-1593.9" font-family="Arial" font-size="14.00" fill="#000000">metricconfigid </text>
<text text-anchor="start" x="393.7258" y="-1593.9" font-family="Arial" font-size="14.00" fill="#666666">[text]</text>
<polygon fill="none" stroke="#000000" points="296.5,-1552.5 296.5,-1582.5 528.5,-1582.5 528.5,-1552.5 296.5,-1552.5"/>
<text text-anchor="start" x="303.5" y="-1563.9" font-family="Arial" font-size="14.00" fill="#000000">value </text>
<text text-anchor="start" x="340.845" y="-1563.9" font-family="Arial" font-size="14.00" fill="#666666">[bigint]</text>
<polygon fill="none" stroke="#000000" points="296.5,-1522.5 296.5,-1552.5 528.5,-1552.5 528.5,-1522.5 296.5,-1522.5"/>
<text text-anchor="start" x="303.5" y="-1533.9" font-family="Arial" font-size="14.00" fill="#000000">published </text>
<text text-anchor="start" x="367.2994" y="-1533.9" font-family="Arial" font-size="14.00" fill="#666666">[boolean]</text>
<polygon fill="none" stroke="#000000" stroke-width="3" points="295,-1521.5 295,-1679.5 530,-1679.5 530,-1521.5 295,-1521.5"/>
</g>
<!-- public.ir_incident -->
<g id="node2" class="node">
<title>public.ir_incident</title>
<polygon fill="#efefef" stroke="transparent" points="43.5,-1362.5 43.5,-1397.5 372.5,-1397.5 372.5,-1362.5 43.5,-1362.5"/>
<polygon fill="none" stroke="#000000" points="43.5,-1362.5 43.5,-1397.5 372.5,-1397.5 372.5,-1362.5 43.5,-1362.5"/>
<text text-anchor="start" x="92.3645" y="-1375.3" font-family="Arial Bold" font-size="18.00" fill="#000000">public.ir_incident</text>
<text text-anchor="start" x="226.3817" y="-1375.3" font-family="Arial" font-size="14.00" fill="#000000"> </text>
<text text-anchor="start" x="230.2723" y="-1375.3" font-family="Arial" font-size="14.00" fill="#666666">[BASE TABLE]</text>
<polygon fill="none" stroke="#000000" points="43.5,-1332.5 43.5,-1362.5 372.5,-1362.5 372.5,-1332.5 43.5,-1332.5"/>
<text text-anchor="start" x="50.5" y="-1343.9" font-family="Arial" font-size="14.00" fill="#000000">id </text>
<text text-anchor="start" x="65.2798" y="-1343.9" font-family="Arial" font-size="14.00" fill="#666666">[text]</text>
<polygon fill="none" stroke="#000000" points="43.5,-1302.5 43.5,-1332.5 372.5,-1332.5 372.5,-1302.5 43.5,-1302.5"/>
<text text-anchor="start" x="50.5" y="-1313.9" font-family="Arial" font-size="14.00" fill="#000000">name </text>
<text text-anchor="start" x="89.399" y="-1313.9" font-family="Arial" font-size="14.00" fill="#666666">[text]</text>
<polygon fill="none" stroke="#000000" points="43.5,-1272.5 43.5,-1302.5 372.5,-1302.5 372.5,-1272.5 43.5,-1272.5"/>
<text text-anchor="start" x="50.5" y="-1283.9" font-family="Arial" font-size="14.00" fill="#000000">description </text>
<text text-anchor="start" x="122.068" y="-1283.9" font-family="Arial" font-size="14.00" fill="#666666">[text]</text>
<polygon fill="none" stroke="#000000" points="43.5,-1242.5 43.5,-1272.5 372.5,-1272.5 372.5,-1242.5 43.5,-1242.5"/>
<text text-anchor="start" x="50.5" y="-1253.9" font-family="Arial" font-size="14.00" fill="#000000">isactive </text>
<text text-anchor="start" x="101.0596" y="-1253.9" font-family="Arial" font-size="14.00" fill="#666666">[boolean]</text>
<polygon fill="none" stroke="#000000" points="43.5,-1212.5 43.5,-1242.5 372.5,-1242.5 372.5,-1212.5 43.5,-1212.5"/>
<text text-anchor="start" x="50.5" y="-1223.9" font-family="Arial" font-size="14.00" fill="#000000">commanderuserid </text>
<text text-anchor="start" x="166.4004" y="-1223.9" font-family="Arial" font-size="14.00" fill="#666666">[text]</text>
<polygon fill="none" stroke="#000000" points="43.5,-1182.5 43.5,-1212.5 372.5,-1212.5 372.5,-1182.5 43.5,-1182.5"/>
<text text-anchor="start" x="50.5" y="-1193.9" font-family="Arial" font-size="14.00" fill="#000000">teamid </text>
<text text-anchor="start" x="96.3962" y="-1193.9" font-family="Arial" font-size="14.00" fill="#666666">[text]</text>
<polygon fill="none" stroke="#000000" points="43.5,-1152.5 43.5,-1182.5 372.5,-1182.5 372.5,-1152.5 43.5,-1152.5"/>
<text text-anchor="start" x="50.5" y="-1163.9" font-family="Arial" font-size="14.00" fill="#000000">channelid </text>
<text text-anchor="start" x="114.2994" y="-1163.9" font-family="Arial" font-size="14.00" fill="#666666">[text]</text>
<polygon fill="none" stroke="#000000" points="43.5,-1122.5 43.5,-1152.5 372.5,-1152.5 372.5,-1122.5 43.5,-1122.5"/>
<text text-anchor="start" x="50.5" y="-1133.9" font-family="Arial" font-size="14.00" fill="#000000">createat </text>
<text text-anchor="start" x="104.9628" y="-1133.9" font-family="Arial" font-size="14.00" fill="#666666">[bigint]</text>
<polygon fill="none" stroke="#000000" points="43.5,-1092.5 43.5,-1122.5 372.5,-1122.5 372.5,-1092.5 43.5,-1092.5"/>
<text text-anchor="start" x="50.5" y="-1103.9" font-family="Arial" font-size="14.00" fill="#000000">endat </text>
<text text-anchor="start" x="89.4116" y="-1103.9" font-family="Arial" font-size="14.00" fill="#666666">[bigint]</text>
<polygon fill="none" stroke="#000000" points="43.5,-1062.5 43.5,-1092.5 372.5,-1092.5 372.5,-1062.5 43.5,-1062.5"/>
<text text-anchor="start" x="50.5" y="-1073.9" font-family="Arial" font-size="14.00" fill="#000000">deleteat </text>
<text text-anchor="start" x="104.1914" y="-1073.9" font-family="Arial" font-size="14.00" fill="#666666">[bigint]</text>
<polygon fill="none" stroke="#000000" points="43.5,-1032.5 43.5,-1062.5 372.5,-1062.5 372.5,-1032.5 43.5,-1032.5"/>
<text text-anchor="start" x="50.5" y="-1043.9" font-family="Arial" font-size="14.00" fill="#000000">activestage </text>
<text text-anchor="start" x="125.1914" y="-1043.9" font-family="Arial" font-size="14.00" fill="#666666">[bigint]</text>
<polygon fill="none" stroke="#000000" points="43.5,-1002.5 43.5,-1032.5 372.5,-1032.5 372.5,-1002.5 43.5,-1002.5"/>
<text text-anchor="start" x="50.5" y="-1013.9" font-family="Arial" font-size="14.00" fill="#000000">postid </text>
<text text-anchor="start" x="91.7356" y="-1013.9" font-family="Arial" font-size="14.00" fill="#666666">[text]</text>
<polygon fill="none" stroke="#000000" points="43.5,-972.5 43.5,-1002.5 372.5,-1002.5 372.5,-972.5 43.5,-972.5"/>
<text text-anchor="start" x="50.5" y="-983.9" font-family="Arial" font-size="14.00" fill="#000000">playbookid </text>
<text text-anchor="start" x="121.2994" y="-983.9" font-family="Arial" font-size="14.00" fill="#666666">[text]</text>
<polygon fill="none" stroke="#000000" points="43.5,-942.5 43.5,-972.5 372.5,-972.5 372.5,-942.5 43.5,-942.5"/>
<text text-anchor="start" x="50.5" y="-953.9" font-family="Arial" font-size="14.00" fill="#000000">checklistsjson </text>
<text text-anchor="start" x="140.7314" y="-953.9" font-family="Arial" font-size="14.00" fill="#666666">[json]</text>
<polygon fill="none" stroke="#000000" points="43.5,-912.5 43.5,-942.5 372.5,-942.5 372.5,-912.5 43.5,-912.5"/>
<text text-anchor="start" x="50.5" y="-923.9" font-family="Arial" font-size="14.00" fill="#000000">activestagetitle </text>
<text text-anchor="start" x="146.9684" y="-923.9" font-family="Arial" font-size="14.00" fill="#666666">[text]</text>
<polygon fill="none" stroke="#000000" points="43.5,-882.5 43.5,-912.5 372.5,-912.5 372.5,-882.5 43.5,-882.5"/>
<text text-anchor="start" x="50.5" y="-893.9" font-family="Arial" font-size="14.00" fill="#000000">reminderpostid </text>
<text text-anchor="start" x="146.9544" y="-893.9" font-family="Arial" font-size="14.00" fill="#666666">[text]</text>
<polygon fill="none" stroke="#000000" points="43.5,-852.5 43.5,-882.5 372.5,-882.5 372.5,-852.5 43.5,-852.5"/>
<text text-anchor="start" x="50.5" y="-863.9" font-family="Arial" font-size="14.00" fill="#000000">broadcastchannelid </text>
<text text-anchor="start" x="175.7636" y="-863.9" font-family="Arial" font-size="14.00" fill="#666666">[text]</text>
<polygon fill="none" stroke="#000000" points="43.5,-822.5 43.5,-852.5 372.5,-852.5 372.5,-822.5 43.5,-822.5"/>
<text text-anchor="start" x="50.5" y="-833.9" font-family="Arial" font-size="14.00" fill="#000000">previousreminder </text>
<text text-anchor="start" x="162.507" y="-833.9" font-family="Arial" font-size="14.00" fill="#666666">[bigint]</text>
<polygon fill="none" stroke="#000000" points="43.5,-792.5 43.5,-822.5 372.5,-822.5 372.5,-792.5 43.5,-792.5"/>
<text text-anchor="start" x="50.5" y="-803.9" font-family="Arial" font-size="14.00" fill="#000000">remindermessagetemplate </text>
<text text-anchor="start" x="220.0792" y="-803.9" font-family="Arial" font-size="14.00" fill="#666666">[text]</text>
<polygon fill="none" stroke="#000000" points="43.5,-762.5 43.5,-792.5 372.5,-792.5 372.5,-762.5 43.5,-762.5"/>
<text text-anchor="start" x="50.5" y="-773.9" font-family="Arial" font-size="14.00" fill="#000000">currentstatus </text>
<text text-anchor="start" x="135.2966" y="-773.9" font-family="Arial" font-size="14.00" fill="#666666">[text]</text>
<polygon fill="none" stroke="#000000" points="43.5,-732.5 43.5,-762.5 372.5,-762.5 372.5,-732.5 43.5,-732.5"/>
<text text-anchor="start" x="50.5" y="-743.9" font-family="Arial" font-size="14.00" fill="#000000">reporteruserid </text>
<text text-anchor="start" x="141.5084" y="-743.9" font-family="Arial" font-size="14.00" fill="#666666">[text]</text>
<polygon fill="none" stroke="#000000" points="43.5,-702.5 43.5,-732.5 372.5,-732.5 372.5,-702.5 43.5,-702.5"/>
<text text-anchor="start" x="50.5" y="-713.9" font-family="Arial" font-size="14.00" fill="#000000">concatenatedinviteduserids </text>
<text text-anchor="start" x="223.9992" y="-713.9" font-family="Arial" font-size="14.00" fill="#666666">[text]</text>
<polygon fill="none" stroke="#000000" points="43.5,-672.5 43.5,-702.5 372.5,-702.5 372.5,-672.5 43.5,-672.5"/>
<text text-anchor="start" x="50.5" y="-683.9" font-family="Arial" font-size="14.00" fill="#000000">defaultcommanderid </text>
<text text-anchor="start" x="181.1928" y="-683.9" font-family="Arial" font-size="14.00" fill="#666666">[text]</text>
<polygon fill="none" stroke="#000000" points="43.5,-642.5 43.5,-672.5 372.5,-672.5 372.5,-642.5 43.5,-642.5"/>
<text text-anchor="start" x="50.5" y="-653.9" font-family="Arial" font-size="14.00" fill="#000000">announcementchannelid </text>
<text text-anchor="start" x="206.894" y="-653.9" font-family="Arial" font-size="14.00" fill="#666666">[text]</text>
<polygon fill="none" stroke="#000000" points="43.5,-612.5 43.5,-642.5 372.5,-642.5 372.5,-612.5 43.5,-612.5"/>
<text text-anchor="start" x="50.5" y="-623.9" font-family="Arial" font-size="14.00" fill="#000000">concatenatedwebhookoncreationurls </text>
<text text-anchor="start" x="282.3554" y="-623.9" font-family="Arial" font-size="14.00" fill="#666666">[text]</text>
<polygon fill="none" stroke="#000000" points="43.5,-582.5 43.5,-612.5 372.5,-612.5 372.5,-582.5 43.5,-582.5"/>
<text text-anchor="start" x="50.5" y="-593.9" font-family="Arial" font-size="14.00" fill="#000000">concatenatedinvitedgroupids </text>
<text text-anchor="start" x="232.5644" y="-593.9" font-family="Arial" font-size="14.00" fill="#666666">[text]</text>
<polygon fill="none" stroke="#000000" points="43.5,-552.5 43.5,-582.5 372.5,-582.5 372.5,-552.5 43.5,-552.5"/>
<text text-anchor="start" x="50.5" y="-563.9" font-family="Arial" font-size="14.00" fill="#000000">retrospective </text>
<text text-anchor="start" x="134.5126" y="-563.9" font-family="Arial" font-size="14.00" fill="#666666">[text]</text>
<polygon fill="none" stroke="#000000" points="43.5,-522.5 43.5,-552.5 372.5,-552.5 372.5,-522.5 43.5,-522.5"/>
<text text-anchor="start" x="50.5" y="-533.9" font-family="Arial" font-size="14.00" fill="#000000">messageonjoin </text>
<text text-anchor="start" x="148.5252" y="-533.9" font-family="Arial" font-size="14.00" fill="#666666">[text]</text>
<polygon fill="none" stroke="#000000" points="43.5,-492.5 43.5,-522.5 372.5,-522.5 372.5,-492.5 43.5,-492.5"/>
<text text-anchor="start" x="50.5" y="-503.9" font-family="Arial" font-size="14.00" fill="#000000">retrospectivepublishedat </text>
<text text-anchor="start" x="206.0946" y="-503.9" font-family="Arial" font-size="14.00" fill="#666666">[bigint]</text>
<polygon fill="none" stroke="#000000" points="43.5,-462.5 43.5,-492.5 372.5,-492.5 372.5,-462.5 43.5,-462.5"/>
<text text-anchor="start" x="50.5" y="-473.9" font-family="Arial" font-size="14.00" fill="#000000">retrospectivereminderintervalseconds </text>
<text text-anchor="start" x="286.974" y="-473.9" font-family="Arial" font-size="14.00" fill="#666666">[bigint]</text>
<polygon fill="none" stroke="#000000" points="43.5,-432.5 43.5,-462.5 372.5,-462.5 372.5,-432.5 43.5,-432.5"/>
<text text-anchor="start" x="50.5" y="-443.9" font-family="Arial" font-size="14.00" fill="#000000">retrospectivewascanceled </text>
<text text-anchor="start" x="215.4214" y="-443.9" font-family="Arial" font-size="14.00" fill="#666666">[boolean]</text>
<polygon fill="none" stroke="#000000" points="43.5,-402.5 43.5,-432.5 372.5,-432.5 372.5,-402.5 43.5,-402.5"/>
<text text-anchor="start" x="50.5" y="-413.9" font-family="Arial" font-size="14.00" fill="#000000">concatenatedwebhookonstatusupdateurls </text>
<text text-anchor="start" x="312.7172" y="-413.9" font-family="Arial" font-size="14.00" fill="#666666">[text]</text>
<polygon fill="none" stroke="#000000" points="43.5,-372.5 43.5,-402.5 372.5,-402.5 372.5,-372.5 43.5,-372.5"/>
<text text-anchor="start" x="50.5" y="-383.9" font-family="Arial" font-size="14.00" fill="#000000">laststatusupdateat </text>
<text text-anchor="start" x="167.9936" y="-383.9" font-family="Arial" font-size="14.00" fill="#666666">[bigint]</text>
<polygon fill="none" stroke="#000000" points="43.5,-342.5 43.5,-372.5 372.5,-372.5 372.5,-342.5 43.5,-342.5"/>
<text text-anchor="start" x="50.5" y="-353.9" font-family="Arial" font-size="14.00" fill="#000000">exportchannelonfinishedenabled </text>
<text text-anchor="start" x="255.9108" y="-353.9" font-family="Arial" font-size="14.00" fill="#666666">[boolean]</text>
<polygon fill="none" stroke="#000000" points="43.5,-312.5 43.5,-342.5 372.5,-342.5 372.5,-312.5 43.5,-312.5"/>
<text text-anchor="start" x="50.5" y="-323.9" font-family="Arial" font-size="14.00" fill="#000000">categorizechannelenabled </text>
<text text-anchor="start" x="217.7832" y="-323.9" font-family="Arial" font-size="14.00" fill="#666666">[boolean]</text>
<polygon fill="none" stroke="#000000" points="43.5,-282.5 43.5,-312.5 372.5,-312.5 372.5,-282.5 43.5,-282.5"/>
<text text-anchor="start" x="50.5" y="-293.9" font-family="Arial" font-size="14.00" fill="#000000">categoryname </text>
<text text-anchor="start" x="143.0806" y="-293.9" font-family="Arial" font-size="14.00" fill="#666666">[text]</text>
<polygon fill="none" stroke="#000000" points="43.5,-252.5 43.5,-282.5 372.5,-282.5 372.5,-252.5 43.5,-252.5"/>
<text text-anchor="start" x="50.5" y="-263.9" font-family="Arial" font-size="14.00" fill="#000000">concatenatedbroadcastchannelids </text>
<text text-anchor="start" x="266.8056" y="-263.9" font-family="Arial" font-size="14.00" fill="#666666">[text]</text>
<polygon fill="none" stroke="#000000" points="43.5,-222.5 43.5,-252.5 372.5,-252.5 372.5,-222.5 43.5,-222.5"/>
<text text-anchor="start" x="50.5" y="-233.9" font-family="Arial" font-size="14.00" fill="#000000">channelidtorootid </text>
<text text-anchor="start" x="160.9782" y="-233.9" font-family="Arial" font-size="14.00" fill="#666666">[text]</text>
<polygon fill="none" stroke="#000000" points="43.5,-192.5 43.5,-222.5 372.5,-222.5 372.5,-192.5 43.5,-192.5"/>
<text text-anchor="start" x="50.5" y="-203.9" font-family="Arial" font-size="14.00" fill="#000000">remindertimerdefaultseconds </text>
<text text-anchor="start" x="234.859" y="-203.9" font-family="Arial" font-size="14.00" fill="#666666">[bigint]</text>
<polygon fill="none" stroke="#000000" points="43.5,-162.5 43.5,-192.5 372.5,-192.5 372.5,-162.5 43.5,-162.5"/>
<text text-anchor="start" x="50.5" y="-173.9" font-family="Arial" font-size="14.00" fill="#000000">statusupdateenabled </text>
<text text-anchor="start" x="184.3428" y="-173.9" font-family="Arial" font-size="14.00" fill="#666666">[boolean]</text>
<polygon fill="none" stroke="#000000" points="43.5,-132.5 43.5,-162.5 372.5,-162.5 372.5,-132.5 43.5,-132.5"/>
<text text-anchor="start" x="50.5" y="-143.9" font-family="Arial" font-size="14.00" fill="#000000">retrospectiveenabled </text>
<text text-anchor="start" x="184.3148" y="-143.9" font-family="Arial" font-size="14.00" fill="#666666">[boolean]</text>
<polygon fill="none" stroke="#000000" points="43.5,-102.5 43.5,-132.5 372.5,-132.5 372.5,-102.5 43.5,-102.5"/>
<text text-anchor="start" x="50.5" y="-113.9" font-family="Arial" font-size="14.00" fill="#000000">statusupdatebroadcastchannelsenabled </text>
<text text-anchor="start" x="301.8266" y="-113.9" font-family="Arial" font-size="14.00" fill="#666666">[boolean]</text>
<polygon fill="none" stroke="#000000" points="43.5,-72.5 43.5,-102.5 372.5,-102.5 372.5,-72.5 43.5,-72.5"/>
<text text-anchor="start" x="50.045" y="-83.9" font-family="Arial" font-size="14.00" fill="#000000">statusupdatebroadcastwebhooksenabled </text>
<text text-anchor="start" x="308.3716" y="-83.9" font-family="Arial" font-size="14.00" fill="#666666">[boolean]</text>
<polygon fill="none" stroke="#000000" points="43.5,-42.5 43.5,-72.5 372.5,-72.5 372.5,-42.5 43.5,-42.5"/>
<text text-anchor="start" x="50.5" y="-53.9" font-family="Arial" font-size="14.00" fill="#000000">summarymodifiedat </text>
<text text-anchor="start" x="176.5056" y="-53.9" font-family="Arial" font-size="14.00" fill="#666666">[bigint]</text>
</g>
<!-- public.ir_metric&#45;&gt;public.ir_incident -->
<g id="edge1" class="edge">
<title>public.ir_metric:incidentid&#45;&gt;public.ir_incident:id</title>
<path fill="none" stroke="#000000" d="M286.3901,-1626.6783C233.0288,-1617.3332 262.6873,-1530.4308 296.5,-1477 316.4866,-1445.4172 352.5134,-1472.5828 372.5,-1441 394.7218,-1405.8851 414.0556,-1347.5 372.5,-1347.5"/>
<polygon fill="#000000" stroke="#000000" points="286.5329,-1626.6898 296.1354,-1631.9852 291.5164,-1627.0949 296.5,-1627.5 296.5,-1627.5 296.5,-1627.5 291.5164,-1627.0949 296.8646,-1623.0148 286.5329,-1626.6898 286.5329,-1626.6898"/>
<text text-anchor="start" x="36.5545" y="-1637.5" font-family="Arial" font-size="10.00" fill="#000000">FOREIGN KEY (incidentid) REFERENCES ir_incident(id)</text>
</g>
<!-- public.ir_metricconfig -->
<g id="node3" class="node">
<title>public.ir_metricconfig</title>
<polygon fill="#efefef" stroke="transparent" points="476.5,-822.5 476.5,-857.5 756.5,-857.5 756.5,-822.5 476.5,-822.5"/>
<polygon fill="none" stroke="#000000" points="476.5,-822.5 476.5,-857.5 756.5,-857.5 756.5,-822.5 476.5,-822.5"/>
<text text-anchor="start" x="483.3712" y="-835.3" font-family="Arial Bold" font-size="18.00" fill="#000000">public.ir_metricconfig</text>
<text text-anchor="start" x="652.375" y="-835.3" font-family="Arial" font-size="14.00" fill="#000000"> </text>
<text text-anchor="start" x="656.2656" y="-835.3" font-family="Arial" font-size="14.00" fill="#666666">[BASE TABLE]</text>
<polygon fill="none" stroke="#000000" points="476.5,-792.5 476.5,-822.5 756.5,-822.5 756.5,-792.5 476.5,-792.5"/>
<text text-anchor="start" x="483.5" y="-803.9" font-family="Arial" font-size="14.00" fill="#000000">id </text>
<text text-anchor="start" x="498.2798" y="-803.9" font-family="Arial" font-size="14.00" fill="#666666">[text]</text>
<polygon fill="none" stroke="#000000" points="476.5,-762.5 476.5,-792.5 756.5,-792.5 756.5,-762.5 476.5,-762.5"/>
<text text-anchor="start" x="483.5" y="-773.9" font-family="Arial" font-size="14.00" fill="#000000">playbookid </text>
<text text-anchor="start" x="554.2994" y="-773.9" font-family="Arial" font-size="14.00" fill="#666666">[text]</text>
<polygon fill="none" stroke="#000000" points="476.5,-732.5 476.5,-762.5 756.5,-762.5 756.5,-732.5 476.5,-732.5"/>
<text text-anchor="start" x="483.5" y="-743.9" font-family="Arial" font-size="14.00" fill="#000000">title </text>
<text text-anchor="start" x="509.1676" y="-743.9" font-family="Arial" font-size="14.00" fill="#666666">[text]</text>
<polygon fill="none" stroke="#000000" points="476.5,-702.5 476.5,-732.5 756.5,-732.5 756.5,-702.5 476.5,-702.5"/>
<text text-anchor="start" x="483.5" y="-713.9" font-family="Arial" font-size="14.00" fill="#000000">description </text>
<text text-anchor="start" x="555.068" y="-713.9" font-family="Arial" font-size="14.00" fill="#666666">[text]</text>
<polygon fill="none" stroke="#000000" points="476.5,-672.5 476.5,-702.5 756.5,-702.5 756.5,-672.5 476.5,-672.5"/>
<text text-anchor="start" x="483.5" y="-683.9" font-family="Arial" font-size="14.00" fill="#000000">type </text>
<text text-anchor="start" x="513.8464" y="-683.9" font-family="Arial" font-size="14.00" fill="#666666">[text]</text>
<polygon fill="none" stroke="#000000" points="476.5,-642.5 476.5,-672.5 756.5,-672.5 756.5,-642.5 476.5,-642.5"/>
<text text-anchor="start" x="483.5" y="-653.9" font-family="Arial" font-size="14.00" fill="#000000">target </text>
<text text-anchor="start" x="523.1802" y="-653.9" font-family="Arial" font-size="14.00" fill="#666666">[bigint]</text>
<polygon fill="none" stroke="#000000" points="476.5,-612.5 476.5,-642.5 756.5,-642.5 756.5,-612.5 476.5,-612.5"/>
<text text-anchor="start" x="483.5" y="-623.9" font-family="Arial" font-size="14.00" fill="#000000">ordering </text>
<text text-anchor="start" x="538.7314" y="-623.9" font-family="Arial" font-size="14.00" fill="#666666">[smallint]</text>
<polygon fill="none" stroke="#000000" points="476.5,-582.5 476.5,-612.5 756.5,-612.5 756.5,-582.5 476.5,-582.5"/>
<text text-anchor="start" x="483.5" y="-593.9" font-family="Arial" font-size="14.00" fill="#000000">deleteat </text>
<text text-anchor="start" x="537.1914" y="-593.9" font-family="Arial" font-size="14.00" fill="#666666">[bigint]</text>
</g>
<!-- public.ir_metric&#45;&gt;public.ir_metricconfig -->
<g id="edge2" class="edge">
<title>public.ir_metric:metricconfigid&#45;&gt;public.ir_metricconfig:id</title>
<path fill="none" stroke="#000000" d="M538.6026,-1596.5169C688.1143,-1565.4299 304.1726,-807.5 476.5,-807.5"/>
<polygon fill="#000000" stroke="#000000" points="538.453,-1596.5313 528.0641,-1593.0212 533.4765,-1597.0157 528.5,-1597.5 528.5,-1597.5 528.5,-1597.5 533.4765,-1597.0157 528.9359,-1601.9788 538.453,-1596.5313 538.453,-1596.5313"/>
<text text-anchor="start" x="535.1175" y="-1607.5" font-family="Arial" font-size="10.00" fill="#000000">FOREIGN KEY (metricconfigid) REFERENCES ir_metricconfig(id)</text>
</g>
</g>
</svg>
