<?xml version="1.0" encoding="UTF-8" standalone="no"?>
<!DOCTYPE svg PUBLIC "-//W3C//DTD SVG 1.1//EN"
 "http://www.w3.org/Graphics/SVG/1.1/DTD/svg11.dtd">
<!-- Generated by graphviz version 2.40.1 (20161225.0304)
 -->
<!-- Title: public.ir_playbookmember Pages: 1 -->
<svg width="655pt" height="1642pt"
 viewBox="0.00 0.00 654.50 1642.00" xmlns="http://www.w3.org/2000/svg" xmlns:xlink="http://www.w3.org/1999/xlink">
<g id="graph0" class="graph" transform="scale(1 1) rotate(0) translate(4 1638)">
<title>public.ir_playbookmember</title>
<polygon fill="#ffffff" stroke="transparent" points="-4,4 -4,-1638 650.5,-1638 650.5,4 -4,4"/>
<!-- public.ir_playbookmember -->
<g id="node1" class="node">
<title>public.ir_playbookmember</title>
<polygon fill="#efefef" stroke="transparent" points="46.5,-1552.5 46.5,-1587.5 367.5,-1587.5 367.5,-1552.5 46.5,-1552.5"/>
<polygon fill="none" stroke="#000000" points="46.5,-1552.5 46.5,-1587.5 367.5,-1587.5 367.5,-1552.5 46.5,-1552.5"/>
<text text-anchor="start" x="53.362" y="-1565.3" font-family="Arial Bold" font-size="18.00" fill="#000000">public.ir_playbookmember</text>
<text text-anchor="start" x="263.3842" y="-1565.3" font-family="Arial" font-size="14.00" fill="#000000"> </text>
<text text-anchor="start" x="267.2748" y="-1565.3" font-family="Arial" font-size="14.00" fill="#666666">[BASE TABLE]</text>
<polygon fill="none" stroke="#000000" points="46.5,-1522.5 46.5,-1552.5 367.5,-1552.5 367.5,-1522.5 46.5,-1522.5"/>
<text text-anchor="start" x="53.5" y="-1533.9" font-family="Arial" font-size="14.00" fill="#000000">playbookid </text>
<text text-anchor="start" x="124.2994" y="-1533.9" font-family="Arial" font-size="14.00" fill="#666666">[text]</text>
<polygon fill="none" stroke="#000000" points="46.5,-1492.5 46.5,-1522.5 367.5,-1522.5 367.5,-1492.5 46.5,-1492.5"/>
<text text-anchor="start" x="53.5" y="-1503.9" font-family="Arial" font-size="14.00" fill="#000000">memberid </text>
<text text-anchor="start" x="119.6094" y="-1503.9" font-family="Arial" font-size="14.00" fill="#666666">[text]</text>
<polygon fill="none" stroke="#000000" points="46.5,-1462.5 46.5,-1492.5 367.5,-1492.5 367.5,-1462.5 46.5,-1462.5"/>
<text text-anchor="start" x="53.5" y="-1473.9" font-family="Arial" font-size="14.00" fill="#000000">roles </text>
<text text-anchor="start" x="87.723" y="-1473.9" font-family="Arial" font-size="14.00" fill="#666666">[text]</text>
<polygon fill="none" stroke="#000000" stroke-width="3" points="44.5,-1461.5 44.5,-1589.5 368.5,-1589.5 368.5,-1461.5 44.5,-1461.5"/>
</g>
<!-- public.ir_playbook -->
<g id="node2" class="node">
<title>public.ir_playbook</title>
<polygon fill="#efefef" stroke="transparent" points="54.5,-1302.5 54.5,-1337.5 360.5,-1337.5 360.5,-1302.5 54.5,-1302.5"/>
<polygon fill="none" stroke="#000000" points="54.5,-1302.5 54.5,-1337.5 360.5,-1337.5 360.5,-1302.5 54.5,-1302.5"/>
<text text-anchor="start" x="86.8596" y="-1315.3" font-family="Arial Bold" font-size="18.00" fill="#000000">public.ir_playbook</text>
<text text-anchor="start" x="230.8866" y="-1315.3" font-family="Arial" font-size="14.00" fill="#000000"> </text>
<text text-anchor="start" x="234.7772" y="-1315.3" font-family="Arial" font-size="14.00" fill="#666666">[BASE TABLE]</text>
<polygon fill="none" stroke="#000000" points="54.5,-1272.5 54.5,-1302.5 360.5,-1302.5 360.5,-1272.5 54.5,-1272.5"/>
<text text-anchor="start" x="61.5" y="-1283.9" font-family="Arial" font-size="14.00" fill="#000000">id </text>
<text text-anchor="start" x="76.2798" y="-1283.9" font-family="Arial" font-size="14.00" fill="#666666">[text]</text>
<polygon fill="none" stroke="#000000" points="54.5,-1242.5 54.5,-1272.5 360.5,-1272.5 360.5,-1242.5 54.5,-1242.5"/>
<text text-anchor="start" x="61.5" y="-1253.9" font-family="Arial" font-size="14.00" fill="#000000">title </text>
<text text-anchor="start" x="87.1676" y="-1253.9" font-family="Arial" font-size="14.00" fill="#666666">[text]</text>
<polygon fill="none" stroke="#000000" points="54.5,-1212.5 54.5,-1242.5 360.5,-1242.5 360.5,-1212.5 54.5,-1212.5"/>
<text text-anchor="start" x="61.5" y="-1223.9" font-family="Arial" font-size="14.00" fill="#000000">description </text>
<text text-anchor="start" x="133.068" y="-1223.9" font-family="Arial" font-size="14.00" fill="#666666">[text]</text>
<polygon fill="none" stroke="#000000" points="54.5,-1182.5 54.5,-1212.5 360.5,-1212.5 360.5,-1182.5 54.5,-1182.5"/>
<text text-anchor="start" x="61.5" y="-1193.9" font-family="Arial" font-size="14.00" fill="#000000">teamid </text>
<text text-anchor="start" x="107.3962" y="-1193.9" font-family="Arial" font-size="14.00" fill="#666666">[text]</text>
<polygon fill="none" stroke="#000000" points="54.5,-1152.5 54.5,-1182.5 360.5,-1182.5 360.5,-1152.5 54.5,-1152.5"/>
<text text-anchor="start" x="61.5" y="-1163.9" font-family="Arial" font-size="14.00" fill="#000000">createpublicincident </text>
<text text-anchor="start" x="189.0848" y="-1163.9" font-family="Arial" font-size="14.00" fill="#666666">[boolean]</text>
<polygon fill="none" stroke="#000000" points="54.5,-1122.5 54.5,-1152.5 360.5,-1152.5 360.5,-1122.5 54.5,-1122.5"/>
<text text-anchor="start" x="61.5" y="-1133.9" font-family="Arial" font-size="14.00" fill="#000000">createat </text>
<text text-anchor="start" x="115.9628" y="-1133.9" font-family="Arial" font-size="14.00" fill="#666666">[bigint]</text>
<polygon fill="none" stroke="#000000" points="54.5,-1092.5 54.5,-1122.5 360.5,-1122.5 360.5,-1092.5 54.5,-1092.5"/>
<text text-anchor="start" x="61.5" y="-1103.9" font-family="Arial" font-size="14.00" fill="#000000">deleteat </text>
<text text-anchor="start" x="115.1914" y="-1103.9" font-family="Arial" font-size="14.00" fill="#666666">[bigint]</text>
<polygon fill="none" stroke="#000000" points="54.5,-1062.5 54.5,-1092.5 360.5,-1092.5 360.5,-1062.5 54.5,-1062.5"/>
<text text-anchor="start" x="61.5" y="-1073.9" font-family="Arial" font-size="14.00" fill="#000000">checklistsjson </text>
<text text-anchor="start" x="151.7314" y="-1073.9" font-family="Arial" font-size="14.00" fill="#666666">[json]</text>
<polygon fill="none" stroke="#000000" points="54.5,-1032.5 54.5,-1062.5 360.5,-1062.5 360.5,-1032.5 54.5,-1032.5"/>
<text text-anchor="start" x="61.5" y="-1043.9" font-family="Arial" font-size="14.00" fill="#000000">numstages </text>
<text text-anchor="start" x="133.8548" y="-1043.9" font-family="Arial" font-size="14.00" fill="#666666">[bigint]</text>
<polygon fill="none" stroke="#000000" points="54.5,-1002.5 54.5,-1032.5 360.5,-1032.5 360.5,-1002.5 54.5,-1002.5"/>
<text text-anchor="start" x="61.5" y="-1013.9" font-family="Arial" font-size="14.00" fill="#000000">numsteps </text>
<text text-anchor="start" x="126.0722" y="-1013.9" font-family="Arial" font-size="14.00" fill="#666666">[bigint]</text>
<polygon fill="none" stroke="#000000" points="54.5,-972.5 54.5,-1002.5 360.5,-1002.5 360.5,-972.5 54.5,-972.5"/>
<text text-anchor="start" x="61.5" y="-983.9" font-family="Arial" font-size="14.00" fill="#000000">broadcastchannelid </text>
<text text-anchor="start" x="186.7636" y="-983.9" font-family="Arial" font-size="14.00" fill="#666666">[text]</text>
<polygon fill="none" stroke="#000000" points="54.5,-942.5 54.5,-972.5 360.5,-972.5 360.5,-942.5 54.5,-942.5"/>
<text text-anchor="start" x="61.5" y="-953.9" font-family="Arial" font-size="14.00" fill="#000000">remindermessagetemplate </text>
<text text-anchor="start" x="231.0792" y="-953.9" font-family="Arial" font-size="14.00" fill="#666666">[text]</text>
<polygon fill="none" stroke="#000000" points="54.5,-912.5 54.5,-942.5 360.5,-942.5 360.5,-912.5 54.5,-912.5"/>
<text text-anchor="start" x="61.5" y="-923.9" font-family="Arial" font-size="14.00" fill="#000000">remindertimerdefaultseconds </text>
<text text-anchor="start" x="245.859" y="-923.9" font-family="Arial" font-size="14.00" fill="#666666">[bigint]</text>
<polygon fill="none" stroke="#000000" points="54.5,-882.5 54.5,-912.5 360.5,-912.5 360.5,-882.5 54.5,-882.5"/>
<text text-anchor="start" x="61.5" y="-893.9" font-family="Arial" font-size="14.00" fill="#000000">concatenatedinviteduserids </text>
<text text-anchor="start" x="234.9992" y="-893.9" font-family="Arial" font-size="14.00" fill="#666666">[text]</text>
<polygon fill="none" stroke="#000000" points="54.5,-852.5 54.5,-882.5 360.5,-882.5 360.5,-852.5 54.5,-852.5"/>
<text text-anchor="start" x="61.5" y="-863.9" font-family="Arial" font-size="14.00" fill="#000000">inviteusersenabled </text>
<text text-anchor="start" x="182.0876" y="-863.9" font-family="Arial" font-size="14.00" fill="#666666">[boolean]</text>
<polygon fill="none" stroke="#000000" points="54.5,-822.5 54.5,-852.5 360.5,-852.5 360.5,-822.5 54.5,-822.5"/>
<text text-anchor="start" x="61.5" y="-833.9" font-family="Arial" font-size="14.00" fill="#000000">defaultcommanderid </text>
<text text-anchor="start" x="192.1928" y="-833.9" font-family="Arial" font-size="14.00" fill="#666666">[text]</text>
<polygon fill="none" stroke="#000000" points="54.5,-792.5 54.5,-822.5 360.5,-822.5 360.5,-792.5 54.5,-792.5"/>
<text text-anchor="start" x="61.5" y="-803.9" font-family="Arial" font-size="14.00" fill="#000000">defaultcommanderenabled </text>
<text text-anchor="start" x="231.1058" y="-803.9" font-family="Arial" font-size="14.00" fill="#666666">[boolean]</text>
<polygon fill="none" stroke="#000000" points="54.5,-762.5 54.5,-792.5 360.5,-792.5 360.5,-762.5 54.5,-762.5"/>
<text text-anchor="start" x="61.5" y="-773.9" font-family="Arial" font-size="14.00" fill="#000000">announcementchannelid </text>
<text text-anchor="start" x="217.894" y="-773.9" font-family="Arial" font-size="14.00" fill="#666666">[text]</text>
<polygon fill="none" stroke="#000000" points="54.5,-732.5 54.5,-762.5 360.5,-762.5 360.5,-732.5 54.5,-732.5"/>
<text text-anchor="start" x="61.5" y="-743.9" font-family="Arial" font-size="14.00" fill="#000000">announcementchannelenabled </text>
<text text-anchor="start" x="256.807" y="-743.9" font-family="Arial" font-size="14.00" fill="#666666">[boolean]</text>
<polygon fill="none" stroke="#000000" points="54.5,-702.5 54.5,-732.5 360.5,-732.5 360.5,-702.5 54.5,-702.5"/>
<text text-anchor="start" x="61.5" y="-713.9" font-family="Arial" font-size="14.00" fill="#000000">concatenatedwebhookoncreationurls </text>
<text text-anchor="start" x="293.3554" y="-713.9" font-family="Arial" font-size="14.00" fill="#666666">[text]</text>
<polygon fill="none" stroke="#000000" points="54.5,-672.5 54.5,-702.5 360.5,-702.5 360.5,-672.5 54.5,-672.5"/>
<text text-anchor="start" x="61.5" y="-683.9" font-family="Arial" font-size="14.00" fill="#000000">webhookoncreationenabled </text>
<text text-anchor="start" x="236.5658" y="-683.9" font-family="Arial" font-size="14.00" fill="#666666">[boolean]</text>
<polygon fill="none" stroke="#000000" points="54.5,-642.5 54.5,-672.5 360.5,-672.5 360.5,-642.5 54.5,-642.5"/>
<text text-anchor="start" x="61.5" y="-653.9" font-family="Arial" font-size="14.00" fill="#000000">concatenatedinvitedgroupids </text>
<text text-anchor="start" x="243.5644" y="-653.9" font-family="Arial" font-size="14.00" fill="#666666">[text]</text>
<polygon fill="none" stroke="#000000" points="54.5,-612.5 54.5,-642.5 360.5,-642.5 360.5,-612.5 54.5,-612.5"/>
<text text-anchor="start" x="61.5" y="-623.9" font-family="Arial" font-size="14.00" fill="#000000">messageonjoin </text>
<text text-anchor="start" x="159.5252" y="-623.9" font-family="Arial" font-size="14.00" fill="#666666">[text]</text>
<polygon fill="none" stroke="#000000" points="54.5,-582.5 54.5,-612.5 360.5,-612.5 360.5,-582.5 54.5,-582.5"/>
<text text-anchor="start" x="61.5" y="-593.9" font-family="Arial" font-size="14.00" fill="#000000">messageonjoinenabled </text>
<text text-anchor="start" x="209.3274" y="-593.9" font-family="Arial" font-size="14.00" fill="#666666">[boolean]</text>
<polygon fill="none" stroke="#000000" points="54.5,-552.5 54.5,-582.5 360.5,-582.5 360.5,-552.5 54.5,-552.5"/>
<text text-anchor="start" x="61.5" y="-563.9" font-family="Arial" font-size="14.00" fill="#000000">retrospectivereminderintervalseconds </text>
<text text-anchor="start" x="297.974" y="-563.9" font-family="Arial" font-size="14.00" fill="#666666">[bigint]</text>
<polygon fill="none" stroke="#000000" points="54.5,-522.5 54.5,-552.5 360.5,-552.5 360.5,-522.5 54.5,-522.5"/>
<text text-anchor="start" x="61.5" y="-533.9" font-family="Arial" font-size="14.00" fill="#000000">retrospectivetemplate </text>
<text text-anchor="start" x="199.1914" y="-533.9" font-family="Arial" font-size="14.00" fill="#666666">[text]</text>
<polygon fill="none" stroke="#000000" points="54.5,-492.5 54.5,-522.5 360.5,-522.5 360.5,-492.5 54.5,-492.5"/>
<text text-anchor="start" x="61.2189" y="-503.9" font-family="Arial" font-size="14.00" fill="#000000">concatenatedwebhookonstatusupdateurls </text>
<text text-anchor="start" x="323.4361" y="-503.9" font-family="Arial" font-size="14.00" fill="#666666">[text]</text>
<polygon fill="none" stroke="#000000" points="54.5,-462.5 54.5,-492.5 360.5,-492.5 360.5,-462.5 54.5,-462.5"/>
<text text-anchor="start" x="61.5" y="-473.9" font-family="Arial" font-size="14.00" fill="#000000">webhookonstatusupdateenabled </text>
<text text-anchor="start" x="266.9276" y="-473.9" font-family="Arial" font-size="14.00" fill="#666666">[boolean]</text>
<polygon fill="none" stroke="#000000" points="54.5,-432.5 54.5,-462.5 360.5,-462.5 360.5,-432.5 54.5,-432.5"/>
<text text-anchor="start" x="61.5" y="-443.9" font-family="Arial" font-size="14.00" fill="#000000">concatenatedsignalanykeywords </text>
<text text-anchor="start" x="267.6738" y="-443.9" font-family="Arial" font-size="14.00" fill="#666666">[text]</text>
<polygon fill="none" stroke="#000000" points="54.5,-402.5 54.5,-432.5 360.5,-432.5 360.5,-402.5 54.5,-402.5"/>
<text text-anchor="start" x="61.5" y="-413.9" font-family="Arial" font-size="14.00" fill="#000000">signalanykeywordsenabled </text>
<text text-anchor="start" x="233.434" y="-413.9" font-family="Arial" font-size="14.00" fill="#666666">[boolean]</text>
<polygon fill="none" stroke="#000000" points="54.5,-372.5 54.5,-402.5 360.5,-402.5 360.5,-372.5 54.5,-372.5"/>
<text text-anchor="start" x="61.5" y="-383.9" font-family="Arial" font-size="14.00" fill="#000000">updateat </text>
<text text-anchor="start" x="119.8674" y="-383.9" font-family="Arial" font-size="14.00" fill="#666666">[bigint]</text>
<polygon fill="none" stroke="#000000" points="54.5,-342.5 54.5,-372.5 360.5,-372.5 360.5,-342.5 54.5,-342.5"/>
<text text-anchor="start" x="61.5" y="-353.9" font-family="Arial" font-size="14.00" fill="#000000">exportchannelonfinishedenabled </text>
<text text-anchor="start" x="266.9108" y="-353.9" font-family="Arial" font-size="14.00" fill="#666666">[boolean]</text>
<polygon fill="none" stroke="#000000" points="54.5,-312.5 54.5,-342.5 360.5,-342.5 360.5,-312.5 54.5,-312.5"/>
<text text-anchor="start" x="61.5" y="-323.9" font-family="Arial" font-size="14.00" fill="#000000">categorizechannelenabled </text>
<text text-anchor="start" x="228.7832" y="-323.9" font-family="Arial" font-size="14.00" fill="#666666">[boolean]</text>
<polygon fill="none" stroke="#000000" points="54.5,-282.5 54.5,-312.5 360.5,-312.5 360.5,-282.5 54.5,-282.5"/>
<text text-anchor="start" x="61.5" y="-293.9" font-family="Arial" font-size="14.00" fill="#000000">categoryname </text>
<text text-anchor="start" x="154.0806" y="-293.9" font-family="Arial" font-size="14.00" fill="#666666">[text]</text>
<polygon fill="none" stroke="#000000" points="54.5,-252.5 54.5,-282.5 360.5,-282.5 360.5,-252.5 54.5,-252.5"/>
<text text-anchor="start" x="61.5" y="-263.9" font-family="Arial" font-size="14.00" fill="#000000">concatenatedbroadcastchannelids </text>
<text text-anchor="start" x="277.8056" y="-263.9" font-family="Arial" font-size="14.00" fill="#666666">[text]</text>
<polygon fill="none" stroke="#000000" points="54.5,-222.5 54.5,-252.5 360.5,-252.5 360.5,-222.5 54.5,-222.5"/>
<text text-anchor="start" x="61.5" y="-233.9" font-family="Arial" font-size="14.00" fill="#000000">broadcastenabled </text>
<text text-anchor="start" x="176.657" y="-233.9" font-family="Arial" font-size="14.00" fill="#666666">[boolean]</text>
<polygon fill="none" stroke="#000000" points="54.5,-192.5 54.5,-222.5 360.5,-222.5 360.5,-192.5 54.5,-192.5"/>
<text text-anchor="start" x="61.5" y="-203.9" font-family="Arial" font-size="14.00" fill="#000000">runsummarytemplate </text>
<text text-anchor="start" x="196.8422" y="-203.9" font-family="Arial" font-size="14.00" fill="#666666">[text]</text>
<polygon fill="none" stroke="#000000" points="54.5,-162.5 54.5,-192.5 360.5,-192.5 360.5,-162.5 54.5,-162.5"/>
<text text-anchor="start" x="61.5" y="-173.9" font-family="Arial" font-size="14.00" fill="#000000">channelnametemplate </text>
<text text-anchor="start" x="203.0974" y="-173.9" font-family="Arial" font-size="14.00" fill="#666666">[text]</text>
<polygon fill="none" stroke="#000000" points="54.5,-132.5 54.5,-162.5 360.5,-162.5 360.5,-132.5 54.5,-132.5"/>
<text text-anchor="start" x="61.5" y="-143.9" font-family="Arial" font-size="14.00" fill="#000000">statusupdateenabled </text>
<text text-anchor="start" x="195.3428" y="-143.9" font-family="Arial" font-size="14.00" fill="#666666">[boolean]</text>
<polygon fill="none" stroke="#000000" points="54.5,-102.5 54.5,-132.5 360.5,-132.5 360.5,-102.5 54.5,-102.5"/>
<text text-anchor="start" x="61.5" y="-113.9" font-family="Arial" font-size="14.00" fill="#000000">retrospectiveenabled </text>
<text text-anchor="start" x="195.3148" y="-113.9" font-family="Arial" font-size="14.00" fill="#666666">[boolean]</text>
<polygon fill="none" stroke="#000000" points="54.5,-72.5 54.5,-102.5 360.5,-102.5 360.5,-72.5 54.5,-72.5"/>
<text text-anchor="start" x="61.5" y="-83.9" font-family="Arial" font-size="14.00" fill="#000000">public </text>
<text text-anchor="start" x="101.9516" y="-83.9" font-family="Arial" font-size="14.00" fill="#666666">[boolean]</text>
<polygon fill="none" stroke="#000000" points="54.5,-42.5 54.5,-72.5 360.5,-72.5 360.5,-42.5 54.5,-42.5"/>
<text text-anchor="start" x="61.5" y="-53.9" font-family="Arial" font-size="14.00" fill="#000000">runsummarytemplateenabled </text>
<text text-anchor="start" x="246.6444" y="-53.9" font-family="Arial" font-size="14.00" fill="#666666">[boolean]</text>
</g>
<!-- public.ir_playbookmember&#45;&gt;public.ir_playbook -->
<g id="edge1" class="edge">
<title>public.ir_playbookmember:playbookid&#45;&gt;public.ir_playbook:id</title>
<path fill="none" stroke="#000000" d="M377.4983,-1536.4098C418.5234,-1526.6802 400.704,-1454.2419 367.5,-1417 274.3135,-1312.4812 147.6865,-1485.5188 54.5,-1381 26.8455,-1349.9824 12.9444,-1287.5 54.5,-1287.5"/>
<polygon fill="#000000" stroke="#000000" points="377.4411,-1536.4159 367.0122,-1533.0265 372.4705,-1536.958 367.5,-1537.5 367.5,-1537.5 367.5,-1537.5 372.4705,-1536.958 367.9878,-1541.9735 377.4411,-1536.4159 377.4411,-1536.4159"/>
<text text-anchor="start" x="374.9935" y="-1547.5" font-family="Arial" font-size="10.00" fill="#000000">FOREIGN KEY (playbookid) REFERENCES ir_playbook(id)</text>
</g>
</g>
</svg>
