<?xml version="1.0" encoding="UTF-8" standalone="no"?>
<!DOCTYPE svg PUBLIC "-//W3C//DTD SVG 1.1//EN"
 "http://www.w3.org/Graphics/SVG/1.1/DTD/svg11.dtd">
<!-- Generated by graphviz version 2.40.1 (20161225.0304)
 -->
<!-- Title: public.focalboard_teams Pages: 1 -->
<svg width="406pt" height="285pt"
 viewBox="0.00 0.00 406.00 285.00" xmlns="http://www.w3.org/2000/svg" xmlns:xlink="http://www.w3.org/1999/xlink">
<g id="graph0" class="graph" transform="scale(1 1) rotate(0) translate(4 281)">
<title>public.focalboard_teams</title>
<polygon fill="#ffffff" stroke="transparent" points="-4,4 -4,-281 402,-281 402,4 -4,4"/>
<!-- public.focalboard_teams -->
<g id="node1" class="node">
<title>public.focalboard_teams</title>
<polygon fill="#efefef" stroke="transparent" points="46,-195.5 46,-230.5 352,-230.5 352,-195.5 46,-195.5"/>
<polygon fill="none" stroke="#000000" points="46,-195.5 46,-230.5 352,-230.5 352,-195.5 46,-195.5"/>
<text text-anchor="start" x="52.8491" y="-208.3" font-family="Arial Bold" font-size="18.00" fill="#000000">public.focalboard_teams</text>
<text text-anchor="start" x="247.8971" y="-208.3" font-family="Arial" font-size="14.00" fill="#000000"> </text>
<text text-anchor="start" x="251.7877" y="-208.3" font-family="Arial" font-size="14.00" fill="#666666">[BASE TABLE]</text>
<polygon fill="none" stroke="#000000" points="46,-165.5 46,-195.5 352,-195.5 352,-165.5 46,-165.5"/>
<text text-anchor="start" x="53" y="-176.9" font-family="Arial" font-size="14.00" fill="#000000">id </text>
<text text-anchor="start" x="67.7798" y="-176.9" font-family="Arial" font-size="14.00" fill="#666666">[varchar(36)]</text>
<polygon fill="none" stroke="#000000" points="46,-135.5 46,-165.5 352,-165.5 352,-135.5 46,-135.5"/>
<text text-anchor="start" x="53" y="-146.9" font-family="Arial" font-size="14.00" fill="#000000">signup_token </text>
<text text-anchor="start" x="140.1486" y="-146.9" font-family="Arial" font-size="14.00" fill="#666666">[varchar(100)]</text>
<polygon fill="none" stroke="#000000" points="46,-105.5 46,-135.5 352,-135.5 352,-105.5 46,-105.5"/>
<text text-anchor="start" x="53" y="-116.9" font-family="Arial" font-size="14.00" fill="#000000">settings </text>
<text text-anchor="start" x="105.1262" y="-116.9" font-family="Arial" font-size="14.00" fill="#666666">[json]</text>
<polygon fill="none" stroke="#000000" points="46,-75.5 46,-105.5 352,-105.5 352,-75.5 46,-75.5"/>
<text text-anchor="start" x="53" y="-86.9" font-family="Arial" font-size="14.00" fill="#000000">modified_by </text>
<text text-anchor="start" x="132.3506" y="-86.9" font-family="Arial" font-size="14.00" fill="#666666">[varchar(36)]</text>
<polygon fill="none" stroke="#000000" points="46,-45.5 46,-75.5 352,-75.5 352,-45.5 46,-45.5"/>
<text text-anchor="start" x="53" y="-56.9" font-family="Arial" font-size="14.00" fill="#000000">update_at </text>
<text text-anchor="start" x="119.15" y="-56.9" font-family="Arial" font-size="14.00" fill="#666666">[bigint]</text>
<polygon fill="none" stroke="#000000" stroke-width="3" points="44.5,-44.5 44.5,-232.5 353.5,-232.5 353.5,-44.5 44.5,-44.5"/>
</g>
</g>
</svg>
