<?xml version="1.0" encoding="UTF-8" standalone="no"?>
<!DOCTYPE svg PUBLIC "-//W3C//DTD SVG 1.1//EN"
 "http://www.w3.org/Graphics/SVG/1.1/DTD/svg11.dtd">
<!-- Generated by graphviz version 2.40.1 (20161225.0304)
 -->
<!-- Title: public.users Pages: 1 -->
<svg width="2408pt" height="1372pt"
 viewBox="0.00 0.00 2408.00 1372.00" xmlns="http://www.w3.org/2000/svg" xmlns:xlink="http://www.w3.org/1999/xlink">
<g id="graph0" class="graph" transform="scale(1 1) rotate(0) translate(4 1368)">
<title>public.users</title>
<polygon fill="#ffffff" stroke="transparent" points="-4,4 -4,-1368 2404,-1368 2404,4 -4,4"/>
<!-- public.users -->
<g id="node1" class="node">
<title>public.users</title>
<polygon fill="#efefef" stroke="transparent" points="1032.5,-825.5 1032.5,-860.5 1239.5,-860.5 1239.5,-825.5 1032.5,-825.5"/>
<polygon fill="none" stroke="#000000" points="1032.5,-825.5 1032.5,-860.5 1239.5,-860.5 1239.5,-825.5 1032.5,-825.5"/>
<text text-anchor="start" x="1039.3662" y="-838.3" font-family="Arial Bold" font-size="18.00" fill="#000000">public.users</text>
<text text-anchor="start" x="1135.38" y="-838.3" font-family="Arial" font-size="14.00" fill="#000000"> </text>
<text text-anchor="start" x="1139.2706" y="-838.3" font-family="Arial" font-size="14.00" fill="#666666">[BASE TABLE]</text>
<polygon fill="none" stroke="#000000" points="1032.5,-795.5 1032.5,-825.5 1239.5,-825.5 1239.5,-795.5 1032.5,-795.5"/>
<text text-anchor="start" x="1039.5" y="-806.9" font-family="Arial" font-size="14.00" fill="#000000">id </text>
<text text-anchor="start" x="1054.2798" y="-806.9" font-family="Arial" font-size="14.00" fill="#666666">[varchar(26)]</text>
<polygon fill="none" stroke="#000000" points="1032.5,-765.5 1032.5,-795.5 1239.5,-795.5 1239.5,-765.5 1032.5,-765.5"/>
<text text-anchor="start" x="1039.5" y="-776.9" font-family="Arial" font-size="14.00" fill="#000000">createat </text>
<text text-anchor="start" x="1093.9628" y="-776.9" font-family="Arial" font-size="14.00" fill="#666666">[bigint]</text>
<polygon fill="none" stroke="#000000" points="1032.5,-735.5 1032.5,-765.5 1239.5,-765.5 1239.5,-735.5 1032.5,-735.5"/>
<text text-anchor="start" x="1039.5" y="-746.9" font-family="Arial" font-size="14.00" fill="#000000">updateat </text>
<text text-anchor="start" x="1097.8674" y="-746.9" font-family="Arial" font-size="14.00" fill="#666666">[bigint]</text>
<polygon fill="none" stroke="#000000" points="1032.5,-705.5 1032.5,-735.5 1239.5,-735.5 1239.5,-705.5 1032.5,-705.5"/>
<text text-anchor="start" x="1039.5" y="-716.9" font-family="Arial" font-size="14.00" fill="#000000">deleteat </text>
<text text-anchor="start" x="1093.1914" y="-716.9" font-family="Arial" font-size="14.00" fill="#666666">[bigint]</text>
<polygon fill="none" stroke="#000000" points="1032.5,-675.5 1032.5,-705.5 1239.5,-705.5 1239.5,-675.5 1032.5,-675.5"/>
<text text-anchor="start" x="1039.5" y="-686.9" font-family="Arial" font-size="14.00" fill="#000000">username </text>
<text text-anchor="start" x="1105.6248" y="-686.9" font-family="Arial" font-size="14.00" fill="#666666">[varchar(64)]</text>
<polygon fill="none" stroke="#000000" points="1032.5,-645.5 1032.5,-675.5 1239.5,-675.5 1239.5,-645.5 1032.5,-645.5"/>
<text text-anchor="start" x="1039.5" y="-656.9" font-family="Arial" font-size="14.00" fill="#000000">password </text>
<text text-anchor="start" x="1103.2882" y="-656.9" font-family="Arial" font-size="14.00" fill="#666666">[varchar(128)]</text>
<polygon fill="none" stroke="#000000" points="1032.5,-615.5 1032.5,-645.5 1239.5,-645.5 1239.5,-615.5 1032.5,-615.5"/>
<text text-anchor="start" x="1039.5" y="-626.9" font-family="Arial" font-size="14.00" fill="#000000">authdata </text>
<text text-anchor="start" x="1097.8674" y="-626.9" font-family="Arial" font-size="14.00" fill="#666666">[varchar(128)]</text>
<polygon fill="none" stroke="#000000" points="1032.5,-585.5 1032.5,-615.5 1239.5,-615.5 1239.5,-585.5 1032.5,-585.5"/>
<text text-anchor="start" x="1039.5" y="-596.9" font-family="Arial" font-size="14.00" fill="#000000">authservice </text>
<text text-anchor="start" x="1114.9614" y="-596.9" font-family="Arial" font-size="14.00" fill="#666666">[varchar(32)]</text>
<polygon fill="none" stroke="#000000" points="1032.5,-555.5 1032.5,-585.5 1239.5,-585.5 1239.5,-555.5 1032.5,-555.5"/>
<text text-anchor="start" x="1039.5" y="-566.9" font-family="Arial" font-size="14.00" fill="#000000">email </text>
<text text-anchor="start" x="1076.8296" y="-566.9" font-family="Arial" font-size="14.00" fill="#666666">[varchar(128)]</text>
<polygon fill="none" stroke="#000000" points="1032.5,-525.5 1032.5,-555.5 1239.5,-555.5 1239.5,-525.5 1032.5,-525.5"/>
<text text-anchor="start" x="1039.5" y="-536.9" font-family="Arial" font-size="14.00" fill="#000000">emailverified </text>
<text text-anchor="start" x="1121.9418" y="-536.9" font-family="Arial" font-size="14.00" fill="#666666">[boolean]</text>
<polygon fill="none" stroke="#000000" points="1032.5,-495.5 1032.5,-525.5 1239.5,-525.5 1239.5,-495.5 1032.5,-495.5"/>
<text text-anchor="start" x="1039.5" y="-506.9" font-family="Arial" font-size="14.00" fill="#000000">nickname </text>
<text text-anchor="start" x="1103.2882" y="-506.9" font-family="Arial" font-size="14.00" fill="#666666">[varchar(64)]</text>
<polygon fill="none" stroke="#000000" points="1032.5,-465.5 1032.5,-495.5 1239.5,-495.5 1239.5,-465.5 1032.5,-465.5"/>
<text text-anchor="start" x="1039.5" y="-476.9" font-family="Arial" font-size="14.00" fill="#000000">firstname </text>
<text text-anchor="start" x="1100.9474" y="-476.9" font-family="Arial" font-size="14.00" fill="#666666">[varchar(64)]</text>
<polygon fill="none" stroke="#000000" points="1032.5,-435.5 1032.5,-465.5 1239.5,-465.5 1239.5,-435.5 1032.5,-435.5"/>
<text text-anchor="start" x="1039.5" y="-446.9" font-family="Arial" font-size="14.00" fill="#000000">lastname </text>
<text text-anchor="start" x="1100.1788" y="-446.9" font-family="Arial" font-size="14.00" fill="#666666">[varchar(64)]</text>
<polygon fill="none" stroke="#000000" points="1032.5,-405.5 1032.5,-435.5 1239.5,-435.5 1239.5,-405.5 1032.5,-405.5"/>
<text text-anchor="start" x="1039.5" y="-416.9" font-family="Arial" font-size="14.00" fill="#000000">roles </text>
<text text-anchor="start" x="1073.723" y="-416.9" font-family="Arial" font-size="14.00" fill="#666666">[varchar(256)]</text>
<polygon fill="none" stroke="#000000" points="1032.5,-375.5 1032.5,-405.5 1239.5,-405.5 1239.5,-375.5 1032.5,-375.5"/>
<text text-anchor="start" x="1039.5" y="-386.9" font-family="Arial" font-size="14.00" fill="#000000">allowmarketing </text>
<text text-anchor="start" x="1136.7244" y="-386.9" font-family="Arial" font-size="14.00" fill="#666666">[boolean]</text>
<polygon fill="none" stroke="#000000" points="1032.5,-345.5 1032.5,-375.5 1239.5,-375.5 1239.5,-345.5 1032.5,-345.5"/>
<text text-anchor="start" x="1039.5" y="-356.9" font-family="Arial" font-size="14.00" fill="#000000">props </text>
<text text-anchor="start" x="1078.399" y="-356.9" font-family="Arial" font-size="14.00" fill="#666666">[jsonb]</text>
<polygon fill="none" stroke="#000000" points="1032.5,-315.5 1032.5,-345.5 1239.5,-345.5 1239.5,-315.5 1032.5,-315.5"/>
<text text-anchor="start" x="1039.5" y="-326.9" font-family="Arial" font-size="14.00" fill="#000000">notifyprops </text>
<text text-anchor="start" x="1111.852" y="-326.9" font-family="Arial" font-size="14.00" fill="#666666">[jsonb]</text>
<polygon fill="none" stroke="#000000" points="1032.5,-285.5 1032.5,-315.5 1239.5,-315.5 1239.5,-285.5 1032.5,-285.5"/>
<text text-anchor="start" x="1039.5" y="-296.9" font-family="Arial" font-size="14.00" fill="#000000">lastpasswordupdate </text>
<text text-anchor="start" x="1167.8716" y="-296.9" font-family="Arial" font-size="14.00" fill="#666666">[bigint]</text>
<polygon fill="none" stroke="#000000" points="1032.5,-255.5 1032.5,-285.5 1239.5,-285.5 1239.5,-255.5 1032.5,-255.5"/>
<text text-anchor="start" x="1039.5" y="-266.9" font-family="Arial" font-size="14.00" fill="#000000">lastpictureupdate </text>
<text text-anchor="start" x="1149.9796" y="-266.9" font-family="Arial" font-size="14.00" fill="#666666">[bigint]</text>
<polygon fill="none" stroke="#000000" points="1032.5,-225.5 1032.5,-255.5 1239.5,-255.5 1239.5,-225.5 1032.5,-225.5"/>
<text text-anchor="start" x="1039.5" y="-236.9" font-family="Arial" font-size="14.00" fill="#000000">failedattempts </text>
<text text-anchor="start" x="1130.5224" y="-236.9" font-family="Arial" font-size="14.00" fill="#666666">[integer]</text>
<polygon fill="none" stroke="#000000" points="1032.5,-195.5 1032.5,-225.5 1239.5,-225.5 1239.5,-195.5 1032.5,-195.5"/>
<text text-anchor="start" x="1039.5" y="-206.9" font-family="Arial" font-size="14.00" fill="#000000">locale </text>
<text text-anchor="start" x="1079.9516" y="-206.9" font-family="Arial" font-size="14.00" fill="#666666">[varchar(5)]</text>
<polygon fill="none" stroke="#000000" points="1032.5,-165.5 1032.5,-195.5 1239.5,-195.5 1239.5,-165.5 1032.5,-165.5"/>
<text text-anchor="start" x="1039.5" y="-176.9" font-family="Arial" font-size="14.00" fill="#000000">mfaactive </text>
<text text-anchor="start" x="1103.2868" y="-176.9" font-family="Arial" font-size="14.00" fill="#666666">[boolean]</text>
<polygon fill="none" stroke="#000000" points="1032.5,-135.5 1032.5,-165.5 1239.5,-165.5 1239.5,-135.5 1032.5,-135.5"/>
<text text-anchor="start" x="1039.5" y="-146.9" font-family="Arial" font-size="14.00" fill="#000000">mfasecret </text>
<text text-anchor="start" x="1104.8408" y="-146.9" font-family="Arial" font-size="14.00" fill="#666666">[varchar(128)]</text>
<polygon fill="none" stroke="#000000" points="1032.5,-105.5 1032.5,-135.5 1239.5,-135.5 1239.5,-105.5 1032.5,-105.5"/>
<text text-anchor="start" x="1039.5" y="-116.9" font-family="Arial" font-size="14.00" fill="#000000">position </text>
<text text-anchor="start" x="1091.6248" y="-116.9" font-family="Arial" font-size="14.00" fill="#666666">[varchar(128)]</text>
<polygon fill="none" stroke="#000000" points="1032.5,-75.5 1032.5,-105.5 1239.5,-105.5 1239.5,-75.5 1032.5,-75.5"/>
<text text-anchor="start" x="1039.5" y="-86.9" font-family="Arial" font-size="14.00" fill="#000000">timezone </text>
<text text-anchor="start" x="1100.1788" y="-86.9" font-family="Arial" font-size="14.00" fill="#666666">[jsonb]</text>
<polygon fill="none" stroke="#000000" points="1032.5,-45.5 1032.5,-75.5 1239.5,-75.5 1239.5,-45.5 1032.5,-45.5"/>
<text text-anchor="start" x="1039.5" y="-56.9" font-family="Arial" font-size="14.00" fill="#000000">remoteid </text>
<text text-anchor="start" x="1097.8394" y="-56.9" font-family="Arial" font-size="14.00" fill="#666666">[varchar(26)]</text>
<polygon fill="none" stroke="#000000" stroke-width="3" points="1030.5,-44.5 1030.5,-862.5 1240.5,-862.5 1240.5,-44.5 1030.5,-44.5"/>
</g>
<!-- public.focalboard_sessions -->
<g id="node2" class="node">
<title>public.focalboard_sessions</title>
<polygon fill="#efefef" stroke="transparent" points="43.5,-1240.5 43.5,-1275.5 370.5,-1275.5 370.5,-1240.5 43.5,-1240.5"/>
<polygon fill="none" stroke="#000000" points="43.5,-1240.5 43.5,-1275.5 370.5,-1275.5 370.5,-1240.5 43.5,-1240.5"/>
<text text-anchor="start" x="50.3461" y="-1253.3" font-family="Arial Bold" font-size="18.00" fill="#000000">public.focalboard_sessions</text>
<text text-anchor="start" x="266.4001" y="-1253.3" font-family="Arial" font-size="14.00" fill="#000000"> </text>
<text text-anchor="start" x="270.2907" y="-1253.3" font-family="Arial" font-size="14.00" fill="#666666">[BASE TABLE]</text>
<polygon fill="none" stroke="#000000" points="43.5,-1210.5 43.5,-1240.5 370.5,-1240.5 370.5,-1210.5 43.5,-1210.5"/>
<text text-anchor="start" x="50.5" y="-1221.9" font-family="Arial" font-size="14.00" fill="#000000">id </text>
<text text-anchor="start" x="65.2798" y="-1221.9" font-family="Arial" font-size="14.00" fill="#666666">[varchar(100)]</text>
<polygon fill="none" stroke="#000000" points="43.5,-1180.5 43.5,-1210.5 370.5,-1210.5 370.5,-1180.5 43.5,-1180.5"/>
<text text-anchor="start" x="50.5" y="-1191.9" font-family="Arial" font-size="14.00" fill="#000000">token </text>
<text text-anchor="start" x="88.629" y="-1191.9" font-family="Arial" font-size="14.00" fill="#666666">[varchar(100)]</text>
<polygon fill="none" stroke="#000000" points="43.5,-1150.5 43.5,-1180.5 370.5,-1180.5 370.5,-1150.5 43.5,-1150.5"/>
<text text-anchor="start" x="50.5" y="-1161.9" font-family="Arial" font-size="14.00" fill="#000000">user_id </text>
<text text-anchor="start" x="100.2882" y="-1161.9" font-family="Arial" font-size="14.00" fill="#666666">[varchar(100)]</text>
<polygon fill="none" stroke="#000000" points="43.5,-1120.5 43.5,-1150.5 370.5,-1150.5 370.5,-1120.5 43.5,-1120.5"/>
<text text-anchor="start" x="50.5" y="-1131.9" font-family="Arial" font-size="14.00" fill="#000000">props </text>
<text text-anchor="start" x="89.399" y="-1131.9" font-family="Arial" font-size="14.00" fill="#666666">[json]</text>
<polygon fill="none" stroke="#000000" points="43.5,-1090.5 43.5,-1120.5 370.5,-1120.5 370.5,-1090.5 43.5,-1090.5"/>
<text text-anchor="start" x="50.5" y="-1101.9" font-family="Arial" font-size="14.00" fill="#000000">create_at </text>
<text text-anchor="start" x="112.7454" y="-1101.9" font-family="Arial" font-size="14.00" fill="#666666">[bigint]</text>
<polygon fill="none" stroke="#000000" points="43.5,-1060.5 43.5,-1090.5 370.5,-1090.5 370.5,-1060.5 43.5,-1060.5"/>
<text text-anchor="start" x="50.5" y="-1071.9" font-family="Arial" font-size="14.00" fill="#000000">update_at </text>
<text text-anchor="start" x="116.65" y="-1071.9" font-family="Arial" font-size="14.00" fill="#666666">[bigint]</text>
<polygon fill="none" stroke="#000000" points="43.5,-1030.5 43.5,-1060.5 370.5,-1060.5 370.5,-1030.5 43.5,-1030.5"/>
<text text-anchor="start" x="50.5" y="-1041.9" font-family="Arial" font-size="14.00" fill="#000000">auth_service </text>
<text text-anchor="start" x="133.744" y="-1041.9" font-family="Arial" font-size="14.00" fill="#666666">[varchar(20)]</text>
</g>
<!-- public.focalboard_sessions&#45;&gt;public.users -->
<g id="edge1" class="edge">
<title>public.focalboard_sessions:user_id&#45;&gt;public.users:id</title>
<path fill="none" stroke="#000000" stroke-dasharray="5,2" d="M380.6527,-1164.9185C463.4963,-1154.6738 352.7443,-1011.6692 422.5,-943 521.3542,-845.6854 893.7834,-810.5 1032.5,-810.5"/>
<polygon fill="#000000" stroke="#000000" points="380.4836,-1164.9281 370.2426,-1161.0074 375.4918,-1165.214 370.5,-1165.5 370.5,-1165.5 370.5,-1165.5 375.4918,-1165.214 370.7574,-1169.9926 380.4836,-1164.9281 380.4836,-1164.9281"/>
<text text-anchor="start" x="377.768" y="-1175.5" font-family="Arial" font-size="10.00" fill="#000000">Detected Relation</text>
</g>
<!-- public.focalboard_board_members -->
<g id="node3" class="node">
<title>public.focalboard_board_members</title>
<polygon fill="#efefef" stroke="transparent" points="474.5,-1240.5 474.5,-1275.5 862.5,-1275.5 862.5,-1240.5 474.5,-1240.5"/>
<polygon fill="none" stroke="#000000" points="474.5,-1240.5 474.5,-1275.5 862.5,-1275.5 862.5,-1240.5 474.5,-1240.5"/>
<text text-anchor="start" x="481.3433" y="-1253.3" font-family="Arial Bold" font-size="18.00" fill="#000000">public.focalboard_board_members</text>
<text text-anchor="start" x="758.4029" y="-1253.3" font-family="Arial" font-size="14.00" fill="#000000"> </text>
<text text-anchor="start" x="762.2935" y="-1253.3" font-family="Arial" font-size="14.00" fill="#666666">[BASE TABLE]</text>
<polygon fill="none" stroke="#000000" points="474.5,-1210.5 474.5,-1240.5 862.5,-1240.5 862.5,-1210.5 474.5,-1210.5"/>
<text text-anchor="start" x="481.5" y="-1221.9" font-family="Arial" font-size="14.00" fill="#000000">board_id </text>
<text text-anchor="start" x="539.8534" y="-1221.9" font-family="Arial" font-size="14.00" fill="#666666">[varchar(36)]</text>
<polygon fill="none" stroke="#000000" points="474.5,-1180.5 474.5,-1210.5 862.5,-1210.5 862.5,-1180.5 474.5,-1180.5"/>
<text text-anchor="start" x="481.5" y="-1191.9" font-family="Arial" font-size="14.00" fill="#000000">user_id </text>
<text text-anchor="start" x="531.2882" y="-1191.9" font-family="Arial" font-size="14.00" fill="#666666">[varchar(36)]</text>
<polygon fill="none" stroke="#000000" points="474.5,-1150.5 474.5,-1180.5 862.5,-1180.5 862.5,-1150.5 474.5,-1150.5"/>
<text text-anchor="start" x="481.5" y="-1161.9" font-family="Arial" font-size="14.00" fill="#000000">roles </text>
<text text-anchor="start" x="515.723" y="-1161.9" font-family="Arial" font-size="14.00" fill="#666666">[varchar(64)]</text>
<polygon fill="none" stroke="#000000" points="474.5,-1120.5 474.5,-1150.5 862.5,-1150.5 862.5,-1120.5 474.5,-1120.5"/>
<text text-anchor="start" x="481.5" y="-1131.9" font-family="Arial" font-size="14.00" fill="#000000">scheme_admin </text>
<text text-anchor="start" x="580.2966" y="-1131.9" font-family="Arial" font-size="14.00" fill="#666666">[boolean]</text>
<polygon fill="none" stroke="#000000" points="474.5,-1090.5 474.5,-1120.5 862.5,-1120.5 862.5,-1090.5 474.5,-1090.5"/>
<text text-anchor="start" x="481.5" y="-1101.9" font-family="Arial" font-size="14.00" fill="#000000">scheme_editor </text>
<text text-anchor="start" x="577.1872" y="-1101.9" font-family="Arial" font-size="14.00" fill="#666666">[boolean]</text>
<polygon fill="none" stroke="#000000" points="474.5,-1060.5 474.5,-1090.5 862.5,-1090.5 862.5,-1060.5 474.5,-1060.5"/>
<text text-anchor="start" x="481.5" y="-1071.9" font-family="Arial" font-size="14.00" fill="#000000">scheme_commenter </text>
<text text-anchor="start" x="612.1844" y="-1071.9" font-family="Arial" font-size="14.00" fill="#666666">[boolean]</text>
<polygon fill="none" stroke="#000000" points="474.5,-1030.5 474.5,-1060.5 862.5,-1060.5 862.5,-1030.5 474.5,-1030.5"/>
<text text-anchor="start" x="481.5" y="-1041.9" font-family="Arial" font-size="14.00" fill="#000000">scheme_viewer </text>
<text text-anchor="start" x="582.6206" y="-1041.9" font-family="Arial" font-size="14.00" fill="#666666">[boolean]</text>
</g>
<!-- public.focalboard_board_members&#45;&gt;public.users -->
<g id="edge2" class="edge">
<title>public.focalboard_board_members:user_id&#45;&gt;public.users:id</title>
<path fill="none" stroke="#000000" stroke-dasharray="5,2" d="M872.2424,-1193.2268C916.1357,-1170.9235 890.3998,-990.9973 914.5,-943 949.8849,-872.5285 953.6437,-810.5 1032.5,-810.5"/>
<polygon fill="#000000" stroke="#000000" points="872.2384,-1193.2276 861.4774,-1191.1177 867.3692,-1194.3638 862.5,-1195.5 862.5,-1195.5 862.5,-1195.5 867.3692,-1194.3638 863.5226,-1199.8823 872.2384,-1193.2276 872.2384,-1193.2276"/>
<text text-anchor="start" x="869.768" y="-1205.5" font-family="Arial" font-size="10.00" fill="#000000">Detected Relation</text>
</g>
<!-- public.focalboard_categories -->
<g id="node4" class="node">
<title>public.focalboard_categories</title>
<polygon fill="#efefef" stroke="transparent" points="966.5,-1285.5 966.5,-1320.5 1306.5,-1320.5 1306.5,-1285.5 966.5,-1285.5"/>
<polygon fill="none" stroke="#000000" points="966.5,-1285.5 966.5,-1320.5 1306.5,-1320.5 1306.5,-1285.5 966.5,-1285.5"/>
<text text-anchor="start" x="973.3427" y="-1298.3" font-family="Arial Bold" font-size="18.00" fill="#000000">public.focalboard_categories</text>
<text text-anchor="start" x="1202.4035" y="-1298.3" font-family="Arial" font-size="14.00" fill="#000000"> </text>
<text text-anchor="start" x="1206.2941" y="-1298.3" font-family="Arial" font-size="14.00" fill="#666666">[BASE TABLE]</text>
<polygon fill="none" stroke="#000000" points="966.5,-1255.5 966.5,-1285.5 1306.5,-1285.5 1306.5,-1255.5 966.5,-1255.5"/>
<text text-anchor="start" x="973.5" y="-1266.9" font-family="Arial" font-size="14.00" fill="#000000">id </text>
<text text-anchor="start" x="988.2798" y="-1266.9" font-family="Arial" font-size="14.00" fill="#666666">[varchar(36)]</text>
<polygon fill="none" stroke="#000000" points="966.5,-1225.5 966.5,-1255.5 1306.5,-1255.5 1306.5,-1225.5 966.5,-1225.5"/>
<text text-anchor="start" x="973.5" y="-1236.9" font-family="Arial" font-size="14.00" fill="#000000">name </text>
<text text-anchor="start" x="1012.399" y="-1236.9" font-family="Arial" font-size="14.00" fill="#666666">[varchar(100)]</text>
<polygon fill="none" stroke="#000000" points="966.5,-1195.5 966.5,-1225.5 1306.5,-1225.5 1306.5,-1195.5 966.5,-1195.5"/>
<text text-anchor="start" x="973.5" y="-1206.9" font-family="Arial" font-size="14.00" fill="#000000">user_id </text>
<text text-anchor="start" x="1023.2882" y="-1206.9" font-family="Arial" font-size="14.00" fill="#666666">[varchar(36)]</text>
<polygon fill="none" stroke="#000000" points="966.5,-1165.5 966.5,-1195.5 1306.5,-1195.5 1306.5,-1165.5 966.5,-1165.5"/>
<text text-anchor="start" x="973.5" y="-1176.9" font-family="Arial" font-size="14.00" fill="#000000">team_id </text>
<text text-anchor="start" x="1027.1788" y="-1176.9" font-family="Arial" font-size="14.00" fill="#666666">[varchar(36)]</text>
<polygon fill="none" stroke="#000000" points="966.5,-1135.5 966.5,-1165.5 1306.5,-1165.5 1306.5,-1135.5 966.5,-1135.5"/>
<text text-anchor="start" x="973.5" y="-1146.9" font-family="Arial" font-size="14.00" fill="#000000">channel_id </text>
<text text-anchor="start" x="1045.082" y="-1146.9" font-family="Arial" font-size="14.00" fill="#666666">[varchar(36)]</text>
<polygon fill="none" stroke="#000000" points="966.5,-1105.5 966.5,-1135.5 1306.5,-1135.5 1306.5,-1105.5 966.5,-1105.5"/>
<text text-anchor="start" x="973.5" y="-1116.9" font-family="Arial" font-size="14.00" fill="#000000">create_at </text>
<text text-anchor="start" x="1035.7454" y="-1116.9" font-family="Arial" font-size="14.00" fill="#666666">[bigint]</text>
<polygon fill="none" stroke="#000000" points="966.5,-1075.5 966.5,-1105.5 1306.5,-1105.5 1306.5,-1075.5 966.5,-1075.5"/>
<text text-anchor="start" x="973.5" y="-1086.9" font-family="Arial" font-size="14.00" fill="#000000">update_at </text>
<text text-anchor="start" x="1039.65" y="-1086.9" font-family="Arial" font-size="14.00" fill="#666666">[bigint]</text>
<polygon fill="none" stroke="#000000" points="966.5,-1045.5 966.5,-1075.5 1306.5,-1075.5 1306.5,-1045.5 966.5,-1045.5"/>
<text text-anchor="start" x="973.5" y="-1056.9" font-family="Arial" font-size="14.00" fill="#000000">delete_at </text>
<text text-anchor="start" x="1034.974" y="-1056.9" font-family="Arial" font-size="14.00" fill="#666666">[bigint]</text>
<polygon fill="none" stroke="#000000" points="966.5,-1015.5 966.5,-1045.5 1306.5,-1045.5 1306.5,-1015.5 966.5,-1015.5"/>
<text text-anchor="start" x="973.5" y="-1026.9" font-family="Arial" font-size="14.00" fill="#000000">collapsed </text>
<text text-anchor="start" x="1036.5168" y="-1026.9" font-family="Arial" font-size="14.00" fill="#666666">[boolean]</text>
<polygon fill="none" stroke="#000000" points="966.5,-985.5 966.5,-1015.5 1306.5,-1015.5 1306.5,-985.5 966.5,-985.5"/>
<text text-anchor="start" x="973.5" y="-996.9" font-family="Arial" font-size="14.00" fill="#000000">type </text>
<text text-anchor="start" x="1003.8464" y="-996.9" font-family="Arial" font-size="14.00" fill="#666666">[varchar(64)]</text>
</g>
<!-- public.focalboard_categories&#45;&gt;public.users -->
<g id="edge3" class="edge">
<title>public.focalboard_categories:user_id&#45;&gt;public.users:id</title>
<path fill="none" stroke="#000000" stroke-dasharray="5,2" d="M956.5655,-1208.1386C909.5777,-1184.1729 929.6831,-984.9906 966.5,-943 1047.1834,-850.9785 1158.8166,-999.0215 1239.5,-907 1267.7752,-874.7514 1282.3889,-810.5 1239.5,-810.5"/>
<polygon fill="#000000" stroke="#000000" points="956.7711,-1208.1874 965.4593,-1214.878 961.6355,-1209.3437 966.5,-1210.5 966.5,-1210.5 966.5,-1210.5 961.6355,-1209.3437 967.5407,-1206.122 956.7711,-1208.1874 956.7711,-1208.1874"/>
<text text-anchor="start" x="973.768" y="-1220.5" font-family="Arial" font-size="10.00" fill="#000000">Detected Relation</text>
</g>
<!-- public.focalboard_category_boards -->
<g id="node5" class="node">
<title>public.focalboard_category_boards</title>
<polygon fill="#efefef" stroke="transparent" points="1411.5,-1240.5 1411.5,-1275.5 1802.5,-1275.5 1802.5,-1240.5 1411.5,-1240.5"/>
<polygon fill="none" stroke="#000000" points="1411.5,-1240.5 1411.5,-1275.5 1802.5,-1275.5 1802.5,-1240.5 1411.5,-1240.5"/>
<text text-anchor="start" x="1418.3313" y="-1253.3" font-family="Arial Bold" font-size="18.00" fill="#000000">public.focalboard_category_boards</text>
<text text-anchor="start" x="1698.4149" y="-1253.3" font-family="Arial" font-size="14.00" fill="#000000"> </text>
<text text-anchor="start" x="1702.3055" y="-1253.3" font-family="Arial" font-size="14.00" fill="#666666">[BASE TABLE]</text>
<polygon fill="none" stroke="#000000" points="1411.5,-1210.5 1411.5,-1240.5 1802.5,-1240.5 1802.5,-1210.5 1411.5,-1210.5"/>
<text text-anchor="start" x="1418.5" y="-1221.9" font-family="Arial" font-size="14.00" fill="#000000">id </text>
<text text-anchor="start" x="1433.2798" y="-1221.9" font-family="Arial" font-size="14.00" fill="#666666">[varchar(36)]</text>
<polygon fill="none" stroke="#000000" points="1411.5,-1180.5 1411.5,-1210.5 1802.5,-1210.5 1802.5,-1180.5 1411.5,-1180.5"/>
<text text-anchor="start" x="1418.5" y="-1191.9" font-family="Arial" font-size="14.00" fill="#000000">user_id </text>
<text text-anchor="start" x="1468.2882" y="-1191.9" font-family="Arial" font-size="14.00" fill="#666666">[varchar(36)]</text>
<polygon fill="none" stroke="#000000" points="1411.5,-1150.5 1411.5,-1180.5 1802.5,-1180.5 1802.5,-1150.5 1411.5,-1150.5"/>
<text text-anchor="start" x="1418.5" y="-1161.9" font-family="Arial" font-size="14.00" fill="#000000">category_id </text>
<text text-anchor="start" x="1494.744" y="-1161.9" font-family="Arial" font-size="14.00" fill="#666666">[varchar(36)]</text>
<polygon fill="none" stroke="#000000" points="1411.5,-1120.5 1411.5,-1150.5 1802.5,-1150.5 1802.5,-1120.5 1411.5,-1120.5"/>
<text text-anchor="start" x="1418.5" y="-1131.9" font-family="Arial" font-size="14.00" fill="#000000">board_id </text>
<text text-anchor="start" x="1476.8534" y="-1131.9" font-family="Arial" font-size="14.00" fill="#666666">[varchar(36)]</text>
<polygon fill="none" stroke="#000000" points="1411.5,-1090.5 1411.5,-1120.5 1802.5,-1120.5 1802.5,-1090.5 1411.5,-1090.5"/>
<text text-anchor="start" x="1418.5" y="-1101.9" font-family="Arial" font-size="14.00" fill="#000000">create_at </text>
<text text-anchor="start" x="1480.7454" y="-1101.9" font-family="Arial" font-size="14.00" fill="#666666">[bigint]</text>
<polygon fill="none" stroke="#000000" points="1411.5,-1060.5 1411.5,-1090.5 1802.5,-1090.5 1802.5,-1060.5 1411.5,-1060.5"/>
<text text-anchor="start" x="1418.5" y="-1071.9" font-family="Arial" font-size="14.00" fill="#000000">update_at </text>
<text text-anchor="start" x="1484.65" y="-1071.9" font-family="Arial" font-size="14.00" fill="#666666">[bigint]</text>
<polygon fill="none" stroke="#000000" points="1411.5,-1030.5 1411.5,-1060.5 1802.5,-1060.5 1802.5,-1030.5 1411.5,-1030.5"/>
<text text-anchor="start" x="1418.5" y="-1041.9" font-family="Arial" font-size="14.00" fill="#000000">delete_at </text>
<text text-anchor="start" x="1479.974" y="-1041.9" font-family="Arial" font-size="14.00" fill="#666666">[bigint]</text>
</g>
<!-- public.focalboard_category_boards&#45;&gt;public.users -->
<g id="edge4" class="edge">
<title>public.focalboard_category_boards:user_id&#45;&gt;public.users:id</title>
<path fill="none" stroke="#000000" stroke-dasharray="5,2" d="M1401.7413,-1193.2261C1357.7298,-1170.9161 1382.811,-990.9384 1358.5,-943 1322.6998,-872.4062 1318.6526,-810.5 1239.5,-810.5"/>
<polygon fill="#000000" stroke="#000000" points="1401.7609,-1193.2306 1410.4788,-1199.8826 1406.6305,-1194.3653 1411.5,-1195.5 1411.5,-1195.5 1411.5,-1195.5 1406.6305,-1194.3653 1412.5212,-1191.1174 1401.7609,-1193.2306 1401.7609,-1193.2306"/>
<text text-anchor="start" x="1325.768" y="-1205.5" font-family="Arial" font-size="10.00" fill="#000000">Detected Relation</text>
</g>
<!-- public.focalboard_board_members_history -->
<g id="node6" class="node">
<title>public.focalboard_board_members_history</title>
<polygon fill="#efefef" stroke="transparent" points="1906.5,-1195.5 1906.5,-1230.5 2357.5,-1230.5 2357.5,-1195.5 1906.5,-1195.5"/>
<polygon fill="none" stroke="#000000" points="1906.5,-1195.5 1906.5,-1230.5 2357.5,-1230.5 2357.5,-1195.5 1906.5,-1195.5"/>
<text text-anchor="start" x="1913.3397" y="-1208.3" font-family="Arial Bold" font-size="18.00" fill="#000000">public.focalboard_board_members_history</text>
<text text-anchor="start" x="2253.4065" y="-1208.3" font-family="Arial" font-size="14.00" fill="#000000"> </text>
<text text-anchor="start" x="2257.2971" y="-1208.3" font-family="Arial" font-size="14.00" fill="#666666">[BASE TABLE]</text>
<polygon fill="none" stroke="#000000" points="1906.5,-1165.5 1906.5,-1195.5 2357.5,-1195.5 2357.5,-1165.5 1906.5,-1165.5"/>
<text text-anchor="start" x="1913.5" y="-1176.9" font-family="Arial" font-size="14.00" fill="#000000">board_id </text>
<text text-anchor="start" x="1971.8534" y="-1176.9" font-family="Arial" font-size="14.00" fill="#666666">[varchar(36)]</text>
<polygon fill="none" stroke="#000000" points="1906.5,-1135.5 1906.5,-1165.5 2357.5,-1165.5 2357.5,-1135.5 1906.5,-1135.5"/>
<text text-anchor="start" x="1913.5" y="-1146.9" font-family="Arial" font-size="14.00" fill="#000000">user_id </text>
<text text-anchor="start" x="1963.2882" y="-1146.9" font-family="Arial" font-size="14.00" fill="#666666">[varchar(36)]</text>
<polygon fill="none" stroke="#000000" points="1906.5,-1105.5 1906.5,-1135.5 2357.5,-1135.5 2357.5,-1105.5 1906.5,-1105.5"/>
<text text-anchor="start" x="1913.5" y="-1116.9" font-family="Arial" font-size="14.00" fill="#000000">action </text>
<text text-anchor="start" x="1954.7356" y="-1116.9" font-family="Arial" font-size="14.00" fill="#666666">[varchar(10)]</text>
<polygon fill="none" stroke="#000000" points="1906.5,-1075.5 1906.5,-1105.5 2357.5,-1105.5 2357.5,-1075.5 1906.5,-1075.5"/>
<text text-anchor="start" x="1913.5" y="-1086.9" font-family="Arial" font-size="14.00" fill="#000000">insert_at </text>
<text text-anchor="start" x="1971.0694" y="-1086.9" font-family="Arial" font-size="14.00" fill="#666666">[timestamp with time zone]</text>
</g>
<!-- public.focalboard_board_members_history&#45;&gt;public.users -->
<g id="edge5" class="edge">
<title>public.focalboard_board_members_history:user_id&#45;&gt;public.users:id</title>
<path fill="none" stroke="#000000" stroke-dasharray="5,2" d="M1896.2807,-1149.8656C1819.8559,-1139.5678 1920.1693,-1006.5155 1854.5,-943 1754.0105,-845.8063 1379.3026,-810.5 1239.5,-810.5"/>
<polygon fill="#000000" stroke="#000000" points="1896.5192,-1149.8803 1906.2212,-1154.9914 1901.5096,-1150.1902 1906.5,-1150.5 1906.5,-1150.5 1906.5,-1150.5 1901.5096,-1150.1902 1906.7788,-1146.0086 1896.5192,-1149.8803 1896.5192,-1149.8803"/>
<text text-anchor="start" x="1820.768" y="-1160.5" font-family="Arial" font-size="10.00" fill="#000000">Detected Relation</text>
</g>
</g>
</svg>
