<?xml version="1.0" encoding="UTF-8" standalone="no"?>
<!DOCTYPE svg PUBLIC "-//W3C//DTD SVG 1.1//EN"
 "http://www.w3.org/Graphics/SVG/1.1/DTD/svg11.dtd">
<!-- Generated by graphviz version 2.40.1 (20161225.0304)
 -->
<!-- Title: public.focalboard_blocks_history Pages: 1 -->
<svg width="518pt" height="1312pt"
 viewBox="0.00 0.00 517.50 1312.00" xmlns="http://www.w3.org/2000/svg" xmlns:xlink="http://www.w3.org/1999/xlink">
<g id="graph0" class="graph" transform="scale(1 1) rotate(0) translate(4 1308)">
<title>public.focalboard_blocks_history</title>
<polygon fill="#ffffff" stroke="transparent" points="-4,4 -4,-1308 513.5,-1308 513.5,4 -4,4"/>
<!-- public.focalboard_blocks_history -->
<g id="node1" class="node">
<title>public.focalboard_blocks_history</title>
<polygon fill="#efefef" stroke="transparent" points="93,-1222.5 93,-1257.5 464,-1257.5 464,-1222.5 93,-1222.5"/>
<polygon fill="none" stroke="#000000" points="93,-1222.5 93,-1257.5 464,-1257.5 464,-1222.5 93,-1222.5"/>
<text text-anchor="start" x="99.8456" y="-1235.3" font-family="Arial Bold" font-size="18.00" fill="#000000">public.focalboard_blocks_history</text>
<text text-anchor="start" x="359.9006" y="-1235.3" font-family="Arial" font-size="14.00" fill="#000000"> </text>
<text text-anchor="start" x="363.7912" y="-1235.3" font-family="Arial" font-size="14.00" fill="#666666">[BASE TABLE]</text>
<polygon fill="none" stroke="#000000" points="93,-1192.5 93,-1222.5 464,-1222.5 464,-1192.5 93,-1192.5"/>
<text text-anchor="start" x="100" y="-1203.9" font-family="Arial" font-size="14.00" fill="#000000">id </text>
<text text-anchor="start" x="114.7798" y="-1203.9" font-family="Arial" font-size="14.00" fill="#666666">[varchar(36)]</text>
<polygon fill="none" stroke="#000000" points="93,-1162.5 93,-1192.5 464,-1192.5 464,-1162.5 93,-1162.5"/>
<text text-anchor="start" x="100" y="-1173.9" font-family="Arial" font-size="14.00" fill="#000000">insert_at </text>
<text text-anchor="start" x="157.5694" y="-1173.9" font-family="Arial" font-size="14.00" fill="#666666">[timestamp with time zone]</text>
<polygon fill="none" stroke="#000000" points="93,-1132.5 93,-1162.5 464,-1162.5 464,-1132.5 93,-1132.5"/>
<text text-anchor="start" x="100" y="-1143.9" font-family="Arial" font-size="14.00" fill="#000000">parent_id </text>
<text text-anchor="start" x="162.244" y="-1143.9" font-family="Arial" font-size="14.00" fill="#666666">[varchar(36)]</text>
<polygon fill="none" stroke="#000000" points="93,-1102.5 93,-1132.5 464,-1132.5 464,-1102.5 93,-1102.5"/>
<text text-anchor="start" x="100" y="-1113.9" font-family="Arial" font-size="14.00" fill="#000000">schema </text>
<text text-anchor="start" x="152.899" y="-1113.9" font-family="Arial" font-size="14.00" fill="#666666">[bigint]</text>
<polygon fill="none" stroke="#000000" points="93,-1072.5 93,-1102.5 464,-1102.5 464,-1072.5 93,-1072.5"/>
<text text-anchor="start" x="100" y="-1083.9" font-family="Arial" font-size="14.00" fill="#000000">type </text>
<text text-anchor="start" x="130.3464" y="-1083.9" font-family="Arial" font-size="14.00" fill="#666666">[text]</text>
<polygon fill="none" stroke="#000000" points="93,-1042.5 93,-1072.5 464,-1072.5 464,-1042.5 93,-1042.5"/>
<text text-anchor="start" x="100" y="-1053.9" font-family="Arial" font-size="14.00" fill="#000000">title </text>
<text text-anchor="start" x="125.6676" y="-1053.9" font-family="Arial" font-size="14.00" fill="#666666">[text]</text>
<polygon fill="none" stroke="#000000" points="93,-1012.5 93,-1042.5 464,-1042.5 464,-1012.5 93,-1012.5"/>
<text text-anchor="start" x="100" y="-1023.9" font-family="Arial" font-size="14.00" fill="#000000">fields </text>
<text text-anchor="start" x="136.5596" y="-1023.9" font-family="Arial" font-size="14.00" fill="#666666">[json]</text>
<polygon fill="none" stroke="#000000" points="93,-982.5 93,-1012.5 464,-1012.5 464,-982.5 93,-982.5"/>
<text text-anchor="start" x="100" y="-993.9" font-family="Arial" font-size="14.00" fill="#000000">create_at </text>
<text text-anchor="start" x="162.2454" y="-993.9" font-family="Arial" font-size="14.00" fill="#666666">[bigint]</text>
<polygon fill="none" stroke="#000000" points="93,-952.5 93,-982.5 464,-982.5 464,-952.5 93,-952.5"/>
<text text-anchor="start" x="100" y="-963.9" font-family="Arial" font-size="14.00" fill="#000000">update_at </text>
<text text-anchor="start" x="166.15" y="-963.9" font-family="Arial" font-size="14.00" fill="#666666">[bigint]</text>
<polygon fill="none" stroke="#000000" points="93,-922.5 93,-952.5 464,-952.5 464,-922.5 93,-922.5"/>
<text text-anchor="start" x="100" y="-933.9" font-family="Arial" font-size="14.00" fill="#000000">delete_at </text>
<text text-anchor="start" x="161.474" y="-933.9" font-family="Arial" font-size="14.00" fill="#666666">[bigint]</text>
<polygon fill="none" stroke="#000000" points="93,-892.5 93,-922.5 464,-922.5 464,-892.5 93,-892.5"/>
<text text-anchor="start" x="100" y="-903.9" font-family="Arial" font-size="14.00" fill="#000000">root_id </text>
<text text-anchor="start" x="146.6788" y="-903.9" font-family="Arial" font-size="14.00" fill="#666666">[varchar(36)]</text>
<polygon fill="none" stroke="#000000" points="93,-862.5 93,-892.5 464,-892.5 464,-862.5 93,-862.5"/>
<text text-anchor="start" x="100" y="-873.9" font-family="Arial" font-size="14.00" fill="#000000">modified_by </text>
<text text-anchor="start" x="179.3506" y="-873.9" font-family="Arial" font-size="14.00" fill="#666666">[varchar(36)]</text>
<polygon fill="none" stroke="#000000" points="93,-832.5 93,-862.5 464,-862.5 464,-832.5 93,-832.5"/>
<text text-anchor="start" x="100" y="-843.9" font-family="Arial" font-size="14.00" fill="#000000">channel_id </text>
<text text-anchor="start" x="171.582" y="-843.9" font-family="Arial" font-size="14.00" fill="#666666">[varchar(36)]</text>
<polygon fill="none" stroke="#000000" points="93,-802.5 93,-832.5 464,-832.5 464,-802.5 93,-802.5"/>
<text text-anchor="start" x="100" y="-813.9" font-family="Arial" font-size="14.00" fill="#000000">created_by </text>
<text text-anchor="start" x="173.1374" y="-813.9" font-family="Arial" font-size="14.00" fill="#666666">[varchar(36)]</text>
<polygon fill="none" stroke="#000000" points="93,-772.5 93,-802.5 464,-802.5 464,-772.5 93,-772.5"/>
<text text-anchor="start" x="100" y="-783.9" font-family="Arial" font-size="14.00" fill="#000000">board_id </text>
<text text-anchor="start" x="158.3534" y="-783.9" font-family="Arial" font-size="14.00" fill="#666666">[varchar(36)]</text>
<polygon fill="none" stroke="#000000" stroke-width="3" points="91,-771.5 91,-1259.5 465,-1259.5 465,-771.5 91,-771.5"/>
</g>
<!-- public.channels -->
<g id="node2" class="node">
<title>public.channels</title>
<polygon fill="#efefef" stroke="transparent" points="161,-612.5 161,-647.5 396,-647.5 396,-612.5 161,-612.5"/>
<polygon fill="none" stroke="#000000" points="161,-612.5 161,-647.5 396,-647.5 396,-612.5 161,-612.5"/>
<text text-anchor="start" x="167.8559" y="-625.3" font-family="Arial Bold" font-size="18.00" fill="#000000">public.channels</text>
<text text-anchor="start" x="291.8903" y="-625.3" font-family="Arial" font-size="14.00" fill="#000000"> </text>
<text text-anchor="start" x="295.7809" y="-625.3" font-family="Arial" font-size="14.00" fill="#666666">[BASE TABLE]</text>
<polygon fill="none" stroke="#000000" points="161,-582.5 161,-612.5 396,-612.5 396,-582.5 161,-582.5"/>
<text text-anchor="start" x="168" y="-593.9" font-family="Arial" font-size="14.00" fill="#000000">id </text>
<text text-anchor="start" x="182.7798" y="-593.9" font-family="Arial" font-size="14.00" fill="#666666">[varchar(26)]</text>
<polygon fill="none" stroke="#000000" points="161,-552.5 161,-582.5 396,-582.5 396,-552.5 161,-552.5"/>
<text text-anchor="start" x="168" y="-563.9" font-family="Arial" font-size="14.00" fill="#000000">createat </text>
<text text-anchor="start" x="222.4628" y="-563.9" font-family="Arial" font-size="14.00" fill="#666666">[bigint]</text>
<polygon fill="none" stroke="#000000" points="161,-522.5 161,-552.5 396,-552.5 396,-522.5 161,-522.5"/>
<text text-anchor="start" x="168" y="-533.9" font-family="Arial" font-size="14.00" fill="#000000">updateat </text>
<text text-anchor="start" x="226.3674" y="-533.9" font-family="Arial" font-size="14.00" fill="#666666">[bigint]</text>
<polygon fill="none" stroke="#000000" points="161,-492.5 161,-522.5 396,-522.5 396,-492.5 161,-492.5"/>
<text text-anchor="start" x="168" y="-503.9" font-family="Arial" font-size="14.00" fill="#000000">deleteat </text>
<text text-anchor="start" x="221.6914" y="-503.9" font-family="Arial" font-size="14.00" fill="#666666">[bigint]</text>
<polygon fill="none" stroke="#000000" points="161,-462.5 161,-492.5 396,-492.5 396,-462.5 161,-462.5"/>
<text text-anchor="start" x="168" y="-473.9" font-family="Arial" font-size="14.00" fill="#000000">teamid </text>
<text text-anchor="start" x="213.8962" y="-473.9" font-family="Arial" font-size="14.00" fill="#666666">[varchar(26)]</text>
<polygon fill="none" stroke="#000000" points="161,-432.5 161,-462.5 396,-462.5 396,-432.5 161,-432.5"/>
<text text-anchor="start" x="168" y="-443.9" font-family="Arial" font-size="14.00" fill="#000000">type </text>
<text text-anchor="start" x="198.3464" y="-443.9" font-family="Arial" font-size="14.00" fill="#666666">[channel_type]</text>
<polygon fill="none" stroke="#000000" points="161,-402.5 161,-432.5 396,-432.5 396,-402.5 161,-402.5"/>
<text text-anchor="start" x="168" y="-413.9" font-family="Arial" font-size="14.00" fill="#000000">displayname </text>
<text text-anchor="start" x="250.46" y="-413.9" font-family="Arial" font-size="14.00" fill="#666666">[varchar(64)]</text>
<polygon fill="none" stroke="#000000" points="161,-372.5 161,-402.5 396,-402.5 396,-372.5 161,-372.5"/>
<text text-anchor="start" x="168" y="-383.9" font-family="Arial" font-size="14.00" fill="#000000">name </text>
<text text-anchor="start" x="206.899" y="-383.9" font-family="Arial" font-size="14.00" fill="#666666">[varchar(64)]</text>
<polygon fill="none" stroke="#000000" points="161,-342.5 161,-372.5 396,-372.5 396,-342.5 161,-342.5"/>
<text text-anchor="start" x="168" y="-353.9" font-family="Arial" font-size="14.00" fill="#000000">header </text>
<text text-anchor="start" x="215.4642" y="-353.9" font-family="Arial" font-size="14.00" fill="#666666">[varchar(1024)]</text>
<polygon fill="none" stroke="#000000" points="161,-312.5 161,-342.5 396,-342.5 396,-312.5 161,-312.5"/>
<text text-anchor="start" x="168" y="-323.9" font-family="Arial" font-size="14.00" fill="#000000">purpose </text>
<text text-anchor="start" x="222.4642" y="-323.9" font-family="Arial" font-size="14.00" fill="#666666">[varchar(250)]</text>
<polygon fill="none" stroke="#000000" points="161,-282.5 161,-312.5 396,-312.5 396,-282.5 161,-282.5"/>
<text text-anchor="start" x="168" y="-293.9" font-family="Arial" font-size="14.00" fill="#000000">lastpostat </text>
<text text-anchor="start" x="231.7994" y="-293.9" font-family="Arial" font-size="14.00" fill="#666666">[bigint]</text>
<polygon fill="none" stroke="#000000" points="161,-252.5 161,-282.5 396,-282.5 396,-252.5 161,-252.5"/>
<text text-anchor="start" x="168" y="-263.9" font-family="Arial" font-size="14.00" fill="#000000">totalmsgcount </text>
<text text-anchor="start" x="259.0252" y="-263.9" font-family="Arial" font-size="14.00" fill="#666666">[bigint]</text>
<polygon fill="none" stroke="#000000" points="161,-222.5 161,-252.5 396,-252.5 396,-222.5 161,-222.5"/>
<text text-anchor="start" x="168" y="-233.9" font-family="Arial" font-size="14.00" fill="#000000">extraupdateat </text>
<text text-anchor="start" x="257.4838" y="-233.9" font-family="Arial" font-size="14.00" fill="#666666">[bigint]</text>
<polygon fill="none" stroke="#000000" points="161,-192.5 161,-222.5 396,-222.5 396,-192.5 161,-192.5"/>
<text text-anchor="start" x="168" y="-203.9" font-family="Arial" font-size="14.00" fill="#000000">creatorid </text>
<text text-anchor="start" x="226.3394" y="-203.9" font-family="Arial" font-size="14.00" fill="#666666">[varchar(26)]</text>
<polygon fill="none" stroke="#000000" points="161,-162.5 161,-192.5 396,-192.5 396,-162.5 161,-162.5"/>
<text text-anchor="start" x="168" y="-173.9" font-family="Arial" font-size="14.00" fill="#000000">schemeid </text>
<text text-anchor="start" x="231.7882" y="-173.9" font-family="Arial" font-size="14.00" fill="#666666">[varchar(26)]</text>
<polygon fill="none" stroke="#000000" points="161,-132.5 161,-162.5 396,-162.5 396,-132.5 161,-132.5"/>
<text text-anchor="start" x="168" y="-143.9" font-family="Arial" font-size="14.00" fill="#000000">groupconstrained </text>
<text text-anchor="start" x="280.035" y="-143.9" font-family="Arial" font-size="14.00" fill="#666666">[boolean]</text>
<polygon fill="none" stroke="#000000" points="161,-102.5 161,-132.5 396,-132.5 396,-102.5 161,-102.5"/>
<text text-anchor="start" x="168" y="-113.9" font-family="Arial" font-size="14.00" fill="#000000">shared </text>
<text text-anchor="start" x="214.6816" y="-113.9" font-family="Arial" font-size="14.00" fill="#666666">[boolean]</text>
<polygon fill="none" stroke="#000000" points="161,-72.5 161,-102.5 396,-102.5 396,-72.5 161,-72.5"/>
<text text-anchor="start" x="168" y="-83.9" font-family="Arial" font-size="14.00" fill="#000000">totalmsgcountroot </text>
<text text-anchor="start" x="283.1416" y="-83.9" font-family="Arial" font-size="14.00" fill="#666666">[bigint]</text>
<polygon fill="none" stroke="#000000" points="161,-42.5 161,-72.5 396,-72.5 396,-42.5 161,-42.5"/>
<text text-anchor="start" x="168" y="-53.9" font-family="Arial" font-size="14.00" fill="#000000">lastrootpostat </text>
<text text-anchor="start" x="255.9158" y="-53.9" font-family="Arial" font-size="14.00" fill="#666666">[bigint]</text>
</g>
<!-- public.focalboard_blocks_history&#45;&gt;public.channels -->
<g id="edge1" class="edge">
<title>public.focalboard_blocks_history:channel_id&#45;&gt;public.channels:id</title>
<path fill="none" stroke="#000000" stroke-dasharray="5,2" d="M82.7373,-846.7828C-17.852,-832.1191 49.4504,-597.5 161,-597.5"/>
<polygon fill="#000000" stroke="#000000" points="83.0243,-846.8028 92.6863,-851.9891 88.0122,-847.1514 93,-847.5 93,-847.5 93,-847.5 88.0122,-847.1514 93.3137,-843.0109 83.0243,-846.8028 83.0243,-846.8028"/>
<text text-anchor="start" x="7.268" y="-857.5" font-family="Arial" font-size="10.00" fill="#000000">Detected Relation</text>
</g>
</g>
</svg>
