<?xml version="1.0" encoding="UTF-8" standalone="no"?>
<!DOCTYPE svg PUBLIC "-//W3C//DTD SVG 1.1//EN"
 "http://www.w3.org/Graphics/SVG/1.1/DTD/svg11.dtd">
<!-- Generated by graphviz version 2.40.1 (20161225.0304)
 -->
<!-- Title: public.focalboard_categories Pages: 1 -->
<svg width="957pt" height="1372pt"
 viewBox="0.00 0.00 957.00 1372.00" xmlns="http://www.w3.org/2000/svg" xmlns:xlink="http://www.w3.org/1999/xlink">
<g id="graph0" class="graph" transform="scale(1 1) rotate(0) translate(4 1368)">
<title>public.focalboard_categories</title>
<polygon fill="#ffffff" stroke="transparent" points="-4,4 -4,-1368 953,-1368 953,4 -4,4"/>
<!-- public.focalboard_categories -->
<g id="node1" class="node">
<title>public.focalboard_categories</title>
<polygon fill="#efefef" stroke="transparent" points="291.5,-1282.5 291.5,-1317.5 631.5,-1317.5 631.5,-1282.5 291.5,-1282.5"/>
<polygon fill="none" stroke="#000000" points="291.5,-1282.5 291.5,-1317.5 631.5,-1317.5 631.5,-1282.5 291.5,-1282.5"/>
<text text-anchor="start" x="298.3427" y="-1295.3" font-family="Arial Bold" font-size="18.00" fill="#000000">public.focalboard_categories</text>
<text text-anchor="start" x="527.4035" y="-1295.3" font-family="Arial" font-size="14.00" fill="#000000"> </text>
<text text-anchor="start" x="531.2941" y="-1295.3" font-family="Arial" font-size="14.00" fill="#666666">[BASE TABLE]</text>
<polygon fill="none" stroke="#000000" points="291.5,-1252.5 291.5,-1282.5 631.5,-1282.5 631.5,-1252.5 291.5,-1252.5"/>
<text text-anchor="start" x="298.5" y="-1263.9" font-family="Arial" font-size="14.00" fill="#000000">id </text>
<text text-anchor="start" x="313.2798" y="-1263.9" font-family="Arial" font-size="14.00" fill="#666666">[varchar(36)]</text>
<polygon fill="none" stroke="#000000" points="291.5,-1222.5 291.5,-1252.5 631.5,-1252.5 631.5,-1222.5 291.5,-1222.5"/>
<text text-anchor="start" x="298.5" y="-1233.9" font-family="Arial" font-size="14.00" fill="#000000">name </text>
<text text-anchor="start" x="337.399" y="-1233.9" font-family="Arial" font-size="14.00" fill="#666666">[varchar(100)]</text>
<polygon fill="none" stroke="#000000" points="291.5,-1192.5 291.5,-1222.5 631.5,-1222.5 631.5,-1192.5 291.5,-1192.5"/>
<text text-anchor="start" x="298.5" y="-1203.9" font-family="Arial" font-size="14.00" fill="#000000">user_id </text>
<text text-anchor="start" x="348.2882" y="-1203.9" font-family="Arial" font-size="14.00" fill="#666666">[varchar(36)]</text>
<polygon fill="none" stroke="#000000" points="291.5,-1162.5 291.5,-1192.5 631.5,-1192.5 631.5,-1162.5 291.5,-1162.5"/>
<text text-anchor="start" x="298.5" y="-1173.9" font-family="Arial" font-size="14.00" fill="#000000">team_id </text>
<text text-anchor="start" x="352.1788" y="-1173.9" font-family="Arial" font-size="14.00" fill="#666666">[varchar(36)]</text>
<polygon fill="none" stroke="#000000" points="291.5,-1132.5 291.5,-1162.5 631.5,-1162.5 631.5,-1132.5 291.5,-1132.5"/>
<text text-anchor="start" x="298.5" y="-1143.9" font-family="Arial" font-size="14.00" fill="#000000">channel_id </text>
<text text-anchor="start" x="370.082" y="-1143.9" font-family="Arial" font-size="14.00" fill="#666666">[varchar(36)]</text>
<polygon fill="none" stroke="#000000" points="291.5,-1102.5 291.5,-1132.5 631.5,-1132.5 631.5,-1102.5 291.5,-1102.5"/>
<text text-anchor="start" x="298.5" y="-1113.9" font-family="Arial" font-size="14.00" fill="#000000">create_at </text>
<text text-anchor="start" x="360.7454" y="-1113.9" font-family="Arial" font-size="14.00" fill="#666666">[bigint]</text>
<polygon fill="none" stroke="#000000" points="291.5,-1072.5 291.5,-1102.5 631.5,-1102.5 631.5,-1072.5 291.5,-1072.5"/>
<text text-anchor="start" x="298.5" y="-1083.9" font-family="Arial" font-size="14.00" fill="#000000">update_at </text>
<text text-anchor="start" x="364.65" y="-1083.9" font-family="Arial" font-size="14.00" fill="#666666">[bigint]</text>
<polygon fill="none" stroke="#000000" points="291.5,-1042.5 291.5,-1072.5 631.5,-1072.5 631.5,-1042.5 291.5,-1042.5"/>
<text text-anchor="start" x="298.5" y="-1053.9" font-family="Arial" font-size="14.00" fill="#000000">delete_at </text>
<text text-anchor="start" x="359.974" y="-1053.9" font-family="Arial" font-size="14.00" fill="#666666">[bigint]</text>
<polygon fill="none" stroke="#000000" points="291.5,-1012.5 291.5,-1042.5 631.5,-1042.5 631.5,-1012.5 291.5,-1012.5"/>
<text text-anchor="start" x="298.5" y="-1023.9" font-family="Arial" font-size="14.00" fill="#000000">collapsed </text>
<text text-anchor="start" x="361.5168" y="-1023.9" font-family="Arial" font-size="14.00" fill="#666666">[boolean]</text>
<polygon fill="none" stroke="#000000" points="291.5,-982.5 291.5,-1012.5 631.5,-1012.5 631.5,-982.5 291.5,-982.5"/>
<text text-anchor="start" x="298.5" y="-993.9" font-family="Arial" font-size="14.00" fill="#000000">type </text>
<text text-anchor="start" x="328.8464" y="-993.9" font-family="Arial" font-size="14.00" fill="#666666">[varchar(64)]</text>
<polygon fill="none" stroke="#000000" stroke-width="3" points="290,-981.5 290,-1319.5 633,-1319.5 633,-981.5 290,-981.5"/>
</g>
<!-- public.users -->
<g id="node2" class="node">
<title>public.users</title>
<polygon fill="#efefef" stroke="transparent" points="43.5,-822.5 43.5,-857.5 250.5,-857.5 250.5,-822.5 43.5,-822.5"/>
<polygon fill="none" stroke="#000000" points="43.5,-822.5 43.5,-857.5 250.5,-857.5 250.5,-822.5 43.5,-822.5"/>
<text text-anchor="start" x="50.3662" y="-835.3" font-family="Arial Bold" font-size="18.00" fill="#000000">public.users</text>
<text text-anchor="start" x="146.38" y="-835.3" font-family="Arial" font-size="14.00" fill="#000000"> </text>
<text text-anchor="start" x="150.2706" y="-835.3" font-family="Arial" font-size="14.00" fill="#666666">[BASE TABLE]</text>
<polygon fill="none" stroke="#000000" points="43.5,-792.5 43.5,-822.5 250.5,-822.5 250.5,-792.5 43.5,-792.5"/>
<text text-anchor="start" x="50.5" y="-803.9" font-family="Arial" font-size="14.00" fill="#000000">id </text>
<text text-anchor="start" x="65.2798" y="-803.9" font-family="Arial" font-size="14.00" fill="#666666">[varchar(26)]</text>
<polygon fill="none" stroke="#000000" points="43.5,-762.5 43.5,-792.5 250.5,-792.5 250.5,-762.5 43.5,-762.5"/>
<text text-anchor="start" x="50.5" y="-773.9" font-family="Arial" font-size="14.00" fill="#000000">createat </text>
<text text-anchor="start" x="104.9628" y="-773.9" font-family="Arial" font-size="14.00" fill="#666666">[bigint]</text>
<polygon fill="none" stroke="#000000" points="43.5,-732.5 43.5,-762.5 250.5,-762.5 250.5,-732.5 43.5,-732.5"/>
<text text-anchor="start" x="50.5" y="-743.9" font-family="Arial" font-size="14.00" fill="#000000">updateat </text>
<text text-anchor="start" x="108.8674" y="-743.9" font-family="Arial" font-size="14.00" fill="#666666">[bigint]</text>
<polygon fill="none" stroke="#000000" points="43.5,-702.5 43.5,-732.5 250.5,-732.5 250.5,-702.5 43.5,-702.5"/>
<text text-anchor="start" x="50.5" y="-713.9" font-family="Arial" font-size="14.00" fill="#000000">deleteat </text>
<text text-anchor="start" x="104.1914" y="-713.9" font-family="Arial" font-size="14.00" fill="#666666">[bigint]</text>
<polygon fill="none" stroke="#000000" points="43.5,-672.5 43.5,-702.5 250.5,-702.5 250.5,-672.5 43.5,-672.5"/>
<text text-anchor="start" x="50.5" y="-683.9" font-family="Arial" font-size="14.00" fill="#000000">username </text>
<text text-anchor="start" x="116.6248" y="-683.9" font-family="Arial" font-size="14.00" fill="#666666">[varchar(64)]</text>
<polygon fill="none" stroke="#000000" points="43.5,-642.5 43.5,-672.5 250.5,-672.5 250.5,-642.5 43.5,-642.5"/>
<text text-anchor="start" x="50.5" y="-653.9" font-family="Arial" font-size="14.00" fill="#000000">password </text>
<text text-anchor="start" x="114.2882" y="-653.9" font-family="Arial" font-size="14.00" fill="#666666">[varchar(128)]</text>
<polygon fill="none" stroke="#000000" points="43.5,-612.5 43.5,-642.5 250.5,-642.5 250.5,-612.5 43.5,-612.5"/>
<text text-anchor="start" x="50.5" y="-623.9" font-family="Arial" font-size="14.00" fill="#000000">authdata </text>
<text text-anchor="start" x="108.8674" y="-623.9" font-family="Arial" font-size="14.00" fill="#666666">[varchar(128)]</text>
<polygon fill="none" stroke="#000000" points="43.5,-582.5 43.5,-612.5 250.5,-612.5 250.5,-582.5 43.5,-582.5"/>
<text text-anchor="start" x="50.5" y="-593.9" font-family="Arial" font-size="14.00" fill="#000000">authservice </text>
<text text-anchor="start" x="125.9614" y="-593.9" font-family="Arial" font-size="14.00" fill="#666666">[varchar(32)]</text>
<polygon fill="none" stroke="#000000" points="43.5,-552.5 43.5,-582.5 250.5,-582.5 250.5,-552.5 43.5,-552.5"/>
<text text-anchor="start" x="50.5" y="-563.9" font-family="Arial" font-size="14.00" fill="#000000">email </text>
<text text-anchor="start" x="87.8296" y="-563.9" font-family="Arial" font-size="14.00" fill="#666666">[varchar(128)]</text>
<polygon fill="none" stroke="#000000" points="43.5,-522.5 43.5,-552.5 250.5,-552.5 250.5,-522.5 43.5,-522.5"/>
<text text-anchor="start" x="50.5" y="-533.9" font-family="Arial" font-size="14.00" fill="#000000">emailverified </text>
<text text-anchor="start" x="132.9418" y="-533.9" font-family="Arial" font-size="14.00" fill="#666666">[boolean]</text>
<polygon fill="none" stroke="#000000" points="43.5,-492.5 43.5,-522.5 250.5,-522.5 250.5,-492.5 43.5,-492.5"/>
<text text-anchor="start" x="50.5" y="-503.9" font-family="Arial" font-size="14.00" fill="#000000">nickname </text>
<text text-anchor="start" x="114.2882" y="-503.9" font-family="Arial" font-size="14.00" fill="#666666">[varchar(64)]</text>
<polygon fill="none" stroke="#000000" points="43.5,-462.5 43.5,-492.5 250.5,-492.5 250.5,-462.5 43.5,-462.5"/>
<text text-anchor="start" x="50.5" y="-473.9" font-family="Arial" font-size="14.00" fill="#000000">firstname </text>
<text text-anchor="start" x="111.9474" y="-473.9" font-family="Arial" font-size="14.00" fill="#666666">[varchar(64)]</text>
<polygon fill="none" stroke="#000000" points="43.5,-432.5 43.5,-462.5 250.5,-462.5 250.5,-432.5 43.5,-432.5"/>
<text text-anchor="start" x="50.5" y="-443.9" font-family="Arial" font-size="14.00" fill="#000000">lastname </text>
<text text-anchor="start" x="111.1788" y="-443.9" font-family="Arial" font-size="14.00" fill="#666666">[varchar(64)]</text>
<polygon fill="none" stroke="#000000" points="43.5,-402.5 43.5,-432.5 250.5,-432.5 250.5,-402.5 43.5,-402.5"/>
<text text-anchor="start" x="50.5" y="-413.9" font-family="Arial" font-size="14.00" fill="#000000">roles </text>
<text text-anchor="start" x="84.723" y="-413.9" font-family="Arial" font-size="14.00" fill="#666666">[varchar(256)]</text>
<polygon fill="none" stroke="#000000" points="43.5,-372.5 43.5,-402.5 250.5,-402.5 250.5,-372.5 43.5,-372.5"/>
<text text-anchor="start" x="50.5" y="-383.9" font-family="Arial" font-size="14.00" fill="#000000">allowmarketing </text>
<text text-anchor="start" x="147.7244" y="-383.9" font-family="Arial" font-size="14.00" fill="#666666">[boolean]</text>
<polygon fill="none" stroke="#000000" points="43.5,-342.5 43.5,-372.5 250.5,-372.5 250.5,-342.5 43.5,-342.5"/>
<text text-anchor="start" x="50.5" y="-353.9" font-family="Arial" font-size="14.00" fill="#000000">props </text>
<text text-anchor="start" x="89.399" y="-353.9" font-family="Arial" font-size="14.00" fill="#666666">[jsonb]</text>
<polygon fill="none" stroke="#000000" points="43.5,-312.5 43.5,-342.5 250.5,-342.5 250.5,-312.5 43.5,-312.5"/>
<text text-anchor="start" x="50.5" y="-323.9" font-family="Arial" font-size="14.00" fill="#000000">notifyprops </text>
<text text-anchor="start" x="122.852" y="-323.9" font-family="Arial" font-size="14.00" fill="#666666">[jsonb]</text>
<polygon fill="none" stroke="#000000" points="43.5,-282.5 43.5,-312.5 250.5,-312.5 250.5,-282.5 43.5,-282.5"/>
<text text-anchor="start" x="50.5" y="-293.9" font-family="Arial" font-size="14.00" fill="#000000">lastpasswordupdate </text>
<text text-anchor="start" x="178.8716" y="-293.9" font-family="Arial" font-size="14.00" fill="#666666">[bigint]</text>
<polygon fill="none" stroke="#000000" points="43.5,-252.5 43.5,-282.5 250.5,-282.5 250.5,-252.5 43.5,-252.5"/>
<text text-anchor="start" x="50.5" y="-263.9" font-family="Arial" font-size="14.00" fill="#000000">lastpictureupdate </text>
<text text-anchor="start" x="160.9796" y="-263.9" font-family="Arial" font-size="14.00" fill="#666666">[bigint]</text>
<polygon fill="none" stroke="#000000" points="43.5,-222.5 43.5,-252.5 250.5,-252.5 250.5,-222.5 43.5,-222.5"/>
<text text-anchor="start" x="50.5" y="-233.9" font-family="Arial" font-size="14.00" fill="#000000">failedattempts </text>
<text text-anchor="start" x="141.5224" y="-233.9" font-family="Arial" font-size="14.00" fill="#666666">[integer]</text>
<polygon fill="none" stroke="#000000" points="43.5,-192.5 43.5,-222.5 250.5,-222.5 250.5,-192.5 43.5,-192.5"/>
<text text-anchor="start" x="50.5" y="-203.9" font-family="Arial" font-size="14.00" fill="#000000">locale </text>
<text text-anchor="start" x="90.9516" y="-203.9" font-family="Arial" font-size="14.00" fill="#666666">[varchar(5)]</text>
<polygon fill="none" stroke="#000000" points="43.5,-162.5 43.5,-192.5 250.5,-192.5 250.5,-162.5 43.5,-162.5"/>
<text text-anchor="start" x="50.5" y="-173.9" font-family="Arial" font-size="14.00" fill="#000000">mfaactive </text>
<text text-anchor="start" x="114.2868" y="-173.9" font-family="Arial" font-size="14.00" fill="#666666">[boolean]</text>
<polygon fill="none" stroke="#000000" points="43.5,-132.5 43.5,-162.5 250.5,-162.5 250.5,-132.5 43.5,-132.5"/>
<text text-anchor="start" x="50.5" y="-143.9" font-family="Arial" font-size="14.00" fill="#000000">mfasecret </text>
<text text-anchor="start" x="115.8408" y="-143.9" font-family="Arial" font-size="14.00" fill="#666666">[varchar(128)]</text>
<polygon fill="none" stroke="#000000" points="43.5,-102.5 43.5,-132.5 250.5,-132.5 250.5,-102.5 43.5,-102.5"/>
<text text-anchor="start" x="50.5" y="-113.9" font-family="Arial" font-size="14.00" fill="#000000">position </text>
<text text-anchor="start" x="102.6248" y="-113.9" font-family="Arial" font-size="14.00" fill="#666666">[varchar(128)]</text>
<polygon fill="none" stroke="#000000" points="43.5,-72.5 43.5,-102.5 250.5,-102.5 250.5,-72.5 43.5,-72.5"/>
<text text-anchor="start" x="50.5" y="-83.9" font-family="Arial" font-size="14.00" fill="#000000">timezone </text>
<text text-anchor="start" x="111.1788" y="-83.9" font-family="Arial" font-size="14.00" fill="#666666">[jsonb]</text>
<polygon fill="none" stroke="#000000" points="43.5,-42.5 43.5,-72.5 250.5,-72.5 250.5,-42.5 43.5,-42.5"/>
<text text-anchor="start" x="50.5" y="-53.9" font-family="Arial" font-size="14.00" fill="#000000">remoteid </text>
<text text-anchor="start" x="108.8394" y="-53.9" font-family="Arial" font-size="14.00" fill="#666666">[varchar(26)]</text>
</g>
<!-- public.focalboard_categories&#45;&gt;public.users -->
<g id="edge1" class="edge">
<title>public.focalboard_categories:user_id&#45;&gt;public.users:id</title>
<path fill="none" stroke="#000000" stroke-dasharray="5,2" d="M281.6198,-1205.5365C213.0599,-1175.3604 336.1897,-807.5 250.5,-807.5"/>
<polygon fill="#000000" stroke="#000000" points="281.6918,-1205.5507 290.6228,-1211.9137 286.5959,-1206.5253 291.5,-1207.5 291.5,-1207.5 291.5,-1207.5 286.5959,-1206.5253 292.3772,-1203.0863 281.6918,-1205.5507 281.6918,-1205.5507"/>
<text text-anchor="start" x="205.768" y="-1217.5" font-family="Arial" font-size="10.00" fill="#000000">Detected Relation</text>
</g>
<!-- public.teams -->
<g id="node3" class="node">
<title>public.teams</title>
<polygon fill="#efefef" stroke="transparent" points="354.5,-687.5 354.5,-722.5 567.5,-722.5 567.5,-687.5 354.5,-687.5"/>
<polygon fill="none" stroke="#000000" points="354.5,-687.5 354.5,-722.5 567.5,-722.5 567.5,-687.5 354.5,-687.5"/>
<text text-anchor="start" x="361.8651" y="-700.3" font-family="Arial Bold" font-size="18.00" fill="#000000">public.teams</text>
<text text-anchor="start" x="462.8811" y="-700.3" font-family="Arial" font-size="14.00" fill="#000000"> </text>
<text text-anchor="start" x="466.7717" y="-700.3" font-family="Arial" font-size="14.00" fill="#666666">[BASE TABLE]</text>
<polygon fill="none" stroke="#000000" points="354.5,-657.5 354.5,-687.5 567.5,-687.5 567.5,-657.5 354.5,-657.5"/>
<text text-anchor="start" x="361.5" y="-668.9" font-family="Arial" font-size="14.00" fill="#000000">id </text>
<text text-anchor="start" x="376.2798" y="-668.9" font-family="Arial" font-size="14.00" fill="#666666">[varchar(26)]</text>
<polygon fill="none" stroke="#000000" points="354.5,-627.5 354.5,-657.5 567.5,-657.5 567.5,-627.5 354.5,-627.5"/>
<text text-anchor="start" x="361.5" y="-638.9" font-family="Arial" font-size="14.00" fill="#000000">createat </text>
<text text-anchor="start" x="415.9628" y="-638.9" font-family="Arial" font-size="14.00" fill="#666666">[bigint]</text>
<polygon fill="none" stroke="#000000" points="354.5,-597.5 354.5,-627.5 567.5,-627.5 567.5,-597.5 354.5,-597.5"/>
<text text-anchor="start" x="361.5" y="-608.9" font-family="Arial" font-size="14.00" fill="#000000">updateat </text>
<text text-anchor="start" x="419.8674" y="-608.9" font-family="Arial" font-size="14.00" fill="#666666">[bigint]</text>
<polygon fill="none" stroke="#000000" points="354.5,-567.5 354.5,-597.5 567.5,-597.5 567.5,-567.5 354.5,-567.5"/>
<text text-anchor="start" x="361.5" y="-578.9" font-family="Arial" font-size="14.00" fill="#000000">deleteat </text>
<text text-anchor="start" x="415.1914" y="-578.9" font-family="Arial" font-size="14.00" fill="#666666">[bigint]</text>
<polygon fill="none" stroke="#000000" points="354.5,-537.5 354.5,-567.5 567.5,-567.5 567.5,-537.5 354.5,-537.5"/>
<text text-anchor="start" x="361.5" y="-548.9" font-family="Arial" font-size="14.00" fill="#000000">displayname </text>
<text text-anchor="start" x="443.96" y="-548.9" font-family="Arial" font-size="14.00" fill="#666666">[varchar(64)]</text>
<polygon fill="none" stroke="#000000" points="354.5,-507.5 354.5,-537.5 567.5,-537.5 567.5,-507.5 354.5,-507.5"/>
<text text-anchor="start" x="361.5" y="-518.9" font-family="Arial" font-size="14.00" fill="#000000">name </text>
<text text-anchor="start" x="400.399" y="-518.9" font-family="Arial" font-size="14.00" fill="#666666">[varchar(64)]</text>
<polygon fill="none" stroke="#000000" points="354.5,-477.5 354.5,-507.5 567.5,-507.5 567.5,-477.5 354.5,-477.5"/>
<text text-anchor="start" x="361.5" y="-488.9" font-family="Arial" font-size="14.00" fill="#000000">description </text>
<text text-anchor="start" x="433.068" y="-488.9" font-family="Arial" font-size="14.00" fill="#666666">[varchar(255)]</text>
<polygon fill="none" stroke="#000000" points="354.5,-447.5 354.5,-477.5 567.5,-477.5 567.5,-447.5 354.5,-447.5"/>
<text text-anchor="start" x="361.5" y="-458.9" font-family="Arial" font-size="14.00" fill="#000000">email </text>
<text text-anchor="start" x="398.8296" y="-458.9" font-family="Arial" font-size="14.00" fill="#666666">[varchar(128)]</text>
<polygon fill="none" stroke="#000000" points="354.5,-417.5 354.5,-447.5 567.5,-447.5 567.5,-417.5 354.5,-417.5"/>
<text text-anchor="start" x="361.5" y="-428.9" font-family="Arial" font-size="14.00" fill="#000000">type </text>
<text text-anchor="start" x="391.8464" y="-428.9" font-family="Arial" font-size="14.00" fill="#666666">[team_type]</text>
<polygon fill="none" stroke="#000000" points="354.5,-387.5 354.5,-417.5 567.5,-417.5 567.5,-387.5 354.5,-387.5"/>
<text text-anchor="start" x="361.5" y="-398.9" font-family="Arial" font-size="14.00" fill="#000000">companyname </text>
<text text-anchor="start" x="457.19" y="-398.9" font-family="Arial" font-size="14.00" fill="#666666">[varchar(64)]</text>
<polygon fill="none" stroke="#000000" points="354.5,-357.5 354.5,-387.5 567.5,-387.5 567.5,-357.5 354.5,-357.5"/>
<text text-anchor="start" x="361.4299" y="-368.9" font-family="Arial" font-size="14.00" fill="#000000">alloweddomains </text>
<text text-anchor="start" x="465.6683" y="-368.9" font-family="Arial" font-size="14.00" fill="#666666">[varchar(1000)]</text>
<polygon fill="none" stroke="#000000" points="354.5,-327.5 354.5,-357.5 567.5,-357.5 567.5,-327.5 354.5,-327.5"/>
<text text-anchor="start" x="361.5" y="-338.9" font-family="Arial" font-size="14.00" fill="#000000">inviteid </text>
<text text-anchor="start" x="408.9488" y="-338.9" font-family="Arial" font-size="14.00" fill="#666666">[varchar(32)]</text>
<polygon fill="none" stroke="#000000" points="354.5,-297.5 354.5,-327.5 567.5,-327.5 567.5,-297.5 354.5,-297.5"/>
<text text-anchor="start" x="361.5" y="-308.9" font-family="Arial" font-size="14.00" fill="#000000">schemeid </text>
<text text-anchor="start" x="425.2882" y="-308.9" font-family="Arial" font-size="14.00" fill="#666666">[varchar(26)]</text>
<polygon fill="none" stroke="#000000" points="354.5,-267.5 354.5,-297.5 567.5,-297.5 567.5,-267.5 354.5,-267.5"/>
<text text-anchor="start" x="361.5" y="-278.9" font-family="Arial" font-size="14.00" fill="#000000">allowopeninvite </text>
<text text-anchor="start" x="461.075" y="-278.9" font-family="Arial" font-size="14.00" fill="#666666">[boolean]</text>
<polygon fill="none" stroke="#000000" points="354.5,-237.5 354.5,-267.5 567.5,-267.5 567.5,-237.5 354.5,-237.5"/>
<text text-anchor="start" x="361.5" y="-248.9" font-family="Arial" font-size="14.00" fill="#000000">lastteamiconupdate </text>
<text text-anchor="start" x="486.7622" y="-248.9" font-family="Arial" font-size="14.00" fill="#666666">[bigint]</text>
<polygon fill="none" stroke="#000000" points="354.5,-207.5 354.5,-237.5 567.5,-237.5 567.5,-207.5 354.5,-207.5"/>
<text text-anchor="start" x="361.5" y="-218.9" font-family="Arial" font-size="14.00" fill="#000000">groupconstrained </text>
<text text-anchor="start" x="473.535" y="-218.9" font-family="Arial" font-size="14.00" fill="#666666">[boolean]</text>
<polygon fill="none" stroke="#000000" points="354.5,-177.5 354.5,-207.5 567.5,-207.5 567.5,-177.5 354.5,-177.5"/>
<text text-anchor="start" x="361.5" y="-188.9" font-family="Arial" font-size="14.00" fill="#000000">cloudlimitsarchived </text>
<text text-anchor="start" x="483.6136" y="-188.9" font-family="Arial" font-size="14.00" fill="#666666">[boolean]</text>
</g>
<!-- public.focalboard_categories&#45;&gt;public.teams -->
<g id="edge2" class="edge">
<title>public.focalboard_categories:team_id&#45;&gt;public.teams:id</title>
<path fill="none" stroke="#000000" stroke-dasharray="5,2" d="M281.3819,-1177.0208C188.2529,-1167.7901 241.2271,-1027.2871 291.5,-937 361.7002,-810.9245 497.2998,-892.0755 567.5,-766 587.716,-729.6933 609.0556,-672.5 567.5,-672.5"/>
<polygon fill="#000000" stroke="#000000" points="281.5112,-1177.0268 291.2871,-1181.995 286.5056,-1177.2634 291.5,-1177.5 291.5,-1177.5 291.5,-1177.5 286.5056,-1177.2634 291.7129,-1173.005 281.5112,-1177.0268 281.5112,-1177.0268"/>
<text text-anchor="start" x="205.768" y="-1187.5" font-family="Arial" font-size="10.00" fill="#000000">Detected Relation</text>
</g>
<!-- public.channels -->
<g id="node4" class="node">
<title>public.channels</title>
<polygon fill="#efefef" stroke="transparent" points="671.5,-717.5 671.5,-752.5 906.5,-752.5 906.5,-717.5 671.5,-717.5"/>
<polygon fill="none" stroke="#000000" points="671.5,-717.5 671.5,-752.5 906.5,-752.5 906.5,-717.5 671.5,-717.5"/>
<text text-anchor="start" x="678.3559" y="-730.3" font-family="Arial Bold" font-size="18.00" fill="#000000">public.channels</text>
<text text-anchor="start" x="802.3903" y="-730.3" font-family="Arial" font-size="14.00" fill="#000000"> </text>
<text text-anchor="start" x="806.2809" y="-730.3" font-family="Arial" font-size="14.00" fill="#666666">[BASE TABLE]</text>
<polygon fill="none" stroke="#000000" points="671.5,-687.5 671.5,-717.5 906.5,-717.5 906.5,-687.5 671.5,-687.5"/>
<text text-anchor="start" x="678.5" y="-698.9" font-family="Arial" font-size="14.00" fill="#000000">id </text>
<text text-anchor="start" x="693.2798" y="-698.9" font-family="Arial" font-size="14.00" fill="#666666">[varchar(26)]</text>
<polygon fill="none" stroke="#000000" points="671.5,-657.5 671.5,-687.5 906.5,-687.5 906.5,-657.5 671.5,-657.5"/>
<text text-anchor="start" x="678.5" y="-668.9" font-family="Arial" font-size="14.00" fill="#000000">createat </text>
<text text-anchor="start" x="732.9628" y="-668.9" font-family="Arial" font-size="14.00" fill="#666666">[bigint]</text>
<polygon fill="none" stroke="#000000" points="671.5,-627.5 671.5,-657.5 906.5,-657.5 906.5,-627.5 671.5,-627.5"/>
<text text-anchor="start" x="678.5" y="-638.9" font-family="Arial" font-size="14.00" fill="#000000">updateat </text>
<text text-anchor="start" x="736.8674" y="-638.9" font-family="Arial" font-size="14.00" fill="#666666">[bigint]</text>
<polygon fill="none" stroke="#000000" points="671.5,-597.5 671.5,-627.5 906.5,-627.5 906.5,-597.5 671.5,-597.5"/>
<text text-anchor="start" x="678.5" y="-608.9" font-family="Arial" font-size="14.00" fill="#000000">deleteat </text>
<text text-anchor="start" x="732.1914" y="-608.9" font-family="Arial" font-size="14.00" fill="#666666">[bigint]</text>
<polygon fill="none" stroke="#000000" points="671.5,-567.5 671.5,-597.5 906.5,-597.5 906.5,-567.5 671.5,-567.5"/>
<text text-anchor="start" x="678.5" y="-578.9" font-family="Arial" font-size="14.00" fill="#000000">teamid </text>
<text text-anchor="start" x="724.3962" y="-578.9" font-family="Arial" font-size="14.00" fill="#666666">[varchar(26)]</text>
<polygon fill="none" stroke="#000000" points="671.5,-537.5 671.5,-567.5 906.5,-567.5 906.5,-537.5 671.5,-537.5"/>
<text text-anchor="start" x="678.5" y="-548.9" font-family="Arial" font-size="14.00" fill="#000000">type </text>
<text text-anchor="start" x="708.8464" y="-548.9" font-family="Arial" font-size="14.00" fill="#666666">[channel_type]</text>
<polygon fill="none" stroke="#000000" points="671.5,-507.5 671.5,-537.5 906.5,-537.5 906.5,-507.5 671.5,-507.5"/>
<text text-anchor="start" x="678.5" y="-518.9" font-family="Arial" font-size="14.00" fill="#000000">displayname </text>
<text text-anchor="start" x="760.96" y="-518.9" font-family="Arial" font-size="14.00" fill="#666666">[varchar(64)]</text>
<polygon fill="none" stroke="#000000" points="671.5,-477.5 671.5,-507.5 906.5,-507.5 906.5,-477.5 671.5,-477.5"/>
<text text-anchor="start" x="678.5" y="-488.9" font-family="Arial" font-size="14.00" fill="#000000">name </text>
<text text-anchor="start" x="717.399" y="-488.9" font-family="Arial" font-size="14.00" fill="#666666">[varchar(64)]</text>
<polygon fill="none" stroke="#000000" points="671.5,-447.5 671.5,-477.5 906.5,-477.5 906.5,-447.5 671.5,-447.5"/>
<text text-anchor="start" x="678.5" y="-458.9" font-family="Arial" font-size="14.00" fill="#000000">header </text>
<text text-anchor="start" x="725.9642" y="-458.9" font-family="Arial" font-size="14.00" fill="#666666">[varchar(1024)]</text>
<polygon fill="none" stroke="#000000" points="671.5,-417.5 671.5,-447.5 906.5,-447.5 906.5,-417.5 671.5,-417.5"/>
<text text-anchor="start" x="678.5" y="-428.9" font-family="Arial" font-size="14.00" fill="#000000">purpose </text>
<text text-anchor="start" x="732.9642" y="-428.9" font-family="Arial" font-size="14.00" fill="#666666">[varchar(250)]</text>
<polygon fill="none" stroke="#000000" points="671.5,-387.5 671.5,-417.5 906.5,-417.5 906.5,-387.5 671.5,-387.5"/>
<text text-anchor="start" x="678.5" y="-398.9" font-family="Arial" font-size="14.00" fill="#000000">lastpostat </text>
<text text-anchor="start" x="742.2994" y="-398.9" font-family="Arial" font-size="14.00" fill="#666666">[bigint]</text>
<polygon fill="none" stroke="#000000" points="671.5,-357.5 671.5,-387.5 906.5,-387.5 906.5,-357.5 671.5,-357.5"/>
<text text-anchor="start" x="678.5" y="-368.9" font-family="Arial" font-size="14.00" fill="#000000">totalmsgcount </text>
<text text-anchor="start" x="769.5252" y="-368.9" font-family="Arial" font-size="14.00" fill="#666666">[bigint]</text>
<polygon fill="none" stroke="#000000" points="671.5,-327.5 671.5,-357.5 906.5,-357.5 906.5,-327.5 671.5,-327.5"/>
<text text-anchor="start" x="678.5" y="-338.9" font-family="Arial" font-size="14.00" fill="#000000">extraupdateat </text>
<text text-anchor="start" x="767.9838" y="-338.9" font-family="Arial" font-size="14.00" fill="#666666">[bigint]</text>
<polygon fill="none" stroke="#000000" points="671.5,-297.5 671.5,-327.5 906.5,-327.5 906.5,-297.5 671.5,-297.5"/>
<text text-anchor="start" x="678.5" y="-308.9" font-family="Arial" font-size="14.00" fill="#000000">creatorid </text>
<text text-anchor="start" x="736.8394" y="-308.9" font-family="Arial" font-size="14.00" fill="#666666">[varchar(26)]</text>
<polygon fill="none" stroke="#000000" points="671.5,-267.5 671.5,-297.5 906.5,-297.5 906.5,-267.5 671.5,-267.5"/>
<text text-anchor="start" x="678.5" y="-278.9" font-family="Arial" font-size="14.00" fill="#000000">schemeid </text>
<text text-anchor="start" x="742.2882" y="-278.9" font-family="Arial" font-size="14.00" fill="#666666">[varchar(26)]</text>
<polygon fill="none" stroke="#000000" points="671.5,-237.5 671.5,-267.5 906.5,-267.5 906.5,-237.5 671.5,-237.5"/>
<text text-anchor="start" x="678.5" y="-248.9" font-family="Arial" font-size="14.00" fill="#000000">groupconstrained </text>
<text text-anchor="start" x="790.535" y="-248.9" font-family="Arial" font-size="14.00" fill="#666666">[boolean]</text>
<polygon fill="none" stroke="#000000" points="671.5,-207.5 671.5,-237.5 906.5,-237.5 906.5,-207.5 671.5,-207.5"/>
<text text-anchor="start" x="678.5" y="-218.9" font-family="Arial" font-size="14.00" fill="#000000">shared </text>
<text text-anchor="start" x="725.1816" y="-218.9" font-family="Arial" font-size="14.00" fill="#666666">[boolean]</text>
<polygon fill="none" stroke="#000000" points="671.5,-177.5 671.5,-207.5 906.5,-207.5 906.5,-177.5 671.5,-177.5"/>
<text text-anchor="start" x="678.5" y="-188.9" font-family="Arial" font-size="14.00" fill="#000000">totalmsgcountroot </text>
<text text-anchor="start" x="793.6416" y="-188.9" font-family="Arial" font-size="14.00" fill="#666666">[bigint]</text>
<polygon fill="none" stroke="#000000" points="671.5,-147.5 671.5,-177.5 906.5,-177.5 906.5,-147.5 671.5,-147.5"/>
<text text-anchor="start" x="678.5" y="-158.9" font-family="Arial" font-size="14.00" fill="#000000">lastrootpostat </text>
<text text-anchor="start" x="766.4158" y="-158.9" font-family="Arial" font-size="14.00" fill="#666666">[bigint]</text>
</g>
<!-- public.focalboard_categories&#45;&gt;public.channels -->
<g id="edge3" class="edge">
<title>public.focalboard_categories:channel_id&#45;&gt;public.channels:id</title>
<path fill="none" stroke="#000000" stroke-dasharray="5,2" d="M641.5145,-1145.707C719.3734,-1115.0855 575.8969,-702.5 671.5,-702.5"/>
<polygon fill="#000000" stroke="#000000" points="641.3435,-1145.7376 630.7069,-1143.0704 636.4217,-1146.6188 631.5,-1147.5 631.5,-1147.5 631.5,-1147.5 636.4217,-1146.6188 632.2931,-1151.9296 641.3435,-1145.7376 641.3435,-1145.7376"/>
<text text-anchor="start" x="638.768" y="-1157.5" font-family="Arial" font-size="10.00" fill="#000000">Detected Relation</text>
</g>
</g>
</svg>
