<?xml version="1.0" encoding="UTF-8" standalone="no"?>
<!DOCTYPE svg PUBLIC "-//W3C//DTD SVG 1.1//EN"
 "http://www.w3.org/Graphics/SVG/1.1/DTD/svg11.dtd">
<!-- Generated by graphviz version 2.40.1 (20161225.0304)
 -->
<!-- Title: public.channelmembers Pages: 1 -->
<svg width="401pt" height="525pt"
 viewBox="0.00 0.00 401.00 525.00" xmlns="http://www.w3.org/2000/svg" xmlns:xlink="http://www.w3.org/1999/xlink">
<g id="graph0" class="graph" transform="scale(1 1) rotate(0) translate(4 521)">
<title>public.channelmembers</title>
<polygon fill="#ffffff" stroke="transparent" points="-4,4 -4,-521 397,-521 397,4 -4,4"/>
<!-- public.channelmembers -->
<g id="node1" class="node">
<title>public.channelmembers</title>
<polygon fill="#efefef" stroke="transparent" points="46.5,-435.5 46.5,-470.5 347.5,-470.5 347.5,-435.5 46.5,-435.5"/>
<polygon fill="none" stroke="#000000" points="46.5,-435.5 46.5,-470.5 347.5,-470.5 347.5,-435.5 46.5,-435.5"/>
<text text-anchor="start" x="53.3583" y="-448.3" font-family="Arial Bold" font-size="18.00" fill="#000000">public.channelmembers</text>
<text text-anchor="start" x="243.3879" y="-448.3" font-family="Arial" font-size="14.00" fill="#000000"> </text>
<text text-anchor="start" x="247.2785" y="-448.3" font-family="Arial" font-size="14.00" fill="#666666">[BASE TABLE]</text>
<polygon fill="none" stroke="#000000" points="46.5,-405.5 46.5,-435.5 347.5,-435.5 347.5,-405.5 46.5,-405.5"/>
<text text-anchor="start" x="53.5" y="-416.9" font-family="Arial" font-size="14.00" fill="#000000">channelid </text>
<text text-anchor="start" x="117.2994" y="-416.9" font-family="Arial" font-size="14.00" fill="#666666">[varchar(26)]</text>
<polygon fill="none" stroke="#000000" points="46.5,-375.5 46.5,-405.5 347.5,-405.5 347.5,-375.5 46.5,-375.5"/>
<text text-anchor="start" x="53.5" y="-386.9" font-family="Arial" font-size="14.00" fill="#000000">userid </text>
<text text-anchor="start" x="95.5056" y="-386.9" font-family="Arial" font-size="14.00" fill="#666666">[varchar(26)]</text>
<polygon fill="none" stroke="#000000" points="46.5,-345.5 46.5,-375.5 347.5,-375.5 347.5,-345.5 46.5,-345.5"/>
<text text-anchor="start" x="53.5" y="-356.9" font-family="Arial" font-size="14.00" fill="#000000">roles </text>
<text text-anchor="start" x="87.723" y="-356.9" font-family="Arial" font-size="14.00" fill="#666666">[varchar(256)]</text>
<polygon fill="none" stroke="#000000" points="46.5,-315.5 46.5,-345.5 347.5,-345.5 347.5,-315.5 46.5,-315.5"/>
<text text-anchor="start" x="53.5" y="-326.9" font-family="Arial" font-size="14.00" fill="#000000">lastviewedat </text>
<text text-anchor="start" x="134.4046" y="-326.9" font-family="Arial" font-size="14.00" fill="#666666">[bigint]</text>
<polygon fill="none" stroke="#000000" points="46.5,-285.5 46.5,-315.5 347.5,-315.5 347.5,-285.5 46.5,-285.5"/>
<text text-anchor="start" x="53.5" y="-296.9" font-family="Arial" font-size="14.00" fill="#000000">msgcount </text>
<text text-anchor="start" x="118.0722" y="-296.9" font-family="Arial" font-size="14.00" fill="#666666">[bigint]</text>
<polygon fill="none" stroke="#000000" points="46.5,-255.5 46.5,-285.5 347.5,-285.5 347.5,-255.5 46.5,-255.5"/>
<text text-anchor="start" x="53.5" y="-266.9" font-family="Arial" font-size="14.00" fill="#000000">mentioncount </text>
<text text-anchor="start" x="141.4172" y="-266.9" font-family="Arial" font-size="14.00" fill="#666666">[bigint]</text>
<polygon fill="none" stroke="#000000" points="46.5,-225.5 46.5,-255.5 347.5,-255.5 347.5,-225.5 46.5,-225.5"/>
<text text-anchor="start" x="53.5" y="-236.9" font-family="Arial" font-size="14.00" fill="#000000">notifyprops </text>
<text text-anchor="start" x="125.852" y="-236.9" font-family="Arial" font-size="14.00" fill="#666666">[jsonb]</text>
<polygon fill="none" stroke="#000000" points="46.5,-195.5 46.5,-225.5 347.5,-225.5 347.5,-195.5 46.5,-195.5"/>
<text text-anchor="start" x="53.5" y="-206.9" font-family="Arial" font-size="14.00" fill="#000000">lastupdateat </text>
<text text-anchor="start" x="133.6472" y="-206.9" font-family="Arial" font-size="14.00" fill="#666666">[bigint]</text>
<polygon fill="none" stroke="#000000" points="46.5,-165.5 46.5,-195.5 347.5,-195.5 347.5,-165.5 46.5,-165.5"/>
<text text-anchor="start" x="53.5" y="-176.9" font-family="Arial" font-size="14.00" fill="#000000">schemeuser </text>
<text text-anchor="start" x="133.6248" y="-176.9" font-family="Arial" font-size="14.00" fill="#666666">[boolean]</text>
<polygon fill="none" stroke="#000000" points="46.5,-135.5 46.5,-165.5 347.5,-165.5 347.5,-135.5 46.5,-135.5"/>
<text text-anchor="start" x="53.5" y="-146.9" font-family="Arial" font-size="14.00" fill="#000000">schemeadmin </text>
<text text-anchor="start" x="144.514" y="-146.9" font-family="Arial" font-size="14.00" fill="#666666">[boolean]</text>
<polygon fill="none" stroke="#000000" points="46.5,-105.5 46.5,-135.5 347.5,-135.5 347.5,-105.5 46.5,-105.5"/>
<text text-anchor="start" x="53.5" y="-116.9" font-family="Arial" font-size="14.00" fill="#000000">schemeguest </text>
<text text-anchor="start" x="140.6374" y="-116.9" font-family="Arial" font-size="14.00" fill="#666666">[boolean]</text>
<polygon fill="none" stroke="#000000" points="46.5,-75.5 46.5,-105.5 347.5,-105.5 347.5,-75.5 46.5,-75.5"/>
<text text-anchor="start" x="53.5" y="-86.9" font-family="Arial" font-size="14.00" fill="#000000">mentioncountroot </text>
<text text-anchor="start" x="165.5336" y="-86.9" font-family="Arial" font-size="14.00" fill="#666666">[bigint]</text>
<polygon fill="none" stroke="#000000" points="46.5,-45.5 46.5,-75.5 347.5,-75.5 347.5,-45.5 46.5,-45.5"/>
<text text-anchor="start" x="53.5" y="-56.9" font-family="Arial" font-size="14.00" fill="#000000">msgcountroot </text>
<text text-anchor="start" x="142.1886" y="-56.9" font-family="Arial" font-size="14.00" fill="#666666">[bigint]</text>
<polygon fill="none" stroke="#000000" stroke-width="3" points="44.5,-44.5 44.5,-472.5 348.5,-472.5 348.5,-44.5 44.5,-44.5"/>
</g>
</g>
</svg>
