<?xml version="1.0" encoding="UTF-8" standalone="no"?>
<!DOCTYPE svg PUBLIC "-//W3C//DTD SVG 1.1//EN"
 "http://www.w3.org/Graphics/SVG/1.1/DTD/svg11.dtd">
<!-- Generated by graphviz version 2.40.1 (20161225.0304)
 -->
<!-- Title: public.ir_playbookautofollow Pages: 1 -->
<svg width="669pt" height="1612pt"
 viewBox="0.00 0.00 669.00 1612.00" xmlns="http://www.w3.org/2000/svg" xmlns:xlink="http://www.w3.org/1999/xlink">
<g id="graph0" class="graph" transform="scale(1 1) rotate(0) translate(4 1608)">
<title>public.ir_playbookautofollow</title>
<polygon fill="#ffffff" stroke="transparent" points="-4,4 -4,-1608 665,-1608 665,4 -4,4"/>
<!-- public.ir_playbookautofollow -->
<g id="node1" class="node">
<title>public.ir_playbookautofollow</title>
<polygon fill="#efefef" stroke="transparent" points="46,-1522.5 46,-1557.5 382,-1557.5 382,-1522.5 46,-1522.5"/>
<polygon fill="none" stroke="#000000" points="46,-1522.5 46,-1557.5 382,-1557.5 382,-1522.5 46,-1522.5"/>
<text text-anchor="start" x="52.8506" y="-1535.3" font-family="Arial Bold" font-size="18.00" fill="#000000">public.ir_playbookautofollow</text>
<text text-anchor="start" x="277.8956" y="-1535.3" font-family="Arial" font-size="14.00" fill="#000000"> </text>
<text text-anchor="start" x="281.7862" y="-1535.3" font-family="Arial" font-size="14.00" fill="#666666">[BASE TABLE]</text>
<polygon fill="none" stroke="#000000" points="46,-1492.5 46,-1522.5 382,-1522.5 382,-1492.5 46,-1492.5"/>
<text text-anchor="start" x="53" y="-1503.9" font-family="Arial" font-size="14.00" fill="#000000">playbookid </text>
<text text-anchor="start" x="123.7994" y="-1503.9" font-family="Arial" font-size="14.00" fill="#666666">[text]</text>
<polygon fill="none" stroke="#000000" points="46,-1462.5 46,-1492.5 382,-1492.5 382,-1462.5 46,-1462.5"/>
<text text-anchor="start" x="53" y="-1473.9" font-family="Arial" font-size="14.00" fill="#000000">userid </text>
<text text-anchor="start" x="95.0056" y="-1473.9" font-family="Arial" font-size="14.00" fill="#666666">[text]</text>
<polygon fill="none" stroke="#000000" stroke-width="3" points="44.5,-1461.5 44.5,-1559.5 383.5,-1559.5 383.5,-1461.5 44.5,-1461.5"/>
</g>
<!-- public.ir_playbook -->
<g id="node2" class="node">
<title>public.ir_playbook</title>
<polygon fill="#efefef" stroke="transparent" points="61,-1302.5 61,-1337.5 367,-1337.5 367,-1302.5 61,-1302.5"/>
<polygon fill="none" stroke="#000000" points="61,-1302.5 61,-1337.5 367,-1337.5 367,-1302.5 61,-1302.5"/>
<text text-anchor="start" x="93.3596" y="-1315.3" font-family="Arial Bold" font-size="18.00" fill="#000000">public.ir_playbook</text>
<text text-anchor="start" x="237.3866" y="-1315.3" font-family="Arial" font-size="14.00" fill="#000000"> </text>
<text text-anchor="start" x="241.2772" y="-1315.3" font-family="Arial" font-size="14.00" fill="#666666">[BASE TABLE]</text>
<polygon fill="none" stroke="#000000" points="61,-1272.5 61,-1302.5 367,-1302.5 367,-1272.5 61,-1272.5"/>
<text text-anchor="start" x="68" y="-1283.9" font-family="Arial" font-size="14.00" fill="#000000">id </text>
<text text-anchor="start" x="82.7798" y="-1283.9" font-family="Arial" font-size="14.00" fill="#666666">[text]</text>
<polygon fill="none" stroke="#000000" points="61,-1242.5 61,-1272.5 367,-1272.5 367,-1242.5 61,-1242.5"/>
<text text-anchor="start" x="68" y="-1253.9" font-family="Arial" font-size="14.00" fill="#000000">title </text>
<text text-anchor="start" x="93.6676" y="-1253.9" font-family="Arial" font-size="14.00" fill="#666666">[text]</text>
<polygon fill="none" stroke="#000000" points="61,-1212.5 61,-1242.5 367,-1242.5 367,-1212.5 61,-1212.5"/>
<text text-anchor="start" x="68" y="-1223.9" font-family="Arial" font-size="14.00" fill="#000000">description </text>
<text text-anchor="start" x="139.568" y="-1223.9" font-family="Arial" font-size="14.00" fill="#666666">[text]</text>
<polygon fill="none" stroke="#000000" points="61,-1182.5 61,-1212.5 367,-1212.5 367,-1182.5 61,-1182.5"/>
<text text-anchor="start" x="68" y="-1193.9" font-family="Arial" font-size="14.00" fill="#000000">teamid </text>
<text text-anchor="start" x="113.8962" y="-1193.9" font-family="Arial" font-size="14.00" fill="#666666">[text]</text>
<polygon fill="none" stroke="#000000" points="61,-1152.5 61,-1182.5 367,-1182.5 367,-1152.5 61,-1152.5"/>
<text text-anchor="start" x="68" y="-1163.9" font-family="Arial" font-size="14.00" fill="#000000">createpublicincident </text>
<text text-anchor="start" x="195.5848" y="-1163.9" font-family="Arial" font-size="14.00" fill="#666666">[boolean]</text>
<polygon fill="none" stroke="#000000" points="61,-1122.5 61,-1152.5 367,-1152.5 367,-1122.5 61,-1122.5"/>
<text text-anchor="start" x="68" y="-1133.9" font-family="Arial" font-size="14.00" fill="#000000">createat </text>
<text text-anchor="start" x="122.4628" y="-1133.9" font-family="Arial" font-size="14.00" fill="#666666">[bigint]</text>
<polygon fill="none" stroke="#000000" points="61,-1092.5 61,-1122.5 367,-1122.5 367,-1092.5 61,-1092.5"/>
<text text-anchor="start" x="68" y="-1103.9" font-family="Arial" font-size="14.00" fill="#000000">deleteat </text>
<text text-anchor="start" x="121.6914" y="-1103.9" font-family="Arial" font-size="14.00" fill="#666666">[bigint]</text>
<polygon fill="none" stroke="#000000" points="61,-1062.5 61,-1092.5 367,-1092.5 367,-1062.5 61,-1062.5"/>
<text text-anchor="start" x="68" y="-1073.9" font-family="Arial" font-size="14.00" fill="#000000">checklistsjson </text>
<text text-anchor="start" x="158.2314" y="-1073.9" font-family="Arial" font-size="14.00" fill="#666666">[json]</text>
<polygon fill="none" stroke="#000000" points="61,-1032.5 61,-1062.5 367,-1062.5 367,-1032.5 61,-1032.5"/>
<text text-anchor="start" x="68" y="-1043.9" font-family="Arial" font-size="14.00" fill="#000000">numstages </text>
<text text-anchor="start" x="140.3548" y="-1043.9" font-family="Arial" font-size="14.00" fill="#666666">[bigint]</text>
<polygon fill="none" stroke="#000000" points="61,-1002.5 61,-1032.5 367,-1032.5 367,-1002.5 61,-1002.5"/>
<text text-anchor="start" x="68" y="-1013.9" font-family="Arial" font-size="14.00" fill="#000000">numsteps </text>
<text text-anchor="start" x="132.5722" y="-1013.9" font-family="Arial" font-size="14.00" fill="#666666">[bigint]</text>
<polygon fill="none" stroke="#000000" points="61,-972.5 61,-1002.5 367,-1002.5 367,-972.5 61,-972.5"/>
<text text-anchor="start" x="68" y="-983.9" font-family="Arial" font-size="14.00" fill="#000000">broadcastchannelid </text>
<text text-anchor="start" x="193.2636" y="-983.9" font-family="Arial" font-size="14.00" fill="#666666">[text]</text>
<polygon fill="none" stroke="#000000" points="61,-942.5 61,-972.5 367,-972.5 367,-942.5 61,-942.5"/>
<text text-anchor="start" x="68" y="-953.9" font-family="Arial" font-size="14.00" fill="#000000">remindermessagetemplate </text>
<text text-anchor="start" x="237.5792" y="-953.9" font-family="Arial" font-size="14.00" fill="#666666">[text]</text>
<polygon fill="none" stroke="#000000" points="61,-912.5 61,-942.5 367,-942.5 367,-912.5 61,-912.5"/>
<text text-anchor="start" x="68" y="-923.9" font-family="Arial" font-size="14.00" fill="#000000">remindertimerdefaultseconds </text>
<text text-anchor="start" x="252.359" y="-923.9" font-family="Arial" font-size="14.00" fill="#666666">[bigint]</text>
<polygon fill="none" stroke="#000000" points="61,-882.5 61,-912.5 367,-912.5 367,-882.5 61,-882.5"/>
<text text-anchor="start" x="68" y="-893.9" font-family="Arial" font-size="14.00" fill="#000000">concatenatedinviteduserids </text>
<text text-anchor="start" x="241.4992" y="-893.9" font-family="Arial" font-size="14.00" fill="#666666">[text]</text>
<polygon fill="none" stroke="#000000" points="61,-852.5 61,-882.5 367,-882.5 367,-852.5 61,-852.5"/>
<text text-anchor="start" x="68" y="-863.9" font-family="Arial" font-size="14.00" fill="#000000">inviteusersenabled </text>
<text text-anchor="start" x="188.5876" y="-863.9" font-family="Arial" font-size="14.00" fill="#666666">[boolean]</text>
<polygon fill="none" stroke="#000000" points="61,-822.5 61,-852.5 367,-852.5 367,-822.5 61,-822.5"/>
<text text-anchor="start" x="68" y="-833.9" font-family="Arial" font-size="14.00" fill="#000000">defaultcommanderid </text>
<text text-anchor="start" x="198.6928" y="-833.9" font-family="Arial" font-size="14.00" fill="#666666">[text]</text>
<polygon fill="none" stroke="#000000" points="61,-792.5 61,-822.5 367,-822.5 367,-792.5 61,-792.5"/>
<text text-anchor="start" x="68" y="-803.9" font-family="Arial" font-size="14.00" fill="#000000">defaultcommanderenabled </text>
<text text-anchor="start" x="237.6058" y="-803.9" font-family="Arial" font-size="14.00" fill="#666666">[boolean]</text>
<polygon fill="none" stroke="#000000" points="61,-762.5 61,-792.5 367,-792.5 367,-762.5 61,-762.5"/>
<text text-anchor="start" x="68" y="-773.9" font-family="Arial" font-size="14.00" fill="#000000">announcementchannelid </text>
<text text-anchor="start" x="224.394" y="-773.9" font-family="Arial" font-size="14.00" fill="#666666">[text]</text>
<polygon fill="none" stroke="#000000" points="61,-732.5 61,-762.5 367,-762.5 367,-732.5 61,-732.5"/>
<text text-anchor="start" x="68" y="-743.9" font-family="Arial" font-size="14.00" fill="#000000">announcementchannelenabled </text>
<text text-anchor="start" x="263.307" y="-743.9" font-family="Arial" font-size="14.00" fill="#666666">[boolean]</text>
<polygon fill="none" stroke="#000000" points="61,-702.5 61,-732.5 367,-732.5 367,-702.5 61,-702.5"/>
<text text-anchor="start" x="68" y="-713.9" font-family="Arial" font-size="14.00" fill="#000000">concatenatedwebhookoncreationurls </text>
<text text-anchor="start" x="299.8554" y="-713.9" font-family="Arial" font-size="14.00" fill="#666666">[text]</text>
<polygon fill="none" stroke="#000000" points="61,-672.5 61,-702.5 367,-702.5 367,-672.5 61,-672.5"/>
<text text-anchor="start" x="68" y="-683.9" font-family="Arial" font-size="14.00" fill="#000000">webhookoncreationenabled </text>
<text text-anchor="start" x="243.0658" y="-683.9" font-family="Arial" font-size="14.00" fill="#666666">[boolean]</text>
<polygon fill="none" stroke="#000000" points="61,-642.5 61,-672.5 367,-672.5 367,-642.5 61,-642.5"/>
<text text-anchor="start" x="68" y="-653.9" font-family="Arial" font-size="14.00" fill="#000000">concatenatedinvitedgroupids </text>
<text text-anchor="start" x="250.0644" y="-653.9" font-family="Arial" font-size="14.00" fill="#666666">[text]</text>
<polygon fill="none" stroke="#000000" points="61,-612.5 61,-642.5 367,-642.5 367,-612.5 61,-612.5"/>
<text text-anchor="start" x="68" y="-623.9" font-family="Arial" font-size="14.00" fill="#000000">messageonjoin </text>
<text text-anchor="start" x="166.0252" y="-623.9" font-family="Arial" font-size="14.00" fill="#666666">[text]</text>
<polygon fill="none" stroke="#000000" points="61,-582.5 61,-612.5 367,-612.5 367,-582.5 61,-582.5"/>
<text text-anchor="start" x="68" y="-593.9" font-family="Arial" font-size="14.00" fill="#000000">messageonjoinenabled </text>
<text text-anchor="start" x="215.8274" y="-593.9" font-family="Arial" font-size="14.00" fill="#666666">[boolean]</text>
<polygon fill="none" stroke="#000000" points="61,-552.5 61,-582.5 367,-582.5 367,-552.5 61,-552.5"/>
<text text-anchor="start" x="68" y="-563.9" font-family="Arial" font-size="14.00" fill="#000000">retrospectivereminderintervalseconds </text>
<text text-anchor="start" x="304.474" y="-563.9" font-family="Arial" font-size="14.00" fill="#666666">[bigint]</text>
<polygon fill="none" stroke="#000000" points="61,-522.5 61,-552.5 367,-552.5 367,-522.5 61,-522.5"/>
<text text-anchor="start" x="68" y="-533.9" font-family="Arial" font-size="14.00" fill="#000000">retrospectivetemplate </text>
<text text-anchor="start" x="205.6914" y="-533.9" font-family="Arial" font-size="14.00" fill="#666666">[text]</text>
<polygon fill="none" stroke="#000000" points="61,-492.5 61,-522.5 367,-522.5 367,-492.5 61,-492.5"/>
<text text-anchor="start" x="67.7189" y="-503.9" font-family="Arial" font-size="14.00" fill="#000000">concatenatedwebhookonstatusupdateurls </text>
<text text-anchor="start" x="329.9361" y="-503.9" font-family="Arial" font-size="14.00" fill="#666666">[text]</text>
<polygon fill="none" stroke="#000000" points="61,-462.5 61,-492.5 367,-492.5 367,-462.5 61,-462.5"/>
<text text-anchor="start" x="68" y="-473.9" font-family="Arial" font-size="14.00" fill="#000000">webhookonstatusupdateenabled </text>
<text text-anchor="start" x="273.4276" y="-473.9" font-family="Arial" font-size="14.00" fill="#666666">[boolean]</text>
<polygon fill="none" stroke="#000000" points="61,-432.5 61,-462.5 367,-462.5 367,-432.5 61,-432.5"/>
<text text-anchor="start" x="68" y="-443.9" font-family="Arial" font-size="14.00" fill="#000000">concatenatedsignalanykeywords </text>
<text text-anchor="start" x="274.1738" y="-443.9" font-family="Arial" font-size="14.00" fill="#666666">[text]</text>
<polygon fill="none" stroke="#000000" points="61,-402.5 61,-432.5 367,-432.5 367,-402.5 61,-402.5"/>
<text text-anchor="start" x="68" y="-413.9" font-family="Arial" font-size="14.00" fill="#000000">signalanykeywordsenabled </text>
<text text-anchor="start" x="239.934" y="-413.9" font-family="Arial" font-size="14.00" fill="#666666">[boolean]</text>
<polygon fill="none" stroke="#000000" points="61,-372.5 61,-402.5 367,-402.5 367,-372.5 61,-372.5"/>
<text text-anchor="start" x="68" y="-383.9" font-family="Arial" font-size="14.00" fill="#000000">updateat </text>
<text text-anchor="start" x="126.3674" y="-383.9" font-family="Arial" font-size="14.00" fill="#666666">[bigint]</text>
<polygon fill="none" stroke="#000000" points="61,-342.5 61,-372.5 367,-372.5 367,-342.5 61,-342.5"/>
<text text-anchor="start" x="68" y="-353.9" font-family="Arial" font-size="14.00" fill="#000000">exportchannelonfinishedenabled </text>
<text text-anchor="start" x="273.4108" y="-353.9" font-family="Arial" font-size="14.00" fill="#666666">[boolean]</text>
<polygon fill="none" stroke="#000000" points="61,-312.5 61,-342.5 367,-342.5 367,-312.5 61,-312.5"/>
<text text-anchor="start" x="68" y="-323.9" font-family="Arial" font-size="14.00" fill="#000000">categorizechannelenabled </text>
<text text-anchor="start" x="235.2832" y="-323.9" font-family="Arial" font-size="14.00" fill="#666666">[boolean]</text>
<polygon fill="none" stroke="#000000" points="61,-282.5 61,-312.5 367,-312.5 367,-282.5 61,-282.5"/>
<text text-anchor="start" x="68" y="-293.9" font-family="Arial" font-size="14.00" fill="#000000">categoryname </text>
<text text-anchor="start" x="160.5806" y="-293.9" font-family="Arial" font-size="14.00" fill="#666666">[text]</text>
<polygon fill="none" stroke="#000000" points="61,-252.5 61,-282.5 367,-282.5 367,-252.5 61,-252.5"/>
<text text-anchor="start" x="68" y="-263.9" font-family="Arial" font-size="14.00" fill="#000000">concatenatedbroadcastchannelids </text>
<text text-anchor="start" x="284.3056" y="-263.9" font-family="Arial" font-size="14.00" fill="#666666">[text]</text>
<polygon fill="none" stroke="#000000" points="61,-222.5 61,-252.5 367,-252.5 367,-222.5 61,-222.5"/>
<text text-anchor="start" x="68" y="-233.9" font-family="Arial" font-size="14.00" fill="#000000">broadcastenabled </text>
<text text-anchor="start" x="183.157" y="-233.9" font-family="Arial" font-size="14.00" fill="#666666">[boolean]</text>
<polygon fill="none" stroke="#000000" points="61,-192.5 61,-222.5 367,-222.5 367,-192.5 61,-192.5"/>
<text text-anchor="start" x="68" y="-203.9" font-family="Arial" font-size="14.00" fill="#000000">runsummarytemplate </text>
<text text-anchor="start" x="203.3422" y="-203.9" font-family="Arial" font-size="14.00" fill="#666666">[text]</text>
<polygon fill="none" stroke="#000000" points="61,-162.5 61,-192.5 367,-192.5 367,-162.5 61,-162.5"/>
<text text-anchor="start" x="68" y="-173.9" font-family="Arial" font-size="14.00" fill="#000000">channelnametemplate </text>
<text text-anchor="start" x="209.5974" y="-173.9" font-family="Arial" font-size="14.00" fill="#666666">[text]</text>
<polygon fill="none" stroke="#000000" points="61,-132.5 61,-162.5 367,-162.5 367,-132.5 61,-132.5"/>
<text text-anchor="start" x="68" y="-143.9" font-family="Arial" font-size="14.00" fill="#000000">statusupdateenabled </text>
<text text-anchor="start" x="201.8428" y="-143.9" font-family="Arial" font-size="14.00" fill="#666666">[boolean]</text>
<polygon fill="none" stroke="#000000" points="61,-102.5 61,-132.5 367,-132.5 367,-102.5 61,-102.5"/>
<text text-anchor="start" x="68" y="-113.9" font-family="Arial" font-size="14.00" fill="#000000">retrospectiveenabled </text>
<text text-anchor="start" x="201.8148" y="-113.9" font-family="Arial" font-size="14.00" fill="#666666">[boolean]</text>
<polygon fill="none" stroke="#000000" points="61,-72.5 61,-102.5 367,-102.5 367,-72.5 61,-72.5"/>
<text text-anchor="start" x="68" y="-83.9" font-family="Arial" font-size="14.00" fill="#000000">public </text>
<text text-anchor="start" x="108.4516" y="-83.9" font-family="Arial" font-size="14.00" fill="#666666">[boolean]</text>
<polygon fill="none" stroke="#000000" points="61,-42.5 61,-72.5 367,-72.5 367,-42.5 61,-42.5"/>
<text text-anchor="start" x="68" y="-53.9" font-family="Arial" font-size="14.00" fill="#000000">runsummarytemplateenabled </text>
<text text-anchor="start" x="253.1444" y="-53.9" font-family="Arial" font-size="14.00" fill="#666666">[boolean]</text>
</g>
<!-- public.ir_playbookautofollow&#45;&gt;public.ir_playbook -->
<g id="edge1" class="edge">
<title>public.ir_playbookautofollow:playbookid&#45;&gt;public.ir_playbook:id</title>
<path fill="none" stroke="#000000" d="M392.1824,-1506.6591C478.8124,-1491.8888 461.4636,-1287.5 367,-1287.5"/>
<polygon fill="#000000" stroke="#000000" points="391.9661,-1506.6768 381.6296,-1503.0153 386.983,-1507.0884 382,-1507.5 382,-1507.5 382,-1507.5 386.983,-1507.0884 382.3704,-1511.9847 391.9661,-1506.6768 391.9661,-1506.6768"/>
<text text-anchor="start" x="389.4935" y="-1517.5" font-family="Arial" font-size="10.00" fill="#000000">FOREIGN KEY (playbookid) REFERENCES ir_playbook(id)</text>
</g>
</g>
</svg>
