<?xml version="1.0" encoding="UTF-8" standalone="no"?>
<!DOCTYPE svg PUBLIC "-//W3C//DTD SVG 1.1//EN"
 "http://www.w3.org/Graphics/SVG/1.1/DTD/svg11.dtd">
<!-- Generated by graphviz version 2.40.1 (20161225.0304)
 -->
<!-- Title: public.focalboard_category_boards Pages: 1 -->
<svg width="538pt" height="1282pt"
 viewBox="0.00 0.00 537.50 1282.00" xmlns="http://www.w3.org/2000/svg" xmlns:xlink="http://www.w3.org/1999/xlink">
<g id="graph0" class="graph" transform="scale(1 1) rotate(0) translate(4 1278)">
<title>public.focalboard_category_boards</title>
<polygon fill="#ffffff" stroke="transparent" points="-4,4 -4,-1278 533.5,-1278 533.5,4 -4,4"/>
<!-- public.focalboard_category_boards -->
<g id="node1" class="node">
<title>public.focalboard_category_boards</title>
<polygon fill="#efefef" stroke="transparent" points="93,-1192.5 93,-1227.5 484,-1227.5 484,-1192.5 93,-1192.5"/>
<polygon fill="none" stroke="#000000" points="93,-1192.5 93,-1227.5 484,-1227.5 484,-1192.5 93,-1192.5"/>
<text text-anchor="start" x="99.8313" y="-1205.3" font-family="Arial Bold" font-size="18.00" fill="#000000">public.focalboard_category_boards</text>
<text text-anchor="start" x="379.9149" y="-1205.3" font-family="Arial" font-size="14.00" fill="#000000"> </text>
<text text-anchor="start" x="383.8055" y="-1205.3" font-family="Arial" font-size="14.00" fill="#666666">[BASE TABLE]</text>
<polygon fill="none" stroke="#000000" points="93,-1162.5 93,-1192.5 484,-1192.5 484,-1162.5 93,-1162.5"/>
<text text-anchor="start" x="100" y="-1173.9" font-family="Arial" font-size="14.00" fill="#000000">id </text>
<text text-anchor="start" x="114.7798" y="-1173.9" font-family="Arial" font-size="14.00" fill="#666666">[varchar(36)]</text>
<polygon fill="none" stroke="#000000" points="93,-1132.5 93,-1162.5 484,-1162.5 484,-1132.5 93,-1132.5"/>
<text text-anchor="start" x="100" y="-1143.9" font-family="Arial" font-size="14.00" fill="#000000">user_id </text>
<text text-anchor="start" x="149.7882" y="-1143.9" font-family="Arial" font-size="14.00" fill="#666666">[varchar(36)]</text>
<polygon fill="none" stroke="#000000" points="93,-1102.5 93,-1132.5 484,-1132.5 484,-1102.5 93,-1102.5"/>
<text text-anchor="start" x="100" y="-1113.9" font-family="Arial" font-size="14.00" fill="#000000">category_id </text>
<text text-anchor="start" x="176.244" y="-1113.9" font-family="Arial" font-size="14.00" fill="#666666">[varchar(36)]</text>
<polygon fill="none" stroke="#000000" points="93,-1072.5 93,-1102.5 484,-1102.5 484,-1072.5 93,-1072.5"/>
<text text-anchor="start" x="100" y="-1083.9" font-family="Arial" font-size="14.00" fill="#000000">board_id </text>
<text text-anchor="start" x="158.3534" y="-1083.9" font-family="Arial" font-size="14.00" fill="#666666">[varchar(36)]</text>
<polygon fill="none" stroke="#000000" points="93,-1042.5 93,-1072.5 484,-1072.5 484,-1042.5 93,-1042.5"/>
<text text-anchor="start" x="100" y="-1053.9" font-family="Arial" font-size="14.00" fill="#000000">create_at </text>
<text text-anchor="start" x="162.2454" y="-1053.9" font-family="Arial" font-size="14.00" fill="#666666">[bigint]</text>
<polygon fill="none" stroke="#000000" points="93,-1012.5 93,-1042.5 484,-1042.5 484,-1012.5 93,-1012.5"/>
<text text-anchor="start" x="100" y="-1023.9" font-family="Arial" font-size="14.00" fill="#000000">update_at </text>
<text text-anchor="start" x="166.15" y="-1023.9" font-family="Arial" font-size="14.00" fill="#666666">[bigint]</text>
<polygon fill="none" stroke="#000000" points="93,-982.5 93,-1012.5 484,-1012.5 484,-982.5 93,-982.5"/>
<text text-anchor="start" x="100" y="-993.9" font-family="Arial" font-size="14.00" fill="#000000">delete_at </text>
<text text-anchor="start" x="161.474" y="-993.9" font-family="Arial" font-size="14.00" fill="#666666">[bigint]</text>
<polygon fill="none" stroke="#000000" stroke-width="3" points="91,-981.5 91,-1229.5 485,-1229.5 485,-981.5 91,-981.5"/>
</g>
<!-- public.users -->
<g id="node2" class="node">
<title>public.users</title>
<polygon fill="#efefef" stroke="transparent" points="185,-822.5 185,-857.5 392,-857.5 392,-822.5 185,-822.5"/>
<polygon fill="none" stroke="#000000" points="185,-822.5 185,-857.5 392,-857.5 392,-822.5 185,-822.5"/>
<text text-anchor="start" x="191.8662" y="-835.3" font-family="Arial Bold" font-size="18.00" fill="#000000">public.users</text>
<text text-anchor="start" x="287.88" y="-835.3" font-family="Arial" font-size="14.00" fill="#000000"> </text>
<text text-anchor="start" x="291.7706" y="-835.3" font-family="Arial" font-size="14.00" fill="#666666">[BASE TABLE]</text>
<polygon fill="none" stroke="#000000" points="185,-792.5 185,-822.5 392,-822.5 392,-792.5 185,-792.5"/>
<text text-anchor="start" x="192" y="-803.9" font-family="Arial" font-size="14.00" fill="#000000">id </text>
<text text-anchor="start" x="206.7798" y="-803.9" font-family="Arial" font-size="14.00" fill="#666666">[varchar(26)]</text>
<polygon fill="none" stroke="#000000" points="185,-762.5 185,-792.5 392,-792.5 392,-762.5 185,-762.5"/>
<text text-anchor="start" x="192" y="-773.9" font-family="Arial" font-size="14.00" fill="#000000">createat </text>
<text text-anchor="start" x="246.4628" y="-773.9" font-family="Arial" font-size="14.00" fill="#666666">[bigint]</text>
<polygon fill="none" stroke="#000000" points="185,-732.5 185,-762.5 392,-762.5 392,-732.5 185,-732.5"/>
<text text-anchor="start" x="192" y="-743.9" font-family="Arial" font-size="14.00" fill="#000000">updateat </text>
<text text-anchor="start" x="250.3674" y="-743.9" font-family="Arial" font-size="14.00" fill="#666666">[bigint]</text>
<polygon fill="none" stroke="#000000" points="185,-702.5 185,-732.5 392,-732.5 392,-702.5 185,-702.5"/>
<text text-anchor="start" x="192" y="-713.9" font-family="Arial" font-size="14.00" fill="#000000">deleteat </text>
<text text-anchor="start" x="245.6914" y="-713.9" font-family="Arial" font-size="14.00" fill="#666666">[bigint]</text>
<polygon fill="none" stroke="#000000" points="185,-672.5 185,-702.5 392,-702.5 392,-672.5 185,-672.5"/>
<text text-anchor="start" x="192" y="-683.9" font-family="Arial" font-size="14.00" fill="#000000">username </text>
<text text-anchor="start" x="258.1248" y="-683.9" font-family="Arial" font-size="14.00" fill="#666666">[varchar(64)]</text>
<polygon fill="none" stroke="#000000" points="185,-642.5 185,-672.5 392,-672.5 392,-642.5 185,-642.5"/>
<text text-anchor="start" x="192" y="-653.9" font-family="Arial" font-size="14.00" fill="#000000">password </text>
<text text-anchor="start" x="255.7882" y="-653.9" font-family="Arial" font-size="14.00" fill="#666666">[varchar(128)]</text>
<polygon fill="none" stroke="#000000" points="185,-612.5 185,-642.5 392,-642.5 392,-612.5 185,-612.5"/>
<text text-anchor="start" x="192" y="-623.9" font-family="Arial" font-size="14.00" fill="#000000">authdata </text>
<text text-anchor="start" x="250.3674" y="-623.9" font-family="Arial" font-size="14.00" fill="#666666">[varchar(128)]</text>
<polygon fill="none" stroke="#000000" points="185,-582.5 185,-612.5 392,-612.5 392,-582.5 185,-582.5"/>
<text text-anchor="start" x="192" y="-593.9" font-family="Arial" font-size="14.00" fill="#000000">authservice </text>
<text text-anchor="start" x="267.4614" y="-593.9" font-family="Arial" font-size="14.00" fill="#666666">[varchar(32)]</text>
<polygon fill="none" stroke="#000000" points="185,-552.5 185,-582.5 392,-582.5 392,-552.5 185,-552.5"/>
<text text-anchor="start" x="192" y="-563.9" font-family="Arial" font-size="14.00" fill="#000000">email </text>
<text text-anchor="start" x="229.3296" y="-563.9" font-family="Arial" font-size="14.00" fill="#666666">[varchar(128)]</text>
<polygon fill="none" stroke="#000000" points="185,-522.5 185,-552.5 392,-552.5 392,-522.5 185,-522.5"/>
<text text-anchor="start" x="192" y="-533.9" font-family="Arial" font-size="14.00" fill="#000000">emailverified </text>
<text text-anchor="start" x="274.4418" y="-533.9" font-family="Arial" font-size="14.00" fill="#666666">[boolean]</text>
<polygon fill="none" stroke="#000000" points="185,-492.5 185,-522.5 392,-522.5 392,-492.5 185,-492.5"/>
<text text-anchor="start" x="192" y="-503.9" font-family="Arial" font-size="14.00" fill="#000000">nickname </text>
<text text-anchor="start" x="255.7882" y="-503.9" font-family="Arial" font-size="14.00" fill="#666666">[varchar(64)]</text>
<polygon fill="none" stroke="#000000" points="185,-462.5 185,-492.5 392,-492.5 392,-462.5 185,-462.5"/>
<text text-anchor="start" x="192" y="-473.9" font-family="Arial" font-size="14.00" fill="#000000">firstname </text>
<text text-anchor="start" x="253.4474" y="-473.9" font-family="Arial" font-size="14.00" fill="#666666">[varchar(64)]</text>
<polygon fill="none" stroke="#000000" points="185,-432.5 185,-462.5 392,-462.5 392,-432.5 185,-432.5"/>
<text text-anchor="start" x="192" y="-443.9" font-family="Arial" font-size="14.00" fill="#000000">lastname </text>
<text text-anchor="start" x="252.6788" y="-443.9" font-family="Arial" font-size="14.00" fill="#666666">[varchar(64)]</text>
<polygon fill="none" stroke="#000000" points="185,-402.5 185,-432.5 392,-432.5 392,-402.5 185,-402.5"/>
<text text-anchor="start" x="192" y="-413.9" font-family="Arial" font-size="14.00" fill="#000000">roles </text>
<text text-anchor="start" x="226.223" y="-413.9" font-family="Arial" font-size="14.00" fill="#666666">[varchar(256)]</text>
<polygon fill="none" stroke="#000000" points="185,-372.5 185,-402.5 392,-402.5 392,-372.5 185,-372.5"/>
<text text-anchor="start" x="192" y="-383.9" font-family="Arial" font-size="14.00" fill="#000000">allowmarketing </text>
<text text-anchor="start" x="289.2244" y="-383.9" font-family="Arial" font-size="14.00" fill="#666666">[boolean]</text>
<polygon fill="none" stroke="#000000" points="185,-342.5 185,-372.5 392,-372.5 392,-342.5 185,-342.5"/>
<text text-anchor="start" x="192" y="-353.9" font-family="Arial" font-size="14.00" fill="#000000">props </text>
<text text-anchor="start" x="230.899" y="-353.9" font-family="Arial" font-size="14.00" fill="#666666">[jsonb]</text>
<polygon fill="none" stroke="#000000" points="185,-312.5 185,-342.5 392,-342.5 392,-312.5 185,-312.5"/>
<text text-anchor="start" x="192" y="-323.9" font-family="Arial" font-size="14.00" fill="#000000">notifyprops </text>
<text text-anchor="start" x="264.352" y="-323.9" font-family="Arial" font-size="14.00" fill="#666666">[jsonb]</text>
<polygon fill="none" stroke="#000000" points="185,-282.5 185,-312.5 392,-312.5 392,-282.5 185,-282.5"/>
<text text-anchor="start" x="192" y="-293.9" font-family="Arial" font-size="14.00" fill="#000000">lastpasswordupdate </text>
<text text-anchor="start" x="320.3716" y="-293.9" font-family="Arial" font-size="14.00" fill="#666666">[bigint]</text>
<polygon fill="none" stroke="#000000" points="185,-252.5 185,-282.5 392,-282.5 392,-252.5 185,-252.5"/>
<text text-anchor="start" x="192" y="-263.9" font-family="Arial" font-size="14.00" fill="#000000">lastpictureupdate </text>
<text text-anchor="start" x="302.4796" y="-263.9" font-family="Arial" font-size="14.00" fill="#666666">[bigint]</text>
<polygon fill="none" stroke="#000000" points="185,-222.5 185,-252.5 392,-252.5 392,-222.5 185,-222.5"/>
<text text-anchor="start" x="192" y="-233.9" font-family="Arial" font-size="14.00" fill="#000000">failedattempts </text>
<text text-anchor="start" x="283.0224" y="-233.9" font-family="Arial" font-size="14.00" fill="#666666">[integer]</text>
<polygon fill="none" stroke="#000000" points="185,-192.5 185,-222.5 392,-222.5 392,-192.5 185,-192.5"/>
<text text-anchor="start" x="192" y="-203.9" font-family="Arial" font-size="14.00" fill="#000000">locale </text>
<text text-anchor="start" x="232.4516" y="-203.9" font-family="Arial" font-size="14.00" fill="#666666">[varchar(5)]</text>
<polygon fill="none" stroke="#000000" points="185,-162.5 185,-192.5 392,-192.5 392,-162.5 185,-162.5"/>
<text text-anchor="start" x="192" y="-173.9" font-family="Arial" font-size="14.00" fill="#000000">mfaactive </text>
<text text-anchor="start" x="255.7868" y="-173.9" font-family="Arial" font-size="14.00" fill="#666666">[boolean]</text>
<polygon fill="none" stroke="#000000" points="185,-132.5 185,-162.5 392,-162.5 392,-132.5 185,-132.5"/>
<text text-anchor="start" x="192" y="-143.9" font-family="Arial" font-size="14.00" fill="#000000">mfasecret </text>
<text text-anchor="start" x="257.3408" y="-143.9" font-family="Arial" font-size="14.00" fill="#666666">[varchar(128)]</text>
<polygon fill="none" stroke="#000000" points="185,-102.5 185,-132.5 392,-132.5 392,-102.5 185,-102.5"/>
<text text-anchor="start" x="192" y="-113.9" font-family="Arial" font-size="14.00" fill="#000000">position </text>
<text text-anchor="start" x="244.1248" y="-113.9" font-family="Arial" font-size="14.00" fill="#666666">[varchar(128)]</text>
<polygon fill="none" stroke="#000000" points="185,-72.5 185,-102.5 392,-102.5 392,-72.5 185,-72.5"/>
<text text-anchor="start" x="192" y="-83.9" font-family="Arial" font-size="14.00" fill="#000000">timezone </text>
<text text-anchor="start" x="252.6788" y="-83.9" font-family="Arial" font-size="14.00" fill="#666666">[jsonb]</text>
<polygon fill="none" stroke="#000000" points="185,-42.5 185,-72.5 392,-72.5 392,-42.5 185,-42.5"/>
<text text-anchor="start" x="192" y="-53.9" font-family="Arial" font-size="14.00" fill="#000000">remoteid </text>
<text text-anchor="start" x="250.3394" y="-53.9" font-family="Arial" font-size="14.00" fill="#666666">[varchar(26)]</text>
</g>
<!-- public.focalboard_category_boards&#45;&gt;public.users -->
<g id="edge1" class="edge">
<title>public.focalboard_category_boards:user_id&#45;&gt;public.users:id</title>
<path fill="none" stroke="#000000" stroke-dasharray="5,2" d="M83.0964,-1145.3288C23.3221,-1116.3721 110.3963,-807.5 185,-807.5"/>
<polygon fill="#000000" stroke="#000000" points="83.232,-1145.3585 92.0363,-1151.8956 88.116,-1146.4292 93,-1147.5 93,-1147.5 93,-1147.5 88.116,-1146.4292 93.9637,-1143.1044 83.232,-1145.3585 83.232,-1145.3585"/>
<text text-anchor="start" x="7.268" y="-1157.5" font-family="Arial" font-size="10.00" fill="#000000">Detected Relation</text>
</g>
</g>
</svg>
