<?xml version="1.0" encoding="UTF-8" standalone="no"?>
<!DOCTYPE svg PUBLIC "-//W3C//DTD SVG 1.1//EN"
 "http://www.w3.org/Graphics/SVG/1.1/DTD/svg11.dtd">
<!-- Generated by graphviz version 2.40.1 (20161225.0304)
 -->
<!-- Title: public.focalboard_board_members Pages: 1 -->
<svg width="535pt" height="1282pt"
 viewBox="0.00 0.00 535.00 1282.00" xmlns="http://www.w3.org/2000/svg" xmlns:xlink="http://www.w3.org/1999/xlink">
<g id="graph0" class="graph" transform="scale(1 1) rotate(0) translate(4 1278)">
<title>public.focalboard_board_members</title>
<polygon fill="#ffffff" stroke="transparent" points="-4,4 -4,-1278 531,-1278 531,4 -4,4"/>
<!-- public.focalboard_board_members -->
<g id="node1" class="node">
<title>public.focalboard_board_members</title>
<polygon fill="#efefef" stroke="transparent" points="93,-1192.5 93,-1227.5 481,-1227.5 481,-1192.5 93,-1192.5"/>
<polygon fill="none" stroke="#000000" points="93,-1192.5 93,-1227.5 481,-1227.5 481,-1192.5 93,-1192.5"/>
<text text-anchor="start" x="99.8433" y="-1205.3" font-family="Arial Bold" font-size="18.00" fill="#000000">public.focalboard_board_members</text>
<text text-anchor="start" x="376.9029" y="-1205.3" font-family="Arial" font-size="14.00" fill="#000000"> </text>
<text text-anchor="start" x="380.7935" y="-1205.3" font-family="Arial" font-size="14.00" fill="#666666">[BASE TABLE]</text>
<polygon fill="none" stroke="#000000" points="93,-1162.5 93,-1192.5 481,-1192.5 481,-1162.5 93,-1162.5"/>
<text text-anchor="start" x="100" y="-1173.9" font-family="Arial" font-size="14.00" fill="#000000">board_id </text>
<text text-anchor="start" x="158.3534" y="-1173.9" font-family="Arial" font-size="14.00" fill="#666666">[varchar(36)]</text>
<polygon fill="none" stroke="#000000" points="93,-1132.5 93,-1162.5 481,-1162.5 481,-1132.5 93,-1132.5"/>
<text text-anchor="start" x="100" y="-1143.9" font-family="Arial" font-size="14.00" fill="#000000">user_id </text>
<text text-anchor="start" x="149.7882" y="-1143.9" font-family="Arial" font-size="14.00" fill="#666666">[varchar(36)]</text>
<polygon fill="none" stroke="#000000" points="93,-1102.5 93,-1132.5 481,-1132.5 481,-1102.5 93,-1102.5"/>
<text text-anchor="start" x="100" y="-1113.9" font-family="Arial" font-size="14.00" fill="#000000">roles </text>
<text text-anchor="start" x="134.223" y="-1113.9" font-family="Arial" font-size="14.00" fill="#666666">[varchar(64)]</text>
<polygon fill="none" stroke="#000000" points="93,-1072.5 93,-1102.5 481,-1102.5 481,-1072.5 93,-1072.5"/>
<text text-anchor="start" x="100" y="-1083.9" font-family="Arial" font-size="14.00" fill="#000000">scheme_admin </text>
<text text-anchor="start" x="198.7966" y="-1083.9" font-family="Arial" font-size="14.00" fill="#666666">[boolean]</text>
<polygon fill="none" stroke="#000000" points="93,-1042.5 93,-1072.5 481,-1072.5 481,-1042.5 93,-1042.5"/>
<text text-anchor="start" x="100" y="-1053.9" font-family="Arial" font-size="14.00" fill="#000000">scheme_editor </text>
<text text-anchor="start" x="195.6872" y="-1053.9" font-family="Arial" font-size="14.00" fill="#666666">[boolean]</text>
<polygon fill="none" stroke="#000000" points="93,-1012.5 93,-1042.5 481,-1042.5 481,-1012.5 93,-1012.5"/>
<text text-anchor="start" x="100" y="-1023.9" font-family="Arial" font-size="14.00" fill="#000000">scheme_commenter </text>
<text text-anchor="start" x="230.6844" y="-1023.9" font-family="Arial" font-size="14.00" fill="#666666">[boolean]</text>
<polygon fill="none" stroke="#000000" points="93,-982.5 93,-1012.5 481,-1012.5 481,-982.5 93,-982.5"/>
<text text-anchor="start" x="100" y="-993.9" font-family="Arial" font-size="14.00" fill="#000000">scheme_viewer </text>
<text text-anchor="start" x="201.1206" y="-993.9" font-family="Arial" font-size="14.00" fill="#666666">[boolean]</text>
<polygon fill="none" stroke="#000000" stroke-width="3" points="91.5,-981.5 91.5,-1229.5 482.5,-1229.5 482.5,-981.5 91.5,-981.5"/>
</g>
<!-- public.users -->
<g id="node2" class="node">
<title>public.users</title>
<polygon fill="#efefef" stroke="transparent" points="183,-822.5 183,-857.5 390,-857.5 390,-822.5 183,-822.5"/>
<polygon fill="none" stroke="#000000" points="183,-822.5 183,-857.5 390,-857.5 390,-822.5 183,-822.5"/>
<text text-anchor="start" x="189.8662" y="-835.3" font-family="Arial Bold" font-size="18.00" fill="#000000">public.users</text>
<text text-anchor="start" x="285.88" y="-835.3" font-family="Arial" font-size="14.00" fill="#000000"> </text>
<text text-anchor="start" x="289.7706" y="-835.3" font-family="Arial" font-size="14.00" fill="#666666">[BASE TABLE]</text>
<polygon fill="none" stroke="#000000" points="183,-792.5 183,-822.5 390,-822.5 390,-792.5 183,-792.5"/>
<text text-anchor="start" x="190" y="-803.9" font-family="Arial" font-size="14.00" fill="#000000">id </text>
<text text-anchor="start" x="204.7798" y="-803.9" font-family="Arial" font-size="14.00" fill="#666666">[varchar(26)]</text>
<polygon fill="none" stroke="#000000" points="183,-762.5 183,-792.5 390,-792.5 390,-762.5 183,-762.5"/>
<text text-anchor="start" x="190" y="-773.9" font-family="Arial" font-size="14.00" fill="#000000">createat </text>
<text text-anchor="start" x="244.4628" y="-773.9" font-family="Arial" font-size="14.00" fill="#666666">[bigint]</text>
<polygon fill="none" stroke="#000000" points="183,-732.5 183,-762.5 390,-762.5 390,-732.5 183,-732.5"/>
<text text-anchor="start" x="190" y="-743.9" font-family="Arial" font-size="14.00" fill="#000000">updateat </text>
<text text-anchor="start" x="248.3674" y="-743.9" font-family="Arial" font-size="14.00" fill="#666666">[bigint]</text>
<polygon fill="none" stroke="#000000" points="183,-702.5 183,-732.5 390,-732.5 390,-702.5 183,-702.5"/>
<text text-anchor="start" x="190" y="-713.9" font-family="Arial" font-size="14.00" fill="#000000">deleteat </text>
<text text-anchor="start" x="243.6914" y="-713.9" font-family="Arial" font-size="14.00" fill="#666666">[bigint]</text>
<polygon fill="none" stroke="#000000" points="183,-672.5 183,-702.5 390,-702.5 390,-672.5 183,-672.5"/>
<text text-anchor="start" x="190" y="-683.9" font-family="Arial" font-size="14.00" fill="#000000">username </text>
<text text-anchor="start" x="256.1248" y="-683.9" font-family="Arial" font-size="14.00" fill="#666666">[varchar(64)]</text>
<polygon fill="none" stroke="#000000" points="183,-642.5 183,-672.5 390,-672.5 390,-642.5 183,-642.5"/>
<text text-anchor="start" x="190" y="-653.9" font-family="Arial" font-size="14.00" fill="#000000">password </text>
<text text-anchor="start" x="253.7882" y="-653.9" font-family="Arial" font-size="14.00" fill="#666666">[varchar(128)]</text>
<polygon fill="none" stroke="#000000" points="183,-612.5 183,-642.5 390,-642.5 390,-612.5 183,-612.5"/>
<text text-anchor="start" x="190" y="-623.9" font-family="Arial" font-size="14.00" fill="#000000">authdata </text>
<text text-anchor="start" x="248.3674" y="-623.9" font-family="Arial" font-size="14.00" fill="#666666">[varchar(128)]</text>
<polygon fill="none" stroke="#000000" points="183,-582.5 183,-612.5 390,-612.5 390,-582.5 183,-582.5"/>
<text text-anchor="start" x="190" y="-593.9" font-family="Arial" font-size="14.00" fill="#000000">authservice </text>
<text text-anchor="start" x="265.4614" y="-593.9" font-family="Arial" font-size="14.00" fill="#666666">[varchar(32)]</text>
<polygon fill="none" stroke="#000000" points="183,-552.5 183,-582.5 390,-582.5 390,-552.5 183,-552.5"/>
<text text-anchor="start" x="190" y="-563.9" font-family="Arial" font-size="14.00" fill="#000000">email </text>
<text text-anchor="start" x="227.3296" y="-563.9" font-family="Arial" font-size="14.00" fill="#666666">[varchar(128)]</text>
<polygon fill="none" stroke="#000000" points="183,-522.5 183,-552.5 390,-552.5 390,-522.5 183,-522.5"/>
<text text-anchor="start" x="190" y="-533.9" font-family="Arial" font-size="14.00" fill="#000000">emailverified </text>
<text text-anchor="start" x="272.4418" y="-533.9" font-family="Arial" font-size="14.00" fill="#666666">[boolean]</text>
<polygon fill="none" stroke="#000000" points="183,-492.5 183,-522.5 390,-522.5 390,-492.5 183,-492.5"/>
<text text-anchor="start" x="190" y="-503.9" font-family="Arial" font-size="14.00" fill="#000000">nickname </text>
<text text-anchor="start" x="253.7882" y="-503.9" font-family="Arial" font-size="14.00" fill="#666666">[varchar(64)]</text>
<polygon fill="none" stroke="#000000" points="183,-462.5 183,-492.5 390,-492.5 390,-462.5 183,-462.5"/>
<text text-anchor="start" x="190" y="-473.9" font-family="Arial" font-size="14.00" fill="#000000">firstname </text>
<text text-anchor="start" x="251.4474" y="-473.9" font-family="Arial" font-size="14.00" fill="#666666">[varchar(64)]</text>
<polygon fill="none" stroke="#000000" points="183,-432.5 183,-462.5 390,-462.5 390,-432.5 183,-432.5"/>
<text text-anchor="start" x="190" y="-443.9" font-family="Arial" font-size="14.00" fill="#000000">lastname </text>
<text text-anchor="start" x="250.6788" y="-443.9" font-family="Arial" font-size="14.00" fill="#666666">[varchar(64)]</text>
<polygon fill="none" stroke="#000000" points="183,-402.5 183,-432.5 390,-432.5 390,-402.5 183,-402.5"/>
<text text-anchor="start" x="190" y="-413.9" font-family="Arial" font-size="14.00" fill="#000000">roles </text>
<text text-anchor="start" x="224.223" y="-413.9" font-family="Arial" font-size="14.00" fill="#666666">[varchar(256)]</text>
<polygon fill="none" stroke="#000000" points="183,-372.5 183,-402.5 390,-402.5 390,-372.5 183,-372.5"/>
<text text-anchor="start" x="190" y="-383.9" font-family="Arial" font-size="14.00" fill="#000000">allowmarketing </text>
<text text-anchor="start" x="287.2244" y="-383.9" font-family="Arial" font-size="14.00" fill="#666666">[boolean]</text>
<polygon fill="none" stroke="#000000" points="183,-342.5 183,-372.5 390,-372.5 390,-342.5 183,-342.5"/>
<text text-anchor="start" x="190" y="-353.9" font-family="Arial" font-size="14.00" fill="#000000">props </text>
<text text-anchor="start" x="228.899" y="-353.9" font-family="Arial" font-size="14.00" fill="#666666">[jsonb]</text>
<polygon fill="none" stroke="#000000" points="183,-312.5 183,-342.5 390,-342.5 390,-312.5 183,-312.5"/>
<text text-anchor="start" x="190" y="-323.9" font-family="Arial" font-size="14.00" fill="#000000">notifyprops </text>
<text text-anchor="start" x="262.352" y="-323.9" font-family="Arial" font-size="14.00" fill="#666666">[jsonb]</text>
<polygon fill="none" stroke="#000000" points="183,-282.5 183,-312.5 390,-312.5 390,-282.5 183,-282.5"/>
<text text-anchor="start" x="190" y="-293.9" font-family="Arial" font-size="14.00" fill="#000000">lastpasswordupdate </text>
<text text-anchor="start" x="318.3716" y="-293.9" font-family="Arial" font-size="14.00" fill="#666666">[bigint]</text>
<polygon fill="none" stroke="#000000" points="183,-252.5 183,-282.5 390,-282.5 390,-252.5 183,-252.5"/>
<text text-anchor="start" x="190" y="-263.9" font-family="Arial" font-size="14.00" fill="#000000">lastpictureupdate </text>
<text text-anchor="start" x="300.4796" y="-263.9" font-family="Arial" font-size="14.00" fill="#666666">[bigint]</text>
<polygon fill="none" stroke="#000000" points="183,-222.5 183,-252.5 390,-252.5 390,-222.5 183,-222.5"/>
<text text-anchor="start" x="190" y="-233.9" font-family="Arial" font-size="14.00" fill="#000000">failedattempts </text>
<text text-anchor="start" x="281.0224" y="-233.9" font-family="Arial" font-size="14.00" fill="#666666">[integer]</text>
<polygon fill="none" stroke="#000000" points="183,-192.5 183,-222.5 390,-222.5 390,-192.5 183,-192.5"/>
<text text-anchor="start" x="190" y="-203.9" font-family="Arial" font-size="14.00" fill="#000000">locale </text>
<text text-anchor="start" x="230.4516" y="-203.9" font-family="Arial" font-size="14.00" fill="#666666">[varchar(5)]</text>
<polygon fill="none" stroke="#000000" points="183,-162.5 183,-192.5 390,-192.5 390,-162.5 183,-162.5"/>
<text text-anchor="start" x="190" y="-173.9" font-family="Arial" font-size="14.00" fill="#000000">mfaactive </text>
<text text-anchor="start" x="253.7868" y="-173.9" font-family="Arial" font-size="14.00" fill="#666666">[boolean]</text>
<polygon fill="none" stroke="#000000" points="183,-132.5 183,-162.5 390,-162.5 390,-132.5 183,-132.5"/>
<text text-anchor="start" x="190" y="-143.9" font-family="Arial" font-size="14.00" fill="#000000">mfasecret </text>
<text text-anchor="start" x="255.3408" y="-143.9" font-family="Arial" font-size="14.00" fill="#666666">[varchar(128)]</text>
<polygon fill="none" stroke="#000000" points="183,-102.5 183,-132.5 390,-132.5 390,-102.5 183,-102.5"/>
<text text-anchor="start" x="190" y="-113.9" font-family="Arial" font-size="14.00" fill="#000000">position </text>
<text text-anchor="start" x="242.1248" y="-113.9" font-family="Arial" font-size="14.00" fill="#666666">[varchar(128)]</text>
<polygon fill="none" stroke="#000000" points="183,-72.5 183,-102.5 390,-102.5 390,-72.5 183,-72.5"/>
<text text-anchor="start" x="190" y="-83.9" font-family="Arial" font-size="14.00" fill="#000000">timezone </text>
<text text-anchor="start" x="250.6788" y="-83.9" font-family="Arial" font-size="14.00" fill="#666666">[jsonb]</text>
<polygon fill="none" stroke="#000000" points="183,-42.5 183,-72.5 390,-72.5 390,-42.5 183,-42.5"/>
<text text-anchor="start" x="190" y="-53.9" font-family="Arial" font-size="14.00" fill="#000000">remoteid </text>
<text text-anchor="start" x="248.3394" y="-53.9" font-family="Arial" font-size="14.00" fill="#666666">[varchar(26)]</text>
</g>
<!-- public.focalboard_board_members&#45;&gt;public.users -->
<g id="edge1" class="edge">
<title>public.focalboard_board_members:user_id&#45;&gt;public.users:id</title>
<path fill="none" stroke="#000000" stroke-dasharray="5,2" d="M82.6033,-1146.8695C1.9527,-1136.6326 33.3776,-1004.2857 93,-937 181.1832,-837.4825 301.8168,-1000.5175 390,-901 417.5596,-869.8981 431.5556,-807.5 390,-807.5"/>
<polygon fill="#000000" stroke="#000000" points="83.0183,-1146.8946 92.7276,-1151.9917 88.0092,-1147.1973 93,-1147.5 93,-1147.5 93,-1147.5 88.0092,-1147.1973 93.2724,-1143.0083 83.0183,-1146.8946 83.0183,-1146.8946"/>
<text text-anchor="start" x="7.268" y="-1157.5" font-family="Arial" font-size="10.00" fill="#000000">Detected Relation</text>
</g>
</g>
</svg>
