<?xml version="1.0" encoding="UTF-8" standalone="no"?>
<!DOCTYPE svg PUBLIC "-//W3C//DTD SVG 1.1//EN"
 "http://www.w3.org/Graphics/SVG/1.1/DTD/svg11.dtd">
<!-- Generated by graphviz version 2.40.1 (20161225.0304)
 -->
<!-- Title: public.retentionpolicies Pages: 1 -->
<svg width="906pt" height="442pt"
 viewBox="0.00 0.00 905.50 442.00" xmlns="http://www.w3.org/2000/svg" xmlns:xlink="http://www.w3.org/1999/xlink">
<g id="graph0" class="graph" transform="scale(1 1) rotate(0) translate(4 438)">
<title>public.retentionpolicies</title>
<polygon fill="#ffffff" stroke="transparent" points="-4,4 -4,-438 901.5,-438 901.5,4 -4,4"/>
<!-- public.retentionpolicies -->
<g id="node1" class="node">
<title>public.retentionpolicies</title>
<polygon fill="#efefef" stroke="transparent" points="296,-135.5 296,-170.5 589,-170.5 589,-135.5 296,-135.5"/>
<polygon fill="none" stroke="#000000" points="296,-135.5 296,-170.5 589,-170.5 589,-135.5 296,-135.5"/>
<text text-anchor="start" x="302.857" y="-148.3" font-family="Arial Bold" font-size="18.00" fill="#000000">public.retentionpolicies</text>
<text text-anchor="start" x="484.8892" y="-148.3" font-family="Arial" font-size="14.00" fill="#000000"> </text>
<text text-anchor="start" x="488.7798" y="-148.3" font-family="Arial" font-size="14.00" fill="#666666">[BASE TABLE]</text>
<polygon fill="none" stroke="#000000" points="296,-105.5 296,-135.5 589,-135.5 589,-105.5 296,-105.5"/>
<text text-anchor="start" x="303" y="-116.9" font-family="Arial" font-size="14.00" fill="#000000">id </text>
<text text-anchor="start" x="317.7798" y="-116.9" font-family="Arial" font-size="14.00" fill="#666666">[varchar(26)]</text>
<polygon fill="none" stroke="#000000" points="296,-75.5 296,-105.5 589,-105.5 589,-75.5 296,-75.5"/>
<text text-anchor="start" x="303" y="-86.9" font-family="Arial" font-size="14.00" fill="#000000">displayname </text>
<text text-anchor="start" x="385.46" y="-86.9" font-family="Arial" font-size="14.00" fill="#666666">[varchar(64)]</text>
<polygon fill="none" stroke="#000000" points="296,-45.5 296,-75.5 589,-75.5 589,-45.5 296,-45.5"/>
<text text-anchor="start" x="303" y="-56.9" font-family="Arial" font-size="14.00" fill="#000000">postduration </text>
<text text-anchor="start" x="383.9172" y="-56.9" font-family="Arial" font-size="14.00" fill="#666666">[bigint]</text>
<polygon fill="none" stroke="#000000" stroke-width="3" points="294,-44.5 294,-172.5 590,-172.5 590,-44.5 294,-44.5"/>
</g>
<!-- public.retentionpoliciesteams -->
<g id="node2" class="node">
<title>public.retentionpoliciesteams</title>
<polygon fill="#efefef" stroke="transparent" points="43,-355.5 43,-390.5 385,-390.5 385,-355.5 43,-355.5"/>
<polygon fill="none" stroke="#000000" points="43,-355.5 43,-390.5 385,-390.5 385,-355.5 43,-355.5"/>
<text text-anchor="start" x="49.8536" y="-368.3" font-family="Arial Bold" font-size="18.00" fill="#000000">public.retentionpoliciesteams</text>
<text text-anchor="start" x="280.8926" y="-368.3" font-family="Arial" font-size="14.00" fill="#000000"> </text>
<text text-anchor="start" x="284.7832" y="-368.3" font-family="Arial" font-size="14.00" fill="#666666">[BASE TABLE]</text>
<polygon fill="none" stroke="#000000" points="43,-325.5 43,-355.5 385,-355.5 385,-325.5 43,-325.5"/>
<text text-anchor="start" x="50" y="-336.9" font-family="Arial" font-size="14.00" fill="#000000">policyid </text>
<text text-anchor="start" x="100.5582" y="-336.9" font-family="Arial" font-size="14.00" fill="#666666">[varchar(26)]</text>
<polygon fill="none" stroke="#000000" points="43,-295.5 43,-325.5 385,-325.5 385,-295.5 43,-295.5"/>
<text text-anchor="start" x="50" y="-306.9" font-family="Arial" font-size="14.00" fill="#000000">teamid </text>
<text text-anchor="start" x="95.8962" y="-306.9" font-family="Arial" font-size="14.00" fill="#666666">[varchar(26)]</text>
</g>
<!-- public.retentionpoliciesteams&#45;&gt;public.retentionpolicies -->
<g id="edge1" class="edge">
<title>public.retentionpoliciesteams:policyid&#45;&gt;public.retentionpolicies:id</title>
<path fill="none" stroke="#000000" d="M395.1688,-338.8721C420.3581,-329.5136 404.5319,-281.9699 385,-253 361.1469,-217.621 319.8531,-252.379 296,-217 272.024,-181.4387 253.1111,-120.5 296,-120.5"/>
<polygon fill="#000000" stroke="#000000" points="394.8743,-338.9192 384.2886,-336.0566 389.9371,-339.7096 385,-340.5 385,-340.5 385,-340.5 389.9371,-339.7096 385.7114,-344.9434 394.8743,-338.9192 394.8743,-338.9192"/>
<text text-anchor="start" x="391.8845" y="-350.5" font-family="Arial" font-size="10.00" fill="#000000">FOREIGN KEY (policyid) REFERENCES retentionpolicies(id) ON DELETE CASCADE</text>
</g>
<!-- public.retentionpolicieschannels -->
<g id="node3" class="node">
<title>public.retentionpolicieschannels</title>
<polygon fill="#efefef" stroke="transparent" points="490,-355.5 490,-390.5 855,-390.5 855,-355.5 490,-355.5"/>
<polygon fill="none" stroke="#000000" points="490,-355.5 490,-390.5 855,-390.5 855,-355.5 490,-355.5"/>
<text text-anchor="start" x="496.8444" y="-368.3" font-family="Arial Bold" font-size="18.00" fill="#000000">public.retentionpolicieschannels</text>
<text text-anchor="start" x="750.9018" y="-368.3" font-family="Arial" font-size="14.00" fill="#000000"> </text>
<text text-anchor="start" x="754.7924" y="-368.3" font-family="Arial" font-size="14.00" fill="#666666">[BASE TABLE]</text>
<polygon fill="none" stroke="#000000" points="490,-325.5 490,-355.5 855,-355.5 855,-325.5 490,-325.5"/>
<text text-anchor="start" x="497" y="-336.9" font-family="Arial" font-size="14.00" fill="#000000">policyid </text>
<text text-anchor="start" x="547.5582" y="-336.9" font-family="Arial" font-size="14.00" fill="#666666">[varchar(26)]</text>
<polygon fill="none" stroke="#000000" points="490,-295.5 490,-325.5 855,-325.5 855,-295.5 490,-295.5"/>
<text text-anchor="start" x="497" y="-306.9" font-family="Arial" font-size="14.00" fill="#000000">channelid </text>
<text text-anchor="start" x="560.7994" y="-306.9" font-family="Arial" font-size="14.00" fill="#666666">[varchar(26)]</text>
</g>
<!-- public.retentionpolicieschannels&#45;&gt;public.retentionpolicies -->
<g id="edge2" class="edge">
<title>public.retentionpolicieschannels:policyid&#45;&gt;public.retentionpolicies:id</title>
<path fill="none" stroke="#000000" d="M479.8154,-338.8612C454.5377,-329.4421 469.9555,-281.6176 490,-253 516.8598,-214.6522 562.1402,-255.3478 589,-217 613.6052,-181.8711 631.8889,-120.5 589,-120.5"/>
<polygon fill="#000000" stroke="#000000" points="480.127,-338.9113 489.2851,-344.9429 485.0635,-339.7056 490,-340.5 490,-340.5 490,-340.5 485.0635,-339.7056 490.7149,-336.0571 480.127,-338.9113 480.127,-338.9113"/>
<text text-anchor="start" x="496.8845" y="-324.5" font-family="Arial" font-size="10.00" fill="#000000">FOREIGN KEY (policyid) REFERENCES retentionpolicies(id) ON DELETE CASCADE</text>
</g>
</g>
</svg>
