<?xml version="1.0" encoding="UTF-8" standalone="no"?>
<!DOCTYPE svg PUBLIC "-//W3C//DTD SVG 1.1//EN"
 "http://www.w3.org/Graphics/SVG/1.1/DTD/svg11.dtd">
<!-- Generated by graphviz version 2.40.1 (20161225.0304)
 -->
<!-- Title: public.focalboard_boards_history Pages: 1 -->
<svg width="663pt" height="1432pt"
 viewBox="0.00 0.00 662.95 1432.00" xmlns="http://www.w3.org/2000/svg" xmlns:xlink="http://www.w3.org/1999/xlink">
<g id="graph0" class="graph" transform="scale(1 1) rotate(0) translate(4 1428)">
<title>public.focalboard_boards_history</title>
<polygon fill="#ffffff" stroke="transparent" points="-4,4 -4,-1428 658.9499,-1428 658.9499,4 -4,4"/>
<!-- public.focalboard_boards_history -->
<g id="node1" class="node">
<title>public.focalboard_boards_history</title>
<polygon fill="#efefef" stroke="transparent" points="140.6776,-1342.5 140.6776,-1377.5 515.6776,-1377.5 515.6776,-1342.5 140.6776,-1342.5"/>
<polygon fill="none" stroke="#000000" points="140.6776,-1342.5 140.6776,-1377.5 515.6776,-1377.5 515.6776,-1342.5 140.6776,-1342.5"/>
<text text-anchor="start" x="147.518" y="-1355.3" font-family="Arial Bold" font-size="18.00" fill="#000000">public.focalboard_boards_history</text>
<text text-anchor="start" x="411.5834" y="-1355.3" font-family="Arial" font-size="14.00" fill="#000000"> </text>
<text text-anchor="start" x="415.474" y="-1355.3" font-family="Arial" font-size="14.00" fill="#666666">[BASE TABLE]</text>
<polygon fill="none" stroke="#000000" points="140.6776,-1312.5 140.6776,-1342.5 515.6776,-1342.5 515.6776,-1312.5 140.6776,-1312.5"/>
<text text-anchor="start" x="147.6776" y="-1323.9" font-family="Arial" font-size="14.00" fill="#000000">id </text>
<text text-anchor="start" x="162.4574" y="-1323.9" font-family="Arial" font-size="14.00" fill="#666666">[varchar(36)]</text>
<polygon fill="none" stroke="#000000" points="140.6776,-1282.5 140.6776,-1312.5 515.6776,-1312.5 515.6776,-1282.5 140.6776,-1282.5"/>
<text text-anchor="start" x="147.6776" y="-1293.9" font-family="Arial" font-size="14.00" fill="#000000">insert_at </text>
<text text-anchor="start" x="205.247" y="-1293.9" font-family="Arial" font-size="14.00" fill="#666666">[timestamp with time zone]</text>
<polygon fill="none" stroke="#000000" points="140.6776,-1252.5 140.6776,-1282.5 515.6776,-1282.5 515.6776,-1252.5 140.6776,-1252.5"/>
<text text-anchor="start" x="147.6776" y="-1263.9" font-family="Arial" font-size="14.00" fill="#000000">team_id </text>
<text text-anchor="start" x="201.3564" y="-1263.9" font-family="Arial" font-size="14.00" fill="#666666">[varchar(36)]</text>
<polygon fill="none" stroke="#000000" points="140.6776,-1222.5 140.6776,-1252.5 515.6776,-1252.5 515.6776,-1222.5 140.6776,-1222.5"/>
<text text-anchor="start" x="147.6776" y="-1233.9" font-family="Arial" font-size="14.00" fill="#000000">channel_id </text>
<text text-anchor="start" x="219.2596" y="-1233.9" font-family="Arial" font-size="14.00" fill="#666666">[varchar(36)]</text>
<polygon fill="none" stroke="#000000" points="140.6776,-1192.5 140.6776,-1222.5 515.6776,-1222.5 515.6776,-1192.5 140.6776,-1192.5"/>
<text text-anchor="start" x="147.6776" y="-1203.9" font-family="Arial" font-size="14.00" fill="#000000">created_by </text>
<text text-anchor="start" x="220.815" y="-1203.9" font-family="Arial" font-size="14.00" fill="#666666">[varchar(36)]</text>
<polygon fill="none" stroke="#000000" points="140.6776,-1162.5 140.6776,-1192.5 515.6776,-1192.5 515.6776,-1162.5 140.6776,-1162.5"/>
<text text-anchor="start" x="147.6776" y="-1173.9" font-family="Arial" font-size="14.00" fill="#000000">modified_by </text>
<text text-anchor="start" x="227.0282" y="-1173.9" font-family="Arial" font-size="14.00" fill="#666666">[varchar(36)]</text>
<polygon fill="none" stroke="#000000" points="140.6776,-1132.5 140.6776,-1162.5 515.6776,-1162.5 515.6776,-1132.5 140.6776,-1132.5"/>
<text text-anchor="start" x="147.6776" y="-1143.9" font-family="Arial" font-size="14.00" fill="#000000">type </text>
<text text-anchor="start" x="178.024" y="-1143.9" font-family="Arial" font-size="14.00" fill="#666666">[varchar(1)]</text>
<polygon fill="none" stroke="#000000" points="140.6776,-1102.5 140.6776,-1132.5 515.6776,-1132.5 515.6776,-1102.5 140.6776,-1102.5"/>
<text text-anchor="start" x="147.6776" y="-1113.9" font-family="Arial" font-size="14.00" fill="#000000">title </text>
<text text-anchor="start" x="173.3452" y="-1113.9" font-family="Arial" font-size="14.00" fill="#666666">[text]</text>
<polygon fill="none" stroke="#000000" points="140.6776,-1072.5 140.6776,-1102.5 515.6776,-1102.5 515.6776,-1072.5 140.6776,-1072.5"/>
<text text-anchor="start" x="147.6776" y="-1083.9" font-family="Arial" font-size="14.00" fill="#000000">description </text>
<text text-anchor="start" x="219.2456" y="-1083.9" font-family="Arial" font-size="14.00" fill="#666666">[text]</text>
<polygon fill="none" stroke="#000000" points="140.6776,-1042.5 140.6776,-1072.5 515.6776,-1072.5 515.6776,-1042.5 140.6776,-1042.5"/>
<text text-anchor="start" x="147.6776" y="-1053.9" font-family="Arial" font-size="14.00" fill="#000000">icon </text>
<text text-anchor="start" x="177.24" y="-1053.9" font-family="Arial" font-size="14.00" fill="#666666">[varchar(256)]</text>
<polygon fill="none" stroke="#000000" points="140.6776,-1012.5 140.6776,-1042.5 515.6776,-1042.5 515.6776,-1012.5 140.6776,-1012.5"/>
<text text-anchor="start" x="147.6776" y="-1023.9" font-family="Arial" font-size="14.00" fill="#000000">show_description </text>
<text text-anchor="start" x="259.7" y="-1023.9" font-family="Arial" font-size="14.00" fill="#666666">[boolean]</text>
<polygon fill="none" stroke="#000000" points="140.6776,-982.5 140.6776,-1012.5 515.6776,-1012.5 515.6776,-982.5 140.6776,-982.5"/>
<text text-anchor="start" x="147.6776" y="-993.9" font-family="Arial" font-size="14.00" fill="#000000">is_template </text>
<text text-anchor="start" x="223.1362" y="-993.9" font-family="Arial" font-size="14.00" fill="#666666">[boolean]</text>
<polygon fill="none" stroke="#000000" points="140.6776,-952.5 140.6776,-982.5 515.6776,-982.5 515.6776,-952.5 140.6776,-952.5"/>
<text text-anchor="start" x="147.6776" y="-963.9" font-family="Arial" font-size="14.00" fill="#000000">template_version </text>
<text text-anchor="start" x="258.1446" y="-963.9" font-family="Arial" font-size="14.00" fill="#666666">[integer]</text>
<polygon fill="none" stroke="#000000" points="140.6776,-922.5 140.6776,-952.5 515.6776,-952.5 515.6776,-922.5 140.6776,-922.5"/>
<text text-anchor="start" x="147.6776" y="-933.9" font-family="Arial" font-size="14.00" fill="#000000">properties </text>
<text text-anchor="start" x="213.7996" y="-933.9" font-family="Arial" font-size="14.00" fill="#666666">[jsonb]</text>
<polygon fill="none" stroke="#000000" points="140.6776,-892.5 140.6776,-922.5 515.6776,-922.5 515.6776,-892.5 140.6776,-892.5"/>
<text text-anchor="start" x="147.6776" y="-903.9" font-family="Arial" font-size="14.00" fill="#000000">card_properties </text>
<text text-anchor="start" x="248.808" y="-903.9" font-family="Arial" font-size="14.00" fill="#666666">[jsonb]</text>
<polygon fill="none" stroke="#000000" points="140.6776,-862.5 140.6776,-892.5 515.6776,-892.5 515.6776,-862.5 140.6776,-862.5"/>
<text text-anchor="start" x="147.6776" y="-873.9" font-family="Arial" font-size="14.00" fill="#000000">create_at </text>
<text text-anchor="start" x="209.923" y="-873.9" font-family="Arial" font-size="14.00" fill="#666666">[bigint]</text>
<polygon fill="none" stroke="#000000" points="140.6776,-832.5 140.6776,-862.5 515.6776,-862.5 515.6776,-832.5 140.6776,-832.5"/>
<text text-anchor="start" x="147.6776" y="-843.9" font-family="Arial" font-size="14.00" fill="#000000">update_at </text>
<text text-anchor="start" x="213.8276" y="-843.9" font-family="Arial" font-size="14.00" fill="#666666">[bigint]</text>
<polygon fill="none" stroke="#000000" points="140.6776,-802.5 140.6776,-832.5 515.6776,-832.5 515.6776,-802.5 140.6776,-802.5"/>
<text text-anchor="start" x="147.6776" y="-813.9" font-family="Arial" font-size="14.00" fill="#000000">delete_at </text>
<text text-anchor="start" x="209.1516" y="-813.9" font-family="Arial" font-size="14.00" fill="#666666">[bigint]</text>
<polygon fill="none" stroke="#000000" points="140.6776,-772.5 140.6776,-802.5 515.6776,-802.5 515.6776,-772.5 140.6776,-772.5"/>
<text text-anchor="start" x="147.6776" y="-783.9" font-family="Arial" font-size="14.00" fill="#000000">minimum_role </text>
<text text-anchor="start" x="239.4434" y="-783.9" font-family="Arial" font-size="14.00" fill="#666666">[varchar(36)]</text>
<polygon fill="none" stroke="#000000" stroke-width="3" points="138.6776,-771.5 138.6776,-1379.5 516.6776,-1379.5 516.6776,-771.5 138.6776,-771.5"/>
</g>
<!-- public.teams -->
<g id="node2" class="node">
<title>public.teams</title>
<polygon fill="#efefef" stroke="transparent" points="57.6776,-582.5 57.6776,-617.5 270.6776,-617.5 270.6776,-582.5 57.6776,-582.5"/>
<polygon fill="none" stroke="#000000" points="57.6776,-582.5 57.6776,-617.5 270.6776,-617.5 270.6776,-582.5 57.6776,-582.5"/>
<text text-anchor="start" x="65.0427" y="-595.3" font-family="Arial Bold" font-size="18.00" fill="#000000">public.teams</text>
<text text-anchor="start" x="166.0587" y="-595.3" font-family="Arial" font-size="14.00" fill="#000000"> </text>
<text text-anchor="start" x="169.9493" y="-595.3" font-family="Arial" font-size="14.00" fill="#666666">[BASE TABLE]</text>
<polygon fill="none" stroke="#000000" points="57.6776,-552.5 57.6776,-582.5 270.6776,-582.5 270.6776,-552.5 57.6776,-552.5"/>
<text text-anchor="start" x="64.6776" y="-563.9" font-family="Arial" font-size="14.00" fill="#000000">id </text>
<text text-anchor="start" x="79.4574" y="-563.9" font-family="Arial" font-size="14.00" fill="#666666">[varchar(26)]</text>
<polygon fill="none" stroke="#000000" points="57.6776,-522.5 57.6776,-552.5 270.6776,-552.5 270.6776,-522.5 57.6776,-522.5"/>
<text text-anchor="start" x="64.6776" y="-533.9" font-family="Arial" font-size="14.00" fill="#000000">createat </text>
<text text-anchor="start" x="119.1404" y="-533.9" font-family="Arial" font-size="14.00" fill="#666666">[bigint]</text>
<polygon fill="none" stroke="#000000" points="57.6776,-492.5 57.6776,-522.5 270.6776,-522.5 270.6776,-492.5 57.6776,-492.5"/>
<text text-anchor="start" x="64.6776" y="-503.9" font-family="Arial" font-size="14.00" fill="#000000">updateat </text>
<text text-anchor="start" x="123.045" y="-503.9" font-family="Arial" font-size="14.00" fill="#666666">[bigint]</text>
<polygon fill="none" stroke="#000000" points="57.6776,-462.5 57.6776,-492.5 270.6776,-492.5 270.6776,-462.5 57.6776,-462.5"/>
<text text-anchor="start" x="64.6776" y="-473.9" font-family="Arial" font-size="14.00" fill="#000000">deleteat </text>
<text text-anchor="start" x="118.369" y="-473.9" font-family="Arial" font-size="14.00" fill="#666666">[bigint]</text>
<polygon fill="none" stroke="#000000" points="57.6776,-432.5 57.6776,-462.5 270.6776,-462.5 270.6776,-432.5 57.6776,-432.5"/>
<text text-anchor="start" x="64.6776" y="-443.9" font-family="Arial" font-size="14.00" fill="#000000">displayname </text>
<text text-anchor="start" x="147.1376" y="-443.9" font-family="Arial" font-size="14.00" fill="#666666">[varchar(64)]</text>
<polygon fill="none" stroke="#000000" points="57.6776,-402.5 57.6776,-432.5 270.6776,-432.5 270.6776,-402.5 57.6776,-402.5"/>
<text text-anchor="start" x="64.6776" y="-413.9" font-family="Arial" font-size="14.00" fill="#000000">name </text>
<text text-anchor="start" x="103.5766" y="-413.9" font-family="Arial" font-size="14.00" fill="#666666">[varchar(64)]</text>
<polygon fill="none" stroke="#000000" points="57.6776,-372.5 57.6776,-402.5 270.6776,-402.5 270.6776,-372.5 57.6776,-372.5"/>
<text text-anchor="start" x="64.6776" y="-383.9" font-family="Arial" font-size="14.00" fill="#000000">description </text>
<text text-anchor="start" x="136.2456" y="-383.9" font-family="Arial" font-size="14.00" fill="#666666">[varchar(255)]</text>
<polygon fill="none" stroke="#000000" points="57.6776,-342.5 57.6776,-372.5 270.6776,-372.5 270.6776,-342.5 57.6776,-342.5"/>
<text text-anchor="start" x="64.6776" y="-353.9" font-family="Arial" font-size="14.00" fill="#000000">email </text>
<text text-anchor="start" x="102.0072" y="-353.9" font-family="Arial" font-size="14.00" fill="#666666">[varchar(128)]</text>
<polygon fill="none" stroke="#000000" points="57.6776,-312.5 57.6776,-342.5 270.6776,-342.5 270.6776,-312.5 57.6776,-312.5"/>
<text text-anchor="start" x="64.6776" y="-323.9" font-family="Arial" font-size="14.00" fill="#000000">type </text>
<text text-anchor="start" x="95.024" y="-323.9" font-family="Arial" font-size="14.00" fill="#666666">[team_type]</text>
<polygon fill="none" stroke="#000000" points="57.6776,-282.5 57.6776,-312.5 270.6776,-312.5 270.6776,-282.5 57.6776,-282.5"/>
<text text-anchor="start" x="64.6776" y="-293.9" font-family="Arial" font-size="14.00" fill="#000000">companyname </text>
<text text-anchor="start" x="160.3676" y="-293.9" font-family="Arial" font-size="14.00" fill="#666666">[varchar(64)]</text>
<polygon fill="none" stroke="#000000" points="57.6776,-252.5 57.6776,-282.5 270.6776,-282.5 270.6776,-252.5 57.6776,-252.5"/>
<text text-anchor="start" x="64.6075" y="-263.9" font-family="Arial" font-size="14.00" fill="#000000">alloweddomains </text>
<text text-anchor="start" x="168.8459" y="-263.9" font-family="Arial" font-size="14.00" fill="#666666">[varchar(1000)]</text>
<polygon fill="none" stroke="#000000" points="57.6776,-222.5 57.6776,-252.5 270.6776,-252.5 270.6776,-222.5 57.6776,-222.5"/>
<text text-anchor="start" x="64.6776" y="-233.9" font-family="Arial" font-size="14.00" fill="#000000">inviteid </text>
<text text-anchor="start" x="112.1264" y="-233.9" font-family="Arial" font-size="14.00" fill="#666666">[varchar(32)]</text>
<polygon fill="none" stroke="#000000" points="57.6776,-192.5 57.6776,-222.5 270.6776,-222.5 270.6776,-192.5 57.6776,-192.5"/>
<text text-anchor="start" x="64.6776" y="-203.9" font-family="Arial" font-size="14.00" fill="#000000">schemeid </text>
<text text-anchor="start" x="128.4658" y="-203.9" font-family="Arial" font-size="14.00" fill="#666666">[varchar(26)]</text>
<polygon fill="none" stroke="#000000" points="57.6776,-162.5 57.6776,-192.5 270.6776,-192.5 270.6776,-162.5 57.6776,-162.5"/>
<text text-anchor="start" x="64.6776" y="-173.9" font-family="Arial" font-size="14.00" fill="#000000">allowopeninvite </text>
<text text-anchor="start" x="164.2526" y="-173.9" font-family="Arial" font-size="14.00" fill="#666666">[boolean]</text>
<polygon fill="none" stroke="#000000" points="57.6776,-132.5 57.6776,-162.5 270.6776,-162.5 270.6776,-132.5 57.6776,-132.5"/>
<text text-anchor="start" x="64.6776" y="-143.9" font-family="Arial" font-size="14.00" fill="#000000">lastteamiconupdate </text>
<text text-anchor="start" x="189.9398" y="-143.9" font-family="Arial" font-size="14.00" fill="#666666">[bigint]</text>
<polygon fill="none" stroke="#000000" points="57.6776,-102.5 57.6776,-132.5 270.6776,-132.5 270.6776,-102.5 57.6776,-102.5"/>
<text text-anchor="start" x="64.6776" y="-113.9" font-family="Arial" font-size="14.00" fill="#000000">groupconstrained </text>
<text text-anchor="start" x="176.7126" y="-113.9" font-family="Arial" font-size="14.00" fill="#666666">[boolean]</text>
<polygon fill="none" stroke="#000000" points="57.6776,-72.5 57.6776,-102.5 270.6776,-102.5 270.6776,-72.5 57.6776,-72.5"/>
<text text-anchor="start" x="64.6776" y="-83.9" font-family="Arial" font-size="14.00" fill="#000000">cloudlimitsarchived </text>
<text text-anchor="start" x="186.7912" y="-83.9" font-family="Arial" font-size="14.00" fill="#666666">[boolean]</text>
</g>
<!-- public.focalboard_boards_history&#45;&gt;public.teams -->
<g id="edge1" class="edge">
<title>public.focalboard_boards_history:team_id&#45;&gt;public.teams:id</title>
<path fill="none" stroke="#000000" stroke-dasharray="5,2" d="M130.3483,-1267.2853C-96.186,-1257.6912 16.8535,-928.7327 140.6776,-727 174.5744,-671.7757 236.7808,-716.2243 270.6776,-661 292.4161,-625.5839 312.2332,-567.5 270.6776,-567.5"/>
<polygon fill="#000000" stroke="#000000" points="130.6798,-1267.2921 140.5841,-1271.999 135.6787,-1267.3961 140.6776,-1267.5 140.6776,-1267.5 140.6776,-1267.5 135.6787,-1267.3961 140.7712,-1263.001 130.6798,-1267.2921 130.6798,-1267.2921"/>
<text text-anchor="start" x="54.9456" y="-1277.5" font-family="Arial" font-size="10.00" fill="#000000">Detected Relation</text>
</g>
<!-- public.channels -->
<g id="node3" class="node">
<title>public.channels</title>
<polygon fill="#efefef" stroke="transparent" points="374.6776,-612.5 374.6776,-647.5 609.6776,-647.5 609.6776,-612.5 374.6776,-612.5"/>
<polygon fill="none" stroke="#000000" points="374.6776,-612.5 374.6776,-647.5 609.6776,-647.5 609.6776,-612.5 374.6776,-612.5"/>
<text text-anchor="start" x="381.5335" y="-625.3" font-family="Arial Bold" font-size="18.00" fill="#000000">public.channels</text>
<text text-anchor="start" x="505.5679" y="-625.3" font-family="Arial" font-size="14.00" fill="#000000"> </text>
<text text-anchor="start" x="509.4585" y="-625.3" font-family="Arial" font-size="14.00" fill="#666666">[BASE TABLE]</text>
<polygon fill="none" stroke="#000000" points="374.6776,-582.5 374.6776,-612.5 609.6776,-612.5 609.6776,-582.5 374.6776,-582.5"/>
<text text-anchor="start" x="381.6776" y="-593.9" font-family="Arial" font-size="14.00" fill="#000000">id </text>
<text text-anchor="start" x="396.4574" y="-593.9" font-family="Arial" font-size="14.00" fill="#666666">[varchar(26)]</text>
<polygon fill="none" stroke="#000000" points="374.6776,-552.5 374.6776,-582.5 609.6776,-582.5 609.6776,-552.5 374.6776,-552.5"/>
<text text-anchor="start" x="381.6776" y="-563.9" font-family="Arial" font-size="14.00" fill="#000000">createat </text>
<text text-anchor="start" x="436.1404" y="-563.9" font-family="Arial" font-size="14.00" fill="#666666">[bigint]</text>
<polygon fill="none" stroke="#000000" points="374.6776,-522.5 374.6776,-552.5 609.6776,-552.5 609.6776,-522.5 374.6776,-522.5"/>
<text text-anchor="start" x="381.6776" y="-533.9" font-family="Arial" font-size="14.00" fill="#000000">updateat </text>
<text text-anchor="start" x="440.045" y="-533.9" font-family="Arial" font-size="14.00" fill="#666666">[bigint]</text>
<polygon fill="none" stroke="#000000" points="374.6776,-492.5 374.6776,-522.5 609.6776,-522.5 609.6776,-492.5 374.6776,-492.5"/>
<text text-anchor="start" x="381.6776" y="-503.9" font-family="Arial" font-size="14.00" fill="#000000">deleteat </text>
<text text-anchor="start" x="435.369" y="-503.9" font-family="Arial" font-size="14.00" fill="#666666">[bigint]</text>
<polygon fill="none" stroke="#000000" points="374.6776,-462.5 374.6776,-492.5 609.6776,-492.5 609.6776,-462.5 374.6776,-462.5"/>
<text text-anchor="start" x="381.6776" y="-473.9" font-family="Arial" font-size="14.00" fill="#000000">teamid </text>
<text text-anchor="start" x="427.5738" y="-473.9" font-family="Arial" font-size="14.00" fill="#666666">[varchar(26)]</text>
<polygon fill="none" stroke="#000000" points="374.6776,-432.5 374.6776,-462.5 609.6776,-462.5 609.6776,-432.5 374.6776,-432.5"/>
<text text-anchor="start" x="381.6776" y="-443.9" font-family="Arial" font-size="14.00" fill="#000000">type </text>
<text text-anchor="start" x="412.024" y="-443.9" font-family="Arial" font-size="14.00" fill="#666666">[channel_type]</text>
<polygon fill="none" stroke="#000000" points="374.6776,-402.5 374.6776,-432.5 609.6776,-432.5 609.6776,-402.5 374.6776,-402.5"/>
<text text-anchor="start" x="381.6776" y="-413.9" font-family="Arial" font-size="14.00" fill="#000000">displayname </text>
<text text-anchor="start" x="464.1376" y="-413.9" font-family="Arial" font-size="14.00" fill="#666666">[varchar(64)]</text>
<polygon fill="none" stroke="#000000" points="374.6776,-372.5 374.6776,-402.5 609.6776,-402.5 609.6776,-372.5 374.6776,-372.5"/>
<text text-anchor="start" x="381.6776" y="-383.9" font-family="Arial" font-size="14.00" fill="#000000">name </text>
<text text-anchor="start" x="420.5766" y="-383.9" font-family="Arial" font-size="14.00" fill="#666666">[varchar(64)]</text>
<polygon fill="none" stroke="#000000" points="374.6776,-342.5 374.6776,-372.5 609.6776,-372.5 609.6776,-342.5 374.6776,-342.5"/>
<text text-anchor="start" x="381.6776" y="-353.9" font-family="Arial" font-size="14.00" fill="#000000">header </text>
<text text-anchor="start" x="429.1418" y="-353.9" font-family="Arial" font-size="14.00" fill="#666666">[varchar(1024)]</text>
<polygon fill="none" stroke="#000000" points="374.6776,-312.5 374.6776,-342.5 609.6776,-342.5 609.6776,-312.5 374.6776,-312.5"/>
<text text-anchor="start" x="381.6776" y="-323.9" font-family="Arial" font-size="14.00" fill="#000000">purpose </text>
<text text-anchor="start" x="436.1418" y="-323.9" font-family="Arial" font-size="14.00" fill="#666666">[varchar(250)]</text>
<polygon fill="none" stroke="#000000" points="374.6776,-282.5 374.6776,-312.5 609.6776,-312.5 609.6776,-282.5 374.6776,-282.5"/>
<text text-anchor="start" x="381.6776" y="-293.9" font-family="Arial" font-size="14.00" fill="#000000">lastpostat </text>
<text text-anchor="start" x="445.477" y="-293.9" font-family="Arial" font-size="14.00" fill="#666666">[bigint]</text>
<polygon fill="none" stroke="#000000" points="374.6776,-252.5 374.6776,-282.5 609.6776,-282.5 609.6776,-252.5 374.6776,-252.5"/>
<text text-anchor="start" x="381.6776" y="-263.9" font-family="Arial" font-size="14.00" fill="#000000">totalmsgcount </text>
<text text-anchor="start" x="472.7028" y="-263.9" font-family="Arial" font-size="14.00" fill="#666666">[bigint]</text>
<polygon fill="none" stroke="#000000" points="374.6776,-222.5 374.6776,-252.5 609.6776,-252.5 609.6776,-222.5 374.6776,-222.5"/>
<text text-anchor="start" x="381.6776" y="-233.9" font-family="Arial" font-size="14.00" fill="#000000">extraupdateat </text>
<text text-anchor="start" x="471.1614" y="-233.9" font-family="Arial" font-size="14.00" fill="#666666">[bigint]</text>
<polygon fill="none" stroke="#000000" points="374.6776,-192.5 374.6776,-222.5 609.6776,-222.5 609.6776,-192.5 374.6776,-192.5"/>
<text text-anchor="start" x="381.6776" y="-203.9" font-family="Arial" font-size="14.00" fill="#000000">creatorid </text>
<text text-anchor="start" x="440.017" y="-203.9" font-family="Arial" font-size="14.00" fill="#666666">[varchar(26)]</text>
<polygon fill="none" stroke="#000000" points="374.6776,-162.5 374.6776,-192.5 609.6776,-192.5 609.6776,-162.5 374.6776,-162.5"/>
<text text-anchor="start" x="381.6776" y="-173.9" font-family="Arial" font-size="14.00" fill="#000000">schemeid </text>
<text text-anchor="start" x="445.4658" y="-173.9" font-family="Arial" font-size="14.00" fill="#666666">[varchar(26)]</text>
<polygon fill="none" stroke="#000000" points="374.6776,-132.5 374.6776,-162.5 609.6776,-162.5 609.6776,-132.5 374.6776,-132.5"/>
<text text-anchor="start" x="381.6776" y="-143.9" font-family="Arial" font-size="14.00" fill="#000000">groupconstrained </text>
<text text-anchor="start" x="493.7126" y="-143.9" font-family="Arial" font-size="14.00" fill="#666666">[boolean]</text>
<polygon fill="none" stroke="#000000" points="374.6776,-102.5 374.6776,-132.5 609.6776,-132.5 609.6776,-102.5 374.6776,-102.5"/>
<text text-anchor="start" x="381.6776" y="-113.9" font-family="Arial" font-size="14.00" fill="#000000">shared </text>
<text text-anchor="start" x="428.3592" y="-113.9" font-family="Arial" font-size="14.00" fill="#666666">[boolean]</text>
<polygon fill="none" stroke="#000000" points="374.6776,-72.5 374.6776,-102.5 609.6776,-102.5 609.6776,-72.5 374.6776,-72.5"/>
<text text-anchor="start" x="381.6776" y="-83.9" font-family="Arial" font-size="14.00" fill="#000000">totalmsgcountroot </text>
<text text-anchor="start" x="496.8192" y="-83.9" font-family="Arial" font-size="14.00" fill="#666666">[bigint]</text>
<polygon fill="none" stroke="#000000" points="374.6776,-42.5 374.6776,-72.5 609.6776,-72.5 609.6776,-42.5 374.6776,-42.5"/>
<text text-anchor="start" x="381.6776" y="-53.9" font-family="Arial" font-size="14.00" fill="#000000">lastrootpostat </text>
<text text-anchor="start" x="469.5934" y="-53.9" font-family="Arial" font-size="14.00" fill="#666666">[bigint]</text>
</g>
<!-- public.focalboard_boards_history&#45;&gt;public.channels -->
<g id="edge2" class="edge">
<title>public.focalboard_boards_history:channel_id&#45;&gt;public.channels:id</title>
<path fill="none" stroke="#000000" stroke-dasharray="5,2" d="M525.7654,-1237.2739C739.8995,-1227.5048 652.7535,-903.4713 515.6776,-727 476.0022,-675.9219 414.3531,-742.0781 374.6776,-691 349.1858,-658.1819 333.1221,-597.5 374.6776,-597.5"/>
<polygon fill="#000000" stroke="#000000" points="525.6751,-1237.2759 515.5768,-1233.0011 520.6764,-1237.3879 515.6776,-1237.5 515.6776,-1237.5 515.6776,-1237.5 520.6764,-1237.3879 515.7785,-1241.9989 525.6751,-1237.2759 525.6751,-1237.2759"/>
<text text-anchor="start" x="522.9456" y="-1247.5" font-family="Arial" font-size="10.00" fill="#000000">Detected Relation</text>
</g>
</g>
</svg>
