<?xml version="1.0" encoding="UTF-8" standalone="no"?>
<!DOCTYPE svg PUBLIC "-//W3C//DTD SVG 1.1//EN"
 "http://www.w3.org/Graphics/SVG/1.1/DTD/svg11.dtd">
<!-- Generated by graphviz version 2.40.1 (20161225.0304)
 -->
<!-- Title: public.groupmembers Pages: 1 -->
<svg width="384pt" height="255pt"
 viewBox="0.00 0.00 384.00 255.00" xmlns="http://www.w3.org/2000/svg" xmlns:xlink="http://www.w3.org/1999/xlink">
<g id="graph0" class="graph" transform="scale(1 1) rotate(0) translate(4 251)">
<title>public.groupmembers</title>
<polygon fill="#ffffff" stroke="transparent" points="-4,4 -4,-251 380,-251 380,4 -4,4"/>
<!-- public.groupmembers -->
<g id="node1" class="node">
<title>public.groupmembers</title>
<polygon fill="#efefef" stroke="transparent" points="46,-165.5 46,-200.5 330,-200.5 330,-165.5 46,-165.5"/>
<polygon fill="none" stroke="#000000" points="46,-165.5 46,-200.5 330,-200.5 330,-165.5 46,-165.5"/>
<text text-anchor="start" x="52.8624" y="-178.3" font-family="Arial Bold" font-size="18.00" fill="#000000">public.groupmembers</text>
<text text-anchor="start" x="225.8838" y="-178.3" font-family="Arial" font-size="14.00" fill="#000000"> </text>
<text text-anchor="start" x="229.7744" y="-178.3" font-family="Arial" font-size="14.00" fill="#666666">[BASE TABLE]</text>
<polygon fill="none" stroke="#000000" points="46,-135.5 46,-165.5 330,-165.5 330,-135.5 46,-135.5"/>
<text text-anchor="start" x="53" y="-146.9" font-family="Arial" font-size="14.00" fill="#000000">groupid </text>
<text text-anchor="start" x="103.5708" y="-146.9" font-family="Arial" font-size="14.00" fill="#666666">[varchar(26)]</text>
<polygon fill="none" stroke="#000000" points="46,-105.5 46,-135.5 330,-135.5 330,-105.5 46,-105.5"/>
<text text-anchor="start" x="53" y="-116.9" font-family="Arial" font-size="14.00" fill="#000000">userid </text>
<text text-anchor="start" x="95.0056" y="-116.9" font-family="Arial" font-size="14.00" fill="#666666">[varchar(26)]</text>
<polygon fill="none" stroke="#000000" points="46,-75.5 46,-105.5 330,-105.5 330,-75.5 46,-75.5"/>
<text text-anchor="start" x="53" y="-86.9" font-family="Arial" font-size="14.00" fill="#000000">createat </text>
<text text-anchor="start" x="107.4628" y="-86.9" font-family="Arial" font-size="14.00" fill="#666666">[bigint]</text>
<polygon fill="none" stroke="#000000" points="46,-45.5 46,-75.5 330,-75.5 330,-45.5 46,-45.5"/>
<text text-anchor="start" x="53" y="-56.9" font-family="Arial" font-size="14.00" fill="#000000">deleteat </text>
<text text-anchor="start" x="106.6914" y="-56.9" font-family="Arial" font-size="14.00" fill="#666666">[bigint]</text>
<polygon fill="none" stroke="#000000" stroke-width="3" points="44.5,-44.5 44.5,-202.5 331.5,-202.5 331.5,-44.5 44.5,-44.5"/>
</g>
</g>
</svg>
