<?xml version="1.0" encoding="UTF-8" standalone="no"?>
<!DOCTYPE svg PUBLIC "-//W3C//DTD SVG 1.1//EN"
 "http://www.w3.org/Graphics/SVG/1.1/DTD/svg11.dtd">
<!-- Generated by graphviz version 2.40.1 (20161225.0304)
 -->
<!-- Title: public.focalboard_subscriptions Pages: 1 -->
<svg width="462pt" height="375pt"
 viewBox="0.00 0.00 462.00 375.00" xmlns="http://www.w3.org/2000/svg" xmlns:xlink="http://www.w3.org/1999/xlink">
<g id="graph0" class="graph" transform="scale(1 1) rotate(0) translate(4 371)">
<title>public.focalboard_subscriptions</title>
<polygon fill="#ffffff" stroke="transparent" points="-4,4 -4,-371 458,-371 458,4 -4,4"/>
<!-- public.focalboard_subscriptions -->
<g id="node1" class="node">
<title>public.focalboard_subscriptions</title>
<polygon fill="#efefef" stroke="transparent" points="46,-285.5 46,-320.5 408,-320.5 408,-285.5 46,-285.5"/>
<polygon fill="none" stroke="#000000" points="46,-285.5 46,-320.5 408,-320.5 408,-285.5 46,-285.5"/>
<text text-anchor="start" x="52.8456" y="-298.3" font-family="Arial Bold" font-size="18.00" fill="#000000">public.focalboard_subscriptions</text>
<text text-anchor="start" x="303.9006" y="-298.3" font-family="Arial" font-size="14.00" fill="#000000"> </text>
<text text-anchor="start" x="307.7912" y="-298.3" font-family="Arial" font-size="14.00" fill="#666666">[BASE TABLE]</text>
<polygon fill="none" stroke="#000000" points="46,-255.5 46,-285.5 408,-285.5 408,-255.5 46,-255.5"/>
<text text-anchor="start" x="53" y="-266.9" font-family="Arial" font-size="14.00" fill="#000000">block_type </text>
<text text-anchor="start" x="123.8008" y="-266.9" font-family="Arial" font-size="14.00" fill="#666666">[varchar(10)]</text>
<polygon fill="none" stroke="#000000" points="46,-225.5 46,-255.5 408,-255.5 408,-225.5 46,-225.5"/>
<text text-anchor="start" x="53" y="-236.9" font-family="Arial" font-size="14.00" fill="#000000">block_id </text>
<text text-anchor="start" x="108.2342" y="-236.9" font-family="Arial" font-size="14.00" fill="#666666">[varchar(36)]</text>
<polygon fill="none" stroke="#000000" points="46,-195.5 46,-225.5 408,-225.5 408,-195.5 46,-195.5"/>
<text text-anchor="start" x="53" y="-206.9" font-family="Arial" font-size="14.00" fill="#000000">workspace_id </text>
<text text-anchor="start" x="142.46" y="-206.9" font-family="Arial" font-size="14.00" fill="#666666">[varchar(36)]</text>
<polygon fill="none" stroke="#000000" points="46,-165.5 46,-195.5 408,-195.5 408,-165.5 46,-165.5"/>
<text text-anchor="start" x="53" y="-176.9" font-family="Arial" font-size="14.00" fill="#000000">subscriber_type </text>
<text text-anchor="start" x="155.6872" y="-176.9" font-family="Arial" font-size="14.00" fill="#666666">[varchar(10)]</text>
<polygon fill="none" stroke="#000000" points="46,-135.5 46,-165.5 408,-165.5 408,-135.5 46,-135.5"/>
<text text-anchor="start" x="53" y="-146.9" font-family="Arial" font-size="14.00" fill="#000000">subscriber_id </text>
<text text-anchor="start" x="140.1206" y="-146.9" font-family="Arial" font-size="14.00" fill="#666666">[varchar(36)]</text>
<polygon fill="none" stroke="#000000" points="46,-105.5 46,-135.5 408,-135.5 408,-105.5 46,-105.5"/>
<text text-anchor="start" x="53" y="-116.9" font-family="Arial" font-size="14.00" fill="#000000">notified_at </text>
<text text-anchor="start" x="121.4712" y="-116.9" font-family="Arial" font-size="14.00" fill="#666666">[bigint]</text>
<polygon fill="none" stroke="#000000" points="46,-75.5 46,-105.5 408,-105.5 408,-75.5 46,-75.5"/>
<text text-anchor="start" x="53" y="-86.9" font-family="Arial" font-size="14.00" fill="#000000">create_at </text>
<text text-anchor="start" x="115.2454" y="-86.9" font-family="Arial" font-size="14.00" fill="#666666">[bigint]</text>
<polygon fill="none" stroke="#000000" points="46,-45.5 46,-75.5 408,-75.5 408,-45.5 46,-45.5"/>
<text text-anchor="start" x="53" y="-56.9" font-family="Arial" font-size="14.00" fill="#000000">delete_at </text>
<text text-anchor="start" x="114.474" y="-56.9" font-family="Arial" font-size="14.00" fill="#666666">[bigint]</text>
<polygon fill="none" stroke="#000000" stroke-width="3" points="44.5,-44.5 44.5,-322.5 409.5,-322.5 409.5,-44.5 44.5,-44.5"/>
</g>
</g>
</svg>
