<?xml version="1.0" encoding="UTF-8" standalone="no"?>
<!DOCTYPE svg PUBLIC "-//W3C//DTD SVG 1.1//EN"
 "http://www.w3.org/Graphics/SVG/1.1/DTD/svg11.dtd">
<!-- Generated by graphviz version 2.40.1 (20161225.0304)
 -->
<!-- Title: RemoteClusters Pages: 1 -->
<svg width="340pt" height="465pt"
 viewBox="0.00 0.00 340.00 465.00" xmlns="http://www.w3.org/2000/svg" xmlns:xlink="http://www.w3.org/1999/xlink">
<g id="graph0" class="graph" transform="scale(1 1) rotate(0) translate(4 461)">
<title>RemoteClusters</title>
<polygon fill="#ffffff" stroke="transparent" points="-4,4 -4,-461 336,-461 336,4 -4,4"/>
<!-- RemoteClusters -->
<g id="node1" class="node">
<title>RemoteClusters</title>
<polygon fill="#efefef" stroke="transparent" points="46,-375.5 46,-410.5 286,-410.5 286,-375.5 46,-375.5"/>
<polygon fill="none" stroke="#000000" points="46,-375.5 46,-410.5 286,-410.5 286,-375.5 46,-375.5"/>
<text text-anchor="start" x="52.8719" y="-388.3" font-family="Arial Bold" font-size="18.00" fill="#000000">RemoteClusters</text>
<text text-anchor="start" x="181.8743" y="-388.3" font-family="Arial" font-size="14.00" fill="#000000"> </text>
<text text-anchor="start" x="185.7649" y="-388.3" font-family="Arial" font-size="14.00" fill="#666666">[BASE TABLE]</text>
<polygon fill="none" stroke="#000000" points="46,-345.5 46,-375.5 286,-375.5 286,-345.5 46,-345.5"/>
<text text-anchor="start" x="53" y="-356.9" font-family="Arial" font-size="14.00" fill="#000000">RemoteId </text>
<text text-anchor="start" x="117.5694" y="-356.9" font-family="Arial" font-size="14.00" fill="#666666">[varchar(26)]</text>
<polygon fill="none" stroke="#000000" points="46,-315.5 46,-345.5 286,-345.5 286,-315.5 46,-315.5"/>
<text text-anchor="start" x="53" y="-326.9" font-family="Arial" font-size="14.00" fill="#000000">RemoteTeamId </text>
<text text-anchor="start" x="153.3478" y="-326.9" font-family="Arial" font-size="14.00" fill="#666666">[varchar(26)]</text>
<polygon fill="none" stroke="#000000" points="46,-285.5 46,-315.5 286,-315.5 286,-285.5 46,-285.5"/>
<text text-anchor="start" x="53" y="-296.9" font-family="Arial" font-size="14.00" fill="#000000">Name </text>
<text text-anchor="start" x="94.223" y="-296.9" font-family="Arial" font-size="14.00" fill="#666666">[varchar(64)]</text>
<polygon fill="none" stroke="#000000" points="46,-255.5 46,-285.5 286,-285.5 286,-255.5 46,-255.5"/>
<text text-anchor="start" x="53" y="-266.9" font-family="Arial" font-size="14.00" fill="#000000">DisplayName </text>
<text text-anchor="start" x="140.108" y="-266.9" font-family="Arial" font-size="14.00" fill="#666666">[varchar(64)]</text>
<polygon fill="none" stroke="#000000" points="46,-225.5 46,-255.5 286,-255.5 286,-225.5 46,-225.5"/>
<text text-anchor="start" x="53" y="-236.9" font-family="Arial" font-size="14.00" fill="#000000">SiteURL </text>
<text text-anchor="start" x="109.0028" y="-236.9" font-family="Arial" font-size="14.00" fill="#666666">[text]</text>
<polygon fill="none" stroke="#000000" points="46,-195.5 46,-225.5 286,-225.5 286,-195.5 46,-195.5"/>
<text text-anchor="start" x="53" y="-206.9" font-family="Arial" font-size="14.00" fill="#000000">CreateAt </text>
<text text-anchor="start" x="112.1234" y="-206.9" font-family="Arial" font-size="14.00" fill="#666666">[bigint(20)]</text>
<polygon fill="none" stroke="#000000" points="46,-165.5 46,-195.5 286,-195.5 286,-165.5 46,-165.5"/>
<text text-anchor="start" x="53" y="-176.9" font-family="Arial" font-size="14.00" fill="#000000">LastPingAt </text>
<text text-anchor="start" x="124.582" y="-176.9" font-family="Arial" font-size="14.00" fill="#666666">[bigint(20)]</text>
<polygon fill="none" stroke="#000000" points="46,-135.5 46,-165.5 286,-165.5 286,-135.5 46,-135.5"/>
<text text-anchor="start" x="53" y="-146.9" font-family="Arial" font-size="14.00" fill="#000000">Token </text>
<text text-anchor="start" x="95.791" y="-146.9" font-family="Arial" font-size="14.00" fill="#666666">[varchar(26)]</text>
<polygon fill="none" stroke="#000000" points="46,-105.5 46,-135.5 286,-135.5 286,-105.5 46,-105.5"/>
<text text-anchor="start" x="53" y="-116.9" font-family="Arial" font-size="14.00" fill="#000000">RemoteToken </text>
<text text-anchor="start" x="144.7966" y="-116.9" font-family="Arial" font-size="14.00" fill="#666666">[varchar(26)]</text>
<polygon fill="none" stroke="#000000" points="46,-75.5 46,-105.5 286,-105.5 286,-75.5 46,-75.5"/>
<text text-anchor="start" x="53" y="-86.9" font-family="Arial" font-size="14.00" fill="#000000">Topics </text>
<text text-anchor="start" x="98.115" y="-86.9" font-family="Arial" font-size="14.00" fill="#666666">[text]</text>
<polygon fill="none" stroke="#000000" points="46,-45.5 46,-75.5 286,-75.5 286,-45.5 46,-45.5"/>
<text text-anchor="start" x="53" y="-56.9" font-family="Arial" font-size="14.00" fill="#000000">CreatorId </text>
<text text-anchor="start" x="115.23" y="-56.9" font-family="Arial" font-size="14.00" fill="#666666">[varchar(26)]</text>
<polygon fill="none" stroke="#000000" stroke-width="3" points="44.5,-44.5 44.5,-412.5 287.5,-412.5 287.5,-44.5 44.5,-44.5"/>
</g>
</g>
</svg>
