<?xml version="1.0" encoding="UTF-8" standalone="no"?>
<!DOCTYPE svg PUBLIC "-//W3C//DTD SVG 1.1//EN"
 "http://www.w3.org/Graphics/SVG/1.1/DTD/svg11.dtd">
<!-- Generated by graphviz version 2.40.1 (20161225.0304)
 -->
<!-- Title: RetentionPolicies Pages: 1 -->
<svg width="830pt" height="442pt"
 viewBox="0.00 0.00 829.50 442.00" xmlns="http://www.w3.org/2000/svg" xmlns:xlink="http://www.w3.org/1999/xlink">
<g id="graph0" class="graph" transform="scale(1 1) rotate(0) translate(4 438)">
<title>RetentionPolicies</title>
<polygon fill="#ffffff" stroke="transparent" points="-4,4 -4,-438 825.5,-438 825.5,4 -4,4"/>
<!-- RetentionPolicies -->
<g id="node1" class="node">
<title>RetentionPolicies</title>
<polygon fill="#efefef" stroke="transparent" points="291,-135.5 291,-170.5 541,-170.5 541,-135.5 291,-135.5"/>
<polygon fill="none" stroke="#000000" points="291,-135.5 291,-170.5 541,-170.5 541,-135.5 291,-135.5"/>
<text text-anchor="start" x="297.8616" y="-148.3" font-family="Arial Bold" font-size="18.00" fill="#000000">RetentionPolicies</text>
<text text-anchor="start" x="436.8846" y="-148.3" font-family="Arial" font-size="14.00" fill="#000000"> </text>
<text text-anchor="start" x="440.7752" y="-148.3" font-family="Arial" font-size="14.00" fill="#666666">[BASE TABLE]</text>
<polygon fill="none" stroke="#000000" points="291,-105.5 291,-135.5 541,-135.5 541,-105.5 291,-105.5"/>
<text text-anchor="start" x="298" y="-116.9" font-family="Arial" font-size="14.00" fill="#000000">Id </text>
<text text-anchor="start" x="313.5638" y="-116.9" font-family="Arial" font-size="14.00" fill="#666666">[varchar(26)]</text>
<polygon fill="none" stroke="#000000" points="291,-75.5 291,-105.5 541,-105.5 541,-75.5 291,-75.5"/>
<text text-anchor="start" x="298" y="-86.9" font-family="Arial" font-size="14.00" fill="#000000">DisplayName </text>
<text text-anchor="start" x="385.108" y="-86.9" font-family="Arial" font-size="14.00" fill="#666666">[varchar(64)]</text>
<polygon fill="none" stroke="#000000" points="291,-45.5 291,-75.5 541,-75.5 541,-45.5 291,-45.5"/>
<text text-anchor="start" x="298" y="-56.9" font-family="Arial" font-size="14.00" fill="#000000">PostDuration </text>
<text text-anchor="start" x="382.7952" y="-56.9" font-family="Arial" font-size="14.00" fill="#666666">[bigint(20)]</text>
<polygon fill="none" stroke="#000000" stroke-width="3" points="289.5,-44.5 289.5,-172.5 542.5,-172.5 542.5,-44.5 289.5,-44.5"/>
</g>
<!-- RetentionPoliciesChannels -->
<g id="node2" class="node">
<title>RetentionPoliciesChannels</title>
<polygon fill="#efefef" stroke="transparent" points="43,-355.5 43,-390.5 369,-390.5 369,-355.5 43,-355.5"/>
<polygon fill="none" stroke="#000000" points="43,-355.5 43,-390.5 369,-390.5 369,-355.5 43,-355.5"/>
<text text-anchor="start" x="49.8519" y="-368.3" font-family="Arial Bold" font-size="18.00" fill="#000000">RetentionPoliciesChannels</text>
<text text-anchor="start" x="264.8943" y="-368.3" font-family="Arial" font-size="14.00" fill="#000000"> </text>
<text text-anchor="start" x="268.7849" y="-368.3" font-family="Arial" font-size="14.00" fill="#666666">[BASE TABLE]</text>
<polygon fill="none" stroke="#000000" points="43,-325.5 43,-355.5 369,-355.5 369,-325.5 43,-325.5"/>
<text text-anchor="start" x="50" y="-336.9" font-family="Arial" font-size="14.00" fill="#000000">PolicyId </text>
<text text-anchor="start" x="102.8962" y="-336.9" font-family="Arial" font-size="14.00" fill="#666666">[varchar(26)]</text>
<polygon fill="none" stroke="#000000" points="43,-295.5 43,-325.5 369,-325.5 369,-295.5 43,-295.5"/>
<text text-anchor="start" x="50" y="-306.9" font-family="Arial" font-size="14.00" fill="#000000">ChannelId </text>
<text text-anchor="start" x="117.69" y="-306.9" font-family="Arial" font-size="14.00" fill="#666666">[varchar(26)]</text>
</g>
<!-- RetentionPoliciesChannels&#45;&gt;RetentionPolicies -->
<g id="edge1" class="edge">
<title>RetentionPoliciesChannels:PolicyId&#45;&gt;RetentionPolicies:Id</title>
<path fill="none" stroke="#000000" d="M379.1471,-338.8864C404.2157,-329.6072 387.8306,-282.4306 369,-253 348.4223,-220.8389 311.5777,-249.1611 291,-217 267.8849,-180.8732 248.1111,-120.5 291,-120.5"/>
<polygon fill="#000000" stroke="#000000" points="378.8759,-338.9294 368.2932,-336.0558 373.938,-339.7147 369,-340.5 369,-340.5 369,-340.5 373.938,-339.7147 369.7068,-344.9442 378.8759,-338.9294 378.8759,-338.9294"/>
<text text-anchor="start" x="376.161" y="-350.5" font-family="Arial" font-size="10.00" fill="#000000">FOREIGN KEY (PolicyId) REFERENCES RetentionPolicies (Id)</text>
</g>
<!-- RetentionPoliciesTeams -->
<g id="node3" class="node">
<title>RetentionPoliciesTeams</title>
<polygon fill="#efefef" stroke="transparent" points="474,-355.5 474,-390.5 779,-390.5 779,-355.5 474,-355.5"/>
<polygon fill="none" stroke="#000000" points="474,-355.5 474,-390.5 779,-390.5 779,-355.5 474,-355.5"/>
<text text-anchor="start" x="480.8612" y="-368.3" font-family="Arial Bold" font-size="18.00" fill="#000000">RetentionPoliciesTeams</text>
<text text-anchor="start" x="674.885" y="-368.3" font-family="Arial" font-size="14.00" fill="#000000"> </text>
<text text-anchor="start" x="678.7756" y="-368.3" font-family="Arial" font-size="14.00" fill="#666666">[BASE TABLE]</text>
<polygon fill="none" stroke="#000000" points="474,-325.5 474,-355.5 779,-355.5 779,-325.5 474,-325.5"/>
<text text-anchor="start" x="481" y="-336.9" font-family="Arial" font-size="14.00" fill="#000000">PolicyId </text>
<text text-anchor="start" x="533.8962" y="-336.9" font-family="Arial" font-size="14.00" fill="#666666">[varchar(26)]</text>
<polygon fill="none" stroke="#000000" points="474,-295.5 474,-325.5 779,-325.5 779,-295.5 474,-295.5"/>
<text text-anchor="start" x="481" y="-306.9" font-family="Arial" font-size="14.00" fill="#000000">TeamId </text>
<text text-anchor="start" x="532.3422" y="-306.9" font-family="Arial" font-size="14.00" fill="#666666">[varchar(26)]</text>
</g>
<!-- RetentionPoliciesTeams&#45;&gt;RetentionPolicies -->
<g id="edge2" class="edge">
<title>RetentionPoliciesTeams:PolicyId&#45;&gt;RetentionPolicies:Id</title>
<path fill="none" stroke="#000000" d="M463.8808,-338.9036C438.9673,-329.7204 456.0703,-282.9879 474,-253 491.3472,-223.9864 523.6528,-246.0136 541,-217 563.0092,-180.189 583.8889,-120.5 541,-120.5"/>
<polygon fill="#000000" stroke="#000000" points="464.1222,-338.9416 473.2987,-344.945 469.0611,-339.7208 474,-340.5 474,-340.5 474,-340.5 469.0611,-339.7208 474.7013,-336.055 464.1222,-338.9416 464.1222,-338.9416"/>
<text text-anchor="start" x="481.161" y="-324.5" font-family="Arial" font-size="10.00" fill="#000000">FOREIGN KEY (PolicyId) REFERENCES RetentionPolicies (Id)</text>
</g>
</g>
</svg>
