<?xml version="1.0" encoding="UTF-8" standalone="no"?>
<!DOCTYPE svg PUBLIC "-//W3C//DTD SVG 1.1//EN"
 "http://www.w3.org/Graphics/SVG/1.1/DTD/svg11.dtd">
<!-- Generated by graphviz version 2.40.1 (20161225.0304)
 -->
<!-- Title: RetentionPoliciesChannels Pages: 1 -->
<svg width="675pt" height="442pt"
 viewBox="0.00 0.00 675.00 442.00" xmlns="http://www.w3.org/2000/svg" xmlns:xlink="http://www.w3.org/1999/xlink">
<g id="graph0" class="graph" transform="scale(1 1) rotate(0) translate(4 438)">
<title>RetentionPoliciesChannels</title>
<polygon fill="#ffffff" stroke="transparent" points="-4,4 -4,-438 671,-438 671,4 -4,4"/>
<!-- RetentionPoliciesChannels -->
<g id="node1" class="node">
<title>RetentionPoliciesChannels</title>
<polygon fill="#efefef" stroke="transparent" points="46,-352.5 46,-387.5 372,-387.5 372,-352.5 46,-352.5"/>
<polygon fill="none" stroke="#000000" points="46,-352.5 46,-387.5 372,-387.5 372,-352.5 46,-352.5"/>
<text text-anchor="start" x="52.8519" y="-365.3" font-family="Arial Bold" font-size="18.00" fill="#000000">RetentionPoliciesChannels</text>
<text text-anchor="start" x="267.8943" y="-365.3" font-family="Arial" font-size="14.00" fill="#000000"> </text>
<text text-anchor="start" x="271.7849" y="-365.3" font-family="Arial" font-size="14.00" fill="#666666">[BASE TABLE]</text>
<polygon fill="none" stroke="#000000" points="46,-322.5 46,-352.5 372,-352.5 372,-322.5 46,-322.5"/>
<text text-anchor="start" x="53" y="-333.9" font-family="Arial" font-size="14.00" fill="#000000">PolicyId </text>
<text text-anchor="start" x="105.8962" y="-333.9" font-family="Arial" font-size="14.00" fill="#666666">[varchar(26)]</text>
<polygon fill="none" stroke="#000000" points="46,-292.5 46,-322.5 372,-322.5 372,-292.5 46,-292.5"/>
<text text-anchor="start" x="53" y="-303.9" font-family="Arial" font-size="14.00" fill="#000000">ChannelId </text>
<text text-anchor="start" x="120.69" y="-303.9" font-family="Arial" font-size="14.00" fill="#666666">[varchar(26)]</text>
<polygon fill="none" stroke="#000000" stroke-width="3" points="44.5,-291.5 44.5,-389.5 373.5,-389.5 373.5,-291.5 44.5,-291.5"/>
</g>
<!-- RetentionPolicies -->
<g id="node2" class="node">
<title>RetentionPolicies</title>
<polygon fill="#efefef" stroke="transparent" points="84,-132.5 84,-167.5 334,-167.5 334,-132.5 84,-132.5"/>
<polygon fill="none" stroke="#000000" points="84,-132.5 84,-167.5 334,-167.5 334,-132.5 84,-132.5"/>
<text text-anchor="start" x="90.8616" y="-145.3" font-family="Arial Bold" font-size="18.00" fill="#000000">RetentionPolicies</text>
<text text-anchor="start" x="229.8846" y="-145.3" font-family="Arial" font-size="14.00" fill="#000000"> </text>
<text text-anchor="start" x="233.7752" y="-145.3" font-family="Arial" font-size="14.00" fill="#666666">[BASE TABLE]</text>
<polygon fill="none" stroke="#000000" points="84,-102.5 84,-132.5 334,-132.5 334,-102.5 84,-102.5"/>
<text text-anchor="start" x="91" y="-113.9" font-family="Arial" font-size="14.00" fill="#000000">Id </text>
<text text-anchor="start" x="106.5638" y="-113.9" font-family="Arial" font-size="14.00" fill="#666666">[varchar(26)]</text>
<polygon fill="none" stroke="#000000" points="84,-72.5 84,-102.5 334,-102.5 334,-72.5 84,-72.5"/>
<text text-anchor="start" x="91" y="-83.9" font-family="Arial" font-size="14.00" fill="#000000">DisplayName </text>
<text text-anchor="start" x="178.108" y="-83.9" font-family="Arial" font-size="14.00" fill="#666666">[varchar(64)]</text>
<polygon fill="none" stroke="#000000" points="84,-42.5 84,-72.5 334,-72.5 334,-42.5 84,-42.5"/>
<text text-anchor="start" x="91" y="-53.9" font-family="Arial" font-size="14.00" fill="#000000">PostDuration </text>
<text text-anchor="start" x="175.7952" y="-53.9" font-family="Arial" font-size="14.00" fill="#666666">[bigint(20)]</text>
</g>
<!-- RetentionPoliciesChannels&#45;&gt;RetentionPolicies -->
<g id="edge1" class="edge">
<title>RetentionPoliciesChannels:PolicyId&#45;&gt;RetentionPolicies:Id</title>
<path fill="none" stroke="#000000" d="M382.222,-336.6591C468.3996,-321.8888 429.6403,-117.5 334,-117.5"/>
<polygon fill="#000000" stroke="#000000" points="381.9663,-336.68 371.631,-333.0152 376.9832,-337.09 372,-337.5 372,-337.5 372,-337.5 376.9832,-337.09 372.369,-341.9848 381.9663,-336.68 381.9663,-336.68"/>
<text text-anchor="start" x="379.161" y="-347.5" font-family="Arial" font-size="10.00" fill="#000000">FOREIGN KEY (PolicyId) REFERENCES RetentionPolicies (Id)</text>
</g>
</g>
</svg>
