<?xml version="1.0" encoding="UTF-8" standalone="no"?>
<!DOCTYPE svg PUBLIC "-//W3C//DTD SVG 1.1//EN"
 "http://www.w3.org/Graphics/SVG/1.1/DTD/svg11.dtd">
<!-- Generated by graphviz version 2.40.1 (20161225.0304)
 -->
<!-- Title: RetentionPoliciesTeams Pages: 1 -->
<svg width="655pt" height="442pt"
 viewBox="0.00 0.00 654.50 442.00" xmlns="http://www.w3.org/2000/svg" xmlns:xlink="http://www.w3.org/1999/xlink">
<g id="graph0" class="graph" transform="scale(1 1) rotate(0) translate(4 438)">
<title>RetentionPoliciesTeams</title>
<polygon fill="#ffffff" stroke="transparent" points="-4,4 -4,-438 650.5,-438 650.5,4 -4,4"/>
<!-- RetentionPoliciesTeams -->
<g id="node1" class="node">
<title>RetentionPoliciesTeams</title>
<polygon fill="#efefef" stroke="transparent" points="46.5,-352.5 46.5,-387.5 351.5,-387.5 351.5,-352.5 46.5,-352.5"/>
<polygon fill="none" stroke="#000000" points="46.5,-352.5 46.5,-387.5 351.5,-387.5 351.5,-352.5 46.5,-352.5"/>
<text text-anchor="start" x="53.3612" y="-365.3" font-family="Arial Bold" font-size="18.00" fill="#000000">RetentionPoliciesTeams</text>
<text text-anchor="start" x="247.385" y="-365.3" font-family="Arial" font-size="14.00" fill="#000000"> </text>
<text text-anchor="start" x="251.2756" y="-365.3" font-family="Arial" font-size="14.00" fill="#666666">[BASE TABLE]</text>
<polygon fill="none" stroke="#000000" points="46.5,-322.5 46.5,-352.5 351.5,-352.5 351.5,-322.5 46.5,-322.5"/>
<text text-anchor="start" x="53.5" y="-333.9" font-family="Arial" font-size="14.00" fill="#000000">PolicyId </text>
<text text-anchor="start" x="106.3962" y="-333.9" font-family="Arial" font-size="14.00" fill="#666666">[varchar(26)]</text>
<polygon fill="none" stroke="#000000" points="46.5,-292.5 46.5,-322.5 351.5,-322.5 351.5,-292.5 46.5,-292.5"/>
<text text-anchor="start" x="53.5" y="-303.9" font-family="Arial" font-size="14.00" fill="#000000">TeamId </text>
<text text-anchor="start" x="104.8422" y="-303.9" font-family="Arial" font-size="14.00" fill="#666666">[varchar(26)]</text>
<polygon fill="none" stroke="#000000" stroke-width="3" points="44.5,-291.5 44.5,-389.5 352.5,-389.5 352.5,-291.5 44.5,-291.5"/>
</g>
<!-- RetentionPolicies -->
<g id="node2" class="node">
<title>RetentionPolicies</title>
<polygon fill="#efefef" stroke="transparent" points="74.5,-132.5 74.5,-167.5 324.5,-167.5 324.5,-132.5 74.5,-132.5"/>
<polygon fill="none" stroke="#000000" points="74.5,-132.5 74.5,-167.5 324.5,-167.5 324.5,-132.5 74.5,-132.5"/>
<text text-anchor="start" x="81.3616" y="-145.3" font-family="Arial Bold" font-size="18.00" fill="#000000">RetentionPolicies</text>
<text text-anchor="start" x="220.3846" y="-145.3" font-family="Arial" font-size="14.00" fill="#000000"> </text>
<text text-anchor="start" x="224.2752" y="-145.3" font-family="Arial" font-size="14.00" fill="#666666">[BASE TABLE]</text>
<polygon fill="none" stroke="#000000" points="74.5,-102.5 74.5,-132.5 324.5,-132.5 324.5,-102.5 74.5,-102.5"/>
<text text-anchor="start" x="81.5" y="-113.9" font-family="Arial" font-size="14.00" fill="#000000">Id </text>
<text text-anchor="start" x="97.0638" y="-113.9" font-family="Arial" font-size="14.00" fill="#666666">[varchar(26)]</text>
<polygon fill="none" stroke="#000000" points="74.5,-72.5 74.5,-102.5 324.5,-102.5 324.5,-72.5 74.5,-72.5"/>
<text text-anchor="start" x="81.5" y="-83.9" font-family="Arial" font-size="14.00" fill="#000000">DisplayName </text>
<text text-anchor="start" x="168.608" y="-83.9" font-family="Arial" font-size="14.00" fill="#666666">[varchar(64)]</text>
<polygon fill="none" stroke="#000000" points="74.5,-42.5 74.5,-72.5 324.5,-72.5 324.5,-42.5 74.5,-42.5"/>
<text text-anchor="start" x="81.5" y="-53.9" font-family="Arial" font-size="14.00" fill="#000000">PostDuration </text>
<text text-anchor="start" x="166.2952" y="-53.9" font-family="Arial" font-size="14.00" fill="#666666">[bigint(20)]</text>
</g>
<!-- RetentionPoliciesTeams&#45;&gt;RetentionPolicies -->
<g id="edge1" class="edge">
<title>RetentionPoliciesTeams:PolicyId&#45;&gt;RetentionPolicies:Id</title>
<path fill="none" stroke="#000000" d="M361.4251,-335.985C389.0447,-326.4615 375.5568,-274.3856 351.5,-247 269.5671,-153.7297 156.4329,-304.2703 74.5,-211 47.0746,-179.7796 32.9444,-117.5 74.5,-117.5"/>
<polygon fill="#000000" stroke="#000000" points="361.3855,-335.991 350.8209,-333.0515 356.4427,-336.7455 351.5,-337.5 351.5,-337.5 351.5,-337.5 356.4427,-336.7455 352.1791,-341.9485 361.3855,-335.991 361.3855,-335.991"/>
<text text-anchor="start" x="358.661" y="-347.5" font-family="Arial" font-size="10.00" fill="#000000">FOREIGN KEY (PolicyId) REFERENCES RetentionPolicies (Id)</text>
</g>
</g>
</svg>
