<?xml version="1.0" encoding="UTF-8" standalone="no"?>
<!DOCTYPE svg PUBLIC "-//W3C//DTD SVG 1.1//EN"
 "http://www.w3.org/Graphics/SVG/1.1/DTD/svg11.dtd">
<!-- Generated by graphviz version 2.40.1 (20161225.0304)
 -->
<!-- Title: Schemes Pages: 1 -->
<svg width="379pt" height="675pt"
 viewBox="0.00 0.00 379.00 675.00" xmlns="http://www.w3.org/2000/svg" xmlns:xlink="http://www.w3.org/1999/xlink">
<g id="graph0" class="graph" transform="scale(1 1) rotate(0) translate(4 671)">
<title>Schemes</title>
<polygon fill="#ffffff" stroke="transparent" points="-4,4 -4,-671 375,-671 375,4 -4,4"/>
<!-- Schemes -->
<g id="node1" class="node">
<title>Schemes</title>
<polygon fill="#efefef" stroke="transparent" points="46.5,-585.5 46.5,-620.5 325.5,-620.5 325.5,-585.5 46.5,-585.5"/>
<polygon fill="none" stroke="#000000" points="46.5,-585.5 46.5,-620.5 325.5,-620.5 325.5,-585.5 46.5,-585.5"/>
<text text-anchor="start" x="99.8656" y="-598.3" font-family="Arial Bold" font-size="18.00" fill="#000000">Schemes</text>
<text text-anchor="start" x="174.8806" y="-598.3" font-family="Arial" font-size="14.00" fill="#000000"> </text>
<text text-anchor="start" x="178.7712" y="-598.3" font-family="Arial" font-size="14.00" fill="#666666">[BASE TABLE]</text>
<polygon fill="none" stroke="#000000" points="46.5,-555.5 46.5,-585.5 325.5,-585.5 325.5,-555.5 46.5,-555.5"/>
<text text-anchor="start" x="53.5" y="-566.9" font-family="Arial" font-size="14.00" fill="#000000">Id </text>
<text text-anchor="start" x="69.0638" y="-566.9" font-family="Arial" font-size="14.00" fill="#666666">[varchar(26)]</text>
<polygon fill="none" stroke="#000000" points="46.5,-525.5 46.5,-555.5 325.5,-555.5 325.5,-525.5 46.5,-525.5"/>
<text text-anchor="start" x="53.5" y="-536.9" font-family="Arial" font-size="14.00" fill="#000000">Name </text>
<text text-anchor="start" x="94.723" y="-536.9" font-family="Arial" font-size="14.00" fill="#666666">[varchar(64)]</text>
<polygon fill="none" stroke="#000000" points="46.5,-495.5 46.5,-525.5 325.5,-525.5 325.5,-495.5 46.5,-495.5"/>
<text text-anchor="start" x="53.5" y="-506.9" font-family="Arial" font-size="14.00" fill="#000000">DisplayName </text>
<text text-anchor="start" x="140.608" y="-506.9" font-family="Arial" font-size="14.00" fill="#666666">[varchar(128)]</text>
<polygon fill="none" stroke="#000000" points="46.5,-465.5 46.5,-495.5 325.5,-495.5 325.5,-465.5 46.5,-465.5"/>
<text text-anchor="start" x="53.5" y="-476.9" font-family="Arial" font-size="14.00" fill="#000000">Description </text>
<text text-anchor="start" x="127.392" y="-476.9" font-family="Arial" font-size="14.00" fill="#666666">[text]</text>
<polygon fill="none" stroke="#000000" points="46.5,-435.5 46.5,-465.5 325.5,-465.5 325.5,-435.5 46.5,-435.5"/>
<text text-anchor="start" x="53.5" y="-446.9" font-family="Arial" font-size="14.00" fill="#000000">CreateAt </text>
<text text-anchor="start" x="112.6234" y="-446.9" font-family="Arial" font-size="14.00" fill="#666666">[bigint(20)]</text>
<polygon fill="none" stroke="#000000" points="46.5,-405.5 46.5,-435.5 325.5,-435.5 325.5,-405.5 46.5,-405.5"/>
<text text-anchor="start" x="53.5" y="-416.9" font-family="Arial" font-size="14.00" fill="#000000">UpdateAt </text>
<text text-anchor="start" x="115.7454" y="-416.9" font-family="Arial" font-size="14.00" fill="#666666">[bigint(20)]</text>
<polygon fill="none" stroke="#000000" points="46.5,-375.5 46.5,-405.5 325.5,-405.5 325.5,-375.5 46.5,-375.5"/>
<text text-anchor="start" x="53.5" y="-386.9" font-family="Arial" font-size="14.00" fill="#000000">DeleteAt </text>
<text text-anchor="start" x="111.0694" y="-386.9" font-family="Arial" font-size="14.00" fill="#666666">[bigint(20)]</text>
<polygon fill="none" stroke="#000000" points="46.5,-345.5 46.5,-375.5 325.5,-375.5 325.5,-345.5 46.5,-345.5"/>
<text text-anchor="start" x="53.5" y="-356.9" font-family="Arial" font-size="14.00" fill="#000000">Scope </text>
<text text-anchor="start" x="97.075" y="-356.9" font-family="Arial" font-size="14.00" fill="#666666">[varchar(32)]</text>
<polygon fill="none" stroke="#000000" points="46.5,-315.5 46.5,-345.5 325.5,-345.5 325.5,-315.5 46.5,-315.5"/>
<text text-anchor="start" x="53.5" y="-326.9" font-family="Arial" font-size="14.00" fill="#000000">DefaultTeamAdminRole </text>
<text text-anchor="start" x="205.9586" y="-326.9" font-family="Arial" font-size="14.00" fill="#666666">[varchar(64)]</text>
<polygon fill="none" stroke="#000000" points="46.5,-285.5 46.5,-315.5 325.5,-315.5 325.5,-285.5 46.5,-285.5"/>
<text text-anchor="start" x="53.5" y="-296.9" font-family="Arial" font-size="14.00" fill="#000000">DefaultTeamUserRole </text>
<text text-anchor="start" x="195.8394" y="-296.9" font-family="Arial" font-size="14.00" fill="#666666">[varchar(64)]</text>
<polygon fill="none" stroke="#000000" points="46.5,-255.5 46.5,-285.5 325.5,-285.5 325.5,-255.5 46.5,-255.5"/>
<text text-anchor="start" x="53.5" y="-266.9" font-family="Arial" font-size="14.00" fill="#000000">DefaultChannelAdminRole </text>
<text text-anchor="start" x="222.3064" y="-266.9" font-family="Arial" font-size="14.00" fill="#666666">[varchar(64)]</text>
<polygon fill="none" stroke="#000000" points="46.5,-225.5 46.5,-255.5 325.5,-255.5 325.5,-225.5 46.5,-225.5"/>
<text text-anchor="start" x="53.5" y="-236.9" font-family="Arial" font-size="14.00" fill="#000000">DefaultChannelUserRole </text>
<text text-anchor="start" x="212.1872" y="-236.9" font-family="Arial" font-size="14.00" fill="#666666">[varchar(64)]</text>
<polygon fill="none" stroke="#000000" points="46.5,-195.5 46.5,-225.5 325.5,-225.5 325.5,-195.5 46.5,-195.5"/>
<text text-anchor="start" x="53.5" y="-206.9" font-family="Arial" font-size="14.00" fill="#000000">DefaultTeamGuestRole </text>
<text text-anchor="start" x="203.636" y="-206.9" font-family="Arial" font-size="14.00" fill="#666666">[varchar(64)]</text>
<polygon fill="none" stroke="#000000" points="46.5,-165.5 46.5,-195.5 325.5,-195.5 325.5,-165.5 46.5,-165.5"/>
<text text-anchor="start" x="53.5" y="-176.9" font-family="Arial" font-size="14.00" fill="#000000">DefaultChannelGuestRole </text>
<text text-anchor="start" x="219.9838" y="-176.9" font-family="Arial" font-size="14.00" fill="#666666">[varchar(64)]</text>
<polygon fill="none" stroke="#000000" points="46.5,-135.5 46.5,-165.5 325.5,-165.5 325.5,-135.5 46.5,-135.5"/>
<text text-anchor="start" x="53.5" y="-146.9" font-family="Arial" font-size="14.00" fill="#000000">DefaultPlaybookAdminRole </text>
<text text-anchor="start" x="227.7538" y="-146.9" font-family="Arial" font-size="14.00" fill="#666666">[varchar(64)]</text>
<polygon fill="none" stroke="#000000" points="46.5,-105.5 46.5,-135.5 325.5,-135.5 325.5,-105.5 46.5,-105.5"/>
<text text-anchor="start" x="53.3745" y="-116.9" font-family="Arial" font-size="14.00" fill="#000000">DefaultPlaybookMemberRole </text>
<text text-anchor="start" x="239.2889" y="-116.9" font-family="Arial" font-size="14.00" fill="#666666">[varchar(64)]</text>
<polygon fill="none" stroke="#000000" points="46.5,-75.5 46.5,-105.5 325.5,-105.5 325.5,-75.5 46.5,-75.5"/>
<text text-anchor="start" x="53.5" y="-86.9" font-family="Arial" font-size="14.00" fill="#000000">DefaultRunAdminRole </text>
<text text-anchor="start" x="195.852" y="-86.9" font-family="Arial" font-size="14.00" fill="#666666">[varchar(64)]</text>
<polygon fill="none" stroke="#000000" points="46.5,-45.5 46.5,-75.5 325.5,-75.5 325.5,-45.5 46.5,-45.5"/>
<text text-anchor="start" x="53.5" y="-56.9" font-family="Arial" font-size="14.00" fill="#000000">DefaultRunMemberRole </text>
<text text-anchor="start" x="207.5126" y="-56.9" font-family="Arial" font-size="14.00" fill="#666666">[varchar(64)]</text>
<polygon fill="none" stroke="#000000" stroke-width="3" points="44.5,-44.5 44.5,-622.5 326.5,-622.5 326.5,-44.5 44.5,-44.5"/>
</g>
</g>
</svg>
