<?xml version="1.0" encoding="UTF-8" standalone="no"?>
<!DOCTYPE svg PUBLIC "-//W3C//DTD SVG 1.1//EN"
 "http://www.w3.org/Graphics/SVG/1.1/DTD/svg11.dtd">
<!-- Generated by graphviz version 2.40.1 (20161225.0304)
 -->
<!-- Title: Sessions Pages: 1 -->
<svg width="284pt" height="465pt"
 viewBox="0.00 0.00 284.00 465.00" xmlns="http://www.w3.org/2000/svg" xmlns:xlink="http://www.w3.org/1999/xlink">
<g id="graph0" class="graph" transform="scale(1 1) rotate(0) translate(4 461)">
<title>Sessions</title>
<polygon fill="#ffffff" stroke="transparent" points="-4,4 -4,-461 280,-461 280,4 -4,4"/>
<!-- Sessions -->
<g id="node1" class="node">
<title>Sessions</title>
<polygon fill="#efefef" stroke="transparent" points="46,-375.5 46,-410.5 230,-410.5 230,-375.5 46,-375.5"/>
<polygon fill="none" stroke="#000000" points="46,-375.5 46,-410.5 230,-410.5 230,-375.5 46,-375.5"/>
<text text-anchor="start" x="52.8646" y="-388.3" font-family="Arial Bold" font-size="18.00" fill="#000000">Sessions</text>
<text text-anchor="start" x="125.8816" y="-388.3" font-family="Arial" font-size="14.00" fill="#000000"> </text>
<text text-anchor="start" x="129.7722" y="-388.3" font-family="Arial" font-size="14.00" fill="#666666">[BASE TABLE]</text>
<polygon fill="none" stroke="#000000" points="46,-345.5 46,-375.5 230,-375.5 230,-345.5 46,-345.5"/>
<text text-anchor="start" x="53" y="-356.9" font-family="Arial" font-size="14.00" fill="#000000">Id </text>
<text text-anchor="start" x="68.5638" y="-356.9" font-family="Arial" font-size="14.00" fill="#666666">[varchar(26)]</text>
<polygon fill="none" stroke="#000000" points="46,-315.5 46,-345.5 230,-345.5 230,-315.5 46,-315.5"/>
<text text-anchor="start" x="53" y="-326.9" font-family="Arial" font-size="14.00" fill="#000000">Token </text>
<text text-anchor="start" x="95.791" y="-326.9" font-family="Arial" font-size="14.00" fill="#666666">[varchar(26)]</text>
<polygon fill="none" stroke="#000000" points="46,-285.5 46,-315.5 230,-315.5 230,-285.5 46,-285.5"/>
<text text-anchor="start" x="53" y="-296.9" font-family="Arial" font-size="14.00" fill="#000000">CreateAt </text>
<text text-anchor="start" x="112.1234" y="-296.9" font-family="Arial" font-size="14.00" fill="#666666">[bigint(20)]</text>
<polygon fill="none" stroke="#000000" points="46,-255.5 46,-285.5 230,-285.5 230,-255.5 46,-255.5"/>
<text text-anchor="start" x="53" y="-266.9" font-family="Arial" font-size="14.00" fill="#000000">ExpiresAt </text>
<text text-anchor="start" x="116.7868" y="-266.9" font-family="Arial" font-size="14.00" fill="#666666">[bigint(20)]</text>
<polygon fill="none" stroke="#000000" points="46,-225.5 46,-255.5 230,-255.5 230,-225.5 46,-225.5"/>
<text text-anchor="start" x="53" y="-236.9" font-family="Arial" font-size="14.00" fill="#000000">LastActivityAt </text>
<text text-anchor="start" x="140.9046" y="-236.9" font-family="Arial" font-size="14.00" fill="#666666">[bigint(20)]</text>
<polygon fill="none" stroke="#000000" points="46,-195.5 46,-225.5 230,-225.5 230,-195.5 46,-195.5"/>
<text text-anchor="start" x="53" y="-206.9" font-family="Arial" font-size="14.00" fill="#000000">UserId </text>
<text text-anchor="start" x="98.1136" y="-206.9" font-family="Arial" font-size="14.00" fill="#666666">[varchar(26)]</text>
<polygon fill="none" stroke="#000000" points="46,-165.5 46,-195.5 230,-195.5 230,-165.5 46,-165.5"/>
<text text-anchor="start" x="53" y="-176.9" font-family="Arial" font-size="14.00" fill="#000000">DeviceId </text>
<text text-anchor="start" x="111.3422" y="-176.9" font-family="Arial" font-size="14.00" fill="#666666">[text]</text>
<polygon fill="none" stroke="#000000" points="46,-135.5 46,-165.5 230,-165.5 230,-135.5 46,-135.5"/>
<text text-anchor="start" x="53" y="-146.9" font-family="Arial" font-size="14.00" fill="#000000">Roles </text>
<text text-anchor="start" x="92.669" y="-146.9" font-family="Arial" font-size="14.00" fill="#666666">[text]</text>
<polygon fill="none" stroke="#000000" points="46,-105.5 46,-135.5 230,-135.5 230,-105.5 46,-105.5"/>
<text text-anchor="start" x="53" y="-116.9" font-family="Arial" font-size="14.00" fill="#000000">IsOAuth </text>
<text text-anchor="start" x="107.4642" y="-116.9" font-family="Arial" font-size="14.00" fill="#666666">[tinyint(1)]</text>
<polygon fill="none" stroke="#000000" points="46,-75.5 46,-105.5 230,-105.5 230,-75.5 46,-75.5"/>
<text text-anchor="start" x="53" y="-86.9" font-family="Arial" font-size="14.00" fill="#000000">Props </text>
<text text-anchor="start" x="93.453" y="-86.9" font-family="Arial" font-size="14.00" fill="#666666">[longtext]</text>
<polygon fill="none" stroke="#000000" points="46,-45.5 46,-75.5 230,-75.5 230,-45.5 46,-45.5"/>
<text text-anchor="start" x="53" y="-56.9" font-family="Arial" font-size="14.00" fill="#000000">ExpiredNotify </text>
<text text-anchor="start" x="140.1192" y="-56.9" font-family="Arial" font-size="14.00" fill="#666666">[tinyint(1)]</text>
<polygon fill="none" stroke="#000000" stroke-width="3" points="44.5,-44.5 44.5,-412.5 231.5,-412.5 231.5,-44.5 44.5,-44.5"/>
</g>
</g>
</svg>
