<?xml version="1.0" encoding="UTF-8" standalone="no"?>
<!DOCTYPE svg PUBLIC "-//W3C//DTD SVG 1.1//EN"
 "http://www.w3.org/Graphics/SVG/1.1/DTD/svg11.dtd">
<!-- Generated by graphviz version 2.40.1 (20161225.0304)
 -->
<!-- Title: Status Pages: 1 -->
<svg width="270pt" height="315pt"
 viewBox="0.00 0.00 270.00 315.00" xmlns="http://www.w3.org/2000/svg" xmlns:xlink="http://www.w3.org/1999/xlink">
<g id="graph0" class="graph" transform="scale(1 1) rotate(0) translate(4 311)">
<title>Status</title>
<polygon fill="#ffffff" stroke="transparent" points="-4,4 -4,-311 266,-311 266,4 -4,4"/>
<!-- Status -->
<g id="node1" class="node">
<title>Status</title>
<polygon fill="#efefef" stroke="transparent" points="46,-225.5 46,-260.5 216,-260.5 216,-225.5 46,-225.5"/>
<polygon fill="none" stroke="#000000" points="46,-225.5 46,-260.5 216,-260.5 216,-225.5 46,-225.5"/>
<text text-anchor="start" x="56.8626" y="-238.3" font-family="Arial Bold" font-size="18.00" fill="#000000">Status</text>
<text text-anchor="start" x="107.8836" y="-238.3" font-family="Arial" font-size="14.00" fill="#000000"> </text>
<text text-anchor="start" x="111.7742" y="-238.3" font-family="Arial" font-size="14.00" fill="#666666">[BASE TABLE]</text>
<polygon fill="none" stroke="#000000" points="46,-195.5 46,-225.5 216,-225.5 216,-195.5 46,-195.5"/>
<text text-anchor="start" x="53" y="-206.9" font-family="Arial" font-size="14.00" fill="#000000">UserId </text>
<text text-anchor="start" x="98.1136" y="-206.9" font-family="Arial" font-size="14.00" fill="#666666">[varchar(26)]</text>
<polygon fill="none" stroke="#000000" points="46,-165.5 46,-195.5 216,-195.5 216,-165.5 46,-165.5"/>
<text text-anchor="start" x="53" y="-176.9" font-family="Arial" font-size="14.00" fill="#000000">Status </text>
<text text-anchor="start" x="96.5736" y="-176.9" font-family="Arial" font-size="14.00" fill="#666666">[varchar(32)]</text>
<polygon fill="none" stroke="#000000" points="46,-135.5 46,-165.5 216,-165.5 216,-135.5 46,-135.5"/>
<text text-anchor="start" x="53" y="-146.9" font-family="Arial" font-size="14.00" fill="#000000">Manual </text>
<text text-anchor="start" x="102.7882" y="-146.9" font-family="Arial" font-size="14.00" fill="#666666">[tinyint(1)]</text>
<polygon fill="none" stroke="#000000" points="46,-105.5 46,-135.5 216,-135.5 216,-105.5 46,-105.5"/>
<text text-anchor="start" x="53" y="-116.9" font-family="Arial" font-size="14.00" fill="#000000">LastActivityAt </text>
<text text-anchor="start" x="140.9046" y="-116.9" font-family="Arial" font-size="14.00" fill="#666666">[bigint(20)]</text>
<polygon fill="none" stroke="#000000" points="46,-75.5 46,-105.5 216,-105.5 216,-75.5 46,-75.5"/>
<text text-anchor="start" x="52.8331" y="-86.9" font-family="Arial" font-size="14.00" fill="#000000">DNDEndTime </text>
<text text-anchor="start" x="143.0477" y="-86.9" font-family="Arial" font-size="14.00" fill="#666666">[bigint(20)]</text>
<polygon fill="none" stroke="#000000" points="46,-45.5 46,-75.5 216,-75.5 216,-45.5 46,-45.5"/>
<text text-anchor="start" x="53" y="-56.9" font-family="Arial" font-size="14.00" fill="#000000">PrevStatus </text>
<text text-anchor="start" x="125.3534" y="-56.9" font-family="Arial" font-size="14.00" fill="#666666">[varchar(32)]</text>
<polygon fill="none" stroke="#000000" stroke-width="3" points="44.5,-44.5 44.5,-262.5 217.5,-262.5 217.5,-44.5 44.5,-44.5"/>
</g>
</g>
</svg>
