<?xml version="1.0" encoding="UTF-8" standalone="no"?>
<!DOCTYPE svg PUBLIC "-//W3C//DTD SVG 1.1//EN"
 "http://www.w3.org/Graphics/SVG/1.1/DTD/svg11.dtd">
<!-- Generated by graphviz version 2.40.1 (20161225.0304)
 -->
<!-- Title: Teams Pages: 1 -->
<svg width="317pt" height="645pt"
 viewBox="0.00 0.00 317.00 645.00" xmlns="http://www.w3.org/2000/svg" xmlns:xlink="http://www.w3.org/1999/xlink">
<g id="graph0" class="graph" transform="scale(1 1) rotate(0) translate(4 641)">
<title>Teams</title>
<polygon fill="#ffffff" stroke="transparent" points="-4,4 -4,-641 313,-641 313,4 -4,4"/>
<!-- Teams -->
<g id="node1" class="node">
<title>Teams</title>
<polygon fill="#efefef" stroke="transparent" points="46.5,-555.5 46.5,-590.5 263.5,-590.5 263.5,-555.5 46.5,-555.5"/>
<polygon fill="none" stroke="#000000" points="46.5,-555.5 46.5,-590.5 263.5,-590.5 263.5,-555.5 46.5,-555.5"/>
<text text-anchor="start" x="78.8727" y="-568.3" font-family="Arial Bold" font-size="18.00" fill="#000000">Teams</text>
<text text-anchor="start" x="133.8735" y="-568.3" font-family="Arial" font-size="14.00" fill="#000000"> </text>
<text text-anchor="start" x="137.7641" y="-568.3" font-family="Arial" font-size="14.00" fill="#666666">[BASE TABLE]</text>
<polygon fill="none" stroke="#000000" points="46.5,-525.5 46.5,-555.5 263.5,-555.5 263.5,-525.5 46.5,-525.5"/>
<text text-anchor="start" x="53.5" y="-536.9" font-family="Arial" font-size="14.00" fill="#000000">Id </text>
<text text-anchor="start" x="69.0638" y="-536.9" font-family="Arial" font-size="14.00" fill="#666666">[varchar(26)]</text>
<polygon fill="none" stroke="#000000" points="46.5,-495.5 46.5,-525.5 263.5,-525.5 263.5,-495.5 46.5,-495.5"/>
<text text-anchor="start" x="53.5" y="-506.9" font-family="Arial" font-size="14.00" fill="#000000">CreateAt </text>
<text text-anchor="start" x="112.6234" y="-506.9" font-family="Arial" font-size="14.00" fill="#666666">[bigint(20)]</text>
<polygon fill="none" stroke="#000000" points="46.5,-465.5 46.5,-495.5 263.5,-495.5 263.5,-465.5 46.5,-465.5"/>
<text text-anchor="start" x="53.5" y="-476.9" font-family="Arial" font-size="14.00" fill="#000000">UpdateAt </text>
<text text-anchor="start" x="115.7454" y="-476.9" font-family="Arial" font-size="14.00" fill="#666666">[bigint(20)]</text>
<polygon fill="none" stroke="#000000" points="46.5,-435.5 46.5,-465.5 263.5,-465.5 263.5,-435.5 46.5,-435.5"/>
<text text-anchor="start" x="53.5" y="-446.9" font-family="Arial" font-size="14.00" fill="#000000">DeleteAt </text>
<text text-anchor="start" x="111.0694" y="-446.9" font-family="Arial" font-size="14.00" fill="#666666">[bigint(20)]</text>
<polygon fill="none" stroke="#000000" points="46.5,-405.5 46.5,-435.5 263.5,-435.5 263.5,-405.5 46.5,-405.5"/>
<text text-anchor="start" x="53.5" y="-416.9" font-family="Arial" font-size="14.00" fill="#000000">DisplayName </text>
<text text-anchor="start" x="140.608" y="-416.9" font-family="Arial" font-size="14.00" fill="#666666">[varchar(64)]</text>
<polygon fill="none" stroke="#000000" points="46.5,-375.5 46.5,-405.5 263.5,-405.5 263.5,-375.5 46.5,-375.5"/>
<text text-anchor="start" x="53.5" y="-386.9" font-family="Arial" font-size="14.00" fill="#000000">Name </text>
<text text-anchor="start" x="94.723" y="-386.9" font-family="Arial" font-size="14.00" fill="#666666">[varchar(64)]</text>
<polygon fill="none" stroke="#000000" points="46.5,-345.5 46.5,-375.5 263.5,-375.5 263.5,-345.5 46.5,-345.5"/>
<text text-anchor="start" x="53.5" y="-356.9" font-family="Arial" font-size="14.00" fill="#000000">Description </text>
<text text-anchor="start" x="127.392" y="-356.9" font-family="Arial" font-size="14.00" fill="#666666">[varchar(255)]</text>
<polygon fill="none" stroke="#000000" points="46.5,-315.5 46.5,-345.5 263.5,-345.5 263.5,-315.5 46.5,-315.5"/>
<text text-anchor="start" x="53.5" y="-326.9" font-family="Arial" font-size="14.00" fill="#000000">Email </text>
<text text-anchor="start" x="92.3836" y="-326.9" font-family="Arial" font-size="14.00" fill="#666666">[varchar(128)]</text>
<polygon fill="none" stroke="#000000" points="46.5,-285.5 46.5,-315.5 263.5,-315.5 263.5,-285.5 46.5,-285.5"/>
<text text-anchor="start" x="53.5" y="-296.9" font-family="Arial" font-size="14.00" fill="#000000">Type </text>
<text text-anchor="start" x="88.5084" y="-296.9" font-family="Arial" font-size="14.00" fill="#666666">[enum(&#39;I&#39;,&#39;O&#39;)]</text>
<polygon fill="none" stroke="#000000" points="46.5,-255.5 46.5,-285.5 263.5,-285.5 263.5,-255.5 46.5,-255.5"/>
<text text-anchor="start" x="53.5" y="-266.9" font-family="Arial" font-size="14.00" fill="#000000">CompanyName </text>
<text text-anchor="start" x="154.6206" y="-266.9" font-family="Arial" font-size="14.00" fill="#666666">[varchar(64)]</text>
<polygon fill="none" stroke="#000000" points="46.5,-225.5 46.5,-255.5 263.5,-255.5 263.5,-225.5 46.5,-225.5"/>
<text text-anchor="start" x="53.5" y="-236.9" font-family="Arial" font-size="14.00" fill="#000000">AllowedDomains </text>
<text text-anchor="start" x="161.6164" y="-236.9" font-family="Arial" font-size="14.00" fill="#666666">[text]</text>
<polygon fill="none" stroke="#000000" points="46.5,-195.5 46.5,-225.5 263.5,-225.5 263.5,-195.5 46.5,-195.5"/>
<text text-anchor="start" x="53.5" y="-206.9" font-family="Arial" font-size="14.00" fill="#000000">InviteId </text>
<text text-anchor="start" x="102.5168" y="-206.9" font-family="Arial" font-size="14.00" fill="#666666">[varchar(32)]</text>
<polygon fill="none" stroke="#000000" points="46.5,-165.5 46.5,-195.5 263.5,-195.5 263.5,-165.5 46.5,-165.5"/>
<text text-anchor="start" x="53.5" y="-176.9" font-family="Arial" font-size="14.00" fill="#000000">SchemeId </text>
<text text-anchor="start" x="120.4088" y="-176.9" font-family="Arial" font-size="14.00" fill="#666666">[varchar(26)]</text>
<polygon fill="none" stroke="#000000" points="46.5,-135.5 46.5,-165.5 263.5,-165.5 263.5,-135.5 46.5,-135.5"/>
<text text-anchor="start" x="53.5" y="-146.9" font-family="Arial" font-size="14.00" fill="#000000">AllowOpenInvite </text>
<text text-anchor="start" x="158.521" y="-146.9" font-family="Arial" font-size="14.00" fill="#666666">[tinyint(1)]</text>
<polygon fill="none" stroke="#000000" points="46.5,-105.5 46.5,-135.5 263.5,-135.5 263.5,-105.5 46.5,-105.5"/>
<text text-anchor="start" x="53.0863" y="-116.9" font-family="Arial" font-size="14.00" fill="#000000">LastTeamIconUpdate </text>
<text text-anchor="start" x="190.7945" y="-116.9" font-family="Arial" font-size="14.00" fill="#666666">[bigint(20)]</text>
<polygon fill="none" stroke="#000000" points="46.5,-75.5 46.5,-105.5 263.5,-105.5 263.5,-75.5 46.5,-75.5"/>
<text text-anchor="start" x="53.5" y="-86.9" font-family="Arial" font-size="14.00" fill="#000000">GroupConstrained </text>
<text text-anchor="start" x="171.7496" y="-86.9" font-family="Arial" font-size="14.00" fill="#666666">[tinyint(1)]</text>
<polygon fill="none" stroke="#000000" points="46.5,-45.5 46.5,-75.5 263.5,-75.5 263.5,-45.5 46.5,-45.5"/>
<text text-anchor="start" x="53.5" y="-56.9" font-family="Arial" font-size="14.00" fill="#000000">CloudLimitsArchived </text>
<text text-anchor="start" x="184.9502" y="-56.9" font-family="Arial" font-size="14.00" fill="#666666">[tinyint(1)]</text>
<polygon fill="none" stroke="#000000" stroke-width="3" points="44.5,-44.5 44.5,-592.5 264.5,-592.5 264.5,-44.5 44.5,-44.5"/>
</g>
</g>
</svg>
