<?xml version="1.0" encoding="UTF-8" standalone="no"?>
<!DOCTYPE svg PUBLIC "-//W3C//DTD SVG 1.1//EN"
 "http://www.w3.org/Graphics/SVG/1.1/DTD/svg11.dtd">
<!-- Generated by graphviz version 2.40.1 (20161225.0304)
 -->
<!-- Title: Threads Pages: 1 -->
<svg width="282pt" height="315pt"
 viewBox="0.00 0.00 282.00 315.00" xmlns="http://www.w3.org/2000/svg" xmlns:xlink="http://www.w3.org/1999/xlink">
<g id="graph0" class="graph" transform="scale(1 1) rotate(0) translate(4 311)">
<title>Threads</title>
<polygon fill="#ffffff" stroke="transparent" points="-4,4 -4,-311 278,-311 278,4 -4,4"/>
<!-- Threads -->
<g id="node1" class="node">
<title>Threads</title>
<polygon fill="#efefef" stroke="transparent" points="46,-225.5 46,-260.5 228,-260.5 228,-225.5 46,-225.5"/>
<polygon fill="none" stroke="#000000" points="46,-225.5 46,-260.5 228,-260.5 228,-225.5 46,-225.5"/>
<text text-anchor="start" x="55.3665" y="-238.3" font-family="Arial Bold" font-size="18.00" fill="#000000">Threads</text>
<text text-anchor="start" x="121.3797" y="-238.3" font-family="Arial" font-size="14.00" fill="#000000"> </text>
<text text-anchor="start" x="125.2703" y="-238.3" font-family="Arial" font-size="14.00" fill="#666666">[BASE TABLE]</text>
<polygon fill="none" stroke="#000000" points="46,-195.5 46,-225.5 228,-225.5 228,-195.5 46,-195.5"/>
<text text-anchor="start" x="53" y="-206.9" font-family="Arial" font-size="14.00" fill="#000000">PostId </text>
<text text-anchor="start" x="96.5736" y="-206.9" font-family="Arial" font-size="14.00" fill="#666666">[varchar(26)]</text>
<polygon fill="none" stroke="#000000" points="46,-165.5 46,-195.5 228,-195.5 228,-165.5 46,-165.5"/>
<text text-anchor="start" x="53" y="-176.9" font-family="Arial" font-size="14.00" fill="#000000">ReplyCount </text>
<text text-anchor="start" x="130.014" y="-176.9" font-family="Arial" font-size="14.00" fill="#666666">[bigint(20)]</text>
<polygon fill="none" stroke="#000000" points="46,-135.5 46,-165.5 228,-165.5 228,-135.5 46,-135.5"/>
<text text-anchor="start" x="53" y="-146.9" font-family="Arial" font-size="14.00" fill="#000000">LastReplyAt </text>
<text text-anchor="start" x="132.352" y="-146.9" font-family="Arial" font-size="14.00" fill="#666666">[bigint(20)]</text>
<polygon fill="none" stroke="#000000" points="46,-105.5 46,-135.5 228,-135.5 228,-105.5 46,-105.5"/>
<text text-anchor="start" x="53" y="-116.9" font-family="Arial" font-size="14.00" fill="#000000">Participants </text>
<text text-anchor="start" x="130.0126" y="-116.9" font-family="Arial" font-size="14.00" fill="#666666">[longtext]</text>
<polygon fill="none" stroke="#000000" points="46,-75.5 46,-105.5 228,-105.5 228,-75.5 46,-75.5"/>
<text text-anchor="start" x="53" y="-86.9" font-family="Arial" font-size="14.00" fill="#000000">ChannelId </text>
<text text-anchor="start" x="120.69" y="-86.9" font-family="Arial" font-size="14.00" fill="#666666">[varchar(26)]</text>
<polygon fill="none" stroke="#000000" points="46,-45.5 46,-75.5 228,-75.5 228,-45.5 46,-45.5"/>
<text text-anchor="start" x="52.9839" y="-56.9" font-family="Arial" font-size="14.00" fill="#000000">ThreadDeleteAt </text>
<text text-anchor="start" x="154.8969" y="-56.9" font-family="Arial" font-size="14.00" fill="#666666">[bigint(20)]</text>
<polygon fill="none" stroke="#000000" stroke-width="3" points="44.5,-44.5 44.5,-262.5 229.5,-262.5 229.5,-44.5 44.5,-44.5"/>
</g>
</g>
</svg>
