<?xml version="1.0" encoding="UTF-8" standalone="no"?>
<!DOCTYPE svg PUBLIC "-//W3C//DTD SVG 1.1//EN"
 "http://www.w3.org/Graphics/SVG/1.1/DTD/svg11.dtd">
<!-- Generated by graphviz version 2.40.1 (20161225.0304)
 -->
<!-- Title: UserAccessTokens Pages: 1 -->
<svg width="366pt" height="285pt"
 viewBox="0.00 0.00 366.00 285.00" xmlns="http://www.w3.org/2000/svg" xmlns:xlink="http://www.w3.org/1999/xlink">
<g id="graph0" class="graph" transform="scale(1 1) rotate(0) translate(4 281)">
<title>UserAccessTokens</title>
<polygon fill="#ffffff" stroke="transparent" points="-4,4 -4,-281 362,-281 362,4 -4,4"/>
<!-- UserAccessTokens -->
<g id="node1" class="node">
<title>UserAccessTokens</title>
<polygon fill="#efefef" stroke="transparent" points="46,-195.5 46,-230.5 312,-230.5 312,-195.5 46,-195.5"/>
<polygon fill="none" stroke="#000000" points="46,-195.5 46,-230.5 312,-230.5 312,-195.5 46,-195.5"/>
<text text-anchor="start" x="52.8642" y="-208.3" font-family="Arial Bold" font-size="18.00" fill="#000000">UserAccessTokens</text>
<text text-anchor="start" x="207.882" y="-208.3" font-family="Arial" font-size="14.00" fill="#000000"> </text>
<text text-anchor="start" x="211.7726" y="-208.3" font-family="Arial" font-size="14.00" fill="#666666">[BASE TABLE]</text>
<polygon fill="none" stroke="#000000" points="46,-165.5 46,-195.5 312,-195.5 312,-165.5 46,-165.5"/>
<text text-anchor="start" x="53" y="-176.9" font-family="Arial" font-size="14.00" fill="#000000">Id </text>
<text text-anchor="start" x="68.5638" y="-176.9" font-family="Arial" font-size="14.00" fill="#666666">[varchar(26)]</text>
<polygon fill="none" stroke="#000000" points="46,-135.5 46,-165.5 312,-165.5 312,-135.5 46,-135.5"/>
<text text-anchor="start" x="53" y="-146.9" font-family="Arial" font-size="14.00" fill="#000000">Token </text>
<text text-anchor="start" x="95.791" y="-146.9" font-family="Arial" font-size="14.00" fill="#666666">[varchar(26)]</text>
<polygon fill="none" stroke="#000000" points="46,-105.5 46,-135.5 312,-135.5 312,-105.5 46,-105.5"/>
<text text-anchor="start" x="53" y="-116.9" font-family="Arial" font-size="14.00" fill="#000000">UserId </text>
<text text-anchor="start" x="98.1136" y="-116.9" font-family="Arial" font-size="14.00" fill="#666666">[varchar(26)]</text>
<polygon fill="none" stroke="#000000" points="46,-75.5 46,-105.5 312,-105.5 312,-75.5 46,-75.5"/>
<text text-anchor="start" x="53" y="-86.9" font-family="Arial" font-size="14.00" fill="#000000">Description </text>
<text text-anchor="start" x="126.892" y="-86.9" font-family="Arial" font-size="14.00" fill="#666666">[text]</text>
<polygon fill="none" stroke="#000000" points="46,-45.5 46,-75.5 312,-75.5 312,-45.5 46,-45.5"/>
<text text-anchor="start" x="53" y="-56.9" font-family="Arial" font-size="14.00" fill="#000000">IsActive </text>
<text text-anchor="start" x="105.8976" y="-56.9" font-family="Arial" font-size="14.00" fill="#666666">[tinyint(1)]</text>
<polygon fill="none" stroke="#000000" stroke-width="3" points="44.5,-44.5 44.5,-232.5 313.5,-232.5 313.5,-44.5 44.5,-44.5"/>
</g>
</g>
</svg>
