<?xml version="1.0" encoding="UTF-8" standalone="no"?>
<!DOCTYPE svg PUBLIC "-//W3C//DTD SVG 1.1//EN"
 "http://www.w3.org/Graphics/SVG/1.1/DTD/svg11.dtd">
<!-- Generated by graphviz version 2.40.1 (20161225.0304)
 -->
<!-- Title: books Pages: 1 -->
<svg width="268pt" height="225pt"
 viewBox="0.00 0.00 268.00 225.00" xmlns="http://www.w3.org/2000/svg" xmlns:xlink="http://www.w3.org/1999/xlink">
<g id="graph0" class="graph" transform="scale(1 1) rotate(0) translate(4 221)">
<title>books</title>
<polygon fill="#ffffff" stroke="transparent" points="-4,4 -4,-221 264,-221 264,4 -4,4"/>
<!-- books -->
<g id="node1" class="node">
<title>books</title>
<polygon fill="#efefef" stroke="transparent" points="46,-135.5 46,-170.5 214,-170.5 214,-135.5 46,-135.5"/>
<polygon fill="none" stroke="#000000" points="46,-135.5 46,-170.5 214,-170.5 214,-135.5 46,-135.5"/>
<text text-anchor="start" x="57.3638" y="-148.3" font-family="Arial Bold" font-size="18.00" fill="#000000">books</text>
<text text-anchor="start" x="105.3824" y="-148.3" font-family="Arial" font-size="14.00" fill="#000000"> </text>
<text text-anchor="start" x="109.273" y="-148.3" font-family="Arial" font-size="14.00" fill="#666666">[BASE TABLE]</text>
<polygon fill="none" stroke="#000000" points="46,-105.5 46,-135.5 214,-135.5 214,-105.5 46,-105.5"/>
<text text-anchor="start" x="53" y="-116.9" font-family="Arial" font-size="14.00" fill="#000000">guid </text>
<text text-anchor="start" x="83.345" y="-116.9" font-family="Arial" font-size="14.00" fill="#666666">[text]</text>
<polygon fill="none" stroke="#000000" points="46,-75.5 46,-105.5 214,-105.5 214,-75.5 46,-75.5"/>
<text text-anchor="start" x="53" y="-86.9" font-family="Arial" font-size="14.00" fill="#000000">root_account_guid </text>
<text text-anchor="start" x="172.0476" y="-86.9" font-family="Arial" font-size="14.00" fill="#666666">[text]</text>
<polygon fill="none" stroke="#000000" points="46,-45.5 46,-75.5 214,-75.5 214,-45.5 46,-45.5"/>
<text text-anchor="start" x="52.9748" y="-56.9" font-family="Arial" font-size="14.00" fill="#000000">root_template_guid </text>
<text text-anchor="start" x="176.6802" y="-56.9" font-family="Arial" font-size="14.00" fill="#666666">[text]</text>
<polygon fill="none" stroke="#000000" stroke-width="3" points="44.5,-44.5 44.5,-172.5 215.5,-172.5 215.5,-44.5 44.5,-44.5"/>
</g>
</g>
</svg>
