<?xml version="1.0" encoding="UTF-8" standalone="no"?>
<!DOCTYPE svg PUBLIC "-//W3C//DTD SVG 1.1//EN"
 "http://www.w3.org/Graphics/SVG/1.1/DTD/svg11.dtd">
<!-- Generated by graphviz version 2.40.1 (20161225.0304)
 -->
<!-- Title: budget_amounts Pages: 1 -->
<svg width="345pt" height="315pt"
 viewBox="0.00 0.00 345.00 315.00" xmlns="http://www.w3.org/2000/svg" xmlns:xlink="http://www.w3.org/1999/xlink">
<g id="graph0" class="graph" transform="scale(1 1) rotate(0) translate(4 311)">
<title>budget_amounts</title>
<polygon fill="#ffffff" stroke="transparent" points="-4,4 -4,-311 341,-311 341,4 -4,4"/>
<!-- budget_amounts -->
<g id="node1" class="node">
<title>budget_amounts</title>
<polygon fill="#efefef" stroke="transparent" points="46.5,-225.5 46.5,-260.5 291.5,-260.5 291.5,-225.5 46.5,-225.5"/>
<polygon fill="none" stroke="#000000" points="46.5,-225.5 46.5,-260.5 291.5,-260.5 291.5,-225.5 46.5,-225.5"/>
<text text-anchor="start" x="53.3438" y="-238.3" font-family="Arial Bold" font-size="18.00" fill="#000000">budget_amounts</text>
<text text-anchor="start" x="187.4024" y="-238.3" font-family="Arial" font-size="14.00" fill="#000000"> </text>
<text text-anchor="start" x="191.293" y="-238.3" font-family="Arial" font-size="14.00" fill="#666666">[BASE TABLE]</text>
<polygon fill="none" stroke="#000000" points="46.5,-195.5 46.5,-225.5 291.5,-225.5 291.5,-195.5 46.5,-195.5"/>
<text text-anchor="start" x="53.5" y="-206.9" font-family="Arial" font-size="14.00" fill="#000000">id </text>
<text text-anchor="start" x="68.2798" y="-206.9" font-family="Arial" font-size="14.00" fill="#666666">[int(11)]</text>
<polygon fill="none" stroke="#000000" points="46.5,-165.5 46.5,-195.5 291.5,-195.5 291.5,-165.5 46.5,-165.5"/>
<text text-anchor="start" x="53.5" y="-176.9" font-family="Arial" font-size="14.00" fill="#000000">budget_guid </text>
<text text-anchor="start" x="134.4312" y="-176.9" font-family="Arial" font-size="14.00" fill="#666666">[varchar(32)]</text>
<polygon fill="none" stroke="#000000" points="46.5,-135.5 46.5,-165.5 291.5,-165.5 291.5,-135.5 46.5,-135.5"/>
<text text-anchor="start" x="53.5" y="-146.9" font-family="Arial" font-size="14.00" fill="#000000">account_guid </text>
<text text-anchor="start" x="140.6486" y="-146.9" font-family="Arial" font-size="14.00" fill="#666666">[varchar(32)]</text>
<polygon fill="none" stroke="#000000" points="46.5,-105.5 46.5,-135.5 291.5,-135.5 291.5,-105.5 46.5,-105.5"/>
<text text-anchor="start" x="53.5" y="-116.9" font-family="Arial" font-size="14.00" fill="#000000">period_num </text>
<text text-anchor="start" x="131.2966" y="-116.9" font-family="Arial" font-size="14.00" fill="#666666">[int(11)]</text>
<polygon fill="none" stroke="#000000" points="46.5,-75.5 46.5,-105.5 291.5,-105.5 291.5,-75.5 46.5,-75.5"/>
<text text-anchor="start" x="53.5" y="-86.9" font-family="Arial" font-size="14.00" fill="#000000">amount_num </text>
<text text-anchor="start" x="139.0806" y="-86.9" font-family="Arial" font-size="14.00" fill="#666666">[bigint(20)]</text>
<polygon fill="none" stroke="#000000" points="46.5,-45.5 46.5,-75.5 291.5,-75.5 291.5,-45.5 46.5,-45.5"/>
<text text-anchor="start" x="53.5" y="-56.9" font-family="Arial" font-size="14.00" fill="#000000">amount_denom </text>
<text text-anchor="start" x="154.6458" y="-56.9" font-family="Arial" font-size="14.00" fill="#666666">[bigint(20)]</text>
<polygon fill="none" stroke="#000000" stroke-width="3" points="44.5,-44.5 44.5,-262.5 292.5,-262.5 292.5,-44.5 44.5,-44.5"/>
</g>
</g>
</svg>
