<?xml version="1.0" encoding="UTF-8" standalone="no"?>
<!DOCTYPE svg PUBLIC "-//W3C//DTD SVG 1.1//EN"
 "http://www.w3.org/Graphics/SVG/1.1/DTD/svg11.dtd">
<!-- Generated by graphviz version 2.40.1 (20161225.0304)
 -->
<!-- Title: customers Pages: 1 -->
<svg width="294pt" height="1035pt"
 viewBox="0.00 0.00 294.00 1035.00" xmlns="http://www.w3.org/2000/svg" xmlns:xlink="http://www.w3.org/1999/xlink">
<g id="graph0" class="graph" transform="scale(1 1) rotate(0) translate(4 1031)">
<title>customers</title>
<polygon fill="#ffffff" stroke="transparent" points="-4,4 -4,-1031 290,-1031 290,4 -4,4"/>
<!-- customers -->
<g id="node1" class="node">
<title>customers</title>
<polygon fill="#efefef" stroke="transparent" points="46,-945.5 46,-980.5 240,-980.5 240,-945.5 46,-945.5"/>
<polygon fill="none" stroke="#000000" points="46,-945.5 46,-980.5 240,-980.5 240,-945.5 46,-945.5"/>
<text text-anchor="start" x="52.8705" y="-958.3" font-family="Arial Bold" font-size="18.00" fill="#000000">customers</text>
<text text-anchor="start" x="135.8757" y="-958.3" font-family="Arial" font-size="14.00" fill="#000000"> </text>
<text text-anchor="start" x="139.7663" y="-958.3" font-family="Arial" font-size="14.00" fill="#666666">[BASE TABLE]</text>
<polygon fill="none" stroke="#000000" points="46,-915.5 46,-945.5 240,-945.5 240,-915.5 46,-915.5"/>
<text text-anchor="start" x="53" y="-926.9" font-family="Arial" font-size="14.00" fill="#000000">guid </text>
<text text-anchor="start" x="83.345" y="-926.9" font-family="Arial" font-size="14.00" fill="#666666">[varchar(32)]</text>
<polygon fill="none" stroke="#000000" points="46,-885.5 46,-915.5 240,-915.5 240,-885.5 46,-885.5"/>
<text text-anchor="start" x="53" y="-896.9" font-family="Arial" font-size="14.00" fill="#000000">name </text>
<text text-anchor="start" x="91.899" y="-896.9" font-family="Arial" font-size="14.00" fill="#666666">[text]</text>
<polygon fill="none" stroke="#000000" points="46,-855.5 46,-885.5 240,-885.5 240,-855.5 46,-855.5"/>
<text text-anchor="start" x="53" y="-866.9" font-family="Arial" font-size="14.00" fill="#000000">id </text>
<text text-anchor="start" x="67.7798" y="-866.9" font-family="Arial" font-size="14.00" fill="#666666">[text]</text>
<polygon fill="none" stroke="#000000" points="46,-825.5 46,-855.5 240,-855.5 240,-825.5 46,-825.5"/>
<text text-anchor="start" x="53" y="-836.9" font-family="Arial" font-size="14.00" fill="#000000">notes </text>
<text text-anchor="start" x="91.129" y="-836.9" font-family="Arial" font-size="14.00" fill="#666666">[text]</text>
<polygon fill="none" stroke="#000000" points="46,-795.5 46,-825.5 240,-825.5 240,-795.5 46,-795.5"/>
<text text-anchor="start" x="53" y="-806.9" font-family="Arial" font-size="14.00" fill="#000000">active </text>
<text text-anchor="start" x="93.453" y="-806.9" font-family="Arial" font-size="14.00" fill="#666666">[int(11)]</text>
<polygon fill="none" stroke="#000000" points="46,-765.5 46,-795.5 240,-795.5 240,-765.5 46,-765.5"/>
<text text-anchor="start" x="53" y="-776.9" font-family="Arial" font-size="14.00" fill="#000000">discount_num </text>
<text text-anchor="start" x="144.0266" y="-776.9" font-family="Arial" font-size="14.00" fill="#666666">[bigint(20)]</text>
<polygon fill="none" stroke="#000000" points="46,-735.5 46,-765.5 240,-765.5 240,-735.5 46,-735.5"/>
<text text-anchor="start" x="53" y="-746.9" font-family="Arial" font-size="14.00" fill="#000000">discount_denom </text>
<text text-anchor="start" x="159.5918" y="-746.9" font-family="Arial" font-size="14.00" fill="#666666">[bigint(20)]</text>
<polygon fill="none" stroke="#000000" points="46,-705.5 46,-735.5 240,-735.5 240,-705.5 46,-705.5"/>
<text text-anchor="start" x="53" y="-716.9" font-family="Arial" font-size="14.00" fill="#000000">credit_num </text>
<text text-anchor="start" x="126.122" y="-716.9" font-family="Arial" font-size="14.00" fill="#666666">[bigint(20)]</text>
<polygon fill="none" stroke="#000000" points="46,-675.5 46,-705.5 240,-705.5 240,-675.5 46,-675.5"/>
<text text-anchor="start" x="53" y="-686.9" font-family="Arial" font-size="14.00" fill="#000000">credit_denom </text>
<text text-anchor="start" x="141.6872" y="-686.9" font-family="Arial" font-size="14.00" fill="#666666">[bigint(20)]</text>
<polygon fill="none" stroke="#000000" points="46,-645.5 46,-675.5 240,-675.5 240,-645.5 46,-645.5"/>
<text text-anchor="start" x="53" y="-656.9" font-family="Arial" font-size="14.00" fill="#000000">currency </text>
<text text-anchor="start" x="110.5596" y="-656.9" font-family="Arial" font-size="14.00" fill="#666666">[varchar(32)]</text>
<polygon fill="none" stroke="#000000" points="46,-615.5 46,-645.5 240,-645.5 240,-615.5 46,-615.5"/>
<text text-anchor="start" x="53" y="-626.9" font-family="Arial" font-size="14.00" fill="#000000">tax_override </text>
<text text-anchor="start" x="133.9046" y="-626.9" font-family="Arial" font-size="14.00" fill="#666666">[int(11)]</text>
<polygon fill="none" stroke="#000000" points="46,-585.5 46,-615.5 240,-615.5 240,-585.5 46,-585.5"/>
<text text-anchor="start" x="53" y="-596.9" font-family="Arial" font-size="14.00" fill="#000000">addr_name </text>
<text text-anchor="start" x="127.69" y="-596.9" font-family="Arial" font-size="14.00" fill="#666666">[text]</text>
<polygon fill="none" stroke="#000000" points="46,-555.5 46,-585.5 240,-585.5 240,-555.5 46,-555.5"/>
<text text-anchor="start" x="53" y="-566.9" font-family="Arial" font-size="14.00" fill="#000000">addr_addr1 </text>
<text text-anchor="start" x="128.4726" y="-566.9" font-family="Arial" font-size="14.00" fill="#666666">[text]</text>
<polygon fill="none" stroke="#000000" points="46,-525.5 46,-555.5 240,-555.5 240,-525.5 46,-525.5"/>
<text text-anchor="start" x="53" y="-536.9" font-family="Arial" font-size="14.00" fill="#000000">addr_addr2 </text>
<text text-anchor="start" x="128.4726" y="-536.9" font-family="Arial" font-size="14.00" fill="#666666">[text]</text>
<polygon fill="none" stroke="#000000" points="46,-495.5 46,-525.5 240,-525.5 240,-495.5 46,-495.5"/>
<text text-anchor="start" x="53" y="-506.9" font-family="Arial" font-size="14.00" fill="#000000">addr_addr3 </text>
<text text-anchor="start" x="128.4726" y="-506.9" font-family="Arial" font-size="14.00" fill="#666666">[text]</text>
<polygon fill="none" stroke="#000000" points="46,-465.5 46,-495.5 240,-495.5 240,-465.5 46,-465.5"/>
<text text-anchor="start" x="53" y="-476.9" font-family="Arial" font-size="14.00" fill="#000000">addr_addr4 </text>
<text text-anchor="start" x="128.4726" y="-476.9" font-family="Arial" font-size="14.00" fill="#666666">[text]</text>
<polygon fill="none" stroke="#000000" points="46,-435.5 46,-465.5 240,-465.5 240,-435.5 46,-435.5"/>
<text text-anchor="start" x="53" y="-446.9" font-family="Arial" font-size="14.00" fill="#000000">addr_phone </text>
<text text-anchor="start" x="131.5946" y="-446.9" font-family="Arial" font-size="14.00" fill="#666666">[text]</text>
<polygon fill="none" stroke="#000000" points="46,-405.5 46,-435.5 240,-435.5 240,-405.5 46,-405.5"/>
<text text-anchor="start" x="53" y="-416.9" font-family="Arial" font-size="14.00" fill="#000000">addr_fax </text>
<text text-anchor="start" x="111.3548" y="-416.9" font-family="Arial" font-size="14.00" fill="#666666">[text]</text>
<polygon fill="none" stroke="#000000" points="46,-375.5 46,-405.5 240,-405.5 240,-375.5 46,-375.5"/>
<text text-anchor="start" x="53" y="-386.9" font-family="Arial" font-size="14.00" fill="#000000">addr_email </text>
<text text-anchor="start" x="126.1206" y="-386.9" font-family="Arial" font-size="14.00" fill="#666666">[text]</text>
<polygon fill="none" stroke="#000000" points="46,-345.5 46,-375.5 240,-375.5 240,-345.5 46,-345.5"/>
<text text-anchor="start" x="53" y="-356.9" font-family="Arial" font-size="14.00" fill="#000000">shipaddr_name </text>
<text text-anchor="start" x="153.3618" y="-356.9" font-family="Arial" font-size="14.00" fill="#666666">[text]</text>
<polygon fill="none" stroke="#000000" points="46,-315.5 46,-345.5 240,-345.5 240,-315.5 46,-315.5"/>
<text text-anchor="start" x="53" y="-326.9" font-family="Arial" font-size="14.00" fill="#000000">shipaddr_addr1 </text>
<text text-anchor="start" x="154.1444" y="-326.9" font-family="Arial" font-size="14.00" fill="#666666">[text]</text>
<polygon fill="none" stroke="#000000" points="46,-285.5 46,-315.5 240,-315.5 240,-285.5 46,-285.5"/>
<text text-anchor="start" x="53" y="-296.9" font-family="Arial" font-size="14.00" fill="#000000">shipaddr_addr2 </text>
<text text-anchor="start" x="154.1444" y="-296.9" font-family="Arial" font-size="14.00" fill="#666666">[text]</text>
<polygon fill="none" stroke="#000000" points="46,-255.5 46,-285.5 240,-285.5 240,-255.5 46,-255.5"/>
<text text-anchor="start" x="53" y="-266.9" font-family="Arial" font-size="14.00" fill="#000000">shipaddr_addr3 </text>
<text text-anchor="start" x="154.1444" y="-266.9" font-family="Arial" font-size="14.00" fill="#666666">[text]</text>
<polygon fill="none" stroke="#000000" points="46,-225.5 46,-255.5 240,-255.5 240,-225.5 46,-225.5"/>
<text text-anchor="start" x="53" y="-236.9" font-family="Arial" font-size="14.00" fill="#000000">shipaddr_addr4 </text>
<text text-anchor="start" x="154.1444" y="-236.9" font-family="Arial" font-size="14.00" fill="#666666">[text]</text>
<polygon fill="none" stroke="#000000" points="46,-195.5 46,-225.5 240,-225.5 240,-195.5 46,-195.5"/>
<text text-anchor="start" x="53" y="-206.9" font-family="Arial" font-size="14.00" fill="#000000">shipaddr_phone </text>
<text text-anchor="start" x="157.2664" y="-206.9" font-family="Arial" font-size="14.00" fill="#666666">[text]</text>
<polygon fill="none" stroke="#000000" points="46,-165.5 46,-195.5 240,-195.5 240,-165.5 46,-165.5"/>
<text text-anchor="start" x="53" y="-176.9" font-family="Arial" font-size="14.00" fill="#000000">shipaddr_fax </text>
<text text-anchor="start" x="137.0266" y="-176.9" font-family="Arial" font-size="14.00" fill="#666666">[text]</text>
<polygon fill="none" stroke="#000000" points="46,-135.5 46,-165.5 240,-165.5 240,-135.5 46,-135.5"/>
<text text-anchor="start" x="53" y="-146.9" font-family="Arial" font-size="14.00" fill="#000000">shipaddr_email </text>
<text text-anchor="start" x="151.7924" y="-146.9" font-family="Arial" font-size="14.00" fill="#666666">[text]</text>
<polygon fill="none" stroke="#000000" points="46,-105.5 46,-135.5 240,-135.5 240,-105.5 46,-105.5"/>
<text text-anchor="start" x="53" y="-116.9" font-family="Arial" font-size="14.00" fill="#000000">terms </text>
<text text-anchor="start" x="91.885" y="-116.9" font-family="Arial" font-size="14.00" fill="#666666">[varchar(32)]</text>
<polygon fill="none" stroke="#000000" points="46,-75.5 46,-105.5 240,-105.5 240,-75.5 46,-75.5"/>
<text text-anchor="start" x="53" y="-86.9" font-family="Arial" font-size="14.00" fill="#000000">tax_included </text>
<text text-anchor="start" x="135.4726" y="-86.9" font-family="Arial" font-size="14.00" fill="#666666">[int(11)]</text>
<polygon fill="none" stroke="#000000" points="46,-45.5 46,-75.5 240,-75.5 240,-45.5 46,-45.5"/>
<text text-anchor="start" x="53" y="-56.9" font-family="Arial" font-size="14.00" fill="#000000">taxtable </text>
<text text-anchor="start" x="105.9088" y="-56.9" font-family="Arial" font-size="14.00" fill="#666666">[varchar(32)]</text>
<polygon fill="none" stroke="#000000" stroke-width="3" points="44.5,-44.5 44.5,-982.5 241.5,-982.5 241.5,-44.5 44.5,-44.5"/>
</g>
</g>
</svg>
