<?xml version="1.0" encoding="UTF-8" standalone="no"?>
<!DOCTYPE svg PUBLIC "-//W3C//DTD SVG 1.1//EN"
 "http://www.w3.org/Graphics/SVG/1.1/DTD/svg11.dtd">
<!-- Generated by graphviz version 2.40.1 (20161225.0304)
 -->
<!-- Title: entries Pages: 1 -->
<svg width="297pt" height="1065pt"
 viewBox="0.00 0.00 297.00 1065.00" xmlns="http://www.w3.org/2000/svg" xmlns:xlink="http://www.w3.org/1999/xlink">
<g id="graph0" class="graph" transform="scale(1 1) rotate(0) translate(4 1061)">
<title>entries</title>
<polygon fill="#ffffff" stroke="transparent" points="-4,4 -4,-1061 293,-1061 293,4 -4,4"/>
<!-- entries -->
<g id="node1" class="node">
<title>entries</title>
<polygon fill="#efefef" stroke="transparent" points="46.5,-975.5 46.5,-1010.5 243.5,-1010.5 243.5,-975.5 46.5,-975.5"/>
<polygon fill="none" stroke="#000000" points="46.5,-975.5 46.5,-1010.5 243.5,-1010.5 243.5,-975.5 46.5,-975.5"/>
<text text-anchor="start" x="69.3695" y="-988.3" font-family="Arial Bold" font-size="18.00" fill="#000000">entries</text>
<text text-anchor="start" x="123.3767" y="-988.3" font-family="Arial" font-size="14.00" fill="#000000"> </text>
<text text-anchor="start" x="127.2673" y="-988.3" font-family="Arial" font-size="14.00" fill="#666666">[BASE TABLE]</text>
<polygon fill="none" stroke="#000000" points="46.5,-945.5 46.5,-975.5 243.5,-975.5 243.5,-945.5 46.5,-945.5"/>
<text text-anchor="start" x="53.5" y="-956.9" font-family="Arial" font-size="14.00" fill="#000000">guid </text>
<text text-anchor="start" x="83.845" y="-956.9" font-family="Arial" font-size="14.00" fill="#666666">[text]</text>
<polygon fill="none" stroke="#000000" points="46.5,-915.5 46.5,-945.5 243.5,-945.5 243.5,-915.5 46.5,-915.5"/>
<text text-anchor="start" x="53.5" y="-926.9" font-family="Arial" font-size="14.00" fill="#000000">date </text>
<text text-anchor="start" x="84.629" y="-926.9" font-family="Arial" font-size="14.00" fill="#666666">[text]</text>
<polygon fill="none" stroke="#000000" points="46.5,-885.5 46.5,-915.5 243.5,-915.5 243.5,-885.5 46.5,-885.5"/>
<text text-anchor="start" x="53.5" y="-896.9" font-family="Arial" font-size="14.00" fill="#000000">date_entered </text>
<text text-anchor="start" x="139.8758" y="-896.9" font-family="Arial" font-size="14.00" fill="#666666">[text]</text>
<polygon fill="none" stroke="#000000" points="46.5,-855.5 46.5,-885.5 243.5,-885.5 243.5,-855.5 46.5,-855.5"/>
<text text-anchor="start" x="53.5" y="-866.9" font-family="Arial" font-size="14.00" fill="#000000">description </text>
<text text-anchor="start" x="125.068" y="-866.9" font-family="Arial" font-size="14.00" fill="#666666">[text]</text>
<polygon fill="none" stroke="#000000" points="46.5,-825.5 46.5,-855.5 243.5,-855.5 243.5,-825.5 46.5,-825.5"/>
<text text-anchor="start" x="53.5" y="-836.9" font-family="Arial" font-size="14.00" fill="#000000">action </text>
<text text-anchor="start" x="94.7356" y="-836.9" font-family="Arial" font-size="14.00" fill="#666666">[text]</text>
<polygon fill="none" stroke="#000000" points="46.5,-795.5 46.5,-825.5 243.5,-825.5 243.5,-795.5 46.5,-795.5"/>
<text text-anchor="start" x="53.5" y="-806.9" font-family="Arial" font-size="14.00" fill="#000000">notes </text>
<text text-anchor="start" x="91.629" y="-806.9" font-family="Arial" font-size="14.00" fill="#666666">[text]</text>
<polygon fill="none" stroke="#000000" points="46.5,-765.5 46.5,-795.5 243.5,-795.5 243.5,-765.5 46.5,-765.5"/>
<text text-anchor="start" x="53.5" y="-776.9" font-family="Arial" font-size="14.00" fill="#000000">quantity_num </text>
<text text-anchor="start" x="141.4172" y="-776.9" font-family="Arial" font-size="14.00" fill="#666666">[bigint(20)]</text>
<polygon fill="none" stroke="#000000" points="46.5,-735.5 46.5,-765.5 243.5,-765.5 243.5,-735.5 46.5,-735.5"/>
<text text-anchor="start" x="53.5" y="-746.9" font-family="Arial" font-size="14.00" fill="#000000">quantity_denom </text>
<text text-anchor="start" x="156.9824" y="-746.9" font-family="Arial" font-size="14.00" fill="#666666">[bigint(20)]</text>
<polygon fill="none" stroke="#000000" points="46.5,-705.5 46.5,-735.5 243.5,-735.5 243.5,-705.5 46.5,-705.5"/>
<text text-anchor="start" x="53.5" y="-716.9" font-family="Arial" font-size="14.00" fill="#000000">i_acct </text>
<text text-anchor="start" x="93.953" y="-716.9" font-family="Arial" font-size="14.00" fill="#666666">[text]</text>
<polygon fill="none" stroke="#000000" points="46.5,-675.5 46.5,-705.5 243.5,-705.5 243.5,-675.5 46.5,-675.5"/>
<text text-anchor="start" x="53.5" y="-686.9" font-family="Arial" font-size="14.00" fill="#000000">i_price_num </text>
<text text-anchor="start" x="133.6206" y="-686.9" font-family="Arial" font-size="14.00" fill="#666666">[bigint(20)]</text>
<polygon fill="none" stroke="#000000" points="46.5,-645.5 46.5,-675.5 243.5,-675.5 243.5,-645.5 46.5,-645.5"/>
<text text-anchor="start" x="53.5" y="-656.9" font-family="Arial" font-size="14.00" fill="#000000">i_price_denom </text>
<text text-anchor="start" x="149.1858" y="-656.9" font-family="Arial" font-size="14.00" fill="#666666">[bigint(20)]</text>
<polygon fill="none" stroke="#000000" points="46.5,-615.5 46.5,-645.5 243.5,-645.5 243.5,-615.5 46.5,-615.5"/>
<text text-anchor="start" x="53.5" y="-626.9" font-family="Arial" font-size="14.00" fill="#000000">i_discount_num </text>
<text text-anchor="start" x="155.4158" y="-626.9" font-family="Arial" font-size="14.00" fill="#666666">[bigint(20)]</text>
<polygon fill="none" stroke="#000000" points="46.5,-585.5 46.5,-615.5 243.5,-615.5 243.5,-585.5 46.5,-585.5"/>
<text text-anchor="start" x="53.1999" y="-596.9" font-family="Arial" font-size="14.00" fill="#000000">i_discount_denom </text>
<text text-anchor="start" x="170.6809" y="-596.9" font-family="Arial" font-size="14.00" fill="#666666">[bigint(20)]</text>
<polygon fill="none" stroke="#000000" points="46.5,-555.5 46.5,-585.5 243.5,-585.5 243.5,-555.5 46.5,-555.5"/>
<text text-anchor="start" x="53.5" y="-566.9" font-family="Arial" font-size="14.00" fill="#000000">invoice </text>
<text text-anchor="start" x="100.9516" y="-566.9" font-family="Arial" font-size="14.00" fill="#666666">[text]</text>
<polygon fill="none" stroke="#000000" points="46.5,-525.5 46.5,-555.5 243.5,-555.5 243.5,-525.5 46.5,-525.5"/>
<text text-anchor="start" x="53.5" y="-536.9" font-family="Arial" font-size="14.00" fill="#000000">i_disc_type </text>
<text text-anchor="start" x="127.4074" y="-536.9" font-family="Arial" font-size="14.00" fill="#666666">[text]</text>
<polygon fill="none" stroke="#000000" points="46.5,-495.5 46.5,-525.5 243.5,-525.5 243.5,-495.5 46.5,-495.5"/>
<text text-anchor="start" x="53.5" y="-506.9" font-family="Arial" font-size="14.00" fill="#000000">i_disc_how </text>
<text text-anchor="start" x="126.6234" y="-506.9" font-family="Arial" font-size="14.00" fill="#666666">[text]</text>
<polygon fill="none" stroke="#000000" points="46.5,-465.5 46.5,-495.5 243.5,-495.5 243.5,-465.5 46.5,-465.5"/>
<text text-anchor="start" x="53.5" y="-476.9" font-family="Arial" font-size="14.00" fill="#000000">i_taxable </text>
<text text-anchor="start" x="113.4074" y="-476.9" font-family="Arial" font-size="14.00" fill="#666666">[int(11)]</text>
<polygon fill="none" stroke="#000000" points="46.5,-435.5 46.5,-465.5 243.5,-465.5 243.5,-435.5 46.5,-435.5"/>
<text text-anchor="start" x="53.5" y="-446.9" font-family="Arial" font-size="14.00" fill="#000000">i_taxincluded </text>
<text text-anchor="start" x="139.0792" y="-446.9" font-family="Arial" font-size="14.00" fill="#666666">[int(11)]</text>
<polygon fill="none" stroke="#000000" points="46.5,-405.5 46.5,-435.5 243.5,-435.5 243.5,-405.5 46.5,-405.5"/>
<text text-anchor="start" x="53.5" y="-416.9" font-family="Arial" font-size="14.00" fill="#000000">i_taxtable </text>
<text text-anchor="start" x="117.298" y="-416.9" font-family="Arial" font-size="14.00" fill="#666666">[text]</text>
<polygon fill="none" stroke="#000000" points="46.5,-375.5 46.5,-405.5 243.5,-405.5 243.5,-375.5 46.5,-375.5"/>
<text text-anchor="start" x="53.5" y="-386.9" font-family="Arial" font-size="14.00" fill="#000000">b_acct </text>
<text text-anchor="start" x="98.629" y="-386.9" font-family="Arial" font-size="14.00" fill="#666666">[text]</text>
<polygon fill="none" stroke="#000000" points="46.5,-345.5 46.5,-375.5 243.5,-375.5 243.5,-345.5 46.5,-345.5"/>
<text text-anchor="start" x="53.5" y="-356.9" font-family="Arial" font-size="14.00" fill="#000000">b_price_num </text>
<text text-anchor="start" x="138.2966" y="-356.9" font-family="Arial" font-size="14.00" fill="#666666">[bigint(20)]</text>
<polygon fill="none" stroke="#000000" points="46.5,-315.5 46.5,-345.5 243.5,-345.5 243.5,-315.5 46.5,-315.5"/>
<text text-anchor="start" x="53.5" y="-326.9" font-family="Arial" font-size="14.00" fill="#000000">b_price_denom </text>
<text text-anchor="start" x="153.8618" y="-326.9" font-family="Arial" font-size="14.00" fill="#666666">[bigint(20)]</text>
<polygon fill="none" stroke="#000000" points="46.5,-285.5 46.5,-315.5 243.5,-315.5 243.5,-285.5 46.5,-285.5"/>
<text text-anchor="start" x="53.5" y="-296.9" font-family="Arial" font-size="14.00" fill="#000000">bill </text>
<text text-anchor="start" x="74.493" y="-296.9" font-family="Arial" font-size="14.00" fill="#666666">[text]</text>
<polygon fill="none" stroke="#000000" points="46.5,-255.5 46.5,-285.5 243.5,-285.5 243.5,-255.5 46.5,-255.5"/>
<text text-anchor="start" x="53.5" y="-266.9" font-family="Arial" font-size="14.00" fill="#000000">b_taxable </text>
<text text-anchor="start" x="118.0834" y="-266.9" font-family="Arial" font-size="14.00" fill="#666666">[int(11)]</text>
<polygon fill="none" stroke="#000000" points="46.5,-225.5 46.5,-255.5 243.5,-255.5 243.5,-225.5 46.5,-225.5"/>
<text text-anchor="start" x="53.5" y="-236.9" font-family="Arial" font-size="14.00" fill="#000000">b_taxincluded </text>
<text text-anchor="start" x="143.7552" y="-236.9" font-family="Arial" font-size="14.00" fill="#666666">[int(11)]</text>
<polygon fill="none" stroke="#000000" points="46.5,-195.5 46.5,-225.5 243.5,-225.5 243.5,-195.5 46.5,-195.5"/>
<text text-anchor="start" x="53.5" y="-206.9" font-family="Arial" font-size="14.00" fill="#000000">b_taxtable </text>
<text text-anchor="start" x="121.974" y="-206.9" font-family="Arial" font-size="14.00" fill="#666666">[text]</text>
<polygon fill="none" stroke="#000000" points="46.5,-165.5 46.5,-195.5 243.5,-195.5 243.5,-165.5 46.5,-165.5"/>
<text text-anchor="start" x="53.5" y="-176.9" font-family="Arial" font-size="14.00" fill="#000000">b_paytype </text>
<text text-anchor="start" x="121.9768" y="-176.9" font-family="Arial" font-size="14.00" fill="#666666">[int(11)]</text>
<polygon fill="none" stroke="#000000" points="46.5,-135.5 46.5,-165.5 243.5,-165.5 243.5,-135.5 46.5,-135.5"/>
<text text-anchor="start" x="53.5" y="-146.9" font-family="Arial" font-size="14.00" fill="#000000">billable </text>
<text text-anchor="start" x="100.9474" y="-146.9" font-family="Arial" font-size="14.00" fill="#666666">[int(11)]</text>
<polygon fill="none" stroke="#000000" points="46.5,-105.5 46.5,-135.5 243.5,-135.5 243.5,-105.5 46.5,-105.5"/>
<text text-anchor="start" x="53.5" y="-116.9" font-family="Arial" font-size="14.00" fill="#000000">billto_type </text>
<text text-anchor="start" x="120.4046" y="-116.9" font-family="Arial" font-size="14.00" fill="#666666">[int(11)]</text>
<polygon fill="none" stroke="#000000" points="46.5,-75.5 46.5,-105.5 243.5,-105.5 243.5,-75.5 46.5,-75.5"/>
<text text-anchor="start" x="53.5" y="-86.9" font-family="Arial" font-size="14.00" fill="#000000">billto_guid </text>
<text text-anchor="start" x="120.4032" y="-86.9" font-family="Arial" font-size="14.00" fill="#666666">[text]</text>
<polygon fill="none" stroke="#000000" points="46.5,-45.5 46.5,-75.5 243.5,-75.5 243.5,-45.5 46.5,-45.5"/>
<text text-anchor="start" x="53.5" y="-56.9" font-family="Arial" font-size="14.00" fill="#000000">order_guid </text>
<text text-anchor="start" x="124.2966" y="-56.9" font-family="Arial" font-size="14.00" fill="#666666">[text]</text>
<polygon fill="none" stroke="#000000" stroke-width="3" points="44.5,-44.5 44.5,-1012.5 244.5,-1012.5 244.5,-44.5 44.5,-44.5"/>
</g>
</g>
</svg>
