<?xml version="1.0" encoding="UTF-8" standalone="no"?>
<!DOCTYPE svg PUBLIC "-//W3C//DTD SVG 1.1//EN"
 "http://www.w3.org/Graphics/SVG/1.1/DTD/svg11.dtd">
<!-- Generated by graphviz version 2.40.1 (20161225.0304)
 -->
<!-- Title: lots Pages: 1 -->
<svg width="280pt" height="225pt"
 viewBox="0.00 0.00 280.00 225.00" xmlns="http://www.w3.org/2000/svg" xmlns:xlink="http://www.w3.org/1999/xlink">
<g id="graph0" class="graph" transform="scale(1 1) rotate(0) translate(4 221)">
<title>lots</title>
<polygon fill="#ffffff" stroke="transparent" points="-4,4 -4,-221 276,-221 276,4 -4,4"/>
<!-- lots -->
<g id="node1" class="node">
<title>lots</title>
<polygon fill="#efefef" stroke="transparent" points="46,-135.5 46,-170.5 226,-170.5 226,-135.5 46,-135.5"/>
<polygon fill="none" stroke="#000000" points="46,-135.5 46,-170.5 226,-170.5 226,-135.5 46,-135.5"/>
<text text-anchor="start" x="73.3718" y="-148.3" font-family="Arial Bold" font-size="18.00" fill="#000000">lots</text>
<text text-anchor="start" x="101.3744" y="-148.3" font-family="Arial" font-size="14.00" fill="#000000"> </text>
<text text-anchor="start" x="105.265" y="-148.3" font-family="Arial" font-size="14.00" fill="#666666">[BASE TABLE]</text>
<polygon fill="none" stroke="#000000" points="46,-105.5 46,-135.5 226,-135.5 226,-105.5 46,-105.5"/>
<text text-anchor="start" x="53" y="-116.9" font-family="Arial" font-size="14.00" fill="#000000">guid </text>
<text text-anchor="start" x="83.345" y="-116.9" font-family="Arial" font-size="14.00" fill="#666666">[varchar(32)]</text>
<polygon fill="none" stroke="#000000" points="46,-75.5 46,-105.5 226,-105.5 226,-75.5 46,-75.5"/>
<text text-anchor="start" x="52.7574" y="-86.9" font-family="Arial" font-size="14.00" fill="#000000">account_guid </text>
<text text-anchor="start" x="139.906" y="-86.9" font-family="Arial" font-size="14.00" fill="#666666">[varchar(32)]</text>
<polygon fill="none" stroke="#000000" points="46,-45.5 46,-75.5 226,-75.5 226,-45.5 46,-45.5"/>
<text text-anchor="start" x="53" y="-56.9" font-family="Arial" font-size="14.00" fill="#000000">is_closed </text>
<text text-anchor="start" x="115.2342" y="-56.9" font-family="Arial" font-size="14.00" fill="#666666">[int(11)]</text>
<polygon fill="none" stroke="#000000" stroke-width="3" points="44.5,-44.5 44.5,-172.5 227.5,-172.5 227.5,-44.5 44.5,-44.5"/>
</g>
</g>
</svg>
