<?xml version="1.0" encoding="UTF-8" standalone="no"?>
<!DOCTYPE svg PUBLIC "-//W3C//DTD SVG 1.1//EN"
 "http://www.w3.org/Graphics/SVG/1.1/DTD/svg11.dtd">
<!-- Generated by graphviz version 2.40.1 (20161225.0304)
 -->
<!-- Title: orders Pages: 1 -->
<svg width="262pt" height="405pt"
 viewBox="0.00 0.00 262.00 405.00" xmlns="http://www.w3.org/2000/svg" xmlns:xlink="http://www.w3.org/1999/xlink">
<g id="graph0" class="graph" transform="scale(1 1) rotate(0) translate(4 401)">
<title>orders</title>
<polygon fill="#ffffff" stroke="transparent" points="-4,4 -4,-401 258,-401 258,4 -4,4"/>
<!-- orders -->
<g id="node1" class="node">
<title>orders</title>
<polygon fill="#efefef" stroke="transparent" points="46,-315.5 46,-350.5 208,-350.5 208,-315.5 46,-315.5"/>
<polygon fill="none" stroke="#000000" points="46,-315.5 46,-350.5 208,-350.5 208,-315.5 46,-315.5"/>
<text text-anchor="start" x="52.8716" y="-328.3" font-family="Arial Bold" font-size="18.00" fill="#000000">orders</text>
<text text-anchor="start" x="103.8746" y="-328.3" font-family="Arial" font-size="14.00" fill="#000000"> </text>
<text text-anchor="start" x="107.7652" y="-328.3" font-family="Arial" font-size="14.00" fill="#666666">[BASE TABLE]</text>
<polygon fill="none" stroke="#000000" points="46,-285.5 46,-315.5 208,-315.5 208,-285.5 46,-285.5"/>
<text text-anchor="start" x="53" y="-296.9" font-family="Arial" font-size="14.00" fill="#000000">guid </text>
<text text-anchor="start" x="83.345" y="-296.9" font-family="Arial" font-size="14.00" fill="#666666">[text]</text>
<polygon fill="none" stroke="#000000" points="46,-255.5 46,-285.5 208,-285.5 208,-255.5 46,-255.5"/>
<text text-anchor="start" x="53" y="-266.9" font-family="Arial" font-size="14.00" fill="#000000">id </text>
<text text-anchor="start" x="67.7798" y="-266.9" font-family="Arial" font-size="14.00" fill="#666666">[text]</text>
<polygon fill="none" stroke="#000000" points="46,-225.5 46,-255.5 208,-255.5 208,-225.5 46,-225.5"/>
<text text-anchor="start" x="53" y="-236.9" font-family="Arial" font-size="14.00" fill="#000000">notes </text>
<text text-anchor="start" x="91.129" y="-236.9" font-family="Arial" font-size="14.00" fill="#666666">[text]</text>
<polygon fill="none" stroke="#000000" points="46,-195.5 46,-225.5 208,-225.5 208,-195.5 46,-195.5"/>
<text text-anchor="start" x="53" y="-206.9" font-family="Arial" font-size="14.00" fill="#000000">reference </text>
<text text-anchor="start" x="116.0154" y="-206.9" font-family="Arial" font-size="14.00" fill="#666666">[text]</text>
<polygon fill="none" stroke="#000000" points="46,-165.5 46,-195.5 208,-195.5 208,-165.5 46,-165.5"/>
<text text-anchor="start" x="53" y="-176.9" font-family="Arial" font-size="14.00" fill="#000000">active </text>
<text text-anchor="start" x="93.453" y="-176.9" font-family="Arial" font-size="14.00" fill="#666666">[int(11)]</text>
<polygon fill="none" stroke="#000000" points="46,-135.5 46,-165.5 208,-165.5 208,-135.5 46,-135.5"/>
<text text-anchor="start" x="53" y="-146.9" font-family="Arial" font-size="14.00" fill="#000000">date_opened </text>
<text text-anchor="start" x="138.6072" y="-146.9" font-family="Arial" font-size="14.00" fill="#666666">[text]</text>
<polygon fill="none" stroke="#000000" points="46,-105.5 46,-135.5 208,-135.5 208,-105.5 46,-105.5"/>
<text text-anchor="start" x="53" y="-116.9" font-family="Arial" font-size="14.00" fill="#000000">date_closed </text>
<text text-anchor="start" x="132.366" y="-116.9" font-family="Arial" font-size="14.00" fill="#666666">[text]</text>
<polygon fill="none" stroke="#000000" points="46,-75.5 46,-105.5 208,-105.5 208,-75.5 46,-75.5"/>
<text text-anchor="start" x="53" y="-86.9" font-family="Arial" font-size="14.00" fill="#000000">owner_type </text>
<text text-anchor="start" x="129.244" y="-86.9" font-family="Arial" font-size="14.00" fill="#666666">[int(11)]</text>
<polygon fill="none" stroke="#000000" points="46,-45.5 46,-75.5 208,-75.5 208,-45.5 46,-45.5"/>
<text text-anchor="start" x="53" y="-56.9" font-family="Arial" font-size="14.00" fill="#000000">owner_guid </text>
<text text-anchor="start" x="129.2426" y="-56.9" font-family="Arial" font-size="14.00" fill="#666666">[text]</text>
<polygon fill="none" stroke="#000000" stroke-width="3" points="44.5,-44.5 44.5,-352.5 209.5,-352.5 209.5,-44.5 44.5,-44.5"/>
</g>
</g>
</svg>
