<?xml version="1.0" encoding="UTF-8" standalone="no"?>
<!DOCTYPE svg PUBLIC "-//W3C//DTD SVG 1.1//EN"
 "http://www.w3.org/Graphics/SVG/1.1/DTD/svg11.dtd">
<!-- Generated by graphviz version 2.40.1 (20161225.0304)
 -->
<!-- Title: recurrences Pages: 1 -->
<svg width="318pt" height="255pt"
 viewBox="0.00 0.00 318.00 255.00" xmlns="http://www.w3.org/2000/svg" xmlns:xlink="http://www.w3.org/1999/xlink">
<g id="graph0" class="graph" transform="scale(1 1) rotate(0) translate(4 251)">
<title>recurrences</title>
<polygon fill="#ffffff" stroke="transparent" points="-4,4 -4,-251 314,-251 314,4 -4,4"/>
<!-- recurrences -->
<g id="node1" class="node">
<title>recurrences</title>
<polygon fill="#efefef" stroke="transparent" points="46,-165.5 46,-200.5 264,-200.5 264,-165.5 46,-165.5"/>
<polygon fill="none" stroke="#000000" points="46,-165.5 46,-200.5 264,-200.5 264,-165.5 46,-165.5"/>
<text text-anchor="start" x="58.8693" y="-178.3" font-family="Arial Bold" font-size="18.00" fill="#000000">recurrences</text>
<text text-anchor="start" x="153.8769" y="-178.3" font-family="Arial" font-size="14.00" fill="#000000"> </text>
<text text-anchor="start" x="157.7675" y="-178.3" font-family="Arial" font-size="14.00" fill="#666666">[BASE TABLE]</text>
<polygon fill="none" stroke="#000000" points="46,-135.5 46,-165.5 264,-165.5 264,-135.5 46,-135.5"/>
<text text-anchor="start" x="53" y="-146.9" font-family="Arial" font-size="14.00" fill="#000000">obj_guid </text>
<text text-anchor="start" x="109.7994" y="-146.9" font-family="Arial" font-size="14.00" fill="#666666">[varchar(32)]</text>
<polygon fill="none" stroke="#000000" points="46,-105.5 46,-135.5 264,-135.5 264,-105.5 46,-105.5"/>
<text text-anchor="start" x="53" y="-116.9" font-family="Arial" font-size="14.00" fill="#000000">recurrence_mult </text>
<text text-anchor="start" x="158.0084" y="-116.9" font-family="Arial" font-size="14.00" fill="#666666">[int(11)]</text>
<polygon fill="none" stroke="#000000" points="46,-75.5 46,-105.5 264,-105.5 264,-75.5 46,-75.5"/>
<text text-anchor="start" x="53" y="-86.9" font-family="Arial" font-size="14.00" fill="#000000">recurrence_period_type </text>
<text text-anchor="start" x="204.704" y="-86.9" font-family="Arial" font-size="14.00" fill="#666666">[text]</text>
<polygon fill="none" stroke="#000000" points="46,-45.5 46,-75.5 264,-75.5 264,-45.5 46,-45.5"/>
<text text-anchor="start" x="52.7083" y="-56.9" font-family="Arial" font-size="14.00" fill="#000000">recurrence_period_start </text>
<text text-anchor="start" x="205.1809" y="-56.9" font-family="Arial" font-size="14.00" fill="#666666">[char(8)]</text>
<polygon fill="none" stroke="#000000" stroke-width="3" points="44.5,-44.5 44.5,-202.5 265.5,-202.5 265.5,-44.5 44.5,-44.5"/>
</g>
</g>
</svg>
