<?xml version="1.0" encoding="UTF-8" standalone="no"?>
<!DOCTYPE svg PUBLIC "-//W3C//DTD SVG 1.1//EN"
 "http://www.w3.org/Graphics/SVG/1.1/DTD/svg11.dtd">
<!-- Generated by graphviz version 2.40.1 (20161225.0304)
 -->
<!-- Title: slots Pages: 1 -->
<svg width="291pt" height="495pt"
 viewBox="0.00 0.00 291.00 495.00" xmlns="http://www.w3.org/2000/svg" xmlns:xlink="http://www.w3.org/1999/xlink">
<g id="graph0" class="graph" transform="scale(1 1) rotate(0) translate(4 491)">
<title>slots</title>
<polygon fill="#ffffff" stroke="transparent" points="-4,4 -4,-491 287,-491 287,4 -4,4"/>
<!-- slots -->
<g id="node1" class="node">
<title>slots</title>
<polygon fill="#efefef" stroke="transparent" points="46.5,-405.5 46.5,-440.5 237.5,-440.5 237.5,-405.5 46.5,-405.5"/>
<polygon fill="none" stroke="#000000" points="46.5,-405.5 46.5,-440.5 237.5,-440.5 237.5,-405.5 46.5,-405.5"/>
<text text-anchor="start" x="74.8718" y="-418.3" font-family="Arial Bold" font-size="18.00" fill="#000000">slots</text>
<text text-anchor="start" x="111.8744" y="-418.3" font-family="Arial" font-size="14.00" fill="#000000"> </text>
<text text-anchor="start" x="115.765" y="-418.3" font-family="Arial" font-size="14.00" fill="#666666">[BASE TABLE]</text>
<polygon fill="none" stroke="#000000" points="46.5,-375.5 46.5,-405.5 237.5,-405.5 237.5,-375.5 46.5,-375.5"/>
<text text-anchor="start" x="53.5" y="-386.9" font-family="Arial" font-size="14.00" fill="#000000">id </text>
<text text-anchor="start" x="68.2798" y="-386.9" font-family="Arial" font-size="14.00" fill="#666666">[int(11)]</text>
<polygon fill="none" stroke="#000000" points="46.5,-345.5 46.5,-375.5 237.5,-375.5 237.5,-345.5 46.5,-345.5"/>
<text text-anchor="start" x="53.5" y="-356.9" font-family="Arial" font-size="14.00" fill="#000000">obj_guid </text>
<text text-anchor="start" x="110.2994" y="-356.9" font-family="Arial" font-size="14.00" fill="#666666">[varchar(32)]</text>
<polygon fill="none" stroke="#000000" points="46.5,-315.5 46.5,-345.5 237.5,-345.5 237.5,-315.5 46.5,-315.5"/>
<text text-anchor="start" x="53.5" y="-326.9" font-family="Arial" font-size="14.00" fill="#000000">name </text>
<text text-anchor="start" x="92.399" y="-326.9" font-family="Arial" font-size="14.00" fill="#666666">[text]</text>
<polygon fill="none" stroke="#000000" points="46.5,-285.5 46.5,-315.5 237.5,-315.5 237.5,-285.5 46.5,-285.5"/>
<text text-anchor="start" x="53.5" y="-296.9" font-family="Arial" font-size="14.00" fill="#000000">slot_type </text>
<text text-anchor="start" x="113.4088" y="-296.9" font-family="Arial" font-size="14.00" fill="#666666">[int(11)]</text>
<polygon fill="none" stroke="#000000" points="46.5,-255.5 46.5,-285.5 237.5,-285.5 237.5,-255.5 46.5,-255.5"/>
<text text-anchor="start" x="53.5" y="-266.9" font-family="Arial" font-size="14.00" fill="#000000">int64_val </text>
<text text-anchor="start" x="113.4074" y="-266.9" font-family="Arial" font-size="14.00" fill="#666666">[int(11)]</text>
<polygon fill="none" stroke="#000000" points="46.5,-225.5 46.5,-255.5 237.5,-255.5 237.5,-225.5 46.5,-225.5"/>
<text text-anchor="start" x="53.5" y="-236.9" font-family="Arial" font-size="14.00" fill="#000000">string_val </text>
<text text-anchor="start" x="117.2854" y="-236.9" font-family="Arial" font-size="14.00" fill="#666666">[text]</text>
<polygon fill="none" stroke="#000000" points="46.5,-195.5 46.5,-225.5 237.5,-225.5 237.5,-195.5 46.5,-195.5"/>
<text text-anchor="start" x="53.5" y="-206.9" font-family="Arial" font-size="14.00" fill="#000000">double_val </text>
<text text-anchor="start" x="125.082" y="-206.9" font-family="Arial" font-size="14.00" fill="#666666">[double]</text>
<polygon fill="none" stroke="#000000" points="46.5,-165.5 46.5,-195.5 237.5,-195.5 237.5,-165.5 46.5,-165.5"/>
<text text-anchor="start" x="53.5" y="-176.9" font-family="Arial" font-size="14.00" fill="#000000">timespec_val </text>
<text text-anchor="start" x="139.068" y="-176.9" font-family="Arial" font-size="14.00" fill="#666666">[char(14)]</text>
<polygon fill="none" stroke="#000000" points="46.5,-135.5 46.5,-165.5 237.5,-165.5 237.5,-135.5 46.5,-135.5"/>
<text text-anchor="start" x="53.5" y="-146.9" font-family="Arial" font-size="14.00" fill="#000000">guid_val </text>
<text text-anchor="start" x="109.5168" y="-146.9" font-family="Arial" font-size="14.00" fill="#666666">[varchar(32)]</text>
<polygon fill="none" stroke="#000000" points="46.5,-105.5 46.5,-135.5 237.5,-135.5 237.5,-105.5 46.5,-105.5"/>
<text text-anchor="start" x="53.5" y="-116.9" font-family="Arial" font-size="14.00" fill="#000000">numeric_val_num </text>
<text text-anchor="start" x="167.8464" y="-116.9" font-family="Arial" font-size="14.00" fill="#666666">[int(11)]</text>
<polygon fill="none" stroke="#000000" points="46.5,-75.5 46.5,-105.5 237.5,-105.5 237.5,-75.5 46.5,-75.5"/>
<text text-anchor="start" x="53.3205" y="-86.9" font-family="Arial" font-size="14.00" fill="#000000">numeric_val_denom </text>
<text text-anchor="start" x="183.2321" y="-86.9" font-family="Arial" font-size="14.00" fill="#666666">[int(11)]</text>
<polygon fill="none" stroke="#000000" points="46.5,-45.5 46.5,-75.5 237.5,-75.5 237.5,-45.5 46.5,-45.5"/>
<text text-anchor="start" x="53.5" y="-56.9" font-family="Arial" font-size="14.00" fill="#000000">gdate_val </text>
<text text-anchor="start" x="118.0834" y="-56.9" font-family="Arial" font-size="14.00" fill="#666666">[date]</text>
<polygon fill="none" stroke="#000000" stroke-width="3" points="44.5,-44.5 44.5,-442.5 238.5,-442.5 238.5,-44.5 44.5,-44.5"/>
</g>
</g>
</svg>
